<?xml version="1.0" encoding="utf-8"?>
<svg xmlns:dc="http://purl.org/dc/elements/1.1/" xmlns:cc="http://creativecommons.org/ns#" xmlns:rdf="http://www.w3.org/1999/02/22-rdf-syntax-ns#" xmlns:svg="http://www.w3.org/2000/svg" xmlns="http://www.w3.org/2000/svg" viewBox="0 0 742.66656 562.50488" height="562.505" width="742.667" xml:space="preserve" version="1.1"><defs><clipPath id="clipPath22" clipPathUnits="userSpaceOnUse"><path d="M 0,0 H 557 V 422 H 0 Z"/></clipPath><clipPath id="clipPath112" clipPathUnits="userSpaceOnUse"><path d="M 0,0 H 557 V 422 H 0 Z"/></clipPath><clipPath id="clipPath124" clipPathUnits="userSpaceOnUse"><path d="M 0,0 H 557 V 422 H 0 Z"/></clipPath><clipPath id="clipPath136" clipPathUnits="userSpaceOnUse"><path d="m 119,304 h 54 v 3 h -54 z"/></clipPath><clipPath id="clipPath150" clipPathUnits="userSpaceOnUse"><path d="m 120,304 h 51 v 17 h -51 z"/></clipPath><clipPath id="clipPath166" clipPathUnits="userSpaceOnUse"><path d="M 0,0 H 557 V 422 H 0 Z"/></clipPath><clipPath id="clipPath178" clipPathUnits="userSpaceOnUse"><path d="M 0,0 H 557 V 422 H 0 Z"/></clipPath><clipPath id="clipPath190" clipPathUnits="userSpaceOnUse"><path d="m 208,304 h 117 v 3 H 208 Z"/></clipPath><clipPath id="clipPath204" clipPathUnits="userSpaceOnUse"><path d="m 209,304 h 116 v 18 H 209 Z"/></clipPath><clipPath id="clipPath218" clipPathUnits="userSpaceOnUse"><path d="m 361.074,326.543 h 63.055 v -24.02 h -63.055 z"/></clipPath><clipPath id="clipPath228" clipPathUnits="userSpaceOnUse"><path d="m 361,302 h 64 v 25 h -64 z"/></clipPath><clipPath id="clipPath250" clipPathUnits="userSpaceOnUse"><path d="m 33,193 h 234 v 67 H 33 Z"/></clipPath><clipPath id="clipPath272" clipPathUnits="userSpaceOnUse"><path d="M 0,0 H 557 V 422 H 0 Z"/></clipPath><clipPath id="clipPath284" clipPathUnits="userSpaceOnUse"><path d="M 0,0 H 557 V 422 H 0 Z"/></clipPath><clipPath id="clipPath296" clipPathUnits="userSpaceOnUse"><path d="m 270,190 h 223 v 3 H 270 Z"/></clipPath><clipPath id="clipPath310" clipPathUnits="userSpaceOnUse"><path d="m 45,166 h 448 v 42 H 45 Z"/></clipPath><clipPath id="clipPath332" clipPathUnits="userSpaceOnUse"><path d="M 0,0 H 557 V 422 H 0 Z"/></clipPath><clipPath id="clipPath344" clipPathUnits="userSpaceOnUse"><path d="M 0,0 H 557 V 422 H 0 Z"/></clipPath><clipPath id="clipPath356" clipPathUnits="userSpaceOnUse"><path d="M 0,0 H 557 V 422 H 0 Z"/></clipPath><clipPath id="clipPath368" clipPathUnits="userSpaceOnUse"><path d="m 228,166 h 217 v 3 H 228 Z"/></clipPath><clipPath id="clipPath382" clipPathUnits="userSpaceOnUse"><path d="m 45,145 h 399 v 39 H 45 Z"/></clipPath><clipPath id="clipPath404" clipPathUnits="userSpaceOnUse"><path d="M 0,0 H 557 V 422 H 0 Z"/></clipPath><clipPath id="clipPath416" clipPathUnits="userSpaceOnUse"><path d="M 0,0 H 557 V 422 H 0 Z"/></clipPath><clipPath id="clipPath428" clipPathUnits="userSpaceOnUse"><path d="m 280,142 h 162 v 3 H 280 Z"/></clipPath><clipPath id="clipPath442" clipPathUnits="userSpaceOnUse"><path d="m 281,142 h 160 v 18 H 281 Z"/></clipPath><clipPath id="clipPath456" clipPathUnits="userSpaceOnUse"><path d="M 32.277,74.316 H 69.812 V 36.785 H 32.277 Z"/></clipPath><clipPath id="clipPath466" clipPathUnits="userSpaceOnUse"><path d="M 32,36 H 70 V 75 H 32 Z"/></clipPath><clipPath id="clipPath480" clipPathUnits="userSpaceOnUse"><path d="m 74.316,74.316 h 37.535 V 36.785 H 74.316 Z"/></clipPath><clipPath id="clipPath490" clipPathUnits="userSpaceOnUse"><path d="m 74,40 h 38 V 71 H 74 Z"/></clipPath><clipPath id="clipPath502" clipPathUnits="userSpaceOnUse"><path d="m 116.355,74.316 h 37.531 V 36.785 h -37.531 z"/></clipPath><clipPath id="clipPath512" clipPathUnits="userSpaceOnUse"><path d="m 116,36 h 38 v 39 h -38 z"/></clipPath></defs><g transform="matrix(1.333,0,0,-1.333,0,562.505)"><g><g transform="translate(0,-0.121)"><g><g clip-path="url(#clipPath22)"><g><path style="fill:#d3d3d3;fill-opacity:1;fill-rule:nonzero;stroke:none" d="M 0,422 H 557 V 0.121 H 0 Z"/><path style="fill:#eeeeee;fill-opacity:1;fill-rule:nonzero;stroke:none" d="m 0,422 h 557 v -2.254 H 0 Z"/><path style="fill:#9a9a9a;fill-opacity:1;fill-rule:nonzero;stroke:none" d="M 0,2.375 H 557 V 0.121 H 0 Z"/><path style="fill:#9a9a9a;fill-opacity:1;fill-rule:nonzero;stroke:none" d="M 554.746,419.746 V 0.121 H 557 V 422"/><path style="fill:#eeeeee;fill-opacity:1;fill-rule:nonzero;stroke:none" d="M 0,422 V 0.121 L 2.254,2.375 V 422"/><path style="fill:#00008b;fill-opacity:1;fill-rule:nonzero;stroke:none" d="M 5.254,416.746 H 551.746 V 378.461 H 5.254 Z"/><path style="fill:#d3d3d3;fill-opacity:1;fill-rule:nonzero;stroke:none" d="M 5.254,378.461 H 551.746 V 335.672 H 5.254 Z"/><path style="fill:#ffffff;fill-opacity:1;fill-rule:nonzero;stroke:none" d="M 5.254,335.672 H 551.746 V 5.375 H 5.254 Z"/><path style="fill:#9a9a9a;fill-opacity:1;fill-rule:nonzero;stroke:none" d="m 5.254,335.672 h 546.492 v -2.25 H 5.254 Z"/><path style="fill:#eeeeee;fill-opacity:1;fill-rule:nonzero;stroke:none" d="M 5.254,7.629 H 551.746 V 5.375 H 5.254 Z"/><path style="fill:#eeeeee;fill-opacity:1;fill-rule:nonzero;stroke:none" d="M 549.492,333.422 V 5.375 h 2.254 v 330.297"/><path style="fill:#9a9a9a;fill-opacity:1;fill-rule:nonzero;stroke:none" d="M 5.254,335.672 V 5.375 l 2.254,2.254 v 328.043"/><path style="fill:#ffd6b8;fill-opacity:1;fill-rule:nonzero;stroke:none" d="M 8.258,332.668 H 548.742 V 291.383 H 8.258 Z"/><path style="fill:#ffd6b8;fill-opacity:1;fill-rule:nonzero;stroke:none" d="M 8.258,98.461 H 548.742 V 7.629 H 8.258 Z"/><path style="fill:#d3d3d3;fill-opacity:1;fill-rule:nonzero;stroke:none" d="m 517.215,412.242 h 30.027 v -30.027 h -30.027 z"/><path style="fill:#ffffff;fill-opacity:1;fill-rule:nonzero;stroke:none" d="m 517.215,412.242 h 30.027 v -3.754 h -30.027 z"/><path style="fill:#ababab;fill-opacity:1;fill-rule:nonzero;stroke:none" d="m 517.215,385.969 h 30.027 v -3.754 h -30.027 z"/><path style="fill:#ababab;fill-opacity:1;fill-rule:nonzero;stroke:none" d="m 543.488,408.488 v -26.273 h 3.754 v 30.027"/><path style="fill:#ffffff;fill-opacity:1;fill-rule:nonzero;stroke:none" d="m 517.215,412.242 v -30.027 l 3.754,3.754 v 26.273"/><text style="font-variant:normal;font-weight:normal;font-size:18.016px;font-family:'DejaVu Sans';-inkscape-font-specification:DejaVuSans;writing-mode:lr-tb;fill:#000000;fill-opacity:1;fill-rule:nonzero;stroke:none" transform="matrix(1,0,0,-1,524.979,391.222)"><tspan>✕</tspan></text><text style="font-variant:normal;font-weight:600;font-size:18.016px;font-family:'IBM Plex Sans SemiBold';-inkscape-font-specification:IBMPlexSans-SemiBold;writing-mode:lr-tb;fill:#ffffff;fill-opacity:1;fill-rule:nonzero;stroke:none" transform="matrix(1,0,0,-1,9.501,390.472)"><tspan x="0 12.755 23.277 33.78 39.041 43.545 54.049 63.813 68.317 78.821 88.586 99.089 105.106 109.61 118.618 123.123 129.897 134.383 147.138 159.912 172.667 185.422 189.926 201.205 208.699 219.221">Quoi de neuf ? | GOOD SITE</tspan></text><text style="font-variant:normal;font-weight:normal;font-size:22.52px;font-family:'IBM Plex Sans';-inkscape-font-specification:IBMPlexSans;writing-mode:lr-tb;fill:#000000;fill-opacity:1;fill-rule:nonzero;stroke:none" transform="matrix(1,0,0,-1,13.5,348.434)"><tspan>←</tspan></text><text style="font-variant:normal;font-weight:normal;font-size:22.52px;font-family:'IBM Plex Sans';-inkscape-font-specification:IBMPlexSans;writing-mode:lr-tb;fill:#000000;fill-opacity:1;fill-rule:nonzero;stroke:none" transform="matrix(1,0,0,-1,42.777,348.434)"><tspan>→</tspan></text><text style="font-variant:normal;font-weight:normal;font-size:22.52px;font-family:'DejaVu Sans';-inkscape-font-specification:DejaVuSans;writing-mode:lr-tb;fill:#000000;fill-opacity:1;fill-rule:nonzero;stroke:none" transform="matrix(1,0,0,-1,72.053,348.434)"><tspan>⟳</tspan></text><path style="fill:#ffffff;fill-opacity:1;fill-rule:nonzero;stroke:none" d="m 102.59,345.68 v 22.773 c 0,0.465 0.09,0.91 0.265,1.34 0.18,0.43 0.434,0.809 0.762,1.137 0.328,0.328 0.707,0.582 1.137,0.761 0.43,0.176 0.875,0.266 1.34,0.266 h 404.863 c 0.465,0 0.914,-0.09 1.344,-0.266 0.429,-0.179 0.808,-0.433 1.137,-0.761 0.328,-0.328 0.582,-0.707 0.757,-1.137 0.18,-0.43 0.27,-0.875 0.27,-1.34 V 345.68 c 0,-0.465 -0.09,-0.91 -0.27,-1.34 -0.175,-0.43 -0.429,-0.809 -0.757,-1.137 -0.329,-0.328 -0.708,-0.582 -1.137,-0.762 -0.43,-0.175 -0.879,-0.265 -1.344,-0.265 H 106.094 c -0.465,0 -0.91,0.09 -1.34,0.265 -0.43,0.18 -0.809,0.434 -1.137,0.762 -0.328,0.328 -0.582,0.707 -0.762,1.137 -0.175,0.43 -0.265,0.875 -0.265,1.34 z"/><g transform="matrix(1,0,0,-1,0,422)"><path style="fill:none;stroke:#808080;stroke-width:0.751;stroke-linecap:butt;stroke-linejoin:miter;stroke-miterlimit:10;stroke-dasharray:none;stroke-opacity:1" d="M 102.469,76.32 V 53.547 c 0,-0.481 0.09,-0.942 0.273,-1.387 0.184,-0.445 0.446,-0.836 0.789,-1.176 0.34,-0.343 0.731,-0.605 1.176,-0.789 0.445,-0.183 0.906,-0.277 1.387,-0.277 h 404.863 c 0.484,0 0.945,0.094 1.391,0.277 0.445,0.184 0.836,0.446 1.175,0.789 0.34,0.34 0.602,0.731 0.789,1.176 0.184,0.445 0.274,0.906 0.274,1.387 V 76.32 c 0,0.481 -0.09,0.942 -0.274,1.387 -0.187,0.445 -0.449,0.836 -0.789,1.176 -0.339,0.34 -0.73,0.605 -1.175,0.789 -0.446,0.183 -0.907,0.273 -1.391,0.273 H 106.094 c -0.481,0 -0.942,-0.09 -1.387,-0.273 -0.445,-0.184 -0.836,-0.449 -1.176,-0.789 -0.343,-0.34 -0.605,-0.731 -0.789,-1.176 -0.183,-0.445 -0.273,-0.906 -0.273,-1.387 z"/></g><text style="font-variant:normal;font-weight:normal;font-size:16.215px;font-family:'IBM Plex Sans';-inkscape-font-specification:IBMPlexSans;writing-mode:lr-tb;fill:#000000;fill-opacity:1;fill-rule:nonzero;stroke:none" transform="matrix(1,0,0,-1,111.076,350.686)"><tspan x="0 9.761 15.761 21.776 31.537 39.791 44.298 48.044 54.059 63.058 71.279 80.327 94.596 104.357 108.848 117.864 122.371 130.624 139.64 153.892 159.908 172.669 182.43 191.429 197.445 205.698 215.459 224.474">https://example.com/whatsnew</tspan></text><text style="font-variant:normal;font-weight:normal;font-size:22.52px;font-family:'DejaVu Sans';-inkscape-font-specification:DejaVuSans;writing-mode:lr-tb;fill:#000000;fill-opacity:1;fill-rule:nonzero;stroke:none" transform="matrix(1,0,0,-1,523.231,348.434)"><tspan>☰</tspan></text><path style="fill:#0000ee;fill-opacity:1;fill-rule:nonzero;stroke:none" d="m 32.02,306.395 h 51.047 v -1.5 H 32.02 Z"/><text style="font-variant:normal;font-weight:normal;font-size:18.016px;font-family:'IBM Plex Sans';-inkscape-font-specification:IBMPlexSans;writing-mode:lr-tb;fill:#0000ee;fill-opacity:1;fill-rule:nonzero;stroke:none" transform="matrix(1,0,0,-1,32.021,307.898)"><tspan x="0 9.026 18.773 25.529 35.276">Lorem</tspan></text></g></g></g></g><g transform="translate(0,-0.121)"><g><g clip-path="url(#clipPath112)"><g><g><g><g clip-path="url(#clipPath124)"><g><g><g><g clip-path="url(#clipPath136)"><g><path style="fill:#0000ee;fill-opacity:1;fill-rule:nonzero;stroke:none" d="m 119.098,306.395 h 53.301 v -1.5 h -53.301 z"/></g></g></g></g></g></g></g></g></g></g></g></g><g transform="translate(0,-0.121)"><g><g clip-path="url(#clipPath150)"><g><text style="font-variant:normal;font-weight:normal;font-size:18.016px;font-family:'IBM Plex Sans';-inkscape-font-specification:IBMPlexSans;writing-mode:lr-tb;fill:#0000ee;fill-opacity:1;fill-rule:nonzero;stroke:none" transform="matrix(1,0,0,-1,119.099,307.898)"><tspan x="0 7.513 18.016 27.024 37.528">Ipsum</tspan></text></g></g></g></g><g transform="translate(0,-0.121)"><g><g clip-path="url(#clipPath166)"><g><g><g><g clip-path="url(#clipPath178)"><g><g><g><g clip-path="url(#clipPath190)"><g><path style="fill:#0000ee;fill-opacity:1;fill-rule:nonzero;stroke:none" d="m 208.43,306.395 h 116.355 v -1.5 H 208.43 Z"/></g></g></g></g></g></g></g></g></g></g></g></g><g transform="translate(0,-0.121)"><g><g clip-path="url(#clipPath204)"><g><text style="font-variant:normal;font-weight:normal;font-size:18.016px;font-family:'IBM Plex Sans';-inkscape-font-specification:IBMPlexSans;writing-mode:lr-tb;fill:#0000ee;fill-opacity:1;fill-rule:nonzero;stroke:none" transform="matrix(1,0,0,-1,208.429,307.898)"><tspan x="0 12.755 23.277 33.024 37.528 42.032 52.553 62.318 66.822 77.325 87.09 97.594 103.593 108.097">Quoi de neuf ?</tspan></text></g></g></g></g></g><g><g clip-path="url(#clipPath218)"><g transform="translate(0,-0.121)"><g><g clip-path="url(#clipPath228)"><g><path style="fill:#0f1418;fill-opacity:1;fill-rule:nonzero;stroke:none" d="m 420.379,326.664 h -36.035 v -24.019 h 36.035 c 2.07,0 3.75,1.679 3.75,3.75 v 16.515 c 0,2.074 -1.68,3.754 -3.75,3.754 z"/><path style="fill:#ee802f;fill-opacity:1;fill-rule:nonzero;stroke:none" d="m 384.344,326.664 h -19.516 c -2.074,0 -3.754,-1.68 -3.754,-3.754 v -16.515 c 0,-2.071 1.68,-3.75 3.754,-3.75 h 19.516 z"/><path style="fill:#ffffff;fill-opacity:1;fill-rule:nonzero;stroke:none" d="m 370.301,308.758 c 0,-1.305 -1.059,-2.363 -2.363,-2.363 -1.301,0 -2.36,1.058 -2.36,2.363 0,1.304 1.059,2.359 2.36,2.359 1.304,0 2.363,-1.055 2.363,-2.359 z m 6.472,-1.742 c -0.304,5.699 -4.871,10.269 -10.578,10.578 -0.336,0.019 -0.617,-0.254 -0.617,-0.59 v -1.774 c 0,-0.308 0.238,-0.57 0.547,-0.589 4.125,-0.27 7.43,-3.563 7.699,-7.696 0.02,-0.308 0.278,-0.55 0.59,-0.55 h 1.77 c 0.339,0 0.609,0.285 0.589,0.621 z m 5.321,-0.012 c -0.313,8.621 -7.246,15.598 -15.906,15.906 -0.333,0.012 -0.61,-0.258 -0.61,-0.59 v -1.773 c 0,-0.317 0.254,-0.574 0.57,-0.59 7.047,-0.285 12.704,-5.945 12.993,-12.992 0.011,-0.317 0.273,-0.57 0.589,-0.57 h 1.774 c 0.332,0 0.601,0.277 0.59,0.609 z"/><path style="fill:#ffffff;fill-opacity:1;fill-rule:nonzero;stroke:none" d="m 401.234,310.148 h -2.043 l -1.222,2.032 c -0.094,0.152 -0.18,0.289 -0.266,0.41 -0.086,0.121 -0.172,0.222 -0.258,0.308 -0.086,0.09 -0.175,0.153 -0.269,0.2 -0.094,0.047 -0.192,0.07 -0.305,0.07 h -0.476 v -3.02 h -1.778 v 7.887 h 2.817 c 1.914,0 2.871,-0.715 2.871,-2.144 0,-0.278 -0.043,-0.532 -0.129,-0.766 -0.082,-0.23 -0.203,-0.441 -0.356,-0.625 -0.156,-0.188 -0.34,-0.348 -0.562,-0.484 -0.215,-0.137 -0.457,-0.243 -0.727,-0.321 v -0.019 c 0.121,-0.039 0.235,-0.098 0.344,-0.184 0.109,-0.082 0.215,-0.176 0.316,-0.285 0.106,-0.109 0.204,-0.23 0.293,-0.359 0.094,-0.125 0.18,-0.246 0.258,-0.368 z m -4.839,6.555 v -2.195 h 0.769 c 0.383,0 0.688,0.113 0.918,0.332 0.234,0.222 0.352,0.5 0.352,0.828 0,0.691 -0.411,1.035 -1.239,1.035 z m 5.75,-6.25 v 1.758 c 0.316,-0.266 0.664,-0.469 1.039,-0.606 0.371,-0.128 0.75,-0.195 1.132,-0.195 0.223,0 0.418,0.02 0.582,0.059 0.168,0.039 0.309,0.097 0.418,0.164 0.114,0.074 0.196,0.16 0.254,0.254 0.055,0.097 0.082,0.207 0.082,0.32 0,0.152 -0.047,0.289 -0.132,0.41 -0.09,0.121 -0.211,0.235 -0.364,0.336 -0.152,0.102 -0.332,0.203 -0.539,0.297 -0.207,0.098 -0.433,0.191 -0.676,0.293 -0.617,0.254 -1.078,0.57 -1.379,0.937 -0.3,0.372 -0.453,0.821 -0.453,1.344 0,0.41 0.082,0.762 0.25,1.055 0.164,0.297 0.387,0.543 0.668,0.73 0.285,0.192 0.618,0.332 0.993,0.418 0.371,0.094 0.769,0.137 1.187,0.137 0.41,0 0.773,-0.023 1.086,-0.074 0.32,-0.047 0.613,-0.125 0.879,-0.227 v -1.644 c -0.129,0.093 -0.274,0.172 -0.434,0.242 -0.152,0.07 -0.312,0.129 -0.476,0.172 -0.164,0.047 -0.332,0.082 -0.496,0.101 -0.161,0.024 -0.317,0.036 -0.461,0.036 -0.203,0 -0.387,-0.02 -0.551,-0.063 -0.164,-0.035 -0.305,-0.09 -0.418,-0.156 -0.113,-0.071 -0.199,-0.156 -0.262,-0.254 -0.062,-0.098 -0.094,-0.203 -0.094,-0.324 0,-0.133 0.036,-0.25 0.102,-0.36 0.07,-0.101 0.172,-0.199 0.297,-0.297 0.129,-0.089 0.285,-0.183 0.469,-0.273 0.183,-0.09 0.39,-0.18 0.621,-0.273 0.316,-0.133 0.597,-0.274 0.847,-0.426 0.254,-0.145 0.469,-0.313 0.649,-0.5 0.18,-0.188 0.316,-0.403 0.414,-0.645 0.094,-0.238 0.141,-0.515 0.141,-0.832 0,-0.441 -0.082,-0.812 -0.254,-1.113 -0.164,-0.297 -0.391,-0.539 -0.676,-0.727 -0.285,-0.183 -0.617,-0.312 -1,-0.394 -0.379,-0.082 -0.778,-0.121 -1.199,-0.121 -0.43,0 -0.844,0.035 -1.235,0.109 -0.39,0.074 -0.726,0.184 -1.011,0.332 z m 6.839,0 v 1.758 c 0.321,-0.266 0.668,-0.469 1.039,-0.606 0.375,-0.128 0.754,-0.195 1.133,-0.195 0.227,0 0.418,0.02 0.586,0.059 0.168,0.039 0.305,0.097 0.418,0.164 0.113,0.074 0.195,0.16 0.25,0.254 0.055,0.097 0.082,0.207 0.082,0.32 0,0.152 -0.043,0.289 -0.129,0.41 -0.09,0.121 -0.211,0.235 -0.363,0.336 -0.152,0.102 -0.332,0.203 -0.539,0.297 -0.211,0.098 -0.434,0.191 -0.676,0.293 -0.617,0.254 -1.078,0.57 -1.383,0.937 -0.3,0.372 -0.449,0.821 -0.449,1.344 0,0.41 0.082,0.762 0.246,1.055 0.164,0.297 0.391,0.543 0.672,0.73 0.285,0.192 0.617,0.332 0.988,0.418 0.375,0.094 0.77,0.137 1.188,0.137 0.41,0 0.773,-0.023 1.09,-0.074 0.32,-0.047 0.613,-0.125 0.879,-0.227 v -1.644 c -0.133,0.093 -0.278,0.172 -0.434,0.242 -0.152,0.07 -0.312,0.129 -0.477,0.172 -0.167,0.047 -0.332,0.082 -0.496,0.101 -0.16,0.024 -0.316,0.036 -0.461,0.036 -0.203,0 -0.386,-0.02 -0.55,-0.063 -0.164,-0.035 -0.305,-0.09 -0.418,-0.156 -0.114,-0.071 -0.203,-0.156 -0.266,-0.254 -0.062,-0.098 -0.094,-0.203 -0.094,-0.324 0,-0.133 0.035,-0.25 0.106,-0.36 0.07,-0.101 0.168,-0.199 0.297,-0.297 0.129,-0.089 0.285,-0.183 0.468,-0.273 0.184,-0.09 0.391,-0.18 0.621,-0.273 0.317,-0.133 0.598,-0.274 0.848,-0.426 0.25,-0.145 0.469,-0.313 0.649,-0.5 0.179,-0.188 0.316,-0.403 0.41,-0.645 0.097,-0.238 0.144,-0.515 0.144,-0.832 0,-0.441 -0.086,-0.812 -0.254,-1.113 -0.164,-0.297 -0.39,-0.539 -0.675,-0.727 -0.286,-0.183 -0.622,-0.312 -1,-0.394 -0.379,-0.082 -0.778,-0.121 -1.2,-0.121 -0.433,0 -0.843,0.035 -1.238,0.109 -0.387,0.074 -0.723,0.184 -1.012,0.332 z"/></g></g></g></g></g></g><g><g transform="translate(0,-0.121)"><g><g clip-path="url(#clipPath250)"><g><text style="font-variant:normal;font-weight:600;font-size:28.023px;font-family:'IBM Plex Sans SemiBold';-inkscape-font-specification:IBMPlexSans-SemiBold;writing-mode:lr-tb;fill:#000000;fill-opacity:1;fill-rule:nonzero;stroke:none" transform="matrix(1,0,0,-1,32.021,238.836)"><tspan x="0 19.532 36.009 51.786 59.296 66.077 82.583 98.36 105.113 121.59 137.395 153.872 163.68 170.406">Quoi de neuf ?</tspan></text><path style="fill:#000000;fill-opacity:1;fill-rule:nonzero;stroke:none" d="m 51.047,199.801 c 0,-0.399 -0.078,-0.781 -0.231,-1.149 -0.152,-0.367 -0.367,-0.695 -0.648,-0.976 -0.281,-0.281 -0.609,-0.496 -0.977,-0.649 -0.367,-0.152 -0.75,-0.23 -1.148,-0.23 -0.398,0 -0.781,0.078 -1.148,0.23 -0.368,0.153 -0.692,0.368 -0.977,0.649 -0.281,0.281 -0.496,0.609 -0.648,0.976 -0.153,0.368 -0.231,0.75 -0.231,1.149 0,0.398 0.078,0.781 0.231,1.148 0.152,0.367 0.367,0.692 0.648,0.973 0.285,0.285 0.609,0.5 0.977,0.652 0.367,0.153 0.75,0.231 1.148,0.231 0.398,0 0.781,-0.078 1.148,-0.231 0.368,-0.152 0.696,-0.367 0.977,-0.652 0.281,-0.281 0.496,-0.606 0.648,-0.973 0.153,-0.367 0.231,-0.75 0.231,-1.148 z"/><text style="font-variant:normal;font-weight:normal;font-size:18.016px;font-family:'IBM Plex Sans';-inkscape-font-specification:IBMPlexSans;writing-mode:lr-tb;fill:#000000;fill-opacity:1;fill-rule:nonzero;stroke:none" transform="matrix(1,0,0,-1,62.048,193.795)"><tspan x="0 10.503 15.007 24.772 33.78 39.798 49.544 60.066 66.822 76.569 81.073 91.594 102.098 112.601 123.123 127.627 137.391 141.895 152.399 162.902 173.424 183.927 194.431 198.935 204.195">2 octobre 2020 à 11h30 : </tspan></text></g></g></g></g><g transform="translate(0,-0.121)"><g><g clip-path="url(#clipPath272)"><g><g><g><g clip-path="url(#clipPath284)"><g><g><g><g clip-path="url(#clipPath296)"><g><path style="fill:#0000ee;fill-opacity:1;fill-rule:nonzero;stroke:none" d="m 270.734,192.293 h 222.199 v -1.5 H 270.734 Z"/></g></g></g></g></g></g></g></g></g></g></g></g><g transform="translate(0,-0.121)"><g><g clip-path="url(#clipPath310)"><g><text style="font-variant:normal;font-weight:normal;font-size:18.016px;font-family:'IBM Plex Sans';-inkscape-font-specification:IBMPlexSans;writing-mode:lr-tb;fill:#0000ee;fill-opacity:1;fill-rule:nonzero;stroke:none" transform="matrix(1,0,0,-1,270.735,193.795)"><tspan x="0 9.026 18.773 25.529 35.276 51.058 55.562 60.066 70.569 79.577 90.081 105.809 110.349 120.87 130.635 135.878 145.643 152.399 156.903 165.911 170.415 176.414 180.918 190.683 206.411 216.212">Lorem ipsum dolor sit amet</tspan></text><path style="fill:#000000;fill-opacity:1;fill-rule:nonzero;stroke:none" d="m 51.047,175.777 c 0,-0.398 -0.078,-0.781 -0.231,-1.148 -0.152,-0.367 -0.367,-0.691 -0.648,-0.973 -0.281,-0.281 -0.609,-0.5 -0.977,-0.652 -0.367,-0.152 -0.75,-0.227 -1.148,-0.227 -0.398,0 -0.781,0.075 -1.148,0.227 -0.368,0.152 -0.692,0.371 -0.977,0.652 -0.281,0.282 -0.496,0.606 -0.648,0.973 -0.153,0.367 -0.231,0.75 -0.231,1.148 0,0.399 0.078,0.782 0.231,1.153 0.152,0.367 0.367,0.691 0.648,0.972 0.285,0.282 0.609,0.5 0.977,0.653 0.367,0.152 0.75,0.226 1.148,0.226 0.398,0 0.781,-0.074 1.148,-0.226 0.368,-0.153 0.696,-0.371 0.977,-0.653 0.281,-0.281 0.496,-0.605 0.648,-0.972 0.153,-0.371 0.231,-0.754 0.231,-1.153 z"/><text style="font-variant:normal;font-weight:normal;font-size:18.016px;font-family:'IBM Plex Sans';-inkscape-font-specification:IBMPlexSans;writing-mode:lr-tb;fill:#000000;fill-opacity:1;fill-rule:nonzero;stroke:none" transform="matrix(1,0,0,-1,62.048,169.774)"><tspan x="0 10.503 21.025 25.529 30.033 40.536 45.04 55.562 60.066 70.569 81.073 91.594 102.098 106.602 116.366 120.87 131.374 141.895 152.399 156.903 162.164">30 juin 2020 à 12h : </tspan></text></g></g></g></g><g transform="translate(0,-0.121)"><g><g clip-path="url(#clipPath332)"><g><g><g><g clip-path="url(#clipPath344)"><g><g><g><g clip-path="url(#clipPath356)"><g><g><g><g clip-path="url(#clipPath368)"><g><path style="fill:#0000ee;fill-opacity:1;fill-rule:nonzero;stroke:none" d="M 228.699,168.273 H 444.14 v -1.504 H 228.699 Z"/></g></g></g></g></g></g></g></g></g></g></g></g></g></g></g></g><g transform="translate(0,-0.121)"><g><g clip-path="url(#clipPath382)"><g><text style="font-variant:normal;font-weight:normal;font-size:18.016px;font-family:'IBM Plex Sans';-inkscape-font-specification:IBMPlexSans;writing-mode:lr-tb;fill:#0000ee;fill-opacity:1;fill-rule:nonzero;stroke:none" transform="matrix(1,0,0,-1,228.697,169.774)"><tspan x="0 11.26 21.025 31.528 40.536 50.301 59.309 65.309 75.073 81.073 91.594 98.35 102.854 112.601 123.123 127.627 138.13 142.634 151.642 160.65 165.154 175.676 185.422 189.926 199.691 204.952 209.456">Consectetur adipiscing elit</tspan></text><path style="fill:#000000;fill-opacity:1;fill-rule:nonzero;stroke:none" d="m 51.047,151.758 c 0,-0.399 -0.078,-0.781 -0.231,-1.149 -0.152,-0.367 -0.367,-0.695 -0.648,-0.976 -0.281,-0.281 -0.609,-0.496 -0.977,-0.649 -0.367,-0.152 -0.75,-0.23 -1.148,-0.23 -0.398,0 -0.781,0.078 -1.148,0.23 -0.368,0.153 -0.692,0.368 -0.977,0.649 -0.281,0.281 -0.496,0.609 -0.648,0.976 -0.153,0.368 -0.231,0.75 -0.231,1.149 0,0.398 0.078,0.781 0.231,1.148 0.152,0.367 0.367,0.692 0.648,0.973 0.285,0.285 0.609,0.5 0.977,0.652 0.367,0.153 0.75,0.231 1.148,0.231 0.398,0 0.781,-0.078 1.148,-0.231 0.368,-0.152 0.696,-0.367 0.977,-0.652 0.281,-0.281 0.496,-0.606 0.648,-0.973 0.153,-0.367 0.231,-0.75 0.231,-1.148 z"/><text style="font-variant:normal;font-weight:normal;font-size:18.016px;font-family:'IBM Plex Sans';-inkscape-font-specification:IBMPlexSans;writing-mode:lr-tb;fill:#000000;fill-opacity:1;fill-rule:nonzero;stroke:none" transform="matrix(1,0,0,-1,62.048,145.752)"><tspan x="0 10.503 21.025 25.529 36.032 45.797 54.805 64.57 80.298 90.838 97.594 107.358 111.862 122.366 132.887 143.391 153.894 158.398 168.163 172.667 183.17 193.692 204.195 208.699 213.96">12 novembre 2015 à 19h : </tspan></text></g></g></g></g><g transform="translate(0,-0.121)"><g><g clip-path="url(#clipPath404)"><g><g><g><g clip-path="url(#clipPath416)"><g><g><g><g clip-path="url(#clipPath428)"><g><path style="fill:#0000ee;fill-opacity:1;fill-rule:nonzero;stroke:none" d="M 280.492,144.25 H 441.89 v -1.5 H 280.492 Z"/></g></g></g></g></g></g></g></g></g></g></g></g><g transform="translate(0,-0.121)"><g><g clip-path="url(#clipPath442)"><g><text style="font-variant:normal;font-weight:normal;font-size:18.016px;font-family:'IBM Plex Sans';-inkscape-font-specification:IBMPlexSans;writing-mode:lr-tb;fill:#0000ee;fill-opacity:1;fill-rule:nonzero;stroke:none" transform="matrix(1,0,0,-1,280.494,145.752)"><tspan x="0 10.467 19.53 29.276 34.537 44.284 51.058 55.562 64.57 75.073 85.577 95.342 99.846 110.349 120.114 125.375 135.121 141.895 146.399 150.903">Scelerisque dolor id</tspan></text></g></g></g></g></g><g><g clip-path="url(#clipPath456)"><g transform="translate(0,-0.121)"><g><g clip-path="url(#clipPath466)"><g><path style="fill:#1877f2;fill-opacity:1;fill-rule:nonzero;stroke:none" d="m 69.812,55.672 c 0,10.363 -8.402,18.766 -18.765,18.766 -10.367,0 -18.77,-8.403 -18.77,-18.766 0,-9.367 6.864,-17.133 15.836,-18.539 v 13.113 h -4.765 v 5.426 h 4.765 v 4.133 c 0,4.703 2.801,7.3 7.09,7.3 2.051,0 4.199,-0.363 4.199,-0.363 v -4.621 h -2.367 c -2.328,0 -3.058,-1.445 -3.058,-2.93 v -3.519 h 5.207 L 58.352,50.246 H 53.977 V 37.133 c 8.972,1.406 15.835,9.172 15.835,18.539"/><path style="fill:#ffffff;fill-opacity:1;fill-rule:nonzero;stroke:none" d="m 58.352,50.246 0.832,5.426 h -5.207 v 3.519 c 0,1.485 0.73,2.93 3.058,2.93 h 2.367 v 4.621 c 0,0 -2.148,0.363 -4.199,0.363 -4.289,0 -7.09,-2.597 -7.09,-7.3 v -4.133 h -4.765 v -5.426 h 4.765 V 37.133 c 0.957,-0.149 1.934,-0.227 2.934,-0.227 0.996,0 1.976,0.078 2.93,0.227 v 13.113 h 4.375"/></g></g></g></g></g></g><g><g clip-path="url(#clipPath480)"><g transform="translate(0,-0.121)"><g><g clip-path="url(#clipPath490)"><g><path style="fill:#1da1f2;fill-opacity:1;fill-rule:nonzero;stroke:none" d="m 86.121,40.422 c 14.164,0 21.91,11.734 21.91,21.91 0,0.336 0,0.664 -0.023,0.996 1.519,1.098 2.801,2.426 3.844,3.984 -1.414,-0.624 -2.891,-1.027 -4.426,-1.21 0.804,0.48 1.5,1.089 2.082,1.824 0.582,0.73 1.019,1.543 1.304,2.437 -1.523,-0.906 -3.152,-1.527 -4.89,-1.871 -0.578,0.617 -1.242,1.125 -1.992,1.524 -0.746,0.398 -1.539,0.668 -2.375,0.804 -0.836,0.137 -1.672,0.133 -2.508,-0.004 -0.836,-0.14 -1.629,-0.41 -2.375,-0.808 -0.746,-0.399 -1.41,-0.91 -1.988,-1.528 -0.582,-0.617 -1.047,-1.312 -1.395,-2.085 -0.351,-0.77 -0.566,-1.579 -0.652,-2.422 -0.082,-0.844 -0.028,-1.676 0.164,-2.504 -1.531,0.078 -3.039,0.312 -4.52,0.707 -1.48,0.394 -2.906,0.937 -4.273,1.629 -1.367,0.691 -2.645,1.519 -3.84,2.484 -1.191,0.961 -2.273,2.035 -3.238,3.227 -0.246,-0.422 -0.446,-0.86 -0.61,-1.317 -0.16,-0.461 -0.277,-0.929 -0.347,-1.41 -0.075,-0.48 -0.098,-0.961 -0.082,-1.449 0.019,-0.485 0.086,-0.965 0.195,-1.438 0.109,-0.472 0.262,-0.929 0.461,-1.375 0.195,-0.445 0.43,-0.867 0.707,-1.265 0.277,-0.399 0.586,-0.77 0.934,-1.11 0.347,-0.343 0.722,-0.648 1.124,-0.918 -1.242,0.039 -2.406,0.36 -3.496,0.965 0,-0.031 0,-0.062 0,-0.097 0,-0.442 0.039,-0.879 0.114,-1.313 0.078,-0.437 0.187,-0.859 0.336,-1.277 0.148,-0.414 0.332,-0.813 0.55,-1.2 0.215,-0.382 0.465,-0.746 0.743,-1.085 0.281,-0.344 0.586,-0.657 0.921,-0.946 0.332,-0.289 0.688,-0.547 1.067,-0.777 0.379,-0.227 0.773,-0.422 1.183,-0.578 0.411,-0.16 0.832,-0.285 1.266,-0.371 -1.148,-0.317 -2.308,-0.36 -3.476,-0.133 0.246,-0.766 0.601,-1.477 1.07,-2.129 0.469,-0.652 1.023,-1.219 1.668,-1.699 0.644,-0.481 1.347,-0.848 2.109,-1.11 0.762,-0.257 1.543,-0.394 2.348,-0.41 C 84.352,46 82.848,45.184 81.211,44.617 79.57,44.051 77.883,43.77 76.148,43.77 c -0.613,0 -1.222,0.039 -1.832,0.113 1.762,-1.133 3.645,-1.988 5.653,-2.578 2.008,-0.586 4.058,-0.879 6.152,-0.875"/></g></g></g></g></g></g><g><g clip-path="url(#clipPath502)"><g transform="translate(0,-0.121)"><g><g clip-path="url(#clipPath512)"><g><path style="fill:#100f0d;fill-opacity:1;fill-rule:nonzero;stroke:none" d="m 135.121,74.438 c -5.098,0 -5.734,-0.02 -7.738,-0.114 -1.996,-0.09 -3.36,-0.406 -4.555,-0.871 -1.234,-0.48 -2.281,-1.121 -3.324,-2.164 -1.043,-1.043 -1.684,-2.09 -2.164,-3.324 -0.465,-1.195 -0.781,-2.559 -0.871,-4.555 -0.094,-2.004 -0.114,-2.64 -0.114,-7.738 0,-5.098 0.02,-5.738 0.114,-7.738 0.09,-1.996 0.406,-3.364 0.871,-4.555 0.48,-1.234 1.121,-2.281 2.164,-3.324 1.043,-1.043 2.09,-1.684 3.324,-2.164 1.195,-0.465 2.559,-0.782 4.555,-0.875 2.004,-0.09 2.64,-0.11 7.738,-0.11 5.098,0 5.734,0.02 7.738,0.11 1.996,0.093 3.36,0.41 4.555,0.875 1.234,0.48 2.281,1.121 3.324,2.164 1.043,1.043 1.684,2.09 2.164,3.324 0.465,1.191 0.782,2.559 0.871,4.555 0.094,2 0.114,2.64 0.114,7.738 0,5.098 -0.02,5.734 -0.114,7.738 -0.089,1.996 -0.406,3.36 -0.871,4.555 -0.48,1.234 -1.121,2.281 -2.164,3.324 -1.043,1.043 -2.09,1.684 -3.324,2.164 -1.195,0.465 -2.559,0.781 -4.555,0.871 -2.004,0.094 -2.64,0.114 -7.738,0.114 z m 0,-3.379 c 5.012,0 5.606,-0.02 7.582,-0.11 1.832,-0.086 2.824,-0.39 3.488,-0.648 0.875,-0.34 1.5,-0.746 2.157,-1.403 0.656,-0.656 1.062,-1.281 1.402,-2.16 0.258,-0.66 0.562,-1.652 0.648,-3.484 0.09,-1.977 0.11,-2.57 0.11,-7.582 0,-5.012 -0.02,-5.606 -0.11,-7.586 -0.086,-1.828 -0.39,-2.82 -0.648,-3.484 -0.34,-0.875 -0.746,-1.5 -1.402,-2.157 -0.657,-0.656 -1.282,-1.062 -2.157,-1.402 -0.664,-0.258 -1.656,-0.563 -3.488,-0.648 -1.976,-0.09 -2.57,-0.11 -7.582,-0.11 -5.012,0 -5.605,0.02 -7.582,0.11 -1.832,0.085 -2.824,0.39 -3.484,0.648 -0.879,0.34 -1.504,0.746 -2.16,1.402 -0.657,0.657 -1.063,1.282 -1.403,2.157 -0.258,0.664 -0.562,1.656 -0.648,3.484 -0.09,1.98 -0.11,2.574 -0.11,7.586 0,5.012 0.02,5.605 0.11,7.582 0.086,1.832 0.39,2.824 0.648,3.484 0.34,0.879 0.746,1.504 1.403,2.16 0.656,0.657 1.281,1.063 2.16,1.403 0.66,0.258 1.652,0.562 3.484,0.648 1.977,0.09 2.57,0.11 7.582,0.11"/><path style="fill:#100f0d;fill-opacity:1;fill-rule:nonzero;stroke:none" d="m 135.121,49.414 c -3.453,0 -6.254,2.801 -6.254,6.258 0,3.453 2.801,6.254 6.254,6.254 3.457,0 6.254,-2.801 6.254,-6.254 0,-3.457 -2.797,-6.258 -6.254,-6.258 z m 0,15.895 c -5.32,0 -9.637,-4.317 -9.637,-9.637 0,-5.324 4.317,-9.637 9.637,-9.637 5.324,0 9.637,4.313 9.637,9.637 0,5.32 -4.313,9.637 -9.637,9.637"/><path style="fill:#100f0d;fill-opacity:1;fill-rule:nonzero;stroke:none" d="m 147.391,65.688 c 0,-1.243 -1.008,-2.25 -2.25,-2.25 -1.246,0 -2.254,1.007 -2.254,2.25 0,1.246 1.008,2.253 2.254,2.253 1.242,0 2.25,-1.007 2.25,-2.253"/></g></g></g></g></g></g></g></svg>
