<?xml version="1.0" encoding="utf-8"?>
<svg xmlns:dc="http://purl.org/dc/elements/1.1/" xmlns:cc="http://creativecommons.org/ns#" xmlns:rdf="http://www.w3.org/1999/02/22-rdf-syntax-ns#" xmlns:svg="http://www.w3.org/2000/svg" xmlns="http://www.w3.org/2000/svg" version="1.1" xml:space="preserve" width="742.667" height="576.517" viewBox="0 0 742.66656 576.51746"><defs><clipPath clipPathUnits="userSpaceOnUse" id="clipPath18"><path d="M 116.667,116.667 H 2437.5 V 3185.046 H 116.667 Z" style="clip-rule:evenodd"/></clipPath></defs><g transform="matrix(0.32,0,0,0.32,-37.333,-37.333)"><g><g clip-path="url(#clipPath18)"><g transform="matrix(3.128,0,0,3.128,116.667,116.667)"><path d="M 0,0 H 742 V 5 H 0 Z" style="fill:#d3d3d3;fill-opacity:1;fill-rule:nonzero;stroke:none"/><path d="m 0,571 h 742 v 5 H 0 Z" style="fill:#7f7f7f;fill-opacity:1;fill-rule:nonzero;stroke:none"/><path d="m 737,5 v 571 h 5 V 0" style="fill:#7f7f7f;fill-opacity:1;fill-rule:nonzero;stroke:none"/><path d="m 0,0 v 576 l 5,-5 V 0" style="fill:#d3d3d3;fill-opacity:1;fill-rule:nonzero;stroke:none"/><path d="M 5,5 H 737 V 56 H 5 Z" style="fill:#00008b;fill-opacity:1;fill-rule:nonzero;stroke:none"/><path d="m 5,56 h 732 v 57 H 5 Z" style="fill:#d3d3d3;fill-opacity:1;fill-rule:nonzero;stroke:none"/><path d="m 691,11 h 40 v 40 h -40 z" style="fill:#d3d3d3;fill-opacity:1;fill-rule:nonzero;stroke:none"/><path d="m 691,11 h 40 v 5 h -40 z" style="fill:#ffffff;fill-opacity:1;fill-rule:nonzero;stroke:none"/><path d="m 691,46 h 40 v 5 h -40 z" style="fill:#ababab;fill-opacity:1;fill-rule:nonzero;stroke:none"/><path d="m 726,16 v 35 h 5 V 11" style="fill:#ababab;fill-opacity:1;fill-rule:nonzero;stroke:none"/><path d="m 691,11 v 40 l 5,-5 V 11" style="fill:#ffffff;fill-opacity:1;fill-rule:nonzero;stroke:none"/><text transform="translate(701.344,39)" style="font-variant:normal;font-weight:normal;font-size:24px;font-family:'DejaVu Sans';-inkscape-font-specification:DejaVuSans;writing-mode:lr-tb;fill:#000000;fill-opacity:1;fill-rule:nonzero;stroke:none"><tspan>✕</tspan></text><text transform="translate(10.656,40)" style="font-variant:normal;font-weight:600;font-size:24px;font-family:'IBM Plex Sans';-inkscape-font-specification:IBMPlexSans-SemiBold;writing-mode:lr-tb;fill:#ffffff;fill-opacity:1;fill-rule:nonzero;stroke:none"><tspan x="0 12.264 25.776 35.088 48.48 69.792 75.456 85.608 100.008 111.984 126.096 147.408 153.072 162.096 167.76 184.847 201.935 219.023 235.559 241.223 255.887 265.919 279.839">Lorem Ipsum | GOOD SITE</tspan></text><text transform="translate(15.984,96)" style="font-variant:normal;font-weight:normal;font-size:30px;font-family:'IBM Plex Sans';-inkscape-font-specification:IBMPlexSans;writing-mode:lr-tb;fill:#000000;fill-opacity:1;fill-rule:nonzero;stroke:none"><tspan x="0 24.6 31.68 38.76 63.36 70.44">←  →  </tspan></text><text transform="translate(93.504,96)" style="font-variant:normal;font-weight:normal;font-size:30px;font-family:'DejaVu Sans';-inkscape-font-specification:DejaVuSans;writing-mode:lr-tb;fill:#000000;fill-opacity:1;fill-rule:nonzero;stroke:none"><tspan>⟳</tspan></text><path d="M 134.664,99.667 V 69.333 c -1e-5,-0.619 0.118,-1.215 0.355,-1.787 0.237,-0.572 0.574,-1.077 1.012,-1.515 0.438,-0.438 0.943,-0.775 1.515,-1.012 0.572,-0.237 1.168,-0.355 1.787,-0.355 h 543.333 c 0.619,0 1.215,0.118 1.787,0.355 0.572,0.237 1.077,0.574 1.515,1.012 0.438,0.438 0.775,0.943 1.012,1.515 0.237,0.572 0.355,1.168 0.355,1.787 v 30.333 c -6e-5,0.619 -0.119,1.215 -0.355,1.787 -0.237,0.572 -0.574,1.077 -1.012,1.515 -0.438,0.438 -0.943,0.775 -1.515,1.012 -0.572,0.237 -1.168,0.355 -1.787,0.355 H 139.333 c -0.619,-10e-6 -1.215,-0.118 -1.787,-0.355 -0.572,-0.237 -1.077,-0.574 -1.515,-1.012 -0.438,-0.438 -0.775,-0.943 -1.012,-1.515 -0.237,-0.572 -0.355,-1.168 -0.355,-1.787 z" style="fill:#ffffff;fill-opacity:1;fill-rule:nonzero;stroke:none"/><path d="M 134.5,99.667 V 69.333 c 0,-0.641 0.123,-1.257 0.368,-1.85 0.245,-0.592 0.595,-1.115 1.048,-1.568 0.453,-0.453 0.976,-0.802 1.568,-1.048 C 138.076,64.623 138.692,64.5 139.333,64.5 h 543.333 c 0.641,0 1.257,0.123 1.85,0.368 0.592,0.245 1.115,0.595 1.568,1.048 0.453,0.453 0.802,0.976 1.048,1.568 0.245,0.592 0.368,1.209 0.368,1.85 v 30.333 c -6e-5,0.641 -0.123,1.257 -0.368,1.85 -0.245,0.592 -0.594,1.115 -1.048,1.568 -0.453,0.453 -0.976,0.802 -1.568,1.048 -0.592,0.245 -1.209,0.368 -1.85,0.368 H 139.333 c -0.641,-1e-5 -1.258,-0.123 -1.85,-0.368 -0.592,-0.245 -1.115,-0.595 -1.568,-1.048 -0.453,-0.453 -0.802,-0.976 -1.048,-1.568 -0.245,-0.592 -0.368,-1.209 -0.368,-1.85 z" style="fill:none;stroke:#808080;stroke-width:1;stroke-linecap:butt;stroke-linejoin:miter;stroke-miterlimit:10;stroke-dasharray:none;stroke-opacity:1"/><text transform="translate(145.5,93)" style="font-variant:normal;font-weight:normal;font-size:21.6px;font-family:'IBM Plex Sans';-inkscape-font-specification:IBMPlexSans;writing-mode:lr-tb;fill:#000000;fill-opacity:1;fill-rule:nonzero;stroke:none"><tspan x="0 12.265 19.65 27.23 39.754 50.27 56.576 62.254 70.201 81.796 92.744 104.276 123.127 135.651 141.525 152.948 158.605 169.337 181.43 200.281 208.552 221.076 232.607 243.879">https://example.com/page</tspan></text><text transform="translate(699.016,96)" style="font-variant:normal;font-weight:normal;font-size:30px;font-family:'DejaVu Sans';-inkscape-font-specification:DejaVuSans;writing-mode:lr-tb;fill:#000000;fill-opacity:1;fill-rule:nonzero;stroke:none"><tspan>☰</tspan></text><text transform="translate(37.328,183)" style="font-variant:normal;font-weight:600;font-size:37.33px;font-family:'IBM Plex Sans';-inkscape-font-specification:IBMPlexSans-SemiBold;writing-mode:lr-tb;fill:#000000;fill-opacity:1;fill-rule:nonzero;stroke:none"><tspan x="0 19.075 40.091 54.574 75.403 108.55 117.36 127.663 150.059 168.686 190.635">Lorem ipsum</tspan></text><text transform="translate(37.328,243)" style="font-variant:normal;font-weight:normal;font-size:24px;font-family:'IBM Plex Sans';-inkscape-font-specification:IBMPlexSans;writing-mode:lr-tb;fill:#000000;fill-opacity:1;fill-rule:nonzero;stroke:none"><tspan x="0 11.784 25.224 33.912 47.088 68.04 73.704 79.704 93.624 105.312 118.944 139.896 145.56 159.48 172.919 179.447 192.887 201.695 207.359 219.047 225.047 233.471 239.135 251.951 272.903 286.079 294.503 301.031 306.695 318.623 332.063 345.695 357.383 370.559 382.631 390.959 404.135 412.559 426.191 434.999 440.663 453.479 467.399 473.399 487.319 493.319 505.007 517.079 523.079 536.711 549.382 555.046 568.222 574.75 580.75 589.174 595.702 601.366 618.334 631.966 638.374 644.902">Lorem ipsum dolor sit amet, consectetur adipiscing elit. Nulla</tspan></text><text transform="translate(37.328,275)" style="font-variant:normal;font-weight:normal;font-size:24px;font-family:'IBM Plex Sans';-inkscape-font-specification:IBMPlexSans;writing-mode:lr-tb;fill:#000000;fill-opacity:1;fill-rule:nonzero;stroke:none"><tspan x="0 6.528 19.344 31.416 37.416 51.048 57.048 69.864 75.528 83.856 97.032 117.984 131.904 145.536 157.224 162.888 175.775 187.943 194.471 200.135 211.823 217.823 226.247 231.911 244.727 265.679 278.855 287.279 292.943 306.863 320.495 326.783 338.591 344.591 358.223 371.039 379.847 385.511 398.687 410.207 418.631 425.159 430.823 447.791 461.423 467.831 474.359 487.175 492.839 506.471 514.895 520.559 528.983 542.615 551.423 565.343 571.343">lacinia tempus ex, sit amet pulvinar est. Nulla ut turpis</tspan></text><text transform="translate(37.328,307)" style="font-variant:normal;font-weight:normal;font-size:24px;font-family:'IBM Plex Sans';-inkscape-font-specification:IBMPlexSans;writing-mode:lr-tb;fill:#000000;fill-opacity:1;fill-rule:nonzero;stroke:none"><tspan x="0 13.92 27.552 40.368 49.056 62.232 70.656 79.368 92.424 98.952 104.616 116.304 128.232 141.408 147.936 161.112 169.919 175.919 187.607 201.527 215.159 228.335 233.999 247.919 261.359 267.887 281.327 290.135 295.799 301.799 315.719 322.247 327.911 341.831 354.647 368.567 374.567 388.487 402.119 413.807 419.471 425.999 431.999 445.919 459.095 467.783 480.743 487.271 492.935 508.318 521.494 535.126 548.302 561.118 574.75 580.414 592.102 605.278">pharetra, scelerisque dolor id, dapibus libero. Aenean sed</tspan></text><text transform="translate(37.328,339)" style="font-variant:normal;font-weight:normal;font-size:24px;font-family:'IBM Plex Sans';-inkscape-font-specification:IBMPlexSans;writing-mode:lr-tb;fill:#000000;fill-opacity:1;fill-rule:nonzero;stroke:none"><tspan x="0 6.528 19.344 31.416 45.048 56.736 62.4 68.4 89.352 103.272 116.448 125.112 139.032 145.032 158.208 166.632 173.159 178.823 192.743 201.431 214.607 223.031 229.031 242.663 263.615 269.279 275.279 288.911 300.431 308.759 322.199 327.863 339.671 345.671 354.095 366.911 379.607 386.135 391.799 403.727 417.167 430.799 444.719 450.719 471.671 484.847 498.479 506.903 520.534 541.486 547.15 560.782 566.782 578.47 584.47">lacus imperdiet, pretium justo vitae, condimentum nisi.</tspan></text><text transform="translate(37.328,371)" style="font-variant:normal;font-weight:normal;font-size:24px;font-family:'IBM Plex Sans';-inkscape-font-specification:IBMPlexSans;writing-mode:lr-tb;fill:#000000;fill-opacity:1;fill-rule:nonzero;stroke:none"><tspan x="0 19.488 32.304 45.48 57.408 70.584 84.216 97.032 108.72 114.384 122.712 135.888 142.296 148.824 162.456 174.143 179.807 193.727 207.359 213.359 219.887 225.551 238.367 250.295 262.367 275.999 296.951 308.639 321.455 335.087 340.751 352.439 365.615 379.535 385.199 397.127 410.567 424.007 435.599 448.415 454.823 461.351 467.351 479.039 484.703 490.703 504.335 510.863 516.527 530.447 543.263 557.183 563.183 577.102 590.734 602.422 608.086 621.262 633.79 646.966">Maecenas tellus dui, accumsan sed convallis in, dapibus eget</tspan></text><text transform="translate(37.328,403)" style="font-variant:normal;font-weight:normal;font-size:24px;font-family:'IBM Plex Sans';-inkscape-font-specification:IBMPlexSans;writing-mode:lr-tb;fill:#000000;fill-opacity:1;fill-rule:nonzero;stroke:none"><tspan x="0 13.44 27.36 33.36 46.32 52.848 58.512 74.616 88.056 101.688 114.864 126.936 132.6 141.024 154.656 163.464 177.383 183.383 195.071 200.735 207.263 220.079 232.151 245.783 257.351 263.879 269.543 283.151 296.783 302.783 316.703 330.335 342.023 347.687 360.503 368.927 374.591 386.183 398.999 407.807 413.807 427.439 439.127 444.791 465.743 478.559 490.727 496.727 517.679 531.311 542.879 549.406 555.071 566.878 572.878 584.494 597.67 606.478 615.19 628.006 633.67 645.358 651.358">odio. Donec turpis lacus, ﬁnibus at varius maximus, viverra sit</tspan></text><text transform="translate(37.328,435)" style="font-variant:normal;font-weight:normal;font-size:24px;font-family:'IBM Plex Sans';-inkscape-font-specification:IBMPlexSans;writing-mode:lr-tb;fill:#000000;fill-opacity:1;fill-rule:nonzero;stroke:none"><tspan x="0 12.816 33.768 46.944 55.368 61.032 74.664 80.664 92.352 98.352 104.88 110.544 124.488 138.12 149.808 163.728 176.904 190.535 204.455 210.455 221.999 233.687 246.863 252.527 266.159 274.583 280.247 294.167 300.167 312.983 333.935 339.599 348.407 354.407 366.095 379.727 391.295 397.823 403.487 417.383 430.559 442.079 450.503 456.503 470.423 484.055 490.583 504.215">amet nisi. Suspendisse ut diam risus. Vestibulum</tspan></text><text transform="translate(37.328,467)" style="font-variant:normal;font-weight:normal;font-size:24px;font-family:'IBM Plex Sans';-inkscape-font-specification:IBMPlexSans;writing-mode:lr-tb;fill:#000000;fill-opacity:1;fill-rule:nonzero;stroke:none"><tspan x="0 11.928 25.368 39 52.92 58.92 79.872 93.048 106.68 115.104 128.736 149.688 155.352 168.983 177.791 191.423 204.239 209.903 221.711 227.711 236.135 248.951 262.127 267.791 280.607 289.295 301.367 314.999 320.663 329.471 343.103 356.543 370.175 382.247 395.879 407.447 413.975 419.639 432.815 446.447 452.447 464.135 485.087 498.527 512.447 518.111 524.111 545.063 558.982 572.158 580.822 594.742 600.742 613.918">condimentum urna vitae arcu rhoncus, euismod imperdiet</tspan></text><text transform="translate(37.328,499)" style="font-variant:normal;font-weight:normal;font-size:24px;font-family:'IBM Plex Sans';-inkscape-font-specification:IBMPlexSans;writing-mode:lr-tb;fill:#000000;fill-opacity:1;fill-rule:nonzero;stroke:none"><tspan x="0 20.952 33.768 45.312 57 69.816 75.48 87.408 100.848 114.48 126.168 139.344 153.264 166.895 179.711 188.135 194.663 200.327 214.391 227.567 233.975 240.503 253.679 267.311 275.639 288.815 300.503 314.423 328.055 341.231 346.895 360.815 374.447 380.735 392.543 398.543 412.175 424.991 433.799 439.463 452.279 465.911 477.983 486.311 499.751 508.559 514.223 527.399 536.087 549.526">massa consequat. Pellentesque pulvinar auctor eros</tspan></text><text transform="translate(37.328,531)" style="font-variant:normal;font-weight:normal;font-size:24px;font-family:'IBM Plex Sans';-inkscape-font-specification:IBMPlexSans;writing-mode:lr-tb;fill:#000000;fill-opacity:1;fill-rule:nonzero;stroke:none"><tspan x="0 11.688 25.128 31.536 38.064 44.064 56.136 62.136 70.56 84.192 98.112 104.112 117.744 123.408 129.936 143.376 157.296 170.735 179.639 188.063 194.063 205.631">sollicitudin lobortis.</tspan></text></g></g></g></g></svg>
