<?xml version="1.0" encoding="utf-8"?>
<svg xmlns:dc="http://purl.org/dc/elements/1.1/" xmlns:cc="http://creativecommons.org/ns#" xmlns:rdf="http://www.w3.org/1999/02/22-rdf-syntax-ns#" xmlns:svg="http://www.w3.org/2000/svg" xmlns="http://www.w3.org/2000/svg" version="1.1" xml:space="preserve" width="742.667" height="576.517" viewBox="0 0 742.66656 576.51746"><defs><clipPath clipPathUnits="userSpaceOnUse" id="clipPath18"><path d="M 116.667,116.667 H 2437.5 V 3185.046 H 116.667 Z" style="clip-rule:evenodd"/></clipPath></defs><g transform="matrix(0.32,0,0,0.32,-37.333,-37.333)"><g><g clip-path="url(#clipPath18)"><g transform="matrix(3.128,0,0,3.128,116.667,116.667)"><path d="M 0,0 H 742 V 5 H 0 Z" style="fill:#d3d3d3;fill-opacity:1;fill-rule:nonzero;stroke:none"/><path d="m 0,571 h 742 v 5 H 0 Z" style="fill:#7f7f7f;fill-opacity:1;fill-rule:nonzero;stroke:none"/><path d="m 737,5 v 571 h 5 V 0" style="fill:#7f7f7f;fill-opacity:1;fill-rule:nonzero;stroke:none"/><path d="m 0,0 v 576 l 5,-5 V 0" style="fill:#d3d3d3;fill-opacity:1;fill-rule:nonzero;stroke:none"/><path d="M 5,5 H 737 V 56 H 5 Z" style="fill:#00008b;fill-opacity:1;fill-rule:nonzero;stroke:none"/><path d="m 5,56 h 732 v 57 H 5 Z" style="fill:#d3d3d3;fill-opacity:1;fill-rule:nonzero;stroke:none"/><path d="m 691,11 h 40 v 40 h -40 z" style="fill:#d3d3d3;fill-opacity:1;fill-rule:nonzero;stroke:none"/><path d="m 691,11 h 40 v 5 h -40 z" style="fill:#ffffff;fill-opacity:1;fill-rule:nonzero;stroke:none"/><path d="m 691,46 h 40 v 5 h -40 z" style="fill:#ababab;fill-opacity:1;fill-rule:nonzero;stroke:none"/><path d="m 726,16 v 35 h 5 V 11" style="fill:#ababab;fill-opacity:1;fill-rule:nonzero;stroke:none"/><path d="m 691,11 v 40 l 5,-5 V 11" style="fill:#ffffff;fill-opacity:1;fill-rule:nonzero;stroke:none"/><text transform="translate(701.344,39)" style="font-variant:normal;font-weight:normal;font-size:24px;font-family:'DejaVu Sans';-inkscape-font-specification:DejaVuSans;writing-mode:lr-tb;fill:#000000;fill-opacity:1;fill-rule:nonzero;stroke:none"><tspan>✕</tspan></text><text transform="translate(10.656,40)" style="font-variant:normal;font-weight:600;font-size:24px;font-family:'IBM Plex Sans';-inkscape-font-specification:IBMPlexSans-SemiBold;writing-mode:lr-tb;fill:#ffffff;fill-opacity:1;fill-rule:nonzero;stroke:none"><tspan x="0 12.264 25.776 35.088 48.48 69.792 75.456 85.608 100.008 111.984 126.096 147.408 153.072 162.096 167.76 183.335 199.463 215.999 221.663 236.327 246.359 260.279">Lorem Ipsum | BAD SITE</tspan></text><text transform="translate(15.984,96)" style="font-variant:normal;font-weight:normal;font-size:30px;font-family:'IBM Plex Sans';-inkscape-font-specification:IBMPlexSans;writing-mode:lr-tb;fill:#000000;fill-opacity:1;fill-rule:nonzero;stroke:none"><tspan x="0 24.6 31.68 38.76 63.36 70.44">←  →  </tspan></text><text transform="translate(93.504,96)" style="font-variant:normal;font-weight:normal;font-size:30px;font-family:'DejaVu Sans';-inkscape-font-specification:DejaVuSans;writing-mode:lr-tb;fill:#000000;fill-opacity:1;fill-rule:nonzero;stroke:none"><tspan>⟳</tspan></text><path d="M 134.664,99.667 V 69.333 c -1e-5,-0.619 0.118,-1.215 0.355,-1.787 0.237,-0.572 0.574,-1.077 1.012,-1.515 0.438,-0.438 0.943,-0.775 1.515,-1.012 0.572,-0.237 1.168,-0.355 1.787,-0.355 h 543.333 c 0.619,0 1.215,0.118 1.787,0.355 0.572,0.237 1.077,0.574 1.515,1.012 0.438,0.438 0.775,0.943 1.012,1.515 0.237,0.572 0.355,1.168 0.355,1.787 v 30.333 c -6e-5,0.619 -0.119,1.215 -0.355,1.787 -0.237,0.572 -0.574,1.077 -1.012,1.515 -0.438,0.438 -0.943,0.775 -1.515,1.012 -0.572,0.237 -1.168,0.355 -1.787,0.355 H 139.333 c -0.619,-10e-6 -1.215,-0.118 -1.787,-0.355 -0.572,-0.237 -1.077,-0.574 -1.515,-1.012 -0.438,-0.438 -0.775,-0.943 -1.012,-1.515 -0.237,-0.572 -0.355,-1.168 -0.355,-1.787 z" style="fill:#ffffff;fill-opacity:1;fill-rule:nonzero;stroke:none"/><path d="M 134.5,99.667 V 69.333 c 0,-0.641 0.123,-1.257 0.368,-1.85 0.245,-0.592 0.595,-1.115 1.048,-1.568 0.453,-0.453 0.976,-0.802 1.568,-1.048 C 138.076,64.623 138.692,64.5 139.333,64.5 h 543.333 c 0.641,0 1.257,0.123 1.85,0.368 0.592,0.245 1.115,0.595 1.568,1.048 0.453,0.453 0.802,0.976 1.048,1.568 0.245,0.592 0.368,1.209 0.368,1.85 v 30.333 c -6e-5,0.641 -0.123,1.257 -0.368,1.85 -0.245,0.592 -0.594,1.115 -1.048,1.568 -0.453,0.453 -0.976,0.802 -1.568,1.048 -0.592,0.245 -1.209,0.368 -1.85,0.368 H 139.333 c -0.641,-1e-5 -1.258,-0.123 -1.85,-0.368 -0.592,-0.245 -1.115,-0.595 -1.568,-1.048 -0.453,-0.453 -0.802,-0.976 -1.048,-1.568 -0.245,-0.592 -0.368,-1.209 -0.368,-1.85 z" style="fill:none;stroke:#808080;stroke-width:1;stroke-linecap:butt;stroke-linejoin:miter;stroke-miterlimit:10;stroke-dasharray:none;stroke-opacity:1"/><text transform="translate(145.5,93)" style="font-variant:normal;font-weight:normal;font-size:21.6px;font-family:'IBM Plex Sans';-inkscape-font-specification:IBMPlexSans;writing-mode:lr-tb;fill:#000000;fill-opacity:1;fill-rule:nonzero;stroke:none"><tspan x="0 12.265 19.65 27.23 39.754 50.27 56.576 62.254 70.201 81.796 92.744 104.276 123.127 135.651 141.525 152.948 158.605 169.337 181.43 200.281 208.552 221.076 232.607 243.879">https://example.com/page</tspan></text><text transform="translate(699.016,96)" style="font-variant:normal;font-weight:normal;font-size:30px;font-family:'DejaVu Sans';-inkscape-font-specification:DejaVuSans;writing-mode:lr-tb;fill:#000000;fill-opacity:1;fill-rule:nonzero;stroke:none"><tspan>☰</tspan></text><text transform="translate(37.328,183)" style="font-variant:normal;font-weight:600;font-size:37.33px;font-family:'IBM Plex Sans';-inkscape-font-specification:IBMPlexSans-SemiBold;writing-mode:lr-tb;fill:#000000;fill-opacity:1;fill-rule:nonzero;stroke:none"><tspan x="0 19.075 40.091 54.574 75.403 108.55 117.36 127.663 150.059 168.686 190.635">Lorem ipsum</tspan></text><text transform="translate(37.328,243)" style="font-variant:normal;font-weight:normal;font-size:24px;font-family:'IBM Plex Sans';-inkscape-font-specification:IBMPlexSans;writing-mode:lr-tb;fill:#000000;fill-opacity:1;fill-rule:nonzero;stroke:none"><tspan x="0 11.784 25.224 33.912 47.088 68.04 74.829 80.829 94.749 106.437 120.069 141.021 147.81 161.73 175.169 181.697 195.137 203.945 210.734 222.422 228.422 236.846 243.635 256.451 277.403 290.579 299.003 305.531 312.32 324.248 337.688 351.32 363.008 376.184 388.256 396.584 409.76 418.184 431.816 440.624 447.413 460.229 474.149 480.149 494.069 500.069 511.757 523.828 529.828 543.46 556.132 562.921 576.097 582.625 588.625 597.049 603.577 610.366 627.334 640.966 647.374 653.902">Lorem ipsum dolor sit amet, consectetur adipiscing elit. Nulla</tspan></text><text transform="translate(37.328,275)" style="font-variant:normal;font-weight:normal;font-size:24px;font-family:'IBM Plex Sans';-inkscape-font-specification:IBMPlexSans;writing-mode:lr-tb;fill:#000000;fill-opacity:1;fill-rule:nonzero;stroke:none"><tspan x="0 6.528 19.344 31.416 37.416 51.048 57.048 69.864 84.861 93.189 106.365 127.317 141.237 154.869 166.557 181.554 194.442 206.61 213.138 228.135 239.823 245.823 254.247 269.245 282.061 303.013 316.189 324.612 339.61 353.53 367.162 373.45 385.258 391.258 404.89 417.706 426.514 441.511 454.687 466.207 474.631 481.159 496.156 513.124 526.756 533.164 539.692 552.508 567.505 581.137 589.561 604.559 612.983 626.615 635.422 649.342 655.342">lacinia tempus ex, sit amet pulvinar est. Nulla ut turpis</tspan></text><text transform="translate(37.328,307)" style="font-variant:normal;font-weight:normal;font-size:24px;font-family:'IBM Plex Sans';-inkscape-font-specification:IBMPlexSans;writing-mode:lr-tb;fill:#000000;fill-opacity:1;fill-rule:nonzero;stroke:none"><tspan x="0 13.92 27.552 40.368 49.056 62.232 70.656 79.368 92.424 98.952 111.473 123.161 135.089 148.265 154.793 167.969 176.777 182.777 194.465 208.385 222.016 235.192 247.714 261.634 275.073 281.601 295.041 303.849 316.371 322.371 336.291 342.818 355.34 369.26 382.076 395.995 401.995 415.915 429.547 441.235 453.756 460.284 466.284 480.204 493.38 502.068 515.028 521.556 534.077 549.461 562.637 576.269 589.445 602.261 615.893 628.414 640.102 653.278">pharetra, scelerisque dolor id, dapibus libero. Aenean sed</tspan></text><text transform="translate(37.328,339)" style="font-variant:normal;font-weight:normal;font-size:24px;font-family:'IBM Plex Sans';-inkscape-font-specification:IBMPlexSans;writing-mode:lr-tb;fill:#000000;fill-opacity:1;fill-rule:nonzero;stroke:none"><tspan x="0 6.528 19.344 31.416 45.048 56.736 75.066 81.066 102.018 115.938 129.114 137.778 151.698 157.698 170.874 179.298 185.826 204.157 218.077 226.765 239.941 248.365 254.365 267.997 288.949 307.279 313.279 326.911 338.431 346.759 360.199 378.53 390.338 396.338 404.762 417.578 430.274 436.802 455.132 467.06 480.5 494.132 508.052 514.052 535.004 548.18 561.812 570.236 583.868 604.82 623.15 636.782 642.782 654.47 660.47">lacus imperdiet, pretium justo vitae, condimentum nisi.</tspan></text><text transform="translate(37.328,371)" style="font-variant:normal;font-weight:normal;font-size:24px;font-family:'IBM Plex Sans';-inkscape-font-specification:IBMPlexSans;writing-mode:lr-tb;fill:#000000;fill-opacity:1;fill-rule:nonzero;stroke:none"><tspan x="0 19.488 32.304 45.48 57.408 70.584 84.216 97.032 108.72 115.759 124.087 137.263 143.671 150.199 163.831 175.518 182.557 196.477 210.109 216.109 222.637 229.676 242.492 254.42 266.492 280.124 301.076 312.764 325.58 339.212 346.251 357.939 371.115 385.035 392.074 404.002 417.442 430.882 442.474 455.29 461.698 468.226 474.226 485.914 492.953 498.953 512.585 519.113 526.152 540.072 552.888 566.808 572.808 586.727 600.359 612.047 619.086 632.262 644.79 657.966">Maecenas tellus dui, accumsan sed convallis in, dapibus eget</tspan></text><text transform="translate(37.328,403)" style="font-variant:normal;font-weight:normal;font-size:24px;font-family:'IBM Plex Sans';-inkscape-font-specification:IBMPlexSans;writing-mode:lr-tb;fill:#000000;fill-opacity:1;fill-rule:nonzero;stroke:none"><tspan x="0 13.44 27.36 33.36 46.32 52.848 59.29 75.394 88.834 102.465 115.641 127.713 134.155 142.579 156.211 165.019 178.939 184.939 196.627 203.069 209.597 222.413 234.485 248.117 259.685 266.213 272.654 286.262 299.894 305.894 319.814 333.446 345.134 351.576 364.392 372.816 379.258 390.85 403.666 412.474 418.474 432.105 443.793 450.235 471.187 484.003 496.171 502.171 523.123 536.755 548.323 554.851 561.293 573.101 579.101 590.717 603.893 612.701 621.413 634.229 640.67 652.358 658.358">odio. Donec turpis lacus, ﬁnibus at varius maximus, viverra sit</tspan></text><text transform="translate(37.328,435)" style="font-variant:normal;font-weight:normal;font-size:24px;font-family:'IBM Plex Sans';-inkscape-font-specification:IBMPlexSans;writing-mode:lr-tb;fill:#000000;fill-opacity:1;fill-rule:nonzero;stroke:none"><tspan x="0 12.816 33.768 46.944 55.368 84.698 98.33 104.33 116.018 122.018 128.546 157.877 171.821 185.453 197.141 211.061 224.237 237.869 251.789 257.789 269.333 281.021 294.197 323.527 337.159 345.583 374.914 388.834 394.834 407.65 428.602 457.932 466.74 472.74 484.428 498.06 509.628 516.156 545.487 559.383 572.559 584.079 592.503 598.503 612.423 626.055 632.583 646.215">amet nisi. Suspendisse ut diam risus. Vestibulum</tspan></text><text transform="translate(37.328,467)" style="font-variant:normal;font-weight:normal;font-size:24px;font-family:'IBM Plex Sans';-inkscape-font-specification:IBMPlexSans;writing-mode:lr-tb;fill:#000000;fill-opacity:1;fill-rule:nonzero;stroke:none"><tspan x="0 11.928 25.368 39 52.92 58.92 79.872 93.048 106.68 115.104 128.736 149.688 162.852 176.483 185.291 198.923 211.739 224.903 236.711 242.711 251.135 263.951 277.127 290.291 303.107 311.795 323.867 337.499 350.663 359.471 373.103 386.543 400.175 412.247 425.879 437.447 443.975 457.139 470.315 483.947 489.947 501.635 522.587 536.026 549.946 563.11 569.11 590.062 603.982 617.158 625.822 639.742 645.742 658.918">condimentum urna vitae arcu rhoncus, euismod imperdiet</tspan></text><text transform="translate(37.328,499)" style="font-variant:normal;font-weight:normal;font-size:24px;font-family:'IBM Plex Sans';-inkscape-font-specification:IBMPlexSans;writing-mode:lr-tb;fill:#000000;fill-opacity:1;fill-rule:nonzero;stroke:none"><tspan x="0 20.952 33.768 45.312 57 69.816 96.68 108.608 122.048 135.68 147.368 160.544 174.464 188.095 200.911 209.335 215.863 242.727 256.791 269.967 276.375 282.903 296.079 309.711 318.039 331.215 342.903 356.823 370.455 383.631 410.495 424.415 438.047 444.335 456.143 462.143 475.775 488.591 497.399 524.263 537.079 550.711 562.783 571.111 584.551 593.359 620.223 633.399 642.087 655.526">massa consequat. Pellentesque pulvinar auctor eros</tspan></text><text transform="translate(37.328,531)" style="font-variant:normal;font-weight:normal;font-size:24px;font-family:'IBM Plex Sans';-inkscape-font-specification:IBMPlexSans;writing-mode:lr-tb;fill:#000000;fill-opacity:1;fill-rule:nonzero;stroke:none"><tspan x="0 11.688 25.128 31.536 38.064 44.064 56.136 62.136 70.56 84.192 98.112 104.112 117.744 123.408 129.936 143.376 157.296 170.735 179.639 188.063 194.063 205.631">sollicitudin lobortis.</tspan></text></g></g></g></g></svg>
