<?xml version="1.0" encoding="utf-8"?>
<svg xmlns:dc="http://purl.org/dc/elements/1.1/" xmlns:cc="http://creativecommons.org/ns#" xmlns:rdf="http://www.w3.org/1999/02/22-rdf-syntax-ns#" xmlns:svg="http://www.w3.org/2000/svg" xmlns="http://www.w3.org/2000/svg" viewBox="0 0 742.66656 596.53546" height="596.535" width="742.667" xml:space="preserve" version="1.1"><defs><clipPath id="clipPath22" clipPathUnits="userSpaceOnUse"><path d="M 0,0 H 557 V 448 H 0 Z"/></clipPath><clipPath id="clipPath140" clipPathUnits="userSpaceOnUse"><path d="m 32.277,334.05 h 298.02 V 147.882 H 32.277 Z"/></clipPath><clipPath id="clipPath150" clipPathUnits="userSpaceOnUse"><path d="M 35,151 H 328 V 332 H 35 Z"/></clipPath><clipPath id="clipPath240" clipPathUnits="userSpaceOnUse"><path d="m 42,81 h 175 v 42 H 42 Z"/></clipPath><clipPath id="clipPath260" clipPathUnits="userSpaceOnUse"><path d="M 0,0 H 557 V 448 H 0 Z"/></clipPath><clipPath id="clipPath272" clipPathUnits="userSpaceOnUse"><path d="M 0,0 H 557 V 448 H 0 Z"/></clipPath><clipPath id="clipPath284" clipPathUnits="userSpaceOnUse"><path d="m 32,34 h 320 v 2 H 32 Z"/></clipPath><clipPath id="clipPath298" clipPathUnits="userSpaceOnUse"><path d="M 32,33 H 351 V 52 H 32 Z"/></clipPath></defs><g transform="matrix(1.333,0,0,-1.333,0,596.535)"><g><g transform="translate(0,-0.598)"><g><g clip-path="url(#clipPath22)"><g><path style="fill:#d3d3d3;fill-opacity:1;fill-rule:nonzero;stroke:none" d="M 0,448 H 557 V 0.598 H 0 Z"/><path style="fill:#eeeeee;fill-opacity:1;fill-rule:nonzero;stroke:none" d="m 0,448 h 557 v -2.254 H 0 Z"/><path style="fill:#9a9a9a;fill-opacity:1;fill-rule:nonzero;stroke:none" d="M 0,2.852 H 557 V 0.598 H 0 Z"/><path style="fill:#9a9a9a;fill-opacity:1;fill-rule:nonzero;stroke:none" d="M 554.746,445.746 V 0.598 H 557 V 448"/><path style="fill:#eeeeee;fill-opacity:1;fill-rule:nonzero;stroke:none" d="M 0,448 V 0.598 L 2.254,2.852 V 448"/><path style="fill:#00008b;fill-opacity:1;fill-rule:nonzero;stroke:none" d="M 5.254,442.746 H 551.746 V 404.461 H 5.254 Z"/><path style="fill:#d3d3d3;fill-opacity:1;fill-rule:nonzero;stroke:none" d="M 5.254,404.461 H 551.746 V 361.672 H 5.254 Z"/><path style="fill:#ffffff;fill-opacity:1;fill-rule:nonzero;stroke:none" d="M 5.254,361.672 H 551.746 V 5.852 H 5.254 Z"/><path style="fill:#9a9a9a;fill-opacity:1;fill-rule:nonzero;stroke:none" d="m 5.254,361.672 h 546.492 v -2.25 H 5.254 Z"/><path style="fill:#eeeeee;fill-opacity:1;fill-rule:nonzero;stroke:none" d="M 5.254,8.105 H 551.746 V 5.851 H 5.254 Z"/><path style="fill:#eeeeee;fill-opacity:1;fill-rule:nonzero;stroke:none" d="M 549.492,359.422 V 5.852 h 2.254 v 355.82"/><path style="fill:#9a9a9a;fill-opacity:1;fill-rule:nonzero;stroke:none" d="M 5.254,361.672 V 5.852 l 2.254,2.253 v 353.567"/><path style="fill:#000000;fill-opacity:1;fill-rule:nonzero;stroke:none" d="M 32.277,130.465 H 95.336 V 102.692 H 32.277 Z"/><path style="fill:#000000;fill-opacity:1;fill-rule:nonzero;stroke:none" d="m 95.336,130.465 h 63.055 V 102.692 H 95.336 Z"/><path style="fill:#000000;fill-opacity:1;fill-rule:nonzero;stroke:none" d="M 158.391,130.465 H 221.45 V 102.692 H 158.391 Z"/><path style="fill:#000000;fill-opacity:1;fill-rule:nonzero;stroke:none" d="M 158.391,74.914 H 222.2 v -0.75 h -63.809 z"/><path style="fill:#000000;fill-opacity:1;fill-rule:nonzero;stroke:none" d="m 221.449,102.691 h 0.75 V 74.164 h -0.75 z"/><path style="fill:#000000;fill-opacity:1;fill-rule:nonzero;stroke:none" d="m 95.336,74.914 h 63.809 v -0.75 H 95.336 Z"/><path style="fill:#000000;fill-opacity:1;fill-rule:nonzero;stroke:none" d="m 158.391,102.691 h 0.754 V 74.164 h -0.754 z"/><path style="fill:#000000;fill-opacity:1;fill-rule:nonzero;stroke:none" d="m 32.277,74.914 h 63.809 v -0.75 H 32.277 Z"/><path style="fill:#000000;fill-opacity:1;fill-rule:nonzero;stroke:none" d="m 32.277,102.691 h 0.754 V 74.164 h -0.754 z"/><path style="fill:#000000;fill-opacity:1;fill-rule:nonzero;stroke:none" d="m 95.336,102.691 h 0.75 V 74.164 h -0.75 z"/><path style="fill:#000000;fill-opacity:1;fill-rule:nonzero;stroke:none" d="M 158.391,130.465 H 222.2 v -0.75 h -63.809 z"/><path style="fill:#000000;fill-opacity:1;fill-rule:nonzero;stroke:none" d="M 158.391,102.691 H 222.2 v -0.754 h -63.809 z"/><path style="fill:#000000;fill-opacity:1;fill-rule:nonzero;stroke:none" d="m 221.449,130.465 h 0.75 v -28.527 h -0.75 z"/><path style="fill:#000000;fill-opacity:1;fill-rule:nonzero;stroke:none" d="m 95.336,130.465 h 63.809 v -0.75 H 95.336 Z"/><path style="fill:#000000;fill-opacity:1;fill-rule:nonzero;stroke:none" d="m 95.336,102.691 h 63.809 v -0.754 H 95.336 Z"/><path style="fill:#000000;fill-opacity:1;fill-rule:nonzero;stroke:none" d="m 158.391,130.465 h 0.754 v -28.527 h -0.754 z"/><path style="fill:#000000;fill-opacity:1;fill-rule:nonzero;stroke:none" d="m 32.277,130.465 h 63.809 v -0.75 H 32.277 Z"/><path style="fill:#000000;fill-opacity:1;fill-rule:nonzero;stroke:none" d="m 32.277,102.691 h 63.809 v -0.754 H 32.277 Z"/><path style="fill:#000000;fill-opacity:1;fill-rule:nonzero;stroke:none" d="m 32.277,130.465 h 0.754 v -28.527 h -0.754 z"/><path style="fill:#000000;fill-opacity:1;fill-rule:nonzero;stroke:none" d="m 95.336,130.465 h 0.75 v -28.527 h -0.75 z"/><path style="fill:#d3d3d3;fill-opacity:1;fill-rule:nonzero;stroke:none" d="m 517.215,438.242 h 30.027 v -30.027 h -30.027 z"/><path style="fill:#ffffff;fill-opacity:1;fill-rule:nonzero;stroke:none" d="m 517.215,438.242 h 30.027 v -3.754 h -30.027 z"/><path style="fill:#ababab;fill-opacity:1;fill-rule:nonzero;stroke:none" d="m 517.215,411.969 h 30.027 v -3.754 h -30.027 z"/><path style="fill:#ababab;fill-opacity:1;fill-rule:nonzero;stroke:none" d="m 543.488,434.488 v -26.273 h 3.754 v 30.027"/><path style="fill:#ffffff;fill-opacity:1;fill-rule:nonzero;stroke:none" d="m 517.215,438.242 v -30.027 l 3.754,3.754 v 26.273"/><text style="font-variant:normal;font-weight:normal;font-size:18.016px;font-family:'DejaVu Sans';-inkscape-font-specification:DejaVuSans;writing-mode:lr-tb;fill:#000000;fill-opacity:1;fill-rule:nonzero;stroke:none" transform="matrix(1,0,0,-1,524.979,417.222)"><tspan>✕</tspan></text><text style="font-variant:normal;font-weight:600;font-size:18.016px;font-family:'IBM Plex Sans SemiBold';-inkscape-font-specification:IBMPlexSans-SemiBold;writing-mode:lr-tb;fill:#ffffff;fill-opacity:1;fill-rule:nonzero;stroke:none" transform="matrix(1,0,0,-1,9.501,416.472)"><tspan x="0 9.765 20.268 27.024 36.789 52.553 57.057 64.57 75.073 84.063 94.585 110.349 114.853 121.627 126.131 138.887 151.642 164.416 177.171 181.675 192.935 200.448 210.951">Lorem Ipsum | GOOD SITE</tspan></text><text style="font-variant:normal;font-weight:normal;font-size:22.52px;font-family:'IBM Plex Sans';-inkscape-font-specification:IBMPlexSans;writing-mode:lr-tb;fill:#000000;fill-opacity:1;fill-rule:nonzero;stroke:none" transform="matrix(1,0,0,-1,13.5,374.434)"><tspan>←</tspan></text><text style="font-variant:normal;font-weight:normal;font-size:22.52px;font-family:'IBM Plex Sans';-inkscape-font-specification:IBMPlexSans;writing-mode:lr-tb;fill:#000000;fill-opacity:1;fill-rule:nonzero;stroke:none" transform="matrix(1,0,0,-1,42.777,374.434)"><tspan>→</tspan></text><text style="font-variant:normal;font-weight:normal;font-size:22.52px;font-family:'DejaVu Sans';-inkscape-font-specification:DejaVuSans;writing-mode:lr-tb;fill:#000000;fill-opacity:1;fill-rule:nonzero;stroke:none" transform="matrix(1,0,0,-1,72.053,374.434)"><tspan>⟳</tspan></text><path style="fill:#ffffff;fill-opacity:1;fill-rule:nonzero;stroke:none" d="m 102.59,371.68 v 22.773 c 0,0.465 0.09,0.91 0.265,1.34 0.18,0.43 0.434,0.809 0.762,1.137 0.328,0.328 0.707,0.582 1.137,0.761 0.43,0.176 0.875,0.266 1.34,0.266 h 404.863 c 0.465,0 0.914,-0.09 1.344,-0.266 0.429,-0.179 0.808,-0.433 1.137,-0.761 0.328,-0.328 0.582,-0.707 0.757,-1.137 0.18,-0.43 0.27,-0.875 0.27,-1.34 V 371.68 c 0,-0.465 -0.09,-0.91 -0.27,-1.34 -0.175,-0.43 -0.429,-0.809 -0.757,-1.137 -0.329,-0.328 -0.708,-0.582 -1.137,-0.762 -0.43,-0.175 -0.879,-0.265 -1.344,-0.265 H 106.094 c -0.465,0 -0.91,0.09 -1.34,0.265 -0.43,0.18 -0.809,0.434 -1.137,0.762 -0.328,0.328 -0.582,0.707 -0.762,1.137 -0.175,0.43 -0.265,0.875 -0.265,1.34 z"/><g transform="matrix(1,0,0,-1,0,448)"><path style="fill:none;stroke:#808080;stroke-width:0.751;stroke-linecap:butt;stroke-linejoin:miter;stroke-miterlimit:10;stroke-dasharray:none;stroke-opacity:1" d="M 102.469,76.32 V 53.547 c 0,-0.481 0.09,-0.942 0.273,-1.387 0.184,-0.445 0.446,-0.836 0.789,-1.176 0.34,-0.343 0.731,-0.605 1.176,-0.789 0.445,-0.183 0.906,-0.277 1.387,-0.277 h 404.863 c 0.484,0 0.945,0.094 1.391,0.277 0.445,0.184 0.836,0.446 1.175,0.789 0.34,0.34 0.602,0.731 0.789,1.176 0.184,0.445 0.274,0.906 0.274,1.387 V 76.32 c 0,0.481 -0.09,0.942 -0.274,1.387 -0.187,0.445 -0.449,0.836 -0.789,1.176 -0.339,0.34 -0.73,0.605 -1.175,0.789 -0.446,0.183 -0.907,0.273 -1.391,0.273 H 106.094 c -0.481,0 -0.942,-0.09 -1.387,-0.273 -0.445,-0.184 -0.836,-0.449 -1.176,-0.789 -0.343,-0.34 -0.605,-0.731 -0.789,-1.176 -0.183,-0.445 -0.273,-0.906 -0.273,-1.387 z"/></g><text style="font-variant:normal;font-weight:normal;font-size:16.215px;font-family:'IBM Plex Sans';-inkscape-font-specification:IBMPlexSans;writing-mode:lr-tb;fill:#000000;fill-opacity:1;fill-rule:nonzero;stroke:none" transform="matrix(1,0,0,-1,111.076,376.686)"><tspan x="0 9.761 15.761 21.776 31.537 39.791 44.298 48.044 54.059 63.058 71.279 80.327 94.596 104.357 108.848 117.864 122.371 130.624 139.64 153.892">https://example.com/</tspan></text><text style="font-variant:normal;font-weight:normal;font-size:22.52px;font-family:'DejaVu Sans';-inkscape-font-specification:DejaVuSans;writing-mode:lr-tb;fill:#000000;fill-opacity:1;fill-rule:nonzero;stroke:none" transform="matrix(1,0,0,-1,523.231,374.434)"><tspan>☰</tspan></text></g></g></g></g></g><g><g clip-path="url(#clipPath140)"><g transform="translate(0,-0.598)"><g><g clip-path="url(#clipPath150)"><g><g transform="matrix(1,0,0,-1,0,448)"><path style="fill:none;stroke:#4a4f89;stroke-width:2.838;stroke-linecap:butt;stroke-linejoin:miter;stroke-miterlimit:10;stroke-dasharray:none;stroke-opacity:1" d="M 54.089,256.758 H 319.954"/></g><g transform="matrix(1,0,0,-1,0,448)"><path style="fill:#4a4f89;fill-opacity:1;fill-rule:evenodd;stroke:#4a4f89;stroke-width:1.066;stroke-linecap:butt;stroke-linejoin:miter;stroke-miterlimit:10;stroke-dasharray:none;stroke-opacity:1" d="m 326.107,256.758 -9.228,5.332 v -10.664 z"/></g><g transform="matrix(1,0,0,-1,0,448)"><path style="fill:none;stroke:#4a4f89;stroke-width:2.838;stroke-linecap:butt;stroke-linejoin:miter;stroke-miterlimit:10;stroke-dasharray:none;stroke-opacity:1" d="M 68.2,270.867 V 123.766"/></g><g transform="matrix(0,1,1,0,0,448)"><path style="fill:#4a4f89;fill-opacity:1;fill-rule:evenodd;stroke:#4a4f89;stroke-width:1.066;stroke-linecap:butt;stroke-linejoin:miter;stroke-miterlimit:10;stroke-dasharray:none;stroke-opacity:1" d="m -117.613,68.2 -9.227,5.328 V 62.867 Z"/></g><path style="fill:#4a4f89;fill-opacity:1;fill-rule:nonzero;stroke:none" d="m 101.832,244.031 h 38.836 v -53.32 h -38.836 z"/><path style="fill:#4a4f89;fill-opacity:1;fill-rule:nonzero;stroke:none" d="m 172.973,297.352 h 38.84 V 190.711 h -38.84 z"/><path style="fill:#4a4f89;fill-opacity:1;fill-rule:nonzero;stroke:none" d="m 244.117,270.691 h 38.836 v -79.98 h -38.836 z"/><path style="fill:#000000;fill-opacity:1;fill-rule:nonzero;stroke:none" d="m 98.793,160.062 -3.148,3.149 0.957,0.957 8.082,-8.086 -0.954,-0.953 -0.875,0.871 c 0.149,-0.547 0.149,-1.059 0.012,-1.539 -0.137,-0.469 -0.422,-0.922 -0.851,-1.348 -0.704,-0.703 -1.559,-0.996 -2.563,-0.879 -1,0.121 -1.957,0.637 -2.871,1.551 -0.914,0.918 -1.434,1.875 -1.555,2.875 -0.117,1.004 0.176,1.86 0.879,2.563 0.43,0.429 0.879,0.711 1.356,0.847 0.472,0.141 0.984,0.137 1.531,-0.008 z m -1.227,-5.289 c 0.704,-0.703 1.403,-1.109 2.09,-1.226 0.688,-0.106 1.285,0.094 1.793,0.598 0.504,0.507 0.703,1.105 0.598,1.793 -0.113,0.691 -0.52,1.39 -1.223,2.093 -0.703,0.703 -1.398,1.11 -2.086,1.215 -0.695,0.113 -1.293,-0.086 -1.8,-0.59 -0.504,-0.508 -0.704,-1.105 -0.59,-1.797 0.109,-0.687 0.515,-1.382 1.218,-2.086 z"/><path style="fill:#000000;fill-opacity:1;fill-rule:nonzero;stroke:none" d="m 103.762,165.457 c -0.512,-0.512 -0.719,-1.121 -0.614,-1.82 0.102,-0.696 0.497,-1.391 1.196,-2.086 0.695,-0.699 1.39,-1.098 2.086,-1.207 0.699,-0.102 1.304,0.109 1.82,0.625 0.508,0.508 0.711,1.113 0.605,1.812 -0.101,0.699 -0.5,1.395 -1.191,2.09 -0.691,0.688 -1.387,1.086 -2.086,1.188 -0.703,0.109 -1.308,-0.094 -1.816,-0.602 z m -0.813,0.809 c 0.832,0.832 1.754,1.214 2.77,1.148 1.015,-0.066 2,-0.574 2.957,-1.531 0.953,-0.953 1.465,-1.938 1.531,-2.957 0.066,-1.016 -0.316,-1.938 -1.148,-2.77 -0.832,-0.836 -1.758,-1.218 -2.774,-1.152 -1.015,0.07 -1.996,0.586 -2.949,1.539 -0.957,0.953 -1.469,1.937 -1.539,2.949 -0.067,1.016 0.32,1.942 1.152,2.774 z"/><path style="fill:#000000;fill-opacity:1;fill-rule:nonzero;stroke:none" d="m 105.074,172.641 0.957,0.957 8.082,-8.086 -0.953,-0.953 z"/><path style="fill:#000000;fill-opacity:1;fill-rule:nonzero;stroke:none" d="m 113.215,174.914 c -0.512,-0.516 -0.715,-1.121 -0.613,-1.82 0.101,-0.696 0.5,-1.391 1.195,-2.09 0.699,-0.695 1.394,-1.098 2.09,-1.203 0.695,-0.102 1.301,0.105 1.816,0.621 0.512,0.512 0.715,1.113 0.609,1.816 -0.105,0.7 -0.5,1.395 -1.195,2.086 -0.687,0.692 -1.383,1.086 -2.082,1.192 -0.703,0.105 -1.308,-0.094 -1.82,-0.602 z m -0.809,0.809 c 0.832,0.832 1.754,1.215 2.77,1.148 1.015,-0.066 2,-0.578 2.957,-1.531 0.949,-0.953 1.461,-1.938 1.531,-2.957 0.066,-1.016 -0.316,-1.938 -1.148,-2.77 -0.836,-0.836 -1.758,-1.218 -2.774,-1.152 -1.015,0.07 -2,0.582 -2.953,1.535 -0.953,0.957 -1.469,1.942 -1.535,2.953 -0.066,1.016 0.316,1.938 1.152,2.774 z"/><path style="fill:#000000;fill-opacity:1;fill-rule:nonzero;stroke:none" d="m 121.062,182.312 c -0.171,-0.046 -0.332,-0.121 -0.488,-0.218 -0.156,-0.094 -0.312,-0.219 -0.465,-0.371 -0.539,-0.539 -0.777,-1.133 -0.714,-1.778 0.062,-0.636 0.421,-1.285 1.078,-1.941 l 3.066,-3.066 -0.961,-0.961 -5.82,5.82 0.961,0.961 0.906,-0.903 c -0.152,0.551 -0.152,1.075 0,1.567 0.148,0.496 0.453,0.973 0.914,1.433 0.066,0.067 0.145,0.133 0.234,0.204 0.086,0.074 0.188,0.148 0.301,0.23 z"/><path style="fill:#000000;fill-opacity:1;fill-rule:nonzero;stroke:none" d="m 183.805,175.078 0.906,-0.902 c -0.41,-0.133 -0.793,-0.309 -1.156,-0.531 -0.36,-0.223 -0.696,-0.489 -1.008,-0.801 -0.473,-0.473 -0.758,-0.903 -0.852,-1.289 -0.09,-0.379 0.012,-0.715 0.301,-1.008 0.223,-0.219 0.484,-0.309 0.781,-0.27 0.293,0.047 0.754,0.266 1.383,0.664 l 0.399,0.258 c 0.824,0.531 1.511,0.809 2.062,0.824 0.551,0.024 1.063,-0.199 1.539,-0.675 0.539,-0.539 0.754,-1.184 0.637,-1.926 -0.109,-0.742 -0.539,-1.488 -1.285,-2.234 -0.313,-0.313 -0.672,-0.606 -1.071,-0.883 -0.398,-0.278 -0.839,-0.543 -1.336,-0.797 l -0.988,0.988 c 0.535,0.168 1.024,0.379 1.461,0.629 0.434,0.254 0.817,0.547 1.152,0.883 0.45,0.449 0.719,0.871 0.813,1.265 0.086,0.399 -0.012,0.739 -0.293,1.02 -0.258,0.262 -0.547,0.371 -0.863,0.332 -0.313,-0.035 -0.828,-0.281 -1.547,-0.746 l -0.41,-0.254 c -0.719,-0.469 -1.336,-0.707 -1.856,-0.715 -0.523,-0.004 -1.008,0.223 -1.461,0.672 -0.547,0.547 -0.773,1.164 -0.683,1.848 0.09,0.687 0.492,1.386 1.203,2.101 0.355,0.352 0.715,0.66 1.078,0.918 0.363,0.262 0.727,0.469 1.094,0.629 z"/><path style="fill:#000000;fill-opacity:1;fill-rule:nonzero;stroke:none" d="m 185.473,177.09 0.957,0.957 5.816,-5.82 -0.953,-0.957 z m -2.266,2.265 0.957,0.957 1.211,-1.21 -0.957,-0.957 z"/><path style="fill:#000000;fill-opacity:1;fill-rule:nonzero;stroke:none" d="m 187.719,182.637 1.652,-1.653 1.969,1.973 0.742,-0.746 -1.969,-1.969 3.16,-3.156 c 0.473,-0.477 0.84,-0.719 1.106,-0.723 0.266,-0.004 0.598,0.192 0.996,0.59 l 0.984,0.985 0.797,-0.801 -0.98,-0.985 c -0.738,-0.734 -1.383,-1.109 -1.938,-1.113 -0.558,-0.004 -1.199,0.356 -1.929,1.086 l -3.157,3.156 -0.703,-0.699 -0.742,0.742 0.703,0.699 -1.652,1.653 z"/><path style="fill:#000000;fill-opacity:1;fill-rule:nonzero;stroke:none" d="m 241.691,156.348 c -0.769,-0.774 -1.218,-1.395 -1.339,-1.871 -0.122,-0.473 0.031,-0.922 0.457,-1.348 0.339,-0.34 0.722,-0.5 1.144,-0.481 0.422,0.028 0.824,0.235 1.211,0.618 0.527,0.531 0.766,1.144 0.711,1.836 -0.055,0.699 -0.395,1.359 -1.02,1.984 l -0.21,0.215 z m 1.512,2.3 3.32,-3.32 -0.957,-0.953 -0.882,0.883 c 0.136,-0.57 0.125,-1.106 -0.032,-1.602 -0.156,-0.492 -0.472,-0.972 -0.945,-1.445 -0.594,-0.594 -1.234,-0.902 -1.922,-0.922 -0.683,-0.016 -1.308,0.258 -1.871,0.82 -0.652,0.653 -0.93,1.368 -0.824,2.133 0.105,0.774 0.594,1.594 1.465,2.465 l 1.34,1.34 -0.094,0.094 c -0.438,0.441 -0.926,0.632 -1.453,0.582 -0.532,-0.047 -1.059,-0.328 -1.582,-0.852 -0.332,-0.332 -0.614,-0.695 -0.852,-1.09 -0.234,-0.398 -0.418,-0.82 -0.551,-1.269 l -0.883,0.883 c 0.215,0.484 0.454,0.925 0.719,1.32 0.258,0.398 0.543,0.754 0.856,1.066 0.843,0.84 1.687,1.25 2.543,1.231 0.851,-0.02 1.718,-0.477 2.605,-1.364 z"/><path style="fill:#000000;fill-opacity:1;fill-rule:nonzero;stroke:none" d="m 248.328,166.535 c -0.191,0.672 -0.223,1.274 -0.094,1.809 0.129,0.539 0.418,1.031 0.868,1.48 0.605,0.61 1.285,0.864 2.043,0.766 0.75,-0.094 1.515,-0.531 2.3,-1.317 l 3.512,-3.511 -0.961,-0.961 -3.48,3.48 c -0.559,0.559 -1.071,0.875 -1.539,0.946 -0.469,0.074 -0.903,-0.09 -1.309,-0.497 -0.496,-0.496 -0.723,-1.05 -0.68,-1.668 0.039,-0.617 0.344,-1.21 0.914,-1.777 l 3.289,-3.289 -0.964,-0.961 -3.481,3.481 c -0.558,0.562 -1.07,0.875 -1.535,0.945 -0.469,0.074 -0.91,-0.098 -1.32,-0.508 -0.489,-0.488 -0.711,-1.043 -0.664,-1.664 0.039,-0.617 0.343,-1.207 0.906,-1.769 l 3.289,-3.29 -0.961,-0.96 -5.816,5.816 0.96,0.961 0.903,-0.902 c -0.137,0.574 -0.141,1.097 -0.004,1.574 0.133,0.472 0.41,0.922 0.832,1.34 0.422,0.421 0.887,0.675 1.394,0.753 0.516,0.083 1.047,-0.007 1.598,-0.277 z"/><path style="fill:#000000;fill-opacity:1;fill-rule:nonzero;stroke:none" d="m 260.695,175.801 0.469,-0.469 -4.394,-4.394 c 0.699,-0.618 1.398,-0.922 2.097,-0.915 0.699,0.016 1.367,0.336 2,0.973 0.367,0.367 0.68,0.766 0.93,1.199 0.258,0.438 0.465,0.914 0.625,1.434 l 0.902,-0.902 c -0.195,-0.489 -0.437,-0.954 -0.719,-1.391 -0.285,-0.434 -0.613,-0.84 -0.984,-1.207 -0.926,-0.93 -1.933,-1.395 -3.019,-1.399 -1.079,0 -2.079,0.461 -3,1.383 -0.954,0.949 -1.454,1.961 -1.497,3.032 -0.046,1.078 0.368,2.054 1.239,2.925 0.785,0.785 1.656,1.149 2.613,1.098 0.961,-0.047 1.875,-0.5 2.738,-1.367 z m -1.234,-0.676 c -0.531,0.516 -1.094,0.785 -1.695,0.813 -0.594,0.027 -1.129,-0.196 -1.598,-0.668 -0.535,-0.532 -0.813,-1.11 -0.832,-1.735 -0.02,-0.621 0.223,-1.226 0.723,-1.824 z"/><path style="fill:#000000;fill-opacity:1;fill-rule:nonzero;stroke:none" d="m 258.891,182.637 1.652,-1.653 1.969,1.973 0.742,-0.746 -1.969,-1.969 3.156,-3.156 c 0.477,-0.477 0.844,-0.719 1.11,-0.723 0.265,-0.004 0.597,0.192 0.996,0.59 l 0.98,0.985 0.801,-0.801 -0.98,-0.985 c -0.739,-0.734 -1.383,-1.109 -1.938,-1.113 -0.558,-0.004 -1.203,0.356 -1.93,1.086 l -3.156,3.156 -0.703,-0.699 -0.742,0.742 0.699,0.699 -1.648,1.653 z"/><path style="fill:#000000;fill-opacity:1;fill-rule:nonzero;stroke:none" d="m 45.219,223.359 h 5.828 v -1.246 h -4.469 v -2.691 c 0.215,0.074 0.43,0.129 0.649,0.16 0.214,0.039 0.429,0.059 0.644,0.059 1.227,0 2.195,-0.332 2.91,-1.004 0.715,-0.672 1.074,-1.582 1.074,-2.727 0,-1.18 -0.367,-2.098 -1.101,-2.754 -0.738,-0.652 -1.774,-0.98 -3.109,-0.98 -0.461,0 -0.93,0.039 -1.411,0.117 -0.476,0.082 -0.968,0.199 -1.476,0.355 v 1.493 c 0.441,-0.243 0.894,-0.422 1.367,-0.539 0.469,-0.118 0.965,-0.176 1.488,-0.176 0.848,0 1.52,0.222 2.016,0.668 0.492,0.445 0.742,1.051 0.742,1.816 0,0.766 -0.25,1.367 -0.742,1.817 -0.496,0.445 -1.168,0.668 -2.016,0.668 -0.394,0 -0.793,-0.047 -1.187,-0.133 -0.395,-0.09 -0.797,-0.227 -1.207,-0.41 z"/><path style="fill:#000000;fill-opacity:1;fill-rule:nonzero;stroke:none" d="m 35.883,240.066 h 2.422 v 8.372 l -2.637,-0.532 v 1.356 l 2.621,0.527 h 1.484 v -9.723 h 2.426 v -1.246 h -6.316 z"/><path style="fill:#000000;fill-opacity:1;fill-rule:nonzero;stroke:none" d="m 48.379,248.812 c -0.766,0 -1.34,-0.378 -1.727,-1.132 -0.382,-0.75 -0.574,-1.879 -0.574,-3.387 0,-1.504 0.192,-2.633 0.574,-3.387 0.387,-0.75 0.961,-1.125 1.727,-1.125 0.769,0 1.344,0.375 1.726,1.125 0.387,0.754 0.583,1.883 0.583,3.387 0,1.508 -0.196,2.637 -0.583,3.387 -0.382,0.754 -0.957,1.132 -1.726,1.132 z m 0,1.176 c 1.23,0 2.168,-0.488 2.812,-1.465 0.653,-0.968 0.981,-2.378 0.981,-4.23 0,-1.848 -0.328,-3.258 -0.981,-4.234 -0.644,-0.969 -1.582,-1.454 -2.812,-1.454 -1.231,0 -2.172,0.485 -2.82,1.454 -0.649,0.976 -0.973,2.386 -0.973,4.234 0,1.852 0.324,3.262 0.973,4.23 0.648,0.977 1.589,1.465 2.82,1.465 z"/><path style="fill:#000000;fill-opacity:1;fill-rule:nonzero;stroke:none" d="m 35.883,266.695 h 2.422 v 8.367 l -2.637,-0.527 v 1.352 l 2.621,0.527 h 1.484 v -9.719 h 2.426 v -1.25 h -6.316 z"/><path style="fill:#000000;fill-opacity:1;fill-rule:nonzero;stroke:none" d="m 45.219,276.414 h 5.828 v -1.246 h -4.469 v -2.691 c 0.215,0.074 0.43,0.128 0.649,0.164 0.214,0.039 0.429,0.058 0.644,0.058 1.227,0 2.195,-0.336 2.91,-1.008 0.715,-0.671 1.074,-1.578 1.074,-2.726 0,-1.18 -0.367,-2.098 -1.101,-2.754 -0.738,-0.652 -1.774,-0.977 -3.109,-0.977 -0.461,0 -0.93,0.039 -1.411,0.118 -0.476,0.078 -0.968,0.195 -1.476,0.351 v 1.492 c 0.441,-0.242 0.894,-0.418 1.367,-0.539 0.469,-0.117 0.965,-0.176 1.488,-0.176 0.848,0 1.52,0.223 2.016,0.668 0.492,0.45 0.742,1.051 0.742,1.817 0,0.765 -0.25,1.371 -0.742,1.816 -0.496,0.446 -1.168,0.668 -2.016,0.668 -0.394,0 -0.793,-0.043 -1.187,-0.133 -0.395,-0.089 -0.797,-0.226 -1.207,-0.41 z"/><path style="fill:#000000;fill-opacity:1;fill-rule:nonzero;stroke:none" d="m 36.902,293.125 h 5.18 v -1.25 h -6.965 v 1.25 c 0.563,0.582 1.328,1.363 2.301,2.344 0.973,0.984 1.586,1.617 1.836,1.902 0.473,0.531 0.805,0.984 0.992,1.352 0.192,0.371 0.285,0.738 0.285,1.093 0,0.582 -0.207,1.059 -0.617,1.426 -0.406,0.367 -0.937,0.551 -1.594,0.551 -0.465,0 -0.957,-0.082 -1.476,-0.242 -0.516,-0.16 -1.067,-0.406 -1.653,-0.735 v 1.5 c 0.598,0.239 1.157,0.422 1.676,0.543 0.516,0.121 0.992,0.184 1.422,0.184 1.137,0 2.043,-0.285 2.719,-0.852 0.676,-0.57 1.015,-1.328 1.015,-2.277 0,-0.453 -0.085,-0.879 -0.257,-1.289 -0.164,-0.398 -0.473,-0.875 -0.918,-1.422 -0.121,-0.144 -0.512,-0.555 -1.168,-1.234 -0.657,-0.68 -1.582,-1.625 -2.778,-2.844 z"/><path style="fill:#000000;fill-opacity:1;fill-rule:nonzero;stroke:none" d="m 48.379,301.867 c -0.766,0 -1.34,-0.379 -1.727,-1.133 -0.382,-0.75 -0.574,-1.879 -0.574,-3.386 0,-1.504 0.192,-2.633 0.574,-3.387 0.387,-0.75 0.961,-1.125 1.727,-1.125 0.769,0 1.344,0.375 1.726,1.125 0.387,0.754 0.583,1.883 0.583,3.387 0,1.507 -0.196,2.636 -0.583,3.386 -0.382,0.754 -0.957,1.133 -1.726,1.133 z m 0,1.176 c 1.23,0 2.168,-0.488 2.812,-1.461 0.653,-0.973 0.981,-2.383 0.981,-4.234 0,-1.848 -0.328,-3.258 -0.981,-4.231 -0.644,-0.972 -1.582,-1.457 -2.812,-1.457 -1.231,0 -2.172,0.485 -2.82,1.457 -0.649,0.973 -0.973,2.383 -0.973,4.231 0,1.851 0.324,3.261 0.973,4.234 0.648,0.973 1.589,1.461 2.82,1.461 z"/><g transform="matrix(1,0,0,-1,0,448)"><path style="fill:none;stroke:#4a4f89;stroke-width:2.838;stroke-linecap:butt;stroke-linejoin:miter;stroke-miterlimit:10;stroke-dasharray:none;stroke-opacity:1" d="M 68.2,230.23 H 58.078"/></g><g transform="matrix(1,0,0,-1,0,448)"><path style="fill:none;stroke:#4a4f89;stroke-width:2.838;stroke-linecap:butt;stroke-linejoin:miter;stroke-miterlimit:10;stroke-dasharray:none;stroke-opacity:1" d="M 68.2,150.648 H 58.078"/></g><g transform="matrix(1,0,0,-1,0,448)"><path style="fill:none;stroke:#4a4f89;stroke-width:2.838;stroke-linecap:butt;stroke-linejoin:miter;stroke-miterlimit:10;stroke-dasharray:none;stroke-opacity:1" d="M 68.2,177.176 H 58.078"/></g><g transform="matrix(1,0,0,-1,0,448)"><path style="fill:none;stroke:#4a4f89;stroke-width:2.838;stroke-linecap:butt;stroke-linejoin:miter;stroke-miterlimit:10;stroke-dasharray:none;stroke-opacity:1" d="M 68.2,203.703 H 58.078"/></g></g></g></g></g></g></g><g><g transform="translate(0,-0.598)"><g><g clip-path="url(#clipPath240)"><g><text style="font-variant:normal;font-weight:600;font-size:18.016px;font-family:'IBM Plex Sans SemiBold';-inkscape-font-specification:IBMPlexSans-SemiBold;writing-mode:lr-tb;fill:#ffffff;fill-opacity:1;fill-rule:nonzero;stroke:none" transform="matrix(1,0,0,-1,42.155,109.446)"><tspan x="0 10.503 21.025 26.268 36.789 74.317 83.307 88.586 127.248 136.238 152.02 161.785">dolorsitsmet</tspan></text><text style="font-variant:normal;font-weight:normal;font-size:18.016px;font-family:'IBM Plex Sans';-inkscape-font-specification:IBMPlexSans;writing-mode:lr-tb;fill:#000000;fill-opacity:1;fill-rule:nonzero;stroke:none" transform="matrix(1,0,0,-1,70.059,81.671)"><tspan x="0 10.503 63.057 73.56 126.113 136.635">102015</tspan></text></g></g></g></g><g transform="translate(0,-0.598)"><g><g clip-path="url(#clipPath260)"><g><g><g><g clip-path="url(#clipPath272)"><g><g><g><g clip-path="url(#clipPath284)"><g><path style="fill:#0000ee;fill-opacity:1;fill-rule:nonzero;stroke:none" d="m 32.02,35.879 h 319.039 v -1.5 H 32.02 Z"/></g></g></g></g></g></g></g></g></g></g></g></g><g transform="translate(0,-0.598)"><g><g clip-path="url(#clipPath298)"><g><text style="font-variant:normal;font-weight:normal;font-size:18.016px;font-family:'IBM Plex Sans';-inkscape-font-specification:IBMPlexSans;writing-mode:lr-tb;fill:#0000ee;fill-opacity:1;fill-rule:nonzero;stroke:none" transform="matrix(1,0,0,-1,32.021,37.381)"><tspan x="0 9.008 18.773 24.016 33.78 42.788 53.31 63.057 69.074 78.821 88.586 95.342 99.846 105.106 114.853 123.861 128.365 138.887 148.651 159.155 169.658 179.423 189.188 198.196 202.7 212.447 222.968 227.472 233.472 243.236 249.992 265.721 275.521 281.521 286.025 297.285 307.752">Télécharger les données au format CSV</tspan></text></g></g></g></g></g></g></svg>
