<?xml version="1.0" encoding="UTF-8" standalone="no"?>
<svg
   xmlns:dc="http://purl.org/dc/elements/1.1/"
   xmlns:cc="http://creativecommons.org/ns#"
   xmlns:rdf="http://www.w3.org/1999/02/22-rdf-syntax-ns#"
   xmlns:svg="http://www.w3.org/2000/svg"
   xmlns="http://www.w3.org/2000/svg"
   xmlns:sodipodi="http://sodipodi.sourceforge.net/DTD/sodipodi-0.dtd"
   xmlns:inkscape="http://www.inkscape.org/namespaces/inkscape"
   inkscape:version="1.0 (4035a4f, 2020-05-01)"
   sodipodi:docname="graph.svg"
   id="svg8"
   version="1.1"
   viewBox="0 0 105.0309 65.606872"
   height="65.606873mm"
   width="105.0309mm">
  <defs
     id="defs2">
    <marker
       inkscape:stockid="TriangleOutM"
       orient="auto"
       refY="0"
       refX="0"
       id="marker1179"
       style="overflow:visible"
       inkscape:isstock="true">
      <path
         id="path1177"
         d="M 5.77,0 -2.88,5 V -5 Z"
         style="fill:#4a4f89;fill-opacity:1;fill-rule:evenodd;stroke:#4a4f89;stroke-width:1pt;stroke-opacity:1"
         transform="scale(0.4)" />
    </marker>
    <marker
       inkscape:collect="always"
       inkscape:isstock="true"
       style="overflow:visible"
       id="TriangleOutM"
       refX="0"
       refY="0"
       orient="auto"
       inkscape:stockid="TriangleOutM">
      <path
         transform="scale(0.4)"
         style="fill:#4a4f89;fill-opacity:1;fill-rule:evenodd;stroke:#4a4f89;stroke-width:1pt;stroke-opacity:1"
         d="M 5.77,0 -2.88,5 V -5 Z"
         id="path988" />
    </marker>
    <marker
       inkscape:isstock="true"
       style="overflow:visible"
       id="TriangleOutS"
       refX="0"
       refY="0"
       orient="auto"
       inkscape:stockid="TriangleOutS">
      <path
         transform="scale(0.2)"
         style="fill:#4a4f89;fill-opacity:1;fill-rule:evenodd;stroke:#4a4f89;stroke-width:1pt;stroke-opacity:1"
         d="M 5.77,0 -2.88,5 V -5 Z"
         id="path991" />
    </marker>
    <marker
       inkscape:stockid="TriangleOutM"
       orient="auto"
       refY="0"
       refX="0"
       id="TriangleOutM-4"
       style="overflow:visible"
       inkscape:isstock="true">
      <path
         id="path988-7"
         d="M 5.77,0 -2.88,5 V -5 Z"
         style="fill:#4a4f89;fill-opacity:1;fill-rule:evenodd;stroke:#4a4f89;stroke-width:1pt;stroke-opacity:1"
         transform="scale(0.4)" />
    </marker>
  </defs>
  <sodipodi:namedview
     inkscape:window-maximized="1"
     inkscape:window-y="27"
     inkscape:window-x="0"
     inkscape:window-height="2100"
     inkscape:window-width="3840"
     fit-margin-bottom="1"
     fit-margin-right="1"
     fit-margin-left="1"
     fit-margin-top="1"
     showgrid="false"
     inkscape:document-rotation="0"
     inkscape:current-layer="layer1"
     inkscape:document-units="mm"
     inkscape:cy="198.18102"
     inkscape:cx="-47.861709"
     inkscape:zoom="1"
     inkscape:pageshadow="2"
     inkscape:pageopacity="0.0"
     borderopacity="1.0"
     bordercolor="#666666"
     pagecolor="#ffffff"
     id="base" />
  <metadata
     id="metadata5">
    <rdf:RDF>
      <cc:Work
         rdf:about="">
        <dc:format>image/svg+xml</dc:format>
        <dc:type
           rdf:resource="http://purl.org/dc/dcmitype/StillImage" />
        <dc:title></dc:title>
      </cc:Work>
    </rdf:RDF>
  </metadata>
  <g
     transform="translate(-28.590023,-23.556223)"
     id="layer1"
     inkscape:groupmode="layer"
     inkscape:label="Layer 1">
    <path
       sodipodi:nodetypes="cc"
       id="path833"
       d="M 36.274559,74.085149 H 129.95226"
       style="font-variation-settings:normal;opacity:1;vector-effect:none;fill:none;fill-opacity:1;stroke:#4a4f89;stroke-width:0.939385;stroke-linecap:butt;stroke-linejoin:miter;stroke-miterlimit:4;stroke-dasharray:none;stroke-dashoffset:0;stroke-opacity:1;marker-end:url(#TriangleOutM);stop-color:#000000;stop-opacity:1" />
    <path
       sodipodi:nodetypes="cc"
       id="path835"
       d="M 41.245469,79.05606 V 27.224884"
       style="font-variation-settings:normal;opacity:1;vector-effect:none;fill:none;fill-opacity:1;stroke:#4a4f89;stroke-width:0.939385;stroke-linecap:butt;stroke-linejoin:miter;stroke-miterlimit:4;stroke-dasharray:none;stroke-dashoffset:0;stroke-opacity:1;marker-end:url(#marker1179);stop-color:#000000;stop-opacity:1" />
    <rect
       y="55.484314"
       x="53.098267"
       height="18.787697"
       width="13.685887"
       id="rect837"
       style="fill:#4a4f89;stroke:none;stroke-width:1.81301;stop-color:#000000" />
    <rect
       style="fill:#4a4f89;stroke:none;stroke-width:1.81301;stop-color:#000000"
       id="rect839"
       width="13.685887"
       height="37.575394"
       x="78.167267"
       y="36.696617" />
    <rect
       y="46.090466"
       x="103.23627"
       height="28.181545"
       width="13.685887"
       id="rect841"
       style="fill:#4a4f89;stroke:none;stroke-width:1.81302;stop-color:#000000" />
    <g
       style="font-size:2.82223px;line-height:1.2;font-family:sans-serif;-inkscape-font-specification:sans-serif;text-align:end;letter-spacing:0px;word-spacing:0px;writing-mode:lr-tb;text-anchor:end;stroke-width:0.264583"
       id="text1243"
       transform="matrix(1.3284908,-1.3284908,1.3284908,1.3284908,-26.002814,-21.579264)"
       aria-label="dolor">
      <path
         id="path1307"
         style="stroke-width:0.264583"
         d="m -10.771223,69.507915 v -0.835094 h 0.25356 v 2.144234 h -0.25356 v -0.231511 q -0.07993,0.137804 -0.202572,0.205328 -0.121268,0.06615 -0.292145,0.06615 -0.279742,0 -0.456132,-0.223243 -0.175011,-0.223243 -0.175011,-0.587046 0,-0.363803 0.175011,-0.587046 0.17639,-0.223242 0.456132,-0.223242 0.170877,0 0.292145,0.06752 0.122646,0.06615 0.202572,0.20395 z m -0.864032,0.538814 q 0,0.279743 0.114377,0.439596 0.115756,0.158474 0.31695,0.158474 0.201194,0 0.31695,-0.158474 0.115755,-0.159853 0.115755,-0.439596 0,-0.279742 -0.115755,-0.438217 -0.115756,-0.159853 -0.31695,-0.159853 -0.201194,0 -0.31695,0.159853 -0.114377,0.158475 -0.114377,0.438217 z" />
      <path
         id="path1309"
         style="stroke-width:0.264583"
         d="m -9.3973147,69.451415 q -0.2039502,0 -0.3224618,0.159853 -0.1185117,0.158475 -0.1185117,0.435461 0,0.276987 0.1171336,0.43684 0.1185116,0.158474 0.3238399,0.158474 0.2025722,0 0.3210838,-0.159852 0.1185116,-0.159853 0.1185116,-0.435462 0,-0.27423 -0.1185116,-0.434083 -0.1185116,-0.161231 -0.3210838,-0.161231 z m 0,-0.214974 q 0.3307301,0 0.5195219,0.214974 0.1887917,0.214975 0.1887917,0.595314 0,0.378962 -0.1887917,0.595314 -0.1887918,0.214975 -0.5195219,0.214975 -0.3321081,0 -0.5208999,-0.214975 -0.1874134,-0.216352 -0.1874134,-0.595314 0,-0.380339 0.1874134,-0.595314 0.1887918,-0.214974 0.5208999,-0.214974 z" />
      <path
         id="path1311"
         style="stroke-width:0.264583"
         d="m -8.2700764,68.672821 h 0.2535597 v 2.144234 h -0.2535597 z" />
      <path
         id="path1313"
         style="stroke-width:0.264583"
         d="m -6.889278,69.451415 q -0.2039502,0 -0.3224618,0.159853 -0.1185116,0.158475 -0.1185116,0.435461 0,0.276987 0.1171336,0.43684 0.1185116,0.158474 0.3238398,0.158474 0.2025722,0 0.3210838,-0.159852 0.1185116,-0.159853 0.1185116,-0.435462 0,-0.27423 -0.1185116,-0.434083 -0.1185116,-0.161231 -0.3210838,-0.161231 z m 0,-0.214974 q 0.3307301,0 0.5195219,0.214974 0.1887917,0.214975 0.1887917,0.595314 0,0.378962 -0.1887917,0.595314 -0.1887918,0.214975 -0.5195219,0.214975 -0.3321081,0 -0.5208999,-0.214975 -0.1874137,-0.216352 -0.1874137,-0.595314 0,-0.380339 0.1874137,-0.595314 0.1887918,-0.214974 0.5208999,-0.214974 z" />
      <path
         id="path1315"
         style="stroke-width:0.264583"
         d="m -4.8676905,69.510671 q -0.042719,-0.02481 -0.093707,-0.03583 -0.049609,-0.0124 -0.1102433,-0.0124 -0.2149746,0 -0.3307301,0.140561 -0.1143775,0.139182 -0.1143775,0.40101 v 0.813045 H -5.7716862 V 69.27365 h 0.2549378 v 0.239779 q 0.079926,-0.14056 0.2080843,-0.208084 0.1281579,-0.0689 0.3114375,-0.0689 0.026183,0 0.057878,0.0041 0.031695,0.0028 0.07028,0.0096 z" />
    </g>
    <g
       style="font-size:2.82223px;line-height:1.2;font-family:sans-serif;-inkscape-font-specification:sans-serif;text-align:end;letter-spacing:0px;word-spacing:0px;writing-mode:lr-tb;text-anchor:end;stroke-width:0.264583"
       id="text1247"
       transform="matrix(1.3284908,-1.3284908,1.3284908,1.3284908,-26.002814,-21.579264)"
       aria-label="sit">
      <path
         id="path1318"
         style="stroke-width:0.264583"
         d="M 2.4945291,78.791131 V 79.03091 Q 2.3870419,78.97579 2.2712863,78.94823 2.1555308,78.92067 2.031507,78.92067 q -0.1887917,0 -0.2838767,0.05788 -0.093707,0.05788 -0.093707,0.173633 0,0.08819 0.067524,0.139182 0.067524,0.04961 0.2714742,0.09508 l 0.086817,0.01929 q 0.2700962,0.05788 0.3830957,0.163987 0.1143775,0.104731 0.1143775,0.293523 0,0.214974 -0.1708773,0.340376 -0.1694991,0.125402 -0.4671562,0.125402 -0.1240238,0 -0.2590719,-0.02481 -0.1336701,-0.02343 -0.2824986,-0.07166 v -0.261828 q 0.1405603,0.07304 0.2769864,0.110243 0.1364262,0.03583 0.2700963,0.03583 0.1791454,0 0.2756084,-0.06063 0.096463,-0.06201 0.096463,-0.173633 0,-0.103353 -0.07028,-0.158475 -0.068902,-0.05512 -0.3045473,-0.106109 l -0.088195,-0.02067 Q 1.6180944,79.547676 1.5133632,79.445701 1.408632,79.342348 1.408632,79.163202 q 0,-0.21773 0.1543407,-0.336242 0.1543407,-0.118512 0.4382174,-0.118512 0.1405603,0 0.2645841,0.02067 0.1240237,0.02067 0.2287549,0.06201 z" />
      <path
         id="path1320"
         style="stroke-width:0.264583"
         d="m 2.9823561,78.745655 h 0.2535597 v 1.543407 H 2.9823561 Z m 0,-0.600826 h 0.2535597 v 0.321084 H 2.9823561 Z" />
      <path
         id="path1322"
         style="stroke-width:0.264583"
         d="m 4.0158876,78.307438 v 0.438217 h 0.5222779 v 0.19706 H 4.0158876 v 0.83785 q 0,0.188792 0.050987,0.242535 0.052366,0.05374 0.2108404,0.05374 h 0.26045 v 0.212218 h -0.26045 q -0.2935229,0 -0.4051443,-0.108865 Q 3.7609493,80.06995 3.7609493,79.780561 v -0.83785 H 3.5749141 v -0.19706 h 0.1860357 v -0.438217 z" />
    </g>
    <g
       style="font-size:2.82223px;line-height:1.2;font-family:sans-serif;-inkscape-font-specification:sans-serif;text-align:end;letter-spacing:0px;word-spacing:0px;writing-mode:lr-tb;text-anchor:end;stroke-width:0.264583"
       id="text1251"
       transform="matrix(1.3284908,-1.3284908,1.3284908,1.3284908,-26.002814,-21.579264)"
       aria-label="amet">
      <path
         id="path1325"
         style="stroke-width:0.264583"
         d="m 7.6877183,88.952159 q -0.3073034,0 -0.425815,0.07028 -0.1185116,0.07028 -0.1185116,0.23978 0,0.135048 0.088195,0.214974 0.089573,0.07855 0.2425354,0.07855 0.2108404,0 0.3376203,-0.148829 Q 7.9399,89.256706 7.9399,89.008659 v -0.0565 z m 0.5057414,-0.104731 v 0.880569 H 7.9399 V 89.49373 q -0.086817,0.14056 -0.2163526,0.208084 -0.1295359,0.06615 -0.3169497,0.06615 -0.2370232,0 -0.3775835,-0.132292 -0.1391822,-0.13367 -0.1391822,-0.356913 0,-0.26045 0.1736333,-0.392742 0.1750113,-0.132292 0.5208999,-0.132292 H 7.9399 v -0.02481 q 0,-0.175011 -0.1157555,-0.270096 -0.1143775,-0.09646 -0.3224619,-0.09646 -0.132292,0 -0.2576938,0.03169 -0.1254018,0.03169 -0.2411574,0.09508 V 88.25487 q 0.1391823,-0.05374 0.2700963,-0.07993 0.130914,-0.02756 0.2549377,-0.02756 0.3348643,0 0.5002293,0.173633 0.165365,0.173633 0.165365,0.526412 z" />
      <path
         id="path1327"
         style="stroke-width:0.264583"
         d="m 9.9187684,88.480869 q 0.095085,-0.170877 0.2273766,-0.252182 0.132292,-0.0813 0.311438,-0.0813 0.241157,0 0.372071,0.169499 0.130914,0.168121 0.130914,0.479558 v 0.931557 H 10.70563 v -0.923288 q 0,-0.221865 -0.07855,-0.329352 -0.07855,-0.107488 -0.239779,-0.107488 -0.19706,0 -0.311438,0.130914 -0.1143773,0.130914 -0.1143773,0.356913 v 0.872301 H 9.7065499 v -0.923288 q 0,-0.223243 -0.078548,-0.329352 -0.078548,-0.107488 -0.2425354,-0.107488 -0.1943039,0 -0.3086814,0.132292 -0.1143775,0.130914 -0.1143775,0.355535 v 0.872301 H 8.7074694 V 88.18459 h 0.2549378 v 0.239779 q 0.086817,-0.141938 0.2080843,-0.209462 0.1212677,-0.06752 0.2880108,-0.06752 0.1681211,0 0.2852547,0.08544 0.1185116,0.08544 0.1750114,0.248048 z" />
      <path
         id="path1329"
         style="stroke-width:0.264583"
         d="m 12.787852,88.892903 v 0.124024 h -1.165824 q 0.01654,0.261828 0.157097,0.399632 0.141939,0.136426 0.39412,0.136426 0.146073,0 0.282499,-0.03583 0.137804,-0.03583 0.272852,-0.107487 v 0.239779 q -0.136426,0.05788 -0.279742,0.08819 -0.143317,0.03032 -0.290767,0.03032 -0.369315,0 -0.585668,-0.214975 -0.214975,-0.214974 -0.214975,-0.581533 0,-0.378962 0.203951,-0.600827 0.205328,-0.223242 0.552594,-0.223242 0.311438,0 0.491962,0.201194 0.181901,0.199816 0.181901,0.544326 z m -0.25356,-0.07441 q -0.0028,-0.208084 -0.117133,-0.332108 -0.113,-0.124024 -0.300413,-0.124024 -0.212219,0 -0.340377,0.11989 -0.12678,0.119889 -0.146072,0.33762 z" />
      <path
         id="path1331"
         style="stroke-width:0.264583"
         d="m 13.454824,87.746372 v 0.438218 h 0.522278 v 0.19706 h -0.522278 v 0.837849 q 0,0.188792 0.05099,0.242536 0.05236,0.05374 0.21084,0.05374 h 0.26045 v 0.212219 h -0.26045 q -0.293523,0 -0.405144,-0.108865 -0.111621,-0.110244 -0.111621,-0.399633 V 88.38165 h -0.186036 v -0.19706 h 0.186036 v -0.438218 z" />
    </g>
    <g
       transform="matrix(1.8787697,0,0,1.8787697,-26.002814,-21.579264)"
       style="font-size:2.82223px;line-height:1.2;font-family:sans-serif;-inkscape-font-specification:sans-serif;text-align:end;letter-spacing:0px;word-spacing:0px;writing-mode:lr-tb;text-anchor:end;stroke-width:0.264583"
       id="text1255"
       aria-label="5">
      <path
         id="path1289"
         style="stroke-width:0.264583"
         d="m 31.48483,44.894823 h 1.092787 v 0.234267 h -0.83785 v 0.504364 q 0.06063,-0.02067 0.121268,-0.03032 0.06063,-0.01102 0.121268,-0.01102 0.34451,0 0.545704,0.188792 0.201195,0.188792 0.201195,0.511254 0,0.332108 -0.206707,0.516766 -0.206706,0.183279 -0.582912,0.183279 -0.129535,0 -0.264584,-0.02205 -0.13367,-0.02205 -0.276986,-0.06615 v -0.279743 q 0.124024,0.06752 0.256316,0.100597 0.132292,0.03307 0.279742,0.03307 0.238402,0 0.377584,-0.125402 0.139182,-0.125402 0.139182,-0.340376 0,-0.214975 -0.139182,-0.340377 -0.139182,-0.125401 -0.377584,-0.125401 -0.111621,0 -0.223242,0.0248 -0.110244,0.0248 -0.225999,0.07717 z" />
    </g>
    <g
       transform="matrix(1.8787697,0,0,1.8787697,-26.002814,-21.579264)"
       style="font-size:2.82223px;line-height:1.2;font-family:sans-serif;-inkscape-font-specification:sans-serif;text-align:end;letter-spacing:0px;word-spacing:0px;writing-mode:lr-tb;text-anchor:end;stroke-width:0.264583"
       id="text1259"
       aria-label="10">
      <path
         id="path1292"
         style="stroke-width:0.264583"
         d="m 29.733338,41.761445 h 0.454754 v -1.56959 l -0.494717,0.09922 v -0.253559 l 0.491961,-0.09922 H 30.4637 v 1.823149 h 0.454754 v 0.234267 h -1.185116 z" />
      <path
         id="path1294"
         style="stroke-width:0.264583"
         d="m 32.077388,40.121575 q -0.214975,0 -0.32384,0.212219 -0.107487,0.21084 -0.107487,0.635277 0,0.423059 0.107487,0.635277 0.108865,0.210841 0.32384,0.210841 0.216352,0 0.32384,-0.210841 0.108865,-0.212218 0.108865,-0.635277 0,-0.424437 -0.108865,-0.635277 -0.107488,-0.212219 -0.32384,-0.212219 z m 0,-0.220487 q 0.345888,0 0.52779,0.274231 0.183279,0.272852 0.183279,0.793752 0,0.519522 -0.183279,0.793752 -0.181902,0.272852 -0.52779,0.272852 -0.345889,0 -0.529168,-0.272852 -0.181902,-0.27423 -0.181902,-0.793752 0,-0.5209 0.181902,-0.793752 0.183279,-0.274231 0.529168,-0.274231 z" />
    </g>
    <g
       transform="matrix(1.8787697,0,0,1.8787697,-26.002814,-21.579264)"
       style="font-size:2.82223px;line-height:1.2;font-family:sans-serif;-inkscape-font-specification:sans-serif;text-align:end;letter-spacing:0px;word-spacing:0px;writing-mode:lr-tb;text-anchor:end;stroke-width:0.264583"
       id="text1263"
       aria-label="15">
      <path
         id="path1297"
         style="stroke-width:0.264583"
         d="m 29.733338,36.767701 h 0.454754 v -1.56959 l -0.494717,0.09922 v -0.253559 l 0.491961,-0.09922 H 30.4637 v 1.823149 h 0.454754 v 0.234267 h -1.185116 z" />
      <path
         id="path1299"
         style="stroke-width:0.264583"
         d="m 31.48483,34.944552 h 1.092787 v 0.234267 h -0.83785 v 0.504363 q 0.06063,-0.02067 0.121268,-0.03032 0.06063,-0.01102 0.121268,-0.01102 0.34451,0 0.545704,0.188792 0.201195,0.188791 0.201195,0.511253 0,0.332108 -0.206707,0.516766 -0.206706,0.18328 -0.582912,0.18328 -0.129535,0 -0.264584,-0.02205 -0.13367,-0.02205 -0.276986,-0.06615 V 36.67399 q 0.124024,0.06752 0.256316,0.100597 0.132292,0.03307 0.279742,0.03307 0.238402,0 0.377584,-0.125401 0.139182,-0.125402 0.139182,-0.340377 0,-0.214974 -0.139182,-0.340376 -0.139182,-0.125402 -0.377584,-0.125402 -0.111621,0 -0.223243,0.02481 -0.110243,0.02481 -0.225998,0.07717 z" />
    </g>
    <g
       transform="matrix(1.8787697,0,0,1.8787697,-26.002814,-21.579264)"
       style="font-size:2.82223px;line-height:1.2;font-family:sans-serif;-inkscape-font-specification:sans-serif;text-align:end;letter-spacing:0px;word-spacing:0px;writing-mode:lr-tb;text-anchor:end;stroke-width:0.264583"
       id="text1267"
       aria-label="20">
      <path
         id="path1302"
         style="stroke-width:0.264583"
         d="m 29.924886,31.81117 h 0.97152 v 0.234267 H 29.590022 V 31.81117 q 0.158475,-0.163987 0.431327,-0.439596 0.27423,-0.276986 0.34451,-0.356913 0.133671,-0.150206 0.186036,-0.253559 0.05374,-0.104732 0.05374,-0.205329 0,-0.163987 -0.115756,-0.26734 -0.114377,-0.103353 -0.299035,-0.103353 -0.130914,0 -0.276986,0.04547 -0.144695,0.04548 -0.31006,0.137805 v -0.281121 q 0.168121,-0.06752 0.314194,-0.101975 0.146072,-0.03445 0.26734,-0.03445 0.319706,0 0.509876,0.159853 0.190169,0.159853 0.190169,0.427193 0,0.12678 -0.04823,0.241157 -0.04685,0.113 -0.172255,0.26734 -0.03445,0.03996 -0.219109,0.231511 -0.184658,0.19017 -0.5209,0.533303 z" />
      <path
         id="path1304"
         style="stroke-width:0.264583"
         d="m 32.077388,30.1713 q -0.214975,0 -0.32384,0.212218 -0.107487,0.210841 -0.107487,0.635278 0,0.423058 0.107487,0.635277 0.108865,0.21084 0.32384,0.21084 0.216352,0 0.32384,-0.21084 0.108865,-0.212219 0.108865,-0.635277 0,-0.424437 -0.108865,-0.635278 Q 32.29374,30.1713 32.077388,30.1713 Z m 0,-0.220487 q 0.345888,0 0.52779,0.27423 0.183279,0.272853 0.183279,0.793753 0,0.519521 -0.183279,0.793752 -0.181902,0.272852 -0.52779,0.272852 -0.345889,0 -0.529168,-0.272852 -0.181902,-0.274231 -0.181902,-0.793752 0,-0.5209 0.181902,-0.793753 0.183279,-0.27423 0.529168,-0.27423 z" />
    </g>
    <path
       id="path1269"
       d="M 41.245469,64.738015 H 37.679884"
       style="font-variation-settings:normal;opacity:1;vector-effect:none;fill:none;fill-opacity:1;stroke:#4a4f89;stroke-width:0.939383;stroke-linecap:butt;stroke-linejoin:miter;stroke-miterlimit:4;stroke-dasharray:none;stroke-dashoffset:0;stroke-opacity:1;stop-color:#000000;stop-opacity:1" />
    <path
       style="font-variation-settings:normal;opacity:1;vector-effect:none;fill:none;fill-opacity:1;stroke:#4a4f89;stroke-width:0.939383;stroke-linecap:butt;stroke-linejoin:miter;stroke-miterlimit:4;stroke-dasharray:none;stroke-dashoffset:0;stroke-opacity:1;stop-color:#000000;stop-opacity:1"
       d="M 41.245469,36.696617 H 37.679884"
       id="path1271" />
    <path
       id="path1273"
       d="M 41.245469,46.043749 H 37.679884"
       style="font-variation-settings:normal;opacity:1;vector-effect:none;fill:none;fill-opacity:1;stroke:#4a4f89;stroke-width:0.939383;stroke-linecap:butt;stroke-linejoin:miter;stroke-miterlimit:4;stroke-dasharray:none;stroke-dashoffset:0;stroke-opacity:1;stop-color:#000000;stop-opacity:1" />
    <path
       style="font-variation-settings:normal;opacity:1;vector-effect:none;fill:none;fill-opacity:1;stroke:#4a4f89;stroke-width:0.939383;stroke-linecap:butt;stroke-linejoin:miter;stroke-miterlimit:4;stroke-dasharray:none;stroke-dashoffset:0;stroke-opacity:1;stop-color:#000000;stop-opacity:1"
       d="M 41.245469,55.39089 H 37.679884"
       id="path1275" />
  </g>
</svg>
