<?xml version="1.0" encoding="utf-8"?>
<svg xmlns:dc="http://purl.org/dc/elements/1.1/" xmlns:cc="http://creativecommons.org/ns#" xmlns:rdf="http://www.w3.org/1999/02/22-rdf-syntax-ns#" xmlns:svg="http://www.w3.org/2000/svg" xmlns="http://www.w3.org/2000/svg" viewBox="0 0 742.66656 373.33508" height="373.335" width="742.667" xml:space="preserve" version="1.1"><defs><clipPath id="clipPath22" clipPathUnits="userSpaceOnUse"><path d="M 0,0 H 557 V 281 H 0 Z"/></clipPath><clipPath id="clipPath134" clipPathUnits="userSpaceOnUse"><path d="m 36.031,218.445 h 90.832 v 25.523 H 36.031 Z"/></clipPath><clipPath id="clipPath144" clipPathUnits="userSpaceOnUse"><path d="M 0,0 H 557 V 281 H 0 Z"/></clipPath><clipPath id="clipPath158" clipPathUnits="userSpaceOnUse"><path d="m 105.844,117.855 h 226.703 v 24.023 H 105.844 Z"/></clipPath><clipPath id="clipPath168" clipPathUnits="userSpaceOnUse"><path d="M 0,0 H 557 V 281 H 0 Z"/></clipPath></defs><g transform="matrix(1.333,0,0,1.333,0,6.667e-6)"><g><g><g><g clip-path="url(#clipPath22)"><g><path style="fill:#d3d3d3;fill-opacity:1;fill-rule:nonzero;stroke:none" d="M 0,0 H 557 V 280 H 0 Z"/><path style="fill:#eeeeee;fill-opacity:1;fill-rule:nonzero;stroke:none" d="M 0,0 H 557 V 2.254 H 0 Z"/><path style="fill:#9a9a9a;fill-opacity:1;fill-rule:nonzero;stroke:none" d="M 0,277.75 H 557 V 280 H 0 Z"/><path style="fill:#9a9a9a;fill-opacity:1;fill-rule:nonzero;stroke:none" d="M 554.746,2.254 V 280 H 557 V 0"/><path style="fill:#eeeeee;fill-opacity:1;fill-rule:nonzero;stroke:none" d="m 0,0 v 280 l 2.254,-2.25 V 0"/><path style="fill:#00008b;fill-opacity:1;fill-rule:nonzero;stroke:none" d="M 5.254,5.254 H 551.746 V 43.539 H 5.254 Z"/><path style="fill:#d3d3d3;fill-opacity:1;fill-rule:nonzero;stroke:none" d="M 5.254,43.539 H 551.746 V 86.328 H 5.254 Z"/><path style="fill:#ffffff;fill-opacity:1;fill-rule:nonzero;stroke:none" d="M 5.254,86.328 H 551.746 V 274.746 H 5.254 Z"/><path style="fill:#9a9a9a;fill-opacity:1;fill-rule:nonzero;stroke:none" d="m 5.254,86.328 h 546.492 v 2.25 H 5.254 Z"/><path style="fill:#eeeeee;fill-opacity:1;fill-rule:nonzero;stroke:none" d="m 5.254,272.496 h 546.492 v 2.25 H 5.254 Z"/><path style="fill:#eeeeee;fill-opacity:1;fill-rule:nonzero;stroke:none" d="m 549.492,88.578 v 186.168 h 2.254 V 86.328"/><path style="fill:#9a9a9a;fill-opacity:1;fill-rule:nonzero;stroke:none" d="m 5.254,86.328 v 188.418 l 2.254,-2.25 V 86.328"/><path style="fill:#d3d3d3;fill-opacity:1;fill-rule:nonzero;stroke:none" d="m 517.215,9.758 h 30.027 v 30.027 h -30.027 z"/><path style="fill:#ffffff;fill-opacity:1;fill-rule:nonzero;stroke:none" d="m 517.215,9.758 h 30.027 v 3.754 h -30.027 z"/><path style="fill:#ababab;fill-opacity:1;fill-rule:nonzero;stroke:none" d="m 517.215,36.031 h 30.027 v 3.754 h -30.027 z"/><path style="fill:#ababab;fill-opacity:1;fill-rule:nonzero;stroke:none" d="m 543.488,13.512 v 26.273 h 3.754 V 9.758"/><path style="fill:#ffffff;fill-opacity:1;fill-rule:nonzero;stroke:none" d="m 517.215,9.758 v 30.027 l 3.754,-3.754 V 9.758"/><text style="font-variant:normal;font-weight:normal;font-size:18.016px;font-family:'DejaVu Sans';-inkscape-font-specification:DejaVuSans;writing-mode:lr-tb;fill:#000000;fill-opacity:1;fill-rule:nonzero;stroke:none" transform="translate(524.979,30.778)"><tspan>✕</tspan></text><text style="font-variant:normal;font-weight:600;font-size:18.016px;font-family:'IBM Plex Sans SemiBold';-inkscape-font-specification:IBMPlexSans-SemiBold;writing-mode:lr-tb;fill:#ffffff;fill-opacity:1;fill-rule:nonzero;stroke:none" transform="translate(9.501,31.528)"><tspan x="0 10.81 18.052 34.051 44.122 49.094 54.391 58.643 65.417 69.669 81.361 93.468 105.881 110.133 121.141 128.671 139.121">E-mail | BAD SITE</tspan></text><text style="font-variant:normal;font-weight:normal;font-size:22.52px;font-family:'IBM Plex Sans';-inkscape-font-specification:IBMPlexSans;writing-mode:lr-tb;fill:#000000;fill-opacity:1;fill-rule:nonzero;stroke:none" transform="translate(13.5,73.566)"><tspan>←</tspan></text><text style="font-variant:normal;font-weight:normal;font-size:22.52px;font-family:'IBM Plex Sans';-inkscape-font-specification:IBMPlexSans;writing-mode:lr-tb;fill:#000000;fill-opacity:1;fill-rule:nonzero;stroke:none" transform="translate(42.597,73.566)"><tspan>→</tspan></text><text style="font-variant:normal;font-weight:normal;font-size:22.52px;font-family:'DejaVu Sans';-inkscape-font-specification:DejaVuSans;writing-mode:lr-tb;fill:#000000;fill-opacity:1;fill-rule:nonzero;stroke:none" transform="translate(71.693,73.566)"><tspan>⟳</tspan></text><path style="fill:#ffffff;fill-opacity:1;fill-rule:nonzero;stroke:none" d="M 102.59,76.32 V 53.547 c 0,-0.465 0.09,-0.91 0.265,-1.34 0.18,-0.43 0.434,-0.809 0.762,-1.137 0.328,-0.328 0.707,-0.582 1.137,-0.761 0.43,-0.176 0.875,-0.266 1.34,-0.266 h 404.863 c 0.465,0 0.914,0.09 1.344,0.266 0.429,0.179 0.808,0.433 1.137,0.761 0.328,0.328 0.582,0.707 0.757,1.137 0.18,0.43 0.27,0.875 0.27,1.34 V 76.32 c 0,0.465 -0.09,0.91 -0.27,1.34 -0.175,0.43 -0.429,0.809 -0.757,1.137 -0.329,0.328 -0.708,0.582 -1.137,0.762 -0.43,0.175 -0.879,0.265 -1.344,0.265 H 106.094 c -0.465,0 -0.91,-0.09 -1.34,-0.265 -0.43,-0.18 -0.809,-0.434 -1.137,-0.762 -0.328,-0.328 -0.582,-0.707 -0.762,-1.137 -0.175,-0.43 -0.265,-0.875 -0.265,-1.34 z"/><g><path style="fill:none;stroke:#808080;stroke-width:0.751;stroke-linecap:butt;stroke-linejoin:miter;stroke-miterlimit:10;stroke-dasharray:none;stroke-opacity:1" d="M 102.469,76.32 V 53.547 c 0,-0.481 0.09,-0.942 0.273,-1.387 0.184,-0.445 0.446,-0.836 0.789,-1.176 0.34,-0.343 0.731,-0.605 1.176,-0.789 0.445,-0.183 0.906,-0.277 1.387,-0.277 h 404.863 c 0.484,0 0.945,0.094 1.391,0.277 0.445,0.184 0.836,0.446 1.175,0.789 0.34,0.34 0.602,0.731 0.789,1.176 0.184,0.445 0.274,0.906 0.274,1.387 V 76.32 c 0,0.481 -0.09,0.942 -0.274,1.387 -0.187,0.445 -0.449,0.836 -0.789,1.176 -0.339,0.34 -0.73,0.605 -1.175,0.789 -0.446,0.183 -0.907,0.273 -1.391,0.273 H 106.094 c -0.481,0 -0.942,-0.09 -1.387,-0.273 -0.445,-0.184 -0.836,-0.449 -1.176,-0.789 -0.343,-0.34 -0.605,-0.731 -0.789,-1.176 -0.183,-0.445 -0.273,-0.906 -0.273,-1.387 z"/></g><text style="font-variant:normal;font-weight:normal;font-size:16.215px;font-family:'IBM Plex Sans';-inkscape-font-specification:IBMPlexSans;writing-mode:lr-tb;fill:#000000;fill-opacity:1;fill-rule:nonzero;stroke:none" transform="translate(110.724,71.314)"><tspan x="0 9.21 14.755 20.447 29.851 37.747 42.482 46.73 52.697 61.405 69.625 78.284 92.439 101.844 106.254 114.815 119.063 127.122 136.202 150.358 156.308 165.21 179.365 188.024 192.078">https://example.com/email</tspan></text><text style="font-variant:normal;font-weight:normal;font-size:22.52px;font-family:'DejaVu Sans';-inkscape-font-specification:DejaVuSans;writing-mode:lr-tb;fill:#000000;fill-opacity:1;fill-rule:nonzero;stroke:none" transform="translate(523.231,73.566)"><tspan>☰</tspan></text><text style="font-variant:normal;font-weight:normal;font-size:18.016px;font-family:'IBM Plex Sans';-inkscape-font-specification:IBMPlexSans;writing-mode:lr-tb;fill:#000000;fill-opacity:1;fill-rule:nonzero;stroke:none" transform="translate(32.021,136.623)"><tspan x="0 11.188 21.277 31.51 38.122 44.734 49.238 59.129">Courriel</tspan></text><path style="fill:#ffffff;fill-opacity:1;fill-rule:nonzero;stroke:none" d="m 100.59,113.352 h 237.215 v 33.031 H 100.59 Z"/><g><path style="fill:none;stroke:#ff0000;stroke-width:0.751;stroke-linecap:butt;stroke-linejoin:miter;stroke-miterlimit:10;stroke-dasharray:none;stroke-opacity:1" d="m 102.469,115.227 h 233.457 v 29.277 H 102.469 Z"/></g><path style="fill:#ff0000;fill-opacity:1;fill-rule:nonzero;stroke:none" d="m 32.277,146.383 h 2.254 v 0.75 h -2.254 m 3.743,-0.75 h 2.253 v 0.75 H 36.02 m 3.742,-0.75 h 2.254 v 0.75 h -2.254 m 3.742,-0.75 h 2.254 v 0.75 h -2.254 m 3.742,-0.75 H 49.5 v 0.75 h -2.254 m 3.742,-0.75 h 2.254 v 0.75 h -2.254 m 3.742,-0.75 h 2.254 v 0.75 H 54.73 m 3.743,-0.75 h 2.25 v 0.75 h -2.25 m 3.742,-0.75 h 2.25 v 0.75 h -2.25 m 3.742,-0.75 h 2.25 v 0.75 h -2.25 m 3.742,-0.75 h 2.25 v 0.75 h -2.25 m 3.742,-0.75 h 2.25 v 0.75 h -2.25 m 3.743,-0.75 h 2.25 v 0.75 h -2.25 m 3.738,-0.75 h 2.254 v 0.75 h -2.254 m 3.742,-0.75 h 2.254 v 0.75 h -2.254 m 3.742,-0.75 h 2.254 v 0.75 h -2.254 m 3.742,-0.75 h 2.254 v 0.75 h -2.254 m 3.743,-0.75 h 2.254 v 0.75 h -2.254 m 3.742,-0.75 h 2.254 v 0.75 h -2.254 m 3.742,-0.75 h 2.254 v 0.75 h -2.254 m 3.742,-0.75 h 2.254 v 0.75 h -2.254 m 3.742,-0.75 h 2.25 v 0.75 h -2.25 m 3.743,-0.75 h 2.25 v 0.75 h -2.25 m 3.742,-0.75 h 2.25 v 0.75 h -2.25 m 3.742,-0.75 h 2.25 v 0.75 h -2.25 m 3.742,-0.75 h 2.25 v 0.75 h -2.25 m 3.742,-0.75 h 2.25 v 0.75 h -2.25 m 3.739,-0.75 h 2.253 v 0.75 h -2.253 m 3.742,-0.75 h 2.254 v 0.75 h -2.254 m 3.742,-0.75 h 2.254 v 0.75 h -2.254 m 3.742,-0.75 h 2.254 v 0.75 h -2.254 m 3.742,-0.75 h 2.254 v 0.75 h -2.254 m 3.743,-0.75 h 2.253 v 0.75 h -2.253 m 3.742,-0.75 h 2.254 v 0.75 h -2.254 m 3.742,-0.75 h 2.254 v 0.75 h -2.254 m 3.742,-0.75 h 2.25 v 0.75 h -2.25 m 3.742,-0.75 h 2.25 v 0.75 h -2.25 m 3.742,-0.75 h 2.25 v 0.75 h -2.25 m 3.743,-0.75 h 2.25 v 0.75 h -2.25 m 3.742,-0.75 h 2.25 v 0.75 h -2.25 m 3.742,-0.75 h 2.25 v 0.75 h -2.25 m 3.738,-0.75 h 2.254 v 0.75 h -2.254 m 3.743,-0.75 h 2.253 v 0.75 h -2.253 m 3.742,-0.75 h 2.254 v 0.75 h -2.254 m 3.742,-0.75 h 2.254 v 0.75 h -2.254 m 3.742,-0.75 h 2.254 v 0.75 h -2.254 m 3.742,-0.75 h 2.254 v 0.75 h -2.254 m 3.742,-0.75 h 2.254 v 0.75 h -2.254 m 3.743,-0.75 h 2.25 v 0.75 h -2.25 m 3.742,-0.75 h 2.25 v 0.75 h -2.25 m 3.742,-0.75 h 2.25 v 0.75 h -2.25 m 3.742,-0.75 h 2.25 v 0.75 h -2.25 m 3.742,-0.75 h 2.25 v 0.75 h -2.25 m 3.743,-0.75 h 2.25 v 0.75 h -2.25 m 3.742,-0.75 h 2.25 v 0.75 h -2.25 m 3.738,-0.75 h 2.254 v 0.75 h -2.254 m 3.742,-0.75 h 2.254 v 0.75 h -2.254 m 3.742,-0.75 h 2.254 v 0.75 h -2.254 m 3.743,-0.75 h 2.253 v 0.75 h -2.253 m 3.742,-0.75 h 2.254 v 0.75 h -2.254 m 3.742,-0.75 h 2.254 v 0.75 h -2.254 m 3.742,-0.75 h 2.254 v 0.75 h -2.254 m 3.742,-0.75 h 2.25 v 0.75 h -2.25 m 3.743,-0.75 h 2.25 v 0.75 h -2.25 m 3.742,-0.75 h 2.25 v 0.75 h -2.25 m 3.742,-0.75 h 2.25 v 0.75 h -2.25 m 3.742,-0.75 h 2.25 v 0.75 h -2.25 m 3.742,-0.75 h 2.25 v 0.75 h -2.25 m 3.742,-0.75 h 2.25 v 0.75 h -2.25 m 3.739,-0.75 h 2.254 v 0.75 h -2.254 m 3.742,-0.75 h 2.254 v 0.75 h -2.254 m 3.742,-0.75 h 2.254 v 0.75 h -2.254 m 3.742,-0.75 h 2.254 v 0.75 h -2.254 m 3.743,-0.75 h 2.253 v 0.75 h -2.253 m 3.742,-0.75 h 2.254 v 0.75 h -2.254 m 3.742,-0.75 h 2.254 v 0.75 h -2.254 m 3.742,-0.75 h 2.25 v 0.75 h -2.25 m 3.742,-0.75 h 2.25 v 0.75 h -2.25 m 3.742,-0.75 h 2.25 v 0.75 h -2.25 m 3.743,-0.75 h 2.25 v 0.75 h -2.25 m 3.742,-0.75 h 2.25 v 0.75 h -2.25 m 3.742,-0.75 h 2.25 v 0.75 h -2.25 m 3.742,-0.75 h 2.25 v 0.75 h -2.25 m 3.738,-0.75 h 2.254 v 0.75 h -2.254 m 3.743,-0.75 h 2.254 v 0.75 h -2.254 m 3.742,-0.75 h 2.254 v 0.75 h -2.254 m 3.742,-0.75 h 2.254 v 0.75 h -2.254 m 3.742,-0.75 h 2.254 v 0.75 h -2.254 m 3.742,-0.75 h 2.254 v 0.75 h -2.254 m 3.743,-0.75 h 2.253 v 0.75 h -2.253 m 3.742,-0.75 h 2.25 v 0.75 h -2.25 m 3.742,-0.75 h 2.25 v 0.75 h -2.25 m 3.742,-0.75 h 2.25 v 0.75 h -2.25 m 3.742,-0.75 h 2.25 v 0.75 h -2.25 m 3.743,-0.75 h 2.25 v 0.75 h -2.25 m 3.742,-0.75 h 2.25 v 0.75 h -2.25 m 3.742,-0.75 h 2.25 v 0.75 h -2.25 m 3.738,-0.75 h 2.254 v 0.75 h -2.254 m 3.742,-0.75 h 2.254 v 0.75 h -2.254 m 3.743,-0.75 h 2.253 v 0.75 h -2.253 m 3.742,-0.75 h 2.254 v 0.75 h -2.254 m 3.742,-0.75 h 2.254 v 0.75 h -2.254 m 3.742,-0.75 h 2.254 v 0.75 h -2.254 m 3.742,-0.75 h 2.254 v 0.75 h -2.254 m 3.743,-0.75 h 2.25 v 0.75 h -2.25 m 3.742,-0.75 h 2.25 v 0.75 h -2.25 m 3.742,-0.75 h 2.25 v 0.75 h -2.25 m 3.742,-0.75 h 2.25 v 0.75 h -2.25 m 3.742,-0.75 h 2.25 v 0.75 h -2.25 m 3.742,-0.75 h 2.25 v 0.75 h -2.25 m 3.743,-0.75 h 2.25 v 0.75 h -2.25 m 3.738,-0.75 h 2.254 v 0.75 h -2.254 m 3.742,-0.75 h 2.254 v 0.75 h -2.254 m 3.742,-0.75 h 2.254 v 0.75 h -2.254 m 3.742,-0.75 h 2.254 v 0.75 h -2.254 m 3.743,-0.75 h 2.254 v 0.75 h -2.254 m 3.742,-0.75 h 2.254 v 0.75 h -2.254 m 3.742,-0.75 h 2.254 v 0.75 h -2.254 m 3.742,-0.75 h 2.25 v 0.75 h -2.25 m 3.742,-0.75 h 2.25 v 0.75 h -2.25 m 3.743,-0.75 h 2.25 v 0.75 h -2.25 m 3.742,-0.75 h 2.25 v 0.75 h -2.25 m 3.742,-0.75 h 2.25 v 0.75 h -2.25 m 3.742,-0.75 h 2.25 v 0.75 h -2.25 m 3.742,-0.75 h 2.25 v 0.75 h -2.25 m 3.739,-0.75 h 2.254 v 0.75 h -2.254 m 3.742,-0.75 h 2.254 v 0.75 h -2.254 m 3.742,-0.75 h 2.254 v 0.75 H 507.5 m 3.742,-0.75 h 2.254 v 0.75 h -2.254 m 3.742,-0.75 h 2.254 v 0.75 h -2.254 m 3.743,-0.75 h 2.253 v 0.75 h -2.253 m 3.742,-0.75 h 2.254 v 0.75 h -2.254"/><path style="fill:#ff0000;fill-opacity:1;fill-rule:nonzero;stroke:none" d="m 32.277,195.926 h 2.254 v 0.75 h -2.254 m 3.743,-0.75 h 2.253 v 0.75 H 36.02 m 3.742,-0.75 h 2.254 v 0.75 h -2.254 m 3.742,-0.75 h 2.254 v 0.75 h -2.254 m 3.742,-0.75 H 49.5 v 0.75 h -2.254 m 3.742,-0.75 h 2.254 v 0.75 h -2.254 m 3.742,-0.75 h 2.254 v 0.75 H 54.73 m 3.743,-0.75 h 2.25 v 0.75 h -2.25 m 3.742,-0.75 h 2.25 v 0.75 h -2.25 m 3.742,-0.75 h 2.25 v 0.75 h -2.25 m 3.742,-0.75 h 2.25 v 0.75 h -2.25 m 3.742,-0.75 h 2.25 v 0.75 h -2.25 m 3.743,-0.75 h 2.25 v 0.75 h -2.25 m 3.738,-0.75 h 2.254 v 0.75 h -2.254 m 3.742,-0.75 h 2.254 v 0.75 h -2.254 m 3.742,-0.75 h 2.254 v 0.75 h -2.254 m 3.742,-0.75 h 2.254 v 0.75 h -2.254 m 3.743,-0.75 h 2.254 v 0.75 h -2.254 m 3.742,-0.75 h 2.254 v 0.75 h -2.254 m 3.742,-0.75 h 2.254 v 0.75 h -2.254 m 3.742,-0.75 h 2.254 v 0.75 h -2.254 m 3.742,-0.75 h 2.25 v 0.75 h -2.25 m 3.743,-0.75 h 2.25 v 0.75 h -2.25 m 3.742,-0.75 h 2.25 v 0.75 h -2.25 m 3.742,-0.75 h 2.25 v 0.75 h -2.25 m 3.742,-0.75 h 2.25 v 0.75 h -2.25 m 3.742,-0.75 h 2.25 v 0.75 h -2.25 m 3.739,-0.75 h 2.253 v 0.75 h -2.253 m 3.742,-0.75 h 2.254 v 0.75 h -2.254 m 3.742,-0.75 h 2.254 v 0.75 h -2.254 m 3.742,-0.75 h 2.254 v 0.75 h -2.254 m 3.742,-0.75 h 2.254 v 0.75 h -2.254 m 3.743,-0.75 h 2.253 v 0.75 h -2.253 m 3.742,-0.75 h 2.254 v 0.75 h -2.254 m 3.742,-0.75 h 2.254 v 0.75 h -2.254 m 3.742,-0.75 h 2.25 v 0.75 h -2.25 m 3.742,-0.75 h 2.25 v 0.75 h -2.25 m 3.742,-0.75 h 2.25 v 0.75 h -2.25 m 3.743,-0.75 h 2.25 v 0.75 h -2.25 m 3.742,-0.75 h 2.25 v 0.75 h -2.25 m 3.742,-0.75 h 2.25 v 0.75 h -2.25 m 3.738,-0.75 h 2.254 v 0.75 h -2.254 m 3.743,-0.75 h 2.253 v 0.75 h -2.253 m 3.742,-0.75 h 2.254 v 0.75 h -2.254 m 3.742,-0.75 h 2.254 v 0.75 h -2.254 m 3.742,-0.75 h 2.254 v 0.75 h -2.254 m 3.742,-0.75 h 2.254 v 0.75 h -2.254 m 3.742,-0.75 h 2.254 v 0.75 h -2.254 m 3.743,-0.75 h 2.25 v 0.75 h -2.25 m 3.742,-0.75 h 2.25 v 0.75 h -2.25 m 3.742,-0.75 h 2.25 v 0.75 h -2.25 m 3.742,-0.75 h 2.25 v 0.75 h -2.25 m 3.742,-0.75 h 2.25 v 0.75 h -2.25 m 3.743,-0.75 h 2.25 v 0.75 h -2.25 m 3.742,-0.75 h 2.25 v 0.75 h -2.25 m 3.738,-0.75 h 2.254 v 0.75 h -2.254 m 3.742,-0.75 h 2.254 v 0.75 h -2.254 m 3.742,-0.75 h 2.254 v 0.75 h -2.254 m 3.743,-0.75 h 2.253 v 0.75 h -2.253 m 3.742,-0.75 h 2.254 v 0.75 h -2.254 m 3.742,-0.75 h 2.254 v 0.75 h -2.254 m 3.742,-0.75 h 2.254 v 0.75 h -2.254 m 3.742,-0.75 h 2.25 v 0.75 h -2.25 m 3.743,-0.75 h 2.25 v 0.75 h -2.25 m 3.742,-0.75 h 2.25 v 0.75 h -2.25 m 3.742,-0.75 h 2.25 v 0.75 h -2.25 m 3.742,-0.75 h 2.25 v 0.75 h -2.25 m 3.742,-0.75 h 2.25 v 0.75 h -2.25 m 3.742,-0.75 h 2.25 v 0.75 h -2.25 m 3.739,-0.75 h 2.254 v 0.75 h -2.254 m 3.742,-0.75 h 2.254 v 0.75 h -2.254 m 3.742,-0.75 h 2.254 v 0.75 h -2.254 m 3.742,-0.75 h 2.254 v 0.75 h -2.254 m 3.743,-0.75 h 2.253 v 0.75 h -2.253 m 3.742,-0.75 h 2.254 v 0.75 h -2.254 m 3.742,-0.75 h 2.254 v 0.75 h -2.254 m 3.742,-0.75 h 2.25 v 0.75 h -2.25 m 3.742,-0.75 h 2.25 v 0.75 h -2.25 m 3.742,-0.75 h 2.25 v 0.75 h -2.25 m 3.743,-0.75 h 2.25 v 0.75 h -2.25 m 3.742,-0.75 h 2.25 v 0.75 h -2.25 m 3.742,-0.75 h 2.25 v 0.75 h -2.25 m 3.742,-0.75 h 2.25 v 0.75 h -2.25 m 3.738,-0.75 h 2.254 v 0.75 h -2.254 m 3.743,-0.75 h 2.254 v 0.75 h -2.254 m 3.742,-0.75 h 2.254 v 0.75 h -2.254 m 3.742,-0.75 h 2.254 v 0.75 h -2.254 m 3.742,-0.75 h 2.254 v 0.75 h -2.254 m 3.742,-0.75 h 2.254 v 0.75 h -2.254 m 3.743,-0.75 h 2.253 v 0.75 h -2.253 m 3.742,-0.75 h 2.25 v 0.75 h -2.25 m 3.742,-0.75 h 2.25 v 0.75 h -2.25 m 3.742,-0.75 h 2.25 v 0.75 h -2.25 m 3.742,-0.75 h 2.25 v 0.75 h -2.25 m 3.743,-0.75 h 2.25 v 0.75 h -2.25 m 3.742,-0.75 h 2.25 v 0.75 h -2.25 m 3.742,-0.75 h 2.25 v 0.75 h -2.25 m 3.738,-0.75 h 2.254 v 0.75 h -2.254 m 3.742,-0.75 h 2.254 v 0.75 h -2.254 m 3.743,-0.75 h 2.253 v 0.75 h -2.253 m 3.742,-0.75 h 2.254 v 0.75 h -2.254 m 3.742,-0.75 h 2.254 v 0.75 h -2.254 m 3.742,-0.75 h 2.254 v 0.75 h -2.254 m 3.742,-0.75 h 2.254 v 0.75 h -2.254 m 3.743,-0.75 h 2.25 v 0.75 h -2.25 m 3.742,-0.75 h 2.25 v 0.75 h -2.25 m 3.742,-0.75 h 2.25 v 0.75 h -2.25 m 3.742,-0.75 h 2.25 v 0.75 h -2.25 m 3.742,-0.75 h 2.25 v 0.75 h -2.25 m 3.742,-0.75 h 2.25 v 0.75 h -2.25 m 3.743,-0.75 h 2.25 v 0.75 h -2.25 m 3.738,-0.75 h 2.254 v 0.75 h -2.254 m 3.742,-0.75 h 2.254 v 0.75 h -2.254 m 3.742,-0.75 h 2.254 v 0.75 h -2.254 m 3.742,-0.75 h 2.254 v 0.75 h -2.254 m 3.743,-0.75 h 2.254 v 0.75 h -2.254 m 3.742,-0.75 h 2.254 v 0.75 h -2.254 m 3.742,-0.75 h 2.254 v 0.75 h -2.254 m 3.742,-0.75 h 2.25 v 0.75 h -2.25 m 3.742,-0.75 h 2.25 v 0.75 h -2.25 m 3.743,-0.75 h 2.25 v 0.75 h -2.25 m 3.742,-0.75 h 2.25 v 0.75 h -2.25 m 3.742,-0.75 h 2.25 v 0.75 h -2.25 m 3.742,-0.75 h 2.25 v 0.75 h -2.25 m 3.742,-0.75 h 2.25 v 0.75 h -2.25 m 3.739,-0.75 h 2.254 v 0.75 h -2.254 m 3.742,-0.75 h 2.254 v 0.75 h -2.254 m 3.742,-0.75 h 2.254 v 0.75 H 507.5 m 3.742,-0.75 h 2.254 v 0.75 h -2.254 m 3.742,-0.75 h 2.254 v 0.75 h -2.254 m 3.743,-0.75 h 2.253 v 0.75 h -2.253 m 3.742,-0.75 h 2.254 v 0.75 h -2.254"/><path style="fill:#ff0000;fill-opacity:1;fill-rule:nonzero;stroke:none" d="m 524.723,146.383 v 2.25 h -0.754 v -2.25 m 0.754,3.695 v 2.25 h -0.754 v -2.25 m 0.754,3.695 v 2.25 h -0.754 v -2.25 m 0.754,3.696 v 2.25 h -0.754 v -2.25 m 0.754,3.695 v 2.25 h -0.754 v -2.25 m 0.754,3.695 v 2.254 h -0.754 v -2.254 m 0.754,3.696 v 2.254 h -0.754 v -2.254 m 0.754,3.695 v 2.254 h -0.754 v -2.254 m 0.754,3.695 v 2.254 h -0.754 v -2.254 m 0.754,3.696 v 2.254 h -0.754 v -2.254 m 0.754,3.695 v 2.254 h -0.754 v -2.254 m 0.754,3.699 v 2.25 h -0.754 v -2.25 m 0.754,3.695 v 2.25 h -0.754 v -2.25 m 0.754,3.696 v 2.25 h -0.754 v -2.25"/><path style="fill:#ff0000;fill-opacity:1;fill-rule:nonzero;stroke:none" d="m 33.031,146.383 v 2.25 h -0.754 v -2.25 m 0.754,3.695 v 2.25 h -0.754 v -2.25 m 0.754,3.695 v 2.25 h -0.754 v -2.25 m 0.754,3.696 v 2.25 h -0.754 v -2.25 m 0.754,3.695 v 2.25 h -0.754 v -2.25 m 0.754,3.695 v 2.254 h -0.754 v -2.254 m 0.754,3.696 v 2.254 h -0.754 v -2.254 m 0.754,3.695 v 2.254 h -0.754 v -2.254 m 0.754,3.695 v 2.254 h -0.754 v -2.254 m 0.754,3.696 v 2.254 h -0.754 v -2.254 m 0.754,3.695 v 2.254 h -0.754 v -2.254 m 0.754,3.699 v 2.25 h -0.754 v -2.25 m 0.754,3.695 v 2.25 h -0.754 v -2.25 m 0.754,3.696 v 2.25 h -0.754 v -2.25"/><text style="font-style:italic;font-variant:normal;font-size:18.016px;font-family:'IBM Plex Sans Text';-inkscape-font-specification:IBMPlexSans-TextItalic;writing-mode:lr-tb;fill:#8b0000;fill-opacity:1;fill-rule:nonzero;stroke:none" transform="translate(33.018,166.65)"><tspan x="0 7.279 11.152 21.673 32.177 38.753 47.995 56.463 65.038 74.281 78.532 89.036 98.278 102.53 117.916 127.158 135.626 144.201 154.723 163.965 173.207 179.873 184.666 193.908 198.16 207.402 215.654 221.545 225.797 230.589 240.678 249.344 259.865 264.658 269.45 279.953 289.196 293.447 302.149 312.671 319.337 323.588 332.831 337.497 342.289 351.532 355.783 364.485 374.376 384.645 390.537 395.329 404.571 414.84 420.732 424.983 435.181">L’adresse de messagerie est invalide car elle contient un</tspan><tspan y="24.022" x="0 8.702 19.223 25.727 36.249 45.076 50.878 60.12 66.696 75.938 80.19 84.982 95.251 101.053 110.295 116.799 127.302 132.095 137.986">caractère interdit.</tspan></text><path style="fill:#d3d3d3;fill-opacity:1;fill-rule:nonzero;stroke:none" d="m 32.277,214.691 h 99.09 v 33.781 h -99.09 z"/><path style="fill:#f0f0f0;fill-opacity:1;fill-rule:nonzero;stroke:none" d="m 32.277,214.691 h 99.09 v 3.754 h -99.09 z"/><path style="fill:#9c9c9c;fill-opacity:1;fill-rule:nonzero;stroke:none" d="m 32.277,244.719 h 99.09 v 3.754 h -99.09 z"/><path style="fill:#9c9c9c;fill-opacity:1;fill-rule:nonzero;stroke:none" d="m 127.613,218.445 v 30.028 h 3.754 v -33.782"/><path style="fill:#f0f0f0;fill-opacity:1;fill-rule:nonzero;stroke:none" d="m 32.277,214.691 v 33.782 l 3.754,-3.754 v -30.028"/></g></g></g></g></g><g><g clip-path="url(#clipPath134)"><g><g><g clip-path="url(#clipPath144)"><g><text style="font-variant:normal;font-weight:normal;font-size:18.016px;font-family:'IBM Plex Sans';-inkscape-font-specification:IBMPlexSans;writing-mode:lr-tb;fill:#000000;fill-opacity:1;fill-rule:nonzero;stroke:none" transform="translate(40.525,237.964)"><tspan x="0 10.467 14.827 24.448 34.897 44.986 55.22 65.453 75.344">S'abonner</tspan></text></g></g></g></g></g></g><g><g clip-path="url(#clipPath158)"><g><g><g clip-path="url(#clipPath168)"><g><text style="font-variant:normal;font-weight:normal;font-size:18.016px;font-family:'IBM Plex Sans';-inkscape-font-specification:IBMPlexSans;writing-mode:lr-tb;fill:#000000;fill-opacity:1;fill-rule:nonzero;stroke:none" transform="translate(105.786,136.623)"><tspan x="0 4.9 14.989 21.511 31.402 47.13 57.94 62.444 72.893 81.667 91.9 107.629 123.681 133.356 142.49 152.111 167.839 178.288 183.188 192.719 197.439 206.393 216.482">lorem+ipsum@example.com</tspan></text></g></g></g></g></g></g></g></svg>
