<?xml version="1.0" encoding="utf-8"?>
<svg xmlns:dc="http://purl.org/dc/elements/1.1/" xmlns:cc="http://creativecommons.org/ns#" xmlns:rdf="http://www.w3.org/1999/02/22-rdf-syntax-ns#" xmlns:svg="http://www.w3.org/2000/svg" xmlns="http://www.w3.org/2000/svg" viewBox="0 0 742.66656 535.48065" height="535.481" width="742.667" xml:space="preserve" version="1.1"><defs><clipPath id="clipPath22" clipPathUnits="userSpaceOnUse"><path d="M 0,0 H 557 V 402 H 0 Z"/></clipPath><clipPath id="clipPath128" clipPathUnits="userSpaceOnUse"><path d="M 36.031,61.556 H 216.945 V 36.033 H 36.031 Z"/></clipPath><clipPath id="clipPath138" clipPathUnits="userSpaceOnUse"><path d="M 40,42 H 212 V 56 H 40 Z"/></clipPath><clipPath id="clipPath152" clipPathUnits="userSpaceOnUse"><path d="M 30.402,229.329 H 49.918 V 209.813 H 30.402 Z"/></clipPath><clipPath id="clipPath162" clipPathUnits="userSpaceOnUse"><path d="m 30,210 h 20 v 20 H 30 Z"/></clipPath><clipPath id="clipPath180" clipPathUnits="userSpaceOnUse"><path d="M 30.402,145.255 H 49.918 V 125.739 H 30.402 Z"/></clipPath><clipPath id="clipPath190" clipPathUnits="userSpaceOnUse"><path d="m 30,126 h 20 v 20 H 30 Z"/></clipPath><clipPath id="clipPath208" clipPathUnits="userSpaceOnUse"><path d="M 30.402,103.216 H 49.918 V 83.7 H 30.402 Z"/></clipPath><clipPath id="clipPath218" clipPathUnits="userSpaceOnUse"><path d="m 30,84 h 20 v 20 H 30 Z"/></clipPath></defs><g transform="matrix(1.333,0,0,-1.333,0,535.481)"><g><g transform="translate(0,-0.39)"><g><g clip-path="url(#clipPath22)"><g><path style="fill:#d3d3d3;fill-opacity:1;fill-rule:nonzero;stroke:none" d="M 0,402 H 557 V 0.391 H 0 Z"/><path style="fill:#eeeeee;fill-opacity:1;fill-rule:nonzero;stroke:none" d="m 0,402 h 557 v -2.254 H 0 Z"/><path style="fill:#9a9a9a;fill-opacity:1;fill-rule:nonzero;stroke:none" d="M 0,2.641 H 557 V 0.391 H 0 Z"/><path style="fill:#9a9a9a;fill-opacity:1;fill-rule:nonzero;stroke:none" d="M 554.746,399.746 V 0.391 H 557 V 402"/><path style="fill:#eeeeee;fill-opacity:1;fill-rule:nonzero;stroke:none" d="M 0,402 V 0.391 l 2.254,2.25 V 402"/><path style="fill:#00008b;fill-opacity:1;fill-rule:nonzero;stroke:none" d="M 5.254,396.746 H 551.746 V 358.461 H 5.254 Z"/><path style="fill:#d3d3d3;fill-opacity:1;fill-rule:nonzero;stroke:none" d="M 5.254,358.461 H 551.746 V 315.672 H 5.254 Z"/><path style="fill:#ffffff;fill-opacity:1;fill-rule:nonzero;stroke:none" d="M 5.254,315.672 H 551.746 V 5.645 H 5.254 Z"/><path style="fill:#9a9a9a;fill-opacity:1;fill-rule:nonzero;stroke:none" d="m 5.254,315.672 h 546.492 v -2.25 H 5.254 Z"/><path style="fill:#eeeeee;fill-opacity:1;fill-rule:nonzero;stroke:none" d="M 5.254,7.895 H 551.746 V 5.645 H 5.254 Z"/><path style="fill:#eeeeee;fill-opacity:1;fill-rule:nonzero;stroke:none" d="M 549.492,313.422 V 5.645 h 2.254 v 310.027"/><path style="fill:#9a9a9a;fill-opacity:1;fill-rule:nonzero;stroke:none" d="M 5.254,315.672 V 5.645 l 2.254,2.25 v 307.777"/><path style="fill:#d3d3d3;fill-opacity:1;fill-rule:nonzero;stroke:none" d="m 517.215,392.242 h 30.027 v -30.027 h -30.027 z"/><path style="fill:#ffffff;fill-opacity:1;fill-rule:nonzero;stroke:none" d="m 517.215,392.242 h 30.027 v -3.754 h -30.027 z"/><path style="fill:#ababab;fill-opacity:1;fill-rule:nonzero;stroke:none" d="m 517.215,365.969 h 30.027 v -3.754 h -30.027 z"/><path style="fill:#ababab;fill-opacity:1;fill-rule:nonzero;stroke:none" d="m 543.488,388.488 v -26.273 h 3.754 v 30.027"/><path style="fill:#ffffff;fill-opacity:1;fill-rule:nonzero;stroke:none" d="m 517.215,392.242 v -30.027 l 3.754,3.754 v 26.273"/><text style="font-variant:normal;font-weight:normal;font-size:18.016px;font-family:'DejaVu Sans';-inkscape-font-specification:DejaVuSans;writing-mode:lr-tb;fill:#000000;fill-opacity:1;fill-rule:nonzero;stroke:none" transform="matrix(1,0,0,-1,524.979,371.222)"><tspan>✕</tspan></text><text style="font-variant:normal;font-weight:600;font-size:18.016px;font-family:'IBM Plex Sans SemiBold';-inkscape-font-specification:IBMPlexSans-SemiBold;writing-mode:lr-tb;fill:#ffffff;fill-opacity:1;fill-rule:nonzero;stroke:none" transform="matrix(1,0,0,-1,9.501,370.472)"><tspan x="0 15.007 25.529 36.032 40.536 51.058 60.805 71.326 76.569 86.333 93.09 97.594 104.368 108.854 120.87 132.887 145.643 150.147 161.407 168.92 179.423">Mon panier | BAD SITE</tspan></text><text style="font-variant:normal;font-weight:normal;font-size:22.52px;font-family:'IBM Plex Sans';-inkscape-font-specification:IBMPlexSans;writing-mode:lr-tb;fill:#000000;fill-opacity:1;fill-rule:nonzero;stroke:none" transform="matrix(1,0,0,-1,13.5,328.434)"><tspan>←</tspan></text><text style="font-variant:normal;font-weight:normal;font-size:22.52px;font-family:'IBM Plex Sans';-inkscape-font-specification:IBMPlexSans;writing-mode:lr-tb;fill:#000000;fill-opacity:1;fill-rule:nonzero;stroke:none" transform="matrix(1,0,0,-1,42.777,328.434)"><tspan>→</tspan></text><text style="font-variant:normal;font-weight:normal;font-size:22.52px;font-family:'DejaVu Sans';-inkscape-font-specification:DejaVuSans;writing-mode:lr-tb;fill:#000000;fill-opacity:1;fill-rule:nonzero;stroke:none" transform="matrix(1,0,0,-1,72.053,328.434)"><tspan>⟳</tspan></text><path style="fill:#ffffff;fill-opacity:1;fill-rule:nonzero;stroke:none" d="m 102.59,325.68 v 22.773 c 0,0.465 0.09,0.91 0.265,1.34 0.18,0.43 0.434,0.809 0.762,1.137 0.328,0.328 0.707,0.582 1.137,0.761 0.43,0.176 0.875,0.266 1.34,0.266 h 404.863 c 0.465,0 0.914,-0.09 1.344,-0.266 0.429,-0.179 0.808,-0.433 1.137,-0.761 0.328,-0.328 0.582,-0.707 0.757,-1.137 0.18,-0.43 0.27,-0.875 0.27,-1.34 V 325.68 c 0,-0.465 -0.09,-0.91 -0.27,-1.34 -0.175,-0.43 -0.429,-0.809 -0.757,-1.137 -0.329,-0.328 -0.708,-0.582 -1.137,-0.762 -0.43,-0.175 -0.879,-0.265 -1.344,-0.265 H 106.094 c -0.465,0 -0.91,0.09 -1.34,0.265 -0.43,0.18 -0.809,0.434 -1.137,0.762 -0.328,0.328 -0.582,0.707 -0.762,1.137 -0.175,0.43 -0.265,0.875 -0.265,1.34 z"/><g transform="matrix(1,0,0,-1,0,402)"><path style="fill:none;stroke:#808080;stroke-width:0.751;stroke-linecap:butt;stroke-linejoin:miter;stroke-miterlimit:10;stroke-dasharray:none;stroke-opacity:1" d="M 102.469,76.32 V 53.547 c 0,-0.481 0.09,-0.942 0.273,-1.387 0.184,-0.445 0.446,-0.836 0.789,-1.176 0.34,-0.343 0.731,-0.605 1.176,-0.789 0.445,-0.183 0.906,-0.277 1.387,-0.277 h 404.863 c 0.484,0 0.945,0.094 1.391,0.277 0.445,0.184 0.836,0.446 1.175,0.789 0.34,0.34 0.602,0.731 0.789,1.176 0.184,0.445 0.274,0.906 0.274,1.387 V 76.32 c 0,0.481 -0.09,0.942 -0.274,1.387 -0.187,0.445 -0.449,0.836 -0.789,1.176 -0.339,0.34 -0.73,0.605 -1.175,0.789 -0.446,0.183 -0.907,0.273 -1.391,0.273 H 106.094 c -0.481,0 -0.942,-0.09 -1.387,-0.273 -0.445,-0.184 -0.836,-0.449 -1.176,-0.789 -0.343,-0.34 -0.605,-0.731 -0.789,-1.176 -0.183,-0.445 -0.273,-0.906 -0.273,-1.387 z"/></g><text style="font-variant:normal;font-weight:normal;font-size:16.215px;font-family:'IBM Plex Sans';-inkscape-font-specification:IBMPlexSans;writing-mode:lr-tb;fill:#000000;fill-opacity:1;fill-rule:nonzero;stroke:none" transform="matrix(1,0,0,-1,111.076,330.686)"><tspan x="0 9.761 15.761 21.776 31.537 39.791 44.298 48.044 54.059 63.058 71.279 80.327 94.596 104.357 108.848 117.864 122.371 130.624 139.64 153.892 159.908 168.161 177.922 186.938 195.191 204.19 213.205 222.966">https://example.com/checkout</tspan></text><text style="font-variant:normal;font-weight:normal;font-size:22.52px;font-family:'DejaVu Sans';-inkscape-font-specification:DejaVuSans;writing-mode:lr-tb;fill:#000000;fill-opacity:1;fill-rule:nonzero;stroke:none" transform="matrix(1,0,0,-1,523.231,328.434)"><tspan>☰</tspan></text><text style="font-variant:normal;font-weight:600;font-size:28.023px;font-family:'IBM Plex Sans SemiBold';-inkscape-font-specification:IBMPlexSans-SemiBold;writing-mode:lr-tb;fill:#000000;fill-opacity:1;fill-rule:nonzero;stroke:none" transform="matrix(1,0,0,-1,32.021,260.123)"><tspan x="0 22.53 38.307 54.784 61.566 78.071 93.848 110.325 117.863 133.64">Mon panier</tspan></text><text style="font-variant:normal;font-weight:normal;font-size:18.016px;font-family:'IBM Plex Sans';-inkscape-font-specification:IBMPlexSans;writing-mode:lr-tb;fill:#000000;fill-opacity:1;fill-rule:nonzero;stroke:none" transform="matrix(1,0,0,-1,58.295,215.082)"><tspan x="0 9.026 18.773 25.529 35.276 51.058 55.562 60.066 70.569 79.577 90.081 105.809 110.349 120.87 130.635 135.878 145.643 152.399 156.903 165.911 170.415 176.414 180.918 190.683 206.411 216.212">Lorem ipsum dolor sit amet</tspan></text><text style="font-variant:normal;font-weight:600;font-size:18.016px;font-family:'IBM Plex Sans SemiBold';-inkscape-font-specification:IBMPlexSans-SemiBold;writing-mode:lr-tb;fill:#000000;fill-opacity:1;fill-rule:nonzero;stroke:none" transform="matrix(1,0,0,-1,32.021,173.045)"><tspan x="0 12.755 23.277 33.78 42.77 47.292 57.057 66.822 77.325 87.829 96.819 101.341 111.106 116.366 126.87 137.391 144.129 153.894 158.398 168.163 172.667 182.432 192.935 199.673 206.447 216.212 220.716 231.22 240.984 251.488 256.748 266.513 273.269 277.773 288.277 298.042 302.546 311.536 322.057 332.579 342.325 349.081 358.071 362.611 373.115 379.114 385.132 391.888 401.634 410.625 415.147">Nous avons ajouté à votre panier de supers offres :</tspan></text><text style="font-variant:normal;font-weight:normal;font-size:18.016px;font-family:'IBM Plex Sans';-inkscape-font-specification:IBMPlexSans;writing-mode:lr-tb;fill:#000000;fill-opacity:1;fill-rule:nonzero;stroke:none" transform="matrix(1,0,0,-1,58.295,131.007)"><tspan x="0 10.503 21.025 25.529 35.276 45.797 54.805 59.309 69.813 79.577 84.081 93.846 103.593 110.349 120.114 130.617 136.635 141.139 150.903 155.407 164.416 174.919 185.422 195.944 201.187 210.951 226.679 236.48 246.984 253.001 262.748 267.252 274.008 283.773 288.277 294.312 304.798 315.301 331.822 336.326 346.829 356.594 361.098 367.854 377.619 388.122 398.644 407.652 413.651 418.155 427.92 438.424 442.928 448.188">10 ans de garantie supplémentaire (25% de réduction !)</tspan><tspan y="42.038" x="0 10.503 15.007 30.736 40.536 45.04 54.049 58.553 69.074 73.578 83.325 93.846 103.593 114.114 124.618 134.383 150.111 159.912 170.415 176.414 180.918 189.926 199.691 210.195 219.203 223.725 233.472 243.993 253.74 263.505 273.269 283.016 298.744 308.545 319.066 325.066 329.57 339.335 343.839 354.342 364.107 370.106 376.862 386.627 391.131 406.895 416.66 425.668 436.172">3 mois d’abonnement sans engagement à notre WebTV</tspan></text><path style="fill:#d3d3d3;fill-opacity:1;fill-rule:nonzero;stroke:none" d="M 32.277,65.699 H 220.699 V 32.668 H 32.277 Z"/><path style="fill:#f0f0f0;fill-opacity:1;fill-rule:nonzero;stroke:none" d="M 32.277,65.699 H 220.699 V 61.945 H 32.277 Z"/><path style="fill:#9c9c9c;fill-opacity:1;fill-rule:nonzero;stroke:none" d="M 32.277,36.422 H 220.699 V 32.668 H 32.277 Z"/><path style="fill:#9c9c9c;fill-opacity:1;fill-rule:nonzero;stroke:none" d="M 216.945,61.945 V 32.668 h 3.754 v 33.031"/><path style="fill:#f0f0f0;fill-opacity:1;fill-rule:nonzero;stroke:none" d="M 32.277,65.699 V 32.668 l 3.754,3.754 v 29.277"/></g></g></g></g></g><g><g clip-path="url(#clipPath128)"><g transform="translate(0,-0.39)"><g><g clip-path="url(#clipPath138)"><g><text style="font-variant:normal;font-weight:normal;font-size:18.016px;font-family:'IBM Plex Sans';-inkscape-font-specification:IBMPlexSans;writing-mode:lr-tb;fill:#000000;fill-opacity:1;fill-rule:nonzero;stroke:none" transform="matrix(1,0,0,-1,40.525,42.427)"><tspan x="0 10.503 20.268 25.529 30.033 40.536 50.301 57.057 61.561 66.822 76.569 81.073 90.081 99.846 115.574 131.374 141.139 151.642 162.164">Valider la commande</tspan></text></g></g></g></g></g></g><g><g clip-path="url(#clipPath152)"><g transform="translate(0,-0.39)"><g><g clip-path="url(#clipPath162)"><g><path style="fill:#ffffff;fill-opacity:1;fill-rule:nonzero;stroke:none" d="m 30.703,213.504 v 12.914 c 0,0.398 0.074,0.781 0.227,1.148 0.152,0.368 0.371,0.692 0.652,0.973 0.281,0.281 0.606,0.5 0.973,0.652 0.371,0.153 0.754,0.231 1.152,0.231 h 12.91 c 0.399,0 0.781,-0.078 1.149,-0.231 0.367,-0.152 0.691,-0.371 0.972,-0.652 0.285,-0.281 0.5,-0.605 0.653,-0.973 0.152,-0.367 0.23,-0.75 0.23,-1.148 v -12.914 c 0,-0.395 -0.078,-0.781 -0.23,-1.149 -0.153,-0.367 -0.368,-0.691 -0.653,-0.972 -0.281,-0.281 -0.605,-0.5 -0.972,-0.653 -0.368,-0.152 -0.75,-0.226 -1.149,-0.226 h -12.91 c -0.398,0 -0.781,0.074 -1.152,0.226 -0.367,0.153 -0.692,0.372 -0.973,0.653 -0.281,0.281 -0.5,0.605 -0.652,0.972 -0.153,0.368 -0.227,0.754 -0.227,1.149 z"/><path style="fill:#0075ff;fill-opacity:1;fill-rule:nonzero;stroke:none" d="m 30.402,213.207 v 13.512 c 0,0.398 0.075,0.781 0.227,1.148 0.156,0.367 0.371,0.692 0.652,0.973 0.281,0.281 0.606,0.5 0.977,0.652 0.367,0.153 0.75,0.227 1.148,0.227 h 13.512 c 0.398,0 0.781,-0.074 1.148,-0.227 0.368,-0.152 0.692,-0.371 0.973,-0.652 0.281,-0.281 0.5,-0.606 0.652,-0.973 0.153,-0.367 0.227,-0.75 0.227,-1.148 v -13.512 c 0,-0.398 -0.074,-0.781 -0.227,-1.152 -0.152,-0.367 -0.371,-0.692 -0.652,-0.973 -0.281,-0.281 -0.605,-0.5 -0.973,-0.652 -0.367,-0.153 -0.75,-0.227 -1.148,-0.227 H 33.406 c -0.398,0 -0.781,0.074 -1.148,0.227 -0.371,0.152 -0.696,0.371 -0.977,0.652 -0.281,0.281 -0.496,0.606 -0.652,0.973 -0.152,0.371 -0.227,0.754 -0.227,1.152 z"/><g transform="matrix(1,0,0,-1,0,402)"><path style="fill:none;stroke:#ffffff;stroke-width:1.501;stroke-linecap:butt;stroke-linejoin:miter;stroke-miterlimit:10;stroke-dasharray:none;stroke-opacity:1" d="m 34.305,182.039 3.906,3.902 7.805,-9.757"/></g></g></g></g></g></g></g><g><g clip-path="url(#clipPath180)"><g transform="translate(0,-0.39)"><g><g clip-path="url(#clipPath190)"><g><path style="fill:#ffffff;fill-opacity:1;fill-rule:nonzero;stroke:none" d="m 30.703,129.43 v 12.914 c 0,0.394 0.074,0.781 0.227,1.148 0.152,0.367 0.371,0.692 0.652,0.973 0.281,0.281 0.606,0.5 0.973,0.652 0.371,0.153 0.754,0.227 1.152,0.227 h 12.91 c 0.399,0 0.781,-0.074 1.149,-0.227 0.367,-0.152 0.691,-0.371 0.972,-0.652 0.285,-0.281 0.5,-0.606 0.653,-0.973 0.152,-0.367 0.23,-0.754 0.23,-1.148 V 129.43 c 0,-0.399 -0.078,-0.782 -0.23,-1.149 -0.153,-0.367 -0.368,-0.691 -0.653,-0.972 -0.281,-0.282 -0.605,-0.5 -0.972,-0.653 -0.368,-0.152 -0.75,-0.23 -1.149,-0.23 h -12.91 c -0.398,0 -0.781,0.078 -1.152,0.23 -0.367,0.153 -0.692,0.371 -0.973,0.653 -0.281,0.281 -0.5,0.605 -0.652,0.972 -0.153,0.367 -0.227,0.75 -0.227,1.149 z"/><path style="fill:#0075ff;fill-opacity:1;fill-rule:nonzero;stroke:none" d="m 30.402,129.129 v 13.512 c 0,0.398 0.075,0.781 0.227,1.152 0.156,0.367 0.371,0.691 0.652,0.973 0.281,0.281 0.606,0.5 0.977,0.652 0.367,0.152 0.75,0.227 1.148,0.227 h 13.512 c 0.398,0 0.781,-0.075 1.148,-0.227 0.368,-0.152 0.692,-0.371 0.973,-0.652 0.281,-0.282 0.5,-0.606 0.652,-0.973 0.153,-0.371 0.227,-0.754 0.227,-1.152 v -13.512 c 0,-0.399 -0.074,-0.781 -0.227,-1.149 -0.152,-0.367 -0.371,-0.691 -0.652,-0.972 -0.281,-0.281 -0.605,-0.5 -0.973,-0.653 -0.367,-0.152 -0.75,-0.226 -1.148,-0.226 H 33.406 c -0.398,0 -0.781,0.074 -1.148,0.226 -0.371,0.153 -0.696,0.372 -0.977,0.653 -0.281,0.281 -0.496,0.605 -0.652,0.972 -0.152,0.368 -0.227,0.75 -0.227,1.149 z"/><g transform="matrix(1,0,0,-1,0,402)"><path style="fill:none;stroke:#ffffff;stroke-width:1.501;stroke-linecap:butt;stroke-linejoin:miter;stroke-miterlimit:10;stroke-dasharray:none;stroke-opacity:1" d="m 34.305,266.113 3.906,3.903 7.805,-9.758"/></g></g></g></g></g></g></g><g><g clip-path="url(#clipPath208)"><g transform="translate(0,-0.39)"><g><g clip-path="url(#clipPath218)"><g><path style="fill:#ffffff;fill-opacity:1;fill-rule:nonzero;stroke:none" d="m 30.703,87.395 v 12.91 c 0,0.398 0.074,0.781 0.227,1.148 0.152,0.367 0.371,0.692 0.652,0.973 0.281,0.285 0.606,0.5 0.973,0.652 0.371,0.152 0.754,0.231 1.152,0.231 h 12.91 c 0.399,0 0.781,-0.079 1.149,-0.231 0.367,-0.152 0.691,-0.367 0.972,-0.652 0.285,-0.281 0.5,-0.606 0.653,-0.973 0.152,-0.367 0.23,-0.75 0.23,-1.148 v -12.91 c 0,-0.399 -0.078,-0.782 -0.23,-1.153 -0.153,-0.367 -0.368,-0.691 -0.653,-0.972 -0.281,-0.282 -0.605,-0.5 -0.972,-0.653 -0.368,-0.152 -0.75,-0.226 -1.149,-0.226 h -12.91 c -0.398,0 -0.781,0.074 -1.152,0.226 -0.367,0.153 -0.692,0.371 -0.973,0.653 -0.281,0.281 -0.5,0.605 -0.652,0.972 -0.153,0.371 -0.227,0.754 -0.227,1.153 z"/><path style="fill:#0075ff;fill-opacity:1;fill-rule:nonzero;stroke:none" d="m 30.402,87.094 v 13.511 c 0,0.399 0.075,0.782 0.227,1.149 0.156,0.367 0.371,0.691 0.652,0.973 0.281,0.281 0.606,0.5 0.977,0.652 0.367,0.152 0.75,0.226 1.148,0.226 h 13.512 c 0.398,0 0.781,-0.074 1.148,-0.226 0.368,-0.152 0.692,-0.371 0.973,-0.652 0.281,-0.282 0.5,-0.606 0.652,-0.973 0.153,-0.367 0.227,-0.75 0.227,-1.149 V 87.094 c 0,-0.399 -0.074,-0.782 -0.227,-1.153 -0.152,-0.367 -0.371,-0.691 -0.652,-0.972 -0.281,-0.281 -0.605,-0.5 -0.973,-0.653 -0.367,-0.152 -0.75,-0.226 -1.148,-0.226 H 33.406 c -0.398,0 -0.781,0.074 -1.148,0.226 -0.371,0.153 -0.696,0.372 -0.977,0.653 -0.281,0.281 -0.496,0.605 -0.652,0.972 -0.152,0.371 -0.227,0.754 -0.227,1.153 z"/><g transform="matrix(1,0,0,-1,0,402)"><path style="fill:none;stroke:#ffffff;stroke-width:1.501;stroke-linecap:butt;stroke-linejoin:miter;stroke-miterlimit:10;stroke-dasharray:none;stroke-opacity:1" d="m 34.305,308.152 3.906,3.903 7.805,-9.758"/></g></g></g></g></g></g></g></g></svg>
