<?xml version="1.0" encoding="UTF-8" standalone="no"?>
<svg
   xmlns:dc="http://purl.org/dc/elements/1.1/"
   xmlns:cc="http://creativecommons.org/ns#"
   xmlns:rdf="http://www.w3.org/1999/02/22-rdf-syntax-ns#"
   xmlns:svg="http://www.w3.org/2000/svg"
   xmlns="http://www.w3.org/2000/svg"
   xmlns:sodipodi="http://sodipodi.sourceforge.net/DTD/sodipodi-0.dtd"
   xmlns:inkscape="http://www.inkscape.org/namespaces/inkscape"
   sodipodi:docname="bp001-bs.html.svg"
   inkscape:version="1.0 (4035a4f, 2020-05-01)"
   id="svg8"
   version="1.1"
   viewBox="0 0 209.90277 149.65221"
   height="149.65221mm"
   width="209.90277mm">
  <defs
     id="defs2">
    <clipPath
       clipPathUnits="userSpaceOnUse"
       id="clipPath857">
      <path
         d="m 591,841 h 4 v -4 h -4 z"
         id="path855" />
    </clipPath>
    <clipPath
       clipPathUnits="userSpaceOnUse"
       id="clipPath863">
      <path
         d="M 595,841 V 416.789 l -4,4 V 837 Z"
         id="path861" />
    </clipPath>
    <clipPath
       clipPathUnits="userSpaceOnUse"
       id="clipPath873">
      <path
         d="m 591,841 h 4 v -4 h -4 z"
         id="path871" />
    </clipPath>
    <clipPath
       clipPathUnits="userSpaceOnUse"
       id="clipPath879">
      <path
         d="m 0,841 h 595 l -4,-4 H 4 Z"
         id="path877" />
    </clipPath>
    <clipPath
       clipPathUnits="userSpaceOnUse"
       id="clipPath893">
      <path
         d="m 0,420.789 h 4 v -4 H 0 Z"
         id="path891" />
    </clipPath>
    <clipPath
       clipPathUnits="userSpaceOnUse"
       id="clipPath899">
      <path
         d="M 0,416.789 V 841 l 4,-4 V 420.789 Z"
         id="path897" />
    </clipPath>
    <clipPath
       clipPathUnits="userSpaceOnUse"
       id="clipPath909">
      <path
         d="m 0,420.789 h 4 v -4 H 0 Z"
         id="path907" />
    </clipPath>
    <clipPath
       clipPathUnits="userSpaceOnUse"
       id="clipPath915">
      <path
         d="M 595,416.789 H 0 l 4,4 h 587 z"
         id="path913" />
    </clipPath>
    <clipPath
       clipPathUnits="userSpaceOnUse"
       id="clipPath925">
      <path
         d="m 4,841 h 587 v -4 H 4 Z"
         id="path923" />
    </clipPath>
    <clipPath
       clipPathUnits="userSpaceOnUse"
       id="clipPath935">
      <path
         d="m 591,837 h 4 V 420.789 h -4 z"
         id="path933" />
    </clipPath>
    <clipPath
       clipPathUnits="userSpaceOnUse"
       id="clipPath945">
      <path
         d="m 4,420.789 h 587 v -4 H 4 Z"
         id="path943" />
    </clipPath>
    <clipPath
       clipPathUnits="userSpaceOnUse"
       id="clipPath955">
      <path
         d="M 0,837 H 4 V 420.789 H 0 Z"
         id="path953" />
    </clipPath>
    <clipPath
       clipPathUnits="userSpaceOnUse"
       id="clipPath977">
      <path
         d="m 583,833 h 4 v -4 h -4 z"
         id="path975" />
    </clipPath>
    <clipPath
       clipPathUnits="userSpaceOnUse"
       id="clipPath983">
      <path
         d="m 587,833 v -30 l -4,4 v 22 z"
         id="path981" />
    </clipPath>
    <clipPath
       clipPathUnits="userSpaceOnUse"
       id="clipPath993">
      <path
         d="m 583,833 h 4 v -4 h -4 z"
         id="path991" />
    </clipPath>
    <clipPath
       clipPathUnits="userSpaceOnUse"
       id="clipPath999">
      <path
         d="m 557,833 h 30 l -4,-4 h -22 z"
         id="path997" />
    </clipPath>
    <clipPath
       clipPathUnits="userSpaceOnUse"
       id="clipPath1013">
      <path
         d="m 557,807 h 4 v -4 h -4 z"
         id="path1011" />
    </clipPath>
    <clipPath
       clipPathUnits="userSpaceOnUse"
       id="clipPath1019">
      <path
         d="m 557,803 v 30 l 4,-4 v -22 z"
         id="path1017" />
    </clipPath>
    <clipPath
       clipPathUnits="userSpaceOnUse"
       id="clipPath1029">
      <path
         d="m 557,807 h 4 v -4 h -4 z"
         id="path1027" />
    </clipPath>
    <clipPath
       clipPathUnits="userSpaceOnUse"
       id="clipPath1035">
      <path
         d="m 587,803 h -30 l 4,4 h 22 z"
         id="path1033" />
    </clipPath>
    <clipPath
       clipPathUnits="userSpaceOnUse"
       id="clipPath1045">
      <path
         d="m 561,833 h 22 v -4 h -22 z"
         id="path1043" />
    </clipPath>
    <clipPath
       clipPathUnits="userSpaceOnUse"
       id="clipPath1055">
      <path
         d="m 583,829 h 4 v -22 h -4 z"
         id="path1053" />
    </clipPath>
    <clipPath
       clipPathUnits="userSpaceOnUse"
       id="clipPath1065">
      <path
         d="m 561,807 h 22 v -4 h -22 z"
         id="path1063" />
    </clipPath>
    <clipPath
       clipPathUnits="userSpaceOnUse"
       id="clipPath1075">
      <path
         d="m 557,829 h 4 v -22 h -4 z"
         id="path1073" />
    </clipPath>
    <clipPath
       clipPathUnits="userSpaceOnUse"
       id="clipPath1085">
      <path
         d="m 562,832 h 20 v -28 h -20 z"
         id="path1083" />
    </clipPath>
    <clipPath
       clipPathUnits="userSpaceOnUse"
       id="clipPath1097">
      <path
         d="M 6,832 H 216.5 V 804 H 6 Z"
         id="path1095" />
    </clipPath>
    <clipPath
       clipPathUnits="userSpaceOnUse"
       id="clipPath1109">
      <path
         d="M 28,775 H 282.613 V 739.789 H 28 Z"
         id="path1107" />
    </clipPath>
    <clipPath
       clipPathUnits="userSpaceOnUse"
       id="clipPath1119">
      <path
         d="M 26,712 H 81.5 V 684 H 26 Z"
         id="path1117" />
    </clipPath>
    <clipPath
       clipPathUnits="userSpaceOnUse"
       id="clipPath1135">
      <path
         d="m 113,712 h 56.5 V 684 H 113 Z"
         id="path1133" />
    </clipPath>
    <clipPath
       clipPathUnits="userSpaceOnUse"
       id="clipPath1155">
      <path
         d="m 201,712 h 48.5 V 684 H 201 Z"
         id="path1153" />
    </clipPath>
    <clipPath
       clipPathUnits="userSpaceOnUse"
       id="clipPath1171">
      <path
         d="m 281,712 h 25.5 V 684 H 281 Z"
         id="path1169" />
    </clipPath>
    <clipPath
       clipPathUnits="userSpaceOnUse"
       id="clipPath1187">
      <path
         d="m 26,658.5 h 502 v -28 H 26 Z"
         id="path1185" />
    </clipPath>
    <clipPath
       clipPathUnits="userSpaceOnUse"
       id="clipPath1199">
      <path
         d="M 26,635 H 550 V 607 H 26 Z"
         id="path1197" />
    </clipPath>
    <clipPath
       clipPathUnits="userSpaceOnUse"
       id="clipPath1211">
      <path
         d="m 26,611.5 h 528.5 v -28 H 26 Z"
         id="path1209" />
    </clipPath>
    <clipPath
       clipPathUnits="userSpaceOnUse"
       id="clipPath1223">
      <path
         d="M 26,588 H 513 V 560 H 26 Z"
         id="path1221" />
    </clipPath>
    <clipPath
       clipPathUnits="userSpaceOnUse"
       id="clipPath1235">
      <path
         d="m 26,564.5 h 533 v -28 H 26 Z"
         id="path1233" />
    </clipPath>
    <clipPath
       clipPathUnits="userSpaceOnUse"
       id="clipPath1247">
      <path
         d="M 26,541 H 537.5 V 513 H 26 Z"
         id="path1245" />
    </clipPath>
    <clipPath
       clipPathUnits="userSpaceOnUse"
       id="clipPath1259">
      <path
         d="m 26,517.5 h 507 v -28 H 26 Z"
         id="path1257" />
    </clipPath>
    <clipPath
       clipPathUnits="userSpaceOnUse"
       id="clipPath1271">
      <path
         d="M 26,494 H 572 V 466 H 26 Z"
         id="path1269" />
    </clipPath>
    <clipPath
       clipPathUnits="userSpaceOnUse"
       id="clipPath1283">
      <path
         d="m 26,470.5 h 203 v -28 H 26 Z"
         id="path1281" />
    </clipPath>
  </defs>
  <sodipodi:namedview
     inkscape:window-maximized="1"
     inkscape:window-y="27"
     inkscape:window-x="0"
     inkscape:window-height="2100"
     inkscape:window-width="3840"
     fit-margin-bottom="0"
     fit-margin-right="0"
     fit-margin-left="0"
     fit-margin-top="0"
     showgrid="false"
     inkscape:document-rotation="0"
     inkscape:current-layer="layer1"
     inkscape:document-units="mm"
     inkscape:cy="707.5256"
     inkscape:cx="367.18668"
     inkscape:zoom="0.85685019"
     inkscape:pageshadow="2"
     inkscape:pageopacity="0.0"
     borderopacity="1.0"
     bordercolor="#666666"
     pagecolor="#ffffff"
     id="base" />
  <metadata
     id="metadata5">
    <rdf:RDF>
      <cc:Work
         rdf:about="">
        <dc:format>image/svg+xml</dc:format>
        <dc:type
           rdf:resource="http://purl.org/dc/dcmitype/StillImage" />
        <dc:title></dc:title>
      </cc:Work>
    </rdf:RDF>
  </metadata>
  <g
     transform="translate(-8.6818571,39.032815)"
     id="layer1"
     inkscape:groupmode="layer"
     inkscape:label="Layer 1">
    <g
       transform="matrix(0.35277777,0,0,-0.35277777,8.6818571,257.65329)"
       id="g843" />
    <g
       transform="matrix(0.35277777,0,0,-0.35277777,8.6818571,257.65329)"
       id="g851">
      <g
         clip-path="url(#clipPath857)"
         id="g853">
        <g
           clip-path="url(#clipPath863)"
           id="g859">
          <path
             id="path865"
             style="fill:#8c8c8c;fill-opacity:1;fill-rule:nonzero;stroke:none"
             d="m 591,841 h 4 V 416.789 h -4 z" />
        </g>
      </g>
    </g>
    <g
       transform="matrix(0.35277777,0,0,-0.35277777,8.6818571,257.65329)"
       id="g867">
      <g
         clip-path="url(#clipPath873)"
         id="g869">
        <g
           clip-path="url(#clipPath879)"
           id="g875">
          <path
             id="path881"
             style="fill:#d3d3d3;fill-opacity:1;fill-rule:nonzero;stroke:none"
             d="m 0,841 h 595 v -4 H 0 Z" />
        </g>
      </g>
    </g>
    <g
       transform="matrix(0.35277777,0,0,-0.35277777,8.6818571,257.65329)"
       id="g883">
      <path
         id="path885"
         style="fill:#8c8c8c;fill-opacity:1;fill-rule:nonzero;stroke:none"
         d="m 591,420.789 h 4 v -4 h -4 z" />
    </g>
    <g
       transform="matrix(0.35277777,0,0,-0.35277777,8.6818571,257.65329)"
       id="g887">
      <g
         clip-path="url(#clipPath893)"
         id="g889">
        <g
           clip-path="url(#clipPath899)"
           id="g895">
          <path
             id="path901"
             style="fill:#d3d3d3;fill-opacity:1;fill-rule:nonzero;stroke:none"
             d="M 0,841 H 4 V 416.789 H 0 Z" />
        </g>
      </g>
    </g>
    <g
       transform="matrix(0.35277777,0,0,-0.35277777,8.6818571,257.65329)"
       id="g903">
      <g
         clip-path="url(#clipPath909)"
         id="g905">
        <g
           clip-path="url(#clipPath915)"
           id="g911">
          <path
             id="path917"
             style="fill:#8c8c8c;fill-opacity:1;fill-rule:nonzero;stroke:none"
             d="m 0,420.789 h 595 v -4 H 0 Z" />
        </g>
      </g>
    </g>
    <g
       transform="matrix(0.35277777,0,0,-0.35277777,8.6818571,257.65329)"
       id="g919">
      <g
         clip-path="url(#clipPath925)"
         id="g921">
        <path
           id="path927"
           style="fill:#d3d3d3;fill-opacity:1;fill-rule:nonzero;stroke:none"
           d="m 0,841 h 595 v -4 H 0 Z" />
      </g>
    </g>
    <g
       transform="matrix(0.35277777,0,0,-0.35277777,8.6818571,257.65329)"
       id="g929">
      <g
         clip-path="url(#clipPath935)"
         id="g931">
        <path
           id="path937"
           style="fill:#8c8c8c;fill-opacity:1;fill-rule:nonzero;stroke:none"
           d="m 591,841 h 4 V 416.789 h -4 z" />
      </g>
    </g>
    <g
       transform="matrix(0.35277777,0,0,-0.35277777,8.6818571,257.65329)"
       id="g939">
      <g
         clip-path="url(#clipPath945)"
         id="g941">
        <path
           id="path947"
           style="fill:#8c8c8c;fill-opacity:1;fill-rule:nonzero;stroke:none"
           d="m 0,420.789 h 595 v -4 H 0 Z" />
      </g>
    </g>
    <g
       transform="matrix(0.35277777,0,0,-0.35277777,8.6818571,257.65329)"
       id="g949">
      <g
         clip-path="url(#clipPath955)"
         id="g951">
        <path
           id="path957"
           style="fill:#d3d3d3;fill-opacity:1;fill-rule:nonzero;stroke:none"
           d="M 0,841 H 4 V 416.789 H 0 Z" />
      </g>
    </g>
    <g
       transform="matrix(0.35277777,0,0,-0.35277777,8.6818571,257.65329)"
       id="g959">
      <path
         id="path961"
         style="fill:#00008b;fill-opacity:1;fill-rule:nonzero;stroke:none"
         d="M 4,837 H 591 V 799 H 4 Z" />
      <path
         id="path963"
         style="fill:#ff0000;fill-opacity:1;fill-rule:nonzero;stroke:none"
         d="M 4,799 H 591 V 715.789 H 4 Z" />
      <path
         id="path965"
         style="fill:#ffff00;fill-opacity:1;fill-rule:nonzero;stroke:none"
         d="m 4,715.789 h 587 v -35.5 H 4 Z" />
      <path
         id="path967"
         style="fill:#d3d3d3;fill-opacity:1;fill-rule:nonzero;stroke:none"
         d="m 557,833 h 30 v -30 h -30 z" />
      <path
         id="path969"
         style="fill:#ffffff;fill-opacity:1;fill-rule:nonzero;stroke:none"
         d="m 557,833 h 4 v -4 h -4 z" />
    </g>
    <g
       transform="matrix(0.35277777,0,0,-0.35277777,8.6818571,257.65329)"
       id="g971">
      <g
         clip-path="url(#clipPath977)"
         id="g973">
        <g
           clip-path="url(#clipPath983)"
           id="g979">
          <path
             id="path985"
             style="fill:#aaaaaa;fill-opacity:1;fill-rule:nonzero;stroke:none"
             d="m 583,833 h 4 v -30 h -4 z" />
        </g>
      </g>
    </g>
    <g
       transform="matrix(0.35277777,0,0,-0.35277777,8.6818571,257.65329)"
       id="g987">
      <g
         clip-path="url(#clipPath993)"
         id="g989">
        <g
           clip-path="url(#clipPath999)"
           id="g995">
          <path
             id="path1001"
             style="fill:#ffffff;fill-opacity:1;fill-rule:nonzero;stroke:none"
             d="m 557,833 h 30 v -4 h -30 z" />
        </g>
      </g>
    </g>
    <g
       transform="matrix(0.35277777,0,0,-0.35277777,8.6818571,257.65329)"
       id="g1003">
      <path
         id="path1005"
         style="fill:#aaaaaa;fill-opacity:1;fill-rule:nonzero;stroke:none"
         d="m 583,807 h 4 v -4 h -4 z" />
    </g>
    <g
       transform="matrix(0.35277777,0,0,-0.35277777,8.6818571,257.65329)"
       id="g1007">
      <g
         clip-path="url(#clipPath1013)"
         id="g1009">
        <g
           clip-path="url(#clipPath1019)"
           id="g1015">
          <path
             id="path1021"
             style="fill:#ffffff;fill-opacity:1;fill-rule:nonzero;stroke:none"
             d="m 557,833 h 4 v -30 h -4 z" />
        </g>
      </g>
    </g>
    <g
       transform="matrix(0.35277777,0,0,-0.35277777,8.6818571,257.65329)"
       id="g1023">
      <g
         clip-path="url(#clipPath1029)"
         id="g1025">
        <g
           clip-path="url(#clipPath1035)"
           id="g1031">
          <path
             id="path1037"
             style="fill:#aaaaaa;fill-opacity:1;fill-rule:nonzero;stroke:none"
             d="m 557,807 h 30 v -4 h -30 z" />
        </g>
      </g>
    </g>
    <g
       transform="matrix(0.35277777,0,0,-0.35277777,8.6818571,257.65329)"
       id="g1039">
      <g
         clip-path="url(#clipPath1045)"
         id="g1041">
        <path
           id="path1047"
           style="fill:#ffffff;fill-opacity:1;fill-rule:nonzero;stroke:none"
           d="m 557,833 h 30 v -4 h -30 z" />
      </g>
    </g>
    <g
       transform="matrix(0.35277777,0,0,-0.35277777,8.6818571,257.65329)"
       id="g1049">
      <g
         clip-path="url(#clipPath1055)"
         id="g1051">
        <path
           id="path1057"
           style="fill:#aaaaaa;fill-opacity:1;fill-rule:nonzero;stroke:none"
           d="m 583,833 h 4 v -30 h -4 z" />
      </g>
    </g>
    <g
       transform="matrix(0.35277777,0,0,-0.35277777,8.6818571,257.65329)"
       id="g1059">
      <g
         clip-path="url(#clipPath1065)"
         id="g1061">
        <path
           id="path1067"
           style="fill:#aaaaaa;fill-opacity:1;fill-rule:nonzero;stroke:none"
           d="m 557,807 h 30 v -4 h -30 z" />
      </g>
    </g>
    <g
       transform="matrix(0.35277777,0,0,-0.35277777,8.6818571,257.65329)"
       id="g1069">
      <g
         clip-path="url(#clipPath1075)"
         id="g1071">
        <path
           id="path1077"
           style="fill:#ffffff;fill-opacity:1;fill-rule:nonzero;stroke:none"
           d="m 557,833 h 4 v -30 h -4 z" />
      </g>
    </g>
    <g
       transform="matrix(0.35277777,0,0,-0.35277777,8.6818571,257.65329)"
       id="g1079">
      <g
         clip-path="url(#clipPath1085)"
         id="g1081">
        <text
           id="text1089"
           style="font-variant:normal;font-weight:normal;font-size:18px;font-family:'DejaVu Sans';-inkscape-font-specification:DejaVuSans;writing-mode:lr-tb;fill:#000000;fill-opacity:1;fill-rule:nonzero;stroke:none"
           transform="matrix(1,0,0,-1,564.45001,811.25)"><tspan
             id="tspan1087"
             y="0"
             x="0">✕</tspan></text>
      </g>
    </g>
    <g
       transform="matrix(0.35277777,0,0,-0.35277777,8.6818571,257.65329)"
       id="g1091">
      <g
         clip-path="url(#clipPath1097)"
         id="g1093">
        <text
           id="text1101"
           style="font-variant:normal;font-weight:600;font-size:18px;font-family:'IBM Plex Sans SemiBold';-inkscape-font-specification:IBMPlexSans-SemiBold;writing-mode:lr-tb;fill:#ffffff;fill-opacity:1;fill-rule:nonzero;stroke:none"
           transform="matrix(1,0,0,-1,8,811.25)"><tspan
             id="tspan1099"
             sodipodi:role="line"
             y="0"
             x="0 9.198 19.332001 26.334 36.377998 52.362 56.610001 64.223999 75.024002 84.024002 94.608002 110.592 114.84 121.608 125.856 137.556 149.65199 162.054 166.302 177.3 184.82401 195.26401">Lorem Ipsum | BAD SITE</tspan></text>
      </g>
    </g>
    <g
       transform="matrix(0.35277777,0,0,-0.35277777,8.6818571,257.65329)"
       id="g1103">
      <g
         clip-path="url(#clipPath1109)"
         id="g1105">
        <path
           id="path1111"
           style="fill:#000000;fill-opacity:1;fill-rule:nonzero;stroke:none"
           d="m 246.387,767.312 c -0.914,0.661 -1.547,1.5 -1.895,2.508 -0.351,1.012 -0.476,1.868 -0.371,2.563 0.106,0.558 0.336,0.82 0.684,0.785 0.351,0 0.617,-0.137 0.793,-0.418 1.191,-1.113 2.629,-1.934 4.316,-2.457 1.684,-0.523 3.527,-0.836 5.527,-0.941 2.036,-0.071 4.211,0.035 6.528,0.312 2.316,0.281 4.719,0.68 7.211,1.203 0.879,0.176 1.773,0.332 2.687,0.473 0.77,0.101 1.598,0.191 2.473,0.262 0.914,0.101 1.773,0.121 2.582,0.05 1.473,-0.14 2.734,-0.523 3.789,-1.152 1.086,-0.625 1.719,-1.707 1.894,-3.242 0.036,-0.836 -0.07,-1.637 -0.316,-2.403 -0.211,-0.664 -0.578,-1.328 -1.105,-1.988 -0.493,-0.664 -1.246,-1.187 -2.262,-1.57 -0.492,-0.176 -0.824,-0.192 -1,-0.051 -0.176,0.137 -0.301,0.328 -0.371,0.574 -0.071,0.278 -0.051,0.61 0.054,0.992 0.106,0.524 0.227,1.168 0.368,1.938 0.175,0.766 0.226,1.465 0.16,2.09 -0.071,0.664 -0.336,1.187 -0.793,1.57 -0.418,0.383 -1.176,0.469 -2.262,0.262 -0.773,-0.176 -1.738,-0.402 -2.894,-0.68 -1.125,-0.246 -2.352,-0.508 -3.688,-0.785 l 0.316,-0.156 c 0.282,-0.141 0.403,-0.348 0.368,-0.629 -0.035,-0.242 -0.157,-0.453 -0.368,-0.629 -0.738,-0.555 -1.492,-1.234 -2.261,-2.039 -0.668,-0.695 -1.422,-1.531 -2.266,-2.508 -0.808,-0.976 -1.613,-2.109 -2.422,-3.402 0.844,0.316 1.739,0.629 2.684,0.941 0.984,0.352 1.914,0.613 2.793,0.785 0.91,0.176 1.699,0.246 2.367,0.211 0.668,-0.035 1.141,-0.246 1.422,-0.629 0.422,-0.629 0.543,-1.238 0.367,-1.828 -0.176,-0.594 -0.488,-1.101 -0.945,-1.519 -0.422,-0.418 -0.895,-0.731 -1.422,-0.942 -0.527,-0.207 -0.895,-0.226 -1.106,-0.051 -0.175,0.141 -0.457,0.313 -0.843,0.524 -0.387,0.207 -0.875,0.367 -1.473,0.469 -0.598,0.105 -1.301,0.125 -2.105,0.054 -0.809,-0.035 -1.719,-0.246 -2.739,-0.629 -0.105,-0.035 -0.332,-0.121 -0.683,-0.261 -0.352,-0.141 -0.719,-0.332 -1.106,-0.574 -0.527,-0.317 -0.949,-0.665 -1.265,-1.047 0.211,0.07 0.421,0.175 0.632,0.312 0.176,0.07 0.387,0.16 0.633,0.262 0.281,0.105 0.559,0.191 0.84,0.262 -0.559,-1.254 -1.051,-2.598 -1.473,-4.028 -0.421,-1.394 -0.718,-2.91 -0.894,-4.547 -0.703,0.207 -1.301,0.485 -1.789,0.836 -0.246,0.172 -0.477,0.364 -0.688,0.575 0.352,-0.524 0.793,-0.958 1.317,-1.309 0.527,-0.313 0.879,-0.523 1.054,-0.625 l 0.051,-0.055 h 0.055 c 1.262,-0.625 2.562,-0.906 3.894,-0.836 1.371,0.035 2.633,0.227 3.793,0.575 1.157,0.351 2.141,0.734 2.946,1.152 0.808,0.453 1.316,0.75 1.527,0.887 0.457,0.246 0.809,0.578 1.055,0.996 0.246,0.418 0.281,0.906 0.105,1.465 -0.035,0.105 -0.035,0.207 0,0.312 0.071,0.211 0.227,0.313 0.473,0.313 0.422,-0.067 0.808,-0.207 1.156,-0.418 0.352,-0.207 0.617,-0.504 0.793,-0.887 v -0.055 c 0.141,-0.242 0.211,-0.488 0.211,-0.73 0.172,-0.907 0.086,-1.692 -0.266,-2.356 -0.351,-0.66 -0.843,-1.234 -1.472,-1.722 -0.633,-0.489 -1.352,-0.875 -2.16,-1.153 -0.77,-0.312 -1.508,-0.539 -2.211,-0.679 -0.703,-0.141 -1.422,-0.227 -2.157,-0.262 -0.738,-0.035 -1.511,-0.016 -2.316,0.051 h -0.316 c -0.176,0 -0.336,0.019 -0.477,0.054 -0.141,0 -0.277,0 -0.418,0 -1.723,0.207 -3.109,0.539 -4.16,0.992 -1.02,0.454 -1.809,0.942 -2.371,1.465 -0.524,0.524 -0.895,1.028 -1.106,1.516 -0.175,0.488 -0.281,0.855 -0.312,1.098 v 0.16 c 0,0.066 0,0.101 0,0.101 0.031,0.035 0.051,0.09 0.051,0.16 0.14,2.614 0.543,4.95 1.211,7.008 0.668,2.055 1.421,3.852 2.261,5.387 0.844,1.566 1.703,2.875 2.582,3.922 0.875,1.047 1.614,1.863 2.211,2.457 -1.402,-0.207 -2.808,-0.383 -4.211,-0.524 -1.406,-0.105 -2.738,-0.156 -4.004,-0.156 -1.261,0.035 -2.437,0.141 -3.527,0.313 -1.086,0.211 -2.016,0.523 -2.789,0.941 -0.211,0.106 -0.422,0.211 -0.633,0.317 -0.172,0.136 -0.348,0.277 -0.523,0.417 z m -41.395,3.2 v -5.84 h 13.668 v -20.399 h 7.211 v 20.399 h 13.688 v 5.84 z M 182.18,741.469 v 31.851 h 13.035 v -31.851 z m -18.645,29.617 h 3.203 c 0.617,0 1.766,-0.406 3.45,-1.223 1.441,-1.761 2.16,-3.148 2.16,-4.156 0.039,-0.293 0.058,-0.551 0.058,-0.766 0,-0.398 -0.265,-0.613 -0.793,-0.652 h -1.156 c -0.332,0 -0.75,0.301 -1.254,0.899 -0.344,0.433 -1.43,0.652 -3.258,0.652 0,0.051 -0.347,0.078 -1.039,0.078 -0.812,-0.09 -1.332,-0.137 -1.562,-0.137 h -3.645 c -1.336,0 -2.25,-1.015 -2.738,-3.043 v -0.328 c 0,-0.332 0.219,-1.148 0.656,-2.449 0.516,-0.957 1.207,-1.438 2.082,-1.438 0,-0.05 0.321,-0.16 0.965,-0.324 1.246,0.344 2.121,0.949 2.621,1.821 0,0.035 0.086,0.101 0.25,0.191 h 0.406 c 1.067,-0.945 1.934,-1.59 2.602,-1.938 0.348,-0.523 1.195,-0.785 2.547,-0.785 1.066,-0.293 1.777,-0.765 2.14,-1.418 0.692,-0.636 1.04,-1.914 1.04,-3.828 0.089,-1.097 0.136,-1.742 0.136,-1.933 v -0.079 c -0.156,-1.582 -0.418,-2.589 -0.793,-3.027 -0.527,-1.047 -1.086,-1.805 -1.675,-2.277 -1.118,-0.727 -1.903,-1.094 -2.352,-1.094 -0.219,0 -0.504,-0.043 -0.848,-0.133 l -0.793,0.133 c -0.269,0 -0.59,-0.023 -0.961,-0.074 -1.222,0.051 -2.007,0.074 -2.355,0.074 l -2.215,-0.074 c -0.965,0 -1.988,0.281 -3.066,0.844 -1.387,1.746 -2.082,2.828 -2.082,3.234 0,0.32 -0.11,0.816 -0.328,1.496 0.117,0.738 0.398,1.109 0.847,1.109 1.055,0 1.813,-0.324 2.277,-0.976 0.758,-0.524 1.844,-0.785 3.258,-0.785 0.657,-0.039 1.11,-0.059 1.368,-0.059 0.374,0.039 0.699,0.102 0.984,0.191 0.617,-0.039 1.137,-0.054 1.562,-0.054 0.563,0 1.434,0.105 2.602,0.324 h 0.734 c 0.887,0 1.516,0.945 1.887,2.836 0.039,0.383 0.059,0.598 0.059,0.648 0,1.254 -0.586,2.313 -1.754,3.18 -0.657,0.258 -1.266,0.43 -1.832,0.52 -0.668,0 -1.563,-0.61 -2.68,-1.821 -0.18,-0.129 -0.355,-0.191 -0.52,-0.191 -0.168,0 -0.554,0.324 -1.156,0.976 -1.66,1.34 -2.855,2.012 -3.586,2.012 -1.75,0.278 -2.625,0.645 -2.625,1.09 -0.82,1.215 -1.234,2.293 -1.234,3.238 0.055,0.969 0.078,1.575 0.078,1.817 -0.09,0.437 -0.133,0.718 -0.133,0.843 0,0.653 0.321,1.84 0.961,3.563 0.348,0.754 0.961,1.355 1.832,1.801 0.723,0.777 1.699,1.168 2.93,1.168 0.308,0.09 1.223,0.199 2.738,0.324 z m -64.043,0.871 -2.289,-24.91 c -0.078,-0.652 -0.094,-1.188 -0.039,-1.606 0.051,-0.418 0.168,-0.773 0.356,-1.058 0.156,-0.289 0.355,-0.551 0.589,-0.785 0.239,-0.211 0.489,-0.434 0.75,-0.668 0.711,-0.524 1.344,-0.969 1.899,-1.332 0.551,-0.34 1.195,-0.696 1.933,-1.059 1.473,-0.707 2.883,-0.824 4.223,-0.355 2.633,0.734 4.988,1.714 7.07,2.941 2.078,1.23 3.868,2.617 5.368,4.16 1.527,1.543 2.765,3.188 3.714,4.942 0.946,1.75 1.606,3.503 1.973,5.253 0.395,1.782 0.5,3.504 0.316,5.18 -0.183,1.672 -0.644,3.215 -1.382,4.629 -0.868,1.777 -1.934,3.203 -3.2,4.273 -1.261,1.075 -2.644,1.872 -4.144,2.395 -1.473,0.547 -3.016,0.848 -4.621,0.902 -1.578,0.079 -3.133,-0.015 -4.656,-0.277 -1.528,-0.234 -2.977,-0.598 -4.344,-1.098 -1.344,-0.468 -2.516,-0.98 -3.516,-1.527 z m 5.293,-25.613 c 0.656,3.398 1.34,6.758 2.051,10.078 0.711,3.348 1.527,6.734 2.449,10.16 1.711,0.551 3.156,0.602 4.344,0.156 1.183,-0.445 2.012,-1.109 2.488,-2 0.473,-0.89 0.656,-2.129 0.551,-3.726 -0.078,-1.149 -0.356,-2.391 -0.828,-3.727 -0.477,-1.332 -1.184,-2.668 -2.133,-4 -0.949,-1.332 -2.16,-2.613 -3.633,-3.844 -1.472,-1.203 -3.238,-2.234 -5.289,-3.097 z M 92.664,743.488 H 81.41 l -1.816,4.434 h -9.317 l -1.621,-4.434 H 58.195 L 69.25,771.297 H 79.438 Z M 76.477,755.414 74.621,759.805 73,755.414 Z m -23.735,5.715 c -0.566,-1.086 -1.234,-2.012 -2.004,-2.777 -0.769,-0.723 -1.621,-1.309 -2.55,-1.75 0.363,-0.04 0.75,-0.122 1.156,-0.243 0.402,-0.121 0.789,-0.32 1.152,-0.601 0.406,-0.281 0.75,-0.664 1.031,-1.149 0.325,-0.441 0.567,-1.004 0.731,-1.687 0.082,-0.484 0.101,-1.008 0.058,-1.57 -0.039,-0.485 -0.121,-1.028 -0.242,-1.629 -0.078,-0.606 -0.281,-1.227 -0.605,-1.871 -0.203,-0.442 -0.528,-1.028 -0.973,-1.75 -0.445,-0.723 -1.094,-1.45 -1.945,-2.172 -0.809,-0.684 -1.863,-1.309 -3.156,-1.871 -1.297,-0.563 -2.875,-0.926 -4.739,-1.086 -2.836,-0.203 -5.082,0.019 -6.742,0.664 -1.621,0.601 -2.875,1.347 -3.769,2.23 -0.848,0.887 -1.415,1.793 -1.7,2.719 -0.242,0.922 -0.383,1.609 -0.425,2.051 -0.04,0.683 -0.02,1.386 0.062,2.113 0.121,0.762 0.344,1.566 0.668,2.41 0.121,0.164 0.262,0.324 0.426,0.485 0.16,0.121 0.344,0.261 0.547,0.421 0.242,0.161 0.523,0.301 0.847,0.422 0.528,0.203 1.157,0.305 1.883,0.305 0.731,0 1.438,-0.223 2.129,-0.664 0,-0.043 0.02,-0.063 0.059,-0.063 0,-0.039 0,-0.058 0,-0.058 0.043,0 0.062,-0.02 0.062,-0.063 0,-0.039 -0.019,-0.078 -0.062,-0.121 h -0.059 c -0.367,-0.078 -0.648,-0.379 -0.852,-0.902 -0.039,-0.082 -0.121,-0.363 -0.242,-0.848 -0.121,-0.48 -0.203,-1.086 -0.242,-1.808 -0.043,-0.684 -0.023,-1.45 0.059,-2.293 0.121,-0.805 0.386,-1.571 0.789,-2.293 0.406,-0.684 0.992,-1.289 1.761,-1.813 0.813,-0.519 1.883,-0.844 3.219,-0.965 1.621,-0.16 3.02,0.043 4.192,0.606 1.175,0.562 2.109,1.285 2.796,2.172 0.688,0.882 1.133,1.871 1.336,2.957 0.204,1.125 0.161,2.172 -0.121,3.136 -0.285,0.965 -0.832,1.77 -1.64,2.415 -0.809,0.644 -1.864,0.984 -3.16,1.027 h -0.848 c -0.125,0 -0.203,0.019 -0.246,0.058 -0.524,-2.171 -0.848,-4.043 -0.969,-5.613 -0.125,-1.527 -0.184,-2.574 -0.184,-3.137 0,-0.121 -0.019,-0.222 -0.062,-0.3 -0.078,-0.161 -0.203,-0.243 -0.363,-0.243 -1.133,0.082 -2.024,0.282 -2.672,0.606 -0.649,0.359 -1.113,0.703 -1.399,1.023 -0.082,0.121 -0.101,0.465 -0.058,1.028 0.078,0.562 0.199,1.246 0.363,2.051 0.16,0.804 0.344,1.71 0.547,2.714 0.242,1.008 0.484,1.993 0.726,2.957 -0.484,-0.199 -1.113,-0.402 -1.882,-0.601 -0.77,-0.16 -1.414,-0.082 -1.942,0.242 -0.367,0.238 -0.769,0.562 -1.215,0.965 -0.406,0.402 -0.812,0.863 -1.214,1.387 -0.368,0.523 -0.711,1.066 -1.036,1.628 -0.324,0.563 -0.585,1.086 -0.789,1.571 -0.203,0.48 -0.16,1.047 0.121,1.687 0.286,0.684 0.692,1.367 1.215,2.055 0.567,0.723 1.176,1.406 1.825,2.051 0.648,0.644 1.253,1.187 1.82,1.629 0.445,0.363 1.074,0.804 1.883,1.328 0.851,0.562 1.785,1.086 2.797,1.566 1.011,0.485 2.085,0.906 3.218,1.27 1.133,0.402 2.246,0.644 3.34,0.722 1.094,0.082 2.106,-0.019 3.039,-0.3 0.973,-0.282 1.801,-0.844 2.488,-1.692 0.891,-1.004 1.563,-2.07 2.008,-3.195 0.403,-0.969 0.645,-2.113 0.727,-3.442 0.082,-1.285 -0.242,-2.656 -0.973,-4.101 z m -10.75,-3.563 c 0.406,0.161 0.891,0.364 1.457,0.606 0.567,0.281 1.156,0.582 1.762,0.902 0.648,0.364 1.277,0.766 1.883,1.207 0.648,0.485 1.258,1.047 1.824,1.692 1.293,1.57 2.062,2.957 2.309,4.164 0.242,1.246 0.199,2.191 -0.125,2.836 -0.2,0.32 -0.543,0.601 -1.032,0.843 -0.445,0.282 -1.074,0.422 -1.882,0.422 -0.809,0.043 -1.821,-0.097 -3.036,-0.422 -1.218,-0.32 -2.656,-0.882 -4.316,-1.687 -1.66,-0.805 -3.016,-1.691 -4.07,-2.656 -1.012,-0.965 -1.782,-1.911 -2.305,-2.836 -0.488,-0.926 -0.75,-1.789 -0.793,-2.594 0,-0.766 0.164,-1.328 0.488,-1.691 0.567,-0.563 1.196,-0.864 1.883,-0.907 0.688,0 1.215,0.043 1.578,0.121 0.324,1.246 0.61,2.356 0.852,3.321 0.281,1.004 0.508,1.73 0.668,2.172 0.203,0.683 0.304,1.226 0.304,1.629 0,0.441 -0.043,0.765 -0.121,0.964 -0.043,0.043 -0.043,0.102 0,0.184 0.078,0.16 0.223,0.238 0.422,0.238 0.813,0 1.52,-0.14 2.129,-0.422 0.606,-0.281 1.07,-0.523 1.395,-0.722 0.082,-0.082 0.164,-0.18 0.246,-0.301 0.16,-0.203 0.199,-0.524 0.121,-0.969 -0.121,-0.441 -0.266,-1.004 -0.426,-1.687 -0.164,-0.645 -0.324,-1.27 -0.488,-1.871 -0.16,-0.723 -0.364,-1.469 -0.606,-2.235 -0.039,-0.078 -0.062,-0.14 -0.062,-0.179 0,0 -0.02,-0.04 -0.059,-0.122 z" />
      </g>
    </g>
    <g
       transform="matrix(0.35277777,0,0,-0.35277777,8.6818571,257.65329)"
       id="g1113">
      <g
         clip-path="url(#clipPath1119)"
         id="g1115">
        <g
           transform="matrix(1,0,0,-1,0,841)"
           id="g1121">
          <path
             id="path1123"
             style="fill:none;stroke:#0000ee;stroke-width:1;stroke-linecap:butt;stroke-linejoin:miter;stroke-miterlimit:10;stroke-dasharray:none;stroke-opacity:1"
             d="M 28,151.5 H 79" />
        </g>
        <text
           id="text1127"
           style="font-variant:normal;font-weight:normal;font-size:18px;font-family:'IBM Plex Sans';-inkscape-font-specification:IBMPlexSans;writing-mode:lr-tb;fill:#0000ee;fill-opacity:1;fill-rule:nonzero;stroke:none"
           transform="matrix(1,0,0,-1,28,691.28751)"><tspan
             id="tspan1125"
             sodipodi:role="line"
             y="0"
             x="0 8.8380003 18.917999 25.434 35.316002">Lorem</tspan></text>
      </g>
    </g>
    <g
       transform="matrix(0.35277777,0,0,-0.35277777,8.6818571,257.65329)"
       id="g1129">
      <g
         clip-path="url(#clipPath1135)"
         id="g1131">
        <g
           transform="matrix(1,0,0,-1,0,841)"
           id="g1137">
          <path
             id="path1139"
             style="fill:none;stroke:#0000ee;stroke-width:1;stroke-linecap:butt;stroke-linejoin:miter;stroke-miterlimit:10;stroke-dasharray:none;stroke-opacity:1"
             d="m 115,151.5 h 7.5" />
        </g>
        <g
           transform="matrix(1,0,0,-1,0,841)"
           id="g1141">
          <path
             id="path1143"
             style="fill:none;stroke:#0000ee;stroke-width:1;stroke-linecap:butt;stroke-linejoin:miter;stroke-miterlimit:10;stroke-dasharray:none;stroke-opacity:1"
             d="m 126.5,151.5 h 41" />
        </g>
        <text
           id="text1147"
           style="font-variant:normal;font-weight:normal;font-size:18px;font-family:'IBM Plex Sans';-inkscape-font-specification:IBMPlexSans;writing-mode:lr-tb;fill:#0000ee;fill-opacity:1;fill-rule:nonzero;stroke:none"
           transform="matrix(1,0,0,-1,115.025,691.28751)"><tspan
             id="tspan1145"
             sodipodi:role="line"
             y="0"
             x="0 7.1999998 17.639999 26.406 36.630001">Ipsum</tspan></text>
      </g>
    </g>
    <g
       transform="matrix(0.35277777,0,0,-0.35277777,8.6818571,257.65329)"
       id="g1149">
      <g
         clip-path="url(#clipPath1155)"
         id="g1151">
        <g
           transform="matrix(1,0,0,-1,0,841)"
           id="g1157">
          <path
             id="path1159"
             style="fill:none;stroke:#0000ee;stroke-width:1;stroke-linecap:butt;stroke-linejoin:miter;stroke-miterlimit:10;stroke-dasharray:none;stroke-opacity:1"
             d="M 203.5,151.5 H 247" />
        </g>
        <text
           id="text1163"
           style="font-variant:normal;font-weight:normal;font-size:18px;font-family:'IBM Plex Sans';-inkscape-font-specification:IBMPlexSans;writing-mode:lr-tb;fill:#0000ee;fill-opacity:1;fill-rule:nonzero;stroke:none"
           transform="matrix(1,0,0,-1,203.3625,691.28751)"><tspan
             id="tspan1161"
             sodipodi:role="line"
             y="0"
             x="0 12.078 22.158001 27.054001 37.133999">Dolor</tspan></text>
      </g>
    </g>
    <g
       transform="matrix(0.35277777,0,0,-0.35277777,8.6818571,257.65329)"
       id="g1165">
      <g
         clip-path="url(#clipPath1171)"
         id="g1167">
        <g
           transform="matrix(1,0,0,-1,0,841)"
           id="g1173">
          <path
             id="path1175"
             style="fill:none;stroke:#0000ee;stroke-width:1;stroke-linecap:butt;stroke-linejoin:miter;stroke-miterlimit:10;stroke-dasharray:none;stroke-opacity:1"
             d="m 283,151.5 h 21.5" />
        </g>
        <text
           id="text1179"
           style="font-variant:normal;font-weight:normal;font-size:18px;font-family:'IBM Plex Sans';-inkscape-font-specification:IBMPlexSans;writing-mode:lr-tb;fill:#0000ee;fill-opacity:1;fill-rule:nonzero;stroke:none"
           transform="matrix(1,0,0,-1,283.08749,691.28751)"><tspan
             id="tspan1177"
             sodipodi:role="line"
             y="0"
             x="0 10.458 14.958">Sit</tspan></text>
      </g>
    </g>
    <g
       transform="matrix(0.35277777,0,0,-0.35277777,8.6818571,257.65329)"
       id="g1181">
      <g
         clip-path="url(#clipPath1187)"
         id="g1183">
        <text
           id="text1191"
           style="font-variant:normal;font-weight:normal;font-size:18px;font-family:'IBM Plex Sans';-inkscape-font-specification:IBMPlexSans;writing-mode:lr-tb;fill:#000000;fill-opacity:1;fill-rule:nonzero;stroke:none"
           transform="matrix(1,0,0,-1,28,637.78751)"><tspan
             id="tspan1189"
             sodipodi:role="line"
             y="0"
             x="0 8.8380003 18.917999 25.434 35.316002 51.029999 55.278 59.778 70.218002 78.984001 89.208 104.922 109.17 119.61 129.69 134.586 144.666 151.254 155.502 164.26801 168.76801 175.086 179.334 188.946 204.66 214.56 220.86 225.774 230.022 238.968 249.048 259.272 268.03799 277.92001 286.974 293.22 303.10199 309.42001 319.64401 326.25 330.49799 340.10999 350.54999 355.04999 365.48999 369.98999 378.75601 387.81 392.31 402.534 412.01999 416.28601 426.168 431.064 435.564 441.88199 446.77802 451.026 463.75201 473.97601 478.78201 483.67801">Lorem ipsum dolor sit amet, consectetur adipiscing elit. Nulla</tspan></text>
      </g>
    </g>
    <g
       transform="matrix(0.35277777,0,0,-0.35277777,8.6818571,257.65329)"
       id="g1193">
      <g
         clip-path="url(#clipPath1199)"
         id="g1195">
        <text
           id="text1203"
           style="font-variant:normal;font-weight:normal;font-size:18px;font-family:'IBM Plex Sans';-inkscape-font-specification:IBMPlexSans;writing-mode:lr-tb;fill:#000000;fill-opacity:1;fill-rule:nonzero;stroke:none"
           transform="matrix(1,0,0,-1,28,614.28751)"><tspan
             id="tspan1201"
             sodipodi:role="line"
             y="0"
             x="0 4.8959999 14.508 23.562 28.062 38.285999 42.785999 52.397999 56.646 62.91 72.792 88.505997 98.945999 109.17 117.936 122.184 131.85001 140.976 145.87199 150.12 158.886 163.386 169.70399 173.952 183.564 199.278 209.16 215.478 219.726 230.166 240.39 245.106 253.96201 258.46201 268.686 278.298 284.90399 289.15201 299.034 307.67401 313.992 318.888 323.13599 335.862 346.086 350.892 355.78799 365.39999 369.64801 379.87201 386.19 390.43799 396.75601 406.98001 413.586 424.026 428.526 437.27399 441.54001 451.96201 462.20401 471.81601 478.314 488.21399 494.51401 501.06601 510.84">lacinia tempus ex, sit amet pulvinar est. Nulla ut turpis pharetra,</tspan></text>
      </g>
    </g>
    <g
       transform="matrix(0.35277777,0,0,-0.35277777,8.6818571,257.65329)"
       id="g1205">
      <g
         clip-path="url(#clipPath1211)"
         id="g1207">
        <text
           id="text1215"
           style="font-variant:normal;font-weight:normal;font-size:18px;font-family:'IBM Plex Sans';-inkscape-font-specification:IBMPlexSans;writing-mode:lr-tb;fill:#000000;fill-opacity:1;fill-rule:nonzero;stroke:none"
           transform="matrix(1,0,0,-1,28,590.78751)"><tspan
             id="tspan1213"
             sodipodi:role="line"
             y="0"
             x="0 8.7659998 17.712 27.594 32.507999 42.389999 48.995998 53.495998 62.262001 72.683998 82.926003 92.807999 97.056 107.496 117.576 122.472 132.552 139.14 143.40601 147.90601 158.328 163.242 167.49001 177.92999 187.54201 197.98199 202.48199 212.922 223.146 231.912 236.16 241.056 245.556 255.996 265.87799 272.39401 282.11401 287.02802 291.276 302.814 312.69601 322.92001 332.802 342.43201 352.65601 356.90399 365.67001 375.552 385.992 390.23999 395.13599 404.74799 413.802 424.026 432.79199 437.04001 441.54001 457.254 467.694 477.57599 484.07401 494.51401 499.01401 508.914 515.21399">scelerisque dolor id, dapibus libero. Aenean sed lacus imperdiet,</tspan></text>
      </g>
    </g>
    <g
       transform="matrix(0.35277777,0,0,-0.35277777,8.6818571,257.65329)"
       id="g1217">
      <g
         clip-path="url(#clipPath1223)"
         id="g1219">
        <text
           id="text1227"
           style="font-variant:normal;font-weight:normal;font-size:18px;font-family:'IBM Plex Sans';-inkscape-font-specification:IBMPlexSans;writing-mode:lr-tb;fill:#000000;fill-opacity:1;fill-rule:nonzero;stroke:none"
           transform="matrix(1,0,0,-1,28,567.28751)"><tspan
             id="tspan1225"
             sodipodi:role="line"
             y="0"
             x="0 10.44 16.955999 26.837999 33.155998 37.655998 47.880001 63.594002 67.842003 72.342003 82.566002 91.206001 97.452003 107.532 111.78 120.636 125.136 131.45399 141.06599 150.588 155.48399 159.73199 168.696 178.758 188.98199 199.422 203.922 219.636 229.536 239.75999 246.06 256.302 271.99799 276.26401 286.48801 290.98801 299.754 304.254 309.14999 313.39801 328.01401 337.62601 347.508 356.45401 366.354 376.578 386.19 394.95599 399.20401 405.45001 415.35001 420.138 425.034 435.276 444.02399 448.29001 458.71201 468.95401 473.45401">pretium justo vitae, condimentum nisi. Maecenas tellus dui,</tspan></text>
      </g>
    </g>
    <g
       transform="matrix(0.35277777,0,0,-0.35277777,8.6818571,257.65329)"
       id="g1229">
      <g
         clip-path="url(#clipPath1235)"
         id="g1231">
        <text
           id="text1239"
           style="font-variant:normal;font-weight:normal;font-size:18px;font-family:'IBM Plex Sans';-inkscape-font-specification:IBMPlexSans;writing-mode:lr-tb;fill:#000000;fill-opacity:1;fill-rule:nonzero;stroke:none"
           transform="matrix(1,0,0,-1,28,543.78751)"><tspan
             id="tspan1237"
             sodipodi:role="line"
             y="0"
             x="0 9.6120005 18.558001 27.612 37.835999 53.549999 62.316002 71.928001 82.152 86.400002 95.166 105.066 115.488 119.754 128.7 138.78 148.842 157.554 167.166 171.95399 176.868 181.368 190.134 194.382 198.882 209.106 214.002 218.25 228.69 238.302 248.742 253.242 263.68201 273.90601 282.672 286.92001 296.802 306.216 316.09799 322.41599 326.664 336.74399 347.16599 351.66599 361.40399 366.29999 370.548 382.62601 392.70599 402.92999 412.81201 421.866 426.11401 432.43201 442.65601 449.26199 459.702 464.202 472.95001 477.216 482.112 491.724 500.77802 511.00201 519.67798">accumsan sed convallis in, dapibus eget odio. Donec turpis lacus,</tspan></text>
      </g>
    </g>
    <g
       transform="matrix(0.35277777,0,0,-0.35277777,8.6818571,257.65329)"
       id="g1241">
      <g
         clip-path="url(#clipPath1247)"
         id="g1243">
        <text
           id="text1251"
           style="font-variant:normal;font-weight:normal;font-size:18px;font-family:'IBM Plex Sans';-inkscape-font-specification:IBMPlexSans;writing-mode:lr-tb;fill:#000000;fill-opacity:1;fill-rule:nonzero;stroke:none"
           transform="matrix(1,0,0,-1,28,520.28751)"><tspan
             id="tspan1249"
             sodipodi:role="line"
             y="0"
             x="0 10.206 20.43 24.93 35.369999 45.594002 54.360001 58.608002 68.220001 74.538002 78.786003 87.480003 97.092003 103.698 108.198 118.422 127.188 131.436 147.14999 156.76199 165.888 170.388 186.10201 196.326 205.002 209.89799 214.146 223.002 227.502 236.214 246.114 252.702 259.23599 268.84799 273.11401 281.862 286.362 292.67999 296.92801 306.54001 322.254 332.15399 338.45401 342.72 352.944 357.444 366.20999 370.70999 375.60599 379.854 390.31201 400.53601 409.302 419.742 429.62399 439.84799 450.28799 454.78799 463.46399 472.21201 482.112 486.35999 496.58401">ﬁnibus at varius maximus, viverra sit amet nisi. Suspendisse ut</tspan></text>
      </g>
    </g>
    <g
       transform="matrix(0.35277777,0,0,-0.35277777,8.6818571,257.65329)"
       id="g1253">
      <g
         clip-path="url(#clipPath1259)"
         id="g1255">
        <text
           id="text1263"
           style="font-variant:normal;font-weight:normal;font-size:18px;font-family:'IBM Plex Sans';-inkscape-font-specification:IBMPlexSans;writing-mode:lr-tb;fill:#000000;fill-opacity:1;fill-rule:nonzero;stroke:none"
           transform="matrix(1,0,0,-1,28,496.78751)"><tspan
             id="tspan1261"
             sodipodi:role="line"
             y="0"
             x="0 10.44 14.94 24.552 40.265999 44.514 51.119999 55.619999 64.386002 74.610001 83.286003 88.181999 92.43 102.852 112.752 121.392 127.692 132.192 142.632 152.856 157.752 167.994 183.70799 187.95599 196.90199 206.98199 217.20599 227.646 232.146 247.86 257.742 267.966 274.284 284.508 300.22198 304.47 314.694 321.29999 331.52399 341.13599 345.384 354.23999 358.73999 365.05801 374.67001 384.552 388.79999 398.41199 404.92801 413.98199 424.20599 428.45401 435.06 445.284 455.36401 465.58801 474.642 484.866 493.54199">diam risus. Vestibulum condimentum urna vitae arcu rhoncus,</tspan></text>
      </g>
    </g>
    <g
       transform="matrix(0.35277777,0,0,-0.35277777,8.6818571,257.65329)"
       id="g1265">
      <g
         clip-path="url(#clipPath1271)"
         id="g1267">
        <text
           id="text1275"
           style="font-variant:normal;font-weight:normal;font-size:18px;font-family:'IBM Plex Sans';-inkscape-font-specification:IBMPlexSans;writing-mode:lr-tb;fill:#000000;fill-opacity:1;fill-rule:nonzero;stroke:none"
           transform="matrix(1,0,0,-1,28,473.28751)"><tspan
             id="tspan1273"
             sodipodi:role="line"
             y="0"
             x="0 9.882 20.106001 24.606001 33.372002 49.085999 59.166 69.606003 73.853996 78.353996 94.068001 104.508 114.39 120.888 131.328 135.828 145.728 152.028 156.29401 172.008 181.62 190.278 199.04401 208.65601 212.90401 221.85001 231.92999 242.15401 250.92 260.802 271.242 281.466 291.078 297.396 302.29199 306.54001 317.08801 326.98801 331.79401 336.69 346.57199 356.79599 363.04199 372.94199 381.70801 392.14801 402.37201 412.254 416.50201 426.94199 437.16599 441.88199 450.73801 455.23801 465.46201 475.07401 481.66199 485.92801 495.54001 505.76401 514.81799 521.06403 531.14398">euismod imperdiet massa consequat. Pellentesque pulvinar auctor</tspan></text>
      </g>
    </g>
    <g
       transform="matrix(0.35277777,0,0,-0.35277777,8.6818571,257.65329)"
       id="g1277">
      <g
         clip-path="url(#clipPath1283)"
         id="g1279">
        <text
           id="text1287"
           style="font-variant:normal;font-weight:normal;font-size:18px;font-family:'IBM Plex Sans';-inkscape-font-specification:IBMPlexSans;writing-mode:lr-tb;fill:#000000;fill-opacity:1;fill-rule:nonzero;stroke:none"
           transform="matrix(1,0,0,-1,28,449.78751)"><tspan
             id="tspan1285"
             sodipodi:role="line"
             y="0"
             x="0 9.882 16.398001 26.478001 35.243999 39.492001 48.257999 58.32 63.125999 68.022003 72.522003 81.575996 86.075996 92.393997 102.618 113.058 117.558 127.782 132.03 136.92599 147.006 157.446 167.526 174.20399 180.504 185.004 193.67999">eros sollicitudin lobortis.</tspan></text>
      </g>
    </g>
  </g>
</svg>
