<?xml version="1.0" encoding="UTF-8" standalone="no"?>
<svg
   xmlns:dc="http://purl.org/dc/elements/1.1/"
   xmlns:cc="http://creativecommons.org/ns#"
   xmlns:rdf="http://www.w3.org/1999/02/22-rdf-syntax-ns#"
   xmlns:svg="http://www.w3.org/2000/svg"
   xmlns="http://www.w3.org/2000/svg"
   xmlns:sodipodi="http://sodipodi.sourceforge.net/DTD/sodipodi-0.dtd"
   xmlns:inkscape="http://www.inkscape.org/namespaces/inkscape"
   inkscape:version="1.0 (4035a4f, 2020-05-01)"
   sodipodi:docname="bp001-gs-new.html.svg"
   viewBox="0 0 793.33331 593.69735"
   height="593.69733"
   width="793.33331"
   xml:space="preserve"
   id="svg2"
   version="1.1"><metadata
     id="metadata8"><rdf:RDF><cc:Work
         rdf:about=""><dc:format>image/svg+xml</dc:format><dc:type
           rdf:resource="http://purl.org/dc/dcmitype/StillImage" /><dc:title></dc:title></cc:Work></rdf:RDF></metadata><defs
     id="defs6"><clipPath
       id="clipPath26"
       clipPathUnits="userSpaceOnUse"><path
         id="path24"
         d="m 591,841 h 4 v -4 h -4 z" /></clipPath><clipPath
       id="clipPath32"
       clipPathUnits="userSpaceOnUse"><path
         id="path30"
         d="M 595,841 V 395.727 l -4,4 V 837 Z" /></clipPath><clipPath
       id="clipPath42"
       clipPathUnits="userSpaceOnUse"><path
         id="path40"
         d="m 591,841 h 4 v -4 h -4 z" /></clipPath><clipPath
       id="clipPath48"
       clipPathUnits="userSpaceOnUse"><path
         id="path46"
         d="m 0,841 h 595 l -4,-4 H 4 Z" /></clipPath><clipPath
       id="clipPath62"
       clipPathUnits="userSpaceOnUse"><path
         id="path60"
         d="m 0,399.727 h 4 v -4 H 0 Z" /></clipPath><clipPath
       id="clipPath68"
       clipPathUnits="userSpaceOnUse"><path
         id="path66"
         d="M 0,395.727 V 841 l 4,-4 V 399.727 Z" /></clipPath><clipPath
       id="clipPath78"
       clipPathUnits="userSpaceOnUse"><path
         id="path76"
         d="m 0,399.727 h 4 v -4 H 0 Z" /></clipPath><clipPath
       id="clipPath84"
       clipPathUnits="userSpaceOnUse"><path
         id="path82"
         d="M 595,395.727 H 0 l 4,4 h 587 z" /></clipPath><clipPath
       id="clipPath94"
       clipPathUnits="userSpaceOnUse"><path
         id="path92"
         d="m 4,841 h 587 v -4 H 4 Z" /></clipPath><clipPath
       id="clipPath104"
       clipPathUnits="userSpaceOnUse"><path
         id="path102"
         d="m 591,837 h 4 V 399.727 h -4 z" /></clipPath><clipPath
       id="clipPath114"
       clipPathUnits="userSpaceOnUse"><path
         id="path112"
         d="m 4,399.727 h 587 v -4 H 4 Z" /></clipPath><clipPath
       id="clipPath124"
       clipPathUnits="userSpaceOnUse"><path
         id="path122"
         d="M 0,837 H 4 V 399.727 H 0 Z" /></clipPath><clipPath
       id="clipPath148"
       clipPathUnits="userSpaceOnUse"><path
         id="path146"
         d="m 583,833 h 4 v -4 h -4 z" /></clipPath><clipPath
       id="clipPath154"
       clipPathUnits="userSpaceOnUse"><path
         id="path152"
         d="m 587,833 v -30 l -4,4 v 22 z" /></clipPath><clipPath
       id="clipPath164"
       clipPathUnits="userSpaceOnUse"><path
         id="path162"
         d="m 583,833 h 4 v -4 h -4 z" /></clipPath><clipPath
       id="clipPath170"
       clipPathUnits="userSpaceOnUse"><path
         id="path168"
         d="m 557,833 h 30 l -4,-4 h -22 z" /></clipPath><clipPath
       id="clipPath184"
       clipPathUnits="userSpaceOnUse"><path
         id="path182"
         d="m 557,807 h 4 v -4 h -4 z" /></clipPath><clipPath
       id="clipPath190"
       clipPathUnits="userSpaceOnUse"><path
         id="path188"
         d="m 557,803 v 30 l 4,-4 v -22 z" /></clipPath><clipPath
       id="clipPath200"
       clipPathUnits="userSpaceOnUse"><path
         id="path198"
         d="m 557,807 h 4 v -4 h -4 z" /></clipPath><clipPath
       id="clipPath206"
       clipPathUnits="userSpaceOnUse"><path
         id="path204"
         d="m 587,803 h -30 l 4,4 h 22 z" /></clipPath><clipPath
       id="clipPath216"
       clipPathUnits="userSpaceOnUse"><path
         id="path214"
         d="m 561,833 h 22 v -4 h -22 z" /></clipPath><clipPath
       id="clipPath226"
       clipPathUnits="userSpaceOnUse"><path
         id="path224"
         d="m 583,829 h 4 v -22 h -4 z" /></clipPath><clipPath
       id="clipPath236"
       clipPathUnits="userSpaceOnUse"><path
         id="path234"
         d="m 561,807 h 22 v -4 h -22 z" /></clipPath><clipPath
       id="clipPath246"
       clipPathUnits="userSpaceOnUse"><path
         id="path244"
         d="m 557,829 h 4 v -22 h -4 z" /></clipPath><clipPath
       id="clipPath256"
       clipPathUnits="userSpaceOnUse"><path
         id="path254"
         d="m 562,832 h 20 v -28 h -20 z" /></clipPath><clipPath
       id="clipPath268"
       clipPathUnits="userSpaceOnUse"><path
         id="path266"
         d="M 6,832 H 239 V 804 H 6 Z" /></clipPath><clipPath
       id="clipPath280"
       clipPathUnits="userSpaceOnUse"><path
         id="path278"
         d="M 28,775 H 282.613 V 739.789 H 28 Z" /></clipPath><clipPath
       id="clipPath290"
       clipPathUnits="userSpaceOnUse"><path
         id="path288"
         d="m 300.613,769.398 h 63 v -24 h -63 z" /></clipPath><clipPath
       id="clipPath306"
       clipPathUnits="userSpaceOnUse"><path
         id="path304"
         d="M 0,0 H 595 V 841 H 0 Z" /></clipPath><linearGradient
       id="linearGradient312"
       spreadMethod="pad"
       gradientTransform="matrix(0.75,0,0,-0.75,300.61249,769.4)"
       gradientUnits="userSpaceOnUse"
       y2="32"
       x2="0"
       y1="0"
       x1="0"><stop
         id="stop308"
         offset="0"
         style="stop-opacity:0.09999237;stop-color:#ffffff" /><stop
         id="stop310"
         offset="1"
         style="stop-opacity:0.09999237;stop-color:#ffffff" /></linearGradient><mask
       id="mask314"
       height="1"
       width="1"
       y="0"
       x="0"
       maskUnits="userSpaceOnUse"><g
         id="g322"><g
           id="g320"
           clip-path="url(#clipPath306)"><g
             id="g318"><path
               id="path316"
               style="fill:url(#linearGradient312);fill-opacity:1;fill-rule:nonzero;stroke:none"
               d="M 0,0 H 595 V 841 H 0 Z" /></g></g></g></mask><clipPath
       id="clipPath330"
       clipPathUnits="userSpaceOnUse"><path
         id="path328"
         d="M 0,0 H 595 V 841 H 0 Z" /></clipPath><linearGradient
       id="linearGradient336"
       spreadMethod="pad"
       gradientTransform="matrix(0.75,0,0,-0.75,300.61249,769.4)"
       gradientUnits="userSpaceOnUse"
       y2="32"
       x2="0"
       y1="0"
       x1="0"><stop
         id="stop332"
         offset="0"
         style="stop-opacity:1;stop-color:#bbbbbb" /><stop
         id="stop334"
         offset="1"
         style="stop-opacity:1;stop-color:#000000" /></linearGradient><clipPath
       id="clipPath352"
       clipPathUnits="userSpaceOnUse"><path
         id="path350"
         d="M 26,712 H 81.5 V 684 H 26 Z" /></clipPath><clipPath
       id="clipPath368"
       clipPathUnits="userSpaceOnUse"><path
         id="path366"
         d="m 113,712 h 56.5 V 684 H 113 Z" /></clipPath><clipPath
       id="clipPath388"
       clipPathUnits="userSpaceOnUse"><path
         id="path386"
         d="m 201,712 h 48.5 V 684 H 201 Z" /></clipPath><clipPath
       id="clipPath404"
       clipPathUnits="userSpaceOnUse"><path
         id="path402"
         d="m 281,712 h 25.5 V 684 H 281 Z" /></clipPath><clipPath
       id="clipPath420"
       clipPathUnits="userSpaceOnUse"><path
         id="path418"
         d="M 338,712 H 458 V 684 H 338 Z" /></clipPath><clipPath
       id="clipPath440"
       clipPathUnits="userSpaceOnUse"><path
         id="path438"
         d="m 26,646.5 h 122.5 v -28 H 26 Z" /></clipPath><clipPath
       id="clipPath454"
       clipPathUnits="userSpaceOnUse"><path
         id="path452"
         d="M 56,605 H 270.5 V 577 H 56 Z" /></clipPath><clipPath
       id="clipPath466"
       clipPathUnits="userSpaceOnUse"><path
         id="path464"
         d="M 266,605 H 491 V 577 H 266 Z" /></clipPath><clipPath
       id="clipPath472"
       clipPathUnits="userSpaceOnUse"><path
         id="path470"
         d="M 268,602.5 H 489 V 579 H 268 Z" /></clipPath><clipPath
       id="clipPath488"
       clipPathUnits="userSpaceOnUse"><path
         id="path486"
         d="M 266,605 H 491 V 577 H 266 Z" /></clipPath><clipPath
       id="clipPath502"
       clipPathUnits="userSpaceOnUse"><path
         id="path500"
         d="m 56,581.5 h 170.5 v -28 H 56 Z" /></clipPath><clipPath
       id="clipPath514"
       clipPathUnits="userSpaceOnUse"><path
         id="path512"
         d="m 222,581.5 h 219 v -28 H 222 Z" /></clipPath><clipPath
       id="clipPath520"
       clipPathUnits="userSpaceOnUse"><path
         id="path518"
         d="m 224.5,579 h 214 v -23.5 h -214 z" /></clipPath><clipPath
       id="clipPath540"
       clipPathUnits="userSpaceOnUse"><path
         id="path538"
         d="m 222,581.5 h 219 v -28 H 222 Z" /></clipPath><clipPath
       id="clipPath554"
       clipPathUnits="userSpaceOnUse"><path
         id="path552"
         d="M 56,558 H 278.5 V 530 H 56 Z" /></clipPath><clipPath
       id="clipPath566"
       clipPathUnits="userSpaceOnUse"><path
         id="path564"
         d="M 274,558 H 438.5 V 530 H 274 Z" /></clipPath><clipPath
       id="clipPath572"
       clipPathUnits="userSpaceOnUse"><path
         id="path570"
         d="m 276.5,555.5 h 160 V 532 h -160 z" /></clipPath><clipPath
       id="clipPath588"
       clipPathUnits="userSpaceOnUse"><path
         id="path586"
         d="M 274,558 H 438.5 V 530 H 274 Z" /></clipPath><clipPath
       id="clipPath600"
       clipPathUnits="userSpaceOnUse"><path
         id="path598"
         d="m 28,466.227 h 37.5 v -37.5 H 28 Z" /></clipPath><clipPath
       id="clipPath612"
       clipPathUnits="userSpaceOnUse"><path
         id="path610"
         d="m 69.75,466.227 h 37.5 v -37.5 h -37.5 z" /></clipPath><clipPath
       id="clipPath622"
       clipPathUnits="userSpaceOnUse"><path
         id="path620"
         d="M 111.5,466.227 H 149 v -37.5 h -37.5 z" /></clipPath></defs><sodipodi:namedview
     inkscape:current-layer="g10"
     inkscape:window-maximized="0"
     inkscape:window-y="27"
     inkscape:window-x="0"
     inkscape:cy="560.66663"
     inkscape:cx="396.66666"
     inkscape:zoom="0.77300977"
     fit-margin-bottom="0"
     fit-margin-right="0"
     fit-margin-left="0"
     fit-margin-top="0"
     showgrid="false"
     id="namedview4"
     inkscape:window-height="1185"
     inkscape:window-width="1717"
     inkscape:pageshadow="2"
     inkscape:pageopacity="0"
     guidetolerance="10"
     gridtolerance="10"
     objecttolerance="10"
     borderopacity="1"
     bordercolor="#666666"
     pagecolor="#ffffff" /><g
     transform="matrix(1.3333333,0,0,-1.3333333,0,1121.3333)"
     inkscape:label="bp001-gs-new.html"
     inkscape:groupmode="layer"
     id="g10"><g
       id="g12" /><path
       d="m 0,841 h 4 v -4 H 0 Z"
       style="fill:#d3d3d3;fill-opacity:1;fill-rule:nonzero;stroke:none"
       id="path18" /><g
       id="g20"><g
         clip-path="url(#clipPath26)"
         id="g22"><g
           clip-path="url(#clipPath32)"
           id="g28"><path
             id="path34"
             style="fill:#8c8c8c;fill-opacity:1;fill-rule:nonzero;stroke:none"
             d="m 591,841 h 4 V 395.727 h -4 z" /></g></g></g><g
       id="g36"><g
         clip-path="url(#clipPath42)"
         id="g38"><g
           clip-path="url(#clipPath48)"
           id="g44"><path
             id="path50"
             style="fill:#d3d3d3;fill-opacity:1;fill-rule:nonzero;stroke:none"
             d="m 0,841 h 595 v -4 H 0 Z" /></g></g></g><g
       id="g52"><path
         id="path54"
         style="fill:#8c8c8c;fill-opacity:1;fill-rule:nonzero;stroke:none"
         d="m 591,399.727 h 4 v -4 h -4 z" /></g><g
       id="g56"><g
         clip-path="url(#clipPath62)"
         id="g58"><g
           clip-path="url(#clipPath68)"
           id="g64"><path
             id="path70"
             style="fill:#d3d3d3;fill-opacity:1;fill-rule:nonzero;stroke:none"
             d="M 0,841 H 4 V 395.727 H 0 Z" /></g></g></g><g
       id="g72"><g
         clip-path="url(#clipPath78)"
         id="g74"><g
           clip-path="url(#clipPath84)"
           id="g80"><path
             id="path86"
             style="fill:#8c8c8c;fill-opacity:1;fill-rule:nonzero;stroke:none"
             d="m 0,399.727 h 595 v -4 H 0 Z" /></g></g></g><g
       id="g88"><g
         clip-path="url(#clipPath94)"
         id="g90"><path
           id="path96"
           style="fill:#d3d3d3;fill-opacity:1;fill-rule:nonzero;stroke:none"
           d="m 0,841 h 595 v -4 H 0 Z" /></g></g><g
       id="g98"><g
         clip-path="url(#clipPath104)"
         id="g100"><path
           id="path106"
           style="fill:#8c8c8c;fill-opacity:1;fill-rule:nonzero;stroke:none"
           d="m 591,841 h 4 V 395.727 h -4 z" /></g></g><g
       id="g108"><g
         clip-path="url(#clipPath114)"
         id="g110"><path
           id="path116"
           style="fill:#8c8c8c;fill-opacity:1;fill-rule:nonzero;stroke:none"
           d="m 0,399.727 h 595 v -4 H 0 Z" /></g></g><g
       id="g118"><g
         clip-path="url(#clipPath124)"
         id="g120"><path
           id="path126"
           style="fill:#d3d3d3;fill-opacity:1;fill-rule:nonzero;stroke:none"
           d="M 0,841 H 4 V 395.727 H 0 Z" /></g></g><g
       id="g128"><path
         id="path130"
         style="fill:#00008b;fill-opacity:1;fill-rule:nonzero;stroke:none"
         d="M 4,837 H 591 V 799 H 4 Z" /><path
         id="path132"
         style="fill:#90ee90;fill-opacity:1;fill-rule:nonzero;stroke:none"
         d="M 4,799 H 591 V 715.789 H 4 Z" /><path
         id="path134"
         style="fill:#ffff00;fill-opacity:1;fill-rule:nonzero;stroke:none"
         d="m 4,715.789 h 587 v -35.5 H 4 Z" /><path
         id="path136"
         style="fill:#90ee90;fill-opacity:1;fill-rule:nonzero;stroke:none"
         d="m 4,490.227 h 587 v -90.5 H 4 Z" /><path
         id="path138"
         style="fill:#d3d3d3;fill-opacity:1;fill-rule:nonzero;stroke:none"
         d="m 557,833 h 30 v -30 h -30 z" /><path
         id="path140"
         style="fill:#ffffff;fill-opacity:1;fill-rule:nonzero;stroke:none"
         d="m 557,833 h 4 v -4 h -4 z" /></g><g
       id="g142"><g
         clip-path="url(#clipPath148)"
         id="g144"><g
           clip-path="url(#clipPath154)"
           id="g150"><path
             id="path156"
             style="fill:#aaaaaa;fill-opacity:1;fill-rule:nonzero;stroke:none"
             d="m 583,833 h 4 v -30 h -4 z" /></g></g></g><g
       id="g158"><g
         clip-path="url(#clipPath164)"
         id="g160"><g
           clip-path="url(#clipPath170)"
           id="g166"><path
             id="path172"
             style="fill:#ffffff;fill-opacity:1;fill-rule:nonzero;stroke:none"
             d="m 557,833 h 30 v -4 h -30 z" /></g></g></g><g
       id="g174"><path
         id="path176"
         style="fill:#aaaaaa;fill-opacity:1;fill-rule:nonzero;stroke:none"
         d="m 583,807 h 4 v -4 h -4 z" /></g><g
       id="g178"><g
         clip-path="url(#clipPath184)"
         id="g180"><g
           clip-path="url(#clipPath190)"
           id="g186"><path
             id="path192"
             style="fill:#ffffff;fill-opacity:1;fill-rule:nonzero;stroke:none"
             d="m 557,833 h 4 v -30 h -4 z" /></g></g></g><g
       id="g194"><g
         clip-path="url(#clipPath200)"
         id="g196"><g
           clip-path="url(#clipPath206)"
           id="g202"><path
             id="path208"
             style="fill:#aaaaaa;fill-opacity:1;fill-rule:nonzero;stroke:none"
             d="m 557,807 h 30 v -4 h -30 z" /></g></g></g><g
       id="g210"><g
         clip-path="url(#clipPath216)"
         id="g212"><path
           id="path218"
           style="fill:#ffffff;fill-opacity:1;fill-rule:nonzero;stroke:none"
           d="m 557,833 h 30 v -4 h -30 z" /></g></g><g
       id="g220"><g
         clip-path="url(#clipPath226)"
         id="g222"><path
           id="path228"
           style="fill:#aaaaaa;fill-opacity:1;fill-rule:nonzero;stroke:none"
           d="m 583,833 h 4 v -30 h -4 z" /></g></g><g
       id="g230"><g
         clip-path="url(#clipPath236)"
         id="g232"><path
           id="path238"
           style="fill:#aaaaaa;fill-opacity:1;fill-rule:nonzero;stroke:none"
           d="m 557,807 h 30 v -4 h -30 z" /></g></g><g
       id="g240"><g
         clip-path="url(#clipPath246)"
         id="g242"><path
           id="path248"
           style="fill:#ffffff;fill-opacity:1;fill-rule:nonzero;stroke:none"
           d="m 557,833 h 4 v -30 h -4 z" /></g></g><g
       id="g250"><g
         clip-path="url(#clipPath256)"
         id="g252"><text
           id="text260"
           style="font-variant:normal;font-weight:normal;font-size:18px;font-family:'DejaVu Sans';-inkscape-font-specification:DejaVuSans;writing-mode:lr-tb;fill:#000000;fill-opacity:1;fill-rule:nonzero;stroke:none"
           transform="matrix(1,0,0,-1,564.45001,811.25)"><tspan
             id="tspan258"
             y="0"
             x="0">✕</tspan></text></g></g><g
       id="g262"><g
         clip-path="url(#clipPath268)"
         id="g264"><text
           id="text272"
           style="font-variant:normal;font-weight:600;font-size:18px;font-family:'IBM Plex Sans SemiBold';-inkscape-font-specification:IBMPlexSans-SemiBold;writing-mode:lr-tb;fill:#ffffff;fill-opacity:1;fill-rule:nonzero;stroke:none"
           transform="matrix(1,0,0,-1,8,811.25)"><tspan
             id="tspan270"
             sodipodi:role="line"
             y="0"
             x="0 12.816 23.4 33.534 38.501999 42.75 53.549999 63.612 67.860001 78.444 88.487999 99.089996 105.39 109.638 118.512 122.76 129.528 133.776 146.592 159.408 172.20599 184.608 188.856 199.87199 207.396 217.836">Quoi de neuf ? | GOOD SITE</tspan></text></g></g><g
       id="g274"><g
         clip-path="url(#clipPath280)"
         id="g276"><path
           id="path282"
           style="fill:#000000;fill-opacity:1;fill-rule:nonzero;stroke:none"
           d="m 256.293,740.723 v 33.339 h 22.84 v -6.445 h -15.531 v -6.832 h 13.316 v -6.402 h -13.316 v -7.211 h 15.531 v -6.449 z m -14.086,26.894 v -26.894 h -7.309 v 26.894 h -9.089 v 6.445 h 25.484 v -6.445 z m -35.859,-26.894 v 5.781 h 4.328 v 21.781 h -4.328 v 5.777 h 15.964 v -5.777 h -4.328 v -21.781 h 4.328 v -5.781 z m -17.789,-0.571 c -2.95,0 -5.45,0.493 -7.504,1.481 -2.051,1.015 -3.797,2.324 -5.239,3.914 l 4.809,4.824 c 2.273,-2.547 5.078,-3.82 8.414,-3.82 1.793,0 3.125,0.367 3.988,1.097 0.868,0.735 1.301,1.704 1.301,2.914 0,0.926 -0.258,1.688 -0.769,2.293 -0.516,0.637 -1.555,1.067 -3.125,1.29 l -3.321,0.429 c -3.558,0.446 -6.168,1.516 -7.836,3.203 -1.636,1.688 -2.453,3.93 -2.453,6.735 0,1.496 0.289,2.863 0.867,4.105 0.575,1.242 1.395,2.309 2.45,3.203 1.089,0.891 2.406,1.575 3.945,2.051 1.57,0.512 3.348,0.766 5.336,0.766 2.531,0 4.762,-0.399 6.683,-1.196 1.922,-0.793 3.575,-1.957 4.954,-3.484 l -4.856,-4.875 c -0.801,0.926 -1.781,1.672 -2.933,2.246 -1.122,0.606 -2.551,0.91 -4.282,0.91 -1.633,0 -2.851,-0.289 -3.652,-0.863 -0.801,-0.57 -1.203,-1.367 -1.203,-2.387 0,-1.144 0.305,-1.972 0.914,-2.484 0.641,-0.508 1.668,-0.875 3.078,-1.098 l 3.316,-0.527 c 3.461,-0.539 6.028,-1.606 7.692,-3.199 1.668,-1.559 2.504,-3.789 2.504,-6.688 0,-1.59 -0.289,-3.054 -0.867,-4.394 -0.579,-1.336 -1.426,-2.485 -2.547,-3.438 -1.09,-0.957 -2.453,-1.703 -4.09,-2.246 -1.633,-0.508 -3.492,-0.762 -5.574,-0.762 z m -55.758,33.91 h 12.644 c 2.215,0 4.235,-0.347 6.059,-1.05 1.828,-0.7 3.383,-1.75 4.664,-3.153 1.285,-1.367 2.277,-3.105 2.98,-5.207 0.707,-2.066 1.059,-4.488 1.059,-7.257 0,-2.77 -0.352,-5.207 -1.059,-7.309 -0.703,-2.07 -1.695,-3.805 -2.98,-5.207 -1.281,-1.367 -2.836,-2.402 -4.664,-3.106 -1.824,-0.699 -3.844,-1.05 -6.059,-1.05 h -12.644 z m 12.644,-26.89 c 2.18,0 3.895,0.605 5.149,1.816 1.25,1.207 1.875,3.153 1.875,5.828 v 5.157 c 0,2.675 -0.625,4.617 -1.875,5.828 -1.254,1.211 -2.969,1.816 -5.149,1.816 h -5.336 v -20.445 z m -33.55,-7.02 c -2.211,0 -4.231,0.364 -6.059,1.098 -1.828,0.73 -3.383,1.812 -4.664,3.246 -1.281,1.465 -2.277,3.266 -2.981,5.399 -0.707,2.164 -1.058,4.664 -1.058,7.5 0,2.832 0.351,5.316 1.058,7.449 0.704,2.168 1.7,3.965 2.981,5.398 1.281,1.465 2.836,2.563 4.664,3.297 1.828,0.731 3.848,1.098 6.059,1.098 2.21,0 4.23,-0.367 6.058,-1.098 1.824,-0.734 3.379,-1.832 4.664,-3.297 1.281,-1.433 2.274,-3.23 2.981,-5.398 0.703,-2.133 1.058,-4.617 1.058,-7.449 0,-2.836 -0.355,-5.336 -1.058,-7.5 -0.707,-2.133 -1.7,-3.934 -2.981,-5.399 -1.285,-1.434 -2.84,-2.516 -4.664,-3.246 -1.828,-0.734 -3.848,-1.098 -6.058,-1.098 z m 0,6.446 c 2.21,0 3.925,0.718 5.144,2.152 1.25,1.43 1.875,3.484 1.875,6.16 v 4.969 c 0,2.672 -0.625,4.726 -1.875,6.16 -1.219,1.434 -2.934,2.149 -5.144,2.149 -2.211,0 -3.946,-0.715 -5.196,-2.149 -1.215,-1.434 -1.824,-3.488 -1.824,-6.16 v -4.969 c 0,-2.676 0.609,-4.73 1.824,-6.16 1.25,-1.434 2.985,-2.152 5.196,-2.152 z m -34.372,-6.446 c -2.211,0 -4.23,0.364 -6.058,1.098 -1.828,0.73 -3.383,1.812 -4.664,3.246 -1.281,1.465 -2.278,3.266 -2.981,5.399 -0.707,2.164 -1.058,4.664 -1.058,7.5 0,2.832 0.351,5.316 1.058,7.449 0.703,2.168 1.7,3.965 2.981,5.398 1.281,1.465 2.836,2.563 4.664,3.297 1.828,0.731 3.847,1.098 6.058,1.098 2.211,0 4.231,-0.367 6.059,-1.098 1.824,-0.734 3.379,-1.832 4.664,-3.297 1.281,-1.433 2.274,-3.23 2.981,-5.398 0.703,-2.133 1.058,-4.617 1.058,-7.449 0,-2.836 -0.355,-5.336 -1.058,-7.5 -0.707,-2.133 -1.7,-3.934 -2.981,-5.399 -1.285,-1.434 -2.84,-2.516 -4.664,-3.246 -1.828,-0.734 -3.848,-1.098 -6.059,-1.098 z m 0,6.446 c 2.211,0 3.926,0.718 5.145,2.152 1.25,1.43 1.875,3.484 1.875,6.16 v 4.969 c 0,2.672 -0.625,4.726 -1.875,6.16 -1.219,1.434 -2.934,2.149 -5.145,2.149 -2.211,0 -3.945,-0.715 -5.195,-2.149 -1.215,-1.434 -1.824,-3.488 -1.824,-6.16 v -4.969 c 0,-2.676 0.609,-4.73 1.824,-6.16 1.25,-1.434 2.984,-2.152 5.195,-2.152 z m -26.722,-0.571 h -0.239 c -0.257,-1.687 -1.124,-3.089 -2.597,-4.203 -1.477,-1.117 -3.477,-1.672 -6.012,-1.672 -1.922,0 -3.719,0.364 -5.383,1.098 -1.668,0.73 -3.125,1.812 -4.375,3.246 -1.25,1.434 -2.23,3.219 -2.933,5.352 -0.707,2.132 -1.059,4.601 -1.059,7.402 0,2.801 0.367,5.285 1.106,7.453 0.738,2.164 1.761,3.981 3.078,5.445 1.343,1.465 2.949,2.579 4.808,3.344 1.86,0.762 3.926,1.145 6.203,1.145 3.012,0 5.61,-0.653 7.79,-1.957 2.179,-1.274 3.894,-3.203 5.144,-5.782 l -5.965,-3.39 c -0.512,1.304 -1.312,2.402 -2.402,3.297 -1.09,0.922 -2.613,1.383 -4.567,1.383 -2.277,0 -4.089,-0.653 -5.433,-1.958 -1.348,-1.304 -2.02,-3.359 -2.02,-6.16 v -5.351 c 0,-2.77 0.672,-4.824 2.02,-6.16 1.344,-1.309 3.156,-1.961 5.433,-1.961 0.895,0 1.747,0.097 2.547,0.289 0.801,0.222 1.508,0.539 2.117,0.953 0.606,0.445 1.071,0.972 1.391,1.578 0.356,0.605 0.531,1.32 0.531,2.148 v 1.672 h -6.25 v 6.067 h 13.223 v -18.582 h -6.156 z" /></g></g><g
       id="g284"><g
         clip-path="url(#clipPath290)"
         id="g286"><path
           id="path292"
           style="fill:#0f1418;fill-opacity:1;fill-rule:nonzero;stroke:none"
           d="m 359.863,769.398 h -36 v -24 h 36 c 2.071,0 3.75,1.68 3.75,3.75 v 16.5 c 0,2.075 -1.679,3.75 -3.75,3.75 z" /><path
           id="path294"
           style="fill:#ee802f;fill-opacity:1;fill-rule:nonzero;stroke:none"
           d="m 323.863,769.398 h -19.5 c -2.07,0 -3.75,-1.675 -3.75,-3.75 v -16.5 c 0,-2.07 1.68,-3.75 3.75,-3.75 h 19.5 z" /><path
           id="path296"
           style="fill:#ffffff;fill-opacity:1;fill-rule:nonzero;stroke:none"
           d="m 309.828,751.508 c 0,-1.301 -1.055,-2.36 -2.355,-2.36 -1.305,0 -2.36,1.059 -2.36,2.36 0,1.304 1.055,2.359 2.36,2.359 1.3,0 2.355,-1.055 2.355,-2.359 z m 6.473,-1.738 c -0.309,5.691 -4.871,10.257 -10.571,10.566 -0.335,0.019 -0.617,-0.25 -0.617,-0.59 v -1.769 c 0,-0.309 0.239,-0.571 0.547,-0.59 4.121,-0.266 7.422,-3.563 7.692,-7.688 0.019,-0.308 0.277,-0.551 0.589,-0.551 h 1.77 c 0.336,0 0.605,0.286 0.59,0.622 z m 5.312,-0.012 c -0.308,8.613 -7.238,15.582 -15.894,15.89 -0.332,0.012 -0.606,-0.253 -0.606,-0.589 v -1.77 c 0,-0.316 0.25,-0.574 0.567,-0.59 7.043,-0.289 12.695,-5.941 12.984,-12.98 0.012,-0.317 0.27,-0.571 0.59,-0.571 h 1.769 c 0.332,0 0.602,0.278 0.59,0.61 z" /><path
           id="path298"
           style="fill:#ffffff;fill-opacity:1;fill-rule:nonzero;stroke:none"
           d="m 340.734,752.898 h -2.039 l -1.222,2.028 c -0.094,0.156 -0.18,0.293 -0.266,0.414 -0.082,0.121 -0.168,0.222 -0.258,0.308 -0.082,0.086 -0.172,0.153 -0.269,0.196 -0.09,0.047 -0.192,0.07 -0.301,0.07 h -0.477 v -3.016 h -1.777 v 7.879 h 2.813 c 1.914,0 2.871,-0.715 2.871,-2.14 0,-0.278 -0.043,-0.532 -0.129,-0.766 -0.082,-0.23 -0.203,-0.437 -0.356,-0.625 -0.156,-0.187 -0.34,-0.348 -0.562,-0.484 -0.215,-0.137 -0.457,-0.242 -0.723,-0.321 v -0.019 c 0.117,-0.039 0.231,-0.098 0.34,-0.184 0.109,-0.078 0.215,-0.176 0.316,-0.285 0.106,-0.109 0.203,-0.226 0.293,-0.355 0.094,-0.125 0.18,-0.246 0.258,-0.368 z m -4.832,6.551 v -2.191 h 0.77 c 0.379,0 0.683,0.109 0.914,0.328 0.234,0.223 0.352,0.5 0.352,0.828 0,0.691 -0.411,1.035 -1.235,1.035 z m 5.743,-6.246 v 1.758 c 0.32,-0.27 0.664,-0.469 1.039,-0.606 0.371,-0.132 0.75,-0.199 1.128,-0.199 0.227,0 0.418,0.024 0.586,0.063 0.168,0.039 0.305,0.093 0.414,0.164 0.114,0.074 0.2,0.156 0.254,0.254 0.055,0.097 0.082,0.203 0.082,0.316 0,0.156 -0.043,0.293 -0.132,0.414 -0.086,0.121 -0.207,0.231 -0.36,0.336 -0.152,0.102 -0.332,0.199 -0.539,0.297 -0.211,0.094 -0.433,0.191 -0.676,0.289 -0.617,0.258 -1.074,0.57 -1.379,0.941 -0.3,0.368 -0.449,0.817 -0.449,1.34 0,0.41 0.082,0.762 0.246,1.055 0.164,0.297 0.387,0.539 0.668,0.73 0.289,0.188 0.618,0.329 0.993,0.418 0.371,0.09 0.765,0.137 1.183,0.137 0.41,0 0.774,-0.027 1.09,-0.078 0.316,-0.047 0.609,-0.121 0.879,-0.227 v -1.64 c -0.133,0.09 -0.277,0.172 -0.434,0.242 -0.156,0.07 -0.316,0.125 -0.48,0.168 -0.164,0.051 -0.328,0.082 -0.492,0.105 -0.164,0.024 -0.317,0.036 -0.461,0.036 -0.203,0 -0.387,-0.024 -0.551,-0.063 -0.164,-0.035 -0.305,-0.09 -0.418,-0.16 -0.113,-0.07 -0.199,-0.152 -0.262,-0.25 -0.062,-0.098 -0.094,-0.203 -0.094,-0.324 0,-0.133 0.036,-0.254 0.102,-0.36 0.07,-0.101 0.172,-0.199 0.297,-0.297 0.129,-0.089 0.285,-0.183 0.469,-0.273 0.183,-0.09 0.39,-0.18 0.621,-0.273 0.312,-0.133 0.597,-0.274 0.843,-0.426 0.254,-0.145 0.469,-0.313 0.649,-0.5 0.18,-0.184 0.316,-0.399 0.414,-0.641 0.094,-0.238 0.141,-0.515 0.141,-0.836 0,-0.437 -0.082,-0.808 -0.25,-1.109 -0.168,-0.297 -0.391,-0.539 -0.676,-0.727 -0.285,-0.179 -0.621,-0.312 -1,-0.394 -0.379,-0.078 -0.778,-0.121 -1.199,-0.121 -0.43,0 -0.844,0.039 -1.235,0.109 -0.39,0.074 -0.726,0.184 -1.011,0.332 z m 6.835,0 v 1.758 c 0.321,-0.27 0.665,-0.469 1.04,-0.606 0.375,-0.132 0.75,-0.199 1.132,-0.199 0.223,0 0.418,0.024 0.582,0.063 0.168,0.039 0.305,0.093 0.418,0.164 0.114,0.074 0.196,0.156 0.25,0.254 0.055,0.097 0.082,0.203 0.082,0.316 0,0.156 -0.043,0.293 -0.129,0.414 -0.089,0.121 -0.21,0.231 -0.363,0.336 -0.152,0.102 -0.332,0.199 -0.539,0.297 -0.207,0.094 -0.433,0.191 -0.676,0.289 -0.613,0.258 -1.074,0.57 -1.379,0.941 -0.3,0.368 -0.449,0.817 -0.449,1.34 0,0.41 0.082,0.762 0.246,1.055 0.164,0.297 0.387,0.539 0.672,0.73 0.285,0.188 0.613,0.329 0.988,0.418 0.372,0.09 0.77,0.137 1.184,0.137 0.41,0 0.773,-0.027 1.09,-0.078 0.316,-0.047 0.609,-0.121 0.879,-0.227 v -1.64 c -0.133,0.09 -0.278,0.172 -0.434,0.242 -0.156,0.07 -0.312,0.125 -0.48,0.168 -0.164,0.051 -0.328,0.082 -0.492,0.105 -0.161,0.024 -0.317,0.036 -0.461,0.036 -0.203,0 -0.387,-0.024 -0.551,-0.063 -0.164,-0.035 -0.305,-0.09 -0.418,-0.16 -0.113,-0.07 -0.199,-0.152 -0.262,-0.25 -0.062,-0.098 -0.094,-0.203 -0.094,-0.324 0,-0.133 0.036,-0.254 0.106,-0.36 0.066,-0.101 0.168,-0.199 0.297,-0.297 0.125,-0.089 0.281,-0.183 0.465,-0.273 0.183,-0.09 0.39,-0.18 0.621,-0.273 0.316,-0.133 0.597,-0.274 0.847,-0.426 0.25,-0.145 0.469,-0.313 0.645,-0.5 0.18,-0.184 0.32,-0.399 0.414,-0.641 0.094,-0.238 0.144,-0.515 0.144,-0.836 0,-0.437 -0.085,-0.808 -0.253,-1.109 -0.164,-0.297 -0.391,-0.539 -0.676,-0.727 -0.285,-0.179 -0.621,-0.312 -1,-0.394 -0.379,-0.078 -0.778,-0.121 -1.199,-0.121 -0.43,0 -0.844,0.039 -1.235,0.109 -0.387,0.074 -0.726,0.184 -1.012,0.332 z" /><g
           id="g300"><g
             id="g302" /><g
             mask="url(#mask314)"
             id="g324"><g
               id="g326" /><g
               id="g344"><g
                 id="g342"
                 clip-path="url(#clipPath330)"><g
                   id="g340"><path
                     id="path338"
                     style="fill:url(#linearGradient336);fill-opacity:1;fill-rule:nonzero;stroke:none"
                     d="m 359.863,769.398 h -55.5 c -2.07,0 -3.75,-1.675 -3.75,-3.75 v -16.5 c 0,-2.07 1.68,-3.75 3.75,-3.75 h 55.5 c 2.071,0 3.75,1.68 3.75,3.75 v 16.5 c 0,2.075 -1.679,3.75 -3.75,3.75 z" /></g></g></g></g></g></g></g><g
       id="g346"><g
         clip-path="url(#clipPath352)"
         id="g348"><g
           transform="matrix(1,0,0,-1,0,841)"
           id="g354"><path
             id="path356"
             style="fill:none;stroke:#0000ee;stroke-width:1;stroke-linecap:butt;stroke-linejoin:miter;stroke-miterlimit:10;stroke-dasharray:none;stroke-opacity:1"
             d="M 28,151.5 H 79" /></g><text
           id="text360"
           style="font-variant:normal;font-weight:normal;font-size:18px;font-family:'IBM Plex Sans';-inkscape-font-specification:IBMPlexSans;writing-mode:lr-tb;fill:#0000ee;fill-opacity:1;fill-rule:nonzero;stroke:none"
           transform="matrix(1,0,0,-1,28,691.28751)"><tspan
             id="tspan358"
             sodipodi:role="line"
             y="0"
             x="0 8.8380003 18.917999 25.434 35.316002">Lorem</tspan></text></g></g><g
       id="g362"><g
         clip-path="url(#clipPath368)"
         id="g364"><g
           transform="matrix(1,0,0,-1,0,841)"
           id="g370"><path
             id="path372"
             style="fill:none;stroke:#0000ee;stroke-width:1;stroke-linecap:butt;stroke-linejoin:miter;stroke-miterlimit:10;stroke-dasharray:none;stroke-opacity:1"
             d="m 115,151.5 h 7.5" /></g><g
           transform="matrix(1,0,0,-1,0,841)"
           id="g374"><path
             id="path376"
             style="fill:none;stroke:#0000ee;stroke-width:1;stroke-linecap:butt;stroke-linejoin:miter;stroke-miterlimit:10;stroke-dasharray:none;stroke-opacity:1"
             d="m 126.5,151.5 h 41" /></g><text
           id="text380"
           style="font-variant:normal;font-weight:normal;font-size:18px;font-family:'IBM Plex Sans';-inkscape-font-specification:IBMPlexSans;writing-mode:lr-tb;fill:#0000ee;fill-opacity:1;fill-rule:nonzero;stroke:none"
           transform="matrix(1,0,0,-1,115.025,691.28751)"><tspan
             id="tspan378"
             sodipodi:role="line"
             y="0"
             x="0 7.1999998 17.639999 26.406 36.630001">Ipsum</tspan></text></g></g><g
       id="g382"><g
         clip-path="url(#clipPath388)"
         id="g384"><g
           transform="matrix(1,0,0,-1,0,841)"
           id="g390"><path
             id="path392"
             style="fill:none;stroke:#0000ee;stroke-width:1;stroke-linecap:butt;stroke-linejoin:miter;stroke-miterlimit:10;stroke-dasharray:none;stroke-opacity:1"
             d="M 203.5,151.5 H 247" /></g><text
           id="text396"
           style="font-variant:normal;font-weight:normal;font-size:18px;font-family:'IBM Plex Sans';-inkscape-font-specification:IBMPlexSans;writing-mode:lr-tb;fill:#0000ee;fill-opacity:1;fill-rule:nonzero;stroke:none"
           transform="matrix(1,0,0,-1,203.3625,691.28751)"><tspan
             id="tspan394"
             sodipodi:role="line"
             y="0"
             x="0 12.078 22.158001 27.054001 37.133999">Dolor</tspan></text></g></g><g
       id="g398"><g
         clip-path="url(#clipPath404)"
         id="g400"><g
           transform="matrix(1,0,0,-1,0,841)"
           id="g406"><path
             id="path408"
             style="fill:none;stroke:#0000ee;stroke-width:1;stroke-linecap:butt;stroke-linejoin:miter;stroke-miterlimit:10;stroke-dasharray:none;stroke-opacity:1"
             d="m 283,151.5 h 21.5" /></g><text
           id="text412"
           style="font-variant:normal;font-weight:normal;font-size:18px;font-family:'IBM Plex Sans';-inkscape-font-specification:IBMPlexSans;writing-mode:lr-tb;fill:#0000ee;fill-opacity:1;fill-rule:nonzero;stroke:none"
           transform="matrix(1,0,0,-1,283.08749,691.28751)"><tspan
             id="tspan410"
             sodipodi:role="line"
             y="0"
             x="0 10.458 14.958">Sit</tspan></text></g></g><g
       id="g414"><g
         clip-path="url(#clipPath420)"
         id="g416"><g
           transform="matrix(1,0,0,-1,0,841)"
           id="g422"><path
             id="path424"
             style="fill:none;stroke:#0000ee;stroke-width:1;stroke-linecap:butt;stroke-linejoin:miter;stroke-miterlimit:10;stroke-dasharray:none;stroke-opacity:1"
             d="M 340.5,151.5 H 345" /></g><g
           transform="matrix(1,0,0,-1,0,841)"
           id="g426"><path
             id="path428"
             style="fill:none;stroke:#0000ee;stroke-width:1;stroke-linecap:butt;stroke-linejoin:miter;stroke-miterlimit:10;stroke-dasharray:none;stroke-opacity:1"
             d="m 350.5,151.5 h 105" /></g><text
           id="text432"
           style="font-variant:normal;font-weight:normal;font-size:18px;font-family:'IBM Plex Sans';-inkscape-font-specification:IBMPlexSans;writing-mode:lr-tb;fill:#0000ee;fill-opacity:1;fill-rule:nonzero;stroke:none"
           transform="matrix(1,0,0,-1,340.36249,691.28751)"><tspan
             id="tspan430"
             sodipodi:role="line"
             y="0"
             x="0 12.744 22.968 33.048 37.548 41.796001 52.236 62.136002 66.384003 76.608002 86.489998 96.713997 102.564 106.812">Quoi de neuf ?</tspan></text></g></g><g
       id="g434"><g
         clip-path="url(#clipPath440)"
         id="g436"><text
           id="text444"
           style="font-variant:normal;font-weight:600;font-size:18px;font-family:'IBM Plex Sans SemiBold';-inkscape-font-specification:IBMPlexSans-SemiBold;writing-mode:lr-tb;fill:#000000;fill-opacity:1;fill-rule:nonzero;stroke:none"
           transform="matrix(1,0,0,-1,28,625.72501)"><tspan
             id="tspan442"
             sodipodi:role="line"
             y="0"
             x="0 12.816 23.4 33.534 38.501999 42.75 53.549999 63.612 67.860001 78.444 88.487999 99.089996 105.39 109.638">Quoi de neuf ?</tspan></text></g></g><g
       id="g446"><path
         id="path448"
         style="fill:#000000;fill-opacity:1;fill-rule:nonzero;stroke:none"
         d="m 45.301,593.938 v 0 c 2.043,0 3.699,-1.657 3.699,-3.7 0,-2.043 -1.656,-3.699 -3.699,-3.699 -2.043,0 -3.699,1.656 -3.699,3.699 0,2.043 1.656,3.7 3.699,3.7 z" /><g
         clip-path="url(#clipPath454)"
         id="g450"><text
           id="text458"
           style="font-variant:normal;font-weight:normal;font-size:18px;font-family:'IBM Plex Sans';-inkscape-font-specification:IBMPlexSans;writing-mode:lr-tb;fill:#000000;fill-opacity:1;fill-rule:nonzero;stroke:none"
           transform="matrix(1,0,0,-1,58,584.22501)"><tspan
             id="tspan456"
             sodipodi:role="line"
             y="0"
             x="0 10.8 15.048 25.128 34.181999 40.428001 50.507999 60.948002 67.445999 77.346001 81.594002 92.393997 103.194 113.994 124.794 129.04201 138.65401 142.90199 153.702 164.52 174.744 185.54401 196.34399 200.592 205.84801">2 octobre 2020 à 11h30 : </tspan></text></g></g><g
       id="g460"><g
         clip-path="url(#clipPath466)"
         id="g462"><g
           clip-path="url(#clipPath472)"
           id="g468"><g
             transform="matrix(1,0,0,-1,0,841)"
             id="g474"><path
               id="path476"
               style="fill:none;stroke:#0000ee;stroke-width:1;stroke-linecap:butt;stroke-linejoin:miter;stroke-miterlimit:10;stroke-dasharray:none;stroke-opacity:1"
               d="m 268,259 h 60.5" /></g><g
             transform="matrix(1,0,0,-1,0,841)"
             id="g478"><path
               id="path480"
               style="fill:none;stroke:#0000ee;stroke-width:1;stroke-linecap:butt;stroke-linejoin:miter;stroke-miterlimit:10;stroke-dasharray:none;stroke-opacity:1"
               d="M 332,259 H 489" /></g></g></g></g><g
       id="g482"><g
         clip-path="url(#clipPath488)"
         id="g484"><text
           id="text492"
           style="font-variant:normal;font-weight:normal;font-size:18px;font-family:'IBM Plex Sans';-inkscape-font-specification:IBMPlexSans;writing-mode:lr-tb;fill:#0000ee;fill-opacity:1;fill-rule:nonzero;stroke:none"
           transform="matrix(1,0,0,-1,268.07501,584.22501)"><tspan
             id="tspan490"
             sodipodi:role="line"
             y="0"
             x="0 8.8380003 18.917999 25.434 35.316002 51.029999 55.278 59.778 70.218002 78.984001 89.208 104.922 109.17 119.61 129.69 134.586 144.666 151.254 155.502 164.26801 168.76801 175.086 179.334 188.946 204.66 214.56">Lorem ipsum dolor sit amet</tspan></text></g></g><g
       id="g494"><path
         id="path496"
         style="fill:#000000;fill-opacity:1;fill-rule:nonzero;stroke:none"
         d="m 45.301,570.438 v 0 c 2.043,0 3.699,-1.657 3.699,-3.7 0,-2.043 -1.656,-3.699 -3.699,-3.699 -2.043,0 -3.699,1.656 -3.699,3.699 0,2.043 1.656,3.7 3.699,3.7 z" /><g
         clip-path="url(#clipPath502)"
         id="g498"><text
           id="text506"
           style="font-variant:normal;font-weight:normal;font-size:18px;font-family:'IBM Plex Sans';-inkscape-font-specification:IBMPlexSans;writing-mode:lr-tb;fill:#000000;fill-opacity:1;fill-rule:nonzero;stroke:none"
           transform="matrix(1,0,0,-1,58,560.72501)"><tspan
             id="tspan504"
             sodipodi:role="line"
             y="0"
             x="0 10.8 21.6 25.848 30.348 40.571999 45.071999 55.296001 59.562 70.362 81.162003 91.961998 102.762 107.01 116.622 120.87 131.67 142.47 152.694 156.942 162.198">30 juin 2020 à 12h : </tspan></text></g></g><g
       id="g508"><g
         clip-path="url(#clipPath514)"
         id="g510"><g
           clip-path="url(#clipPath520)"
           id="g516"><g
             transform="matrix(1,0,0,-1,0,841)"
             id="g522"><path
               id="path524"
               style="fill:none;stroke:#0000ee;stroke-width:1;stroke-linecap:butt;stroke-linejoin:miter;stroke-miterlimit:10;stroke-dasharray:none;stroke-opacity:1"
               d="M 224.5,282.5 H 352" /></g><g
             transform="matrix(1,0,0,-1,0,841)"
             id="g526"><path
               id="path528"
               style="fill:none;stroke:#0000ee;stroke-width:1;stroke-linecap:butt;stroke-linejoin:miter;stroke-miterlimit:10;stroke-dasharray:none;stroke-opacity:1"
               d="M 355.5,282.5 H 399" /></g><g
             transform="matrix(1,0,0,-1,0,841)"
             id="g530"><path
               id="path532"
               style="fill:none;stroke:#0000ee;stroke-width:1;stroke-linecap:butt;stroke-linejoin:miter;stroke-miterlimit:10;stroke-dasharray:none;stroke-opacity:1"
               d="m 409.5,282.5 h 29" /></g></g></g></g><g
       id="g534"><g
         clip-path="url(#clipPath540)"
         id="g536"><text
           id="text544"
           style="font-variant:normal;font-weight:normal;font-size:18px;font-family:'IBM Plex Sans';-inkscape-font-specification:IBMPlexSans;writing-mode:lr-tb;fill:#0000ee;fill-opacity:1;fill-rule:nonzero;stroke:none"
           transform="matrix(1,0,0,-1,224.4375,560.72501)"><tspan
             id="tspan542"
             sodipodi:role="line"
             y="0"
             x="0 11.178 21.257999 31.482 40.248001 50.130001 59.183998 65.43 75.311996 81.629997 91.853996 98.459999 102.708 112.32 122.76 127.26 137.7 142.2 150.966 160.02 164.52 174.744 184.23 188.496 198.37801 203.274 207.774">Consectetur adipiscing elit</tspan></text></g></g><g
       id="g546"><path
         id="path548"
         style="fill:#000000;fill-opacity:1;fill-rule:nonzero;stroke:none"
         d="m 45.301,546.938 v 0 c 2.043,0 3.699,-1.657 3.699,-3.7 0,-2.043 -1.656,-3.699 -3.699,-3.699 -2.043,0 -3.699,1.656 -3.699,3.699 0,2.043 1.656,3.7 3.699,3.7 z" /><g
         clip-path="url(#clipPath554)"
         id="g550"><text
           id="text558"
           style="font-variant:normal;font-weight:normal;font-size:18px;font-family:'IBM Plex Sans';-inkscape-font-specification:IBMPlexSans;writing-mode:lr-tb;fill:#000000;fill-opacity:1;fill-rule:nonzero;stroke:none"
           transform="matrix(1,0,0,-1,58,537.22501)"><tspan
             id="tspan556"
             sodipodi:role="line"
             y="0"
             x="0 10.8 21.6 25.848 36.071999 46.007999 54.720001 64.620003 80.334 90.774002 97.290001 107.172 111.42 122.22 133.02 143.82001 154.62 158.868 168.48 172.746 183.54601 194.34599 204.57001 208.81799 214.07401">12 novembre 2015 à 19h : </tspan></text></g></g><g
       id="g560"><g
         clip-path="url(#clipPath566)"
         id="g562"><g
           clip-path="url(#clipPath572)"
           id="g568"><g
             transform="matrix(1,0,0,-1,0,841)"
             id="g574"><path
               id="path576"
               style="fill:none;stroke:#0000ee;stroke-width:1;stroke-linecap:butt;stroke-linejoin:miter;stroke-miterlimit:10;stroke-dasharray:none;stroke-opacity:1"
               d="m 276.5,306 h 70" /></g><g
             transform="matrix(1,0,0,-1,0,841)"
             id="g578"><path
               id="path580"
               style="fill:none;stroke:#0000ee;stroke-width:1;stroke-linecap:butt;stroke-linejoin:miter;stroke-miterlimit:10;stroke-dasharray:none;stroke-opacity:1"
               d="m 350,306 h 86.5" /></g></g></g></g><g
       id="g582"><g
         clip-path="url(#clipPath588)"
         id="g584"><text
           id="text592"
           style="font-variant:normal;font-weight:normal;font-size:18px;font-family:'IBM Plex Sans';-inkscape-font-specification:IBMPlexSans;writing-mode:lr-tb;fill:#0000ee;fill-opacity:1;fill-rule:nonzero;stroke:none"
           transform="matrix(1,0,0,-1,276.29999,537.22501)"><tspan
             id="tspan590"
             sodipodi:role="line"
             y="0"
             x="0 10.458 19.422001 29.304001 34.200001 44.082001 50.688 55.188 63.953999 74.393997 84.617996 94.5 98.748001 109.188 119.268 124.164 134.244 140.85001 145.09801 149.59801">Scelerisque dolor id</tspan></text></g></g><g
       id="g594"><g
         clip-path="url(#clipPath600)"
         id="g596"><path
           id="path602"
           style="fill:#1877f2;fill-opacity:1;fill-rule:nonzero;stroke:none"
           d="m 65.5,447.477 c 0,10.355 -8.395,18.75 -18.75,18.75 -10.355,0 -18.75,-8.395 -18.75,-18.75 0,-9.36 6.855,-17.118 15.82,-18.524 v 13.102 h -4.761 v 5.422 h 4.761 v 4.128 c 0,4.7 2.801,7.297 7.082,7.297 2.051,0 4.2,-0.367 4.2,-0.367 v -4.613 h -2.368 c -2.328,0 -3.054,-1.445 -3.054,-2.93 v -3.515 h 5.199 l -0.832,-5.422 H 49.68 v -13.102 c 8.965,1.406 15.82,9.164 15.82,18.524" /><path
           id="path604"
           style="fill:#ffffff;fill-opacity:1;fill-rule:nonzero;stroke:none"
           d="m 54.047,442.055 0.832,5.422 H 49.68 v 3.515 c 0,1.485 0.726,2.93 3.054,2.93 h 2.368 v 4.613 c 0,0 -2.149,0.367 -4.2,0.367 -4.281,0 -7.082,-2.597 -7.082,-7.297 v -4.128 h -4.761 v -5.422 h 4.761 v -13.102 c 0.953,-0.148 1.934,-0.226 2.93,-0.226 0.996,0 1.977,0.078 2.93,0.226 v 13.102 h 4.367" /></g></g><g
       id="g606"><g
         clip-path="url(#clipPath612)"
         id="g608"><path
           id="path614"
           style="fill:#1da1f2;fill-opacity:1;fill-rule:nonzero;stroke:none"
           d="m 81.543,432.238 c 14.152,0 21.891,11.727 21.891,21.891 0,0.336 0,0.668 -0.024,0.996 1.508,1.09 2.809,2.437 3.84,3.984 -1.402,-0.625 -2.895,-1.031 -4.418,-1.211 1.606,0.961 2.809,2.473 3.383,4.254 -1.512,-0.894 -3.164,-1.527 -4.887,-1.867 -2.387,2.535 -6.176,3.156 -9.242,1.516 -3.07,-1.645 -4.656,-5.141 -3.871,-8.531 -6.184,0.308 -11.949,3.23 -15.856,8.039 -2.043,-3.516 -1,-8.016 2.383,-10.274 -1.222,0.039 -2.422,0.367 -3.492,0.965 0,-0.031 0,-0.066 0,-0.098 0,-3.664 2.582,-6.816 6.172,-7.543 -1.133,-0.308 -2.32,-0.355 -3.473,-0.132 1.008,-3.133 3.895,-5.282 7.188,-5.344 -2.727,-2.141 -6.09,-3.301 -9.555,-3.297 -0.613,0 -1.223,0.035 -1.832,0.109 3.52,-2.257 7.613,-3.457 11.793,-3.449" /></g></g><g
       id="g616"><g
         clip-path="url(#clipPath622)"
         id="g618"><path
           id="path624"
           style="fill:#100f0d;fill-opacity:1;fill-rule:nonzero;stroke:none"
           d="m 130.25,466.227 c -5.094,0 -5.73,-0.024 -7.73,-0.114 -1.997,-0.093 -3.36,-0.41 -4.551,-0.871 -1.235,-0.48 -2.281,-1.121 -3.321,-2.164 -1.043,-1.043 -1.683,-2.09 -2.164,-3.32 -0.464,-1.196 -0.781,-2.555 -0.871,-4.551 -0.09,-2 -0.113,-2.641 -0.113,-7.73 0,-5.094 0.023,-5.731 0.113,-7.731 0.09,-1.996 0.407,-3.359 0.871,-4.555 0.481,-1.23 1.121,-2.277 2.164,-3.32 1.04,-1.043 2.086,-1.683 3.321,-2.16 1.191,-0.465 2.554,-0.781 4.551,-0.875 2,-0.09 2.636,-0.109 7.73,-0.109 5.094,0 5.73,0.019 7.73,0.109 1.997,0.094 3.36,0.41 4.551,0.875 1.235,0.477 2.281,1.117 3.321,2.16 1.043,1.043 1.683,2.09 2.164,3.32 0.464,1.196 0.781,2.559 0.871,4.555 0.09,2 0.113,2.637 0.113,7.731 0,5.089 -0.023,5.73 -0.113,7.73 -0.09,1.996 -0.407,3.355 -0.871,4.551 -0.481,1.23 -1.121,2.277 -2.164,3.32 -1.04,1.043 -2.086,1.684 -3.321,2.164 -1.191,0.461 -2.554,0.778 -4.551,0.871 -2,0.09 -2.636,0.114 -7.73,0.114 z m 0,-3.379 c 5.008,0 5.598,-0.02 7.578,-0.11 1.828,-0.086 2.82,-0.39 3.481,-0.648 0.875,-0.34 1.5,-0.746 2.156,-1.402 0.656,-0.657 1.062,-1.278 1.402,-2.153 0.258,-0.664 0.563,-1.656 0.645,-3.484 0.09,-1.977 0.109,-2.571 0.109,-7.574 0,-5.008 -0.019,-5.602 -0.109,-7.579 -0.082,-1.828 -0.387,-2.82 -0.645,-3.48 -0.34,-0.875 -0.746,-1.5 -1.402,-2.156 -0.656,-0.657 -1.281,-1.063 -2.156,-1.403 -0.661,-0.257 -1.653,-0.562 -3.481,-0.648 -1.976,-0.09 -2.57,-0.109 -7.578,-0.109 -5.008,0 -5.602,0.019 -7.578,0.109 -1.828,0.086 -2.82,0.391 -3.481,0.648 -0.875,0.34 -1.5,0.746 -2.156,1.403 -0.656,0.656 -1.062,1.281 -1.402,2.156 -0.258,0.66 -0.563,1.652 -0.645,3.48 -0.09,1.977 -0.109,2.571 -0.109,7.579 0,5.003 0.019,5.597 0.109,7.574 0.082,1.828 0.387,2.82 0.645,3.484 0.34,0.875 0.746,1.496 1.402,2.153 0.656,0.656 1.281,1.062 2.156,1.402 0.661,0.258 1.653,0.562 3.481,0.648 1.98,0.09 2.57,0.11 7.578,0.11" /><path
           id="path626"
           style="fill:#100f0d;fill-opacity:1;fill-rule:nonzero;stroke:none"
           d="m 130.25,441.227 c -3.453,0 -6.25,2.796 -6.25,6.25 0,3.449 2.797,6.25 6.25,6.25 3.453,0 6.25,-2.801 6.25,-6.25 0,-3.454 -2.797,-6.25 -6.25,-6.25 z m 0,15.875 c -5.316,0 -9.629,-4.309 -9.629,-9.625 0,-5.321 4.313,-9.629 9.629,-9.629 5.316,0 9.629,4.308 9.629,9.629 0,5.316 -4.313,9.625 -9.629,9.625" /><path
           id="path628"
           style="fill:#100f0d;fill-opacity:1;fill-rule:nonzero;stroke:none"
           d="m 142.508,457.484 c 0,-1.242 -1.008,-2.25 -2.25,-2.25 -1.242,0 -2.25,1.008 -2.25,2.25 0,1.243 1.008,2.25 2.25,2.25 1.242,0 2.25,-1.007 2.25,-2.25" /></g></g></g></svg>
