<?xml version="1.0" encoding="utf-8"?>
<svg xmlns:dc="http://purl.org/dc/elements/1.1/" xmlns:cc="http://creativecommons.org/ns#" xmlns:rdf="http://www.w3.org/1999/02/22-rdf-syntax-ns#" xmlns:svg="http://www.w3.org/2000/svg" xmlns="http://www.w3.org/2000/svg" version="1.1" xml:space="preserve" width="742.667" height="487.438" viewBox="0 0 742.66656 487.4375"><defs><clipPath clipPathUnits="userSpaceOnUse" id="clipPath18"><path d="M 116.667,116.667 H 2437.5 V 3185.046 H 116.667 Z" style="clip-rule:evenodd"/></clipPath><clipPath clipPathUnits="userSpaceOnUse" id="clipPath90"><path d="M 116.667,116.667 H 2437.5 V 3187.5 H 116.667 Z"/></clipPath><clipPath clipPathUnits="userSpaceOnUse" id="clipPath96"><path d="M 116.667,116.667 H 2437.5 V 3185.046 H 116.667 Z"/></clipPath><clipPath clipPathUnits="userSpaceOnUse" id="clipPath102"><path d="M 2437.5,116.667 H 116.667 V 3185.046 H 2437.5 Z M 646.317,576.454 h -21.025 v 13.762 h 21.025 z" style="clip-rule:evenodd"/></clipPath><clipPath clipPathUnits="userSpaceOnUse" id="clipPath114"><path d="M 116.667,116.667 H 2437.5 V 3185.046 H 116.667 Z" style="clip-rule:evenodd"/></clipPath><clipPath clipPathUnits="userSpaceOnUse" id="clipPath128"><path d="M 116.667,116.667 H 2437.5 V 3187.5 H 116.667 Z"/></clipPath><clipPath clipPathUnits="userSpaceOnUse" id="clipPath134"><path d="M 116.667,116.667 H 2437.5 V 3185.046 H 116.667 Z"/></clipPath><clipPath clipPathUnits="userSpaceOnUse" id="clipPath140"><path d="M 2437.5,116.667 H 116.667 V 3185.046 H 2437.5 Z M 1010.485,576.454 h -29.052 v 13.762 h 29.052 z" style="clip-rule:evenodd"/></clipPath><clipPath clipPathUnits="userSpaceOnUse" id="clipPath152"><path d="M 116.667,116.667 H 2437.5 V 3185.046 H 116.667 Z" style="clip-rule:evenodd"/></clipPath><clipPath clipPathUnits="userSpaceOnUse" id="clipPath166"><path d="m 1596.12,495.131 h 262.736 v 100.09 h -262.736 z" style="clip-rule:evenodd"/></clipPath><clipPath clipPathUnits="userSpaceOnUse" id="clipPath180"><path d="m 383,649 h 64 v 25 h -64 z"/></clipPath><linearGradient x1="0" y1="0" x2="0" y2="32" gradientUnits="userSpaceOnUse" gradientTransform="matrix(0.751,0,0,-0.751,383.069,673.168)" spreadMethod="pad" id="linearGradient186"><stop style="stop-opacity:0.102;stop-color:#ffffff" offset="0"/><stop style="stop-opacity:0.102;stop-color:#ffffff" offset="1"/></linearGradient><linearGradient x1="0" y1="0" x2="0" y2="32" gradientUnits="userSpaceOnUse" gradientTransform="matrix(0.751,0,0,-0.751,383.069,673.168)" spreadMethod="pad" id="linearGradient192"><stop style="stop-opacity:1;stop-color:#bbbbbb" offset="0"/><stop style="stop-opacity:1;stop-color:#000000" offset="1"/></linearGradient><pattern patternTransform="matrix(0.31971276,0,0,0.31971276,-510.29981,-158.29982)" patternUnits="userSpaceOnUse" width="64" height="25" id="pattern209"><defs><mask maskUnits="userSpaceOnUse" width="1" height="1" id="_mask0"><g><g clip-path="url(#clipPath180)"><path d="m 383,649 64,0 0,25 -64,0 0,-25 z" style="fill:url(#linearGradient186);fill-opacity:1;fill-rule:evenodd;stroke:none"/></g></g></mask></defs><g mask="url(#_mask0)"><path d="m 383,649 64,0 0,25 -64,0 0,-25 z" style="fill:url(#linearGradient192);fill-opacity:1;fill-rule:evenodd;stroke:none"/></g></pattern><clipPath clipPathUnits="userSpaceOnUse" id="clipPath219"><path d="M 116.667,116.667 H 2437.5 V 3185.046 H 116.667 Z" style="clip-rule:evenodd"/></clipPath><clipPath clipPathUnits="userSpaceOnUse" id="clipPath245"><path d="m 232.396,1342.767 h 156.39 v 156.39 H 232.396 Z" style="clip-rule:evenodd"/></clipPath><clipPath clipPathUnits="userSpaceOnUse" id="clipPath259"><path d="M 116.667,116.667 H 2437.5 V 3185.046 H 116.667 Z" style="clip-rule:evenodd"/></clipPath><clipPath clipPathUnits="userSpaceOnUse" id="clipPath269"><path d="m 407.553,1342.767 h 156.39 v 156.39 H 407.553 Z" style="clip-rule:evenodd"/></clipPath><clipPath clipPathUnits="userSpaceOnUse" id="clipPath281"><path d="M 116.667,116.667 H 2437.5 V 3185.046 H 116.667 Z" style="clip-rule:evenodd"/></clipPath><clipPath clipPathUnits="userSpaceOnUse" id="clipPath291"><path d="M 582.71,1342.767 H 739.1 v 156.39 H 582.71 Z" style="clip-rule:evenodd"/></clipPath></defs><g transform="matrix(0.32,0,0,0.32,-37.333,-37.333)"><g><g clip-path="url(#clipPath18)"><g transform="matrix(3.128,0,0,3.128,116.667,116.667)"><path d="M 0,0 H 742 V 5 H 0 Z" style="fill:#d3d3d3;fill-opacity:1;fill-rule:nonzero;stroke:none"/><path d="m 0,482 h 742 v 5 H 0 Z" style="fill:#7f7f7f;fill-opacity:1;fill-rule:nonzero;stroke:none"/><path d="m 737,5 v 482 h 5 V 0" style="fill:#7f7f7f;fill-opacity:1;fill-rule:nonzero;stroke:none"/><path d="m 0,0 v 487 l 5,-5 V 0" style="fill:#d3d3d3;fill-opacity:1;fill-rule:nonzero;stroke:none"/><path d="M 5,5 H 737 V 56 H 5 Z" style="fill:#00008b;fill-opacity:1;fill-rule:nonzero;stroke:none"/><path d="m 5,56 h 732 v 57 H 5 Z" style="fill:#d3d3d3;fill-opacity:1;fill-rule:nonzero;stroke:none"/><path d="m 5,113 h 732 v 55 H 5 Z" style="fill:#ffd6b8;fill-opacity:1;fill-rule:nonzero;stroke:none"/><path d="M 5,360 H 737 V 481 H 5 Z" style="fill:#ffd6b8;fill-opacity:1;fill-rule:nonzero;stroke:none"/><path d="m 691,11 h 40 v 40 h -40 z" style="fill:#d3d3d3;fill-opacity:1;fill-rule:nonzero;stroke:none"/><path d="m 691,11 h 40 v 5 h -40 z" style="fill:#ffffff;fill-opacity:1;fill-rule:nonzero;stroke:none"/><path d="m 691,46 h 40 v 5 h -40 z" style="fill:#ababab;fill-opacity:1;fill-rule:nonzero;stroke:none"/><path d="m 726,16 v 35 h 5 V 11" style="fill:#ababab;fill-opacity:1;fill-rule:nonzero;stroke:none"/><path d="m 691,11 v 40 l 5,-5 V 11" style="fill:#ffffff;fill-opacity:1;fill-rule:nonzero;stroke:none"/><text transform="translate(701.344,39)" style="font-variant:normal;font-weight:normal;font-size:24px;font-family:'DejaVu Sans';-inkscape-font-specification:DejaVuSans;writing-mode:lr-tb;fill:#000000;fill-opacity:1;fill-rule:nonzero;stroke:none"><tspan>✕</tspan></text><text transform="translate(10.656,40)" style="font-variant:normal;font-weight:600;font-size:24px;font-family:'IBM Plex Sans';-inkscape-font-specification:IBMPlexSans-SemiBold;writing-mode:lr-tb;fill:#ffffff;fill-opacity:1;fill-rule:nonzero;stroke:none"><tspan x="0 12.264 25.776 35.088 48.48 69.792 75.456 85.608 100.008 111.984 126.096 147.408 153.072 162.096 167.76 184.847 201.935 219.023 235.559 241.223 255.887 265.919 279.839">Lorem Ipsum | GOOD SITE</tspan></text><text transform="translate(15.984,96)" style="font-variant:normal;font-weight:normal;font-size:30px;font-family:'IBM Plex Sans';-inkscape-font-specification:IBMPlexSans;writing-mode:lr-tb;fill:#000000;fill-opacity:1;fill-rule:nonzero;stroke:none"><tspan x="0 24.6 31.68 38.76 63.36 70.44">←  →  </tspan></text><text transform="translate(93.504,96)" style="font-variant:normal;font-weight:normal;font-size:30px;font-family:'DejaVu Sans';-inkscape-font-specification:DejaVuSans;writing-mode:lr-tb;fill:#000000;fill-opacity:1;fill-rule:nonzero;stroke:none"><tspan>⟳</tspan></text><path d="M 134.664,99.667 V 69.333 c -1e-5,-0.619 0.118,-1.215 0.355,-1.787 0.237,-0.572 0.574,-1.077 1.012,-1.515 0.438,-0.438 0.943,-0.775 1.515,-1.012 0.572,-0.237 1.168,-0.355 1.787,-0.355 h 543.333 c 0.619,0 1.215,0.118 1.787,0.355 0.572,0.237 1.077,0.574 1.515,1.012 0.438,0.438 0.775,0.943 1.012,1.515 0.237,0.572 0.355,1.168 0.355,1.787 v 30.333 c -6e-5,0.619 -0.119,1.215 -0.355,1.787 -0.237,0.572 -0.574,1.077 -1.012,1.515 -0.438,0.438 -0.943,0.775 -1.515,1.012 -0.572,0.237 -1.168,0.355 -1.787,0.355 H 139.333 c -0.619,-10e-6 -1.215,-0.118 -1.787,-0.355 -0.572,-0.237 -1.077,-0.574 -1.515,-1.012 -0.438,-0.438 -0.775,-0.943 -1.012,-1.515 -0.237,-0.572 -0.355,-1.168 -0.355,-1.787 z" style="fill:#ffffff;fill-opacity:1;fill-rule:nonzero;stroke:none"/><path d="M 134.5,99.667 V 69.333 c 0,-0.641 0.123,-1.257 0.368,-1.85 0.245,-0.592 0.595,-1.115 1.048,-1.568 0.453,-0.453 0.976,-0.802 1.568,-1.048 C 138.076,64.623 138.692,64.5 139.333,64.5 h 543.333 c 0.641,0 1.257,0.123 1.85,0.368 0.592,0.245 1.115,0.595 1.568,1.048 0.453,0.453 0.802,0.976 1.048,1.568 0.245,0.592 0.368,1.209 0.368,1.85 v 30.333 c -6e-5,0.641 -0.123,1.257 -0.368,1.85 -0.245,0.592 -0.594,1.115 -1.048,1.568 -0.453,0.453 -0.976,0.802 -1.568,1.048 -0.592,0.245 -1.209,0.368 -1.85,0.368 H 139.333 c -0.641,-1e-5 -1.258,-0.123 -1.85,-0.368 -0.592,-0.245 -1.115,-0.595 -1.568,-1.048 -0.453,-0.453 -0.802,-0.976 -1.048,-1.568 -0.245,-0.592 -0.368,-1.209 -0.368,-1.85 z" style="fill:none;stroke:#808080;stroke-width:1;stroke-linecap:butt;stroke-linejoin:miter;stroke-miterlimit:10;stroke-dasharray:none;stroke-opacity:1"/><text transform="translate(145.5,93)" style="font-variant:normal;font-weight:normal;font-size:21.6px;font-family:'IBM Plex Sans';-inkscape-font-specification:IBMPlexSans;writing-mode:lr-tb;fill:#000000;fill-opacity:1;fill-rule:nonzero;stroke:none"><tspan x="0 12.265 19.65 27.23 39.754 50.27 56.576 62.254 70.201 81.796 92.744 104.276 123.127 135.651 141.525 152.948 158.605 169.337 181.43 200.281">https://example.com/</tspan></text><text transform="translate(699.016,96)" style="font-variant:normal;font-weight:normal;font-size:30px;font-family:'DejaVu Sans';-inkscape-font-specification:DejaVuSans;writing-mode:lr-tb;fill:#000000;fill-opacity:1;fill-rule:nonzero;stroke:none"><tspan>☰</tspan></text><path d="m 37.328,148 h 68.031 v 2 H 37.328 Z" style="fill:#0000ee;fill-opacity:1;fill-rule:nonzero;stroke:none"/><text transform="translate(37.328,146)" style="font-variant:normal;font-weight:normal;font-size:24px;font-family:'IBM Plex Sans';-inkscape-font-specification:IBMPlexSans;writing-mode:lr-tb;fill:#0000ee;fill-opacity:1;fill-rule:nonzero;stroke:none"><tspan x="0 11.784 25.224 33.912 47.088">Lorem</tspan></text></g></g></g><g><g clip-path="url(#clipPath90)"><g clip-path="url(#clipPath96)"><g clip-path="url(#clipPath102)"><g transform="matrix(3.128,0,0,3.128,116.667,116.667)"><path d="m 153.375,148 h 69.781 v 2 H 153.375 Z" style="fill:#0000ee;fill-opacity:1;fill-rule:nonzero;stroke:none"/></g></g></g></g></g><g><g clip-path="url(#clipPath114)"><g transform="matrix(3.128,0,0,3.128,116.667,116.667)"><text transform="translate(153.375,146)" style="font-variant:normal;font-weight:normal;font-size:24px;font-family:'IBM Plex Sans';-inkscape-font-specification:IBMPlexSans;writing-mode:lr-tb;fill:#0000ee;fill-opacity:1;fill-rule:nonzero;stroke:none"><tspan x="0 9.6 23.52 35.208 48.84">Ipsum</tspan></text></g></g></g><g><g clip-path="url(#clipPath128)"><g clip-path="url(#clipPath134)"><g clip-path="url(#clipPath140)"><g transform="matrix(3.128,0,0,3.128,116.667,116.667)"><path d="m 271.172,148 h 153.813 v 2 h -153.813 z" style="fill:#0000ee;fill-opacity:1;fill-rule:nonzero;stroke:none"/></g></g></g></g></g><g><g clip-path="url(#clipPath152)"><g transform="matrix(3.128,0,0,3.128,116.667,116.667)"><text transform="translate(271.172,146)" style="font-variant:normal;font-weight:normal;font-size:24px;font-family:'IBM Plex Sans';-inkscape-font-specification:IBMPlexSans;writing-mode:lr-tb;fill:#0000ee;fill-opacity:1;fill-rule:nonzero;stroke:none"><tspan x="0 16.992 30.624 44.064 50.064 55.728 69.648 82.824 88.488 102.12 115.296 128.928 136.704 142.368">Quoi de neuf ?</tspan></text></g></g></g><g><g clip-path="url(#clipPath166)"><g transform="matrix(3.128,0,0,3.128,1596.12,495.131)"><path d="M 79,0 H 31 v 32 h 48 c 2.761,0 5,-2.239 5,-5 V 5 C 84,2.239 81.761,0 79,0 Z" style="fill:#0f1418;fill-opacity:1;fill-rule:nonzero;stroke:none"/><path d="M 31,0 H 5 C 2.239,0 0,2.239 0,5 v 22 c 0,2.761 2.239,5 5,5 h 26 z" style="fill:#ee802f;fill-opacity:1;fill-rule:nonzero;stroke:none"/><path d="M 12.29,23.855 C 12.29,25.592 10.882,27 9.145,27 7.408,27 6,25.592 6,23.855 6,22.118 7.408,20.71 9.145,20.71 c 1.737,0 3.145,1.408 3.145,3.145 z M 20.916,26.175 C 20.506,18.584 14.425,12.495 6.825,12.084 6.376,12.06 6,12.42 6,12.87 v 2.361 c 0,0.413 0.319,0.76 0.731,0.787 5.492,0.358 9.894,4.749 10.252,10.252 0.027,0.412 0.373,0.731 0.787,0.731 h 2.361 C 20.58,27 20.94,26.624 20.916,26.175 Z m 7.084,0.014 C 27.587,14.707 18.349,5.415 6.81,5.001 6.367,4.985 6,5.343 6,5.787 V 8.147 C 6,8.571 6.336,8.915 6.759,8.933 16.147,9.318 23.682,16.854 24.067,26.241 24.085,26.664 24.429,27 24.853,27 h 2.36 c 0.444,0 0.802,-0.367 0.786,-0.81 z" style="fill:#ffffff;fill-opacity:1;fill-rule:nonzero;stroke:none"/><path d="m 53.497,22 h -2.717 l -1.633,-2.703 c -0.122,-0.205 -0.239,-0.388 -0.352,-0.549 -0.112,-0.161 -0.227,-0.298 -0.344,-0.41 C 48.338,18.221 48.218,18.133 48.091,18.074 47.969,18.011 47.835,17.979 47.689,17.979 H 47.051 V 22 h -2.366 V 11.497 h 3.75 c 2.549,0 3.823,0.952 3.823,2.856 0,0.366 -0.056,0.706 -0.168,1.018 -0.112,0.308 -0.271,0.586 -0.476,0.835 -0.205,0.249 -0.454,0.464 -0.747,0.645 C 50.579,17.032 50.257,17.173 49.901,17.276 v 0.029 c 0.156,0.049 0.308,0.129 0.454,0.242 0.147,0.107 0.288,0.234 0.425,0.381 0.137,0.147 0.266,0.305 0.388,0.476 0.127,0.166 0.242,0.33 0.344,0.491 z m -6.445,-8.731 v 2.922 h 1.025 c 0.508,0 0.916,-0.146 1.223,-0.44 0.313,-0.298 0.469,-0.667 0.469,-1.106 0,-0.918 -0.549,-1.377 -1.648,-1.377 z m 7.658,8.328 v -2.344 c 0.425,0.356 0.886,0.625 1.384,0.806 0.498,0.176 1.001,0.264 1.509,0.264 0.298,0 0.557,-0.027 0.776,-0.081 0.225,-0.054 0.41,-0.127 0.557,-0.22 0.151,-0.098 0.264,-0.21 0.337,-0.337 0.073,-0.132 0.11,-0.273 0.11,-0.425 0,-0.205 -0.059,-0.388 -0.176,-0.549 C 59.089,18.55 58.928,18.401 58.723,18.265 58.523,18.128 58.284,17.996 58.005,17.869 57.727,17.742 57.427,17.613 57.105,17.481 c -0.82,-0.342 -1.433,-0.759 -1.838,-1.253 -0.4,-0.493 -0.601,-1.089 -0.601,-1.787 0,-0.547 0.11,-1.016 0.33,-1.406 0.22,-0.396 0.518,-0.72 0.894,-0.974 0.381,-0.254 0.82,-0.439 1.318,-0.557 0.498,-0.122 1.025,-0.183 1.582,-0.183 0.547,0 1.03,0.034 1.45,0.103 0.425,0.064 0.815,0.164 1.172,0.3 v 2.19 C 61.235,13.792 61.043,13.685 60.833,13.592 60.627,13.499 60.415,13.423 60.195,13.365 c -0.22,-0.063 -0.439,-0.11 -0.659,-0.139 -0.215,-0.029 -0.42,-0.044 -0.615,-0.044 -0.269,0 -0.513,0.027 -0.732,0.081 -0.22,0.049 -0.405,0.12 -0.557,0.212 -0.151,0.093 -0.269,0.205 -0.352,0.337 -0.083,0.127 -0.125,0.271 -0.125,0.432 0,0.176 0.046,0.334 0.139,0.476 0.093,0.137 0.225,0.269 0.396,0.396 0.171,0.122 0.378,0.244 0.623,0.366 0.244,0.117 0.52,0.239 0.828,0.366 0.42,0.176 0.796,0.364 1.128,0.564 0.337,0.195 0.625,0.418 0.864,0.667 0.239,0.249 0.422,0.535 0.549,0.857 0.127,0.317 0.191,0.688 0.191,1.113 0,0.586 -0.112,1.079 -0.337,1.48 -0.22,0.396 -0.52,0.718 -0.901,0.967 -0.381,0.244 -0.825,0.42 -1.333,0.527 -0.503,0.107 -1.035,0.161 -1.597,0.161 -0.576,0 -1.126,-0.049 -1.648,-0.147 C 55.54,21.939 55.09,21.793 54.709,21.597 Z m 9.116,0 v -2.344 c 0.425,0.356 0.886,0.625 1.384,0.806 0.498,0.176 1.001,0.264 1.509,0.264 0.298,0 0.557,-0.027 0.776,-0.081 0.225,-0.054 0.41,-0.127 0.557,-0.22 0.151,-0.098 0.264,-0.21 0.337,-0.337 0.073,-0.132 0.11,-0.273 0.11,-0.425 0,-0.205 -0.059,-0.388 -0.176,-0.549 C 68.205,18.55 68.044,18.401 67.839,18.265 67.638,18.128 67.399,17.996 67.121,17.869 66.843,17.742 66.542,17.613 66.22,17.481 c -0.82,-0.342 -1.433,-0.759 -1.838,-1.253 -0.4,-0.493 -0.601,-1.089 -0.601,-1.787 0,-0.547 0.11,-1.016 0.33,-1.406 0.22,-0.396 0.517,-0.72 0.894,-0.974 0.381,-0.254 0.82,-0.439 1.318,-0.557 0.498,-0.122 1.025,-0.183 1.582,-0.183 0.547,0 1.03,0.034 1.45,0.103 0.425,0.064 0.815,0.164 1.172,0.3 v 2.19 c -0.176,-0.122 -0.369,-0.23 -0.579,-0.322 -0.205,-0.093 -0.417,-0.169 -0.637,-0.227 -0.22,-0.063 -0.439,-0.11 -0.659,-0.139 -0.215,-0.029 -0.42,-0.044 -0.615,-0.044 -0.269,0 -0.513,0.027 -0.732,0.081 -0.22,0.049 -0.405,0.12 -0.557,0.212 -0.151,0.093 -0.269,0.205 -0.352,0.337 -0.083,0.127 -0.124,0.271 -0.124,0.432 0,0.176 0.046,0.334 0.139,0.476 0.093,0.137 0.225,0.269 0.396,0.396 0.171,0.122 0.378,0.244 0.622,0.366 0.244,0.117 0.52,0.239 0.828,0.366 0.42,0.176 0.796,0.364 1.128,0.564 0.337,0.195 0.625,0.418 0.864,0.667 0.239,0.249 0.422,0.535 0.549,0.857 0.127,0.317 0.19,0.688 0.19,1.113 0,0.586 -0.112,1.079 -0.337,1.48 -0.22,0.396 -0.52,0.718 -0.901,0.967 -0.381,0.244 -0.825,0.42 -1.333,0.527 -0.503,0.107 -1.035,0.161 -1.597,0.161 -0.576,0 -1.126,-0.049 -1.648,-0.147 -0.518,-0.098 -0.967,-0.244 -1.348,-0.439 z" style="fill:#ffffff;fill-opacity:1;fill-rule:nonzero;stroke:none"/><path d="M 79,0 H 5 C 2.239,0 0,2.239 0,5 v 22 c 0,2.761 2.239,5 5,5 h 74 c 2.761,0 5,-2.239 5,-5 V 5 C 84,2.239 81.761,0 79,0 Z" style="fill:url(#pattern209);fill-opacity:1;fill-rule:nonzero;stroke:none"/></g></g></g><g><g clip-path="url(#clipPath219)"><g transform="matrix(3.128,0,0,3.128,116.667,116.667)"><text transform="translate(37.328,225)" style="font-variant:normal;font-weight:normal;font-size:24px;font-family:'IBM Plex Sans';-inkscape-font-specification:IBMPlexSans;writing-mode:lr-tb;fill:#000000;fill-opacity:1;fill-rule:nonzero;stroke:none"><tspan x="0 11.784 25.224 33.912 47.088 68.04 73.704 79.704 93.624 105.312 118.944 139.896 145.56 159.48 172.919 179.447 192.887 201.695 207.359 219.047 225.047 233.471 239.135 251.951 272.903 286.079 294.503 301.031 306.695 318.623 332.063 345.695 357.383 370.559 382.631 390.959 404.135 412.559 426.191 434.999 440.663 453.479 467.399 473.399 487.319 493.319 505.007 517.079 523.079 536.711 549.382 555.046 568.222 574.75 580.75 589.174 595.702 601.366 618.334 631.966 638.374 644.902">Lorem ipsum dolor sit amet, consectetur adipiscing elit. Nulla</tspan></text><text transform="translate(37.328,257)" style="font-variant:normal;font-weight:normal;font-size:24px;font-family:'IBM Plex Sans';-inkscape-font-specification:IBMPlexSans;writing-mode:lr-tb;fill:#000000;fill-opacity:1;fill-rule:nonzero;stroke:none"><tspan x="0 6.528 19.344 31.416 37.416 51.048 57.048 69.864 75.528 83.856 97.032 117.984 131.904 145.536 157.224 162.888 175.775 187.943 194.471 200.135 211.823 217.823 226.247 231.911 244.727 265.679 278.855 287.279 292.943 306.863 320.495 326.783 338.591 344.591 358.223 371.039 379.847 385.511 398.687 410.207 418.631 425.159 430.823 447.791 461.423 467.831 474.359 487.175 492.839 506.471 514.895 520.559 528.983 542.615 551.423 565.343 571.343">lacinia tempus ex, sit amet pulvinar est. Nulla ut turpis</tspan></text><text transform="translate(37.328,289)" style="font-variant:normal;font-weight:normal;font-size:24px;font-family:'IBM Plex Sans';-inkscape-font-specification:IBMPlexSans;writing-mode:lr-tb;fill:#000000;fill-opacity:1;fill-rule:nonzero;stroke:none"><tspan x="0 13.92 27.552 40.368 49.056 62.232 70.656 79.368 92.424 98.952 104.616 116.304 128.232 141.408 147.936 161.112 169.919 175.919 187.607 201.527 215.159 228.335 233.999 247.919 261.359 267.887 281.327 290.135 295.799 301.799 315.719 322.247 327.911 341.831 354.647 368.567 374.567 388.487 402.119 413.807 419.471 425.999 431.999 445.919 459.095 467.783 480.743 487.271 492.935 508.318 521.494 535.126 548.302 561.118 574.75 580.414 592.102 605.278">pharetra, scelerisque dolor id, dapibus libero. Aenean sed</tspan></text><text transform="translate(37.328,321)" style="font-variant:normal;font-weight:normal;font-size:24px;font-family:'IBM Plex Sans';-inkscape-font-specification:IBMPlexSans;writing-mode:lr-tb;fill:#000000;fill-opacity:1;fill-rule:nonzero;stroke:none"><tspan x="0 6.528 19.344 31.416 45.048 56.736 62.4 68.4 89.352 103.272 116.448 125.112 139.032 145.032 158.208 166.632 173.159 178.823 192.743 201.431 214.607 223.031 229.031 242.663 263.615 269.279 275.279 288.911 300.431 308.759 322.199 327.863 339.671 345.671 354.095 366.911 379.607 386.135 391.799 403.727 417.167 430.799 444.719 450.719 471.671 484.847 498.479 506.903 520.534 541.486 547.15 560.782 566.782 578.47 584.47">lacus imperdiet, pretium justo vitae, condimentum nisi.</tspan></text></g></g></g><g><g clip-path="url(#clipPath245)"><g transform="matrix(0.015,0,0,-0.015,232.396,1499.158)"><path d="m 10240,5120 c 0,2827.7 -2292.3,5120 -5120,5120 C 2292.3,10240 0,7947.7 0,5120 0,2564.46 1872.31,446.301 4320,62.199 V 3640 H 3020 v 1480 h 1300 v 1128 c 0,1283.2 764.38,1992 1933.9,1992 C 6814.07,8240 7400,8140 7400,8140 V 6880 H 6754.38 C 6118.35,6880 5920,6485.33 5920,6080.43 V 5120 H 7340 L 7113,3640 H 5920 V 62.199 C 8367.69,446.301 10240,2564.46 10240,5120" style="fill:#1877f2;fill-opacity:1;fill-rule:nonzero;stroke:none"/><path d="m 7113,3640 227,1480 H 5920 v 960.43 C 5920,6485.33 6118.35,6880 6754.38,6880 H 7400 v 1260 c 0,0 -585.93,100 -1146.1,100 C 5084.38,8240 4320,7531.2 4320,6248 V 5120 H 3020 V 3640 H 4320 V 62.199 C 4580.67,21.301 4847.84,0 5120,0 c 272.16,0 539.33,21.301 800,62.199 V 3640 h 1193" style="fill:#ffffff;fill-opacity:1;fill-rule:nonzero;stroke:none"/></g></g></g><g><g clip-path="url(#clipPath259)"/></g><g><g clip-path="url(#clipPath269)"><g transform="matrix(0.626,0,0,0.626,407.553,1342.767)"><path d="m 78.62,226.569 c 94.34,0 145.94,-78.16 145.94,-145.94 0,-2.22 0,-4.43 -0.15,-6.63 10.119,-7.319 18.649,-16.169 25.59,-26.55 -9.414,4.171 -19.234,6.861 -29.46,8.07 5.354,-3.205 9.972,-7.25 13.855,-12.135 3.883,-4.885 6.781,-10.296 8.695,-16.235 -10.142,6.018 -20.999,10.168 -32.57,12.45 -3.867,-4.112 -8.291,-7.494 -13.273,-10.146 -4.982,-2.652 -10.258,-4.435 -15.828,-5.347 -5.57,-0.912 -11.139,-0.906 -16.707,0.018 -5.568,0.924 -10.84,2.718 -15.816,5.381 -4.976,2.663 -9.393,6.055 -13.251,10.175 -3.858,4.12 -6.952,8.75 -9.283,13.891 -2.331,5.14 -3.774,10.519 -4.331,16.136 -0.557,5.617 -0.197,11.174 1.079,16.672 C 112.914,85.868 102.882,84.302 93.015,81.681 83.149,79.06 73.662,75.441 64.556,70.825 55.451,66.209 46.925,60.696 38.978,54.286 31.032,47.877 23.839,40.711 17.4,32.789 c -1.625,2.798 -2.974,5.723 -4.046,8.776 -1.072,3.053 -1.848,6.179 -2.329,9.378 -0.481,3.199 -0.658,6.416 -0.53,9.649 0.127,3.233 0.556,6.425 1.287,9.577 0.731,3.152 1.751,6.207 3.06,9.166 1.309,2.959 2.883,5.769 4.723,8.43 1.84,2.661 3.913,5.126 6.22,7.396 2.306,2.269 4.805,4.302 7.495,6.099 C 24.998,101.013 17.238,98.873 10,94.839 c 0,0.21 0,0.43 0,0.65 8.06e-4,2.939 0.252,5.856 0.754,8.751 0.502,2.895 1.247,5.727 2.236,8.494 0.989,2.767 2.206,5.43 3.652,7.989 1.446,2.558 3.1,4.975 4.961,7.249 1.861,2.274 3.903,4.373 6.125,6.296 2.222,1.923 4.591,3.643 7.109,5.159 2.517,1.516 5.146,2.807 7.885,3.871 2.739,1.065 5.549,1.888 8.429,2.47 -7.652,2.087 -15.372,2.38 -23.16,0.88 1.639,5.096 4.016,9.82 7.132,14.172 3.116,4.352 6.822,8.125 11.118,11.319 4.296,3.193 8.977,5.655 14.043,7.384 5.066,1.729 10.275,2.644 15.627,2.745 -9.081,7.137 -19.081,12.591 -29.998,16.362 -10.918,3.771 -22.151,5.65 -33.702,5.638 C 8.126,204.261 4.056,204.014 2.861e-6,203.529 11.728,211.055 24.28,216.775 37.655,220.688 c 13.375,3.913 27.03,5.86 40.965,5.841" style="fill:#1da1f2;fill-opacity:1;fill-rule:nonzero;stroke:none"/></g></g></g><g><g clip-path="url(#clipPath281)"/></g><g><g clip-path="url(#clipPath291)"><g transform="matrix(0.031,0,0,-0.031,582.71,1499.158)"><path d="m 2519.21,5038.41 c -684.18,0 -769.97,-2.9 -1038.67,-15.16 C 1212.4,5011.02 1029.27,4968.43 869.027,4906.16 703.367,4841.78 562.879,4755.64 422.824,4615.59 282.773,4475.54 196.633,4335.04 132.254,4169.38 69.98,4009.14 27.395,3826.01 15.156,3557.87 2.898,3289.17 0,3203.38 0,2519.2 0,1835.03 2.898,1749.24 15.156,1480.54 27.395,1212.4 69.98,1029.27 132.254,869.031 196.633,703.371 282.773,562.879 422.824,422.82 562.879,282.77 703.367,196.629 869.027,132.25 1029.27,69.98 1212.4,27.391 1480.54,15.16 1749.24,2.902 1835.03,0 2519.21,0 c 684.17,0 769.96,2.902 1038.66,15.16 268.14,12.23 451.27,54.82 611.51,117.09 165.66,64.379 306.15,150.52 446.21,290.57 140.05,140.059 226.19,280.551 290.57,446.211 62.27,160.239 104.86,343.369 117.09,611.509 12.26,268.7 15.16,354.49 15.16,1038.66 0,684.18 -2.9,769.97 -15.16,1038.67 -12.23,268.14 -54.82,451.27 -117.09,611.51 -64.38,165.66 -150.52,306.16 -290.57,446.21 -140.06,140.05 -280.55,226.19 -446.21,290.57 -160.24,62.27 -343.37,104.86 -611.51,117.09 -268.7,12.26 -354.49,15.16 -1038.66,15.16 z m 0,-453.91 c 672.65,0 752.33,-2.57 1017.97,-14.69 245.62,-11.2 379.01,-52.24 467.78,-86.74 117.59,-45.7 201.51,-100.29 289.66,-188.44 88.16,-88.16 142.75,-172.08 188.45,-289.67 34.5,-88.77 75.54,-222.16 86.74,-467.78 12.12,-265.64 14.69,-345.32 14.69,-1017.98 0,-672.65 -2.57,-752.33 -14.69,-1017.97 -11.2,-245.62 -52.24,-379.01 -86.74,-467.78 -45.7,-117.591 -100.29,-201.509 -188.45,-289.661 -88.15,-88.16 -172.07,-142.75 -289.66,-188.449 -88.77,-34.5 -222.16,-75.539 -467.78,-86.738 -265.6,-12.122 -345.27,-14.692 -1017.97,-14.692 -672.71,0 -752.37,2.57 -1017.98,14.692 -245.62,11.199 -379.01,52.238 -467.78,86.738 -117.591,45.699 -201.509,100.289 -289.661,188.449 -88.152,88.152 -142.75,172.07 -188.449,289.661 -34.5,88.77 -75.535,222.16 -86.742,467.78 -12.121,265.64 -14.688,345.32 -14.688,1017.97 0,672.66 2.567,752.34 14.688,1017.98 11.207,245.62 52.242,379.01 86.742,467.78 45.699,117.59 100.293,201.51 188.445,289.66 88.156,88.16 172.074,142.75 289.665,188.45 88.77,34.5 222.16,75.54 467.78,86.74 265.64,12.12 345.32,14.69 1017.98,14.69" style="fill:#100f0d;fill-opacity:1;fill-rule:nonzero;stroke:none"/><path d="m 2519.21,1679.47 c -463.78,0 -839.74,375.96 -839.74,839.73 0,463.78 375.96,839.74 839.74,839.74 463.77,0 839.73,-375.96 839.73,-839.74 0,-463.77 -375.96,-839.73 -839.73,-839.73 z m 0,2133.38 c -714.47,0 -1293.65,-579.18 -1293.65,-1293.65 0,-714.46 579.18,-1293.64 1293.65,-1293.64 714.46,0 1293.64,579.18 1293.64,1293.64 0,714.47 -579.18,1293.65 -1293.64,1293.65" style="fill:#100f0d;fill-opacity:1;fill-rule:nonzero;stroke:none"/><path d="m 4166.27,3863.96 c 0,-166.96 -135.35,-302.3 -302.31,-302.3 -166.95,0 -302.3,135.34 -302.3,302.3 0,166.96 135.35,302.31 302.3,302.31 166.96,0 302.31,-135.35 302.31,-302.31" style="fill:#100f0d;fill-opacity:1;fill-rule:nonzero;stroke:none"/></g></g></g></g></svg>
