<?xml version="1.0" encoding="utf-8"?>
<svg xmlns:dc="http://purl.org/dc/elements/1.1/" xmlns:cc="http://creativecommons.org/ns#" xmlns:rdf="http://www.w3.org/1999/02/22-rdf-syntax-ns#" xmlns:svg="http://www.w3.org/2000/svg" xmlns="http://www.w3.org/2000/svg" viewBox="0 0 742.66656 799.71777" height="799.718" width="742.667" xml:space="preserve" version="1.1"><defs><clipPath id="clipPath22" clipPathUnits="userSpaceOnUse"><path d="M 0,0 H 557 V 600 H 0 Z"/></clipPath><clipPath id="clipPath120" clipPathUnits="userSpaceOnUse"><path d="M 0,0 H 557 V 600 H 0 Z"/></clipPath><clipPath id="clipPath132" clipPathUnits="userSpaceOnUse"><path d="M 0,0 H 557 V 600 H 0 Z"/></clipPath><clipPath id="clipPath144" clipPathUnits="userSpaceOnUse"><path d="M 0,0 H 557 V 600 H 0 Z"/></clipPath><clipPath id="clipPath158" clipPathUnits="userSpaceOnUse"><path d="M 0,0 H 557 V 600 H 0 Z"/></clipPath><clipPath id="clipPath224" clipPathUnits="userSpaceOnUse"><path d="M 0,0 H 557 V 600 H 0 Z"/></clipPath><clipPath id="clipPath236" clipPathUnits="userSpaceOnUse"><path d="M 0,0 H 557 V 600 H 0 Z"/></clipPath><clipPath id="clipPath248" clipPathUnits="userSpaceOnUse"><path d="M 0,0 H 557 V 600 H 0 Z"/></clipPath><clipPath id="clipPath262" clipPathUnits="userSpaceOnUse"><path d="M 0,0 H 557 V 600 H 0 Z"/></clipPath></defs><g transform="matrix(1.333,0,0,1.333,0,1.666e-5)"><g><g><g><g clip-path="url(#clipPath22)"><g><path style="fill:#d3d3d3;fill-opacity:1;fill-rule:nonzero;stroke:none" d="M 0,0 H 557 V 599.789 H 0 Z"/><path style="fill:#eeeeee;fill-opacity:1;fill-rule:nonzero;stroke:none" d="M 0,0 H 557 V 2.254 H 0 Z"/><path style="fill:#9a9a9a;fill-opacity:1;fill-rule:nonzero;stroke:none" d="m 0,597.535 h 557 v 2.254 H 0 Z"/><path style="fill:#9a9a9a;fill-opacity:1;fill-rule:nonzero;stroke:none" d="M 554.746,2.254 V 599.789 H 557 V 0"/><path style="fill:#eeeeee;fill-opacity:1;fill-rule:nonzero;stroke:none" d="m 0,0 v 599.789 l 2.254,-2.254 V 0"/><path style="fill:#00008b;fill-opacity:1;fill-rule:nonzero;stroke:none" d="M 5.254,5.254 H 551.746 V 43.539 H 5.254 Z"/><path style="fill:#d3d3d3;fill-opacity:1;fill-rule:nonzero;stroke:none" d="M 5.254,43.539 H 551.746 V 86.328 H 5.254 Z"/><path style="fill:#ffffff;fill-opacity:1;fill-rule:nonzero;stroke:none" d="M 5.254,86.328 H 551.746 V 593.781 H 5.254 Z"/><path style="fill:#9a9a9a;fill-opacity:1;fill-rule:nonzero;stroke:none" d="m 5.254,86.328 h 546.492 v 2.25 H 5.254 Z"/><path style="fill:#eeeeee;fill-opacity:1;fill-rule:nonzero;stroke:none" d="m 5.254,591.531 h 546.492 v 2.25 H 5.254 Z"/><path style="fill:#eeeeee;fill-opacity:1;fill-rule:nonzero;stroke:none" d="m 549.492,88.578 v 505.203 h 2.254 V 86.328"/><path style="fill:#9a9a9a;fill-opacity:1;fill-rule:nonzero;stroke:none" d="m 5.254,86.328 v 507.453 l 2.254,-2.25 V 86.328"/><path style="fill:#ffd6b8;fill-opacity:1;fill-rule:nonzero;stroke:none" d="m 8.258,89.332 h 540.484 v 36.031 H 8.258 Z"/><path style="fill:#ffd6b8;fill-opacity:1;fill-rule:nonzero;stroke:none" d="m 8.258,519.465 h 540.484 v 72.066 H 8.258 Z"/><path style="fill:#d3d3d3;fill-opacity:1;fill-rule:nonzero;stroke:none" d="m 517.215,9.758 h 30.027 v 30.027 h -30.027 z"/><path style="fill:#ffffff;fill-opacity:1;fill-rule:nonzero;stroke:none" d="m 517.215,9.758 h 30.027 v 3.754 h -30.027 z"/><path style="fill:#ababab;fill-opacity:1;fill-rule:nonzero;stroke:none" d="m 517.215,36.031 h 30.027 v 3.754 h -30.027 z"/><path style="fill:#ababab;fill-opacity:1;fill-rule:nonzero;stroke:none" d="m 543.488,13.512 v 26.273 h 3.754 V 9.758"/><path style="fill:#ffffff;fill-opacity:1;fill-rule:nonzero;stroke:none" d="m 517.215,9.758 v 30.027 l 3.754,-3.754 V 9.758"/><text style="font-variant:normal;font-weight:normal;font-size:18.016px;font-family:'DejaVu Sans';-inkscape-font-specification:DejaVuSans;writing-mode:lr-tb;fill:#000000;fill-opacity:1;fill-rule:nonzero;stroke:none" transform="translate(524.979,30.778)"><tspan>✕</tspan></text><text style="font-variant:normal;font-weight:600;font-size:18.016px;font-family:'IBM Plex Sans SemiBold';-inkscape-font-specification:IBMPlexSans-SemiBold;writing-mode:lr-tb;fill:#ffffff;fill-opacity:1;fill-rule:nonzero;stroke:none" transform="translate(9.501,31.528)"><tspan x="0 11.188 21.331 26.628 31.6 38.338 43.311 54.121 64.714 74.767 79.019 89.829 99.882 104.133 113.286 123.429">Politique de con</tspan></text><text style="font-variant:normal;font-weight:600;font-size:18.016px;font-family:'IBM Plex Sans SemiBold';-inkscape-font-specification:IBMPlexSans-SemiBold;writing-mode:lr-tb;fill:#ffffff;fill-opacity:1;fill-rule:nonzero;stroke:none" transform="translate(143.523,31.528)"><tspan>ﬁ</tspan></text><text style="font-variant:normal;font-weight:600;font-size:18.016px;font-family:'IBM Plex Sans SemiBold';-inkscape-font-specification:IBMPlexSans-SemiBold;writing-mode:lr-tb;fill:#ffffff;fill-opacity:1;fill-rule:nonzero;stroke:none" transform="translate(154.765,31.528)"><tspan x="0 10.81 20.863 31.456 38.194 43.167 53.238 58.535 63.507 70.173 80.226 84.478 91.252 95.504 108.331 121.159 133.986 146.399 150.651 161.659 169.19 179.639">dentialité | GOOD SITE</tspan></text><text style="font-variant:normal;font-weight:normal;font-size:22.52px;font-family:'IBM Plex Sans';-inkscape-font-specification:IBMPlexSans;writing-mode:lr-tb;fill:#000000;fill-opacity:1;fill-rule:nonzero;stroke:none" transform="translate(13.5,73.566)"><tspan>←</tspan></text><text style="font-variant:normal;font-weight:normal;font-size:22.52px;font-family:'IBM Plex Sans';-inkscape-font-specification:IBMPlexSans;writing-mode:lr-tb;fill:#000000;fill-opacity:1;fill-rule:nonzero;stroke:none" transform="translate(42.597,73.566)"><tspan>→</tspan></text><text style="font-variant:normal;font-weight:normal;font-size:22.52px;font-family:'DejaVu Sans';-inkscape-font-specification:DejaVuSans;writing-mode:lr-tb;fill:#000000;fill-opacity:1;fill-rule:nonzero;stroke:none" transform="translate(71.693,73.566)"><tspan>⟳</tspan></text><path style="fill:#ffffff;fill-opacity:1;fill-rule:nonzero;stroke:none" d="M 102.59,76.32 V 53.547 c 0,-0.465 0.09,-0.91 0.265,-1.34 0.18,-0.43 0.434,-0.809 0.762,-1.137 0.328,-0.328 0.707,-0.582 1.137,-0.761 0.43,-0.176 0.875,-0.266 1.34,-0.266 h 404.863 c 0.465,0 0.914,0.09 1.344,0.266 0.429,0.179 0.808,0.433 1.137,0.761 0.328,0.328 0.582,0.707 0.757,1.137 0.18,0.43 0.27,0.875 0.27,1.34 V 76.32 c 0,0.465 -0.09,0.91 -0.27,1.34 -0.175,0.43 -0.429,0.809 -0.757,1.137 -0.329,0.328 -0.708,0.582 -1.137,0.762 -0.43,0.175 -0.879,0.265 -1.344,0.265 H 106.094 c -0.465,0 -0.91,-0.09 -1.34,-0.265 -0.43,-0.18 -0.809,-0.434 -1.137,-0.762 -0.328,-0.328 -0.582,-0.707 -0.762,-1.137 -0.175,-0.43 -0.265,-0.875 -0.265,-1.34 z"/><g><path style="fill:none;stroke:#808080;stroke-width:0.751;stroke-linecap:butt;stroke-linejoin:miter;stroke-miterlimit:10;stroke-dasharray:none;stroke-opacity:1" d="M 102.469,76.32 V 53.547 c 0,-0.481 0.09,-0.942 0.273,-1.387 0.184,-0.445 0.446,-0.836 0.789,-1.176 0.34,-0.343 0.731,-0.605 1.176,-0.789 0.445,-0.183 0.906,-0.277 1.387,-0.277 h 404.863 c 0.484,0 0.945,0.094 1.391,0.277 0.445,0.184 0.836,0.446 1.175,0.789 0.34,0.34 0.602,0.731 0.789,1.176 0.184,0.445 0.274,0.906 0.274,1.387 V 76.32 c 0,0.481 -0.09,0.942 -0.274,1.387 -0.187,0.445 -0.449,0.836 -0.789,1.176 -0.339,0.34 -0.73,0.605 -1.175,0.789 -0.446,0.183 -0.907,0.273 -1.391,0.273 H 106.094 c -0.481,0 -0.942,-0.09 -1.387,-0.273 -0.445,-0.184 -0.836,-0.449 -1.176,-0.789 -0.343,-0.34 -0.605,-0.731 -0.789,-1.176 -0.183,-0.445 -0.273,-0.906 -0.273,-1.387 z"/></g><text style="font-variant:normal;font-weight:normal;font-size:16.215px;font-family:'IBM Plex Sans';-inkscape-font-specification:IBMPlexSans;writing-mode:lr-tb;fill:#000000;fill-opacity:1;fill-rule:nonzero;stroke:none" transform="translate(110.724,71.314)"><tspan x="0 9.21 14.755 20.447 29.851 37.747 42.482 46.73 52.697 61.405 69.625 78.284 92.439 101.844 106.254 114.815 119.063 127.122 136.202 150.358 156.568 165.972 171.923 175.977 183.792 192.451 200.606">https://example.com/privacy</tspan></text><text style="font-variant:normal;font-weight:normal;font-size:22.52px;font-family:'DejaVu Sans';-inkscape-font-specification:DejaVuSans;writing-mode:lr-tb;fill:#000000;fill-opacity:1;fill-rule:nonzero;stroke:none" transform="translate(523.231,73.566)"><tspan>☰</tspan></text><path style="fill:#0000ee;fill-opacity:1;fill-rule:nonzero;stroke:none" d="m 32.02,115.605 h 51.07 v 1.5 H 32.02 Z"/><text style="font-variant:normal;font-weight:normal;font-size:18.016px;font-family:'IBM Plex Sans';-inkscape-font-specification:IBMPlexSans;writing-mode:lr-tb;fill:#0000ee;fill-opacity:1;fill-rule:nonzero;stroke:none" transform="translate(32.021,114.102)"><tspan x="0 8.846 18.935 25.457 35.348">Lorem</tspan></text></g></g></g></g><g><g><g clip-path="url(#clipPath120)"><g><g><g><g clip-path="url(#clipPath132)"><g><g><g><g clip-path="url(#clipPath144)"><g><path style="fill:#0000ee;fill-opacity:1;fill-rule:nonzero;stroke:none" d="m 119.133,115.605 h 52.383 v 1.5 h -52.383 z"/></g></g></g></g></g></g></g></g></g></g></g></g><g><g><g clip-path="url(#clipPath158)"><g><text style="font-variant:normal;font-weight:normal;font-size:18.016px;font-family:'IBM Plex Sans';-inkscape-font-specification:IBMPlexSans;writing-mode:lr-tb;fill:#0000ee;fill-opacity:1;fill-rule:nonzero;stroke:none" transform="translate(119.134,114.102)"><tspan x="0 7.206 17.656 26.43 36.663">Ipsum</tspan></text><path style="fill:#0000ee;fill-opacity:1;fill-rule:nonzero;stroke:none" d="m 207.562,115.605 h 43.773 v 1.5 h -43.773 z"/><text style="font-variant:normal;font-weight:normal;font-size:18.016px;font-family:'IBM Plex Sans';-inkscape-font-specification:IBMPlexSans;writing-mode:lr-tb;fill:#0000ee;fill-opacity:1;fill-rule:nonzero;stroke:none" transform="translate(207.561,114.102)"><tspan x="0 12.089 22.178 27.078 37.167">Dolor</tspan></text><path style="fill:#0000ee;fill-opacity:1;fill-rule:nonzero;stroke:none" d="m 287.379,115.605 h 21.289 v 1.5 h -21.289 z"/><text style="font-variant:normal;font-weight:normal;font-size:18.016px;font-family:'IBM Plex Sans';-inkscape-font-specification:IBMPlexSans;writing-mode:lr-tb;fill:#0000ee;fill-opacity:1;fill-rule:nonzero;stroke:none" transform="translate(287.379,114.102)"><tspan x="0 10.467 14.971">Sit</tspan></text><text style="font-variant:normal;font-weight:600;font-size:28.023px;font-family:'IBM Plex Sans SemiBold';-inkscape-font-specification:IBMPlexSans-SemiBold;writing-mode:lr-tb;fill:#000000;fill-opacity:1;fill-rule:nonzero;stroke:none" transform="translate(32.021,177.91)"><tspan x="0 17.402 33.179 41.417 49.152 59.632 67.366 84.18 100.657 116.294 122.907 139.721 155.358 161.971 176.206 191.983">Politique de con</tspan></text><text style="font-variant:normal;font-weight:600;font-size:28.023px;font-family:'IBM Plex Sans SemiBold';-inkscape-font-specification:IBMPlexSans-SemiBold;writing-mode:lr-tb;fill:#000000;fill-opacity:1;fill-rule:nonzero;stroke:none" transform="translate(240.481,177.91)"><tspan>ﬁ</tspan></text><text style="font-variant:normal;font-weight:600;font-size:28.023px;font-family:'IBM Plex Sans SemiBold';-inkscape-font-specification:IBMPlexSans-SemiBold;writing-mode:lr-tb;fill:#000000;fill-opacity:1;fill-rule:nonzero;stroke:none" transform="translate(257.968,177.91)"><tspan x="0 16.814 32.45 48.928 59.408 67.142 82.807 91.046 98.78 109.12">dentialité</tspan></text><text style="font-variant:normal;font-weight:600;font-size:24.022px;font-family:'IBM Plex Sans SemiBold';-inkscape-font-specification:IBMPlexSans-SemiBold;writing-mode:lr-tb;fill:#000000;fill-opacity:1;fill-rule:nonzero;stroke:none" transform="translate(32.021,229.706)"><tspan x="0 15.59 28.994 40.981 55.394 68.918 83.043 95.029 108.457 122.87 129.933 143.337 149.006 163.419 176.823 188.809 194.479 203.463 212.639 226.067 232.697 241.585 254.989 276.32 289.724 303.849 312.833">Responsable des traitements</tspan></text><text style="font-variant:normal;font-weight:normal;font-size:18.016px;font-family:'IBM Plex Sans';-inkscape-font-specification:IBMPlexSans;writing-mode:lr-tb;fill:#000000;fill-opacity:1;fill-rule:nonzero;stroke:none" transform="translate(32.021,275.497)"><tspan x="0 8.846 18.935 25.457 35.348 51.076 55.328 59.832 70.281 79.055 89.288 105.016 109.268 119.717 129.807 134.707 144.796 151.408 155.66 164.434 168.938 175.261 179.513 189.134 204.862 214.753 221.076 225.977 230.229 239.183 249.272 259.505 268.279 278.17 287.232 293.483 303.374 309.698 319.931 326.543 330.795 340.416 350.865 355.369 365.818 370.322 379.096 388.158 392.662 402.896 412.408 416.66 426.551 431.451 435.955 442.279">Lorem ipsum dolor sit amet, consectetur adipiscing elit.</tspan></text><text style="font-variant:normal;font-weight:600;font-size:24.022px;font-family:'IBM Plex Sans SemiBold';-inkscape-font-specification:IBMPlexSans-SemiBold;writing-mode:lr-tb;fill:#000000;fill-opacity:1;fill-rule:nonzero;stroke:none" transform="translate(32.021,325.042)"><tspan x="0 16.551 30.075 44.2 58.324 71.728 85.132 97.119 102.788 117.201 130.605 140.046 152.032 165.557 179.681 193.806 207.21 214.104 221.167 234.571">Données personnelles</tspan></text><text style="font-variant:normal;font-weight:normal;font-size:18.016px;font-family:'IBM Plex Sans';-inkscape-font-specification:IBMPlexSans;writing-mode:lr-tb;fill:#000000;fill-opacity:1;fill-rule:nonzero;stroke:none" transform="translate(32.021,370.833)"><tspan x="0 12.737 22.971 27.781 32.681 42.302 46.554 56.787 63.111 67.362 73.686 83.919 90.531 100.981 105.485 114.259 118.51 128.96 139.193 148.814 155.335 165.226 171.55 178.09 187.891 192.791 197.043 205.817 214.771 224.662 229.562 239.453 246.065 250.569 259.343 269.792 280.025 289.916 294.168 304.617 314.706 319.607 329.696 336.308 340.56 345.064 355.513 360.414 364.665 375.115 384.735 395.185 399.689 410.138 420.371 429.145 433.397 438.297 442.801 453.251 463.142 469.664 479.392">Nulla ut turpis pharetra, scelerisque dolor id, dapibus libero.</tspan></text><text style="font-variant:normal;font-weight:600;font-size:24.022px;font-family:'IBM Plex Sans SemiBold';-inkscape-font-specification:IBMPlexSans-SemiBold;writing-mode:lr-tb;fill:#000000;fill-opacity:1;fill-rule:nonzero;stroke:none" transform="translate(32.021,420.377)"><tspan x="0 15.422 28.946 42.47 55.97 62.6 76.004">Cookies</tspan></text><text style="font-variant:normal;font-weight:normal;font-size:18.016px;font-family:'IBM Plex Sans';-inkscape-font-specification:IBMPlexSans;writing-mode:lr-tb;fill:#000000;fill-opacity:1;fill-rule:nonzero;stroke:none" transform="translate(32.021,466.168)"><tspan x="0 11.548 21.439 31.672 41.563 51.184 61.417 65.669 74.443 84.334 94.783 99.035 103.935 113.556 122.618 132.851 141.625 145.877 150.381 166.109 176.558 186.449 192.953 203.403 207.907 217.797 224.121 229.022 233.273 243.723 250.245 260.135 266.459 270.963 281.196 296.925 301.176 305.68 315.914 324.561 330.813 340.902 345.154 354.018 358.522 364.845 374.466 383.997">Aenean sed lacus imperdiet, pretium justo vitae,</tspan><tspan y="24.022" x="0 8.954 19.043 29.276 39.726 44.23 59.958 69.849 80.082 86.406 96.639 112.367 116.619 126.852 131.356 140.13 144.634">condimentum nisi.</tspan></text></g></g></g></g><g><g><g clip-path="url(#clipPath224)"><g><g><g><g clip-path="url(#clipPath236)"><g><g><g><g clip-path="url(#clipPath248)"><g><path style="fill:#0000ee;fill-opacity:1;fill-rule:nonzero;stroke:none" d="m 32.02,563.758 h 216.348 v 1.5 H 32.02 Z"/></g></g></g></g></g></g></g></g></g></g></g></g><g><g><g clip-path="url(#clipPath262)"><g><text style="font-variant:normal;font-weight:normal;font-size:18.016px;font-family:'IBM Plex Sans';-inkscape-font-specification:IBMPlexSans;writing-mode:lr-tb;fill:#0000ee;fill-opacity:1;fill-rule:nonzero;stroke:none" transform="translate(32.021,562.255)"><tspan x="0 10.557 20.647 25.547 30.051 36.375 40.879 51.328 61.561 71.452 75.704 86.153 96.044 100.296 109.25 119.339">Politique de con</tspan></text><text style="font-variant:normal;font-weight:normal;font-size:18.016px;font-family:'IBM Plex Sans';-inkscape-font-specification:IBMPlexSans;writing-mode:lr-tb;fill:#0000ee;fill-opacity:1;fill-rule:nonzero;stroke:none" transform="translate(161.593,562.255)"><tspan>ﬁ</tspan></text><text style="font-variant:normal;font-weight:normal;font-size:18.016px;font-family:'IBM Plex Sans';-inkscape-font-specification:IBMPlexSans;writing-mode:lr-tb;fill:#0000ee;fill-opacity:1;fill-rule:nonzero;stroke:none" transform="translate(171.808,562.255)"><tspan x="0 10.449 20.34 30.573 36.897 41.401 51.022 55.922 60.426 66.678">dentialité</tspan></text></g></g></g></g></g></g></svg>
