<?xml version="1.0" encoding="utf-8"?>
<svg xmlns:dc="http://purl.org/dc/elements/1.1/" xmlns:cc="http://creativecommons.org/ns#" xmlns:rdf="http://www.w3.org/1999/02/22-rdf-syntax-ns#" xmlns:svg="http://www.w3.org/2000/svg" xmlns="http://www.w3.org/2000/svg" viewBox="0 0 742.66656 450.40427" height="450.404" width="742.667" xml:space="preserve" version="1.1"><defs><clipPath id="clipPath22" clipPathUnits="userSpaceOnUse"><path d="M 0,0 H 557 V 338 H 0 Z"/></clipPath><clipPath id="clipPath110" clipPathUnits="userSpaceOnUse"><path d="M 36.031,151.635 H 255.23 V 126.112 H 36.031 Z"/></clipPath><clipPath id="clipPath120" clipPathUnits="userSpaceOnUse"><path d="m 41,128 h 208 v 18 H 41 Z"/></clipPath><clipPath id="clipPath138" clipPathUnits="userSpaceOnUse"><path d="m 32,37 h 471 v 63 H 32 Z"/></clipPath><clipPath id="clipPath156" clipPathUnits="userSpaceOnUse"><path d="M 32.277,224.452 H 256.73 V 173.405 H 32.277 Z"/></clipPath><clipPath id="clipPath166" clipPathUnits="userSpaceOnUse"><path d="m 32,173 h 225 v 52 H 32 Z"/></clipPath><clipPath id="clipPath180" clipPathUnits="userSpaceOnUse"><path d="m 244.719,223.702 h 11.262 V 212.44 h -11.262 z"/></clipPath><clipPath id="clipPath190" clipPathUnits="userSpaceOnUse"><path d="m 244,212 h 12 v 12 h -12 z"/></clipPath><clipPath id="clipPath204" clipPathUnits="userSpaceOnUse"><path d="m 244.719,196.678 h 11.262 v -11.262 h -11.262 z"/></clipPath><clipPath id="clipPath214" clipPathUnits="userSpaceOnUse"><path d="m 244,185 h 12 v 12 h -12 z"/></clipPath><clipPath id="clipPath228" clipPathUnits="userSpaceOnUse"><path d="m 244.719,212.44 h 11.262 v -15.762 h -11.262 z"/></clipPath><clipPath id="clipPath238" clipPathUnits="userSpaceOnUse"><path d="m 244,196 h 12 v 17 h -12 z"/></clipPath><clipPath id="clipPath252" clipPathUnits="userSpaceOnUse"><path d="m 246,196 h 9 v 17 h -9 z"/></clipPath><clipPath id="clipPath264" clipPathUnits="userSpaceOnUse"><path d="m 244.719,185.416 h 11.262 v -11.262 h -11.262 z"/></clipPath><clipPath id="clipPath274" clipPathUnits="userSpaceOnUse"><path d="m 244,174 h 12 v 12 h -12 z"/></clipPath><clipPath id="clipPath290" clipPathUnits="userSpaceOnUse"><path d="m 249,174 h 7 v 7 h -7 z"/></clipPath><clipPath id="clipPath308" clipPathUnits="userSpaceOnUse"><path d="m 244.719,185.416 h 11.262 v -11.262 h -11.262 z"/></clipPath><clipPath id="clipPath318" clipPathUnits="userSpaceOnUse"><path d="m 244,173 h 13 v 13 h -13 z"/></clipPath><clipPath id="clipPath332" clipPathUnits="userSpaceOnUse"><path d="M 33.031,223.702 H 244.719 V 174.155 H 33.031 Z"/></clipPath><clipPath id="clipPath342" clipPathUnits="userSpaceOnUse"><path d="m 35,177 h 176 v 40 H 35 Z"/></clipPath></defs><g transform="matrix(1.333,0,0,-1.333,0,450.404)"><g><g transform="translate(0,-0.197)"><g><g clip-path="url(#clipPath22)"><g><path style="fill:#d3d3d3;fill-opacity:1;fill-rule:nonzero;stroke:none" d="M 0,338 H 557 V 0.195 H 0 Z"/><path style="fill:#eeeeee;fill-opacity:1;fill-rule:nonzero;stroke:none" d="m 0,338 h 557 v -2.254 H 0 Z"/><path style="fill:#9a9a9a;fill-opacity:1;fill-rule:nonzero;stroke:none" d="M 0,2.449 H 557 V 0.195 H 0 Z"/><path style="fill:#9a9a9a;fill-opacity:1;fill-rule:nonzero;stroke:none" d="M 554.746,335.746 V 0.195 H 557 V 338"/><path style="fill:#eeeeee;fill-opacity:1;fill-rule:nonzero;stroke:none" d="M 0,338 V 0.195 L 2.254,2.449 V 338"/><path style="fill:#00008b;fill-opacity:1;fill-rule:nonzero;stroke:none" d="M 5.254,332.746 H 551.746 V 294.461 H 5.254 Z"/><path style="fill:#d3d3d3;fill-opacity:1;fill-rule:nonzero;stroke:none" d="M 5.254,294.461 H 551.746 V 251.672 H 5.254 Z"/><path style="fill:#ffffff;fill-opacity:1;fill-rule:nonzero;stroke:none" d="M 5.254,251.672 H 551.746 V 5.453 H 5.254 Z"/><path style="fill:#9a9a9a;fill-opacity:1;fill-rule:nonzero;stroke:none" d="m 5.254,251.672 h 546.492 v -2.25 H 5.254 Z"/><path style="fill:#eeeeee;fill-opacity:1;fill-rule:nonzero;stroke:none" d="M 5.254,7.703 H 551.746 V 5.453 H 5.254 Z"/><path style="fill:#eeeeee;fill-opacity:1;fill-rule:nonzero;stroke:none" d="M 549.492,249.422 V 5.453 h 2.254 v 246.219"/><path style="fill:#9a9a9a;fill-opacity:1;fill-rule:nonzero;stroke:none" d="M 5.254,251.672 V 5.453 l 2.254,2.25 v 243.969"/><path style="fill:#d3d3d3;fill-opacity:1;fill-rule:nonzero;stroke:none" d="m 517.215,328.242 h 30.027 v -30.027 h -30.027 z"/><path style="fill:#ffffff;fill-opacity:1;fill-rule:nonzero;stroke:none" d="m 517.215,328.242 h 30.027 v -3.754 h -30.027 z"/><path style="fill:#ababab;fill-opacity:1;fill-rule:nonzero;stroke:none" d="m 517.215,301.969 h 30.027 v -3.754 h -30.027 z"/><path style="fill:#ababab;fill-opacity:1;fill-rule:nonzero;stroke:none" d="m 543.488,324.488 v -26.273 h 3.754 v 30.027"/><path style="fill:#ffffff;fill-opacity:1;fill-rule:nonzero;stroke:none" d="m 517.215,328.242 v -30.027 l 3.754,3.754 v 26.273"/><text style="font-variant:normal;font-weight:normal;font-size:18.016px;font-family:'DejaVu Sans';-inkscape-font-specification:DejaVuSans;writing-mode:lr-tb;fill:#000000;fill-opacity:1;fill-rule:nonzero;stroke:none" transform="matrix(1,0,0,-1,524.979,307.222)"><tspan>✕</tspan></text><text style="font-variant:normal;font-weight:600;font-size:18.016px;font-family:'IBM Plex Sans SemiBold';-inkscape-font-specification:IBMPlexSans-SemiBold;writing-mode:lr-tb;fill:#ffffff;fill-opacity:1;fill-rule:nonzero;stroke:none" transform="matrix(1,0,0,-1,9.501,306.472)"><tspan x="0 9.765 20.268 27.024 36.789 52.553 57.057 64.57 75.073 84.063 94.585 110.349 114.853 121.627 126.131 138.887 151.642 164.416 177.171 181.675 192.935 200.448 210.951">Lorem Ipsum | GOOD SITE</tspan></text><text style="font-variant:normal;font-weight:normal;font-size:22.52px;font-family:'IBM Plex Sans';-inkscape-font-specification:IBMPlexSans;writing-mode:lr-tb;fill:#000000;fill-opacity:1;fill-rule:nonzero;stroke:none" transform="matrix(1,0,0,-1,13.5,264.434)"><tspan>←</tspan></text><text style="font-variant:normal;font-weight:normal;font-size:22.52px;font-family:'IBM Plex Sans';-inkscape-font-specification:IBMPlexSans;writing-mode:lr-tb;fill:#000000;fill-opacity:1;fill-rule:nonzero;stroke:none" transform="matrix(1,0,0,-1,42.777,264.434)"><tspan>→</tspan></text><text style="font-variant:normal;font-weight:normal;font-size:22.52px;font-family:'DejaVu Sans';-inkscape-font-specification:DejaVuSans;writing-mode:lr-tb;fill:#000000;fill-opacity:1;fill-rule:nonzero;stroke:none" transform="matrix(1,0,0,-1,72.053,264.434)"><tspan>⟳</tspan></text><path style="fill:#ffffff;fill-opacity:1;fill-rule:nonzero;stroke:none" d="m 102.59,261.68 v 22.773 c 0,0.465 0.09,0.91 0.265,1.34 0.18,0.43 0.434,0.809 0.762,1.137 0.328,0.328 0.707,0.582 1.137,0.761 0.43,0.176 0.875,0.266 1.34,0.266 h 404.863 c 0.465,0 0.914,-0.09 1.344,-0.266 0.429,-0.179 0.808,-0.433 1.137,-0.761 0.328,-0.328 0.582,-0.707 0.757,-1.137 0.18,-0.43 0.27,-0.875 0.27,-1.34 V 261.68 c 0,-0.465 -0.09,-0.91 -0.27,-1.34 -0.175,-0.43 -0.429,-0.809 -0.757,-1.137 -0.329,-0.328 -0.708,-0.582 -1.137,-0.762 -0.43,-0.175 -0.879,-0.265 -1.344,-0.265 H 106.094 c -0.465,0 -0.91,0.09 -1.34,0.265 -0.43,0.18 -0.809,0.434 -1.137,0.762 -0.328,0.328 -0.582,0.707 -0.762,1.137 -0.175,0.43 -0.265,0.875 -0.265,1.34 z"/><g transform="matrix(1,0,0,-1,0,338)"><path style="fill:none;stroke:#808080;stroke-width:0.751;stroke-linecap:butt;stroke-linejoin:miter;stroke-miterlimit:10;stroke-dasharray:none;stroke-opacity:1" d="M 102.469,76.32 V 53.547 c 0,-0.481 0.09,-0.942 0.273,-1.387 0.184,-0.445 0.446,-0.836 0.789,-1.176 0.34,-0.343 0.731,-0.605 1.176,-0.789 0.445,-0.183 0.906,-0.277 1.387,-0.277 h 404.863 c 0.484,0 0.945,0.094 1.391,0.277 0.445,0.184 0.836,0.446 1.175,0.789 0.34,0.34 0.602,0.731 0.789,1.176 0.184,0.445 0.274,0.906 0.274,1.387 V 76.32 c 0,0.481 -0.09,0.942 -0.274,1.387 -0.187,0.445 -0.449,0.836 -0.789,1.176 -0.339,0.34 -0.73,0.605 -1.175,0.789 -0.446,0.183 -0.907,0.273 -1.391,0.273 H 106.094 c -0.481,0 -0.942,-0.09 -1.387,-0.273 -0.445,-0.184 -0.836,-0.449 -1.176,-0.789 -0.343,-0.34 -0.605,-0.731 -0.789,-1.176 -0.183,-0.445 -0.273,-0.906 -0.273,-1.387 z"/></g><text style="font-variant:normal;font-weight:normal;font-size:16.215px;font-family:'IBM Plex Sans';-inkscape-font-specification:IBMPlexSans;writing-mode:lr-tb;fill:#000000;fill-opacity:1;fill-rule:nonzero;stroke:none" transform="matrix(1,0,0,-1,111.076,266.686)"><tspan x="0 9.761 15.761 21.776 31.537 39.791 44.298 48.044 54.059 63.058 71.279 80.327 94.596 104.357 108.848 117.864 122.371 130.624 139.64 153.892">https://example.com/</tspan></text><text style="font-variant:normal;font-weight:normal;font-size:22.52px;font-family:'DejaVu Sans';-inkscape-font-specification:DejaVuSans;writing-mode:lr-tb;fill:#000000;fill-opacity:1;fill-rule:nonzero;stroke:none" transform="matrix(1,0,0,-1,523.231,264.434)"><tspan>☰</tspan></text><path style="fill:#d3d3d3;fill-opacity:1;fill-rule:nonzero;stroke:none" d="M 32.277,155.586 H 258.984 V 122.555 H 32.277 Z"/><path style="fill:#f0f0f0;fill-opacity:1;fill-rule:nonzero;stroke:none" d="m 32.277,155.586 h 226.707 v -3.754 H 32.277 Z"/><path style="fill:#9c9c9c;fill-opacity:1;fill-rule:nonzero;stroke:none" d="m 32.277,126.309 h 226.707 v -3.754 H 32.277 Z"/><path style="fill:#9c9c9c;fill-opacity:1;fill-rule:nonzero;stroke:none" d="m 255.23,151.832 v -29.277 h 3.754 v 33.031"/><path style="fill:#f0f0f0;fill-opacity:1;fill-rule:nonzero;stroke:none" d="m 32.277,155.586 v -33.031 l 3.754,3.754 v 29.277"/></g></g></g></g></g><g><g clip-path="url(#clipPath110)"><g transform="translate(0,-0.197)"><g><g clip-path="url(#clipPath120)"><g><text style="font-variant:normal;font-weight:normal;font-size:18.016px;font-family:'IBM Plex Sans';-inkscape-font-specification:IBMPlexSans;writing-mode:lr-tb;fill:#000000;fill-opacity:1;fill-rule:nonzero;stroke:none" transform="matrix(1,0,0,-1,40.525,132.315)"><tspan x="0 10.467 20.268 30.772 46.554 56.301 62.318 68.317 75.073 84.838 89.342 105.07 114.853 119.357 129.879 140.382 150.903 156.146 160.65 169.658 179.423 185.422 189.926 199.691">Soumettre ma publication</tspan></text></g></g></g></g></g></g><g><g transform="translate(0,-0.197)"><g><g clip-path="url(#clipPath138)"><g><text style="font-variant:normal;font-weight:normal;font-size:18.016px;font-family:'IBM Plex Sans';-inkscape-font-specification:IBMPlexSans;writing-mode:lr-tb;fill:#000000;fill-opacity:1;fill-rule:nonzero;stroke:none" transform="matrix(1,0,0,-1,32.021,85.774)"><tspan x="0 10.503 20.268 26.268 33.024 42.788 47.292 57.814 68.317 78.821 84.081 88.586 97.594 107.358 113.358 117.862 127.627 138.13 142.634 151.642 161.407 165.911 171.91 181.675 186.179 192.935 202.7 207.204 212.447 216.212 225.977 236.48 240.984 250.749 256.748 261.253 271.756 277.017 287.52 298.042 307.806 312.31 328.038 337.821 348.343 358.089 364.845 374.61 380.61 385.114 394.878 405.4 409.904 419.651 424.155 434.676 441.432 445.936 455.683 462.439 466.943">Votre publication va faire l’objet d’une modération a priori.</tspan><tspan y="24.022" x="0 10.503 20.268 30.772 35.276 40.536 45.797 55.562 63.813 68.317 78.821 88.586 94.585 99.089 108.854 119.357 125.375 135.121 141.895 146.399 150.903 161.407 170.415 180.918 191.44 195.944 205.691 210.195 220.716 231.22 235.724 246.245 255.992 266.513 273.269 283.016 292.024 296.528 306.293 315.301 325.066 335.569 341.587 346.091 355.099 364.845 375.367 379.871 389.618 400.139 410.643 420.407 427.163 431.667 437.667 442.171 451.936">Veuillez patienter jusqu’à 48 heures avant son apparition</tspan><tspan y="48.043" x="0 9.008 19.512 26.268 30.772 36.032 45.797 50.301 59.309 63.813 69.813 79.577">sur le site.</tspan></text></g></g></g></g></g><g><g clip-path="url(#clipPath156)"><g transform="translate(0,-0.197)"><g><g clip-path="url(#clipPath166)"><g><g transform="matrix(1,0,0,-1,0,338)"><path style="fill:#ffffff;fill-opacity:1;fill-rule:nonzero;stroke:#767676;stroke-width:0.751;stroke-linecap:butt;stroke-linejoin:miter;stroke-miterlimit:10;stroke-dasharray:none;stroke-opacity:1" d="m 32.656,162.52 v -47.293 c 0,-0.196 0.035,-0.391 0.114,-0.575 0.074,-0.183 0.183,-0.343 0.324,-0.484 0.14,-0.141 0.304,-0.25 0.488,-0.328 0.184,-0.074 0.375,-0.113 0.574,-0.113 h 220.699 c 0.2,0 0.391,0.039 0.575,0.113 0.183,0.078 0.343,0.187 0.484,0.328 0.141,0.141 0.25,0.301 0.328,0.484 0.074,0.184 0.113,0.379 0.113,0.575 v 47.293 c 0,0.199 -0.039,0.39 -0.113,0.574 -0.078,0.187 -0.187,0.347 -0.328,0.488 -0.141,0.141 -0.301,0.25 -0.484,0.324 -0.184,0.078 -0.375,0.117 -0.575,0.117 H 34.156 c -0.199,0 -0.39,-0.039 -0.574,-0.117 -0.184,-0.074 -0.348,-0.183 -0.488,-0.324 -0.141,-0.141 -0.25,-0.301 -0.324,-0.488 -0.079,-0.184 -0.114,-0.375 -0.114,-0.574 z"/></g></g></g></g></g></g></g><g><g clip-path="url(#clipPath180)"><g transform="translate(0,-0.197)"><g><g clip-path="url(#clipPath190)"><g><path style="fill:#f1f1f1;fill-opacity:1;fill-rule:nonzero;stroke:none" d="m 244.719,212.637 v 11.261 h 10.511 c 0.208,0 0.383,-0.074 0.532,-0.222 0.144,-0.145 0.218,-0.321 0.218,-0.528 v -10.511 z"/><path style="fill:#a3a3a3;fill-opacity:1;fill-rule:nonzero;stroke:none" d="m 247.723,216.391 h 5.254 l -2.625,3.004 z"/></g></g></g></g></g></g><g><g clip-path="url(#clipPath204)"><g transform="translate(0,-0.197)"><g><g clip-path="url(#clipPath214)"><g><path style="fill:#f1f1f1;fill-opacity:1;fill-rule:nonzero;stroke:none" d="m 244.719,185.613 v 11.262 h 11.261 v -10.512 c 0,-0.207 -0.074,-0.383 -0.218,-0.531 -0.149,-0.144 -0.324,-0.219 -0.532,-0.219 z"/><path style="fill:#505050;fill-opacity:1;fill-rule:nonzero;stroke:none" d="m 247.723,193.121 h 5.254 l -2.625,-3.004 z"/></g></g></g></g></g></g><g><g clip-path="url(#clipPath228)"><g transform="translate(0,-0.197)"><g><g clip-path="url(#clipPath238)"><g><path style="fill:#f1f1f1;fill-opacity:1;fill-rule:nonzero;stroke:none" d="m 244.719,212.637 h 11.262 v -15.762 h -11.262 z"/></g></g></g></g><g transform="translate(0,-0.197)"><g><g clip-path="url(#clipPath252)"><g><path style="fill:#000000;fill-opacity:0.2;fill-rule:nonzero;stroke:none" d="m 246.223,212.637 h 8.254 v -15.762 h -8.254 z"/></g></g></g></g></g></g><g><g clip-path="url(#clipPath264)"><g transform="translate(0,-0.197)"><g><g clip-path="url(#clipPath274)"><g><path style="fill:#dcdcdc;fill-opacity:1;fill-rule:nonzero;stroke:none" d="m 244.719,185.613 h 11.262 v -11.262 h -11.262 z"/></g></g></g></g></g></g><g><g transform="translate(0,-0.197)"><g><g clip-path="url(#clipPath290)"><g><g transform="matrix(1,0,0,-1,0,338)"><path style="fill:none;stroke:#000000;stroke-width:0.751;stroke-linecap:butt;stroke-linejoin:miter;stroke-miterlimit:10;stroke-dasharray:none;stroke-opacity:0.6" d="m 255.23,157.641 -5.257,5.254 m 5.257,-2.25 -2.253,2.25"/></g><g transform="matrix(1,0,0,-1,0,338)"><path style="fill:none;stroke:#ffffff;stroke-width:0.751;stroke-linecap:butt;stroke-linejoin:miter;stroke-miterlimit:10;stroke-dasharray:none;stroke-opacity:0.6" d="m 255.23,158.391 -4.503,4.504 m 4.503,-1.5 -1.503,1.5"/></g></g></g></g></g></g><g><g clip-path="url(#clipPath308)"><g transform="translate(0,-0.197)"><g><g clip-path="url(#clipPath318)"><g><g transform="matrix(1,0,0,-1,0,338)"><path style="fill:none;stroke:#d9d9d9;stroke-width:0.751;stroke-linecap:butt;stroke-linejoin:miter;stroke-miterlimit:10;stroke-dasharray:none;stroke-opacity:1" d="m 245.094,152.762 h 11.262 v 11.262 h -11.262 z"/></g></g></g></g></g></g></g><g><g clip-path="url(#clipPath332)"><g transform="translate(0,-0.197)"><g><g clip-path="url(#clipPath342)"><g><text style="font-variant:normal;font-weight:normal;font-size:18.016px;font-family:'IBM Plex Sans';-inkscape-font-specification:IBMPlexSans;writing-mode:lr-tb;fill:#000000;fill-opacity:1;fill-rule:nonzero;stroke:none" transform="matrix(1,0,0,-1,34.273,203.629)"><tspan x="0 9.026 18.773 25.529 35.276 51.058 55.562 60.066 70.569 79.577 90.081 105.809 110.349 120.87 130.635 135.878 145.643 152.399 156.903 165.911 170.415">Lorem ipsum dolor sit</tspan><tspan y="24.022" x="0 9.765 25.493 35.276 41.293 46.554 51.058 60.066 69.813 80.334 89.342 99.089 108.097 114.114 123.861 129.879 140.382">amet, consectetur</tspan></text></g></g></g></g></g></g></g></svg>
