<?xml version="1.0" encoding="utf-8"?>
<svg xmlns:dc="http://purl.org/dc/elements/1.1/" xmlns:cc="http://creativecommons.org/ns#" xmlns:rdf="http://www.w3.org/1999/02/22-rdf-syntax-ns#" xmlns:svg="http://www.w3.org/2000/svg" xmlns="http://www.w3.org/2000/svg" viewBox="0 0 742.66656 488.43839" height="488.438" width="742.667" xml:space="preserve" version="1.1"><defs><clipPath id="clipPath22" clipPathUnits="userSpaceOnUse"><path d="M 0,0 H 557 V 367 H 0 Z"/></clipPath><clipPath id="clipPath104" clipPathUnits="userSpaceOnUse"><path d="m 132.871,250.723 h 180.16 V 222.2 h -180.16 z"/></clipPath><clipPath id="clipPath114" clipPathUnits="userSpaceOnUse"><path d="m 132,222 h 182 v 30 H 132 Z"/></clipPath><clipPath id="clipPath128" clipPathUnits="userSpaceOnUse"><path d="m 134.371,249.223 h 177.16 V 223.7 h -177.16 z"/></clipPath><clipPath id="clipPath138" clipPathUnits="userSpaceOnUse"><path d="m 136,230 h 111 v 14 H 136 Z"/></clipPath><clipPath id="clipPath156" clipPathUnits="userSpaceOnUse"><path d="m 317,220 h 178 v 34 H 317 Z"/></clipPath><clipPath id="clipPath176" clipPathUnits="userSpaceOnUse"><path d="M 321.289,249.223 H 490.941 V 223.7 H 321.289 Z"/></clipPath><clipPath id="clipPath186" clipPathUnits="userSpaceOnUse"><path d="m 327,230 h 159 v 14 H 327 Z"/></clipPath><clipPath id="clipPath204" clipPathUnits="userSpaceOnUse"><path d="m 34,131 h 120 v 65 H 34 Z"/></clipPath><clipPath id="clipPath222" clipPathUnits="userSpaceOnUse"><path d="M 0,0 H 557 V 367 H 0 Z"/></clipPath><clipPath id="clipPath234" clipPathUnits="userSpaceOnUse"><path d="M 0,0 H 557 V 367 H 0 Z"/></clipPath><clipPath id="clipPath246" clipPathUnits="userSpaceOnUse"><path d="m 62,125 h 223 v 2 H 62 Z"/></clipPath><clipPath id="clipPath260" clipPathUnits="userSpaceOnUse"><path d="m 45,107 h 239 v 35 H 45 Z"/></clipPath><clipPath id="clipPath278" clipPathUnits="userSpaceOnUse"><path d="M 0,0 H 557 V 367 H 0 Z"/></clipPath><clipPath id="clipPath290" clipPathUnits="userSpaceOnUse"><path d="M 0,0 H 557 V 367 H 0 Z"/></clipPath><clipPath id="clipPath302" clipPathUnits="userSpaceOnUse"><path d="m 62,101 h 191 v 2 H 62 Z"/></clipPath><clipPath id="clipPath316" clipPathUnits="userSpaceOnUse"><path d="m 45,83 h 208 v 35 H 45 Z"/></clipPath><clipPath id="clipPath334" clipPathUnits="userSpaceOnUse"><path d="M 0,0 H 557 V 367 H 0 Z"/></clipPath><clipPath id="clipPath346" clipPathUnits="userSpaceOnUse"><path d="M 0,0 H 557 V 367 H 0 Z"/></clipPath><clipPath id="clipPath358" clipPathUnits="userSpaceOnUse"><path d="M 0,0 H 557 V 367 H 0 Z"/></clipPath><clipPath id="clipPath370" clipPathUnits="userSpaceOnUse"><path d="m 62,77 h 191 v 2 H 62 Z"/></clipPath><clipPath id="clipPath384" clipPathUnits="userSpaceOnUse"><path d="M 32,34 H 424 V 94 H 32 Z"/></clipPath></defs><g transform="matrix(1.333,0,0,-1.333,0,488.438)"><g><g transform="translate(0,-0.671)"><g><g clip-path="url(#clipPath22)"><g><path style="fill:#d3d3d3;fill-opacity:1;fill-rule:nonzero;stroke:none" d="M 0,367 H 557 V 0.672 H 0 Z"/><path style="fill:#eeeeee;fill-opacity:1;fill-rule:nonzero;stroke:none" d="m 0,367 h 557 v -2.254 H 0 Z"/><path style="fill:#9a9a9a;fill-opacity:1;fill-rule:nonzero;stroke:none" d="M 0,2.922 H 557 V 0.672 H 0 Z"/><path style="fill:#9a9a9a;fill-opacity:1;fill-rule:nonzero;stroke:none" d="M 554.746,364.746 V 0.672 H 557 V 367"/><path style="fill:#eeeeee;fill-opacity:1;fill-rule:nonzero;stroke:none" d="M 0,367 V 0.672 l 2.254,2.25 V 367"/><path style="fill:#00008b;fill-opacity:1;fill-rule:nonzero;stroke:none" d="M 5.254,361.746 H 551.746 V 323.461 H 5.254 Z"/><path style="fill:#d3d3d3;fill-opacity:1;fill-rule:nonzero;stroke:none" d="M 5.254,323.461 H 551.746 V 280.672 H 5.254 Z"/><path style="fill:#ffffff;fill-opacity:1;fill-rule:nonzero;stroke:none" d="M 5.254,280.672 H 551.746 V 5.926 H 5.254 Z"/><path style="fill:#9a9a9a;fill-opacity:1;fill-rule:nonzero;stroke:none" d="m 5.254,280.672 h 546.492 v -2.25 H 5.254 Z"/><path style="fill:#eeeeee;fill-opacity:1;fill-rule:nonzero;stroke:none" d="M 5.254,8.18 H 551.746 V 5.926 H 5.254 Z"/><path style="fill:#eeeeee;fill-opacity:1;fill-rule:nonzero;stroke:none" d="M 549.492,278.422 V 5.926 h 2.254 v 274.746"/><path style="fill:#9a9a9a;fill-opacity:1;fill-rule:nonzero;stroke:none" d="M 5.254,280.672 V 5.926 L 7.508,8.18 v 272.492"/><path style="fill:#d3d3d3;fill-opacity:1;fill-rule:nonzero;stroke:none" d="m 517.215,357.242 h 30.027 v -30.027 h -30.027 z"/><path style="fill:#ffffff;fill-opacity:1;fill-rule:nonzero;stroke:none" d="m 517.215,357.242 h 30.027 v -3.754 h -30.027 z"/><path style="fill:#ababab;fill-opacity:1;fill-rule:nonzero;stroke:none" d="m 517.215,330.969 h 30.027 v -3.754 h -30.027 z"/><path style="fill:#ababab;fill-opacity:1;fill-rule:nonzero;stroke:none" d="m 543.488,353.488 v -26.273 h 3.754 v 30.027"/><path style="fill:#ffffff;fill-opacity:1;fill-rule:nonzero;stroke:none" d="m 517.215,357.242 v -30.027 l 3.754,3.754 v 26.273"/><text style="font-variant:normal;font-weight:normal;font-size:18.016px;font-family:'DejaVu Sans';-inkscape-font-specification:DejaVuSans;writing-mode:lr-tb;fill:#000000;fill-opacity:1;fill-rule:nonzero;stroke:none" transform="matrix(1,0,0,-1,524.979,336.222)"><tspan>✕</tspan></text><text style="font-variant:normal;font-weight:600;font-size:18.016px;font-family:'IBM Plex Sans SemiBold';-inkscape-font-specification:IBMPlexSans-SemiBold;writing-mode:lr-tb;fill:#ffffff;fill-opacity:1;fill-rule:nonzero;stroke:none" transform="matrix(1,0,0,-1,9.501,335.472)"><tspan x="0 12.017 21.764 30.754 41.293 46.59 53.328 63.057 69.795 78.785 83.325 93.846 103.593 108.097 114.853 124.618 133.626 144.147 153.894 160.65 169.658 179.423 183.927 190.701 195.187 207.961 220.716 233.472 246.245 250.749 262.009 269.504 280.025">Résultats de recherce | GOOD SITE</tspan></text><text style="font-variant:normal;font-weight:normal;font-size:22.52px;font-family:'IBM Plex Sans';-inkscape-font-specification:IBMPlexSans;writing-mode:lr-tb;fill:#000000;fill-opacity:1;fill-rule:nonzero;stroke:none" transform="matrix(1,0,0,-1,13.5,293.434)"><tspan>←</tspan></text><text style="font-variant:normal;font-weight:normal;font-size:22.52px;font-family:'IBM Plex Sans';-inkscape-font-specification:IBMPlexSans;writing-mode:lr-tb;fill:#000000;fill-opacity:1;fill-rule:nonzero;stroke:none" transform="matrix(1,0,0,-1,42.777,293.434)"><tspan>→</tspan></text><text style="font-variant:normal;font-weight:normal;font-size:22.52px;font-family:'DejaVu Sans';-inkscape-font-specification:DejaVuSans;writing-mode:lr-tb;fill:#000000;fill-opacity:1;fill-rule:nonzero;stroke:none" transform="matrix(1,0,0,-1,72.053,293.434)"><tspan>⟳</tspan></text><path style="fill:#ffffff;fill-opacity:1;fill-rule:nonzero;stroke:none" d="m 102.59,290.68 v 22.773 c 0,0.465 0.09,0.91 0.265,1.34 0.18,0.43 0.434,0.809 0.762,1.137 0.328,0.328 0.707,0.582 1.137,0.761 0.43,0.176 0.875,0.266 1.34,0.266 h 404.863 c 0.465,0 0.914,-0.09 1.344,-0.266 0.429,-0.179 0.808,-0.433 1.137,-0.761 0.328,-0.328 0.582,-0.707 0.757,-1.137 0.18,-0.43 0.27,-0.875 0.27,-1.34 V 290.68 c 0,-0.465 -0.09,-0.91 -0.27,-1.34 -0.175,-0.43 -0.429,-0.809 -0.757,-1.137 -0.329,-0.328 -0.708,-0.582 -1.137,-0.762 -0.43,-0.175 -0.879,-0.265 -1.344,-0.265 H 106.094 c -0.465,0 -0.91,0.09 -1.34,0.265 -0.43,0.18 -0.809,0.434 -1.137,0.762 -0.328,0.328 -0.582,0.707 -0.762,1.137 -0.175,0.43 -0.265,0.875 -0.265,1.34 z"/><g transform="matrix(1,0,0,-1,0,367)"><path style="fill:none;stroke:#808080;stroke-width:0.751;stroke-linecap:butt;stroke-linejoin:miter;stroke-miterlimit:10;stroke-dasharray:none;stroke-opacity:1" d="M 102.469,76.32 V 53.547 c 0,-0.481 0.09,-0.942 0.273,-1.387 0.184,-0.445 0.446,-0.836 0.789,-1.176 0.34,-0.343 0.731,-0.605 1.176,-0.789 0.445,-0.183 0.906,-0.277 1.387,-0.277 h 404.863 c 0.484,0 0.945,0.094 1.391,0.277 0.445,0.184 0.836,0.446 1.175,0.789 0.34,0.34 0.602,0.731 0.789,1.176 0.184,0.445 0.274,0.906 0.274,1.387 V 76.32 c 0,0.481 -0.09,0.942 -0.274,1.387 -0.187,0.445 -0.449,0.836 -0.789,1.176 -0.339,0.34 -0.73,0.605 -1.175,0.789 -0.446,0.183 -0.907,0.273 -1.391,0.273 H 106.094 c -0.481,0 -0.942,-0.09 -1.387,-0.273 -0.445,-0.184 -0.836,-0.449 -1.176,-0.789 -0.343,-0.34 -0.605,-0.731 -0.789,-1.176 -0.183,-0.445 -0.273,-0.906 -0.273,-1.387 z"/></g><text style="font-variant:normal;font-weight:normal;font-size:16.215px;font-family:'IBM Plex Sans';-inkscape-font-specification:IBMPlexSans;writing-mode:lr-tb;fill:#000000;fill-opacity:1;fill-rule:nonzero;stroke:none" transform="matrix(1,0,0,-1,111.076,295.686)"><tspan x="0 9.761 15.761 21.776 31.537 39.791 44.298 48.044 54.059 63.058 71.279 80.327 94.596 104.357 108.848 117.864 122.371 130.624 139.64 153.892 159.908 168.161 177.176 186.176 192.191 200.444">https://example.com/search</tspan></text><text style="font-variant:normal;font-weight:normal;font-size:22.52px;font-family:'DejaVu Sans';-inkscape-font-specification:DejaVuSans;writing-mode:lr-tb;fill:#000000;fill-opacity:1;fill-rule:nonzero;stroke:none" transform="matrix(1,0,0,-1,523.231,293.434)"><tspan>☰</tspan></text><text style="font-variant:normal;font-weight:normal;font-size:18.016px;font-family:'IBM Plex Sans';-inkscape-font-specification:IBMPlexSans;writing-mode:lr-tb;fill:#000000;fill-opacity:1;fill-rule:nonzero;stroke:none" transform="matrix(1,0,0,-1,32.021,230.377)"><tspan x="0 11.26 21.025 30.033 40.536 50.301 57.057 66.065 76.569 86.333 90.838">Recherche :</tspan></text></g></g></g></g></g><g><g clip-path="url(#clipPath104)"><g transform="translate(0,-0.671)"><g><g clip-path="url(#clipPath114)"><g><g transform="matrix(1,0,0,-1,0,367)"><path style="fill:#ffffff;fill-opacity:1;fill-rule:nonzero;stroke:#767676;stroke-width:0.751;stroke-linecap:butt;stroke-linejoin:miter;stroke-miterlimit:10;stroke-dasharray:none;stroke-opacity:1" d="M 133.246,142.254 V 117.48 c 0,-0.199 0.035,-0.39 0.113,-0.574 0.075,-0.183 0.184,-0.347 0.325,-0.488 0.14,-0.141 0.304,-0.25 0.488,-0.324 0.183,-0.078 0.375,-0.114 0.574,-0.114 h 176.406 c 0.2,0 0.391,0.036 0.578,0.114 0.184,0.074 0.344,0.183 0.485,0.324 0.14,0.141 0.25,0.305 0.328,0.488 0.074,0.184 0.113,0.375 0.113,0.574 v 24.774 c 0,0.199 -0.039,0.391 -0.113,0.574 -0.078,0.184 -0.188,0.344 -0.328,0.484 -0.141,0.141 -0.301,0.25 -0.485,0.329 -0.187,0.074 -0.378,0.113 -0.578,0.113 H 134.746 c -0.199,0 -0.391,-0.039 -0.574,-0.113 -0.184,-0.079 -0.348,-0.188 -0.488,-0.329 -0.141,-0.14 -0.25,-0.3 -0.325,-0.484 -0.078,-0.183 -0.113,-0.375 -0.113,-0.574 z"/></g></g></g></g></g></g></g><g><g clip-path="url(#clipPath128)"><g transform="translate(0,-0.671)"><g><g clip-path="url(#clipPath138)"><g><text style="font-variant:normal;font-weight:normal;font-size:18.016px;font-family:'IBM Plex Sans';-inkscape-font-specification:IBMPlexSans;writing-mode:lr-tb;fill:#000000;fill-opacity:1;fill-rule:nonzero;stroke:none" transform="matrix(1,0,0,-1,135.614,230.377)"><tspan x="0 10.503 20.268 25.529 35.276 42.032 46.554 55.562 60.066 66.065 70.569 80.334 96.062 105.845">dolor sit amet</tspan></text></g></g></g></g></g></g><g><g transform="translate(0,-0.671)"><g><g clip-path="url(#clipPath156)"><g><path style="fill:#d3d3d3;fill-opacity:1;fill-rule:nonzero;stroke:none" d="m 317.535,253.648 h 177.16 v -33.031 h -177.16 z"/><path style="fill:#f0f0f0;fill-opacity:1;fill-rule:nonzero;stroke:none" d="m 317.535,253.648 h 177.16 v -3.754 h -177.16 z"/><path style="fill:#9c9c9c;fill-opacity:1;fill-rule:nonzero;stroke:none" d="m 317.535,224.371 h 177.16 v -3.754 h -177.16 z"/><path style="fill:#9c9c9c;fill-opacity:1;fill-rule:nonzero;stroke:none" d="m 490.941,249.895 v -29.278 h 3.754 v 33.031"/><path style="fill:#f0f0f0;fill-opacity:1;fill-rule:nonzero;stroke:none" d="m 317.535,253.648 v -33.031 l 3.754,3.754 v 29.277"/></g></g></g></g></g><g><g clip-path="url(#clipPath176)"><g transform="translate(0,-0.671)"><g><g clip-path="url(#clipPath186)"><g><text style="font-variant:normal;font-weight:normal;font-size:18.016px;font-family:'IBM Plex Sans';-inkscape-font-specification:IBMPlexSans;writing-mode:lr-tb;fill:#000000;fill-opacity:1;fill-rule:nonzero;stroke:none" transform="matrix(1,0,0,-1,325.781,230.377)"><tspan x="0 9.026 18.773 29.276 38.284 48.049 54.805 59.309 64.57 74.317 78.821 85.577 95.342 104.35 114.853 124.618 131.374 140.382 150.903">Lancer la recherche</tspan></text></g></g></g></g></g></g><g><g transform="translate(0,-0.671)"><g><g clip-path="url(#clipPath204)"><g><text style="font-variant:normal;font-weight:600;font-size:28.023px;font-family:'IBM Plex Sans SemiBold';-inkscape-font-specification:IBMPlexSans-SemiBold;writing-mode:lr-tb;fill:#000000;fill-opacity:1;fill-rule:nonzero;stroke:none" transform="matrix(1,0,0,-1,32.021,173.326)"><tspan x="0 18.019 33.795 47.302 63.78 72.018 82.583 98.36 108.84">Résultats</tspan></text><path style="fill:#000000;fill-opacity:1;fill-rule:nonzero;stroke:none" d="m 51.047,134.293 c 0,-0.398 -0.078,-0.781 -0.231,-1.152 -0.152,-0.368 -0.367,-0.692 -0.648,-0.973 -0.281,-0.281 -0.609,-0.5 -0.977,-0.652 -0.367,-0.153 -0.75,-0.227 -1.148,-0.227 -0.398,0 -0.781,0.074 -1.148,0.227 -0.368,0.152 -0.692,0.371 -0.977,0.652 -0.281,0.281 -0.496,0.605 -0.648,0.973 -0.153,0.371 -0.231,0.754 -0.231,1.152 0,0.395 0.078,0.781 0.231,1.148 0.152,0.368 0.367,0.692 0.648,0.973 0.285,0.281 0.609,0.5 0.977,0.652 0.367,0.153 0.75,0.227 1.148,0.227 0.398,0 0.781,-0.074 1.148,-0.227 0.368,-0.152 0.696,-0.371 0.977,-0.652 0.281,-0.281 0.496,-0.605 0.648,-0.973 0.153,-0.367 0.231,-0.753 0.231,-1.148 z"/></g></g></g></g><g transform="translate(0,-0.671)"><g><g clip-path="url(#clipPath222)"><g><g><g><g clip-path="url(#clipPath234)"><g><g><g><g clip-path="url(#clipPath246)"><g><path style="fill:#0000ee;fill-opacity:1;fill-rule:nonzero;stroke:none" d="m 62.047,126.785 h 222.199 v -1.504 H 62.047 Z"/></g></g></g></g></g></g></g></g></g></g></g></g><g transform="translate(0,-0.671)"><g><g clip-path="url(#clipPath260)"><g><text style="font-variant:normal;font-weight:normal;font-size:18.016px;font-family:'IBM Plex Sans';-inkscape-font-specification:IBMPlexSans;writing-mode:lr-tb;fill:#0000ee;fill-opacity:1;fill-rule:nonzero;stroke:none" transform="matrix(1,0,0,-1,62.048,128.286)"><tspan x="0 9.026 18.773 25.529 35.276 51.058 55.562 60.066 70.569 79.577 90.081 105.809 110.349 120.87 130.635 135.878 145.643 152.399 156.903 165.911 170.415 176.414 180.918 190.683 206.411 216.212">Lorem ipsum dolor sit amet</tspan></text><path style="fill:#000000;fill-opacity:1;fill-rule:nonzero;stroke:none" d="m 51.047,110.27 c 0,-0.399 -0.078,-0.782 -0.231,-1.149 -0.152,-0.367 -0.367,-0.691 -0.648,-0.976 -0.281,-0.282 -0.609,-0.497 -0.977,-0.649 -0.367,-0.152 -0.75,-0.23 -1.148,-0.23 -0.398,0 -0.781,0.078 -1.148,0.23 -0.368,0.152 -0.692,0.367 -0.977,0.649 -0.281,0.285 -0.496,0.609 -0.648,0.976 -0.153,0.367 -0.231,0.75 -0.231,1.149 0,0.398 0.078,0.781 0.231,1.148 0.152,0.367 0.367,0.691 0.648,0.977 0.285,0.281 0.609,0.496 0.977,0.648 0.367,0.152 0.75,0.23 1.148,0.23 0.398,0 0.781,-0.078 1.148,-0.23 0.368,-0.152 0.696,-0.367 0.977,-0.648 0.281,-0.286 0.496,-0.61 0.648,-0.977 0.153,-0.367 0.231,-0.75 0.231,-1.148 z"/></g></g></g></g><g transform="translate(0,-0.671)"><g><g clip-path="url(#clipPath278)"><g><g><g><g clip-path="url(#clipPath290)"><g><g><g><g clip-path="url(#clipPath302)"><g><path style="fill:#0000ee;fill-opacity:1;fill-rule:nonzero;stroke:none" d="m 62.047,102.762 h 190.672 v -1.5 H 62.047 Z"/></g></g></g></g></g></g></g></g></g></g></g></g><g transform="translate(0,-0.671)"><g><g clip-path="url(#clipPath316)"><g><text style="font-variant:normal;font-weight:normal;font-size:18.016px;font-family:'IBM Plex Sans';-inkscape-font-specification:IBMPlexSans;writing-mode:lr-tb;fill:#0000ee;fill-opacity:1;fill-rule:nonzero;stroke:none" transform="matrix(1,0,0,-1,62.048,104.264)"><tspan x="0 12.737 23.277 28.52 33.78 43.545 48.049 53.31 63.057 72.065 76.569 87.09 91.594 101.341 105.845 111.862 121.609 137.391 147.895 158.398 167.406 171.91 181.675">Nulla lacinia tempus ex</tspan></text><path style="fill:#000000;fill-opacity:1;fill-rule:nonzero;stroke:none" d="m 51.047,86.246 c 0,-0.394 -0.078,-0.777 -0.231,-1.148 -0.152,-0.368 -0.367,-0.692 -0.648,-0.973 -0.281,-0.281 -0.609,-0.5 -0.977,-0.652 -0.367,-0.153 -0.75,-0.227 -1.148,-0.227 -0.398,0 -0.781,0.074 -1.148,0.227 -0.368,0.152 -0.692,0.371 -0.977,0.652 -0.281,0.281 -0.496,0.605 -0.648,0.973 -0.153,0.371 -0.231,0.754 -0.231,1.148 0,0.399 0.078,0.781 0.231,1.152 0.152,0.368 0.367,0.692 0.648,0.973 0.285,0.281 0.609,0.5 0.977,0.652 0.367,0.153 0.75,0.227 1.148,0.227 0.398,0 0.781,-0.074 1.148,-0.227 0.368,-0.152 0.696,-0.371 0.977,-0.652 0.281,-0.281 0.496,-0.605 0.648,-0.973 0.153,-0.371 0.231,-0.753 0.231,-1.152 z"/></g></g></g></g><g transform="translate(0,-0.671)"><g><g clip-path="url(#clipPath334)"><g><g><g><g clip-path="url(#clipPath346)"><g><g><g><g clip-path="url(#clipPath358)"><g><g><g><g clip-path="url(#clipPath370)"><g><path style="fill:#0000ee;fill-opacity:1;fill-rule:nonzero;stroke:none" d="M 62.047,78.742 H 252.719 V 77.238 H 62.047 Z"/></g></g></g></g></g></g></g></g></g></g></g></g></g></g></g></g><g transform="translate(0,-0.671)"><g><g clip-path="url(#clipPath384)"><g><text style="font-variant:normal;font-weight:normal;font-size:18.016px;font-family:'IBM Plex Sans';-inkscape-font-specification:IBMPlexSans;writing-mode:lr-tb;fill:#0000ee;fill-opacity:1;fill-rule:nonzero;stroke:none" transform="matrix(1,0,0,-1,62.048,80.243)"><tspan x="0 12.737 23.277 28.52 33.78 43.545 48.049 58.553 64.57 69.074 75.073 85.577 92.333 102.854 107.358 116.366 120.87 131.374 141.895 151.642 158.398 168.163 174.162 180.918">Nulla ut turpis pharetra</tspan></text><text style="font-variant:normal;font-weight:normal;font-size:18.016px;font-family:'IBM Plex Sans';-inkscape-font-specification:IBMPlexSans;writing-mode:lr-tb;fill:#000000;fill-opacity:1;fill-rule:nonzero;stroke:none" transform="matrix(1,0,0,-1,32.021,38.205)"><tspan x="0 10.503 15.007 24.772 31.528 37.528 42.032 51.094 56.301 66.065 75.073 79.577 85.577 92.333 102.098 112.601 121.609 131.374 140.382 145.643 150.147 160.65 165.154 175.676 185.422 195.187 204.952 210.195 214.699 225.22 235.724 240.228 246.984 256.748 265.757 276.26 281.521 287.52 297.285 303.284 312.31 316.814 327.318 337.083 343.839 348.343 358.846 368.611 378.358 388.122">3 articles trouvés, 1 page, 10 résultats par page.</tspan></text></g></g></g></g></g></g></svg>
