<?xml version="1.0" encoding="utf-8"?>
<svg xmlns:dc="http://purl.org/dc/elements/1.1/" xmlns:cc="http://creativecommons.org/ns#" xmlns:rdf="http://www.w3.org/1999/02/22-rdf-syntax-ns#" xmlns:svg="http://www.w3.org/2000/svg" xmlns="http://www.w3.org/2000/svg" viewBox="0 0 742.66656 586.52643" height="586.526" width="742.667" xml:space="preserve" version="1.1"><defs><clipPath id="clipPath22" clipPathUnits="userSpaceOnUse"><path d="M 0,0 H 557 V 440 H 0 Z"/></clipPath></defs><g transform="matrix(1.333,0,0,-1.333,0,586.526)"><g><g transform="translate(0,-0.105)"><g><g clip-path="url(#clipPath22)"><g><path style="fill:#d3d3d3;fill-opacity:1;fill-rule:nonzero;stroke:none" d="M 0,440 H 557 V 0.105 H 0 Z"/><path style="fill:#eeeeee;fill-opacity:1;fill-rule:nonzero;stroke:none" d="m 0,440 h 557 v -2.254 H 0 Z"/><path style="fill:#9a9a9a;fill-opacity:1;fill-rule:nonzero;stroke:none" d="M 0,2.355 H 557 V 0.105 H 0 Z"/><path style="fill:#9a9a9a;fill-opacity:1;fill-rule:nonzero;stroke:none" d="M 554.746,437.746 V 0.105 H 557 V 440"/><path style="fill:#eeeeee;fill-opacity:1;fill-rule:nonzero;stroke:none" d="M 0,440 V 0.105 l 2.254,2.25 V 440"/><path style="fill:#00008b;fill-opacity:1;fill-rule:nonzero;stroke:none" d="M 5.254,434.746 H 551.746 V 396.461 H 5.254 Z"/><path style="fill:#d3d3d3;fill-opacity:1;fill-rule:nonzero;stroke:none" d="M 5.254,396.461 H 551.746 V 353.672 H 5.254 Z"/><path style="fill:#ffffff;fill-opacity:1;fill-rule:nonzero;stroke:none" d="M 5.254,353.672 H 551.746 V 5.36 H 5.254 Z"/><path style="fill:#9a9a9a;fill-opacity:1;fill-rule:nonzero;stroke:none" d="m 5.254,353.672 h 546.492 v -2.25 H 5.254 Z"/><path style="fill:#eeeeee;fill-opacity:1;fill-rule:nonzero;stroke:none" d="M 5.254,7.613 H 551.746 V 5.359 H 5.254 Z"/><path style="fill:#eeeeee;fill-opacity:1;fill-rule:nonzero;stroke:none" d="M 549.492,351.422 V 5.359 h 2.254 v 348.313"/><path style="fill:#9a9a9a;fill-opacity:1;fill-rule:nonzero;stroke:none" d="M 5.254,353.672 V 5.359 l 2.254,2.254 v 346.059"/><path style="fill:#d3d3d3;fill-opacity:1;fill-rule:nonzero;stroke:none" d="m 517.215,430.242 h 30.027 v -30.027 h -30.027 z"/><path style="fill:#ffffff;fill-opacity:1;fill-rule:nonzero;stroke:none" d="m 517.215,430.242 h 30.027 v -3.754 h -30.027 z"/><path style="fill:#ababab;fill-opacity:1;fill-rule:nonzero;stroke:none" d="m 517.215,403.969 h 30.027 v -3.754 h -30.027 z"/><path style="fill:#ababab;fill-opacity:1;fill-rule:nonzero;stroke:none" d="m 543.488,426.488 v -26.273 h 3.754 v 30.027"/><path style="fill:#ffffff;fill-opacity:1;fill-rule:nonzero;stroke:none" d="m 517.215,430.242 v -30.027 l 3.754,3.754 v 26.273"/><text style="font-variant:normal;font-weight:normal;font-size:18.016px;font-family:'DejaVu Sans';-inkscape-font-specification:DejaVuSans;writing-mode:lr-tb;fill:#000000;fill-opacity:1;fill-rule:nonzero;stroke:none" transform="matrix(1,0,0,-1,524.979,409.222)"><tspan>✕</tspan></text><text style="font-variant:normal;font-weight:600;font-size:18.016px;font-family:'IBM Plex Sans SemiBold';-inkscape-font-specification:IBMPlexSans-SemiBold;writing-mode:lr-tb;fill:#ffffff;fill-opacity:1;fill-rule:nonzero;stroke:none" transform="matrix(1,0,0,-1,9.501,408.472)"><tspan x="0 9.765 20.268 27.024 36.789 52.553 57.057 64.57 75.073 84.063 94.585 110.349 114.853 121.627 126.131 138.887 151.642 164.416 177.171 181.675 192.935 200.448 210.951">Lorem Ipsum | GOOD SITE</tspan></text><text style="font-variant:normal;font-weight:normal;font-size:22.52px;font-family:'IBM Plex Sans';-inkscape-font-specification:IBMPlexSans;writing-mode:lr-tb;fill:#000000;fill-opacity:1;fill-rule:nonzero;stroke:none" transform="matrix(1,0,0,-1,13.5,366.434)"><tspan>←</tspan></text><text style="font-variant:normal;font-weight:normal;font-size:22.52px;font-family:'IBM Plex Sans';-inkscape-font-specification:IBMPlexSans;writing-mode:lr-tb;fill:#000000;fill-opacity:1;fill-rule:nonzero;stroke:none" transform="matrix(1,0,0,-1,42.777,366.434)"><tspan>→</tspan></text><text style="font-variant:normal;font-weight:normal;font-size:22.52px;font-family:'DejaVu Sans';-inkscape-font-specification:DejaVuSans;writing-mode:lr-tb;fill:#000000;fill-opacity:1;fill-rule:nonzero;stroke:none" transform="matrix(1,0,0,-1,72.053,366.434)"><tspan>⟳</tspan></text><path style="fill:#ffffff;fill-opacity:1;fill-rule:nonzero;stroke:none" d="m 102.59,363.68 v 22.773 c 0,0.465 0.09,0.91 0.265,1.34 0.18,0.43 0.434,0.809 0.762,1.137 0.328,0.328 0.707,0.582 1.137,0.761 0.43,0.176 0.875,0.266 1.34,0.266 h 404.863 c 0.465,0 0.914,-0.09 1.344,-0.266 0.429,-0.179 0.808,-0.433 1.137,-0.761 0.328,-0.328 0.582,-0.707 0.757,-1.137 0.18,-0.43 0.27,-0.875 0.27,-1.34 V 363.68 c 0,-0.465 -0.09,-0.91 -0.27,-1.34 -0.175,-0.43 -0.429,-0.809 -0.757,-1.137 -0.329,-0.328 -0.708,-0.582 -1.137,-0.762 -0.43,-0.175 -0.879,-0.265 -1.344,-0.265 H 106.094 c -0.465,0 -0.91,0.09 -1.34,0.265 -0.43,0.18 -0.809,0.434 -1.137,0.762 -0.328,0.328 -0.582,0.707 -0.762,1.137 -0.175,0.43 -0.265,0.875 -0.265,1.34 z"/><g transform="matrix(1,0,0,-1,0,440)"><path style="fill:none;stroke:#808080;stroke-width:0.751;stroke-linecap:butt;stroke-linejoin:miter;stroke-miterlimit:10;stroke-dasharray:none;stroke-opacity:1" d="M 102.469,76.32 V 53.547 c 0,-0.481 0.09,-0.942 0.273,-1.387 0.184,-0.445 0.446,-0.836 0.789,-1.176 0.34,-0.343 0.731,-0.605 1.176,-0.789 0.445,-0.183 0.906,-0.277 1.387,-0.277 h 404.863 c 0.484,0 0.945,0.094 1.391,0.277 0.445,0.184 0.836,0.446 1.175,0.789 0.34,0.34 0.602,0.731 0.789,1.176 0.184,0.445 0.274,0.906 0.274,1.387 V 76.32 c 0,0.481 -0.09,0.942 -0.274,1.387 -0.187,0.445 -0.449,0.836 -0.789,1.176 -0.339,0.34 -0.73,0.605 -1.175,0.789 -0.446,0.183 -0.907,0.273 -1.391,0.273 H 106.094 c -0.481,0 -0.942,-0.09 -1.387,-0.273 -0.445,-0.184 -0.836,-0.449 -1.176,-0.789 -0.343,-0.34 -0.605,-0.731 -0.789,-1.176 -0.183,-0.445 -0.273,-0.906 -0.273,-1.387 z"/></g><text style="font-variant:normal;font-weight:normal;font-size:16.215px;font-family:'IBM Plex Sans';-inkscape-font-specification:IBMPlexSans;writing-mode:lr-tb;fill:#000000;fill-opacity:1;fill-rule:nonzero;stroke:none" transform="matrix(1,0,0,-1,111.076,368.686)"><tspan x="0 9.761 15.761 21.776 31.537 39.791 44.298 48.044 54.059 63.058 71.279 80.327 94.596 104.357 108.848 117.864 122.371 130.624 139.64 153.892">https://example.com/</tspan></text><text style="font-variant:normal;font-weight:normal;font-size:22.52px;font-family:'DejaVu Sans';-inkscape-font-specification:DejaVuSans;writing-mode:lr-tb;fill:#000000;fill-opacity:1;fill-rule:nonzero;stroke:none" transform="matrix(1,0,0,-1,523.231,366.434)"><tspan>☰</tspan></text><text style="font-variant:normal;font-weight:600;font-size:28.023px;font-family:'IBM Plex Sans SemiBold';-inkscape-font-specification:IBMPlexSans-SemiBold;writing-mode:lr-tb;fill:#000000;fill-opacity:1;fill-rule:nonzero;stroke:none" transform="matrix(1,0,0,-1,32.021,298.123)"><tspan x="0 14.264 30.04 41.277 57.054 81.826 88.58 96.09 112.623 126.13 142.607">Lorem ipsum</tspan></text><text style="font-variant:normal;font-weight:normal;font-size:18.016px;font-family:'IBM Plex Sans';-inkscape-font-specification:IBMPlexSans;writing-mode:lr-tb;fill:#000000;fill-opacity:1;fill-rule:nonzero;stroke:none" transform="matrix(1,0,0,-1,32.021,253.082)"><tspan x="0 9.026 18.773 25.529 35.276 51.058 55.562 60.066 70.569 79.577 90.081 105.809 110.349 120.87 130.635 135.878 145.643 152.399 156.903 165.911 170.415 176.414 180.918 193.656 204.195 218.464 227.49 231.976 238.012 250.749 259.739 270.261 280.025 286.781 291.285 300.294 310.058 319.066 325.066 329.57 343.839 353.585 360.341 370.106 380.628 391.131 395.635 404.661 414.408 424.911 434.676 445.18 454.944 464.691 474.456 480.491">Lorem ipsum dolor sit HTML (Hyper Text Markup Language),</tspan><tspan y="24.022" x="0 9.008 18.773 29.276 38.284 48.049 57.057 63.057 72.821 78.821 89.342 96.098 100.602 110.349 120.87 125.375 135.878 140.382 149.39 158.398 162.902 173.424 183.17 187.674 197.439 202.7 207.204 213.203 218.464 222.968 235.706 246.245 251.488 256.748 266.513 271.017 276.26 286.025 295.033 299.537 310.04 314.544 324.309 328.813 334.831 344.577 360.305 370.863 381.366 390.374 394.878 404.643 413.651 418.912 423.416 432.424 436.928 442.928 447.432 457.196 472.925 482.725">consectetur adipiscing elit. Nulla lacinia tempus ex, sit amet</tspan><tspan y="48.043" x="0 10.503 21.025 26.268 35.276 39.78 50.301 60.066 66.822 71.326 81.073 90.081 96.098 101.341 156.903 167.406 173.406 177.91 183.927 194.431 201.187 211.708 216.212 225.22 229.724 240.228 250.731 260.496 267.252 277.017 283.016 289.772 299.537 304.798 309.302 318.31 327.318 337.065 342.325 352.09 358.846 363.35 372.358 382.862 393.383 403.13 407.634 418.155 427.902 433.163 442.928 449.684 454.188 458.692 469.195">pulvinar est. ut turpis pharetra, scelerisque dolor id,</tspan><tspan y="72.065" x="0 10.503 20.268 30.772 35.276 45.797 56.301 65.309 69.813 75.073 79.577 90.081 99.846 106.602 116.366 121.609 126.113 137.391 147.138 157.66 167.406 177.171 187.674 192.179 201.187 210.951 221.455 225.977 231.22 240.984 249.992 260.496 269.504 274.008 278.512 294.24 304.798 314.562 321.318 331.822 336.326 346.091 352.09 357.351 361.855 372.358 379.114 388.879 394.878 399.382 409.904 425.632 430.172 434.676 445.18 454.188 460.187">dapibus libero. Aenean sed lacus imperdiet, pretium justo</tspan><tspan y="96.086" x="0 9.008 13.512 19.512 29.276 39.041 44.302 48.806 57.814 67.561 78.082 88.586 93.09 108.818 118.618 129.122 135.139 145.643 161.371 165.911 176.414 180.918 189.926 194.431 199.691 204.195 218.464 228.229 237.976 246.984 256.748 267.252 277.017 286.025 290.529 296.528 306.293 311.554 316.814 327.318 336.326 340.83 351.333 361.855 366.359 371.602 376.106 385.87 394.878 403.887 414.408 430.136 439.18 448.927">vitae, condimentum nisi. Maecenas tellus dui, accumsan</tspan></text><path style="fill:#0000ee;fill-opacity:1;fill-rule:nonzero;stroke:none" d="m 32.02,131.473 h 46.543 v -1.5 H 32.02 Z"/><text style="font-variant:normal;font-weight:normal;font-size:18.016px;font-family:'IBM Plex Sans';-inkscape-font-specification:IBMPlexSans;writing-mode:lr-tb;fill:#0000ee;fill-opacity:1;fill-rule:nonzero;stroke:none" transform="matrix(1,0,0,-1,32.021,132.974)"><tspan x="0 12.737 23.277 37.528">HTML</tspan></text><text style="font-variant:normal;font-weight:normal;font-size:18.016px;font-family:'IBM Plex Sans';-inkscape-font-specification:IBMPlexSans;writing-mode:lr-tb;fill:#000000;fill-opacity:1;fill-rule:nonzero;stroke:none" transform="matrix(1,0,0,-1,83.067,132.974)"><tspan x="0 9.008 18.773 29.276 38.284 48.049 53.31 58.553 63.057 72.065 76.569 81.073 91.594 96.837 101.341 111.862 121.609 132.131 136.635 147.138 157.66 166.668 171.172 180.918 190.683 200.448 206.447 210.951 220.716 231.22 235.724 245.488 250.749 255.253 267.252 277.017 287.52 297.285 306.293 310.797 316.814 327.318 334.074 344.577 349.081 358.089 362.593 367.854 377.619 386.627 397.13 406.139">convallis in, dapibus eget odio. Donec turpis lacus,</tspan></text><text style="font-variant:normal;font-weight:normal;font-size:18.016px;font-family:'IBM Plex Sans';-inkscape-font-specification:IBMPlexSans;writing-mode:lr-tb;fill:#000000;fill-opacity:1;fill-rule:nonzero;stroke:none" transform="matrix(1,0,0,-1,32.021,108.953)"><tspan>ﬁ</tspan></text><text style="font-variant:normal;font-weight:normal;font-size:18.016px;font-family:'IBM Plex Sans';-inkscape-font-specification:IBMPlexSans;writing-mode:lr-tb;fill:#000000;fill-opacity:1;fill-rule:nonzero;stroke:none" transform="matrix(1,0,0,-1,42.524,108.953)"><tspan x="0 10.521 15.025 25.529 36.05 45.058 49.562 59.309 65.327 69.831 78.839 88.586 95.342 99.846 110.367 119.375 123.879 139.607 149.408 158.416 162.92 178.648 189.188 198.196 203.457 207.961 216.969 221.473 230.481 240.246 247.002 253.758 263.505 268.009 277.017 281.521 287.538 292.042 301.807 317.535 327.318 333.335 337.839 348.343 352.847 361.855 366.359 371.62 376.124 386.591 397.148 406.157 416.66 426.425 436.928 447.432 451.936 460.944 469.97">nibus at varius maximus, viverra sit amet nisi. Suspendisse</tspan><tspan y="24.022" x="-10.503 0 6.017 10.521 21.025 25.529 35.294 51.022 55.562 62.318 66.822 75.83 86.333 95.342 100.602 105.106 115.61 125.375 134.383 140.4 144.904 155.407 165.911 171.172 181.675 197.403 201.943 211.005 220.716 231.238 241.741 246.245 261.973 271.774 282.277 288.277 298.798 314.526 319.066 329.57 336.326 346.847 356.594 361.098 370.106 374.61 380.628 390.392 400.139 404.643 414.408 421.164 430.172">ut diam risus. Vestibulum condimentum urna vitae arcu</tspan><tspan y="48.043" x="-10.503 -3.747 6.756 16.521 27.024 36.086 46.554 55.562 60.823 65.327 75.073 85.595 90.099 99.107 114.835 124.618 135.139 139.643 144.147 159.876 170.415 180.18 186.936 197.439 201.943 211.708 217.725 222.229 237.958 247.74 256.748 265.757 275.521 280.025 289.033 298.798 309.302 318.31 328.074 338.578 349.099 358.846 364.863 370.106 374.61 385.87 395.635 400.896 406.157 415.903 426.425 432.424 442.189 451.197 461.7 472.204">rhoncus, euismod imperdiet massa consequat. Pellentesque</tspan><tspan y="72.065" x="-10.503 0 10.521 15.764 24.772 29.276 39.798 49.562 56.319 60.823 70.569 81.091 90.099 96.098 105.863 112.619 117.123 126.888 133.644 143.391 152.399 156.903 165.911 175.676 180.936 186.179 190.683 199.691 204.195 210.213 220.716 231.238 235.742 246.245 250.749 256.01 265.757 276.278 286.025 292.781 298.798 303.302 312.31">pulvinar auctor eros sollicitudin lobortis.</tspan></text><path style="fill:#000000;fill-opacity:1;fill-rule:nonzero;stroke:none" d="m 137.375,203.688 h 1.5 v -1.801 h -1.5 z"/><path style="fill:#000000;fill-opacity:1;fill-rule:nonzero;stroke:none" d="m 140.375,203.688 h 1.504 v -1.801 h -1.504 z"/><path style="fill:#000000;fill-opacity:1;fill-rule:nonzero;stroke:none" d="m 143.379,203.688 h 1.5 v -1.801 h -1.5 z"/><path style="fill:#000000;fill-opacity:1;fill-rule:nonzero;stroke:none" d="m 146.383,203.688 h 1.5 v -1.801 h -1.5 z"/><path style="fill:#000000;fill-opacity:1;fill-rule:nonzero;stroke:none" d="m 149.383,203.688 h 1.504 v -1.801 h -1.504 z"/><path style="fill:#000000;fill-opacity:1;fill-rule:nonzero;stroke:none" d="m 152.387,203.688 h 1.5 v -1.801 h -1.5 z"/><path style="fill:#000000;fill-opacity:1;fill-rule:nonzero;stroke:none" d="m 155.391,203.688 h 1.5 v -1.801 h -1.5 z"/><path style="fill:#000000;fill-opacity:1;fill-rule:nonzero;stroke:none" d="m 158.391,203.688 h 1.504 v -1.801 h -1.504 z"/><path style="fill:#000000;fill-opacity:1;fill-rule:nonzero;stroke:none" d="m 161.395,203.688 h 1.5 v -1.801 h -1.5 z"/><path style="fill:#000000;fill-opacity:1;fill-rule:nonzero;stroke:none" d="m 164.398,203.688 h 1.5 v -1.801 h -1.5 z"/><path style="fill:#000000;fill-opacity:1;fill-rule:nonzero;stroke:none" d="m 167.398,203.688 h 1.504 v -1.801 h -1.504 z"/><path style="fill:#000000;fill-opacity:1;fill-rule:nonzero;stroke:none" d="m 170.402,203.688 h 1.5 v -1.801 h -1.5 z"/><path style="fill:#000000;fill-opacity:1;fill-rule:nonzero;stroke:none" d="m 173.406,203.688 h 1.5 v -1.801 h -1.5 z"/><path style="fill:#000000;fill-opacity:1;fill-rule:nonzero;stroke:none" d="m 176.41,203.688 h 1.5 v -1.801 h -1.5 z"/><path style="fill:#000000;fill-opacity:1;fill-rule:nonzero;stroke:none" d="m 179.41,203.688 h 1.504 v -1.801 h -1.504 z"/><path style="fill:#000000;fill-opacity:1;fill-rule:nonzero;stroke:none" d="m 182.414,203.688 h 1.5 v -1.801 h -1.5 z"/><text style="font-variant:normal;font-weight:normal;font-size:18.016px;font-family:'IBM Plex Sans';-inkscape-font-specification:IBMPlexSans;writing-mode:lr-tb;fill:#000000;fill-opacity:1;fill-rule:nonzero;stroke:none" transform="matrix(1,0,0,-1,137.866,205.039)"><tspan x="0 12.737 23.277 37.528">HTML</tspan></text><path style="fill:#000000;fill-opacity:0.702;fill-rule:nonzero;stroke:none" d="m 185.914,190.277 v 20.516 c 0,0.465 0.09,0.914 0.27,1.344 0.175,0.429 0.429,0.808 0.757,1.136 0.329,0.329 0.707,0.582 1.137,0.758 0.43,0.18 0.879,0.27 1.344,0.27 h 195.422 c 0.465,0 0.914,-0.09 1.344,-0.27 0.429,-0.176 0.808,-0.429 1.136,-0.758 0.328,-0.328 0.582,-0.707 0.758,-1.136 0.18,-0.43 0.27,-0.879 0.27,-1.344 v -20.516 c 0,-0.465 -0.09,-0.914 -0.27,-1.343 -0.176,-0.43 -0.43,-0.809 -0.758,-1.137 -0.328,-0.328 -0.707,-0.582 -1.136,-0.758 -0.43,-0.18 -0.879,-0.269 -1.344,-0.269 H 189.422 c -0.465,0 -0.914,0.089 -1.344,0.269 -0.43,0.176 -0.808,0.43 -1.137,0.758 -0.328,0.328 -0.582,0.707 -0.757,1.137 -0.18,0.429 -0.27,0.878 -0.27,1.343 z"/><g transform="matrix(1,0,0,-1,0,440)"><path style="fill:none;stroke:#000000;stroke-width:0.751;stroke-linecap:butt;stroke-linejoin:miter;stroke-miterlimit:10;stroke-dasharray:none;stroke-opacity:1" d="m 185.793,249.723 v -20.516 c 0,-0.484 0.09,-0.945 0.273,-1.391 0.188,-0.445 0.45,-0.836 0.789,-1.175 0.34,-0.34 0.731,-0.602 1.176,-0.786 0.446,-0.187 0.907,-0.277 1.391,-0.277 h 195.422 c 0.484,0 0.945,0.09 1.39,0.277 0.446,0.184 0.836,0.446 1.176,0.786 0.34,0.339 0.602,0.73 0.789,1.175 0.184,0.446 0.274,0.907 0.274,1.391 v 20.516 c 0,0.484 -0.09,0.945 -0.274,1.39 -0.187,0.446 -0.449,0.836 -0.789,1.176 -0.34,0.34 -0.73,0.602 -1.176,0.789 -0.445,0.184 -0.906,0.274 -1.39,0.274 H 189.422 c -0.484,0 -0.945,-0.09 -1.391,-0.274 -0.445,-0.187 -0.836,-0.449 -1.176,-0.789 -0.339,-0.34 -0.601,-0.73 -0.789,-1.176 -0.183,-0.445 -0.273,-0.906 -0.273,-1.39 z"/></g><text style="font-variant:normal;font-weight:normal;font-size:14.413px;font-family:'IBM Plex Sans';-inkscape-font-specification:IBMPlexSans;writing-mode:lr-tb;fill:#ffffff;fill-opacity:1;fill-rule:nonzero;stroke:none" transform="matrix(1,0,0,-1,193.533,194.53)"><tspan x="0 9.758 16.517 24.776 32.285 37.531 40.544 48.053 55.547 63.057 68.317 71.315 82.586 90.081 95.37 102.851 111.109 119.368 122.366 129.875 137.384 145.643 153.152 161.41 168.92 176.414">Hyper Text Markup Language</tspan></text></g></g></g></g></g></g></svg>
