<?xml version="1.0" encoding="utf-8"?>
<svg xmlns:dc="http://purl.org/dc/elements/1.1/" xmlns:cc="http://creativecommons.org/ns#" xmlns:rdf="http://www.w3.org/1999/02/22-rdf-syntax-ns#" xmlns:svg="http://www.w3.org/2000/svg" xmlns="http://www.w3.org/2000/svg" viewBox="0 0 742.66656 461.41415" height="461.414" width="742.667" xml:space="preserve" version="1.1"><defs><clipPath id="clipPath22" clipPathUnits="userSpaceOnUse"><path d="M 0,0 H 557 V 347 H 0 Z"/></clipPath><clipPath id="clipPath112" clipPathUnits="userSpaceOnUse"><path d="M 87.828,159.143 H 320.539 V 130.616 H 87.828 Z"/></clipPath><clipPath id="clipPath122" clipPathUnits="userSpaceOnUse"><path d="m 87,131 h 234 v 30 H 87 Z"/></clipPath><clipPath id="clipPath136" clipPathUnits="userSpaceOnUse"><path d="M 89.332,157.643 H 319.035 V 132.12 H 89.332 Z"/></clipPath><clipPath id="clipPath146" clipPathUnits="userSpaceOnUse"><path d="m 91,135 h 52 v 17 H 91 Z"/></clipPath><clipPath id="clipPath164" clipPathUnits="userSpaceOnUse"><path d="m 33,92 h 43 v 14 H 33 Z"/></clipPath><clipPath id="clipPath178" clipPathUnits="userSpaceOnUse"><path d="M 80.32,112.6 H 313.031 V 84.077 H 80.32 Z"/></clipPath><clipPath id="clipPath188" clipPathUnits="userSpaceOnUse"><path d="m 80,85 h 234 v 29 H 80 Z"/></clipPath><clipPath id="clipPath202" clipPathUnits="userSpaceOnUse"><path d="M 81.824,111.1 H 311.531 V 85.577 H 81.824 Z"/></clipPath><clipPath id="clipPath212" clipPathUnits="userSpaceOnUse"><path d="m 83,92 h 67 v 14 H 83 Z"/></clipPath><clipPath id="clipPath230" clipPathUnits="userSpaceOnUse"><path d="M 32,33 H 243 V 67 H 32 Z"/></clipPath><clipPath id="clipPath250" clipPathUnits="userSpaceOnUse"><path d="M 36.031,61.557 H 238.715 V 36.034 H 36.031 Z"/></clipPath><clipPath id="clipPath260" clipPathUnits="userSpaceOnUse"><path d="M 41,42 H 234 V 57 H 41 Z"/></clipPath></defs><g transform="matrix(1.333,0,0,-1.333,0,461.414)"><g><g transform="translate(0,-0.939)"><g><g clip-path="url(#clipPath22)"><g><path style="fill:#d3d3d3;fill-opacity:1;fill-rule:nonzero;stroke:none" d="M 0,347 H 557 V 0.938 H 0 Z"/><path style="fill:#eeeeee;fill-opacity:1;fill-rule:nonzero;stroke:none" d="m 0,347 h 557 v -2.254 H 0 Z"/><path style="fill:#9a9a9a;fill-opacity:1;fill-rule:nonzero;stroke:none" d="M 0,3.191 H 557 V 0.937 H 0 Z"/><path style="fill:#9a9a9a;fill-opacity:1;fill-rule:nonzero;stroke:none" d="M 554.746,344.746 V 0.938 H 557 V 347"/><path style="fill:#eeeeee;fill-opacity:1;fill-rule:nonzero;stroke:none" d="M 0,347 V 0.938 L 2.254,3.191 V 347"/><path style="fill:#00008b;fill-opacity:1;fill-rule:nonzero;stroke:none" d="M 5.254,341.746 H 551.746 V 303.461 H 5.254 Z"/><path style="fill:#d3d3d3;fill-opacity:1;fill-rule:nonzero;stroke:none" d="M 5.254,303.461 H 551.746 V 260.672 H 5.254 Z"/><path style="fill:#ffffff;fill-opacity:1;fill-rule:nonzero;stroke:none" d="M 5.254,260.672 H 551.746 V 6.945 H 5.254 Z"/><path style="fill:#9a9a9a;fill-opacity:1;fill-rule:nonzero;stroke:none" d="m 5.254,260.672 h 546.492 v -2.25 H 5.254 Z"/><path style="fill:#eeeeee;fill-opacity:1;fill-rule:nonzero;stroke:none" d="M 5.254,9.195 H 551.746 V 6.945 H 5.254 Z"/><path style="fill:#eeeeee;fill-opacity:1;fill-rule:nonzero;stroke:none" d="M 549.492,258.422 V 6.945 h 2.254 v 253.727"/><path style="fill:#9a9a9a;fill-opacity:1;fill-rule:nonzero;stroke:none" d="M 5.254,260.672 V 6.945 l 2.254,2.25 v 251.477"/><g transform="matrix(1,0,0,-1,0,347)"><path style="fill:none;stroke:#ff0000;stroke-width:0.751;stroke-linecap:butt;stroke-linejoin:miter;stroke-miterlimit:10;stroke-dasharray:none;stroke-opacity:1" d="m 34.156,115.227 h 488.688 v 51.797 H 34.156 Z"/></g><path style="fill:#d3d3d3;fill-opacity:1;fill-rule:nonzero;stroke:none" d="m 517.215,337.242 h 30.027 v -30.027 h -30.027 z"/><path style="fill:#ffffff;fill-opacity:1;fill-rule:nonzero;stroke:none" d="m 517.215,337.242 h 30.027 v -3.754 h -30.027 z"/><path style="fill:#ababab;fill-opacity:1;fill-rule:nonzero;stroke:none" d="m 517.215,310.969 h 30.027 v -3.754 h -30.027 z"/><path style="fill:#ababab;fill-opacity:1;fill-rule:nonzero;stroke:none" d="m 543.488,333.488 v -26.273 h 3.754 v 30.027"/><path style="fill:#ffffff;fill-opacity:1;fill-rule:nonzero;stroke:none" d="m 517.215,337.242 v -30.027 l 3.754,3.754 v 26.273"/><text style="font-variant:normal;font-weight:normal;font-size:18.016px;font-family:'DejaVu Sans';-inkscape-font-specification:DejaVuSans;writing-mode:lr-tb;fill:#000000;fill-opacity:1;fill-rule:nonzero;stroke:none" transform="matrix(1,0,0,-1,524.979,316.222)"><tspan>✕</tspan></text><text style="font-variant:normal;font-weight:600;font-size:18.016px;font-family:'IBM Plex Sans SemiBold';-inkscape-font-specification:IBMPlexSans-SemiBold;writing-mode:lr-tb;fill:#ffffff;fill-opacity:1;fill-rule:nonzero;stroke:none" transform="matrix(1,0,0,-1,9.501,315.472)"><tspan x="0 9.765 20.268 27.024 42.788 53.31 58.553 68.317 73.578 80.334 90.081 94.585 101.359 105.845 117.862 129.879 142.634 147.138 158.398 165.911 176.414">Formulaire | BAD SITE</tspan></text><text style="font-variant:normal;font-weight:normal;font-size:22.52px;font-family:'IBM Plex Sans';-inkscape-font-specification:IBMPlexSans;writing-mode:lr-tb;fill:#000000;fill-opacity:1;fill-rule:nonzero;stroke:none" transform="matrix(1,0,0,-1,13.5,273.434)"><tspan>←</tspan></text><text style="font-variant:normal;font-weight:normal;font-size:22.52px;font-family:'IBM Plex Sans';-inkscape-font-specification:IBMPlexSans;writing-mode:lr-tb;fill:#000000;fill-opacity:1;fill-rule:nonzero;stroke:none" transform="matrix(1,0,0,-1,42.777,273.434)"><tspan>→</tspan></text><text style="font-variant:normal;font-weight:normal;font-size:22.52px;font-family:'DejaVu Sans';-inkscape-font-specification:DejaVuSans;writing-mode:lr-tb;fill:#000000;fill-opacity:1;fill-rule:nonzero;stroke:none" transform="matrix(1,0,0,-1,72.053,273.434)"><tspan>⟳</tspan></text><path style="fill:#ffffff;fill-opacity:1;fill-rule:nonzero;stroke:none" d="m 102.59,270.68 v 22.773 c 0,0.465 0.09,0.91 0.265,1.34 0.18,0.43 0.434,0.809 0.762,1.137 0.328,0.328 0.707,0.582 1.137,0.761 0.43,0.176 0.875,0.266 1.34,0.266 h 404.863 c 0.465,0 0.914,-0.09 1.344,-0.266 0.429,-0.179 0.808,-0.433 1.137,-0.761 0.328,-0.328 0.582,-0.707 0.757,-1.137 0.18,-0.43 0.27,-0.875 0.27,-1.34 V 270.68 c 0,-0.465 -0.09,-0.91 -0.27,-1.34 -0.175,-0.43 -0.429,-0.809 -0.757,-1.137 -0.329,-0.328 -0.708,-0.582 -1.137,-0.762 -0.43,-0.175 -0.879,-0.265 -1.344,-0.265 H 106.094 c -0.465,0 -0.91,0.09 -1.34,0.265 -0.43,0.18 -0.809,0.434 -1.137,0.762 -0.328,0.328 -0.582,0.707 -0.762,1.137 -0.175,0.43 -0.265,0.875 -0.265,1.34 z"/><g transform="matrix(1,0,0,-1,0,347)"><path style="fill:none;stroke:#808080;stroke-width:0.751;stroke-linecap:butt;stroke-linejoin:miter;stroke-miterlimit:10;stroke-dasharray:none;stroke-opacity:1" d="M 102.469,76.32 V 53.547 c 0,-0.481 0.09,-0.942 0.273,-1.387 0.184,-0.445 0.446,-0.836 0.789,-1.176 0.34,-0.343 0.731,-0.605 1.176,-0.789 0.445,-0.183 0.906,-0.277 1.387,-0.277 h 404.863 c 0.484,0 0.945,0.094 1.391,0.277 0.445,0.184 0.836,0.446 1.175,0.789 0.34,0.34 0.602,0.731 0.789,1.176 0.184,0.445 0.274,0.906 0.274,1.387 V 76.32 c 0,0.481 -0.09,0.942 -0.274,1.387 -0.187,0.445 -0.449,0.836 -0.789,1.176 -0.339,0.34 -0.73,0.605 -1.175,0.789 -0.446,0.183 -0.907,0.273 -1.391,0.273 H 106.094 c -0.481,0 -0.942,-0.09 -1.387,-0.273 -0.445,-0.184 -0.836,-0.449 -1.176,-0.789 -0.343,-0.34 -0.605,-0.731 -0.789,-1.176 -0.183,-0.445 -0.273,-0.906 -0.273,-1.387 z"/></g><text style="font-variant:normal;font-weight:normal;font-size:16.215px;font-family:'IBM Plex Sans';-inkscape-font-specification:IBMPlexSans;writing-mode:lr-tb;fill:#000000;fill-opacity:1;fill-rule:nonzero;stroke:none" transform="matrix(1,0,0,-1,111.076,275.686)"><tspan x="0 9.761 15.761 21.776 31.537 39.791 44.298 48.044 54.059 63.058 71.279 80.327 94.596 104.357 108.848 117.864 122.371 130.624 139.64 153.892 159.908 165.161 174.177 180.176">https://example.com/form</tspan></text><text style="font-variant:normal;font-weight:normal;font-size:22.52px;font-family:'DejaVu Sans';-inkscape-font-specification:DejaVuSans;writing-mode:lr-tb;fill:#000000;fill-opacity:1;fill-rule:nonzero;stroke:none" transform="matrix(1,0,0,-1,523.231,273.434)"><tspan>☰</tspan></text><text style="font-variant:normal;font-weight:normal;font-size:18.016px;font-family:'IBM Plex Sans';-inkscape-font-specification:IBMPlexSans;writing-mode:lr-tb;fill:#000000;fill-opacity:1;fill-rule:nonzero;stroke:none" transform="matrix(1,0,0,-1,36.021,211.128)"><tspan x="0 12.017 22.52 32.285 36.789 45.797 55.562 60.805 70.569 81.073 87.829 92.333 96.837 107.358 116.366 126.113 132.887 139.643 149.39 158.398 164.416 174.162 178.666 188.431 192.935 202.7 208.699 218.464 222.968 231.976 241.741 246.245 255.253 259.757 269.504 274.765 279.269 288.277 298.042 308.545 313.049 318.31 323.57 333.317 341.587 346.091 351.333 361.098 365.602 374.61 384.375 391.131 397.887 402.391 412.156 421.903 428.659 433.163 442.928">Une valeur incorrecte a été saisie, veuillez la corriger et</tspan><tspan y="24.022" x="0 6.756 16.521 27.024 36.032 45.797 54.787 64.57 71.326 75.83 81.073 90.838 95.342 101.341 111.106 117.862 133.59 144.147 149.39 159.155 163.659 170.415 180.18">renvoyer le formulaire.</tspan><tspan y="72.065" x="-4 5.026 14.773 21.529 31.276">Lorem</tspan></text></g></g></g></g></g><g><g clip-path="url(#clipPath112)"><g transform="translate(0,-0.939)"><g><g clip-path="url(#clipPath122)"><g><g transform="matrix(1,0,0,-1,0,347)"><path style="fill:#ffffff;fill-opacity:1;fill-rule:nonzero;stroke:#767676;stroke-width:0.751;stroke-linecap:butt;stroke-linejoin:miter;stroke-miterlimit:10;stroke-dasharray:none;stroke-opacity:1" d="m 88.203,213.566 v -24.773 c 0,-0.199 0.039,-0.391 0.117,-0.574 0.075,-0.184 0.184,-0.344 0.325,-0.485 0.14,-0.14 0.3,-0.25 0.488,-0.328 0.183,-0.074 0.375,-0.113 0.574,-0.113 H 318.66 c 0.199,0 0.391,0.039 0.574,0.113 0.184,0.078 0.348,0.188 0.489,0.328 0.14,0.141 0.25,0.301 0.324,0.485 0.078,0.183 0.117,0.375 0.117,0.574 v 24.773 c 0,0.2 -0.039,0.391 -0.117,0.575 -0.074,0.183 -0.184,0.347 -0.324,0.488 -0.141,0.141 -0.305,0.25 -0.489,0.324 -0.183,0.078 -0.375,0.113 -0.574,0.113 H 89.707 c -0.199,0 -0.391,-0.035 -0.574,-0.113 -0.188,-0.074 -0.348,-0.183 -0.488,-0.324 -0.141,-0.141 -0.25,-0.305 -0.325,-0.488 -0.078,-0.184 -0.117,-0.375 -0.117,-0.575 z"/></g></g></g></g></g></g></g><g><g clip-path="url(#clipPath136)"><g transform="translate(0,-0.939)"><g><g clip-path="url(#clipPath146)"><g><text style="font-variant:normal;font-weight:normal;font-size:18.016px;font-family:'IBM Plex Sans';-inkscape-font-specification:IBMPlexSans;writing-mode:lr-tb;fill:#000000;fill-opacity:1;fill-rule:nonzero;stroke:none" transform="matrix(1,0,0,-1,90.573,139.063)"><tspan x="0 7.513 18.016 27.024 37.528">Ipsum</tspan></text></g></g></g></g></g></g><g><g transform="translate(0,-0.939)"><g><g clip-path="url(#clipPath164)"><g><text style="font-variant:normal;font-weight:normal;font-size:18.016px;font-family:'IBM Plex Sans';-inkscape-font-specification:IBMPlexSans;writing-mode:lr-tb;fill:#000000;fill-opacity:1;fill-rule:nonzero;stroke:none" transform="matrix(1,0,0,-1,32.021,92.522)"><tspan x="0 12.017 21.764 27.024 36.789">Dolor</tspan></text></g></g></g></g></g><g><g clip-path="url(#clipPath178)"><g transform="translate(0,-0.939)"><g><g clip-path="url(#clipPath188)"><g><g transform="matrix(1,0,0,-1,0,347)"><path style="fill:#ffffff;fill-opacity:1;fill-rule:nonzero;stroke:#767676;stroke-width:0.751;stroke-linecap:butt;stroke-linejoin:miter;stroke-miterlimit:10;stroke-dasharray:none;stroke-opacity:1" d="m 80.699,260.109 v -24.773 c 0,-0.199 0.035,-0.391 0.113,-0.574 0.075,-0.184 0.184,-0.348 0.325,-0.489 0.14,-0.14 0.304,-0.25 0.488,-0.324 0.184,-0.078 0.375,-0.113 0.574,-0.113 h 228.953 c 0.2,0 0.391,0.035 0.578,0.113 0.184,0.074 0.344,0.184 0.485,0.324 0.14,0.141 0.25,0.305 0.328,0.489 0.074,0.183 0.113,0.375 0.113,0.574 v 24.773 c 0,0.2 -0.039,0.391 -0.113,0.575 -0.078,0.183 -0.188,0.343 -0.328,0.488 -0.141,0.14 -0.301,0.246 -0.485,0.324 -0.187,0.074 -0.378,0.113 -0.578,0.113 H 82.199 c -0.199,0 -0.39,-0.039 -0.574,-0.113 -0.184,-0.078 -0.348,-0.184 -0.488,-0.324 -0.141,-0.145 -0.25,-0.305 -0.325,-0.488 -0.078,-0.184 -0.113,-0.375 -0.113,-0.575 z"/></g></g></g></g></g></g></g><g><g clip-path="url(#clipPath202)"><g transform="translate(0,-0.939)"><g><g clip-path="url(#clipPath212)"><g><text style="font-variant:normal;font-weight:normal;font-size:18.016px;font-family:'IBM Plex Sans';-inkscape-font-specification:IBMPlexSans;writing-mode:lr-tb;fill:#000000;fill-opacity:1;fill-rule:nonzero;stroke:none" transform="matrix(1,0,0,-1,83.067,92.522)"><tspan x="0 10.467 14.971 21.025 25.529 35.276 51.058 60.805">Sit amet</tspan></text></g></g></g></g></g></g><g><g transform="translate(0,-0.939)"><g><g clip-path="url(#clipPath230)"><g><path style="fill:#d3d3d3;fill-opacity:1;fill-rule:nonzero;stroke:none" d="M 32.277,67 H 242.468 V 33.219 H 32.277 Z"/><path style="fill:#f0f0f0;fill-opacity:1;fill-rule:nonzero;stroke:none" d="M 32.277,67 H 242.468 V 63.246 H 32.277 Z"/><path style="fill:#9c9c9c;fill-opacity:1;fill-rule:nonzero;stroke:none" d="M 32.277,36.973 H 242.468 V 33.219 H 32.277 Z"/><path style="fill:#9c9c9c;fill-opacity:1;fill-rule:nonzero;stroke:none" d="M 238.715,63.246 V 33.219 h 3.754 V 67"/><path style="fill:#f0f0f0;fill-opacity:1;fill-rule:nonzero;stroke:none" d="M 32.277,67 V 33.219 l 3.754,3.754 V 67"/></g></g></g></g></g><g><g clip-path="url(#clipPath250)"><g transform="translate(0,-0.939)"><g><g clip-path="url(#clipPath260)"><g><text style="font-variant:normal;font-weight:normal;font-size:18.016px;font-family:'IBM Plex Sans';-inkscape-font-specification:IBMPlexSans;writing-mode:lr-tb;fill:#000000;fill-opacity:1;fill-rule:nonzero;stroke:none" transform="matrix(1,0,0,-1,40.525,42.977)"><tspan x="0 10.467 20.268 30.772 46.554 56.301 62.318 68.317 75.073 84.838 89.342 94.585 104.35 108.854 114.853 124.618 131.374 147.102 157.66 162.902 172.667 177.171 183.927">Soumettre le formulaire</tspan></text></g></g></g></g></g></g></g></svg>
