<?xml version="1.0" encoding="utf-8"?>
<svg xmlns:dc="http://purl.org/dc/elements/1.1/" xmlns:cc="http://creativecommons.org/ns#" xmlns:rdf="http://www.w3.org/1999/02/22-rdf-syntax-ns#" xmlns:svg="http://www.w3.org/2000/svg" xmlns="http://www.w3.org/2000/svg" viewBox="0 0 742.66656 587.52734" height="587.527" width="742.667" xml:space="preserve" version="1.1"><defs><clipPath id="clipPath22" clipPathUnits="userSpaceOnUse"><path d="M 0,0 H 557 V 441 H 0 Z"/></clipPath><clipPath id="clipPath142" clipPathUnits="userSpaceOnUse"><path d="M 36.031,61.556 H 216.945 V 36.033 H 36.031 Z"/></clipPath><clipPath id="clipPath152" clipPathUnits="userSpaceOnUse"><path d="M 40,42 H 212 V 56 H 40 Z"/></clipPath><clipPath id="clipPath166" clipPathUnits="userSpaceOnUse"><path d="M 30.402,268.364 H 49.918 V 248.848 H 30.402 Z"/></clipPath><clipPath id="clipPath176" clipPathUnits="userSpaceOnUse"><path d="m 30,249 h 20 v 20 H 30 Z"/></clipPath><clipPath id="clipPath194" clipPathUnits="userSpaceOnUse"><path d="m 30.402,164.774 h 19.516 v -19.52 H 30.402 Z"/></clipPath><clipPath id="clipPath204" clipPathUnits="userSpaceOnUse"><path d="m 30,145 h 20 v 21 H 30 Z"/></clipPath></defs><g transform="matrix(1.333,0,0,-1.333,0,587.527)"><g><g transform="translate(0,-0.354)"><g><g clip-path="url(#clipPath22)"><g><path style="fill:#d3d3d3;fill-opacity:1;fill-rule:nonzero;stroke:none" d="M 0,441 H 557 V 0.355 H 0 Z"/><path style="fill:#eeeeee;fill-opacity:1;fill-rule:nonzero;stroke:none" d="m 0,441 h 557 v -2.254 H 0 Z"/><path style="fill:#9a9a9a;fill-opacity:1;fill-rule:nonzero;stroke:none" d="M 0,2.605 H 557 V 0.355 H 0 Z"/><path style="fill:#9a9a9a;fill-opacity:1;fill-rule:nonzero;stroke:none" d="M 554.746,438.746 V 0.355 H 557 V 441"/><path style="fill:#eeeeee;fill-opacity:1;fill-rule:nonzero;stroke:none" d="M 0,441 V 0.355 l 2.254,2.25 V 441"/><path style="fill:#00008b;fill-opacity:1;fill-rule:nonzero;stroke:none" d="M 5.254,435.746 H 551.746 V 397.461 H 5.254 Z"/><path style="fill:#d3d3d3;fill-opacity:1;fill-rule:nonzero;stroke:none" d="M 5.254,397.461 H 551.746 V 354.672 H 5.254 Z"/><path style="fill:#ffffff;fill-opacity:1;fill-rule:nonzero;stroke:none" d="M 5.254,354.672 H 551.746 V 5.61 H 5.254 Z"/><path style="fill:#9a9a9a;fill-opacity:1;fill-rule:nonzero;stroke:none" d="m 5.254,354.672 h 546.492 v -2.25 H 5.254 Z"/><path style="fill:#eeeeee;fill-opacity:1;fill-rule:nonzero;stroke:none" d="M 5.254,7.859 H 551.746 V 5.609 H 5.254 Z"/><path style="fill:#eeeeee;fill-opacity:1;fill-rule:nonzero;stroke:none" d="M 549.492,352.422 V 5.609 h 2.254 v 349.063"/><path style="fill:#9a9a9a;fill-opacity:1;fill-rule:nonzero;stroke:none" d="M 5.254,354.672 V 5.609 l 2.254,2.25 v 346.813"/><path style="fill:#9a9a9a;fill-opacity:1;fill-rule:nonzero;stroke:none" d="m 32.277,188.773 h 492.445 v -0.75 H 32.277 Z"/><path style="fill:#eeeeee;fill-opacity:1;fill-rule:nonzero;stroke:none" d="m 32.277,188.023 h 492.445 v -0.75 H 32.277 Z"/><path style="fill:#eeeeee;fill-opacity:1;fill-rule:nonzero;stroke:none" d="m 523.969,188.023 v -0.75 h 0.754 v 1.5"/><path style="fill:#9a9a9a;fill-opacity:1;fill-rule:nonzero;stroke:none" d="m 32.277,188.773 v -1.5 l 0.754,0.75 v 0.75"/><path style="fill:#9a9a9a;fill-opacity:1;fill-rule:nonzero;stroke:none" d="M 32.277,85.18 H 524.722 V 84.43 H 32.277 Z"/><path style="fill:#eeeeee;fill-opacity:1;fill-rule:nonzero;stroke:none" d="M 32.277,84.43 H 524.722 V 83.68 H 32.277 Z"/><path style="fill:#eeeeee;fill-opacity:1;fill-rule:nonzero;stroke:none" d="m 523.969,84.43 v -0.75 h 0.754 v 1.5"/><path style="fill:#9a9a9a;fill-opacity:1;fill-rule:nonzero;stroke:none" d="m 32.277,85.18 v -1.5 l 0.754,0.75 v 0.75"/><path style="fill:#d3d3d3;fill-opacity:1;fill-rule:nonzero;stroke:none" d="m 517.215,431.242 h 30.027 v -30.027 h -30.027 z"/><path style="fill:#ffffff;fill-opacity:1;fill-rule:nonzero;stroke:none" d="m 517.215,431.242 h 30.027 v -3.754 h -30.027 z"/><path style="fill:#ababab;fill-opacity:1;fill-rule:nonzero;stroke:none" d="m 517.215,404.969 h 30.027 v -3.754 h -30.027 z"/><path style="fill:#ababab;fill-opacity:1;fill-rule:nonzero;stroke:none" d="m 543.488,427.488 v -26.273 h 3.754 v 30.027"/><path style="fill:#ffffff;fill-opacity:1;fill-rule:nonzero;stroke:none" d="m 517.215,431.242 v -30.027 l 3.754,3.754 v 26.273"/><text style="font-variant:normal;font-weight:normal;font-size:18.016px;font-family:'DejaVu Sans';-inkscape-font-specification:DejaVuSans;writing-mode:lr-tb;fill:#000000;fill-opacity:1;fill-rule:nonzero;stroke:none" transform="matrix(1,0,0,-1,524.979,410.222)"><tspan>✕</tspan></text><text style="font-variant:normal;font-weight:600;font-size:18.016px;font-family:'IBM Plex Sans SemiBold';-inkscape-font-specification:IBMPlexSans-SemiBold;writing-mode:lr-tb;fill:#ffffff;fill-opacity:1;fill-rule:nonzero;stroke:none" transform="matrix(1,0,0,-1,9.501,409.472)"><tspan x="0 15.007 25.529 36.032 40.536 51.058 60.805 71.326 76.569 86.333 93.09 97.594 104.368 108.854 121.627 134.383 147.138 159.912 164.416 175.676 183.17 193.692">Mon panier | GOOD SITE</tspan></text><text style="font-variant:normal;font-weight:normal;font-size:22.52px;font-family:'IBM Plex Sans';-inkscape-font-specification:IBMPlexSans;writing-mode:lr-tb;fill:#000000;fill-opacity:1;fill-rule:nonzero;stroke:none" transform="matrix(1,0,0,-1,13.5,367.434)"><tspan>←</tspan></text><text style="font-variant:normal;font-weight:normal;font-size:22.52px;font-family:'IBM Plex Sans';-inkscape-font-specification:IBMPlexSans;writing-mode:lr-tb;fill:#000000;fill-opacity:1;fill-rule:nonzero;stroke:none" transform="matrix(1,0,0,-1,42.777,367.434)"><tspan>→</tspan></text><text style="font-variant:normal;font-weight:normal;font-size:22.52px;font-family:'DejaVu Sans';-inkscape-font-specification:DejaVuSans;writing-mode:lr-tb;fill:#000000;fill-opacity:1;fill-rule:nonzero;stroke:none" transform="matrix(1,0,0,-1,72.053,367.434)"><tspan>⟳</tspan></text><path style="fill:#ffffff;fill-opacity:1;fill-rule:nonzero;stroke:none" d="m 102.59,364.68 v 22.773 c 0,0.465 0.09,0.91 0.265,1.34 0.18,0.43 0.434,0.809 0.762,1.137 0.328,0.328 0.707,0.582 1.137,0.761 0.43,0.176 0.875,0.266 1.34,0.266 h 404.863 c 0.465,0 0.914,-0.09 1.344,-0.266 0.429,-0.179 0.808,-0.433 1.137,-0.761 0.328,-0.328 0.582,-0.707 0.757,-1.137 0.18,-0.43 0.27,-0.875 0.27,-1.34 V 364.68 c 0,-0.465 -0.09,-0.91 -0.27,-1.34 -0.175,-0.43 -0.429,-0.809 -0.757,-1.137 -0.329,-0.328 -0.708,-0.582 -1.137,-0.762 -0.43,-0.175 -0.879,-0.265 -1.344,-0.265 H 106.094 c -0.465,0 -0.91,0.09 -1.34,0.265 -0.43,0.18 -0.809,0.434 -1.137,0.762 -0.328,0.328 -0.582,0.707 -0.762,1.137 -0.175,0.43 -0.265,0.875 -0.265,1.34 z"/><g transform="matrix(1,0,0,-1,0,441)"><path style="fill:none;stroke:#808080;stroke-width:0.751;stroke-linecap:butt;stroke-linejoin:miter;stroke-miterlimit:10;stroke-dasharray:none;stroke-opacity:1" d="M 102.469,76.32 V 53.547 c 0,-0.481 0.09,-0.942 0.273,-1.387 0.184,-0.445 0.446,-0.836 0.789,-1.176 0.34,-0.343 0.731,-0.605 1.176,-0.789 0.445,-0.183 0.906,-0.277 1.387,-0.277 h 404.863 c 0.484,0 0.945,0.094 1.391,0.277 0.445,0.184 0.836,0.446 1.175,0.789 0.34,0.34 0.602,0.731 0.789,1.176 0.184,0.445 0.274,0.906 0.274,1.387 V 76.32 c 0,0.481 -0.09,0.942 -0.274,1.387 -0.187,0.445 -0.449,0.836 -0.789,1.176 -0.339,0.34 -0.73,0.605 -1.175,0.789 -0.446,0.183 -0.907,0.273 -1.391,0.273 H 106.094 c -0.481,0 -0.942,-0.09 -1.387,-0.273 -0.445,-0.184 -0.836,-0.449 -1.176,-0.789 -0.343,-0.34 -0.605,-0.731 -0.789,-1.176 -0.183,-0.445 -0.273,-0.906 -0.273,-1.387 z"/></g><text style="font-variant:normal;font-weight:normal;font-size:16.215px;font-family:'IBM Plex Sans';-inkscape-font-specification:IBMPlexSans;writing-mode:lr-tb;fill:#000000;fill-opacity:1;fill-rule:nonzero;stroke:none" transform="matrix(1,0,0,-1,111.076,369.686)"><tspan x="0 9.761 15.761 21.776 31.537 39.791 44.298 48.044 54.059 63.058 71.279 80.327 94.596 104.357 108.848 117.864 122.371 130.624 139.64 153.892 159.908 168.161 177.922 186.938 195.191 204.19 213.205 222.966">https://example.com/checkout</tspan></text><text style="font-variant:normal;font-weight:normal;font-size:22.52px;font-family:'DejaVu Sans';-inkscape-font-specification:DejaVuSans;writing-mode:lr-tb;fill:#000000;fill-opacity:1;fill-rule:nonzero;stroke:none" transform="matrix(1,0,0,-1,523.231,367.434)"><tspan>☰</tspan></text><text style="font-variant:normal;font-weight:600;font-size:28.023px;font-family:'IBM Plex Sans SemiBold';-inkscape-font-specification:IBMPlexSans-SemiBold;writing-mode:lr-tb;fill:#000000;fill-opacity:1;fill-rule:nonzero;stroke:none" transform="matrix(1,0,0,-1,32.021,299.123)"><tspan x="0 22.53 38.307 54.784 61.566 78.071 93.848 110.325 117.863 133.64">Mon panier</tspan></text><text style="font-variant:normal;font-weight:normal;font-size:18.016px;font-family:'IBM Plex Sans';-inkscape-font-specification:IBMPlexSans;writing-mode:lr-tb;fill:#000000;fill-opacity:1;fill-rule:nonzero;stroke:none" transform="matrix(1,0,0,-1,58.295,254.082)"><tspan x="0 9.026 18.773 25.529 35.276 51.058 55.562 60.066 70.569 79.577 90.081">Lorem ipsum</tspan><tspan y="42.038" x="-26.274 -18.761 -13.518 -9.014 -2.258 7.507 16.515 22.532 32.279 36.783 47.304 51.809 62.312 69.068 78.833 89.336 99.84 104.344 110.361 119.369 123.873 133.638 144.141 148.645 157.654 163.653 173.418 182.426">Il reste 3 produits en stock</tspan><tspan y="103.593" x="0 12.017 21.764 27.024 36.789 43.545 48.049 57.057 61.561 67.561 72.065 81.829 97.558 107.358">Dolor sit amet</tspan></text><text style="font-variant:normal;font-weight:600;font-size:18.016px;font-family:'IBM Plex Sans SemiBold';-inkscape-font-specification:IBMPlexSans-SemiBold;writing-mode:lr-tb;fill:#8b0000;fill-opacity:1;fill-rule:nonzero;stroke:none" transform="matrix(1,0,0,-1,32.021,108.452)"><tspan x="0 7.513 12.755 17.259 24.016 33.78 42.77 49.508 59.309 63.813 74.317 78.821 89.342 96.098 106.602 117.105 127.627 132.887 139.625 144.147 153.894 164.416 168.92 177.91 184.648 195.187 204.195">Il reste 0 produit en stock</tspan></text><path style="fill:#d3d3d3;fill-opacity:1;fill-rule:nonzero;stroke:none" d="M 32.277,65.664 H 220.699 V 32.633 H 32.277 Z"/><path style="fill:#f0f0f0;fill-opacity:1;fill-rule:nonzero;stroke:none" d="M 32.277,65.664 H 220.699 V 61.91 H 32.277 Z"/><path style="fill:#9c9c9c;fill-opacity:1;fill-rule:nonzero;stroke:none" d="M 32.277,36.387 H 220.699 V 32.633 H 32.277 Z"/><path style="fill:#9c9c9c;fill-opacity:1;fill-rule:nonzero;stroke:none" d="M 216.945,61.91 V 32.633 h 3.754 v 33.031"/><path style="fill:#f0f0f0;fill-opacity:1;fill-rule:nonzero;stroke:none" d="M 32.277,65.664 V 32.633 l 3.754,3.754 v 29.277"/></g></g></g></g></g><g><g clip-path="url(#clipPath142)"><g transform="translate(0,-0.354)"><g><g clip-path="url(#clipPath152)"><g><text style="font-variant:normal;font-weight:normal;font-size:18.016px;font-family:'IBM Plex Sans';-inkscape-font-specification:IBMPlexSans;writing-mode:lr-tb;fill:#000000;fill-opacity:1;fill-rule:nonzero;stroke:none" transform="matrix(1,0,0,-1,40.525,42.392)"><tspan x="0 10.503 20.268 25.529 30.033 40.536 50.301 57.057 61.561 66.822 76.569 81.073 90.081 99.846 115.574 131.374 141.139 151.642 162.164">Valider la commande</tspan></text></g></g></g></g></g></g><g><g clip-path="url(#clipPath166)"><g transform="translate(0,-0.354)"><g><g clip-path="url(#clipPath176)"><g><path style="fill:#ffffff;fill-opacity:1;fill-rule:nonzero;stroke:none" d="m 30.703,252.504 v 12.914 c 0,0.398 0.074,0.781 0.227,1.148 0.152,0.368 0.371,0.692 0.652,0.973 0.281,0.281 0.606,0.5 0.973,0.652 0.371,0.153 0.754,0.231 1.152,0.231 h 12.91 c 0.399,0 0.781,-0.078 1.149,-0.231 0.367,-0.152 0.691,-0.371 0.972,-0.652 0.285,-0.281 0.5,-0.605 0.653,-0.973 0.152,-0.367 0.23,-0.75 0.23,-1.148 v -12.914 c 0,-0.395 -0.078,-0.781 -0.23,-1.149 -0.153,-0.367 -0.368,-0.691 -0.653,-0.972 -0.281,-0.281 -0.605,-0.5 -0.972,-0.653 -0.368,-0.152 -0.75,-0.226 -1.149,-0.226 h -12.91 c -0.398,0 -0.781,0.074 -1.152,0.226 -0.367,0.153 -0.692,0.372 -0.973,0.653 -0.281,0.281 -0.5,0.605 -0.652,0.972 -0.153,0.368 -0.227,0.754 -0.227,1.149 z"/><path style="fill:#0075ff;fill-opacity:1;fill-rule:nonzero;stroke:none" d="m 30.402,252.207 v 13.512 c 0,0.398 0.075,0.781 0.227,1.148 0.156,0.367 0.371,0.692 0.652,0.973 0.281,0.281 0.606,0.5 0.977,0.652 0.367,0.153 0.75,0.227 1.148,0.227 h 13.512 c 0.398,0 0.781,-0.074 1.148,-0.227 0.368,-0.152 0.692,-0.371 0.973,-0.652 0.281,-0.281 0.5,-0.606 0.652,-0.973 0.153,-0.367 0.227,-0.75 0.227,-1.148 v -13.512 c 0,-0.398 -0.074,-0.781 -0.227,-1.152 -0.152,-0.367 -0.371,-0.692 -0.652,-0.973 -0.281,-0.281 -0.605,-0.5 -0.973,-0.652 -0.367,-0.153 -0.75,-0.227 -1.148,-0.227 H 33.406 c -0.398,0 -0.781,0.074 -1.148,0.227 -0.371,0.152 -0.696,0.371 -0.977,0.652 -0.281,0.281 -0.496,0.606 -0.652,0.973 -0.152,0.371 -0.227,0.754 -0.227,1.152 z"/><g transform="matrix(1,0,0,-1,0,441)"><path style="fill:none;stroke:#ffffff;stroke-width:1.501;stroke-linecap:butt;stroke-linejoin:miter;stroke-miterlimit:10;stroke-dasharray:none;stroke-opacity:1" d="m 34.305,182.039 3.906,3.902 7.805,-9.757"/></g></g></g></g></g></g></g><g><g clip-path="url(#clipPath194)"><g transform="translate(0,-0.354)"><g><g clip-path="url(#clipPath204)"><g><path style="fill:#ffffff;fill-opacity:1;fill-rule:nonzero;stroke:none" d="m 30.703,148.914 v 12.91 c 0,0.399 0.074,0.781 0.227,1.149 0.152,0.367 0.371,0.695 0.652,0.976 0.281,0.281 0.606,0.496 0.973,0.649 0.371,0.152 0.754,0.23 1.152,0.23 h 12.91 c 0.399,0 0.781,-0.078 1.149,-0.23 0.367,-0.153 0.691,-0.368 0.972,-0.649 0.285,-0.281 0.5,-0.609 0.653,-0.976 0.152,-0.368 0.23,-0.75 0.23,-1.149 v -12.91 c 0,-0.398 -0.078,-0.781 -0.23,-1.148 -0.153,-0.371 -0.368,-0.696 -0.653,-0.977 -0.281,-0.281 -0.605,-0.496 -0.972,-0.648 -0.368,-0.153 -0.75,-0.231 -1.149,-0.231 h -12.91 c -0.398,0 -0.781,0.078 -1.152,0.231 -0.367,0.152 -0.692,0.367 -0.973,0.648 -0.281,0.281 -0.5,0.606 -0.652,0.977 -0.153,0.367 -0.227,0.75 -0.227,1.148 z"/><path style="fill:#0075ff;fill-opacity:1;fill-rule:nonzero;stroke:none" d="m 30.402,148.613 v 13.512 c 0,0.398 0.075,0.781 0.227,1.148 0.156,0.368 0.371,0.692 0.652,0.973 0.281,0.285 0.606,0.5 0.977,0.652 0.367,0.153 0.75,0.231 1.148,0.231 h 13.512 c 0.398,0 0.781,-0.078 1.148,-0.231 0.368,-0.152 0.692,-0.367 0.973,-0.652 0.281,-0.281 0.5,-0.605 0.652,-0.973 0.153,-0.367 0.227,-0.75 0.227,-1.148 v -13.512 c 0,-0.398 -0.074,-0.781 -0.227,-1.148 -0.152,-0.371 -0.371,-0.695 -0.652,-0.977 -0.281,-0.281 -0.605,-0.496 -0.973,-0.648 -0.367,-0.152 -0.75,-0.231 -1.148,-0.231 H 33.406 c -0.398,0 -0.781,0.079 -1.148,0.231 -0.371,0.152 -0.696,0.367 -0.977,0.648 -0.281,0.282 -0.496,0.606 -0.652,0.977 -0.152,0.367 -0.227,0.75 -0.227,1.148 z"/><g transform="matrix(1,0,0,-1,0,441)"><path style="fill:none;stroke:#ffffff;stroke-width:1.501;stroke-linecap:butt;stroke-linejoin:miter;stroke-miterlimit:10;stroke-dasharray:none;stroke-opacity:1" d="m 34.305,285.633 3.906,3.902 7.805,-9.758"/></g></g></g></g></g></g></g></g></svg>
