<?xml version="1.0" encoding="utf-8"?>
<svg xmlns:dc="http://purl.org/dc/elements/1.1/" xmlns:cc="http://creativecommons.org/ns#" xmlns:rdf="http://www.w3.org/1999/02/22-rdf-syntax-ns#" xmlns:svg="http://www.w3.org/2000/svg" xmlns="http://www.w3.org/2000/svg" viewBox="0 0 742.66656 303.27219" height="303.272" width="742.667" xml:space="preserve" version="1.1"><defs><clipPath id="clipPath22" clipPathUnits="userSpaceOnUse"><path d="M 0,0 H 557 V 228 H 0 Z"/></clipPath><clipPath id="clipPath114" clipPathUnits="userSpaceOnUse"><path d="m 36.781,111.849 h 78.07 v -78.07 h -78.07 z"/></clipPath><clipPath id="clipPath124" clipPathUnits="userSpaceOnUse"><path d="m 36,34 h 79 v 79 H 36 Z"/></clipPath><clipPath id="clipPath150" clipPathUnits="userSpaceOnUse"><path d="M 125,51 H 255 V 92 H 125 Z"/></clipPath></defs><g transform="matrix(1.333,0,0,-1.333,0,303.272)"><g><g transform="translate(0,-0.546)"><g><g clip-path="url(#clipPath22)"><g><path style="fill:#d3d3d3;fill-opacity:1;fill-rule:nonzero;stroke:none" d="M 0,228 H 557 V 0.547 H 0 Z"/><path style="fill:#eeeeee;fill-opacity:1;fill-rule:nonzero;stroke:none" d="m 0,228 h 557 v -2.254 H 0 Z"/><path style="fill:#9a9a9a;fill-opacity:1;fill-rule:nonzero;stroke:none" d="M 0,2.797 H 557 V 0.547 H 0 Z"/><path style="fill:#9a9a9a;fill-opacity:1;fill-rule:nonzero;stroke:none" d="M 554.746,225.746 V 0.547 H 557 V 228"/><path style="fill:#eeeeee;fill-opacity:1;fill-rule:nonzero;stroke:none" d="M 0,228 V 0.547 l 2.254,2.25 V 228"/><path style="fill:#00008b;fill-opacity:1;fill-rule:nonzero;stroke:none" d="M 5.254,222.746 H 551.746 V 184.461 H 5.254 Z"/><path style="fill:#d3d3d3;fill-opacity:1;fill-rule:nonzero;stroke:none" d="M 5.254,184.461 H 551.746 V 141.672 H 5.254 Z"/><path style="fill:#ffffff;fill-opacity:1;fill-rule:nonzero;stroke:none" d="M 5.254,141.672 H 551.746 V 5.801 H 5.254 Z"/><path style="fill:#9a9a9a;fill-opacity:1;fill-rule:nonzero;stroke:none" d="m 5.254,141.672 h 546.492 v -2.25 H 5.254 Z"/><path style="fill:#eeeeee;fill-opacity:1;fill-rule:nonzero;stroke:none" d="M 5.254,8.051 H 551.746 V 5.801 H 5.254 Z"/><path style="fill:#eeeeee;fill-opacity:1;fill-rule:nonzero;stroke:none" d="M 549.492,139.422 V 5.801 h 2.254 v 135.871"/><path style="fill:#9a9a9a;fill-opacity:1;fill-rule:nonzero;stroke:none" d="M 5.254,141.672 V 5.801 l 2.254,2.25 v 133.621"/><path style="fill:#000000;fill-opacity:1;fill-rule:nonzero;stroke:none" d="m 119.355,114.648 h 141.879 v -0.75 H 119.355 Z"/><path style="fill:#000000;fill-opacity:1;fill-rule:nonzero;stroke:none" d="m 119.355,32.824 h 141.879 v -0.75 H 119.355 Z"/><path style="fill:#000000;fill-opacity:1;fill-rule:nonzero;stroke:none" d="m 260.484,114.648 h 0.75 V 32.074 h -0.75 z"/><path style="fill:#000000;fill-opacity:1;fill-rule:nonzero;stroke:none" d="m 32.277,114.648 h 87.832 v -0.75 H 32.277 Z"/><path style="fill:#000000;fill-opacity:1;fill-rule:nonzero;stroke:none" d="m 32.277,32.824 h 87.832 v -0.75 H 32.277 Z"/><path style="fill:#000000;fill-opacity:1;fill-rule:nonzero;stroke:none" d="m 32.277,114.648 h 0.754 V 32.074 h -0.754 z"/><path style="fill:#000000;fill-opacity:1;fill-rule:nonzero;stroke:none" d="m 119.355,114.648 h 0.754 V 32.074 h -0.754 z"/><path style="fill:#d3d3d3;fill-opacity:1;fill-rule:nonzero;stroke:none" d="m 517.215,218.242 h 30.027 v -30.027 h -30.027 z"/><path style="fill:#ffffff;fill-opacity:1;fill-rule:nonzero;stroke:none" d="m 517.215,218.242 h 30.027 v -3.754 h -30.027 z"/><path style="fill:#ababab;fill-opacity:1;fill-rule:nonzero;stroke:none" d="m 517.215,191.969 h 30.027 v -3.754 h -30.027 z"/><path style="fill:#ababab;fill-opacity:1;fill-rule:nonzero;stroke:none" d="m 543.488,214.488 v -26.273 h 3.754 v 30.027"/><path style="fill:#ffffff;fill-opacity:1;fill-rule:nonzero;stroke:none" d="m 517.215,218.242 v -30.027 l 3.754,3.754 v 26.273"/><text style="font-variant:normal;font-weight:normal;font-size:18.016px;font-family:'DejaVu Sans';-inkscape-font-specification:DejaVuSans;writing-mode:lr-tb;fill:#000000;fill-opacity:1;fill-rule:nonzero;stroke:none" transform="matrix(1,0,0,-1,524.979,197.222)"><tspan>✕</tspan></text><text style="font-variant:normal;font-weight:600;font-size:18.016px;font-family:'IBM Plex Sans SemiBold';-inkscape-font-specification:IBMPlexSans-SemiBold;writing-mode:lr-tb;fill:#ffffff;fill-opacity:1;fill-rule:nonzero;stroke:none" transform="matrix(1,0,0,-1,9.501,196.472)"><tspan x="0 7.513 23.277 33.024 42.788 52.553 57.057 63.831 68.317 80.334 92.333 105.106 109.61 120.87 128.383 138.887">Image | BAD SITE</tspan></text><text style="font-variant:normal;font-weight:normal;font-size:22.52px;font-family:'IBM Plex Sans';-inkscape-font-specification:IBMPlexSans;writing-mode:lr-tb;fill:#000000;fill-opacity:1;fill-rule:nonzero;stroke:none" transform="matrix(1,0,0,-1,13.5,154.434)"><tspan>←</tspan></text><text style="font-variant:normal;font-weight:normal;font-size:22.52px;font-family:'IBM Plex Sans';-inkscape-font-specification:IBMPlexSans;writing-mode:lr-tb;fill:#000000;fill-opacity:1;fill-rule:nonzero;stroke:none" transform="matrix(1,0,0,-1,42.777,154.434)"><tspan>→</tspan></text><text style="font-variant:normal;font-weight:normal;font-size:22.52px;font-family:'DejaVu Sans';-inkscape-font-specification:DejaVuSans;writing-mode:lr-tb;fill:#000000;fill-opacity:1;fill-rule:nonzero;stroke:none" transform="matrix(1,0,0,-1,72.053,154.434)"><tspan>⟳</tspan></text><path style="fill:#ffffff;fill-opacity:1;fill-rule:nonzero;stroke:none" d="m 102.59,151.68 v 22.773 c 0,0.465 0.09,0.91 0.265,1.34 0.18,0.43 0.434,0.809 0.762,1.137 0.328,0.328 0.707,0.582 1.137,0.761 0.43,0.176 0.875,0.266 1.34,0.266 h 404.863 c 0.465,0 0.914,-0.09 1.344,-0.266 0.429,-0.179 0.808,-0.433 1.137,-0.761 0.328,-0.328 0.582,-0.707 0.757,-1.137 0.18,-0.43 0.27,-0.875 0.27,-1.34 V 151.68 c 0,-0.465 -0.09,-0.91 -0.27,-1.34 -0.175,-0.43 -0.429,-0.809 -0.757,-1.137 -0.329,-0.328 -0.708,-0.582 -1.137,-0.762 -0.43,-0.175 -0.879,-0.265 -1.344,-0.265 H 106.094 c -0.465,0 -0.91,0.09 -1.34,0.265 -0.43,0.18 -0.809,0.434 -1.137,0.762 -0.328,0.328 -0.582,0.707 -0.762,1.137 -0.175,0.43 -0.265,0.875 -0.265,1.34 z"/><g transform="matrix(1,0,0,-1,0,228)"><path style="fill:none;stroke:#808080;stroke-width:0.751;stroke-linecap:butt;stroke-linejoin:miter;stroke-miterlimit:10;stroke-dasharray:none;stroke-opacity:1" d="M 102.469,76.32 V 53.547 c 0,-0.481 0.09,-0.942 0.273,-1.387 0.184,-0.445 0.446,-0.836 0.789,-1.176 0.34,-0.343 0.731,-0.605 1.176,-0.789 0.445,-0.183 0.906,-0.277 1.387,-0.277 h 404.863 c 0.484,0 0.945,0.094 1.391,0.277 0.445,0.184 0.836,0.446 1.175,0.789 0.34,0.34 0.602,0.731 0.789,1.176 0.184,0.445 0.274,0.906 0.274,1.387 V 76.32 c 0,0.481 -0.09,0.942 -0.274,1.387 -0.187,0.445 -0.449,0.836 -0.789,1.176 -0.339,0.34 -0.73,0.605 -1.175,0.789 -0.446,0.183 -0.907,0.273 -1.391,0.273 H 106.094 c -0.481,0 -0.942,-0.09 -1.387,-0.273 -0.445,-0.184 -0.836,-0.449 -1.176,-0.789 -0.343,-0.34 -0.605,-0.731 -0.789,-1.176 -0.183,-0.445 -0.273,-0.906 -0.273,-1.387 z"/></g><text style="font-variant:normal;font-weight:normal;font-size:16.215px;font-family:'IBM Plex Sans';-inkscape-font-specification:IBMPlexSans;writing-mode:lr-tb;fill:#000000;fill-opacity:1;fill-rule:nonzero;stroke:none" transform="matrix(1,0,0,-1,111.076,156.686)"><tspan x="0 9.761 15.761 21.776 31.537 39.791 44.298 48.044 54.059 63.058 71.279 80.327 94.596 104.357 108.848 117.864 122.371 130.624 139.64 153.892 159.908 169.669 177.922 186.938">https://example.com/user</tspan></text><text style="font-variant:normal;font-weight:normal;font-size:22.52px;font-family:'DejaVu Sans';-inkscape-font-specification:DejaVuSans;writing-mode:lr-tb;fill:#000000;fill-opacity:1;fill-rule:nonzero;stroke:none" transform="matrix(1,0,0,-1,523.231,154.434)"><tspan>☰</tspan></text></g></g></g></g></g><g><g clip-path="url(#clipPath114)"><g transform="translate(0,-0.546)"><g><g clip-path="url(#clipPath124)"><g><path style="fill:#e7ded6;fill-opacity:1;fill-rule:nonzero;stroke:none" d="m 36.781,112.395 h 78.07 v -78.07 h -78.07 z"/><path style="fill:#d6d8e7;fill-opacity:1;fill-rule:nonzero;stroke:none" d="M 47.25,112.395 36.781,94.27 V 51.879 l 34.942,60.516 z"/><path style="fill:#d6d8e7;fill-opacity:1;fill-rule:nonzero;stroke:none" d="M 82.688,112.395 37.613,34.324 h 24.473 l 45.074,78.071 z"/><path style="fill:#d6d8e7;fill-opacity:1;fill-rule:nonzero;stroke:none" d="M 114.852,106.73 73.051,34.324 h 24.476 l 17.325,30.012 z"/><path style="fill:#b28b67;fill-opacity:1;fill-rule:evenodd;stroke:none" d="M 70.008,63.234 C 66.551,67.293 64.211,72.27 64.602,77.848 65.727,93.91 88.09,90.375 92.441,82.27 96.789,74.16 96.273,53.594 90.652,52.145 88.41,51.566 83.633,52.98 78.773,55.914 l 3.051,-21.59 H 63.809 Z"/><path style="fill:#191847;fill-opacity:1;fill-rule:evenodd;stroke:none" d="m 56.746,83.195 c -0.582,0.575 -0.898,1.399 -1.176,2.18 -0.285,0.813 -0.558,1.633 -0.75,2.477 -0.379,1.687 -0.382,3.628 0.825,4.941 0.964,1.051 2.414,1.523 3.75,1.625 0.894,0.07 1.808,-0.055 2.664,-0.336 0.847,-0.277 1.578,-0.836 2.398,-1.18 0.031,1.821 0.344,3.723 1.266,5.278 0.89,1.496 2.304,2.332 3.918,2.554 1.656,0.231 3.289,-0.16 4.773,-0.961 0.371,-0.199 0.738,-0.41 1.09,-0.648 0.293,-0.199 0.601,-0.437 0.945,-0.52 0.387,-0.089 0.578,0.133 0.828,0.415 0.293,0.328 0.625,0.617 0.973,0.875 1.547,1.136 3.578,1.605 5.371,0.925 0.828,-0.316 1.629,-0.847 2.191,-1.586 0.5,-0.652 0.856,-1.695 1.547,-2.148 0.289,-0.195 0.496,0.062 0.766,0.25 0.398,0.285 0.781,0.602 1.184,0.879 0.57,0.39 1.187,0.68 1.847,0.832 0.965,0.226 2.297,0.172 2.574,-1.094 0.106,-0.473 0.024,-0.98 -0.007,-1.461 -0.047,-0.656 -0.094,-1.312 -0.153,-1.969 -0.043,-0.5 -0.097,-0.98 -0.191,-1.468 -0.051,-0.262 -0.207,-0.75 -0.098,-1.008 0.141,-0.328 0.785,-0.145 1.063,-0.152 0.543,-0.024 1.09,-0.122 1.594,-0.352 0.39,-0.18 0.8,-0.445 0.964,-0.895 0.102,-0.273 0.075,-0.554 0.028,-0.839 -0.059,-0.336 0.008,-0.516 0.05,-0.86 0.731,0.36 3.266,1.16 3.582,-0.152 0.11,-0.434 -0.132,-0.926 -0.316,-1.297 -0.324,-0.645 -0.75,-1.234 -1.184,-1.797 -0.902,-1.172 -1.984,-2.183 -3.144,-3.051 1.359,-0.605 1.715,-2.39 0.539,-3.453 -0.519,-0.469 -1.219,-0.574 -1.875,-0.543 -0.242,0.012 -0.59,0.102 -0.777,0.063 -0.102,-0.024 -0.211,-0.11 -0.352,-0.121 -0.926,-0.063 -1.973,0.16 -2.875,0.367 -1.613,0.367 -3.14,1.129 -4.39,2.293 -0.317,0.301 -0.583,0.472 -1.012,0.465 -0.379,0 -0.75,-0.106 -1.125,-0.114 -1,-0.027 -1.899,0.461 -2.824,0.786 -0.055,-1.25 -0.415,-2.629 -0.926,-3.754 -0.414,-0.918 -1.289,-1.051 -2.145,-1.133 -2.738,-0.258 -5.488,0.031 -8.23,0.027 2.656,-0.601 5.398,-0.847 8.031,-1.555 1.188,-0.32 0.281,-1.121 -0.227,-1.675 -0.839,-0.914 -1.46,-2.051 -1.894,-3.243 -1.297,1.692 -3.594,2.805 -5.625,2.286 -2.25,-0.575 -3.832,-3.614 -2.395,-5.797 0.836,-1.27 2.34,-1.758 3.594,-2.301 -0.976,-1.02 -1.215,-2.52 -1.801,-3.785 -0.293,-0.621 -0.699,-1.328 -1.347,-1.547 -0.242,-0.078 -0.524,-0.086 -0.711,-0.281 -0.235,-0.242 -0.293,-0.512 -0.59,-0.723 -1.199,-0.832 -3.066,-0.766 -4.125,0.32 -0.961,0.981 -0.711,2.532 0.09,3.528 -1.274,0.531 -3.594,1.215 -3.09,3.199 -2.762,0.184 -9.465,4.664 -5.758,7.937 -2.035,1.149 -3.906,3.957 -2.598,6.434 1.004,1.906 3.344,2.762 5.266,2.863"/></g></g></g></g></g></g><g><g transform="translate(0,-0.546)"><g><g clip-path="url(#clipPath150)"><g><text style="font-variant:normal;font-weight:600;font-size:18.016px;font-family:'IBM Plex Sans SemiBold';-inkscape-font-specification:IBMPlexSans-SemiBold;writing-mode:lr-tb;fill:#000000;fill-opacity:1;fill-rule:nonzero;stroke:none" transform="matrix(1,0,0,-1,123.849,78.616)"><tspan x="0 12.755 23.277">Nom</tspan></text><text style="font-variant:normal;font-weight:normal;font-size:18.016px;font-family:'IBM Plex Sans';-inkscape-font-specification:IBMPlexSans;writing-mode:lr-tb;fill:#000000;fill-opacity:1;fill-rule:nonzero;stroke:none" transform="matrix(1,0,0,-1,167.395,78.616)"><tspan x="0 5.261 9.765 18.791 28.52 35.276 45.04">: Lorem</tspan></text><text style="font-variant:normal;font-weight:600;font-size:18.016px;font-family:'IBM Plex Sans SemiBold';-inkscape-font-specification:IBMPlexSans-SemiBold;writing-mode:lr-tb;fill:#000000;fill-opacity:1;fill-rule:nonzero;stroke:none" transform="matrix(1,0,0,-1,123.849,54.594)"><tspan x="0 11.26 18.016 27.781 38.284 48.806">Prénom</tspan></text><text style="font-variant:normal;font-weight:normal;font-size:18.016px;font-family:'IBM Plex Sans';-inkscape-font-specification:IBMPlexSans;writing-mode:lr-tb;fill:#000000;fill-opacity:1;fill-rule:nonzero;stroke:none" transform="matrix(1,0,0,-1,192.923,54.594)"><tspan x="0 5.261 9.747 17.259 27.763 36.771 47.292">: Ipsum</tspan></text></g></g></g></g></g></g></svg>
