<?xml version="1.0" encoding="UTF-8" standalone="no"?>
<svg
   xmlns:dc="http://purl.org/dc/elements/1.1/"
   xmlns:cc="http://creativecommons.org/ns#"
   xmlns:rdf="http://www.w3.org/1999/02/22-rdf-syntax-ns#"
   xmlns:svg="http://www.w3.org/2000/svg"
   xmlns="http://www.w3.org/2000/svg"
   id="svg11"
   version="1.1"
   viewBox="0 0 104 104"
   height="104"
   width="104">
  <metadata
     id="metadata17">
    <rdf:RDF>
      <cc:Work
         rdf:about="">
        <dc:format>image/svg+xml</dc:format>
        <dc:type
           rdf:resource="http://purl.org/dc/dcmitype/StillImage" />
        <dc:title>Head/Front/Rad</dc:title>
      </cc:Work>
    </rdf:RDF>
  </metadata>
  <defs
     id="defs15" />
  <!-- Generator: Sketch 52.4 (67378) - http://www.bohemiancoding.com/sketch -->
  <title
     id="title2">Head/Front/Rad</title>
  <rect
     y="0"
     x="0"
     height="104"
     width="104"
     id="rect842"
     style="fill:#e7ded6;fill-opacity:1;stroke:none;stroke-width:1.89;stroke-miterlimit:4;stroke-dasharray:none;stop-color:#000000" />
  <path
     d="M 13.941406 0 L 0 24.148438 L 0 80.619141 L 46.546875 0 L 13.941406 0 z "
     style="fill:#d6d8e7;fill-opacity:1;stroke:none;stroke-width:1.89;stroke-miterlimit:4;stroke-dasharray:none;stop-color:#000000"
     id="rect844" />
  <desc
     id="desc4">Created with Sketch.</desc>
  <path
     d="M 61.150391 0 L 1.1054688 104 L 33.708984 104 L 93.753906 0 L 61.150391 0 z "
     style="fill:#d6d8e7;fill-opacity:1;stroke:none;stroke-width:1.89;stroke-miterlimit:4;stroke-dasharray:none;stop-color:#000000"
     id="rect846" />
  <path
     d="M 104 7.5488281 L 48.314453 104 L 80.917969 104 L 104 64.021484 L 104 7.5488281 z "
     style="fill:#d6d8e7;fill-opacity:1;stroke:none;stroke-width:1.89;stroke-miterlimit:4;stroke-dasharray:none;stop-color:#000000"
     id="rect848" />
  <g
     transform="translate(-17.999996)"
     fill-rule="evenodd"
     fill="none"
     stroke-width="1"
     stroke="none"
     id="Head/Front/Rad">
    <g
       fill="#b28b67"
       transform="translate(54,31)"
       id="Head">
      <path
         id="path6"
         d="M 8.2622739,34.490127 C 3.6543643,29.081376 0.53563479,22.452877 1.0567763,15.025454 2.5583302,-6.3750206 32.348531,-1.6671889 38.143341,9.1339329 43.938152,19.935055 43.249578,47.332996 35.760301,49.263458 32.773588,50.033323 26.411001,48.147461 19.935372,44.244306 L 24,73 H 0 Z" />
    </g>
    <path
       transform="matrix(-1,0,0,1,140,0)"
       fill="#191847"
       id="hair"
       d="m 95.406618,38.901701 c 0.775178,-0.768184 1.198019,-1.864637 1.563794,-2.905764 0.379857,-1.081528 0.748946,-2.174199 1.001141,-3.299907 0.50393,-2.249226 0.508716,-4.835876 -1.095852,-6.582399 -1.28684,-1.400542 -3.217697,-2.028722 -4.999723,-2.165244 -1.18725,-0.09105 -2.406622,0.07523 -3.544722,0.449368 -1.129171,0.371156 -2.102516,1.110881 -3.197171,1.57 -0.04179,-2.423858 -0.456989,-4.960058 -1.68667,-7.029677 -1.183293,-1.991307 -3.069878,-3.108756 -5.218415,-3.404387 -2.205234,-0.303393 -4.382857,0.212643 -6.357066,1.28024 -0.494266,0.267371 -0.983929,0.54748 -1.452515,0.864505 -0.392375,0.265481 -0.800305,0.585193 -1.260699,0.693156 -0.513227,0.120502 -0.767631,-0.175926 -1.101191,-0.550365 -0.391087,-0.43902 -0.831692,-0.825699 -1.297977,-1.168495 -2.061741,-1.515472 -4.766856,-2.138576 -7.155438,-1.230189 -1.100547,0.418521 -2.170719,1.12929 -2.917364,2.108724 -0.665556,0.873063 -1.140309,2.257983 -2.058888,2.866261 -0.389798,0.258217 -0.665096,-0.08388 -1.02001,-0.336727 -0.533107,-0.379913 -1.041547,-0.799131 -1.581097,-1.168695 -0.757874,-0.51922 -1.578429,-0.907591 -2.457154,-1.110881 -1.286379,-0.297621 -3.064079,-0.227868 -3.431879,1.456962 -0.138063,0.632856 -0.03221,1.309694 0.01243,1.947326 0.06121,0.87555 0.125085,1.750802 0.201112,2.625059 0.05771,0.663802 0.130699,1.304917 0.255968,1.956779 0.06682,0.347474 0.275942,0.995256 0.126926,1.343227 -0.186201,0.434939 -1.045597,0.187668 -1.412753,0.202793 -0.725199,0.02995 -1.453435,0.157119 -2.123961,0.46698 -0.519669,0.240206 -1.066031,0.593451 -1.285367,1.189092 -0.134842,0.365883 -0.09931,0.741716 -0.03562,1.118146 0.0764,0.451755 -0.01095,0.691365 -0.06802,1.1472 -0.973989,-0.479617 -4.34917,-1.545223 -4.773852,0.200305 -0.141376,0.581213 0.180587,1.23795 0.426247,1.728115 0.430849,0.859729 0.99571,1.645525 1.573182,2.394903 1.204554,1.563333 2.642619,2.911735 4.189845,4.064906 -1.812768,0.805896 -2.285956,3.182987 -0.716455,4.599251 0.692984,0.625294 1.624725,0.764502 2.498849,0.724501 0.319938,-0.01463 0.78116,-0.137617 1.032895,-0.08189 0.135486,0.02995 0.280544,0.14478 0.468218,0.157617 1.233639,0.08448 2.626235,-0.212744 3.832169,-0.486484 2.148813,-0.487776 4.183126,-1.505819 5.844392,-3.056316 0.426155,-0.397724 0.778216,-0.626687 1.351821,-0.620816 0.502642,0.0051 0.995803,0.14289 1.497984,0.155627 1.328719,0.03393 2.526738,-0.615642 3.760561,-1.047994 0.07557,1.66682 0.550227,3.5026 1.232075,5.00215 0.556025,1.222825 1.717135,1.400542 2.858088,1.507809 3.648546,0.343295 7.309977,-0.0398 10.963125,-0.03473 -3.536346,0.799329 -7.190598,1.128792 -10.695559,2.069419 -1.584319,0.425088 -0.374518,1.492884 0.302911,2.233106 1.115457,1.218945 1.944848,2.729242 2.52011,4.320337 1.72993,-2.254997 4.787658,-3.740816 7.496639,-3.048057 2.993206,0.765298 5.100876,4.813089 3.186862,7.723132 -1.111223,1.689308 -3.117923,2.341468 -4.787657,3.067262 1.302578,1.354273 1.617638,3.354436 2.401652,5.039266 0.386669,0.830872 0.92944,1.770305 1.794175,2.059867 0.319938,0.107167 0.695102,0.116322 0.947481,0.377126 0.312666,0.322896 0.387128,0.683903 0.786407,0.961424 1.593247,1.107697 4.081971,1.022321 5.494172,-0.423198 1.277083,-1.307305 0.944811,-3.376028 -0.121772,-4.701443 1.697807,-0.707685 4.790972,-1.617863 4.116211,-4.262923 3.67892,-0.244286 12.611227,-6.210845 7.673544,-10.570785 2.709803,-1.531492 5.199363,-5.274298 3.458753,-8.573607 -1.34032,-2.540579 -4.457409,-3.676237 -7.014889,-3.810968" />
  </g>
</svg>
