<?xml version="1.0" encoding="utf-8"?>
<svg xmlns:dc="http://purl.org/dc/elements/1.1/" xmlns:cc="http://creativecommons.org/ns#" xmlns:rdf="http://www.w3.org/1999/02/22-rdf-syntax-ns#" xmlns:svg="http://www.w3.org/2000/svg" xmlns="http://www.w3.org/2000/svg" viewBox="0 0 742.66656 345.30994" height="345.31" width="742.667" xml:space="preserve" version="1.1"><defs><clipPath id="clipPath22" clipPathUnits="userSpaceOnUse"><path d="M 0,0 H 557 V 259 H 0 Z"/></clipPath><clipPath id="clipPath108" clipPathUnits="userSpaceOnUse"><path d="M 207.188,141.877 H 439.895 V 113.354 H 207.188 Z"/></clipPath><clipPath id="clipPath118" clipPathUnits="userSpaceOnUse"><path d="m 207,113 h 233 v 29 H 207 Z"/></clipPath><clipPath id="clipPath132" clipPathUnits="userSpaceOnUse"><path d="M 208.688,140.377 H 438.395 V 114.854 H 208.688 Z"/></clipPath><clipPath id="clipPath142" clipPathUnits="userSpaceOnUse"><path d="m 210,118 h 97 v 17 h -97 z"/></clipPath><clipPath id="clipPath160" clipPathUnits="userSpaceOnUse"><path d="m 32,31 h 226 v 83 H 32 Z"/></clipPath><clipPath id="clipPath192" clipPathUnits="userSpaceOnUse"><path d="M 36.031,61.557 H 238.715 V 36.034 H 36.031 Z"/></clipPath><clipPath id="clipPath202" clipPathUnits="userSpaceOnUse"><path d="M 41,41 H 234 V 56 H 41 Z"/></clipPath></defs><g transform="matrix(1.333,0,0,-1.333,0,345.31)"><g><g transform="translate(0,-0.018)"><g><g clip-path="url(#clipPath22)"><g><path style="fill:#d3d3d3;fill-opacity:1;fill-rule:nonzero;stroke:none" d="M 0,259 H 557 V 0.016 H 0 Z"/><path style="fill:#eeeeee;fill-opacity:1;fill-rule:nonzero;stroke:none" d="m 0,259 h 557 v -2.254 H 0 Z"/><path style="fill:#9a9a9a;fill-opacity:1;fill-rule:nonzero;stroke:none" d="M 0,2.27 H 557 V 0.016 H 0 Z"/><path style="fill:#9a9a9a;fill-opacity:1;fill-rule:nonzero;stroke:none" d="M 554.746,256.746 V 0.016 H 557 V 259"/><path style="fill:#eeeeee;fill-opacity:1;fill-rule:nonzero;stroke:none" d="M 0,259 V 0.016 L 2.254,2.27 V 259"/><path style="fill:#00008b;fill-opacity:1;fill-rule:nonzero;stroke:none" d="M 5.254,253.746 H 551.746 V 215.461 H 5.254 Z"/><path style="fill:#d3d3d3;fill-opacity:1;fill-rule:nonzero;stroke:none" d="M 5.254,215.461 H 551.746 V 172.672 H 5.254 Z"/><path style="fill:#ffffff;fill-opacity:1;fill-rule:nonzero;stroke:none" d="M 5.254,172.672 H 551.746 V 5.274 H 5.254 Z"/><path style="fill:#9a9a9a;fill-opacity:1;fill-rule:nonzero;stroke:none" d="m 5.254,172.672 h 546.492 v -2.25 H 5.254 Z"/><path style="fill:#eeeeee;fill-opacity:1;fill-rule:nonzero;stroke:none" d="M 5.254,7.523 H 551.746 V 5.273 H 5.254 Z"/><path style="fill:#eeeeee;fill-opacity:1;fill-rule:nonzero;stroke:none" d="M 549.492,170.422 V 5.273 h 2.254 v 167.399"/><path style="fill:#9a9a9a;fill-opacity:1;fill-rule:nonzero;stroke:none" d="M 5.254,172.672 V 5.273 l 2.254,2.25 v 165.149"/><g transform="matrix(1,0,0,-1,0,259)"><path style="fill:none;stroke:#ff0000;stroke-width:0.751;stroke-linecap:butt;stroke-linejoin:miter;stroke-miterlimit:10;stroke-dasharray:none;stroke-opacity:1" d="m 34.156,115.227 h 488.688 v 58.555 H 34.156 Z"/></g><path style="fill:#d3d3d3;fill-opacity:1;fill-rule:nonzero;stroke:none" d="m 517.215,249.242 h 30.027 v -30.027 h -30.027 z"/><path style="fill:#ffffff;fill-opacity:1;fill-rule:nonzero;stroke:none" d="m 517.215,249.242 h 30.027 v -3.754 h -30.027 z"/><path style="fill:#ababab;fill-opacity:1;fill-rule:nonzero;stroke:none" d="m 517.215,222.969 h 30.027 v -3.754 h -30.027 z"/><path style="fill:#ababab;fill-opacity:1;fill-rule:nonzero;stroke:none" d="m 543.488,245.488 v -26.273 h 3.754 v 30.027"/><path style="fill:#ffffff;fill-opacity:1;fill-rule:nonzero;stroke:none" d="m 517.215,249.242 v -30.027 l 3.754,3.754 v 26.273"/><text style="font-variant:normal;font-weight:normal;font-size:18.016px;font-family:'DejaVu Sans';-inkscape-font-specification:DejaVuSans;writing-mode:lr-tb;fill:#000000;fill-opacity:1;fill-rule:nonzero;stroke:none" transform="matrix(1,0,0,-1,524.979,228.222)"><tspan>✕</tspan></text><text style="font-variant:normal;font-weight:600;font-size:18.016px;font-family:'IBM Plex Sans SemiBold';-inkscape-font-specification:IBMPlexSans-SemiBold;writing-mode:lr-tb;fill:#ffffff;fill-opacity:1;fill-rule:nonzero;stroke:none" transform="matrix(1,0,0,-1,9.501,227.472)"><tspan x="0 9.765 20.268 27.024 42.788 53.31 58.553 68.317 73.578 80.334 90.081 94.585 101.359 105.845 117.862 129.879 142.634 147.138 158.398 165.911 176.414">Formulaire | BAD SITE</tspan></text><text style="font-variant:normal;font-weight:normal;font-size:22.52px;font-family:'IBM Plex Sans';-inkscape-font-specification:IBMPlexSans;writing-mode:lr-tb;fill:#000000;fill-opacity:1;fill-rule:nonzero;stroke:none" transform="matrix(1,0,0,-1,13.5,185.434)"><tspan>←</tspan></text><text style="font-variant:normal;font-weight:normal;font-size:22.52px;font-family:'IBM Plex Sans';-inkscape-font-specification:IBMPlexSans;writing-mode:lr-tb;fill:#000000;fill-opacity:1;fill-rule:nonzero;stroke:none" transform="matrix(1,0,0,-1,42.777,185.434)"><tspan>→</tspan></text><text style="font-variant:normal;font-weight:normal;font-size:22.52px;font-family:'DejaVu Sans';-inkscape-font-specification:DejaVuSans;writing-mode:lr-tb;fill:#000000;fill-opacity:1;fill-rule:nonzero;stroke:none" transform="matrix(1,0,0,-1,72.053,185.434)"><tspan>⟳</tspan></text><path style="fill:#ffffff;fill-opacity:1;fill-rule:nonzero;stroke:none" d="m 102.59,182.68 v 22.773 c 0,0.465 0.09,0.91 0.265,1.34 0.18,0.43 0.434,0.809 0.762,1.137 0.328,0.328 0.707,0.582 1.137,0.761 0.43,0.176 0.875,0.266 1.34,0.266 h 404.863 c 0.465,0 0.914,-0.09 1.344,-0.266 0.429,-0.179 0.808,-0.433 1.137,-0.761 0.328,-0.328 0.582,-0.707 0.757,-1.137 0.18,-0.43 0.27,-0.875 0.27,-1.34 V 182.68 c 0,-0.465 -0.09,-0.91 -0.27,-1.34 -0.175,-0.43 -0.429,-0.809 -0.757,-1.137 -0.329,-0.328 -0.708,-0.582 -1.137,-0.762 -0.43,-0.175 -0.879,-0.265 -1.344,-0.265 H 106.094 c -0.465,0 -0.91,0.09 -1.34,0.265 -0.43,0.18 -0.809,0.434 -1.137,0.762 -0.328,0.328 -0.582,0.707 -0.762,1.137 -0.175,0.43 -0.265,0.875 -0.265,1.34 z"/><g transform="matrix(1,0,0,-1,0,259)"><path style="fill:none;stroke:#808080;stroke-width:0.751;stroke-linecap:butt;stroke-linejoin:miter;stroke-miterlimit:10;stroke-dasharray:none;stroke-opacity:1" d="M 102.469,76.32 V 53.547 c 0,-0.481 0.09,-0.942 0.273,-1.387 0.184,-0.445 0.446,-0.836 0.789,-1.176 0.34,-0.343 0.731,-0.605 1.176,-0.789 0.445,-0.183 0.906,-0.277 1.387,-0.277 h 404.863 c 0.484,0 0.945,0.094 1.391,0.277 0.445,0.184 0.836,0.446 1.175,0.789 0.34,0.34 0.602,0.731 0.789,1.176 0.184,0.445 0.274,0.906 0.274,1.387 V 76.32 c 0,0.481 -0.09,0.942 -0.274,1.387 -0.187,0.445 -0.449,0.836 -0.789,1.176 -0.339,0.34 -0.73,0.605 -1.175,0.789 -0.446,0.183 -0.907,0.273 -1.391,0.273 H 106.094 c -0.481,0 -0.942,-0.09 -1.387,-0.273 -0.445,-0.184 -0.836,-0.449 -1.176,-0.789 -0.343,-0.34 -0.605,-0.731 -0.789,-1.176 -0.183,-0.445 -0.273,-0.906 -0.273,-1.387 z"/></g><text style="font-variant:normal;font-weight:normal;font-size:16.215px;font-family:'IBM Plex Sans';-inkscape-font-specification:IBMPlexSans;writing-mode:lr-tb;fill:#000000;fill-opacity:1;fill-rule:nonzero;stroke:none" transform="matrix(1,0,0,-1,111.076,187.686)"><tspan x="0 9.761 15.761 21.776 31.537 39.791 44.298 48.044 54.059 63.058 71.279 80.327 94.596 104.357 108.848 117.864 122.371 130.624 139.64 153.892 159.908 165.161 174.177 180.176">https://example.com/form</tspan></text><text style="font-variant:normal;font-weight:normal;font-size:22.52px;font-family:'DejaVu Sans';-inkscape-font-specification:DejaVuSans;writing-mode:lr-tb;fill:#000000;fill-opacity:1;fill-rule:nonzero;stroke:none" transform="matrix(1,0,0,-1,523.231,185.434)"><tspan>☰</tspan></text><text style="font-variant:normal;font-weight:normal;font-size:18.016px;font-family:'IBM Plex Sans';-inkscape-font-specification:IBMPlexSans;writing-mode:lr-tb;fill:#000000;fill-opacity:1;fill-rule:nonzero;stroke:none" transform="matrix(1,0,0,-1,36.021,120.876)"><tspan x="0 12.017 21.764 27.781 37.528 42.05 52.553 62.318 66.822 72.065 75.83 85.577 94.585 104.35 114.853 124.618 140.346 150.147 160.65">Date de l’événement</tspan></text></g></g></g></g></g><g><g clip-path="url(#clipPath108)"><g transform="translate(0,-0.018)"><g><g clip-path="url(#clipPath118)"><g><g transform="matrix(1,0,0,-1,0,259)"><path style="fill:#ffffff;fill-opacity:1;fill-rule:nonzero;stroke:#767676;stroke-width:0.751;stroke-linecap:butt;stroke-linejoin:miter;stroke-miterlimit:10;stroke-dasharray:none;stroke-opacity:1" d="M 207.562,143.754 V 118.98 c 0,-0.199 0.036,-0.39 0.114,-0.574 0.074,-0.183 0.183,-0.344 0.324,-0.484 0.141,-0.141 0.305,-0.25 0.488,-0.328 0.184,-0.074 0.375,-0.114 0.574,-0.114 H 438.02 c 0.199,0 0.39,0.04 0.574,0.114 0.183,0.078 0.344,0.187 0.484,0.328 0.141,0.14 0.25,0.301 0.328,0.484 0.074,0.184 0.114,0.375 0.114,0.574 v 24.774 c 0,0.199 -0.04,0.391 -0.114,0.574 -0.078,0.184 -0.187,0.348 -0.328,0.488 -0.14,0.141 -0.301,0.25 -0.484,0.325 -0.184,0.078 -0.375,0.113 -0.574,0.113 H 209.062 c -0.199,0 -0.39,-0.035 -0.574,-0.113 -0.183,-0.075 -0.347,-0.184 -0.488,-0.325 -0.141,-0.14 -0.25,-0.304 -0.324,-0.488 -0.078,-0.183 -0.114,-0.375 -0.114,-0.574 z"/></g></g></g></g></g></g></g><g><g clip-path="url(#clipPath132)"><g transform="translate(0,-0.018)"><g><g clip-path="url(#clipPath142)"><g><text style="font-variant:normal;font-weight:normal;font-size:18.016px;font-family:'IBM Plex Sans';-inkscape-font-specification:IBMPlexSans;writing-mode:lr-tb;fill:#000000;fill-opacity:1;fill-rule:nonzero;stroke:none" transform="matrix(1,0,0,-1,210.177,120.876)"><tspan x="0 10.503 21.025 27.781 38.284 48.806 55.562 66.065 76.569 87.09">31/02/2020</tspan></text></g></g></g></g></g></g><g><g transform="translate(0,-0.018)"><g><g clip-path="url(#clipPath160)"><g><path style="fill:#ff0000;fill-opacity:1;fill-rule:nonzero;stroke:none" d="m 36.031,113.371 h 2.254 v -0.754 h -2.254 m 3.781,0.754 h 2.25 v -0.754 h -2.25 m 3.778,0.754 h 2.254 v -0.754 H 43.59 m 3.781,0.754 h 2.25 v -0.754 h -2.25 m 3.777,0.754 h 2.254 v -0.754 h -2.254 m 3.782,0.754 h 2.25 v -0.754 h -2.25 m 3.777,0.754 h 2.254 v -0.754 h -2.254 m 3.781,0.754 h 2.25 v -0.754 h -2.25 m 3.778,0.754 h 2.254 v -0.754 h -2.254 m 3.781,0.754 h 2.25 v -0.754 h -2.25 m 3.777,0.754 h 2.254 v -0.754 h -2.254 m 3.781,0.754 h 2.25 v -0.754 h -2.25 m 3.778,0.754 h 2.254 v -0.754 h -2.254 m 3.781,0.754 h 2.25 v -0.754 h -2.25 m 3.777,0.754 h 2.254 v -0.754 h -2.254 m 3.782,0.754 h 2.25 v -0.754 h -2.25 m 3.777,0.754 h 2.254 v -0.754 H 96.5 m 3.781,0.754 h 2.25 v -0.754 h -2.25 m 3.778,0.754 h 2.253 v -0.754 h -2.253 m 3.781,0.754 h 2.25 v -0.754 h -2.25 m 3.777,0.754 h 2.254 v -0.754 h -2.254 m 3.781,0.754 h 2.25 v -0.754 h -2.25 m 3.778,0.754 h 2.254 v -0.754 h -2.254 m 3.781,0.754 h 2.25 v -0.754 h -2.25 m 3.777,0.754 h 2.254 v -0.754 h -2.254 m 3.782,0.754 h 2.25 v -0.754 h -2.25 m 3.777,0.754 h 2.254 v -0.754 h -2.254 m 3.777,0.754 h 2.254 v -0.754 h -2.254 m 3.782,0.754 h 2.25 v -0.754 h -2.25 m 3.777,0.754 h 2.254 v -0.754 h -2.254 m 3.781,0.754 h 2.25 v -0.754 h -2.25 m 3.778,0.754 h 2.253 v -0.754 h -2.253 m 3.781,0.754 h 2.25 v -0.754 h -2.25 m 3.777,0.754 H 163 v -0.754 h -2.254 m 3.781,0.754 h 2.25 v -0.754 h -2.25 m 3.778,0.754 h 2.254 v -0.754 h -2.254 m 3.781,0.754 h 2.25 v -0.754 h -2.25 m 3.777,0.754 h 2.254 v -0.754 h -2.254 m 3.782,0.754 h 2.25 v -0.754 h -2.25 m 3.777,0.754 h 2.254 v -0.754 h -2.254 m 3.781,0.754 h 2.25 v -0.754 h -2.25 m 3.777,0.754 h 2.254 v -0.754 h -2.254 m 3.782,0.754 h 2.25 v -0.754 h -2.25 m 3.777,0.754 h 2.254 v -0.754 h -2.254 m 3.781,0.754 h 2.25 v -0.754 h -2.25 m 3.778,0.754 h 2.254 v -0.754 h -2.254 m 3.781,0.754 h 2.25 v -0.754 h -2.25 m 3.777,0.754 h 2.254 v -0.754 h -2.254 m 3.782,0.754 h 2.25 v -0.754 h -2.25 m 3.777,0.754 h 2.254 v -0.754 h -2.254 m 3.781,0.754 h 2.25 v -0.754 h -2.25 m 3.777,0.754 h 2.254 v -0.754 h -2.254 m 3.782,0.754 h 2.25 v -0.754 h -2.25 m 3.777,0.754 h 2.254 v -0.754 h -2.254 m 3.781,0.754 h 2.25 v -0.754 h -2.25 m 3.778,0.754 h 2.254 v -0.754 h -2.254 m 3.781,0.754 h 2.25 v -0.754 h -2.25 m 3.777,0.754 h 2.254 v -0.754 h -2.254 m 3.781,0.754 h 2.25 v -0.754 h -2.25"/><path style="fill:#ff0000;fill-opacity:1;fill-rule:nonzero;stroke:none" d="m 36.031,87.848 h 2.254 v -0.75 h -2.254 m 3.781,0.75 h 2.25 v -0.75 h -2.25 m 3.778,0.75 h 2.254 v -0.75 H 43.59 m 3.781,0.75 h 2.25 v -0.75 h -2.25 m 3.777,0.75 h 2.254 v -0.75 h -2.254 m 3.782,0.75 h 2.25 v -0.75 h -2.25 m 3.777,0.75 h 2.254 v -0.75 h -2.254 m 3.781,0.75 h 2.25 v -0.75 h -2.25 m 3.778,0.75 h 2.254 v -0.75 h -2.254 m 3.781,0.75 h 2.25 v -0.75 h -2.25 m 3.777,0.75 h 2.254 v -0.75 h -2.254 m 3.781,0.75 h 2.25 v -0.75 h -2.25 m 3.778,0.75 h 2.254 v -0.75 h -2.254 m 3.781,0.75 h 2.25 v -0.75 h -2.25 m 3.777,0.75 h 2.254 v -0.75 h -2.254 m 3.782,0.75 h 2.25 v -0.75 h -2.25 m 3.777,0.75 h 2.254 v -0.75 H 96.5 m 3.781,0.75 h 2.25 v -0.75 h -2.25 m 3.778,0.75 h 2.253 v -0.75 h -2.253 m 3.781,0.75 h 2.25 v -0.75 h -2.25 m 3.777,0.75 h 2.254 v -0.75 h -2.254 m 3.781,0.75 h 2.25 v -0.75 h -2.25 m 3.778,0.75 h 2.254 v -0.75 h -2.254 m 3.781,0.75 h 2.25 v -0.75 h -2.25 m 3.777,0.75 h 2.254 v -0.75 h -2.254 m 3.782,0.75 h 2.25 v -0.75 h -2.25 m 3.777,0.75 h 2.254 v -0.75 h -2.254 m 3.777,0.75 h 2.254 v -0.75 h -2.254 m 3.782,0.75 h 2.25 v -0.75 h -2.25 m 3.777,0.75 h 2.254 v -0.75 h -2.254 m 3.781,0.75 h 2.25 v -0.75 h -2.25 m 3.778,0.75 h 2.253 v -0.75 h -2.253 m 3.781,0.75 h 2.25 v -0.75 h -2.25 m 3.777,0.75 H 163 v -0.75 h -2.254 m 3.781,0.75 h 2.25 v -0.75 h -2.25 m 3.778,0.75 h 2.254 v -0.75 h -2.254 m 3.781,0.75 h 2.25 v -0.75 h -2.25 m 3.777,0.75 h 2.254 v -0.75 h -2.254 m 3.782,0.75 h 2.25 v -0.75 h -2.25 m 3.777,0.75 h 2.254 v -0.75 h -2.254 m 3.781,0.75 h 2.25 v -0.75 h -2.25 m 3.777,0.75 h 2.254 v -0.75 h -2.254 m 3.782,0.75 h 2.25 v -0.75 h -2.25 m 3.777,0.75 h 2.254 v -0.75 h -2.254 m 3.781,0.75 h 2.25 v -0.75 h -2.25 m 3.778,0.75 h 2.254 v -0.75 h -2.254 m 3.781,0.75 h 2.25 v -0.75 h -2.25 m 3.777,0.75 h 2.254 v -0.75 h -2.254 m 3.782,0.75 h 2.25 v -0.75 h -2.25 m 3.777,0.75 h 2.254 v -0.75 h -2.254 m 3.781,0.75 h 2.25 v -0.75 h -2.25 m 3.777,0.75 h 2.254 v -0.75 h -2.254 m 3.782,0.75 h 2.25 v -0.75 h -2.25 m 3.777,0.75 h 2.254 v -0.75 h -2.254 m 3.781,0.75 h 2.25 v -0.75 h -2.25 m 3.778,0.75 h 2.254 v -0.75 h -2.254 m 3.781,0.75 h 2.25 v -0.75 h -2.25 m 3.777,0.75 h 2.254 v -0.75 h -2.254 m 3.781,0.75 h 2.25 v -0.75 h -2.25"/><path style="fill:#ff0000;fill-opacity:1;fill-rule:nonzero;stroke:none" d="m 257.48,113.371 v -2.254 h -0.75 v 2.254 m 0.75,-4.004 v -2.254 h -0.75 v 2.254 m 0.75,-4.004 v -2.254 h -0.75 v 2.254 m 0.75,-4.004 v -2.254 h -0.75 v 2.254 m 0.75,-4.004 v -2.253 h -0.75 v 2.253 m 0.75,-4.003 v -2.254 h -0.75 v 2.254 m 0.75,-4.004 v -2.25 h -0.75 v 2.25"/><path style="fill:#ff0000;fill-opacity:1;fill-rule:nonzero;stroke:none" d="m 36.781,113.371 v -2.254 h -0.75 v 2.254 m 0.75,-4.004 v -2.254 h -0.75 v 2.254 m 0.75,-4.004 v -2.254 h -0.75 v 2.254 m 0.75,-4.004 v -2.254 h -0.75 v 2.254 m 0.75,-4.004 v -2.253 h -0.75 v 2.253 m 0.75,-4.003 v -2.254 h -0.75 v 2.254 m 0.75,-4.004 v -2.25 h -0.75 v 2.25"/><text style="font-style:italic;font-variant:normal;font-size:18.016px;font-family:'IBM Plex Sans';-inkscape-font-specification:IBMPlexSans-Italic;writing-mode:lr-tb;fill:#8b0000;fill-opacity:1;fill-rule:nonzero;stroke:none" transform="matrix(1,0,0,-1,37.018,93.852)"><tspan x="0 6.756 17.259 26.268 36.771 41.293 45.797 56.301 60.805 71.308 81.811 87.829 96.837 102.098 106.602 117.105 121.609 130.635 141.139 149.39 158.398 162.902 171.91 181.675 188.431 195.187 204.195 213.203">Invalid date, please correct</tspan></text><path style="fill:#d3d3d3;fill-opacity:1;fill-rule:nonzero;stroke:none" d="M 32.277,65.324 H 242.468 V 31.547 H 32.277 Z"/><path style="fill:#f0f0f0;fill-opacity:1;fill-rule:nonzero;stroke:none" d="m 32.277,65.324 h 210.191 v -3.75 H 32.277 Z"/><path style="fill:#9c9c9c;fill-opacity:1;fill-rule:nonzero;stroke:none" d="M 32.277,35.301 H 242.468 V 31.547 H 32.277 Z"/><path style="fill:#9c9c9c;fill-opacity:1;fill-rule:nonzero;stroke:none" d="M 238.715,61.574 V 31.547 h 3.754 v 33.777"/><path style="fill:#f0f0f0;fill-opacity:1;fill-rule:nonzero;stroke:none" d="M 32.277,65.324 V 31.547 l 3.754,3.754 v 30.023"/></g></g></g></g></g><g><g clip-path="url(#clipPath192)"><g transform="translate(0,-0.018)"><g><g clip-path="url(#clipPath202)"><g><text style="font-variant:normal;font-weight:normal;font-size:18.016px;font-family:'IBM Plex Sans';-inkscape-font-specification:IBMPlexSans;writing-mode:lr-tb;fill:#000000;fill-opacity:1;fill-rule:nonzero;stroke:none" transform="matrix(1,0,0,-1,40.525,42.055)"><tspan x="0 10.467 20.268 30.772 46.554 56.301 62.318 68.317 75.073 84.838 89.342 94.585 104.35 108.854 114.853 124.618 131.374 147.102 157.66 162.902 172.667 177.171 183.927">Soumettre le formulaire</tspan></text></g></g></g></g></g></g></g></svg>
