<?xml version="1.0" encoding="utf-8"?>
<svg xmlns:dc="http://purl.org/dc/elements/1.1/" xmlns:cc="http://creativecommons.org/ns#" xmlns:rdf="http://www.w3.org/1999/02/22-rdf-syntax-ns#" xmlns:svg="http://www.w3.org/2000/svg" xmlns="http://www.w3.org/2000/svg" viewBox="0 0 742.66656 293.26321" height="293.263" width="742.667" xml:space="preserve" version="1.1"><defs><clipPath id="clipPath22" clipPathUnits="userSpaceOnUse"><path d="M 0,0 H 557 V 220 H 0 Z"/></clipPath><clipPath id="clipPath104" clipPathUnits="userSpaceOnUse"><path d="m 87.078,113.352 h 232.707 v 28.527 H 87.078 Z"/></clipPath><clipPath id="clipPath114" clipPathUnits="userSpaceOnUse"><path d="M 0,0 H 557 V 220 H 0 Z"/></clipPath><clipPath id="clipPath128" clipPathUnits="userSpaceOnUse"><path d="m 88.578,114.852 h 229.707 v 25.523 H 88.578 Z"/></clipPath><clipPath id="clipPath138" clipPathUnits="userSpaceOnUse"><path d="M 0,0 H 557 V 220 H 0 Z"/></clipPath><clipPath id="clipPath156" clipPathUnits="userSpaceOnUse"><path d="M 0,0 H 557 V 220 H 0 Z"/></clipPath><clipPath id="clipPath170" clipPathUnits="userSpaceOnUse"><path d="m 80.32,159.895 h 232.711 v 28.523 H 80.32 Z"/></clipPath><clipPath id="clipPath180" clipPathUnits="userSpaceOnUse"><path d="M 0,0 H 557 V 220 H 0 Z"/></clipPath><clipPath id="clipPath194" clipPathUnits="userSpaceOnUse"><path d="m 81.824,161.395 h 229.707 v 25.523 H 81.824 Z"/></clipPath><clipPath id="clipPath204" clipPathUnits="userSpaceOnUse"><path d="M 0,0 H 557 V 220 H 0 Z"/></clipPath></defs><g transform="matrix(1.333,0,0,1.333,0,3.332e-6)"><g><g><g><g clip-path="url(#clipPath22)"><g><path style="fill:#d3d3d3;fill-opacity:1;fill-rule:nonzero;stroke:none" d="M 0,0 H 557 V 219.949 H 0 Z"/><path style="fill:#eeeeee;fill-opacity:1;fill-rule:nonzero;stroke:none" d="M 0,0 H 557 V 2.254 H 0 Z"/><path style="fill:#9a9a9a;fill-opacity:1;fill-rule:nonzero;stroke:none" d="m 0,217.695 h 557 v 2.254 H 0 Z"/><path style="fill:#9a9a9a;fill-opacity:1;fill-rule:nonzero;stroke:none" d="M 554.746,2.254 V 219.949 H 557 V 0"/><path style="fill:#eeeeee;fill-opacity:1;fill-rule:nonzero;stroke:none" d="m 0,0 v 219.949 l 2.254,-2.254 V 0"/><path style="fill:#00008b;fill-opacity:1;fill-rule:nonzero;stroke:none" d="M 5.254,5.254 H 551.746 V 43.539 H 5.254 Z"/><path style="fill:#d3d3d3;fill-opacity:1;fill-rule:nonzero;stroke:none" d="M 5.254,43.539 H 551.746 V 86.328 H 5.254 Z"/><path style="fill:#ffffff;fill-opacity:1;fill-rule:nonzero;stroke:none" d="M 5.254,86.328 H 551.746 V 214.691 H 5.254 Z"/><path style="fill:#9a9a9a;fill-opacity:1;fill-rule:nonzero;stroke:none" d="m 5.254,86.328 h 546.492 v 2.25 H 5.254 Z"/><path style="fill:#eeeeee;fill-opacity:1;fill-rule:nonzero;stroke:none" d="m 5.254,212.441 h 546.492 v 2.25 H 5.254 Z"/><path style="fill:#eeeeee;fill-opacity:1;fill-rule:nonzero;stroke:none" d="m 549.492,88.578 v 126.113 h 2.254 V 86.328"/><path style="fill:#9a9a9a;fill-opacity:1;fill-rule:nonzero;stroke:none" d="m 5.254,86.328 v 128.363 l 2.254,-2.25 V 86.328"/><path style="fill:#d3d3d3;fill-opacity:1;fill-rule:nonzero;stroke:none" d="m 517.215,9.758 h 30.027 v 30.027 h -30.027 z"/><path style="fill:#ffffff;fill-opacity:1;fill-rule:nonzero;stroke:none" d="m 517.215,9.758 h 30.027 v 3.754 h -30.027 z"/><path style="fill:#ababab;fill-opacity:1;fill-rule:nonzero;stroke:none" d="m 517.215,36.031 h 30.027 v 3.754 h -30.027 z"/><path style="fill:#ababab;fill-opacity:1;fill-rule:nonzero;stroke:none" d="m 543.488,13.512 v 26.273 h 3.754 V 9.758"/><path style="fill:#ffffff;fill-opacity:1;fill-rule:nonzero;stroke:none" d="m 517.215,9.758 v 30.027 l 3.754,-3.754 V 9.758"/><text style="font-variant:normal;font-weight:normal;font-size:18.016px;font-family:'DejaVu Sans';-inkscape-font-specification:DejaVuSans;writing-mode:lr-tb;fill:#000000;fill-opacity:1;fill-rule:nonzero;stroke:none" transform="translate(524.979,30.778)"><tspan>✕</tspan></text><text style="font-variant:normal;font-weight:600;font-size:18.016px;font-family:'IBM Plex Sans SemiBold';-inkscape-font-specification:IBMPlexSans-SemiBold;writing-mode:lr-tb;fill:#ffffff;fill-opacity:1;fill-rule:nonzero;stroke:none" transform="translate(9.501,31.528)"><tspan x="0 9.855 19.998 27.078 43.077 53.67 58.967 69.038 74.01 81.001 91.054 95.306 102.08 106.331 119.159 131.986 144.814 157.227 161.479 172.487 180.018 190.467">Formulaire | GOOD SITE</tspan></text><text style="font-variant:normal;font-weight:normal;font-size:22.52px;font-family:'IBM Plex Sans';-inkscape-font-specification:IBMPlexSans;writing-mode:lr-tb;fill:#000000;fill-opacity:1;fill-rule:nonzero;stroke:none" transform="translate(13.5,73.566)"><tspan>←</tspan></text><text style="font-variant:normal;font-weight:normal;font-size:22.52px;font-family:'IBM Plex Sans';-inkscape-font-specification:IBMPlexSans;writing-mode:lr-tb;fill:#000000;fill-opacity:1;fill-rule:nonzero;stroke:none" transform="translate(42.597,73.566)"><tspan>→</tspan></text><text style="font-variant:normal;font-weight:normal;font-size:22.52px;font-family:'DejaVu Sans';-inkscape-font-specification:DejaVuSans;writing-mode:lr-tb;fill:#000000;fill-opacity:1;fill-rule:nonzero;stroke:none" transform="translate(71.693,73.566)"><tspan>⟳</tspan></text><path style="fill:#ffffff;fill-opacity:1;fill-rule:nonzero;stroke:none" d="M 102.59,76.32 V 53.547 c 0,-0.465 0.09,-0.91 0.265,-1.34 0.18,-0.43 0.434,-0.809 0.762,-1.137 0.328,-0.328 0.707,-0.582 1.137,-0.761 0.43,-0.176 0.875,-0.266 1.34,-0.266 h 404.863 c 0.465,0 0.914,0.09 1.344,0.266 0.429,0.179 0.808,0.433 1.137,0.761 0.328,0.328 0.582,0.707 0.757,1.137 0.18,0.43 0.27,0.875 0.27,1.34 V 76.32 c 0,0.465 -0.09,0.91 -0.27,1.34 -0.175,0.43 -0.429,0.809 -0.757,1.137 -0.329,0.328 -0.708,0.582 -1.137,0.762 -0.43,0.175 -0.879,0.265 -1.344,0.265 H 106.094 c -0.465,0 -0.91,-0.09 -1.34,-0.265 -0.43,-0.18 -0.809,-0.434 -1.137,-0.762 -0.328,-0.328 -0.582,-0.707 -0.762,-1.137 -0.175,-0.43 -0.265,-0.875 -0.265,-1.34 z"/><g><path style="fill:none;stroke:#808080;stroke-width:0.751;stroke-linecap:butt;stroke-linejoin:miter;stroke-miterlimit:10;stroke-dasharray:none;stroke-opacity:1" d="M 102.469,76.32 V 53.547 c 0,-0.481 0.09,-0.942 0.273,-1.387 0.184,-0.445 0.446,-0.836 0.789,-1.176 0.34,-0.343 0.731,-0.605 1.176,-0.789 0.445,-0.183 0.906,-0.277 1.387,-0.277 h 404.863 c 0.484,0 0.945,0.094 1.391,0.277 0.445,0.184 0.836,0.446 1.175,0.789 0.34,0.34 0.602,0.731 0.789,1.176 0.184,0.445 0.274,0.906 0.274,1.387 V 76.32 c 0,0.481 -0.09,0.942 -0.274,1.387 -0.187,0.445 -0.449,0.836 -0.789,1.176 -0.339,0.34 -0.73,0.605 -1.175,0.789 -0.446,0.183 -0.907,0.273 -1.391,0.273 H 106.094 c -0.481,0 -0.942,-0.09 -1.387,-0.273 -0.445,-0.184 -0.836,-0.449 -1.176,-0.789 -0.343,-0.34 -0.605,-0.731 -0.789,-1.176 -0.183,-0.445 -0.273,-0.906 -0.273,-1.387 z"/></g><text style="font-variant:normal;font-weight:normal;font-size:16.215px;font-family:'IBM Plex Sans';-inkscape-font-specification:IBMPlexSans;writing-mode:lr-tb;fill:#000000;fill-opacity:1;fill-rule:nonzero;stroke:none" transform="translate(110.724,71.314)"><tspan x="0 9.21 14.755 20.447 29.851 37.747 42.482 46.73 52.697 61.405 69.625 78.284 92.439 101.844 106.254 114.815 119.063 127.122 136.202 150.358 156.568 161.74 170.82 176.771">https://example.com/form</tspan></text><text style="font-variant:normal;font-weight:normal;font-size:22.52px;font-family:'DejaVu Sans';-inkscape-font-specification:DejaVuSans;writing-mode:lr-tb;fill:#000000;fill-opacity:1;fill-rule:nonzero;stroke:none" transform="translate(523.231,73.566)"><tspan>☰</tspan></text><text style="font-variant:normal;font-weight:normal;font-size:18.016px;font-family:'IBM Plex Sans';-inkscape-font-specification:IBMPlexSans;writing-mode:lr-tb;fill:#000000;fill-opacity:1;fill-rule:nonzero;stroke:none" transform="translate(32.021,134.371)"><tspan x="0 8.846 18.935 25.457 35.348">Lorem</tspan></text></g></g></g></g></g><g><g clip-path="url(#clipPath104)"><g><g><g clip-path="url(#clipPath114)"><g><g><path style="fill:#ffffff;fill-opacity:1;fill-rule:nonzero;stroke:#767676;stroke-width:0.751;stroke-linecap:butt;stroke-linejoin:miter;stroke-miterlimit:10;stroke-dasharray:none;stroke-opacity:1" d="m 87.453,140 v -24.773 c 0,-0.196 0.039,-0.391 0.113,-0.575 0.079,-0.183 0.188,-0.343 0.329,-0.484 0.14,-0.141 0.3,-0.25 0.484,-0.328 0.183,-0.074 0.375,-0.113 0.574,-0.113 H 317.91 c 0.199,0 0.391,0.039 0.574,0.113 0.184,0.078 0.348,0.187 0.489,0.328 0.14,0.141 0.25,0.301 0.324,0.484 0.078,0.184 0.113,0.379 0.113,0.575 V 140 c 0,0.199 -0.035,0.391 -0.113,0.574 -0.074,0.184 -0.184,0.348 -0.324,0.488 -0.141,0.141 -0.305,0.25 -0.489,0.325 -0.183,0.078 -0.375,0.117 -0.574,0.117 H 88.953 c -0.199,0 -0.391,-0.039 -0.574,-0.117 -0.184,-0.075 -0.344,-0.184 -0.484,-0.325 -0.141,-0.14 -0.25,-0.304 -0.329,-0.488 -0.074,-0.183 -0.113,-0.375 -0.113,-0.574 z"/></g></g></g></g></g></g></g><g><g clip-path="url(#clipPath128)"><g><g><g clip-path="url(#clipPath138)"><g><text style="font-variant:normal;font-weight:normal;font-size:18.016px;font-family:'IBM Plex Sans';-inkscape-font-specification:IBMPlexSans;writing-mode:lr-tb;fill:#000000;fill-opacity:1;fill-rule:nonzero;stroke:none" transform="translate(90.339,134.371)"><tspan x="0 4.504 14.953 23.727 33.96">ipsum</tspan></text></g></g></g></g></g></g><g><g><g><g clip-path="url(#clipPath156)"><g><text style="font-variant:normal;font-weight:normal;font-size:18.016px;font-family:'IBM Plex Sans';-inkscape-font-specification:IBMPlexSans;writing-mode:lr-tb;fill:#000000;fill-opacity:1;fill-rule:nonzero;stroke:none" transform="translate(32.021,180.912)"><tspan x="0 12.089 22.178 27.078 37.167">Dolor</tspan></text></g></g></g></g></g><g><g clip-path="url(#clipPath170)"><g><g><g clip-path="url(#clipPath180)"><g><g><path style="fill:#ffffff;fill-opacity:1;fill-rule:nonzero;stroke:#767676;stroke-width:0.751;stroke-linecap:butt;stroke-linejoin:miter;stroke-miterlimit:10;stroke-dasharray:none;stroke-opacity:1" d="M 80.699,186.543 V 161.77 c 0,-0.2 0.035,-0.391 0.113,-0.575 0.075,-0.183 0.184,-0.347 0.325,-0.488 0.14,-0.141 0.304,-0.246 0.488,-0.324 0.184,-0.074 0.375,-0.113 0.574,-0.113 h 228.953 c 0.2,0 0.391,0.039 0.578,0.113 0.184,0.078 0.344,0.183 0.485,0.324 0.14,0.141 0.25,0.305 0.328,0.488 0.074,0.184 0.113,0.375 0.113,0.575 v 24.773 c 0,0.199 -0.039,0.391 -0.113,0.574 -0.078,0.184 -0.188,0.348 -0.328,0.488 -0.141,0.141 -0.301,0.247 -0.485,0.325 -0.187,0.074 -0.378,0.113 -0.578,0.113 H 82.199 c -0.199,0 -0.39,-0.039 -0.574,-0.113 -0.184,-0.078 -0.348,-0.184 -0.488,-0.325 -0.141,-0.14 -0.25,-0.304 -0.325,-0.488 -0.078,-0.183 -0.113,-0.375 -0.113,-0.574 z"/></g></g></g></g></g></g></g><g><g clip-path="url(#clipPath194)"><g><g><g clip-path="url(#clipPath204)"><g><text style="font-variant:normal;font-weight:normal;font-size:18.016px;font-family:'IBM Plex Sans';-inkscape-font-specification:IBMPlexSans;writing-mode:lr-tb;fill:#000000;fill-opacity:1;fill-rule:nonzero;stroke:none" transform="translate(83.043,180.912)"><tspan x="0 8.774 13.278 19.602 23.853 33.474 49.202 59.093">sit amet</tspan></text></g></g></g></g></g></g></g></svg>
