<?xml version="1.0" encoding="utf-8"?>
<svg xmlns:dc="http://purl.org/dc/elements/1.1/" xmlns:cc="http://creativecommons.org/ns#" xmlns:rdf="http://www.w3.org/1999/02/22-rdf-syntax-ns#" xmlns:svg="http://www.w3.org/2000/svg" xmlns="http://www.w3.org/2000/svg" viewBox="0 0 742.66656 465.41772" height="465.418" width="742.667" xml:space="preserve" version="1.1"><defs><clipPath id="clipPath22" clipPathUnits="userSpaceOnUse"><path d="M 0,0 H 557 V 350 H 0 Z"/></clipPath><clipPath id="clipPath112" clipPathUnits="userSpaceOnUse"><path d="M 0,0 H 557 V 350 H 0 Z"/></clipPath><clipPath id="clipPath124" clipPathUnits="userSpaceOnUse"><path d="M 0,0 H 557 V 350 H 0 Z"/></clipPath><clipPath id="clipPath136" clipPathUnits="userSpaceOnUse"><path d="m 119,232 h 54 v 3 h -54 z"/></clipPath><clipPath id="clipPath150" clipPathUnits="userSpaceOnUse"><path d="M 33,106 H 524 V 250 H 33 Z"/></clipPath><clipPath id="clipPath188" clipPathUnits="userSpaceOnUse"><path d="M 0,0 H 557 V 350 H 0 Z"/></clipPath><clipPath id="clipPath200" clipPathUnits="userSpaceOnUse"><path d="M 0,0 H 557 V 350 H 0 Z"/></clipPath><clipPath id="clipPath212" clipPathUnits="userSpaceOnUse"><path d="m 32,34 h 112 v 3 H 32 Z"/></clipPath><clipPath id="clipPath226" clipPathUnits="userSpaceOnUse"><path d="M 33,34 H 144 V 52 H 33 Z"/></clipPath></defs><g transform="matrix(1.333,0,0,-1.333,0,465.418)"><g><g transform="translate(0,-0.937)"><g><g clip-path="url(#clipPath22)"><g><path style="fill:#d3d3d3;fill-opacity:1;fill-rule:nonzero;stroke:none" d="M 0,350 H 557 V 0.938 H 0 Z"/><path style="fill:#eeeeee;fill-opacity:1;fill-rule:nonzero;stroke:none" d="m 0,350 h 557 v -2.254 H 0 Z"/><path style="fill:#9a9a9a;fill-opacity:1;fill-rule:nonzero;stroke:none" d="M 0,3.188 H 557 V 0.938 H 0 Z"/><path style="fill:#9a9a9a;fill-opacity:1;fill-rule:nonzero;stroke:none" d="M 554.746,347.746 V 0.938 H 557 V 350"/><path style="fill:#eeeeee;fill-opacity:1;fill-rule:nonzero;stroke:none" d="M 0,350 V 0.938 l 2.254,2.25 V 350"/><path style="fill:#00008b;fill-opacity:1;fill-rule:nonzero;stroke:none" d="M 5.254,344.746 H 551.746 V 306.461 H 5.254 Z"/><path style="fill:#d3d3d3;fill-opacity:1;fill-rule:nonzero;stroke:none" d="M 5.254,306.461 H 551.746 V 263.672 H 5.254 Z"/><path style="fill:#ffffff;fill-opacity:1;fill-rule:nonzero;stroke:none" d="M 5.254,263.672 H 551.746 V 6.192 H 5.254 Z"/><path style="fill:#9a9a9a;fill-opacity:1;fill-rule:nonzero;stroke:none" d="m 5.254,263.672 h 546.492 v -2.25 H 5.254 Z"/><path style="fill:#eeeeee;fill-opacity:1;fill-rule:nonzero;stroke:none" d="M 5.254,8.445 H 551.746 V 6.191 H 5.254 Z"/><path style="fill:#eeeeee;fill-opacity:1;fill-rule:nonzero;stroke:none" d="M 549.492,261.422 V 6.191 h 2.254 v 257.481"/><path style="fill:#9a9a9a;fill-opacity:1;fill-rule:nonzero;stroke:none" d="M 5.254,263.672 V 6.191 l 2.254,2.254 v 255.227"/><path style="fill:#ffd6b8;fill-opacity:1;fill-rule:nonzero;stroke:none" d="M 8.258,260.668 H 548.742 V 224.637 H 8.258 Z"/><path style="fill:#ffd6b8;fill-opacity:1;fill-rule:nonzero;stroke:none" d="M 8.258,80.508 H 548.742 V 8.446 H 8.258 Z"/><path style="fill:#d3d3d3;fill-opacity:1;fill-rule:nonzero;stroke:none" d="m 517.215,340.242 h 30.027 v -30.027 h -30.027 z"/><path style="fill:#ffffff;fill-opacity:1;fill-rule:nonzero;stroke:none" d="m 517.215,340.242 h 30.027 v -3.754 h -30.027 z"/><path style="fill:#ababab;fill-opacity:1;fill-rule:nonzero;stroke:none" d="m 517.215,313.969 h 30.027 v -3.754 h -30.027 z"/><path style="fill:#ababab;fill-opacity:1;fill-rule:nonzero;stroke:none" d="m 543.488,336.488 v -26.273 h 3.754 v 30.027"/><path style="fill:#ffffff;fill-opacity:1;fill-rule:nonzero;stroke:none" d="m 517.215,340.242 v -30.027 l 3.754,3.754 v 26.273"/><text style="font-variant:normal;font-weight:normal;font-size:18.016px;font-family:'DejaVu Sans';-inkscape-font-specification:DejaVuSans;writing-mode:lr-tb;fill:#000000;fill-opacity:1;fill-rule:nonzero;stroke:none" transform="matrix(1,0,0,-1,524.979,319.222)"><tspan>✕</tspan></text><text style="font-variant:normal;font-weight:600;font-size:18.016px;font-family:'IBM Plex Sans SemiBold';-inkscape-font-specification:IBMPlexSans-SemiBold;writing-mode:lr-tb;fill:#ffffff;fill-opacity:1;fill-rule:nonzero;stroke:none" transform="matrix(1,0,0,-1,9.501,318.472)"><tspan x="0 9.765 20.268 27.024 36.789 52.553 57.057 64.57 75.073 84.063 94.585 110.349 114.853 121.627 126.131 138.887 151.642 164.416 177.171 181.675 192.935 200.448 210.951">Lorem Ipsum | GOOD SITE</tspan></text><text style="font-variant:normal;font-weight:normal;font-size:22.52px;font-family:'IBM Plex Sans';-inkscape-font-specification:IBMPlexSans;writing-mode:lr-tb;fill:#000000;fill-opacity:1;fill-rule:nonzero;stroke:none" transform="matrix(1,0,0,-1,13.5,276.434)"><tspan>←</tspan></text><text style="font-variant:normal;font-weight:normal;font-size:22.52px;font-family:'IBM Plex Sans';-inkscape-font-specification:IBMPlexSans;writing-mode:lr-tb;fill:#000000;fill-opacity:1;fill-rule:nonzero;stroke:none" transform="matrix(1,0,0,-1,42.777,276.434)"><tspan>→</tspan></text><text style="font-variant:normal;font-weight:normal;font-size:22.52px;font-family:'DejaVu Sans';-inkscape-font-specification:DejaVuSans;writing-mode:lr-tb;fill:#000000;fill-opacity:1;fill-rule:nonzero;stroke:none" transform="matrix(1,0,0,-1,72.053,276.434)"><tspan>⟳</tspan></text><path style="fill:#ffffff;fill-opacity:1;fill-rule:nonzero;stroke:none" d="m 102.59,273.68 v 22.773 c 0,0.465 0.09,0.91 0.265,1.34 0.18,0.43 0.434,0.809 0.762,1.137 0.328,0.328 0.707,0.582 1.137,0.761 0.43,0.176 0.875,0.266 1.34,0.266 h 404.863 c 0.465,0 0.914,-0.09 1.344,-0.266 0.429,-0.179 0.808,-0.433 1.137,-0.761 0.328,-0.328 0.582,-0.707 0.757,-1.137 0.18,-0.43 0.27,-0.875 0.27,-1.34 V 273.68 c 0,-0.465 -0.09,-0.91 -0.27,-1.34 -0.175,-0.43 -0.429,-0.809 -0.757,-1.137 -0.329,-0.328 -0.708,-0.582 -1.137,-0.762 -0.43,-0.175 -0.879,-0.265 -1.344,-0.265 H 106.094 c -0.465,0 -0.91,0.09 -1.34,0.265 -0.43,0.18 -0.809,0.434 -1.137,0.762 -0.328,0.328 -0.582,0.707 -0.762,1.137 -0.175,0.43 -0.265,0.875 -0.265,1.34 z"/><g transform="matrix(1,0,0,-1,0,350)"><path style="fill:none;stroke:#808080;stroke-width:0.751;stroke-linecap:butt;stroke-linejoin:miter;stroke-miterlimit:10;stroke-dasharray:none;stroke-opacity:1" d="M 102.469,76.32 V 53.547 c 0,-0.481 0.09,-0.942 0.273,-1.387 0.184,-0.445 0.446,-0.836 0.789,-1.176 0.34,-0.343 0.731,-0.605 1.176,-0.789 0.445,-0.183 0.906,-0.277 1.387,-0.277 h 404.863 c 0.484,0 0.945,0.094 1.391,0.277 0.445,0.184 0.836,0.446 1.175,0.789 0.34,0.34 0.602,0.731 0.789,1.176 0.184,0.445 0.274,0.906 0.274,1.387 V 76.32 c 0,0.481 -0.09,0.942 -0.274,1.387 -0.187,0.445 -0.449,0.836 -0.789,1.176 -0.339,0.34 -0.73,0.605 -1.175,0.789 -0.446,0.183 -0.907,0.273 -1.391,0.273 H 106.094 c -0.481,0 -0.942,-0.09 -1.387,-0.273 -0.445,-0.184 -0.836,-0.449 -1.176,-0.789 -0.343,-0.34 -0.605,-0.731 -0.789,-1.176 -0.183,-0.445 -0.273,-0.906 -0.273,-1.387 z"/></g><text style="font-variant:normal;font-weight:normal;font-size:16.215px;font-family:'IBM Plex Sans';-inkscape-font-specification:IBMPlexSans;writing-mode:lr-tb;fill:#000000;fill-opacity:1;fill-rule:nonzero;stroke:none" transform="matrix(1,0,0,-1,111.076,278.686)"><tspan x="0 9.761 15.761 21.776 31.537 39.791 44.298 48.044 54.059 63.058 71.279 80.327 94.596 104.357 108.848 117.864 122.371 130.624 139.64 153.892">https://example.com/</tspan></text><text style="font-variant:normal;font-weight:normal;font-size:22.52px;font-family:'DejaVu Sans';-inkscape-font-specification:DejaVuSans;writing-mode:lr-tb;fill:#000000;fill-opacity:1;fill-rule:nonzero;stroke:none" transform="matrix(1,0,0,-1,523.231,276.434)"><tspan>☰</tspan></text><path style="fill:#0000ee;fill-opacity:1;fill-rule:nonzero;stroke:none" d="m 32.02,234.395 h 51.047 v -1.5 H 32.02 Z"/><text style="font-variant:normal;font-weight:normal;font-size:18.016px;font-family:'IBM Plex Sans';-inkscape-font-specification:IBMPlexSans;writing-mode:lr-tb;fill:#0000ee;fill-opacity:1;fill-rule:nonzero;stroke:none" transform="matrix(1,0,0,-1,32.021,235.898)"><tspan x="0 9.026 18.773 25.529 35.276">Lorem</tspan></text></g></g></g></g><g transform="translate(0,-0.937)"><g><g clip-path="url(#clipPath112)"><g><g><g><g clip-path="url(#clipPath124)"><g><g><g><g clip-path="url(#clipPath136)"><g><path style="fill:#0000ee;fill-opacity:1;fill-rule:nonzero;stroke:none" d="m 119.098,234.395 h 53.301 v -1.5 h -53.301 z"/></g></g></g></g></g></g></g></g></g></g></g></g><g transform="translate(0,-0.937)"><g><g clip-path="url(#clipPath150)"><g><text style="font-variant:normal;font-weight:normal;font-size:18.016px;font-family:'IBM Plex Sans';-inkscape-font-specification:IBMPlexSans;writing-mode:lr-tb;fill:#0000ee;fill-opacity:1;fill-rule:nonzero;stroke:none" transform="matrix(1,0,0,-1,119.099,235.898)"><tspan x="0 7.513 18.016 27.024 37.528">Ipsum</tspan></text><path style="fill:#0000ee;fill-opacity:1;fill-rule:nonzero;stroke:none" d="m 208.43,234.395 h 43.539 v -1.5 H 208.43 Z"/><text style="font-variant:normal;font-weight:normal;font-size:18.016px;font-family:'IBM Plex Sans';-inkscape-font-specification:IBMPlexSans;writing-mode:lr-tb;fill:#0000ee;fill-opacity:1;fill-rule:nonzero;stroke:none" transform="matrix(1,0,0,-1,208.429,235.898)"><tspan x="0 12.017 21.764 27.024 36.789">Dolor</tspan></text><path style="fill:#0000ee;fill-opacity:1;fill-rule:nonzero;stroke:none" d="m 288,234.395 h 21.02 v -1.5 H 288 Z"/><text style="font-variant:normal;font-weight:normal;font-size:18.016px;font-family:'IBM Plex Sans';-inkscape-font-specification:IBMPlexSans;writing-mode:lr-tb;fill:#0000ee;fill-opacity:1;fill-rule:nonzero;stroke:none" transform="matrix(1,0,0,-1,288.001,235.898)"><tspan x="0 10.467 14.971">Sit</tspan></text><text style="font-variant:normal;font-weight:normal;font-size:18.016px;font-family:'IBM Plex Sans';-inkscape-font-specification:IBMPlexSans;writing-mode:lr-tb;fill:#000000;fill-opacity:1;fill-rule:nonzero;stroke:none" transform="matrix(1,0,0,-1,32.021,181.849)"><tspan x="0 9.026 18.773 25.529 35.276 51.058 55.562 60.066 70.569 79.577 90.081 105.809 110.349 120.87 130.635 135.878 145.643 152.399 156.903 165.911 170.415 176.414 180.918 190.683 206.411 216.212 222.211 227.472 231.976 240.984 250.749 261.253 270.261 280.025 289.033 295.033 304.798 310.797 321.318 328.074 332.579 342.325 352.847 357.351 367.854 372.358 381.366 390.374 394.878 405.4 415.147 419.651 429.415 434.676 439.18 445.18">Lorem ipsum dolor sit amet, consectetur adipiscing elit.</tspan><tspan y="24.022" x="0 12.737 23.277 28.52 33.78 43.545 48.049 53.31 63.057 72.065 76.569 87.09 91.594 101.341 105.845 111.862 121.609 137.391 147.895 158.398 167.406 171.91 181.675 190.683 195.944 200.448 209.456 213.96 219.959 224.463 234.228 249.956 259.757 265.757 270.261 280.764 291.285 296.528 305.554 310.058 320.562 330.327 337.083 341.587 351.333 360.341 366.359 371.602 376.106 388.843 399.382 404.643 409.904 419.651 424.155 434.676 440.676 445.18 451.179 461.7 468.456 478.96 483.464">Nulla lacinia tempus ex, sit amet pulvinar est. Nulla ut turpis</tspan><tspan y="48.043" x="0 10.503 21.025 30.772 37.528 47.292 53.31 60.066 69.813 75.073 79.577 88.586 97.594 107.358 112.601 122.366 129.122 133.626 142.634 153.155 163.659 173.424 177.928 188.431 198.196 203.439 213.203 219.959 224.463 228.968 239.489 244.732 249.236 259.757 269.504 280.025 284.529 295.033 305.536 314.562 319.066 324.309 328.813 339.335 349.081 355.837 365.602 370.863 375.367 386.627 396.374 406.895 416.66 426.407 436.928 441.432 450.44 460.187">pharetra, scelerisque dolor id, dapibus libero. Aenean sed</tspan><tspan y="72.065" x="0 5.261 15.007 24.016 34.537 43.545 48.049 52.553 68.281 78.821 88.586 95.342 105.845 110.349 120.114 126.113 131.374 135.878 146.399 153.155 162.902 168.92 173.424 183.927 199.655 204.195 208.699 219.221 228.229 234.228 243.993 248.497 257.505 262.009 268.009 277.773 287.52 292.781 297.285 306.293 316.058 326.561 337.083 341.587 357.315 367.098 377.619 383.618 394.14 409.868 414.408 424.911 429.415 438.424 442.928">lacus imperdiet, pretium justo vitae, condimentum nisi.</tspan></text></g></g></g></g><g transform="translate(0,-0.937)"><g><g clip-path="url(#clipPath188)"><g><g><g><g clip-path="url(#clipPath200)"><g><g><g><g clip-path="url(#clipPath212)"><g><path style="fill:#0000ee;fill-opacity:1;fill-rule:nonzero;stroke:none" d="m 32.02,36.219 h 111.852 v -1.5 H 32.02 Z"/></g></g></g></g></g></g></g></g></g></g></g></g><g transform="translate(0,-0.937)"><g><g clip-path="url(#clipPath226)"><g><text style="font-variant:normal;font-weight:normal;font-size:18.016px;font-family:'IBM Plex Sans';-inkscape-font-specification:IBMPlexSans;writing-mode:lr-tb;fill:#0000ee;fill-opacity:1;fill-rule:nonzero;stroke:none" transform="matrix(1,0,0,-1,32.021,37.72)"><tspan x="0 12.017 18.773 28.52 33.024 39.041 43.545 54.049 63.813 68.317 77.325 87.09 97.594 102.098">Droit de copie</tspan></text></g></g></g></g></g></g></svg>
