<?xml version="1.0" encoding="utf-8"?>
<svg xmlns:dc="http://purl.org/dc/elements/1.1/" xmlns:cc="http://creativecommons.org/ns#" xmlns:rdf="http://www.w3.org/1999/02/22-rdf-syntax-ns#" xmlns:svg="http://www.w3.org/2000/svg" xmlns="http://www.w3.org/2000/svg" viewBox="0 0 742.66656 370.3324" height="370.332" width="742.667" xml:space="preserve" version="1.1"><defs><clipPath id="clipPath22" clipPathUnits="userSpaceOnUse"><path d="M 0,0 H 557 V 278 H 0 Z"/></clipPath><clipPath id="clipPath100" clipPathUnits="userSpaceOnUse"><path d="M 0,0 H 557 V 278 H 0 Z"/></clipPath><clipPath id="clipPath112" clipPathUnits="userSpaceOnUse"><path d="M 0,0 H 557 V 278 H 0 Z"/></clipPath><clipPath id="clipPath124" clipPathUnits="userSpaceOnUse"><path d="m 115,165 h 54 v 2 h -54 z"/></clipPath><clipPath id="clipPath138" clipPathUnits="userSpaceOnUse"><path d="m 29,102 h 472 v 80 H 29 Z"/></clipPath><clipPath id="clipPath170" clipPathUnits="userSpaceOnUse"><path d="M 0,0 H 557 V 278 H 0 Z"/></clipPath><clipPath id="clipPath182" clipPathUnits="userSpaceOnUse"><path d="M 0,0 H 557 V 278 H 0 Z"/></clipPath><clipPath id="clipPath194" clipPathUnits="userSpaceOnUse"><path d="m 28,31 h 112 v 2 H 28 Z"/></clipPath><clipPath id="clipPath208" clipPathUnits="userSpaceOnUse"><path d="M 29,30 H 140 V 48 H 29 Z"/></clipPath></defs><g transform="matrix(1.333,0,0,-1.333,0,370.332)"><g><g transform="translate(0,-0.251)"><g><g clip-path="url(#clipPath22)"><g><path style="fill:#d3d3d3;fill-opacity:1;fill-rule:nonzero;stroke:none" d="m 0,278 h 557 v -3.754 H 0 Z"/><path style="fill:#7f7f7f;fill-opacity:1;fill-rule:nonzero;stroke:none" d="M 0,4.004 H 557 V 0.25 H 0 Z"/><path style="fill:#7f7f7f;fill-opacity:1;fill-rule:nonzero;stroke:none" d="M 553.246,274.246 V 0.25 H 557 V 278"/><path style="fill:#d3d3d3;fill-opacity:1;fill-rule:nonzero;stroke:none" d="M 0,278 V 0.25 L 3.754,4.004 V 278"/><path style="fill:#00008b;fill-opacity:1;fill-rule:nonzero;stroke:none" d="M 3.754,274.246 H 553.246 V 235.961 H 3.754 Z"/><path style="fill:#d3d3d3;fill-opacity:1;fill-rule:nonzero;stroke:none" d="M 3.754,235.961 H 553.246 V 193.176 H 3.754 Z"/><path style="fill:#ffd6b8;fill-opacity:1;fill-rule:nonzero;stroke:none" d="M 3.754,193.176 H 553.246 V 157.141 H 3.754 Z"/><path style="fill:#ffd6b8;fill-opacity:1;fill-rule:nonzero;stroke:none" d="M 3.754,76.82 H 553.246 V 4.754 H 3.754 Z"/><path style="fill:#d3d3d3;fill-opacity:1;fill-rule:nonzero;stroke:none" d="m 518.715,269.742 h 30.027 v -30.027 h -30.027 z"/><path style="fill:#ffffff;fill-opacity:1;fill-rule:nonzero;stroke:none" d="m 518.715,269.742 h 30.027 v -3.754 h -30.027 z"/><path style="fill:#ababab;fill-opacity:1;fill-rule:nonzero;stroke:none" d="m 518.715,243.469 h 30.027 v -3.754 h -30.027 z"/><path style="fill:#ababab;fill-opacity:1;fill-rule:nonzero;stroke:none" d="m 544.988,265.988 v -26.273 h 3.754 v 30.027"/><path style="fill:#ffffff;fill-opacity:1;fill-rule:nonzero;stroke:none" d="m 518.715,269.742 v -30.027 l 3.754,3.754 v 26.273"/><text style="font-variant:normal;font-weight:normal;font-size:18.016px;font-family:'DejaVu Sans';-inkscape-font-specification:DejaVuSans;writing-mode:lr-tb;fill:#000000;fill-opacity:1;fill-rule:nonzero;stroke:none" transform="matrix(1,0,0,-1,526.48,248.724)"><tspan>✕</tspan></text><text style="font-variant:normal;font-weight:600;font-size:18.016px;font-family:'IBM Plex Sans SemiBold';-inkscape-font-specification:IBMPlexSans-SemiBold;writing-mode:lr-tb;fill:#ffffff;fill-opacity:1;fill-rule:nonzero;stroke:none" transform="matrix(1,0,0,-1,7.999,247.973)"><tspan x="0 12.755 19.512 30.033 35.276 42.014 46.554 57.057 66.822 71.326 80.334 90.838 101.341 106.602 116.366 120.87 127.645 132.131 144.886 157.66 170.415 183.17 187.674 198.935 206.447 216.969">Droit de copie | GOOD SITE</tspan></text><text style="font-variant:normal;font-weight:normal;font-size:22.52px;font-family:'IBM Plex Sans';-inkscape-font-specification:IBMPlexSans;writing-mode:lr-tb;fill:#000000;fill-opacity:1;fill-rule:nonzero;stroke:none" transform="matrix(1,0,0,-1,11.999,205.935)"><tspan>←</tspan></text><text style="font-variant:normal;font-weight:normal;font-size:22.52px;font-family:'IBM Plex Sans';-inkscape-font-specification:IBMPlexSans;writing-mode:lr-tb;fill:#000000;fill-opacity:1;fill-rule:nonzero;stroke:none" transform="matrix(1,0,0,-1,41.275,205.935)"><tspan>→</tspan></text><text style="font-variant:normal;font-weight:normal;font-size:22.52px;font-family:'DejaVu Sans';-inkscape-font-specification:DejaVuSans;writing-mode:lr-tb;fill:#000000;fill-opacity:1;fill-rule:nonzero;stroke:none" transform="matrix(1,0,0,-1,70.552,205.935)"><tspan>⟳</tspan></text><path style="fill:#ffffff;fill-opacity:1;fill-rule:nonzero;stroke:none" d="m 101.09,203.184 v 22.769 c 0,0.465 0.086,0.91 0.265,1.34 0.18,0.43 0.43,0.809 0.762,1.141 0.328,0.328 0.707,0.582 1.137,0.757 0.43,0.18 0.875,0.266 1.34,0.266 h 407.867 c 0.465,0 0.91,-0.086 1.34,-0.266 0.429,-0.175 0.808,-0.429 1.137,-0.757 0.328,-0.332 0.582,-0.711 0.761,-1.141 0.176,-0.43 0.266,-0.875 0.266,-1.34 v -22.769 c 0,-0.465 -0.09,-0.914 -0.266,-1.344 -0.179,-0.43 -0.433,-0.809 -0.761,-1.137 -0.329,-0.328 -0.708,-0.582 -1.137,-0.758 -0.43,-0.179 -0.875,-0.265 -1.34,-0.265 H 104.594 c -0.465,0 -0.91,0.086 -1.34,0.265 -0.43,0.176 -0.809,0.43 -1.137,0.758 -0.332,0.328 -0.582,0.707 -0.762,1.137 -0.179,0.43 -0.265,0.879 -0.265,1.344 z"/><g transform="matrix(1,0,0,-1,0,278)"><path style="fill:none;stroke:#808080;stroke-width:0.751;stroke-linecap:butt;stroke-linejoin:miter;stroke-miterlimit:10;stroke-dasharray:none;stroke-opacity:1" d="M 100.965,74.816 V 52.047 c 0,-0.481 0.094,-0.945 0.277,-1.387 0.184,-0.445 0.446,-0.84 0.785,-1.18 0.34,-0.339 0.735,-0.601 1.18,-0.785 0.441,-0.183 0.906,-0.277 1.387,-0.277 h 407.867 c 0.48,0 0.941,0.094 1.387,0.277 0.445,0.184 0.836,0.446 1.179,0.785 0.34,0.34 0.602,0.735 0.785,1.18 0.184,0.442 0.278,0.906 0.278,1.387 v 22.769 c 0,0.481 -0.094,0.946 -0.278,1.391 -0.183,0.441 -0.445,0.836 -0.785,1.176 -0.343,0.34 -0.734,0.601 -1.179,0.785 -0.446,0.184 -0.907,0.277 -1.387,0.277 H 104.594 c -0.481,0 -0.946,-0.093 -1.387,-0.277 -0.445,-0.184 -0.84,-0.445 -1.18,-0.785 -0.339,-0.34 -0.601,-0.735 -0.785,-1.176 -0.183,-0.445 -0.277,-0.91 -0.277,-1.391 z"/></g><text style="font-variant:normal;font-weight:normal;font-size:16.215px;font-family:'IBM Plex Sans';-inkscape-font-specification:IBMPlexSans;writing-mode:lr-tb;fill:#000000;fill-opacity:1;fill-rule:nonzero;stroke:none" transform="matrix(1,0,0,-1,109.575,208.187)"><tspan x="0 9.761 15.761 21.776 31.537 39.791 44.298 48.044 54.059 63.058 71.279 80.327 94.596 104.357 108.848 117.864 122.371 130.624 139.64 153.892 159.908 168.161 177.176 186.938 195.191 201.19 205.698 214.713 224.474">https://example.com/copyright</tspan></text><text style="font-variant:normal;font-weight:normal;font-size:22.52px;font-family:'DejaVu Sans';-inkscape-font-specification:DejaVuSans;writing-mode:lr-tb;fill:#000000;fill-opacity:1;fill-rule:nonzero;stroke:none" transform="matrix(1,0,0,-1,524.733,205.935)"><tspan>☰</tspan></text><path style="fill:#0000ee;fill-opacity:1;fill-rule:nonzero;stroke:none" d="m 28.02,166.898 h 51.047 v -1.5 H 28.02 Z"/><text style="font-variant:normal;font-weight:normal;font-size:18.016px;font-family:'IBM Plex Sans';-inkscape-font-specification:IBMPlexSans;writing-mode:lr-tb;fill:#0000ee;fill-opacity:1;fill-rule:nonzero;stroke:none" transform="matrix(1,0,0,-1,28.021,168.402)"><tspan x="0 9.026 18.773 25.529 35.276">Lorem</tspan></text></g></g></g></g><g transform="translate(0,-0.251)"><g><g clip-path="url(#clipPath100)"><g><g><g><g clip-path="url(#clipPath112)"><g><g><g><g clip-path="url(#clipPath124)"><g><path style="fill:#0000ee;fill-opacity:1;fill-rule:nonzero;stroke:none" d="m 115.098,166.898 h 53.301 v -1.5 h -53.301 z"/></g></g></g></g></g></g></g></g></g></g></g></g><g transform="translate(0,-0.251)"><g><g clip-path="url(#clipPath138)"><g><text style="font-variant:normal;font-weight:normal;font-size:18.016px;font-family:'IBM Plex Sans';-inkscape-font-specification:IBMPlexSans;writing-mode:lr-tb;fill:#0000ee;fill-opacity:1;fill-rule:nonzero;stroke:none" transform="matrix(1,0,0,-1,115.099,168.402)"><tspan x="0 7.513 18.016 27.024 37.528">Ipsum</tspan></text><path style="fill:#0000ee;fill-opacity:1;fill-rule:nonzero;stroke:none" d="m 204.43,166.898 h 43.539 v -1.5 H 204.43 Z"/><text style="font-variant:normal;font-weight:normal;font-size:18.016px;font-family:'IBM Plex Sans';-inkscape-font-specification:IBMPlexSans;writing-mode:lr-tb;fill:#0000ee;fill-opacity:1;fill-rule:nonzero;stroke:none" transform="matrix(1,0,0,-1,204.43,168.402)"><tspan x="0 12.017 21.764 27.024 36.789">Dolor</tspan></text><path style="fill:#0000ee;fill-opacity:1;fill-rule:nonzero;stroke:none" d="m 284,166.898 h 21.02 v -1.5 H 284 Z"/><text style="font-variant:normal;font-weight:normal;font-size:18.016px;font-family:'IBM Plex Sans';-inkscape-font-specification:IBMPlexSans;writing-mode:lr-tb;fill:#0000ee;fill-opacity:1;fill-rule:nonzero;stroke:none" transform="matrix(1,0,0,-1,284.001,168.402)"><tspan x="0 10.467 14.971">Sit</tspan></text><text style="font-variant:normal;font-weight:normal;font-size:25.215px;font-family:'IBM Plex Sans';-inkscape-font-specification:IBMPlexSans;writing-mode:lr-tb;fill:#000000;fill-opacity:1;fill-rule:nonzero;stroke:none" transform="matrix(1,0,0,-1,28.021,107.597)"><tspan x="0 19.567 25.518 40.546 55.549 70.577 85.58 91.531 109.61 123.882 138.128 153.157 159.107 174.161 180.919 189.946 203.436 210.193 216.22 225.222 239.493 254.496 263.498 277.77 292.773 307.095 319.778 328.831 335.563 349.835 364.157 370.108 376.865 391.188 400.139 414.411 423.413 438.416 445.173 454.2 467.69">© 2020 Good Site, reproduction interdite.</tspan></text></g></g></g></g><g transform="translate(0,-0.251)"><g><g clip-path="url(#clipPath170)"><g><g><g><g clip-path="url(#clipPath182)"><g><g><g><g clip-path="url(#clipPath194)"><g><path style="fill:#0000ee;fill-opacity:1;fill-rule:nonzero;stroke:none" d="M 28.02,32.531 H 139.872 V 31.027 H 28.02 Z"/></g></g></g></g></g></g></g></g></g></g></g></g><g transform="translate(0,-0.251)"><g><g clip-path="url(#clipPath208)"><g><text style="font-variant:normal;font-weight:normal;font-size:18.016px;font-family:'IBM Plex Sans';-inkscape-font-specification:IBMPlexSans;writing-mode:lr-tb;fill:#0000ee;fill-opacity:1;fill-rule:nonzero;stroke:none" transform="matrix(1,0,0,-1,28.021,34.031)"><tspan x="0 12.017 18.773 28.52 33.024 39.041 43.545 54.049 63.813 68.317 77.325 87.09 97.594 102.098">Droit de copie</tspan></text></g></g></g></g></g></g></svg>
