<?xml version="1.0" encoding="UTF-8" standalone="no"?>
<svg
   xmlns:dc="http://purl.org/dc/elements/1.1/"
   xmlns:cc="http://creativecommons.org/ns#"
   xmlns:rdf="http://www.w3.org/1999/02/22-rdf-syntax-ns#"
   xmlns:svg="http://www.w3.org/2000/svg"
   xmlns="http://www.w3.org/2000/svg"
   xmlns:sodipodi="http://sodipodi.sourceforge.net/DTD/sodipodi-0.dtd"
   xmlns:inkscape="http://www.inkscape.org/namespaces/inkscape"
   sodipodi:docname="video.svg"
   inkscape:version="1.0 (4035a4f, 2020-05-01)"
   id="svg8"
   version="1.1"
   viewBox="0 0 120 67.5"
   height="67.5mm"
   width="120mm">
  <defs
     id="defs2">
    <inkscape:path-effect
       hide_knots="false"
       only_selected="false"
       apply_with_radius="true"
       apply_no_radius="true"
       use_knot_distance="true"
       flexible="false"
       chamfer_steps="1"
       radius="14"
       mode="F"
       method="auto"
       unit="px"
       satellites_param="F,0,0,1,0,3.7041667,0,1 @ F,0,0,1,0,3.7041667,0,1 @ F,0,0,1,0,3.7041667,0,1"
       lpeversion="1"
       is_visible="true"
       id="path-effect1318"
       effect="fillet_chamfer" />
  </defs>
  <sodipodi:namedview
     inkscape:window-maximized="0"
     inkscape:window-y="905"
     inkscape:window-x="793"
     inkscape:window-height="1158"
     inkscape:window-width="2464"
     borderlayer="true"
     width="120mm"
     units="mm"
     showgrid="false"
     inkscape:document-rotation="0"
     inkscape:current-layer="layer1"
     inkscape:document-units="mm"
     inkscape:cy="247.76087"
     inkscape:cx="117.02729"
     inkscape:zoom="1.2295147"
     inkscape:pageshadow="2"
     inkscape:pageopacity="0.0"
     borderopacity="1.0"
     bordercolor="#666666"
     pagecolor="#ffffff"
     id="base" />
  <metadata
     id="metadata5">
    <rdf:RDF>
      <cc:Work
         rdf:about="">
        <dc:format>image/svg+xml</dc:format>
        <dc:type
           rdf:resource="http://purl.org/dc/dcmitype/StillImage" />
        <dc:title></dc:title>
      </cc:Work>
    </rdf:RDF>
  </metadata>
  <g
     id="layer1"
     inkscape:groupmode="layer"
     inkscape:label="Layer 1">
    <rect
       y="0"
       x="0"
       height="67.5"
       width="120"
       id="rect1041"
       style="fill:#d6e7d8;fill-opacity:1;stroke-width:0.500062;stop-color:#000000" />
    <path
       d="M 67.3654,46.300441 C 66.140445,32.611663 0.41641083,6.1908804 -11.785024,19.15662 -23.986466,32.12236 -12.256293,56.455663 13.313413,62.686802 38.883118,68.917941 68.590354,59.989219 67.3654,46.300441 Z"
       id="Background-Shape"
       fill="#f2f2f2"
       style="opacity:0.345889;fill-rule:evenodd;stroke:none;stroke-width:0.177664" />
    <g
       transform="translate(-32.149884,77.44106)"
       id="g1261">
      <circle
         style="fill-rule:evenodd;stroke:none;stroke-width:0.264583"
         r="14.022917"
         cy="-55.58147"
         cx="88.63559"
         fill="#f2f2f2"
         id="Clock-Frame" />
      <circle
         style="fill-rule:evenodd;stroke:none;stroke-width:0.264583"
         r="0.79374999"
         cy="-66.69397"
         cx="88.63559"
         fill="#000000"
         fill-opacity="0.1"
         id="Time" />
      <circle
         style="fill-rule:evenodd;stroke:none;stroke-width:0.264583"
         r="0.79374999"
         cy="-55.58147"
         cx="77.523087"
         fill="#000000"
         fill-opacity="0.1"
         id="circle881" />
      <circle
         style="fill-rule:evenodd;stroke:none;stroke-width:0.264583"
         r="0.79374999"
         cy="-55.58147"
         cx="99.748085"
         fill="#000000"
         fill-opacity="0.1"
         id="circle883" />
      <circle
         style="fill-rule:evenodd;stroke:none;stroke-width:0.264583"
         r="0.79374999"
         cy="-44.468971"
         cx="88.63559"
         fill="#000000"
         fill-opacity="0.1"
         id="circle885" />
      <polygon
         style="fill-rule:evenodd;stroke:none;stroke-width:1"
         points="55,52 51,52 53,17 "
         fill="#afb9c5"
         id="Hand"
         transform="matrix(0.26458333,0,0,0.26458333,74.612672,-69.604389)" />
      <polygon
         style="fill-rule:evenodd;stroke:none;stroke-width:1"
         points="64.213203,74.213203 60.213203,74.213203 62.213203,50.213203 "
         transform="matrix(-0.18708867,0.18708867,-0.18708867,-0.18708867,114.35202,-53.143813)"
         fill="#afb9c5"
         id="polygon888" />
      <circle
         style="fill-rule:evenodd;stroke:none;stroke-width:0.264583"
         r="1.0583333"
         cy="-55.58147"
         cx="88.63559"
         fill="#c5cfd6"
         id="circle890" />
    </g>
    <g
       transform="translate(0,-0.121265)"
       id="g1296">
      <path
         style="fill:none;fill-rule:evenodd"
         stroke-width="2.11667"
         stroke="#cbcbcb"
         id="Body"
         d="M 94.787704,10.748788 99.700389,5.83284 c 0.826441,-0.82678 2.166641,-0.827057 2.993421,-6.09e-4 2.1e-4,2.06e-4 4.2e-4,4.24e-4 6.1e-4,6.09e-4 l 13.07899,13.085611 c 0.79352,0.793854 1.23929,1.870354 1.23929,2.992801 v 45.710013"
         sodipodi:nodetypes="ccsccsc" />
      <g
         style="fill:none;fill-rule:evenodd;stroke:none;stroke-width:1"
         transform="matrix(0.18708867,0.18708867,-0.18708867,0.18708867,91.821822,1.426022)"
         id="Lamp-Top">
        <path
           fill="#c5cfd6"
           id="Lamp"
           d="m 33.030312,1.3839016 v 0 c 18.225397,0 33,14.7746034 33,33.0000004 v 28 H 0.03031192 v -28 c 0,-18.225397 14.77460308,-33.0000004 33.00000008,-33.0000004 z" />
        <ellipse
           ry="6.5"
           rx="33"
           cy="61.4454"
           cx="33.208927"
           fill="#f2f2f2"
           id="ellipse916" />
      </g>
    </g>
    <g
       transform="matrix(0.49253034,0,0,0.49253034,-12.361319,16.276845)"
       id="Head/Front/Rad"
       stroke="none"
       stroke-width="1"
       fill="none"
       fill-rule="evenodd">
      <g
         id="Head"
         transform="translate(54,31)"
         fill="#b28b67">
        <path
           d="M 8.2622739,34.490127 C 3.6543643,29.081376 0.53563479,22.452877 1.0567763,15.025454 2.5583302,-6.3750206 32.348531,-1.6671889 38.143341,9.1339329 43.938152,19.935055 43.249578,47.332996 35.760301,49.263458 32.773588,50.033323 26.411001,48.147461 19.935372,44.244306 L 24,73 H 0 Z"
           id="path837" />
      </g>
      <path
         d="m 95.406618,38.901701 c 0.775178,-0.768184 1.198019,-1.864637 1.563794,-2.905764 0.379857,-1.081528 0.748946,-2.174199 1.001141,-3.299907 0.50393,-2.249226 0.508716,-4.835876 -1.095852,-6.582399 -1.28684,-1.400542 -3.217697,-2.028722 -4.999723,-2.165244 -1.18725,-0.09105 -2.406622,0.07523 -3.544722,0.449368 -1.129171,0.371156 -2.102516,1.110881 -3.197171,1.57 -0.04179,-2.423858 -0.456989,-4.960058 -1.68667,-7.029677 -1.183293,-1.991307 -3.069878,-3.108756 -5.218415,-3.404387 -2.205234,-0.303393 -4.382857,0.212643 -6.357066,1.28024 -0.494266,0.267371 -0.983929,0.54748 -1.452515,0.864505 -0.392375,0.265481 -0.800305,0.585193 -1.260699,0.693156 -0.513227,0.120502 -0.767631,-0.175926 -1.101191,-0.550365 -0.391087,-0.43902 -0.831692,-0.825699 -1.297977,-1.168495 -2.061741,-1.515472 -4.766856,-2.138576 -7.155438,-1.230189 -1.100547,0.418521 -2.170719,1.12929 -2.917364,2.108724 -0.665556,0.873063 -1.140309,2.257983 -2.058888,2.866261 -0.389798,0.258217 -0.665096,-0.08388 -1.02001,-0.336727 -0.533107,-0.379913 -1.041547,-0.799131 -1.581097,-1.168695 -0.757874,-0.51922 -1.578429,-0.907591 -2.457154,-1.110881 -1.286379,-0.297621 -3.064079,-0.227868 -3.431879,1.456962 -0.138063,0.632856 -0.03221,1.309694 0.01243,1.947326 0.06121,0.87555 0.125085,1.750802 0.201112,2.625059 0.05771,0.663802 0.130699,1.304917 0.255968,1.956779 0.06682,0.347474 0.275942,0.995256 0.126926,1.343227 -0.186201,0.434939 -1.045597,0.187668 -1.412753,0.202793 -0.725199,0.02995 -1.453435,0.157119 -2.123961,0.46698 -0.519669,0.240206 -1.066031,0.593451 -1.285367,1.189092 -0.134842,0.365883 -0.09931,0.741716 -0.03562,1.118146 0.0764,0.451755 -0.01095,0.691365 -0.06802,1.1472 -0.973989,-0.479617 -4.34917,-1.545223 -4.773852,0.200305 -0.141376,0.581213 0.180587,1.23795 0.426247,1.728115 0.430849,0.859729 0.99571,1.645525 1.573182,2.394903 1.204554,1.563333 2.642619,2.911735 4.189845,4.064906 -1.812768,0.805896 -2.285956,3.182987 -0.716455,4.599251 0.692984,0.625294 1.624725,0.764502 2.498849,0.724501 0.319938,-0.01463 0.78116,-0.137617 1.032895,-0.08189 0.135486,0.02995 0.280544,0.14478 0.468218,0.157617 1.233639,0.08448 2.626235,-0.212744 3.832169,-0.486484 2.148813,-0.487776 4.183126,-1.505819 5.844392,-3.056316 0.426155,-0.397724 0.778216,-0.626687 1.351821,-0.620816 0.502642,0.0051 0.995803,0.14289 1.497984,0.155627 1.328719,0.03393 2.526738,-0.615642 3.760561,-1.047994 0.07557,1.66682 0.550227,3.5026 1.232075,5.00215 0.556025,1.222825 1.717135,1.400542 2.858088,1.507809 3.648546,0.343295 7.309977,-0.0398 10.963125,-0.03473 -3.536346,0.799329 -7.190598,1.128792 -10.695559,2.069419 -1.584319,0.425088 -0.374518,1.492884 0.302911,2.233106 1.115457,1.218945 1.944848,2.729242 2.52011,4.320337 1.72993,-2.254997 4.787658,-3.740816 7.496639,-3.048057 2.993206,0.765298 5.100876,4.813089 3.186862,7.723132 -1.111223,1.689308 -3.117923,2.341468 -4.787657,3.067262 1.302578,1.354273 1.617638,3.354436 2.401652,5.039266 0.386669,0.830872 0.92944,1.770305 1.794175,2.059867 0.319938,0.107167 0.695102,0.116322 0.947481,0.377126 0.312666,0.322896 0.387128,0.683903 0.786407,0.961424 1.593247,1.107697 4.081971,1.022321 5.494172,-0.423198 1.277083,-1.307305 0.944811,-3.376028 -0.121772,-4.701443 1.697807,-0.707685 4.790972,-1.617863 4.116211,-4.262923 3.67892,-0.244286 12.611227,-6.210845 7.673544,-10.570785 2.709803,-1.531492 5.199363,-5.274298 3.458753,-8.573607 -1.34032,-2.540579 -4.457409,-3.676237 -7.014889,-3.810968"
         id="hair"
         fill="#191847"
         transform="matrix(-1,0,0,1,140,0)" />
    </g>
    <g
       transform="matrix(-0.49253034,0,0,0.49253034,131.17224,16.276845)"
       id="Head/Front/Top"
       stroke="none"
       stroke-width="1"
       fill="none"
       fill-rule="evenodd">
      <g
         id="Head-6"
         transform="translate(54,31)"
         fill="#b28b67">
        <path
           d="M 8.2622739,34.490127 C 3.6543643,29.081376 0.53563479,22.452877 1.0567763,15.025454 2.5583302,-6.3750206 32.348531,-1.6671889 38.143341,9.1339329 43.938152,19.935055 43.249578,47.332996 35.760301,49.263458 32.773588,50.033323 26.411001,48.147461 19.935372,44.244306 L 24,73 H 0 Z"
           id="path858" />
      </g>
      <path
         d="m 66.998508,30.786555 c 12.056556,-4.176813 27.7024,0.704128 25.608636,10.494105 -1.344477,6.286477 -8.625165,9.426462 -15.788065,12.786778 C 75.764767,52.236909 73.753936,51 71.446668,51 c -3.400209,0 -6.156624,2.686292 -6.156624,6 0,1.193608 0.357635,2.305811 0.974171,3.240388 -2.409596,2.096093 -4.10979,4.619109 -4.520976,7.891385 -3.88376,0 -10.160999,-11.403166 -8.088634,-22.221995 C 53.111272,45.969399 52.55921,46 52,46 43.715729,46 37,39.284271 37,31 c 0,-8.284271 6.715729,-15 15,-15 8.213005,0 14.884339,6.600681 14.998512,14.786554 z"
         id="Hair"
         fill="#191847" />
    </g>
    <g
       id="Light"
       transform="matrix(0.26458333,0,0,0.26458333,8.32099,4.20433)"
       style="fill:none;fill-rule:evenodd;stroke:none;stroke-width:1">
      <ellipse
         id="Hanging-Lamp-Light"
         fill="#f2f2f2"
         cx="49.5"
         cy="34.5"
         rx="42.5"
         ry="22.5" />
      <path
         d="M 99,50 C 99,22.385762 76.838095,0 49.5,0 22.161905,0 0,22.385762 0,50"
         id="Hanging-Lamp"
         fill="#dde3e9" />
    </g>
    <rect
       id="Wire"
       fill="#dde3e9"
       x="20.756409"
       y="0"
       width="1.322916"
       height="6.3376584"
       style="fill-rule:evenodd;stroke:none;stroke-width:0.264583" />
    <ellipse
       ry="8.5088205"
       rx="14.703865"
       cy="11.712805"
       cx="41.482422"
       id="path1043"
       style="fill:#ffffff;fill-opacity:1;stroke:#000000;stroke-width:1;stroke-miterlimit:4;stroke-dasharray:none;stroke-opacity:1;stop-color:#000000" />
    <ellipse
       style="fill:#ffffff;fill-opacity:1;stroke:#000000;stroke-width:1;stroke-miterlimit:4;stroke-dasharray:none;stroke-opacity:1;stop-color:#000000"
       id="ellipse1045"
       cx="59.064602"
       cy="57.519333"
       rx="17.772755"
       ry="8.9153681" />
    <g
       transform="translate(3.4145387,-0.90592912)"
       style="font-style:normal;font-variant:normal;font-weight:normal;font-stretch:normal;font-size:4.67346px;line-height:1.2;font-family:'Komika Axis';-inkscape-font-specification:'Komika Axis';text-align:center;letter-spacing:0px;word-spacing:0px;writing-mode:lr-tb;text-anchor:middle;stroke-width:0.438135"
       id="text1049"
       aria-label="Lorem
ipsum ?">
      <path
         id="path1059"
         style="font-style:normal;font-variant:normal;font-weight:normal;font-stretch:normal;font-family:'Komika Axis';-inkscape-font-specification:'Komika Axis';text-align:center;text-anchor:middle;stroke-width:0.438135"
         d="m 32.090568,11.123269 q 0.144877,-0.02804 0.158897,-0.06076 0.01869,-0.03271 -0.01402,-0.130857 -0.01869,-0.07945 -0.05608,-0.163571 -0.03271,-0.0888 -0.0888,-0.172918 -0.05608,-0.0888 -0.126184,-0.112164 -0.06543,-0.02804 -0.196285,-0.01869 -0.219653,0.01402 -0.406591,0.03271 -0.186938,0.01869 -0.401918,0.05608 0.07478,-0.322468 0.158898,-0.6729779 0.0888,-0.3551829 0.182265,-0.7103659 0.09814,-0.3551829 0.191612,-0.6916721 0.09814,-0.3364891 0.191612,-0.6168967 0.04206,-0.1215099 0.0093,-0.1869384 Q 31.665234,7.60882 31.543723,7.5200238 31.417539,7.4359018 31.249295,7.3704731 31.08105,7.3003711 30.936173,7.2629835 q -0.144877,-0.042061 -0.219653,-0.01402 -0.0701,0.023367 -0.116836,0.1588976 -0.06543,0.2383465 -0.13553,0.5234275 -0.06543,0.2850811 -0.130857,0.5935294 -0.06543,0.3084484 -0.12151,0.6215702 -0.05608,0.3084484 -0.102816,0.5982029 -0.04673,0.2897539 -0.07945,0.5421209 -0.03271,0.247694 -0.04674,0.429958 -0.01869,0.116837 0.02337,0.200959 0.04206,0.07945 0.12151,0.144878 0.107489,0.08412 0.172918,0.140203 0.06543,0.05141 0.144877,0.102816 0.03271,0.02337 0.06543,0.04206 0.03739,0.01869 0.0888,0.02804 0.05141,0.01402 0.12151,0.0093 0.0701,-0.0047 0.172918,-0.03271 0.280408,-0.05608 0.588856,-0.112163 0.313122,-0.06076 0.60755,-0.116836 z" />
      <path
         id="path1061"
         style="font-style:normal;font-variant:normal;font-weight:normal;font-stretch:normal;font-family:'Komika Axis';-inkscape-font-specification:'Komika Axis';text-align:center;text-anchor:middle;stroke-width:0.438135"
         d="M 35.31175,7.622847 Q 35.152852,7.4966635 34.909833,7.4078678 34.671486,7.3190721 34.405099,7.2770109 34.199467,7.2442967 33.970467,7.3097251 33.746141,7.3751536 33.58257,7.501337 33.33955,7.7116427 33.152612,7.9780299 32.970347,8.2397437 32.844163,8.5341717 32.71798,8.8285996 32.652551,9.1417215 q -0.06543,0.3084483 -0.0701,0.6075498 -0.0047,0.2991017 0.05141,0.5701617 0.05608,0.271061 0.168244,0.48604 0.0701,0.130857 0.191612,0.233673 0.12151,0.102816 0.247693,0.168245 0.154224,0.07945 0.341163,0.116836 0.186938,0.04206 0.36453,0.06076 0.266387,0.02804 0.472019,-0.02337 0.205632,-0.04673 0.392571,-0.191612 0.275734,-0.24302 0.462672,-0.593529 0.191612,-0.35051 0.299102,-0.7430805 0.11216,-0.3972461 0.140201,-0.7944902 Q 35.741708,8.6369878 35.6903,8.2958252 35.652913,8.090193 35.56879,7.9312953 35.489342,7.7677242 35.31175,7.622847 Z m -0.752427,0.467346 q 0.09347,0.028041 0.13553,0.1962853 0.04673,0.1635711 0.04673,0.3972441 0,0.2289995 -0.03739,0.4953867 -0.03739,0.2617138 -0.09814,0.4813664 -0.0701,0.2663872 -0.168245,0.4953865 -0.09347,0.224326 -0.200959,0.378551 -0.107489,0.154224 -0.214979,0.228999 -0.107489,0.07477 -0.205632,0.04206 -0.10749,-0.03271 -0.163571,-0.177591 -0.05608,-0.144878 -0.06543,-0.345836 -0.0093,-0.205633 0.01869,-0.4393055 0.02804,-0.2383465 0.09347,-0.4579991 0.06543,-0.2243261 0.168245,-0.4626726 0.10749,-0.2430199 0.228999,-0.4393052 0.12151,-0.1962853 0.24302,-0.3084484 0.12151,-0.1168365 0.219653,-0.084122 z" />
      <path
         id="path1063"
         style="font-style:normal;font-variant:normal;font-weight:normal;font-stretch:normal;font-family:'Komika Axis';-inkscape-font-specification:'Komika Axis';text-align:center;text-anchor:middle;stroke-width:0.438135"
         d="m 36.869691,10.221291 q 0.12151,0.14955 0.271061,0.299101 0.149551,0.144877 0.299102,0.280408 0.14955,0.13553 0.289754,0.247693 0.140204,0.112163 0.247693,0.186939 0.163572,0.09814 0.285082,0.107489 0.126183,0.01402 0.228999,-0.01402 0.08412,-0.01402 0.140204,-0.02337 0.06076,-0.01402 0.144877,-0.07945 0.0701,-0.05141 0.07945,-0.09814 0.0093,-0.04673 -0.08412,-0.126183 -0.116837,-0.09347 -0.252367,-0.219653 -0.130857,-0.126183 -0.266387,-0.261714 -0.135531,-0.13553 -0.266388,-0.271061 -0.126183,-0.13553 -0.233673,-0.2570398 0.523428,-0.233673 0.897305,-0.5047337 0.37855,-0.2710607 0.542121,-0.5935294 0.10749,-0.2009588 0.04674,-0.5140806 Q 39.16436,8.0855195 39.02883,7.8845607 38.897973,7.6789285 38.734402,7.501337 38.52877,7.3003782 38.253036,7.2583171 q -0.271061,-0.046735 -0.579509,0.00935 -0.303775,0.051408 -0.621571,0.1775915 -0.313121,0.1261834 -0.602876,0.2570403 -0.06076,0.032714 -0.116836,0.1682445 -0.05608,0.1308569 -0.102817,0.3364892 -0.04673,0.2009587 -0.0888,0.457999 -0.04206,0.2523669 -0.07945,0.5234276 -0.03271,0.2710606 -0.06076,0.5421213 -0.03271,0.2710605 -0.05608,0.5094075 -0.02337,0.233673 -0.03739,0.420611 -0.01869,0.186938 -0.02804,0.285081 -0.0093,0.12151 0.02337,0.196285 0.03271,0.0701 0.12151,0.12151 0.0888,0.04673 0.186939,0.06543 0.09814,0.01869 0.224326,0.05141 0.107489,0.02337 0.144877,0 0.04206,-0.02337 0.06543,-0.09814 0.05141,-0.252367 0.102817,-0.51408 0.05608,-0.261714 0.121509,-0.546795 z m 0.500061,-1.897425 q 0.182265,-0.088796 0.345836,-0.12151 0.163571,-0.032714 0.299101,-0.032714 0.275734,0 0.331816,0.1308569 0.02804,0.079449 -0.04673,0.224326 -0.07478,0.1448773 -0.24302,0.3084484 -0.168244,0.1588976 -0.420611,0.3177953 -0.247693,0.1542242 -0.570162,0.2617137 0.0888,-0.3084483 0.158897,-0.579509 0.0701,-0.2710607 0.144878,-0.5094071 z" />
      <path
         id="path1065"
         style="font-style:normal;font-variant:normal;font-weight:normal;font-stretch:normal;font-family:'Komika Axis';-inkscape-font-specification:'Komika Axis';text-align:center;text-anchor:middle;stroke-width:0.438135"
         d="M 39.610968,7.5854593 39.16699,10.69331 q -0.0093,0.126184 0.03739,0.214979 0.04206,0.0888 0.12151,0.154225 0.09814,0.08412 0.168245,0.140203 0.07478,0.05141 0.154224,0.102816 0.0701,0.04673 0.163571,0.0701 0.09814,0.02804 0.285081,-0.01869 0.280408,-0.05141 0.588856,-0.112164 0.308448,-0.06076 0.60755,-0.116836 0.126183,-0.02337 0.149551,-0.05608 0.02337,-0.03739 0,-0.130856 -0.03739,-0.08412 -0.0701,-0.163572 -0.02804,-0.08412 -0.08412,-0.177591 -0.05141,-0.08412 -0.126183,-0.112163 -0.0701,-0.02804 -0.200959,-0.01869 -0.233673,0.01402 -0.434632,0.03739 -0.196285,0.02337 -0.415938,0.06075 0.03739,-0.130857 0.0701,-0.261714 0.03271,-0.13553 0.0701,-0.285081 0.271061,-0.056082 0.560816,-0.1028162 0.294427,-0.046735 0.574835,-0.098143 0.130857,-0.028041 0.158898,-0.065428 0.03271,-0.037388 -0.0047,-0.1448772 -0.02337,-0.093469 -0.05608,-0.182265 -0.02804,-0.093469 -0.08412,-0.1869384 -0.05141,-0.093469 -0.126183,-0.1215099 -0.07478,-0.028041 -0.205632,-0.023367 -0.158898,0.00467 -0.299102,0.01402 -0.140203,0.00935 -0.280407,0.028041 0.07478,-0.2476934 0.13553,-0.4720195 0.06076,-0.2289995 0.130857,-0.4393052 0.331816,-0.046735 0.630917,-0.079449 0.299102,-0.032714 0.579509,-0.065429 0.13553,-0.018694 0.172918,-0.060755 0.03739,-0.042061 0.01869,-0.1635711 -0.02337,-0.1074896 -0.04673,-0.1962854 -0.02337,-0.093469 -0.08412,-0.2056322 -0.07478,-0.2103057 -0.341162,-0.2056322 -0.280408,0.00935 -0.565489,0.046735 -0.280408,0.032714 -0.551468,0.079449 -0.266388,0.046735 -0.514081,0.1028161 -0.24302,0.056082 -0.443979,0.1074896 z" />
      <path
         id="path1067"
         style="font-style:normal;font-variant:normal;font-weight:normal;font-stretch:normal;font-family:'Komika Axis';-inkscape-font-specification:'Komika Axis';text-align:center;text-anchor:middle;stroke-width:0.438135"
         d="m 42.986009,9.0295584 q 0.0701,0.467346 0.154224,0.9066513 0.0888,0.4393053 0.182265,0.7757943 0.02337,0.07945 0.04206,0.130857 0.02337,0.05141 0.05141,0.0888 0.02804,0.03271 0.06543,0.05608 0.03739,0.01869 0.0888,0.03739 0.140203,0.04673 0.327142,0.08412 0.06076,0.01402 0.09814,0.01402 0.03739,-0.0047 0.06076,-0.01869 0.02337,-0.01402 0.03739,-0.04206 0.01869,-0.03271 0.04206,-0.08412 0.07478,-0.163571 0.196286,-0.406591 0.126183,-0.247693 0.27106,-0.523427 0.149551,-0.2757344 0.303775,-0.5608155 0.158898,-0.2850811 0.299102,-0.528101 -0.07945,0.2757342 -0.149551,0.5701621 -0.06543,0.294428 -0.12151,0.5654884 -0.05608,0.266388 -0.09814,0.490714 -0.04206,0.219652 -0.06076,0.359856 -0.02337,0.116837 0.0093,0.186938 0.03739,0.0701 0.144877,0.12151 0.08412,0.04673 0.196286,0.07945 0.112163,0.03271 0.219652,0.05608 0.12151,0.02804 0.163571,-0.0093 0.04206,-0.03739 0.07478,-0.12151 0.03739,-0.163571 0.102816,-0.411265 0.06543,-0.247693 0.144877,-0.542121 0.08412,-0.294428 0.172918,-0.6168967 0.09347,-0.3224688 0.182265,-0.6355906 0.09347,-0.3131218 0.182265,-0.5982029 0.0888,-0.285081 0.158898,-0.5047336 Q 46.5799,7.795765 46.542512,7.7116427 46.509798,7.622847 46.374268,7.5574185 46.168635,7.4639493 45.953656,7.3938474 45.74335,7.3237455 45.551739,7.2723375 45.388168,7.2256029 45.280678,7.2349498 45.177862,7.2442967 45.09374,7.3190721 45.009617,7.389174 44.930168,7.5293778 44.85072,7.6649081 44.74323,7.8798873 44.63574,8.0668257 44.518904,8.2771314 44.406741,8.4874371 44.299251,8.6977428 44.191762,8.9080485 44.088946,9.1090072 43.990803,9.309966 43.916028,9.4782106 43.841252,8.9968442 43.799191,8.7211101 43.75713,8.4453759 43.733763,8.2958252 43.715069,8.1462745 43.705722,8.090193 q -0.0047,-0.060755 -0.0047,-0.1028162 -0.01869,-0.088796 -0.03739,-0.1588976 -0.01402,-0.070102 -0.05141,-0.1261834 -0.03739,-0.060755 -0.102816,-0.1074896 -0.06543,-0.051408 -0.177592,-0.093469 -0.177591,-0.065428 -0.355183,-0.112163 -0.172918,-0.046735 -0.425285,-0.084122 -0.163571,-0.023367 -0.24302,0.018694 -0.07478,0.037388 -0.116836,0.1962853 -0.04206,0.2196527 -0.08412,0.5094072 -0.04673,0.285081 -0.0888,0.6075498 -0.04673,0.3224687 -0.08412,0.6542844 -0.03739,0.3318156 -0.06543,0.640264 -0.03271,0.3084491 -0.04673,0.5748361 -0.01869,0.261714 -0.01869,0.443978 -0.0093,0.12151 0.03271,0.186939 0.04206,0.06543 0.158898,0.12151 0.09347,0.04673 0.200958,0.07945 0.112163,0.03739 0.219653,0.06076 0.112163,0.02337 0.154224,-0.0047 0.04206,-0.02337 0.06076,-0.107489 0.01869,-0.200959 0.05141,-0.457999 0.03739,-0.257041 0.08412,-0.551469 0.04673,-0.294428 0.102817,-0.6122233 0.05608,-0.3177953 0.116836,-0.6355906 z" />
      <path
         id="path1069"
         style="font-style:normal;font-variant:normal;font-weight:normal;font-stretch:normal;font-family:'Komika Axis';-inkscape-font-specification:'Komika Axis';text-align:center;text-anchor:middle;stroke-width:0.438135"
         d="m 29.612466,13.212305 q -0.126184,-0.08412 -0.294428,-0.158897 -0.168245,-0.07478 -0.313122,-0.112163 -0.144877,-0.04206 -0.219653,-0.0093 -0.0701,0.02804 -0.112163,0.163571 -0.05141,0.219652 -0.112163,0.51408 -0.06076,0.289755 -0.12151,0.616897 -0.05608,0.327142 -0.112163,0.668305 -0.05608,0.341163 -0.09814,0.649611 -0.04673,0.308448 -0.07477,0.570162 -0.03271,0.25704 -0.04206,0.420611 -0.01402,0.12151 0.02337,0.191612 0.03271,0.06543 0.140204,0.116837 0.09814,0.05141 0.205632,0.08412 0.112163,0.03271 0.233673,0.06543 0.12151,0.02804 0.158898,0.0047 0.04206,-0.02337 0.06543,-0.102816 0.04206,-0.210306 0.09814,-0.476693 0.06076,-0.271061 0.130857,-0.570162 0.0701,-0.303775 0.144877,-0.616897 0.07477,-0.317795 0.149551,-0.616897 0.07945,-0.303775 0.154224,-0.574835 0.07945,-0.271061 0.144877,-0.481367 0.03271,-0.126183 0.0047,-0.191611 -0.02337,-0.06543 -0.154224,-0.154225 z" />
      <path
         id="path1071"
         style="font-style:normal;font-variant:normal;font-weight:normal;font-stretch:normal;font-family:'Komika Axis';-inkscape-font-specification:'Komika Axis';text-align:center;text-anchor:middle;stroke-width:0.438135"
         d="m 30.727086,15.918239 q 0.280407,-0.07478 0.565488,-0.177592 0.289755,-0.107489 0.551469,-0.238346 0.261713,-0.130857 0.481366,-0.280408 0.224326,-0.149551 0.383224,-0.308448 0.09814,-0.09814 0.177591,-0.200959 0.08412,-0.102816 0.135531,-0.214979 0.05608,-0.112163 0.0701,-0.238347 0.01869,-0.126183 -0.01402,-0.27106 -0.07477,-0.294428 -0.210306,-0.495387 -0.130856,-0.205632 -0.289754,-0.383224 -0.13553,-0.130857 -0.322469,-0.182265 -0.182265,-0.05608 -0.397244,-0.05141 -0.214979,0.0047 -0.448652,0.06076 -0.229,0.05141 -0.457999,0.135531 -0.229,0.07945 -0.443979,0.182264 -0.214979,0.09814 -0.39257,0.191612 -0.04673,0.02337 -0.08412,0.233673 -0.03271,0.205633 -0.06076,0.514081 -0.02804,0.308448 -0.05608,0.672978 -0.02804,0.36453 -0.05608,0.705693 -0.02804,0.336489 -0.06076,0.602876 -0.03739,0.266387 -0.07945,0.37855 -0.02804,0.12151 0.01869,0.196286 0.04206,0.07477 0.130857,0.126183 0.0888,0.04674 0.200959,0.07478 0.116836,0.03271 0.238346,0.06543 0.12151,0.02337 0.163571,0 0.04206,-0.02337 0.06543,-0.09814 0.03739,-0.238346 0.08412,-0.48604 0.05141,-0.247693 0.10749,-0.51408 z m 0.200959,-0.878611 q 0.0701,-0.294428 0.13553,-0.565488 0.0701,-0.271061 0.144877,-0.523428 0.172918,-0.07477 0.336489,-0.112163 0.168245,-0.03739 0.299102,-0.04206 0.13553,-0.0047 0.219652,0.02804 0.0888,0.02804 0.102816,0.08412 0.03739,0.102816 -0.02804,0.252367 -0.06543,0.14955 -0.224326,0.313122 -0.158898,0.158897 -0.406591,0.313121 -0.247694,0.149551 -0.579509,0.252367 z" />
      <path
         id="path1073"
         style="font-style:normal;font-variant:normal;font-weight:normal;font-stretch:normal;font-family:'Komika Axis';-inkscape-font-specification:'Komika Axis';text-align:center;text-anchor:middle;stroke-width:0.438135"
         d="m 32.788008,15.978994 q -0.09814,0.04673 -0.08879,0.13553 0.0093,0.09347 0.214979,0.266387 0.37855,0.355183 0.733733,0.50006 0.359856,0.144878 0.738407,0.135531 0.280407,-0.0047 0.481366,-0.0701 0.200959,-0.06543 0.341163,-0.163571 0.140204,-0.09814 0.224326,-0.210306 0.08412,-0.116836 0.130857,-0.214979 0.07477,-0.140204 0.04673,-0.261714 -0.02337,-0.12151 -0.12151,-0.228999 -0.09347,-0.112163 -0.24302,-0.21498 -0.144877,-0.107489 -0.313121,-0.214979 -0.163572,-0.107489 -0.331816,-0.219652 -0.168245,-0.116837 -0.303775,-0.247694 -0.10749,-0.09814 -0.13553,-0.219652 -0.02804,-0.126184 -0.0047,-0.252367 0.02337,-0.130857 0.0888,-0.25704 0.06543,-0.126184 0.149551,-0.233673 0.08879,-0.112163 0.182265,-0.196286 0.09814,-0.0888 0.177591,-0.130857 0.0888,-0.06543 0.126184,-0.05141 0.04206,0.0093 0.04673,0.0701 0.0093,0.05608 -0.0093,0.154224 -0.01869,0.09814 -0.04673,0.210306 -0.02337,0.10749 -0.05141,0.214979 -0.02337,0.10749 -0.03271,0.191612 -0.05141,0.401918 0.588856,0.616897 0.116837,0.05141 0.172918,0.02804 0.06076,-0.02804 0.116837,-0.12151 0.05141,-0.09814 0.09814,-0.24302 0.05141,-0.144878 0.09347,-0.303775 0.04673,-0.158898 0.07945,-0.313122 0.03272,-0.154224 0.05141,-0.275734 0,-0.0701 -0.0047,-0.149551 0,-0.08412 -0.02337,-0.168244 -0.01869,-0.08412 -0.0701,-0.172918 -0.05141,-0.0888 -0.144877,-0.177592 -0.144878,-0.130857 -0.359857,-0.24302 -0.210306,-0.112163 -0.420611,-0.186938 -0.140204,-0.04206 -0.271061,-0.04673 -0.130857,-0.0093 -0.24302,0.0093 -0.112163,0.01869 -0.200959,0.06076 -0.0888,0.03739 -0.144877,0.07945 -0.172918,0.107489 -0.341162,0.261714 -0.163572,0.14955 -0.303775,0.327142 -0.135531,0.172918 -0.238347,0.359856 -0.09814,0.186939 -0.140204,0.355183 -0.06076,0.191612 -0.05608,0.36453 0.0047,0.172918 0.06076,0.327142 0.05608,0.154224 0.154224,0.289755 0.102816,0.130857 0.233673,0.233673 0.116837,0.09814 0.261714,0.196285 0.144877,0.09347 0.289754,0.182265 0.144878,0.0888 0.271061,0.172918 0.130857,0.08412 0.214979,0.154224 0.0888,0.0701 0.116837,0.126184 0.03271,0.05141 -0.02337,0.0888 -0.130857,0.10749 -0.425285,0.03739 -0.294427,-0.0701 -0.691672,-0.317795 -0.0701,-0.04673 -0.158897,-0.0701 -0.08412,-0.02804 -0.177592,-0.03271 -0.09347,-0.0047 -0.186938,0.0093 -0.09347,0.01402 -0.177592,0.05141 z" />
      <path
         id="path1075"
         style="font-style:normal;font-variant:normal;font-weight:normal;font-stretch:normal;font-family:'Komika Axis';-inkscape-font-specification:'Komika Axis';text-align:center;text-anchor:middle;stroke-width:0.438135"
         d="m 35.963917,16.44634 q 0.07477,0.130857 0.177591,0.219652 0.102816,0.0888 0.219653,0.154224 0.271061,0.149551 0.691672,0.177592 0.210306,0.01402 0.373877,-0.01869 0.163571,-0.02804 0.327142,-0.107489 0.229,-0.130857 0.415938,-0.420612 0.186938,-0.289754 0.345836,-0.719713 0.158898,-0.429958 0.299101,-0.9861 0.144878,-0.560815 0.285081,-1.22912 0.01402,-0.06076 0.01869,-0.102816 0.0047,-0.04673 -0.0093,-0.08412 -0.01402,-0.03739 -0.05141,-0.0701 -0.03271,-0.03739 -0.09814,-0.07945 -0.126184,-0.07478 -0.280408,-0.149551 -0.149551,-0.07945 -0.285081,-0.112163 -0.130857,-0.03739 -0.224326,-0.0093 -0.09347,0.02804 -0.102816,0.168245 -0.05608,0.289755 -0.126184,0.658958 -0.0701,0.369203 -0.158897,0.752427 -0.08412,0.37855 -0.186939,0.738407 -0.09814,0.359856 -0.210305,0.63559 -0.10749,0.271061 -0.229,0.425285 -0.12151,0.154224 -0.247693,0.12151 -0.102816,-0.02804 -0.140204,-0.172918 -0.03271,-0.144877 -0.02337,-0.36453 0.01402,-0.219653 0.06076,-0.495387 0.05141,-0.275734 0.12151,-0.565488 0.0701,-0.289755 0.14955,-0.570162 0.08412,-0.285082 0.158898,-0.528101 0.07945,-0.285081 -0.172918,-0.467346 -0.12151,-0.0888 -0.252367,-0.154225 -0.126183,-0.06543 -0.266387,-0.107489 -0.149551,-0.05141 -0.224326,-0.02337 -0.0701,0.02804 -0.10749,0.163571 -0.08412,0.299101 -0.163571,0.616896 -0.07478,0.313122 -0.13553,0.626244 -0.06076,0.313122 -0.09814,0.616897 -0.03739,0.303775 -0.03739,0.574835 0,0.271061 0.04673,0.500061 0.04206,0.224326 0.140204,0.387897 z" />
      <path
         id="path1077"
         style="font-style:normal;font-variant:normal;font-weight:normal;font-stretch:normal;font-family:'Komika Axis';-inkscape-font-specification:'Komika Axis';text-align:center;text-anchor:middle;stroke-width:0.438135"
         d="m 40.019458,14.637711 q 0.0701,0.467346 0.154224,0.906651 0.0888,0.439305 0.182265,0.775794 0.02337,0.07945 0.04206,0.130857 0.02337,0.05141 0.05141,0.0888 0.02804,0.03271 0.06543,0.05608 0.03739,0.01869 0.0888,0.03739 0.140203,0.04673 0.327142,0.08412 0.06076,0.01402 0.09814,0.01402 0.03739,-0.0047 0.06076,-0.01869 0.02337,-0.01402 0.03739,-0.04206 0.01869,-0.03271 0.04206,-0.08412 0.07478,-0.163571 0.196286,-0.406591 0.126183,-0.247693 0.27106,-0.523427 0.149551,-0.275734 0.303775,-0.560815 0.158898,-0.285081 0.299102,-0.528101 -0.07945,0.275734 -0.149551,0.570162 -0.06543,0.294428 -0.12151,0.565489 -0.05608,0.266387 -0.09814,0.490713 -0.04206,0.219652 -0.06076,0.359856 -0.02337,0.116837 0.0093,0.186939 0.03739,0.0701 0.144877,0.12151 0.08412,0.04673 0.196286,0.07945 0.112163,0.03271 0.219652,0.05608 0.12151,0.02804 0.163571,-0.0093 0.04206,-0.03739 0.07478,-0.12151 0.03739,-0.163571 0.102816,-0.411264 0.06543,-0.247694 0.144877,-0.542122 0.08412,-0.294428 0.172918,-0.616896 0.09347,-0.322469 0.182265,-0.635591 0.09347,-0.313122 0.182265,-0.598203 0.0888,-0.285081 0.158898,-0.504734 0.05141,-0.154224 0.01402,-0.238346 -0.03271,-0.0888 -0.168244,-0.154224 -0.205633,-0.09347 -0.420612,-0.163571 -0.210306,-0.0701 -0.401917,-0.12151 -0.163571,-0.04673 -0.271061,-0.03739 -0.102816,0.0093 -0.186938,0.08412 -0.08412,0.0701 -0.163572,0.210306 -0.07945,0.13553 -0.186938,0.350509 -0.10749,0.186939 -0.224326,0.397245 -0.112163,0.210305 -0.219653,0.420611 -0.107489,0.210306 -0.210305,0.411264 -0.09814,0.200959 -0.172918,0.369204 -0.07478,-0.481367 -0.116837,-0.757101 -0.04206,-0.275734 -0.06543,-0.425285 -0.01869,-0.14955 -0.02804,-0.205632 -0.0047,-0.06076 -0.0047,-0.102816 -0.01869,-0.0888 -0.03739,-0.158898 -0.01402,-0.0701 -0.05141,-0.126183 -0.03739,-0.06075 -0.102816,-0.10749 -0.06543,-0.05141 -0.177592,-0.09347 -0.177591,-0.06543 -0.355183,-0.112163 -0.172918,-0.04673 -0.425285,-0.08412 -0.163571,-0.02337 -0.24302,0.01869 -0.07477,0.03739 -0.116836,0.196285 -0.04206,0.219653 -0.08412,0.509407 -0.04673,0.285081 -0.0888,0.60755 -0.04674,0.322469 -0.08412,0.654284 -0.03739,0.331816 -0.06543,0.640264 -0.03271,0.308449 -0.04673,0.574836 -0.01869,0.261714 -0.01869,0.443979 -0.0093,0.12151 0.03271,0.186938 0.04206,0.06543 0.158898,0.12151 0.09347,0.04673 0.200958,0.07945 0.112163,0.03739 0.219653,0.06076 0.112163,0.02337 0.154224,-0.0047 0.04206,-0.02337 0.06076,-0.107489 0.01869,-0.200959 0.05141,-0.457999 0.03739,-0.257041 0.08412,-0.551469 0.04673,-0.294427 0.102817,-0.612223 0.05608,-0.317795 0.116836,-0.63559 z" />
      <path
         id="path1079"
         style="font-style:normal;font-variant:normal;font-weight:normal;font-stretch:normal;font-family:'Komika Axis';-inkscape-font-specification:'Komika Axis';text-align:center;text-anchor:middle;stroke-width:0.438135"
         d="m 45.749849,15.978994 q 0.09814,0.04206 0.21498,0.0888 0.116836,0.04673 0.214979,0.06543 0.09814,0.01869 0.158897,0 0.06543,-0.02337 0.06076,-0.112163 0.02804,-0.196285 0.10749,-0.336489 0.08412,-0.144878 0.196285,-0.252367 0.116837,-0.10749 0.252367,-0.191612 0.13553,-0.08412 0.271061,-0.163571 0.140204,-0.08412 0.266387,-0.168245 0.130857,-0.08879 0.233673,-0.200958 0.102816,-0.112163 0.186938,-0.266388 0.0888,-0.154224 0.10749,-0.336489 0.02337,-0.186938 -0.04206,-0.397244 -0.06076,-0.210306 -0.247694,-0.439305 -0.08879,-0.116837 -0.224326,-0.219653 -0.130857,-0.107489 -0.303775,-0.177591 -0.168244,-0.0701 -0.369203,-0.09347 -0.200959,-0.02337 -0.420611,0.01869 -0.36453,0.06543 -0.677652,0.294428 -0.308448,0.229 -0.542121,0.584183 -0.07478,0.112163 -0.102816,0.191612 -0.02804,0.07477 -0.01402,0.126183 0.0093,0.05141 0.05141,0.0888 0.03739,0.03271 0.09814,0.05608 0.233673,0.09814 0.476693,0.08412 0.247693,-0.01869 0.411264,-0.154224 0.112163,-0.0888 0.219653,-0.177592 0.112163,-0.09347 0.214979,-0.163571 0.10749,-0.07477 0.210306,-0.12151 0.107489,-0.04673 0.214979,-0.04673 0.07477,0 0.140204,0.04206 0.06543,0.03739 0.07945,0.130856 0.01869,0.135531 -0.10749,0.322469 -0.126183,0.186939 -0.476693,0.397244 -0.13553,0.0888 -0.308448,0.200959 -0.168245,0.112163 -0.317796,0.25704 -0.14955,0.144878 -0.25704,0.331816 -0.107489,0.186938 -0.12151,0.429958 -0.01402,0.12151 0.01402,0.186939 0.02804,0.06543 0.130856,0.12151 z m -0.383223,0.640264 q -0.0093,0.107489 0.02337,0.186938 0.03739,0.07945 0.102816,0.13553 0.0701,0.06076 0.158898,0.09347 0.09347,0.03271 0.196285,0.04673 0.233673,0.03271 0.37855,-0.05141 0.144878,-0.08412 0.182265,-0.214979 0.0093,-0.01402 0.0093,-0.05608 v -0.0701 q 0,-0.05608 -0.01869,-0.10749 -0.01402,-0.05608 -0.05608,-0.10749 -0.04206,-0.05141 -0.116837,-0.09347 -0.0701,-0.04673 -0.182265,-0.07945 -0.14955,-0.04206 -0.275734,-0.03271 -0.12151,0.0093 -0.210305,0.06076 -0.0888,0.04674 -0.140204,0.126184 -0.04673,0.07477 -0.05141,0.163571 z" />
    </g>
    <g
       transform="translate(-19.19019,38.091066)"
       style="font-style:normal;font-variant:normal;font-weight:normal;font-stretch:normal;font-size:4.67346px;line-height:1.2;font-family:'Komika Axis';-inkscape-font-specification:'Komika Axis';text-align:center;letter-spacing:0px;word-spacing:0px;writing-mode:lr-tb;text-anchor:middle;stroke-width:0.438135"
       id="text1053"
       aria-label="Dolor
sit amet !">
      <path
         id="path1082"
         style="font-style:normal;font-variant:normal;font-weight:normal;font-stretch:normal;font-family:'Komika Axis';-inkscape-font-specification:'Komika Axis';text-align:center;text-anchor:middle;stroke-width:0.438135"
         d="m 70.755174,14.11902 -0.271061,2.967647 q -0.01402,0.116837 -0.0047,0.191612 0.0093,0.07477 0.04206,0.126183 0.02804,0.05141 0.0701,0.09347 0.04206,0.03739 0.0888,0.07945 0.126183,0.09347 0.224326,0.158898 0.09814,0.06076 0.228999,0.126183 0.261714,0.126184 0.500061,0.04206 0.467346,-0.130857 0.836549,-0.35051 0.369203,-0.219653 0.63559,-0.495387 0.271061,-0.275734 0.439306,-0.588856 0.168244,-0.313122 0.233673,-0.626243 0.0701,-0.317796 0.03739,-0.616897 -0.03271,-0.299102 -0.163571,-0.551468 -0.154224,-0.317796 -0.37855,-0.509407 -0.224326,-0.191612 -0.490713,-0.285082 -0.261714,-0.09814 -0.546795,-0.107489 -0.280408,-0.01402 -0.551468,0.03271 -0.271061,0.04206 -0.514081,0.130857 -0.238346,0.08412 -0.415938,0.182265 z m 0.626244,3.051769 q 0.116836,-0.60755 0.24302,-1.201079 0.126183,-0.598203 0.289754,-1.210426 0.303775,-0.09814 0.514081,-0.01869 0.210305,0.07945 0.294428,0.238347 0.08412,0.158897 0.06543,0.443978 -0.01402,0.205632 -0.09814,0.443979 -0.08412,0.238346 -0.252367,0.476693 -0.168245,0.238346 -0.429959,0.457999 -0.261713,0.214979 -0.626243,0.369203 z" />
      <path
         id="path1084"
         style="font-style:normal;font-variant:normal;font-weight:normal;font-stretch:normal;font-family:'Komika Axis';-inkscape-font-specification:'Komika Axis';text-align:center;text-anchor:middle;stroke-width:0.438135"
         d="m 76.631685,14.128367 q -0.158898,-0.126184 -0.401918,-0.214979 -0.238346,-0.0888 -0.504733,-0.130857 -0.205633,-0.03271 -0.434632,0.03271 -0.224326,0.06543 -0.387897,0.191612 -0.24302,0.210306 -0.429959,0.476693 -0.182265,0.261714 -0.308448,0.556142 -0.126183,0.294428 -0.191612,0.607549 -0.06543,0.308449 -0.0701,0.60755 -0.0047,0.299102 0.05141,0.570162 0.05608,0.271061 0.168245,0.48604 0.0701,0.130857 0.191612,0.233673 0.12151,0.102816 0.247693,0.168245 0.154224,0.07945 0.341163,0.116836 0.186938,0.04206 0.36453,0.06076 0.266387,0.02804 0.472019,-0.02337 0.205632,-0.04674 0.392571,-0.191612 0.275734,-0.24302 0.462672,-0.593529 0.191612,-0.35051 0.299102,-0.743081 0.112163,-0.397244 0.140203,-0.794488 0.02804,-0.401917 -0.02337,-0.74308 -0.03739,-0.205632 -0.12151,-0.36453 -0.07945,-0.163571 -0.25704,-0.308448 z m -0.752427,0.467346 q 0.09347,0.02804 0.13553,0.196285 0.04673,0.163571 0.04673,0.397244 0,0.229 -0.03739,0.495387 -0.03739,0.261714 -0.09814,0.481366 -0.0701,0.266388 -0.168244,0.495387 -0.09347,0.224326 -0.200959,0.37855 -0.10749,0.154225 -0.214979,0.229 -0.10749,0.07477 -0.205632,0.04206 -0.10749,-0.03271 -0.163571,-0.177591 -0.05608,-0.144878 -0.06543,-0.345836 -0.0093,-0.205633 0.01869,-0.439306 0.02804,-0.238346 0.09347,-0.457999 0.06543,-0.224326 0.168245,-0.462672 0.107489,-0.24302 0.228999,-0.439306 0.12151,-0.196285 0.24302,-0.308448 0.12151,-0.116836 0.219653,-0.08412 z" />
      <path
         id="path1086"
         style="font-style:normal;font-variant:normal;font-weight:normal;font-stretch:normal;font-family:'Komika Axis';-inkscape-font-specification:'Komika Axis';text-align:center;text-anchor:middle;stroke-width:0.438135"
         d="m 79.133665,17.628788 q 0.144878,-0.02804 0.158898,-0.06076 0.01869,-0.03271 -0.01402,-0.130856 -0.01869,-0.07945 -0.05608,-0.163572 -0.03271,-0.0888 -0.0888,-0.172918 -0.05608,-0.0888 -0.126183,-0.112163 -0.06543,-0.02804 -0.196285,-0.01869 -0.219653,0.01402 -0.406591,0.03271 -0.186939,0.01869 -0.401918,0.05608 0.07477,-0.322468 0.158898,-0.672978 0.0888,-0.355183 0.182265,-0.710366 0.09814,-0.355183 0.191612,-0.691672 0.09814,-0.336489 0.191611,-0.616897 0.04206,-0.12151 0.0093,-0.186938 -0.02804,-0.06543 -0.14955,-0.154224 -0.126184,-0.08412 -0.294428,-0.149551 -0.168245,-0.0701 -0.313122,-0.10749 -0.144877,-0.04206 -0.219653,-0.01402 -0.0701,0.02337 -0.116836,0.158898 -0.06543,0.238346 -0.135531,0.523427 -0.06543,0.285081 -0.130857,0.59353 -0.06543,0.308448 -0.12151,0.62157 -0.05608,0.308448 -0.102816,0.598203 -0.04673,0.289754 -0.07945,0.542121 -0.03271,0.247693 -0.04673,0.429958 -0.01869,0.116837 0.02337,0.200959 0.04206,0.07945 0.12151,0.144877 0.10749,0.08412 0.172918,0.140204 0.06543,0.05141 0.144877,0.102816 0.03271,0.02337 0.06543,0.04206 0.03739,0.01869 0.0888,0.02804 0.05141,0.01402 0.12151,0.0093 0.0701,-0.0047 0.172918,-0.03271 0.280407,-0.05608 0.588856,-0.112163 0.313121,-0.06076 0.607549,-0.116837 z" />
      <path
         id="path1088"
         style="font-style:normal;font-variant:normal;font-weight:normal;font-stretch:normal;font-family:'Komika Axis';-inkscape-font-specification:'Komika Axis';text-align:center;text-anchor:middle;stroke-width:0.438135"
         d="m 82.354847,14.128367 q -0.158897,-0.126184 -0.401917,-0.214979 -0.238347,-0.0888 -0.504734,-0.130857 -0.205632,-0.03271 -0.434632,0.03271 -0.224326,0.06543 -0.387897,0.191612 -0.24302,0.210306 -0.429958,0.476693 -0.182265,0.261714 -0.308449,0.556142 -0.126183,0.294428 -0.191611,0.607549 -0.06543,0.308449 -0.0701,0.60755 -0.0047,0.299102 0.05141,0.570162 0.05608,0.271061 0.168244,0.48604 0.0701,0.130857 0.191612,0.233673 0.12151,0.102816 0.247694,0.168245 0.154224,0.07945 0.341162,0.116836 0.186938,0.04206 0.36453,0.06076 0.266387,0.02804 0.472019,-0.02337 0.205633,-0.04674 0.392571,-0.191612 0.275734,-0.24302 0.462673,-0.593529 0.191611,-0.35051 0.299101,-0.743081 0.112163,-0.397244 0.140204,-0.794488 0.02804,-0.401917 -0.02337,-0.74308 -0.03739,-0.205632 -0.12151,-0.36453 -0.07945,-0.163571 -0.257041,-0.308448 z m -0.752427,0.467346 q 0.09347,0.02804 0.135531,0.196285 0.04673,0.163571 0.04673,0.397244 0,0.229 -0.03739,0.495387 -0.03739,0.261714 -0.09814,0.481366 -0.0701,0.266388 -0.168245,0.495387 -0.09347,0.224326 -0.200959,0.37855 -0.107489,0.154225 -0.214979,0.229 -0.107489,0.07477 -0.205632,0.04206 -0.107489,-0.03271 -0.163571,-0.177591 -0.05608,-0.144878 -0.06543,-0.345836 -0.0093,-0.205633 0.01869,-0.439306 0.02804,-0.238346 0.09347,-0.457999 0.06543,-0.224326 0.168244,-0.462672 0.10749,-0.24302 0.229,-0.439306 0.12151,-0.196285 0.24302,-0.308448 0.12151,-0.116836 0.219652,-0.08412 z" />
      <path
         id="path1090"
         style="font-style:normal;font-variant:normal;font-weight:normal;font-stretch:normal;font-family:'Komika Axis';-inkscape-font-specification:'Komika Axis';text-align:center;text-anchor:middle;stroke-width:0.438135"
         d="m 83.91279,16.726811 q 0.12151,0.14955 0.27106,0.299101 0.149551,0.144877 0.299102,0.280408 0.14955,0.13553 0.289754,0.247693 0.140204,0.112163 0.247694,0.186938 0.163571,0.09814 0.285081,0.10749 0.126183,0.01402 0.228999,-0.01402 0.08412,-0.01402 0.140204,-0.02337 0.06076,-0.01402 0.144877,-0.07945 0.0701,-0.05141 0.07945,-0.09814 0.0093,-0.04674 -0.08412,-0.126184 -0.116837,-0.09347 -0.252367,-0.219652 -0.130857,-0.126184 -0.266387,-0.261714 -0.135531,-0.13553 -0.266387,-0.271061 -0.126184,-0.13553 -0.233673,-0.25704 0.523427,-0.233673 0.897304,-0.504734 0.37855,-0.27106 0.542121,-0.593529 0.10749,-0.200959 0.04673,-0.514081 -0.07478,-0.294428 -0.210306,-0.495386 -0.130857,-0.205633 -0.294428,-0.383224 -0.205632,-0.200959 -0.481366,-0.24302 -0.271061,-0.04673 -0.579509,0.0093 -0.303775,0.05141 -0.62157,0.177591 -0.313122,0.126184 -0.602877,0.257041 -0.06076,0.03271 -0.116836,0.168244 -0.05608,0.130857 -0.102816,0.336489 -0.04673,0.200959 -0.0888,0.457999 -0.04206,0.252367 -0.07945,0.523428 -0.03271,0.271061 -0.06076,0.542121 -0.03271,0.271061 -0.05608,0.509407 -0.02337,0.233673 -0.03739,0.420612 -0.01869,0.186938 -0.02804,0.285081 -0.0093,0.12151 0.02337,0.196285 0.03271,0.0701 0.12151,0.12151 0.0888,0.04673 0.186939,0.06543 0.09814,0.01869 0.224326,0.05141 0.107489,0.02337 0.144877,0 0.04206,-0.02337 0.06543,-0.09814 0.05141,-0.252367 0.102816,-0.514081 0.05608,-0.261713 0.12151,-0.546794 z m 0.50006,-1.897425 q 0.182265,-0.0888 0.345836,-0.12151 0.163571,-0.03271 0.299101,-0.03271 0.275734,0 0.331816,0.130857 0.02804,0.07945 -0.04673,0.224326 -0.07478,0.144877 -0.24302,0.308448 -0.168244,0.158898 -0.420611,0.317795 -0.247693,0.154224 -0.570162,0.261714 0.0888,-0.308448 0.158898,-0.579509 0.0701,-0.271061 0.144877,-0.509407 z" />
      <path
         id="path1092"
         style="font-style:normal;font-variant:normal;font-weight:normal;font-stretch:normal;font-family:'Komika Axis';-inkscape-font-specification:'Komika Axis';text-align:center;text-anchor:middle;stroke-width:0.438135"
         d="m 65.135265,22.484514 q -0.09814,0.04673 -0.0888,0.13553 0.0093,0.09347 0.214979,0.266387 0.37855,0.355183 0.733733,0.50006 0.359856,0.144878 0.738407,0.135531 0.280407,-0.0047 0.481366,-0.0701 0.200959,-0.06543 0.341163,-0.163571 0.140203,-0.09814 0.224326,-0.210306 0.08412,-0.116837 0.130857,-0.214979 0.07478,-0.140204 0.04673,-0.261714 -0.02337,-0.12151 -0.12151,-0.228999 -0.09347,-0.112164 -0.24302,-0.21498 -0.144877,-0.107489 -0.313121,-0.214979 -0.163572,-0.107489 -0.331816,-0.219652 -0.168245,-0.116837 -0.303775,-0.247694 -0.10749,-0.09814 -0.13553,-0.219652 -0.02804,-0.126184 -0.0047,-0.252367 0.02337,-0.130857 0.0888,-0.257041 0.06543,-0.126183 0.149551,-0.233673 0.0888,-0.112163 0.182265,-0.196285 0.09814,-0.0888 0.177591,-0.130857 0.0888,-0.06543 0.126183,-0.05141 0.04206,0.0093 0.04673,0.0701 0.0093,0.05608 -0.0093,0.154224 -0.01869,0.09814 -0.04673,0.210306 -0.02337,0.10749 -0.05141,0.214979 -0.02337,0.10749 -0.03271,0.191612 -0.05141,0.401918 0.588856,0.616897 0.116837,0.05141 0.172918,0.02804 0.06076,-0.02804 0.116837,-0.12151 0.05141,-0.09814 0.09814,-0.243019 0.05141,-0.144878 0.09347,-0.303775 0.04673,-0.158898 0.07945,-0.313122 0.03271,-0.154224 0.05141,-0.275734 0,-0.0701 -0.0047,-0.149551 0,-0.08412 -0.02337,-0.168245 -0.01869,-0.08412 -0.0701,-0.172918 -0.05141,-0.0888 -0.144877,-0.177591 -0.144878,-0.130857 -0.359857,-0.24302 -0.210306,-0.112163 -0.420611,-0.186938 -0.140204,-0.04206 -0.271061,-0.04674 -0.130857,-0.0093 -0.24302,0.0093 -0.112163,0.01869 -0.200959,0.06075 -0.08879,0.03739 -0.144877,0.07945 -0.172918,0.107489 -0.341162,0.261713 -0.163572,0.149551 -0.303775,0.327143 -0.135531,0.172918 -0.238347,0.359856 -0.09814,0.186939 -0.140204,0.355183 -0.06076,0.191612 -0.05608,0.36453 0.0047,0.172918 0.06076,0.327142 0.05608,0.154224 0.154224,0.289755 0.102816,0.130857 0.233673,0.233673 0.116837,0.09814 0.261714,0.196285 0.144877,0.09347 0.289754,0.182265 0.144878,0.0888 0.271061,0.172918 0.130857,0.08412 0.214979,0.154224 0.0888,0.0701 0.116837,0.126184 0.03271,0.05141 -0.02337,0.0888 -0.130857,0.10749 -0.425285,0.03739 -0.294428,-0.0701 -0.691672,-0.317795 -0.0701,-0.04674 -0.158897,-0.0701 -0.08412,-0.02804 -0.177592,-0.03271 -0.09347,-0.0047 -0.186938,0.0093 -0.09347,0.01402 -0.177592,0.05141 z" />
      <path
         id="path1094"
         style="font-style:normal;font-variant:normal;font-weight:normal;font-stretch:normal;font-family:'Komika Axis';-inkscape-font-specification:'Komika Axis';text-align:center;text-anchor:middle;stroke-width:0.438135"
         d="m 69.544967,19.717825 q -0.126183,-0.08412 -0.294428,-0.158897 -0.168245,-0.07478 -0.313122,-0.112163 -0.144877,-0.04206 -0.219652,-0.0093 -0.0701,0.02804 -0.112164,0.163571 -0.05141,0.219652 -0.112163,0.51408 -0.06076,0.289755 -0.12151,0.616897 -0.05608,0.327142 -0.112163,0.668305 -0.05608,0.341162 -0.09814,0.649611 -0.04674,0.308448 -0.07478,0.570162 -0.03271,0.25704 -0.04206,0.420611 -0.01402,0.12151 0.02337,0.191612 0.03271,0.06543 0.140203,0.116837 0.09814,0.05141 0.205633,0.08412 0.112163,0.03271 0.233673,0.06543 0.12151,0.02804 0.158897,0.0047 0.04206,-0.02337 0.06543,-0.102816 0.04206,-0.210306 0.09814,-0.476693 0.06076,-0.271061 0.130857,-0.570162 0.0701,-0.303775 0.144878,-0.616897 0.07477,-0.317795 0.14955,-0.616897 0.07945,-0.303775 0.154224,-0.574835 0.07945,-0.271061 0.144878,-0.481367 0.03271,-0.126183 0.0047,-0.191612 -0.02337,-0.06543 -0.154224,-0.154224 z" />
      <path
         id="path1096"
         style="font-style:normal;font-variant:normal;font-weight:normal;font-stretch:normal;font-family:'Komika Axis';-inkscape-font-specification:'Komika Axis';text-align:center;text-anchor:middle;stroke-width:0.438135"
         d="m 72.795358,20.147784 q 0.144878,-0.0093 0.168245,-0.04674 0.02804,-0.04206 0,-0.149551 -0.03271,-0.12151 -0.09347,-0.247693 -0.06075,-0.126184 -0.154225,-0.233673 -0.04673,-0.06076 -0.112163,-0.08412 -0.06076,-0.02804 -0.205632,-0.02804 -0.275734,0.0093 -0.626243,0.03739 -0.345837,0.02337 -0.710366,0.06076 -0.359857,0.03739 -0.710366,0.08412 -0.345836,0.04673 -0.621571,0.102816 -0.0888,0.02337 -0.116836,0.06076 -0.02804,0.03271 0.02804,0.140204 0.05141,0.102816 0.13553,0.252366 0.07945,0.149551 0.177592,0.247694 0.09347,0.09814 0.168244,0.12151 0.07478,0.01869 0.191612,-0.0093 0.08412,-0.02337 0.210306,-0.03739 0.126183,-0.01869 0.261713,-0.04206 -0.0701,0.317795 -0.140203,0.691672 -0.0701,0.369204 -0.130857,0.733733 -0.05608,0.36453 -0.09814,0.691672 -0.04206,0.327143 -0.05608,0.551469 -0.01869,0.0888 0.0047,0.154224 0.02337,0.06075 0.07477,0.10749 0.05608,0.04673 0.135531,0.07945 0.07945,0.03271 0.177591,0.06076 0.09814,0.02804 0.177592,0.05141 0.07945,0.02337 0.140204,0.02337 0.06075,0.0047 0.09347,-0.01869 0.03739,-0.01869 0.04673,-0.08412 0.06543,-0.341163 0.149551,-0.733734 0.0888,-0.39257 0.186938,-0.803835 0.09814,-0.415938 0.200959,-0.836549 0.10749,-0.420612 0.205632,-0.813182 0.229,-0.02337 0.443979,-0.04206 0.214979,-0.02337 0.397244,-0.04206 z" />
      <path
         id="path1098"
         style="font-style:normal;font-variant:normal;font-weight:normal;font-stretch:normal;font-family:'Komika Axis';-inkscape-font-specification:'Komika Axis';text-align:center;text-anchor:middle;stroke-width:0.438135"
         d="m 76.540625,22.545269 q 0.01402,0.191611 0.02804,0.355182 0.01402,0.158898 0.03271,0.294428 0.01869,0.130857 0.06076,0.182265 0.04673,0.05141 0.158898,0.08412 0.107489,0.03739 0.210305,0.04206 0.102817,0.0093 0.224326,0.0093 0.12151,0 0.154225,-0.03271 0.03739,-0.03271 0.03739,-0.116837 -0.0047,-0.401918 -0.0047,-0.869264 0.0047,-0.472019 0.01402,-0.939365 0.0093,-0.467346 0.02804,-0.897304 0.01869,-0.429959 0.04673,-0.761774 0.01402,-0.135531 -0.02804,-0.219653 -0.03739,-0.08412 -0.182265,-0.13553 -0.10749,-0.02804 -0.214979,-0.06076 -0.102816,-0.03271 -0.229,-0.06076 -0.12151,-0.02804 -0.27106,-0.04674 -0.149551,-0.02337 -0.341163,-0.03271 -0.219653,-0.01869 -0.331816,0.06076 -0.112163,0.07945 -0.182265,0.205632 -0.196285,0.35051 -0.415938,0.803835 -0.214979,0.448652 -0.425284,0.911325 -0.205633,0.462673 -0.383224,0.897304 -0.182265,0.434632 -0.294428,0.757101 -0.02804,0.09814 -0.02337,0.158897 0,0.05608 0.02337,0.09347 0.02337,0.03739 0.06543,0.06543 0.04206,0.02337 0.09814,0.06076 0.07478,0.03739 0.149551,0.0701 0.0701,0.02804 0.130857,0.05141 0.107489,0.03739 0.158897,0.02337 0.05608,-0.01402 0.09347,-0.09347 0.06543,-0.149551 0.135531,-0.303775 0.0701,-0.158897 0.163571,-0.341162 0.266387,-0.0701 0.612223,-0.116837 0.35051,-0.05141 0.701019,-0.09814 z m -0.892631,-0.654285 q 0.219653,-0.443979 0.434632,-0.855243 0.219653,-0.415938 0.406591,-0.757101 -0.0093,0.373877 -0.0047,0.757101 0.0047,0.37855 0.01402,0.761774 -0.214979,0.01402 -0.429958,0.03739 -0.210306,0.02337 -0.420612,0.05608 z" />
      <path
         id="path1100"
         style="font-style:normal;font-variant:normal;font-weight:normal;font-stretch:normal;font-family:'Komika Axis';-inkscape-font-specification:'Komika Axis';text-align:center;text-anchor:middle;stroke-width:0.438135"
         d="m 78.820106,21.143231 q 0.0701,0.467346 0.154224,0.906651 0.0888,0.439305 0.182265,0.775794 0.02337,0.07945 0.04206,0.130857 0.02337,0.05141 0.05141,0.0888 0.02804,0.03271 0.06543,0.05608 0.03739,0.01869 0.0888,0.03739 0.140204,0.04673 0.327142,0.08412 0.06076,0.01402 0.09814,0.01402 0.03739,-0.0047 0.06076,-0.01869 0.02337,-0.01402 0.03739,-0.04206 0.01869,-0.03271 0.04206,-0.08412 0.07478,-0.163571 0.196285,-0.406591 0.126184,-0.247693 0.271061,-0.523427 0.149551,-0.275734 0.303775,-0.560815 0.158897,-0.285081 0.299101,-0.528101 -0.07945,0.275734 -0.149551,0.570162 -0.06543,0.294428 -0.12151,0.565488 -0.05608,0.266388 -0.09814,0.490714 -0.04206,0.219652 -0.06076,0.359856 -0.02337,0.116837 0.0093,0.186939 0.03739,0.0701 0.144877,0.121509 0.08412,0.04674 0.196285,0.07945 0.112163,0.03271 0.219653,0.05608 0.12151,0.02804 0.163571,-0.0093 0.04206,-0.03739 0.07478,-0.12151 0.03739,-0.163571 0.102817,-0.411265 0.06543,-0.247693 0.144877,-0.542121 0.08412,-0.294428 0.172918,-0.616897 0.09347,-0.322468 0.182265,-0.63559 0.09347,-0.313122 0.182265,-0.598203 0.08879,-0.285081 0.158897,-0.504734 0.05141,-0.154224 0.01402,-0.238346 -0.03271,-0.0888 -0.168245,-0.154224 -0.205632,-0.09347 -0.420611,-0.163571 -0.210306,-0.0701 -0.401918,-0.12151 -0.163571,-0.04673 -0.27106,-0.03739 -0.102817,0.0093 -0.186939,0.08412 -0.08412,0.0701 -0.163571,0.210306 -0.07945,0.13553 -0.186938,0.350509 -0.10749,0.186939 -0.224326,0.397244 -0.112164,0.210306 -0.219653,0.420612 -0.10749,0.210306 -0.210306,0.411264 -0.09814,0.200959 -0.172918,0.369204 -0.07478,-0.481367 -0.116836,-0.757101 -0.04206,-0.275734 -0.06543,-0.425285 -0.01869,-0.14955 -0.02804,-0.205632 -0.0047,-0.06076 -0.0047,-0.102816 -0.01869,-0.0888 -0.03739,-0.158898 -0.01402,-0.0701 -0.05141,-0.126183 -0.03739,-0.06076 -0.102816,-0.10749 -0.06543,-0.05141 -0.177591,-0.09347 -0.177592,-0.06543 -0.355183,-0.112163 -0.172918,-0.04674 -0.425285,-0.08412 -0.163571,-0.02337 -0.24302,0.01869 -0.07478,0.03739 -0.116837,0.196285 -0.04206,0.219653 -0.08412,0.509407 -0.04673,0.285081 -0.0888,0.60755 -0.04673,0.322469 -0.08412,0.654284 -0.03739,0.331816 -0.06543,0.640264 -0.03271,0.308449 -0.04673,0.574836 -0.01869,0.261714 -0.01869,0.443979 -0.0093,0.12151 0.03271,0.186938 0.04206,0.06543 0.158898,0.12151 0.09347,0.04673 0.200959,0.07945 0.112163,0.03739 0.219653,0.06076 0.112163,0.02337 0.154224,-0.0047 0.04206,-0.02337 0.06076,-0.107489 0.01869,-0.200959 0.05141,-0.457999 0.03739,-0.257041 0.08412,-0.551469 0.04673,-0.294428 0.102816,-0.612223 0.05608,-0.317795 0.116837,-0.63559 z" />
      <path
         id="path1102"
         style="font-style:normal;font-variant:normal;font-weight:normal;font-stretch:normal;font-family:'Komika Axis';-inkscape-font-specification:'Komika Axis';text-align:center;text-anchor:middle;stroke-width:0.438135"
         d="m 82.455255,19.699131 -0.443979,3.107851 q -0.0093,0.126184 0.03739,0.214979 0.04206,0.0888 0.12151,0.154225 0.09814,0.08412 0.168244,0.140203 0.07478,0.05141 0.154225,0.102817 0.0701,0.04673 0.163571,0.0701 0.09814,0.02804 0.285081,-0.01869 0.280407,-0.05141 0.588856,-0.112163 0.308448,-0.06076 0.607549,-0.116837 0.126184,-0.02337 0.149551,-0.05608 0.02337,-0.03739 0,-0.130857 -0.03739,-0.08412 -0.0701,-0.163571 -0.02804,-0.08412 -0.08412,-0.177592 -0.05141,-0.08412 -0.126183,-0.112163 -0.0701,-0.02804 -0.200959,-0.01869 -0.233673,0.01402 -0.434632,0.03739 -0.196285,0.02337 -0.415938,0.06076 0.03739,-0.130857 0.0701,-0.261714 0.03271,-0.13553 0.0701,-0.285081 0.271061,-0.05608 0.560815,-0.102816 0.294428,-0.04674 0.574836,-0.09814 0.130857,-0.02804 0.158897,-0.06543 0.03271,-0.03739 -0.0047,-0.144877 -0.02337,-0.09347 -0.05608,-0.182265 -0.02804,-0.09347 -0.08412,-0.186939 -0.05141,-0.09347 -0.126183,-0.12151 -0.07478,-0.02804 -0.205633,-0.02337 -0.158897,0.0047 -0.299101,0.01402 -0.140204,0.0093 -0.280408,0.02804 0.07478,-0.247693 0.135531,-0.472019 0.06076,-0.229 0.130857,-0.439306 0.331815,-0.04673 0.630917,-0.07945 0.299101,-0.03271 0.579509,-0.06543 0.13553,-0.01869 0.172918,-0.06076 0.03739,-0.04206 0.01869,-0.163571 -0.02337,-0.10749 -0.04673,-0.196285 -0.02337,-0.09347 -0.08412,-0.205632 -0.07478,-0.210306 -0.341163,-0.205633 -0.280408,0.0093 -0.565489,0.04673 -0.280407,0.03271 -0.551468,0.07945 -0.266387,0.04673 -0.51408,0.102816 -0.24302,0.05608 -0.443979,0.107489 z" />
      <path
         id="path1104"
         style="font-style:normal;font-variant:normal;font-weight:normal;font-stretch:normal;font-family:'Komika Axis';-inkscape-font-specification:'Komika Axis';text-align:center;text-anchor:middle;stroke-width:0.438135"
         d="m 87.956719,20.147784 q 0.144877,-0.0093 0.168245,-0.04674 0.02804,-0.04206 0,-0.149551 -0.03272,-0.12151 -0.09347,-0.247693 -0.06076,-0.126184 -0.154224,-0.233673 -0.04673,-0.06076 -0.112163,-0.08412 -0.06076,-0.02804 -0.205632,-0.02804 -0.275734,0.0093 -0.626244,0.03739 -0.345836,0.02337 -0.710366,0.06076 -0.359856,0.03739 -0.710366,0.08412 -0.345836,0.04673 -0.62157,0.102816 -0.0888,0.02337 -0.116836,0.06076 -0.02804,0.03271 0.02804,0.140204 0.05141,0.102816 0.135531,0.252366 0.07945,0.149551 0.177591,0.247694 0.09347,0.09814 0.168245,0.12151 0.07478,0.01869 0.191612,-0.0093 0.08412,-0.02337 0.210305,-0.03739 0.126184,-0.01869 0.261714,-0.04206 -0.0701,0.317795 -0.140204,0.691672 -0.0701,0.369204 -0.130856,0.733733 -0.05608,0.36453 -0.09814,0.691672 -0.04206,0.327143 -0.05608,0.551469 -0.01869,0.0888 0.0047,0.154224 0.02337,0.06075 0.07477,0.10749 0.05608,0.04673 0.13553,0.07945 0.07945,0.03271 0.177592,0.06076 0.09814,0.02804 0.177591,0.05141 0.07945,0.02337 0.140204,0.02337 0.06076,0.0047 0.09347,-0.01869 0.03739,-0.01869 0.04673,-0.08412 0.06543,-0.341163 0.149551,-0.733734 0.0888,-0.39257 0.186938,-0.803835 0.09814,-0.415938 0.200959,-0.836549 0.10749,-0.420612 0.205632,-0.813182 0.229,-0.02337 0.443979,-0.04206 0.214979,-0.02337 0.397244,-0.04206 z" />
      <path
         id="path1106"
         style="font-style:normal;font-variant:normal;font-weight:normal;font-stretch:normal;font-family:'Komika Axis';-inkscape-font-specification:'Komika Axis';text-align:center;text-anchor:middle;stroke-width:0.438135"
         d="m 91.295397,19.390683 q -0.12151,-0.08412 -0.289755,-0.154224 -0.163571,-0.0701 -0.303775,-0.10749 -0.14955,-0.05141 -0.224326,-0.01869 -0.0701,0.03271 -0.107489,0.177592 -0.07945,0.299101 -0.168245,0.677652 -0.0888,0.37855 -0.172918,0.766447 -0.08412,0.387897 -0.154224,0.757101 -0.06543,0.364529 -0.102816,0.63559 -0.02337,0.13553 0.0093,0.205632 0.03739,0.06543 0.144877,0.12151 0.102816,0.05141 0.210306,0.0888 0.112163,0.03271 0.24302,0.05608 0.107489,0.02804 0.154224,0.0047 0.05141,-0.02337 0.07477,-0.12151 0.0701,-0.280408 0.158898,-0.602876 0.09347,-0.327142 0.200959,-0.677652 0.112163,-0.350509 0.228999,-0.710366 0.12151,-0.359856 0.24302,-0.710366 0.04206,-0.126183 0.0093,-0.210305 -0.02804,-0.0888 -0.154224,-0.177592 z m -1.752548,3.738768 q -0.0093,0.224326 0.144877,0.345836 0.154225,0.12151 0.373877,0.116837 0.102816,0 0.182265,-0.03739 0.08412,-0.03271 0.140204,-0.08412 0.06076,-0.04674 0.09814,-0.102817 0.04206,-0.06075 0.05608,-0.102816 0.01869,-0.05608 0.01402,-0.130857 0,-0.07477 -0.03739,-0.14955 -0.03739,-0.07478 -0.116837,-0.135531 -0.07945,-0.06543 -0.205632,-0.09814 -0.149551,-0.04206 -0.271061,-0.02337 -0.116836,0.01402 -0.200958,0.07478 -0.08412,0.05608 -0.126184,0.144877 -0.04673,0.08412 -0.05141,0.182265 z" />
    </g>
    <path
       id="path1109"
       d="m 37.232853,17.703628 -1.901696,9.367765 6.981423,-8.567869"
       style="font-variation-settings:normal;opacity:1;vector-effect:none;fill:#ffffff;fill-opacity:1;stroke:#000000;stroke-width:1;stroke-linecap:butt;stroke-linejoin:round;stroke-miterlimit:4;stroke-dasharray:none;stroke-dashoffset:0;stroke-opacity:1;stop-color:#000000;stop-opacity:1" />
    <path
       style="font-variation-settings:normal;opacity:1;vector-effect:none;fill:#ffffff;fill-opacity:1;stroke:#000000;stroke-width:1;stroke-linecap:butt;stroke-linejoin:round;stroke-miterlimit:4;stroke-dasharray:none;stroke-dashoffset:0;stroke-opacity:1;stop-color:#000000;stop-opacity:1"
       d="m 74.427881,58.484514 7.589561,-5.811199 -10.892727,1.870063"
       id="path1125" />
    <path
       style="font-variation-settings:normal;opacity:1;vector-effect:none;fill:#e71e1e;fill-opacity:1;stroke:none;stroke-width:0.754547;stroke-linecap:butt;stroke-linejoin:round;stroke-miterlimit:4;stroke-dasharray:none;stroke-dashoffset:0;stroke-opacity:1;stop-color:#000000;stop-opacity:1"
       d="M 70.288898,35.147483 51.324777,46.096424 A 1.6136744,1.6136744 0 0 1 48.904265,44.698941 V 22.801059 a 1.6136744,1.6136744 0 0 1 2.420512,-1.397483 l 18.964121,10.948941 a 1.6136744,1.6136744 0 0 1 0,2.794966 z"
       inkscape:transform-center-x="-3.9675248"
       id="path1316" />
  </g>
</svg>
