<?xml version="1.0" encoding="utf-8"?>
<svg xmlns:dc="http://purl.org/dc/elements/1.1/" xmlns:cc="http://creativecommons.org/ns#" xmlns:rdf="http://www.w3.org/1999/02/22-rdf-syntax-ns#" xmlns:svg="http://www.w3.org/2000/svg" xmlns="http://www.w3.org/2000/svg" viewBox="0 0 742.66656 321.28836" height="321.288" width="742.667" xml:space="preserve" version="1.1"><defs><clipPath id="clipPath22" clipPathUnits="userSpaceOnUse"><path d="M 0,0 H 557 V 241 H 0 Z"/></clipPath></defs><g transform="matrix(1.333,0,0,1.333,0,7.366e-6)"><g><g><g><g clip-path="url(#clipPath22)"><g><path style="fill:#d3d3d3;fill-opacity:1;fill-rule:nonzero;stroke:none" d="M 0,0 H 557 V 240.965 H 0 Z"/><path style="fill:#eeeeee;fill-opacity:1;fill-rule:nonzero;stroke:none" d="M 0,0 H 557 V 2.254 H 0 Z"/><path style="fill:#9a9a9a;fill-opacity:1;fill-rule:nonzero;stroke:none" d="m 0,238.715 h 557 v 2.25 H 0 Z"/><path style="fill:#9a9a9a;fill-opacity:1;fill-rule:nonzero;stroke:none" d="M 554.746,2.254 V 240.965 H 557 V 0"/><path style="fill:#eeeeee;fill-opacity:1;fill-rule:nonzero;stroke:none" d="m 0,0 v 240.965 l 2.254,-2.25 V 0"/><path style="fill:#00008b;fill-opacity:1;fill-rule:nonzero;stroke:none" d="M 5.254,5.254 H 551.746 V 43.539 H 5.254 Z"/><path style="fill:#d3d3d3;fill-opacity:1;fill-rule:nonzero;stroke:none" d="M 5.254,43.539 H 551.746 V 86.328 H 5.254 Z"/><path style="fill:#ffffff;fill-opacity:1;fill-rule:nonzero;stroke:none" d="M 5.254,86.328 H 551.746 V 235.711 H 5.254 Z"/><path style="fill:#9a9a9a;fill-opacity:1;fill-rule:nonzero;stroke:none" d="m 5.254,86.328 h 546.492 v 2.25 H 5.254 Z"/><path style="fill:#eeeeee;fill-opacity:1;fill-rule:nonzero;stroke:none" d="m 5.254,233.461 h 546.492 v 2.25 H 5.254 Z"/><path style="fill:#eeeeee;fill-opacity:1;fill-rule:nonzero;stroke:none" d="m 549.492,88.578 v 147.133 h 2.254 V 86.328"/><path style="fill:#9a9a9a;fill-opacity:1;fill-rule:nonzero;stroke:none" d="m 5.254,86.328 v 149.383 l 2.254,-2.25 V 86.328"/><path style="fill:#d3d3d3;fill-opacity:1;fill-rule:nonzero;stroke:none" d="m 517.215,9.758 h 30.027 v 30.027 h -30.027 z"/><path style="fill:#ffffff;fill-opacity:1;fill-rule:nonzero;stroke:none" d="m 517.215,9.758 h 30.027 v 3.754 h -30.027 z"/><path style="fill:#ababab;fill-opacity:1;fill-rule:nonzero;stroke:none" d="m 517.215,36.031 h 30.027 v 3.754 h -30.027 z"/><path style="fill:#ababab;fill-opacity:1;fill-rule:nonzero;stroke:none" d="m 543.488,13.512 v 26.273 h 3.754 V 9.758"/><path style="fill:#ffffff;fill-opacity:1;fill-rule:nonzero;stroke:none" d="m 517.215,9.758 v 30.027 l 3.754,-3.754 V 9.758"/><text style="font-variant:normal;font-weight:normal;font-size:18.016px;font-family:'DejaVu Sans';-inkscape-font-specification:DejaVuSans;writing-mode:lr-tb;fill:#000000;fill-opacity:1;fill-rule:nonzero;stroke:none" transform="translate(524.979,30.778)"><tspan>✕</tspan></text><text style="font-variant:normal;font-weight:600;font-size:18.016px;font-family:'IBM Plex Sans SemiBold';-inkscape-font-specification:IBMPlexSans-SemiBold;writing-mode:lr-tb;fill:#ffffff;fill-opacity:1;fill-rule:nonzero;stroke:none" transform="translate(9.501,31.528)"><tspan x="0 9.206 19.349 26.34 36.393 52.391 56.643 64.264 75.073 84.063 94.657 110.655 114.907 121.681 125.933 137.626 149.732 162.146 166.397 177.405 184.936 195.385">Lorem Ipsum | BAD SITE</tspan></text><text style="font-variant:normal;font-weight:normal;font-size:22.52px;font-family:'IBM Plex Sans';-inkscape-font-specification:IBMPlexSans;writing-mode:lr-tb;fill:#000000;fill-opacity:1;fill-rule:nonzero;stroke:none" transform="translate(13.5,73.566)"><tspan>←</tspan></text><text style="font-variant:normal;font-weight:normal;font-size:22.52px;font-family:'IBM Plex Sans';-inkscape-font-specification:IBMPlexSans;writing-mode:lr-tb;fill:#000000;fill-opacity:1;fill-rule:nonzero;stroke:none" transform="translate(42.597,73.566)"><tspan>→</tspan></text><text style="font-variant:normal;font-weight:normal;font-size:22.52px;font-family:'DejaVu Sans';-inkscape-font-specification:DejaVuSans;writing-mode:lr-tb;fill:#000000;fill-opacity:1;fill-rule:nonzero;stroke:none" transform="translate(71.693,73.566)"><tspan>⟳</tspan></text><path style="fill:#ffffff;fill-opacity:1;fill-rule:nonzero;stroke:none" d="M 102.59,76.32 V 53.547 c 0,-0.465 0.09,-0.91 0.265,-1.34 0.18,-0.43 0.434,-0.809 0.762,-1.137 0.328,-0.328 0.707,-0.582 1.137,-0.761 0.43,-0.176 0.875,-0.266 1.34,-0.266 h 404.863 c 0.465,0 0.914,0.09 1.344,0.266 0.429,0.179 0.808,0.433 1.137,0.761 0.328,0.328 0.582,0.707 0.757,1.137 0.18,0.43 0.27,0.875 0.27,1.34 V 76.32 c 0,0.465 -0.09,0.91 -0.27,1.34 -0.175,0.43 -0.429,0.809 -0.757,1.137 -0.329,0.328 -0.708,0.582 -1.137,0.762 -0.43,0.175 -0.879,0.265 -1.344,0.265 H 106.094 c -0.465,0 -0.91,-0.09 -1.34,-0.265 -0.43,-0.18 -0.809,-0.434 -1.137,-0.762 -0.328,-0.328 -0.582,-0.707 -0.762,-1.137 -0.175,-0.43 -0.265,-0.875 -0.265,-1.34 z"/><g><path style="fill:none;stroke:#808080;stroke-width:0.751;stroke-linecap:butt;stroke-linejoin:miter;stroke-miterlimit:10;stroke-dasharray:none;stroke-opacity:1" d="M 102.469,76.32 V 53.547 c 0,-0.481 0.09,-0.942 0.273,-1.387 0.184,-0.445 0.446,-0.836 0.789,-1.176 0.34,-0.343 0.731,-0.605 1.176,-0.789 0.445,-0.183 0.906,-0.277 1.387,-0.277 h 404.863 c 0.484,0 0.945,0.094 1.391,0.277 0.445,0.184 0.836,0.446 1.175,0.789 0.34,0.34 0.602,0.731 0.789,1.176 0.184,0.445 0.274,0.906 0.274,1.387 V 76.32 c 0,0.481 -0.09,0.942 -0.274,1.387 -0.187,0.445 -0.449,0.836 -0.789,1.176 -0.339,0.34 -0.73,0.605 -1.175,0.789 -0.446,0.183 -0.907,0.273 -1.391,0.273 H 106.094 c -0.481,0 -0.942,-0.09 -1.387,-0.273 -0.445,-0.184 -0.836,-0.449 -1.176,-0.789 -0.343,-0.34 -0.605,-0.731 -0.789,-1.176 -0.183,-0.445 -0.273,-0.906 -0.273,-1.387 z"/></g><text style="font-variant:normal;font-weight:normal;font-size:16.215px;font-family:'IBM Plex Sans';-inkscape-font-specification:IBMPlexSans;writing-mode:lr-tb;fill:#000000;fill-opacity:1;fill-rule:nonzero;stroke:none" transform="translate(110.724,71.314)"><tspan x="0 9.21 14.755 20.447 29.851 37.747 42.482 46.73 52.697 61.405 69.625 78.284 92.439 101.844 106.254 114.815 119.063 127.122 136.202 150.358 156.568 165.972 174.631 183.079 191.98 199.715 209.119 217.778 225.561 233.311 245.683 254.763 260.6 270.005 279.733 289.462 299.191 308.92 318.648 328.377">https://example.com/page?password=123456</tspan></text><text style="font-variant:normal;font-weight:normal;font-size:22.52px;font-family:'DejaVu Sans';-inkscape-font-specification:DejaVuSans;writing-mode:lr-tb;fill:#000000;fill-opacity:1;fill-rule:nonzero;stroke:none" transform="translate(523.231,73.566)"><tspan>☰</tspan></text><text style="font-variant:normal;font-weight:normal;font-size:18.016px;font-family:'IBM Plex Sans';-inkscape-font-specification:IBMPlexSans;writing-mode:lr-tb;fill:#000000;fill-opacity:1;fill-rule:nonzero;stroke:none" transform="translate(32.021,132.119)"><tspan x="0 8.846 18.935 25.457 35.348 51.076 55.328 59.832 70.281 79.055 89.288 105.016 109.268 119.717 129.807 134.707 144.796 151.408 155.66 164.434 168.938 175.261 179.513 189.134 204.862 214.753 221.076 225.977 230.229 239.183 249.272 259.505 268.279 278.17 287.232 293.483 303.374 309.698 319.931 326.543 330.795 340.416 350.865 355.369 365.818 370.322 379.096 388.158 392.662 402.896 412.408 416.66 426.551 431.451 435.955 442.279">Lorem ipsum dolor sit amet, consectetur adipiscing elit.</tspan><tspan y="24.022" x="0 12.737 22.971 27.781 32.681 42.302 46.554 51.454 61.075 70.137 74.641 84.874 89.378 98.999 103.251 109.502 119.393 135.121 145.571 155.804 164.578 168.83 178.504 187.638 192.539 196.791 205.565 210.069 216.392 220.644 230.265 245.993 255.884 262.207 266.459 276.909 287.142 291.862 300.726 305.23 315.463 325.084 331.696 335.948 345.838 354.486 360.81 365.71 369.962 382.699 392.933 397.743 402.643 412.264 416.516 426.749 433.073 437.325 443.648 453.881 460.493 470.943 475.447">Nulla lacinia tempus ex, sit amet pulvinar est. Nulla ut turpis</tspan><tspan y="48.043" x="0 10.449 20.683 30.303 36.825 46.716 53.04 59.579 69.38 74.281 78.532 87.306 96.26 106.151 111.052 120.943 127.554 132.059 140.832 151.282 161.515 171.406 175.658 186.107 196.196 201.097 211.186 217.797 222.049 226.553 237.003 241.903 246.155 256.604 266.225 276.674 281.178 291.628 301.861 310.635 314.887 319.787 324.291 334.74 344.631 351.153 360.882 365.782 370.034 381.582 391.473 401.707 411.597 421.218 431.451 435.703 444.477 454.368">pharetra, scelerisque dolor id, dapibus libero. Aenean sed</tspan><tspan y="72.065" x="0 4.9 14.521 23.583 33.816 42.59 46.842 51.346 67.074 77.524 87.414 93.918 104.368 108.872 118.763 125.086 129.987 134.238 144.688 151.21 161.101 167.424 171.928 182.162 197.89 202.141 206.645 216.879 225.526 231.778 241.867 246.119 254.983 259.487 265.811 275.431 284.962 289.862 294.114 303.068 313.157 323.39 333.84 338.344 354.072 363.963 374.196 380.52 390.753 406.481 410.733 420.966 425.47 434.244 438.748">lacus imperdiet, pretium justo vitae, condimentum nisi.</tspan></text></g></g></g></g></g></g></svg>
