<?xml version="1.0" encoding="utf-8"?>
<svg xmlns:dc="http://purl.org/dc/elements/1.1/" xmlns:cc="http://creativecommons.org/ns#" xmlns:rdf="http://www.w3.org/1999/02/22-rdf-syntax-ns#" xmlns:svg="http://www.w3.org/2000/svg" xmlns="http://www.w3.org/2000/svg" viewBox="0 0 742.66656 586.52643" height="586.526" width="742.667" xml:space="preserve" version="1.1"><defs><clipPath id="clipPath22" clipPathUnits="userSpaceOnUse"><path d="M 0,0 H 557 V 440 H 0 Z"/></clipPath></defs><g transform="matrix(1.333,0,0,-1.333,0,586.526)"><g><g transform="translate(0,-0.105)"><g><g clip-path="url(#clipPath22)"><g><path style="fill:#d3d3d3;fill-opacity:1;fill-rule:nonzero;stroke:none" d="M 0,440 H 557 V 0.105 H 0 Z"/><path style="fill:#eeeeee;fill-opacity:1;fill-rule:nonzero;stroke:none" d="m 0,440 h 557 v -2.254 H 0 Z"/><path style="fill:#9a9a9a;fill-opacity:1;fill-rule:nonzero;stroke:none" d="M 0,2.355 H 557 V 0.105 H 0 Z"/><path style="fill:#9a9a9a;fill-opacity:1;fill-rule:nonzero;stroke:none" d="M 554.746,437.746 V 0.105 H 557 V 440"/><path style="fill:#eeeeee;fill-opacity:1;fill-rule:nonzero;stroke:none" d="M 0,440 V 0.105 l 2.254,2.25 V 440"/><path style="fill:#00008b;fill-opacity:1;fill-rule:nonzero;stroke:none" d="M 5.254,434.746 H 551.746 V 396.461 H 5.254 Z"/><path style="fill:#d3d3d3;fill-opacity:1;fill-rule:nonzero;stroke:none" d="M 5.254,396.461 H 551.746 V 353.672 H 5.254 Z"/><path style="fill:#ffffff;fill-opacity:1;fill-rule:nonzero;stroke:none" d="M 5.254,353.672 H 551.746 V 5.36 H 5.254 Z"/><path style="fill:#9a9a9a;fill-opacity:1;fill-rule:nonzero;stroke:none" d="m 5.254,353.672 h 546.492 v -2.25 H 5.254 Z"/><path style="fill:#eeeeee;fill-opacity:1;fill-rule:nonzero;stroke:none" d="M 5.254,7.613 H 551.746 V 5.359 H 5.254 Z"/><path style="fill:#eeeeee;fill-opacity:1;fill-rule:nonzero;stroke:none" d="M 549.492,351.422 V 5.359 h 2.254 v 348.313"/><path style="fill:#9a9a9a;fill-opacity:1;fill-rule:nonzero;stroke:none" d="M 5.254,353.672 V 5.359 l 2.254,2.254 v 346.059"/><path style="fill:#d3d3d3;fill-opacity:1;fill-rule:nonzero;stroke:none" d="m 517.215,430.242 h 30.027 v -30.027 h -30.027 z"/><path style="fill:#ffffff;fill-opacity:1;fill-rule:nonzero;stroke:none" d="m 517.215,430.242 h 30.027 v -3.754 h -30.027 z"/><path style="fill:#ababab;fill-opacity:1;fill-rule:nonzero;stroke:none" d="m 517.215,403.969 h 30.027 v -3.754 h -30.027 z"/><path style="fill:#ababab;fill-opacity:1;fill-rule:nonzero;stroke:none" d="m 543.488,426.488 v -26.273 h 3.754 v 30.027"/><path style="fill:#ffffff;fill-opacity:1;fill-rule:nonzero;stroke:none" d="m 517.215,430.242 v -30.027 l 3.754,3.754 v 26.273"/><text style="font-variant:normal;font-weight:normal;font-size:18.016px;font-family:'DejaVu Sans';-inkscape-font-specification:DejaVuSans;writing-mode:lr-tb;fill:#000000;fill-opacity:1;fill-rule:nonzero;stroke:none" transform="matrix(1,0,0,-1,524.979,409.222)"><tspan>✕</tspan></text><text style="font-variant:normal;font-weight:600;font-size:18.016px;font-family:'IBM Plex Sans SemiBold';-inkscape-font-specification:IBMPlexSans-SemiBold;writing-mode:lr-tb;fill:#ffffff;fill-opacity:1;fill-rule:nonzero;stroke:none" transform="matrix(1,0,0,-1,9.501,408.472)"><tspan x="0 9.765 20.268 27.024 36.789 52.553 57.057 64.57 75.073 84.063 94.585 110.349 114.853 121.627 126.131 138.887 151.642 164.416 177.171 181.675 192.935 200.448 210.951">Lorem Ipsum | GOOD SITE</tspan></text><text style="font-variant:normal;font-weight:normal;font-size:22.52px;font-family:'IBM Plex Sans';-inkscape-font-specification:IBMPlexSans;writing-mode:lr-tb;fill:#000000;fill-opacity:1;fill-rule:nonzero;stroke:none" transform="matrix(1,0,0,-1,13.5,366.434)"><tspan>←</tspan></text><text style="font-variant:normal;font-weight:normal;font-size:22.52px;font-family:'IBM Plex Sans';-inkscape-font-specification:IBMPlexSans;writing-mode:lr-tb;fill:#000000;fill-opacity:1;fill-rule:nonzero;stroke:none" transform="matrix(1,0,0,-1,42.777,366.434)"><tspan>→</tspan></text><text style="font-variant:normal;font-weight:normal;font-size:22.52px;font-family:'DejaVu Sans';-inkscape-font-specification:DejaVuSans;writing-mode:lr-tb;fill:#000000;fill-opacity:1;fill-rule:nonzero;stroke:none" transform="matrix(1,0,0,-1,72.053,366.434)"><tspan>⟳</tspan></text><path style="fill:#ffffff;fill-opacity:1;fill-rule:nonzero;stroke:none" d="m 102.59,363.68 v 22.773 c 0,0.465 0.09,0.91 0.265,1.34 0.18,0.43 0.434,0.809 0.762,1.137 0.328,0.328 0.707,0.582 1.137,0.761 0.43,0.176 0.875,0.266 1.34,0.266 h 404.863 c 0.465,0 0.914,-0.09 1.344,-0.266 0.429,-0.179 0.808,-0.433 1.137,-0.761 0.328,-0.328 0.582,-0.707 0.757,-1.137 0.18,-0.43 0.27,-0.875 0.27,-1.34 V 363.68 c 0,-0.465 -0.09,-0.91 -0.27,-1.34 -0.175,-0.43 -0.429,-0.809 -0.757,-1.137 -0.329,-0.328 -0.708,-0.582 -1.137,-0.762 -0.43,-0.175 -0.879,-0.265 -1.344,-0.265 H 106.094 c -0.465,0 -0.91,0.09 -1.34,0.265 -0.43,0.18 -0.809,0.434 -1.137,0.762 -0.328,0.328 -0.582,0.707 -0.762,1.137 -0.175,0.43 -0.265,0.875 -0.265,1.34 z"/><g transform="matrix(1,0,0,-1,0,440)"><path style="fill:none;stroke:#808080;stroke-width:0.751;stroke-linecap:butt;stroke-linejoin:miter;stroke-miterlimit:10;stroke-dasharray:none;stroke-opacity:1" d="M 102.469,76.32 V 53.547 c 0,-0.481 0.09,-0.942 0.273,-1.387 0.184,-0.445 0.446,-0.836 0.789,-1.176 0.34,-0.343 0.731,-0.605 1.176,-0.789 0.445,-0.183 0.906,-0.277 1.387,-0.277 h 404.863 c 0.484,0 0.945,0.094 1.391,0.277 0.445,0.184 0.836,0.446 1.175,0.789 0.34,0.34 0.602,0.731 0.789,1.176 0.184,0.445 0.274,0.906 0.274,1.387 V 76.32 c 0,0.481 -0.09,0.942 -0.274,1.387 -0.187,0.445 -0.449,0.836 -0.789,1.176 -0.339,0.34 -0.73,0.605 -1.175,0.789 -0.446,0.183 -0.907,0.273 -1.391,0.273 H 106.094 c -0.481,0 -0.942,-0.09 -1.387,-0.273 -0.445,-0.184 -0.836,-0.449 -1.176,-0.789 -0.343,-0.34 -0.605,-0.731 -0.789,-1.176 -0.183,-0.445 -0.273,-0.906 -0.273,-1.387 z"/></g><text style="font-variant:normal;font-weight:normal;font-size:16.215px;font-family:'IBM Plex Sans';-inkscape-font-specification:IBMPlexSans;writing-mode:lr-tb;fill:#000000;fill-opacity:1;fill-rule:nonzero;stroke:none" transform="matrix(1,0,0,-1,111.076,368.686)"><tspan x="0 9.761 15.761 21.776 31.537 39.791 44.298 48.044 54.059 63.058 71.279 80.327 94.596 104.357 108.848 117.864 122.371 130.624 139.64 153.892 159.908 169.669 178.668 187.683">https://example.com/page</tspan></text><text style="font-variant:normal;font-weight:normal;font-size:22.52px;font-family:'DejaVu Sans';-inkscape-font-specification:DejaVuSans;writing-mode:lr-tb;fill:#000000;fill-opacity:1;fill-rule:nonzero;stroke:none" transform="matrix(1,0,0,-1,523.231,366.434)"><tspan>☰</tspan></text><text style="font-variant:normal;font-weight:600;font-size:28.023px;font-family:'IBM Plex Sans SemiBold';-inkscape-font-specification:IBMPlexSans-SemiBold;writing-mode:lr-tb;fill:#000000;fill-opacity:1;fill-rule:nonzero;stroke:none" transform="matrix(1,0,0,-1,32.021,298.123)"><tspan x="0 14.264 30.04 41.277 57.054 81.826 88.58 96.09 112.623 126.13 142.607">Lorem ipsum</tspan></text><text style="font-variant:normal;font-weight:normal;font-size:18.016px;font-family:'IBM Plex Sans';-inkscape-font-specification:IBMPlexSans;writing-mode:lr-tb;fill:#000000;fill-opacity:1;fill-rule:nonzero;stroke:none" transform="matrix(1,0,0,-1,32.021,253.082)"><tspan x="0 9.026 18.773 25.529 35.276 51.058 55.562 60.066 70.569 79.577 90.081 105.809 110.349 120.87 130.635 135.878 145.643 152.399 156.903 165.911 170.415 176.414 180.918 190.683 206.411 216.212 222.211 227.472 231.976 240.984 250.749 261.253 270.261 280.025 289.033 295.033 304.798 310.797 321.318 328.074 332.579 342.325 352.847 357.351 367.854 372.358 381.366 390.374 394.878 405.4 415.147 419.651 429.415 434.676 439.18 445.18">Lorem ipsum dolor sit amet, consectetur adipiscing elit.</tspan><tspan y="24.022" x="0 12.737 23.277 28.52 33.78 43.545 48.049 53.31 63.057 72.065 76.569 87.09 91.594 101.341 105.845 111.862 121.609 137.391 147.895 158.398 167.406 171.91 181.675 190.683 195.944 200.448 209.456 213.96 219.959 224.463 234.228 249.956 259.757 265.757 270.261 280.764 291.285 296.528 305.554 310.058 320.562 330.327 337.083 341.587 351.333 360.341 366.359 371.602 376.106 388.843 399.382 404.643 409.904 419.651 424.155 434.676 440.676 445.18 451.179 461.7 468.456 478.96 483.464">Nulla lacinia tempus ex, sit amet pulvinar est. Nulla ut turpis</tspan><tspan y="48.043" x="0 10.503 21.025 30.772 37.528 47.292 53.31 60.066 69.813 75.073 79.577 88.586 97.594 107.358 112.601 122.366 129.122 133.626 142.634 153.155 163.659 173.424 177.928 188.431 198.196 203.439 213.203 219.959 224.463 228.968 239.489 244.732 249.236 259.757 269.504 280.025 284.529 295.033 305.536 314.562 319.066 324.309 328.813 339.335 349.081 355.837 365.602 370.863 375.367 386.627 396.374 406.895 416.66 426.407 436.928 441.432 450.44 460.187">pharetra, scelerisque dolor id, dapibus libero. Aenean sed</tspan><tspan y="72.065" x="0 5.261 15.007 24.016 34.537 43.545 48.049 52.553 68.281 78.821 88.586 95.342 105.845 110.349 120.114 126.113 131.374 135.878 146.399 153.155 162.902 168.92 173.424 183.927 199.655 204.195 208.699 219.221 228.229 234.228 243.993 248.497 257.505 262.009 268.009 277.773 287.52 292.781 297.285 306.293 316.058 326.561 337.083 341.587 357.315 367.098 377.619 383.618 394.14 409.868 414.408 424.911 429.415 438.424 442.928">lacus imperdiet, pretium justo vitae, condimentum nisi.</tspan><tspan y="96.086" x="0 14.269 24.016 33.78 42.788 52.553 63.057 72.821 81.829 86.333 92.333 102.098 107.358 112.601 123.123 132.131 136.635 147.138 157.66 162.164 167.406 171.91 181.675 190.683 199.691 210.195 225.977 234.985 244.732 255.253 259.757 268.765 278.512 289.033 293.537 302.546 312.31 322.814 331.822 341.587 346.829 352.09 356.594 365.602 370.106 374.61 385.114 390.374 394.878 405.4 415.147 425.668 430.172 440.676 451.179">Maecenas tellus dui, accumsan sed convallis in, dapibus</tspan><tspan y="120.108" x="0 9.765 19.512 29.276 35.276 39.78 49.544 60.066 64.57 74.317 79.577 84.081 96.098 105.845 116.366 126.113 135.175 139.643 145.643 156.146 162.902 173.424 177.928 186.936 191.44 196.683 206.447 215.455 225.977 234.985 240.228">eget odio. Donec turpis lacus, </tspan></text><text style="font-variant:normal;font-weight:normal;font-size:18.016px;font-family:'IBM Plex Sans';-inkscape-font-specification:IBMPlexSans;writing-mode:lr-tb;fill:#000000;fill-opacity:1;fill-rule:nonzero;stroke:none" transform="matrix(1,0,0,-1,276.753,132.974)"><tspan>ﬁ</tspan></text><text style="font-variant:normal;font-weight:normal;font-size:18.016px;font-family:'IBM Plex Sans';-inkscape-font-specification:IBMPlexSans;writing-mode:lr-tb;fill:#000000;fill-opacity:1;fill-rule:nonzero;stroke:none" transform="matrix(1,0,0,-1,287.274,132.974)"><tspan x="0 10.503 15.007 25.511 36.032 45.04 49.544 59.309 65.309 69.813 78.821 88.586 95.342 99.846 110.349 119.357 123.861 139.589 149.39 158.398 162.902 178.63 189.17 198.178">nibus at varius maximus,</tspan><tspan y="24.022" x="-255.253 -246.245 -241.741 -232.733 -222.968 -216.212 -209.456 -199.691 -195.187 -186.179 -181.675 -175.676 -171.172 -161.407 -145.679 -135.896 -129.879 -125.375 -114.871 -110.367 -101.359 -96.855 -91.594 -87.09 -76.623 -66.065 -57.057 -46.554 -36.789 -26.286 -15.764 -11.26 -2.252 6.756 16.503 21.007 31.528 37.528 42.032 52.553 57.057 66.804 82.532 87.072 93.828 98.332 107.34 117.862 126.87 132.113 136.635 147.138 156.903 165.911 171.91 176.414 186.918 197.439 202.682 213.203">viverra sit amet nisi. Suspendisse ut diam risus. Vestibulum</tspan><tspan y="48.043" x="-255.253 -246.245 -236.48 -225.977 -215.473 -210.969 -195.187 -185.44 -174.919 -168.92 -158.416 -142.688 -138.148 -127.627 -120.87 -110.367 -100.602 -96.098 -87.09 -82.586 -76.587 -66.822 -57.057 -52.553 -42.806 -36.032 -27.024 -16.521 -12.017 -5.261 5.243 15.007 25.511 34.519 45.04 54.049 59.309 63.813 73.56 84.081 88.586 97.594 113.322 123.105 133.626 138.13 142.634 158.362 168.902 178.666 185.422 195.926 200.43 210.195">condimentum urna vitae arcu rhoncus, euismod imperdiet</tspan><tspan y="72.065" x="-255.253 -239.525 -229.724 -220.716 -211.708 -201.943 -197.439 -188.431 -178.684 -168.163 -159.155 -149.408 -138.887 -128.383 -118.618 -112.619 -107.358 -102.854 -91.594 -81.829 -76.587 -71.326 -61.561 -51.058 -45.058 -35.294 -26.286 -15.764 -5.261 4.504 9.008 19.512 30.015 35.276 44.284 48.788 59.309 69.056 75.812 80.316 90.081 100.584 109.592 115.61 125.357 132.113 136.617 146.381 153.137 162.902">massa consequat. Pellentesque pulvinar auctor eros</tspan><tspan y="96.086" x="-255.253 -246.245 -236.48 -231.238 -225.977 -221.473 -212.465 -207.961 -201.943 -191.44 -180.936 -176.432 -165.911 -161.407 -156.164 -146.399 -135.896 -126.131 -119.375 -113.358 -108.854 -99.846">sollicitudin lobortis.</tspan></text></g></g></g></g></g></g></svg>
