<?xml version="1.0" encoding="utf-8"?>
<svg xmlns:dc="http://purl.org/dc/elements/1.1/" xmlns:cc="http://creativecommons.org/ns#" xmlns:rdf="http://www.w3.org/1999/02/22-rdf-syntax-ns#" xmlns:svg="http://www.w3.org/2000/svg" xmlns="http://www.w3.org/2000/svg" viewBox="0 0 742.66656 586.52643" height="586.526" width="742.667" xml:space="preserve" version="1.1"><defs><clipPath id="clipPath22" clipPathUnits="userSpaceOnUse"><path d="M 0,0 H 557 V 440 H 0 Z"/></clipPath></defs><g transform="matrix(1.333,0,0,-1.333,0,586.526)"><g><g transform="translate(0,-0.105)"><g><g clip-path="url(#clipPath22)"><g><path style="fill:#d3d3d3;fill-opacity:1;fill-rule:nonzero;stroke:none" d="M 0,440 H 557 V 0.105 H 0 Z"/><path style="fill:#eeeeee;fill-opacity:1;fill-rule:nonzero;stroke:none" d="m 0,440 h 557 v -2.254 H 0 Z"/><path style="fill:#9a9a9a;fill-opacity:1;fill-rule:nonzero;stroke:none" d="M 0,2.355 H 557 V 0.105 H 0 Z"/><path style="fill:#9a9a9a;fill-opacity:1;fill-rule:nonzero;stroke:none" d="M 554.746,437.746 V 0.105 H 557 V 440"/><path style="fill:#eeeeee;fill-opacity:1;fill-rule:nonzero;stroke:none" d="M 0,440 V 0.105 l 2.254,2.25 V 440"/><path style="fill:#00008b;fill-opacity:1;fill-rule:nonzero;stroke:none" d="M 5.254,434.746 H 551.746 V 396.461 H 5.254 Z"/><path style="fill:#d3d3d3;fill-opacity:1;fill-rule:nonzero;stroke:none" d="M 5.254,396.461 H 551.746 V 353.672 H 5.254 Z"/><path style="fill:#ffffff;fill-opacity:1;fill-rule:nonzero;stroke:none" d="M 5.254,353.672 H 551.746 V 5.36 H 5.254 Z"/><path style="fill:#9a9a9a;fill-opacity:1;fill-rule:nonzero;stroke:none" d="m 5.254,353.672 h 546.492 v -2.25 H 5.254 Z"/><path style="fill:#eeeeee;fill-opacity:1;fill-rule:nonzero;stroke:none" d="M 5.254,7.613 H 551.746 V 5.359 H 5.254 Z"/><path style="fill:#eeeeee;fill-opacity:1;fill-rule:nonzero;stroke:none" d="M 549.492,351.422 V 5.359 h 2.254 v 348.313"/><path style="fill:#9a9a9a;fill-opacity:1;fill-rule:nonzero;stroke:none" d="M 5.254,353.672 V 5.359 l 2.254,2.254 v 346.059"/><path style="fill:#d3d3d3;fill-opacity:1;fill-rule:nonzero;stroke:none" d="m 517.215,430.242 h 30.027 v -30.027 h -30.027 z"/><path style="fill:#ffffff;fill-opacity:1;fill-rule:nonzero;stroke:none" d="m 517.215,430.242 h 30.027 v -3.754 h -30.027 z"/><path style="fill:#ababab;fill-opacity:1;fill-rule:nonzero;stroke:none" d="m 517.215,403.969 h 30.027 v -3.754 h -30.027 z"/><path style="fill:#ababab;fill-opacity:1;fill-rule:nonzero;stroke:none" d="m 543.488,426.488 v -26.273 h 3.754 v 30.027"/><path style="fill:#ffffff;fill-opacity:1;fill-rule:nonzero;stroke:none" d="m 517.215,430.242 v -30.027 l 3.754,3.754 v 26.273"/><text style="font-variant:normal;font-weight:normal;font-size:18.016px;font-family:'DejaVu Sans';-inkscape-font-specification:DejaVuSans;writing-mode:lr-tb;fill:#000000;fill-opacity:1;fill-rule:nonzero;stroke:none" transform="matrix(1,0,0,-1,524.979,409.222)"><tspan>✕</tspan></text><text style="font-variant:normal;font-weight:600;font-size:18.016px;font-family:'IBM Plex Sans SemiBold';-inkscape-font-specification:IBMPlexSans-SemiBold;writing-mode:lr-tb;fill:#ffffff;fill-opacity:1;fill-rule:nonzero;stroke:none" transform="matrix(1,0,0,-1,9.501,408.472)"><tspan x="0 9.765 20.268 27.024 36.789 52.553 57.057 64.57 75.073 84.063 94.585 110.349 114.853 121.627 126.131 138.13 150.147 162.902 167.406 178.666 186.179 196.683">Lorem Ipsum | BAD SITE</tspan></text><text style="font-variant:normal;font-weight:normal;font-size:22.52px;font-family:'IBM Plex Sans';-inkscape-font-specification:IBMPlexSans;writing-mode:lr-tb;fill:#000000;fill-opacity:1;fill-rule:nonzero;stroke:none" transform="matrix(1,0,0,-1,13.5,366.434)"><tspan>←</tspan></text><text style="font-variant:normal;font-weight:normal;font-size:22.52px;font-family:'IBM Plex Sans';-inkscape-font-specification:IBMPlexSans;writing-mode:lr-tb;fill:#000000;fill-opacity:1;fill-rule:nonzero;stroke:none" transform="matrix(1,0,0,-1,42.777,366.434)"><tspan>→</tspan></text><text style="font-variant:normal;font-weight:normal;font-size:22.52px;font-family:'DejaVu Sans';-inkscape-font-specification:DejaVuSans;writing-mode:lr-tb;fill:#000000;fill-opacity:1;fill-rule:nonzero;stroke:none" transform="matrix(1,0,0,-1,72.053,366.434)"><tspan>⟳</tspan></text><path style="fill:#ffffff;fill-opacity:1;fill-rule:nonzero;stroke:none" d="m 102.59,363.68 v 22.773 c 0,0.465 0.09,0.91 0.265,1.34 0.18,0.43 0.434,0.809 0.762,1.137 0.328,0.328 0.707,0.582 1.137,0.761 0.43,0.176 0.875,0.266 1.34,0.266 h 404.863 c 0.465,0 0.914,-0.09 1.344,-0.266 0.429,-0.179 0.808,-0.433 1.137,-0.761 0.328,-0.328 0.582,-0.707 0.757,-1.137 0.18,-0.43 0.27,-0.875 0.27,-1.34 V 363.68 c 0,-0.465 -0.09,-0.91 -0.27,-1.34 -0.175,-0.43 -0.429,-0.809 -0.757,-1.137 -0.329,-0.328 -0.708,-0.582 -1.137,-0.762 -0.43,-0.175 -0.879,-0.265 -1.344,-0.265 H 106.094 c -0.465,0 -0.91,0.09 -1.34,0.265 -0.43,0.18 -0.809,0.434 -1.137,0.762 -0.328,0.328 -0.582,0.707 -0.762,1.137 -0.175,0.43 -0.265,0.875 -0.265,1.34 z"/><g transform="matrix(1,0,0,-1,0,440)"><path style="fill:none;stroke:#808080;stroke-width:0.751;stroke-linecap:butt;stroke-linejoin:miter;stroke-miterlimit:10;stroke-dasharray:none;stroke-opacity:1" d="M 102.469,76.32 V 53.547 c 0,-0.481 0.09,-0.942 0.273,-1.387 0.184,-0.445 0.446,-0.836 0.789,-1.176 0.34,-0.343 0.731,-0.605 1.176,-0.789 0.445,-0.183 0.906,-0.277 1.387,-0.277 h 404.863 c 0.484,0 0.945,0.094 1.391,0.277 0.445,0.184 0.836,0.446 1.175,0.789 0.34,0.34 0.602,0.731 0.789,1.176 0.184,0.445 0.274,0.906 0.274,1.387 V 76.32 c 0,0.481 -0.09,0.942 -0.274,1.387 -0.187,0.445 -0.449,0.836 -0.789,1.176 -0.339,0.34 -0.73,0.605 -1.175,0.789 -0.446,0.183 -0.907,0.273 -1.391,0.273 H 106.094 c -0.481,0 -0.942,-0.09 -1.387,-0.273 -0.445,-0.184 -0.836,-0.449 -1.176,-0.789 -0.343,-0.34 -0.605,-0.731 -0.789,-1.176 -0.183,-0.445 -0.273,-0.906 -0.273,-1.387 z"/></g><text style="font-variant:normal;font-weight:normal;font-size:16.215px;font-family:'IBM Plex Sans';-inkscape-font-specification:IBMPlexSans;writing-mode:lr-tb;fill:#000000;fill-opacity:1;fill-rule:nonzero;stroke:none" transform="matrix(1,0,0,-1,111.076,368.686)"><tspan x="0 9.761 15.761 21.776 31.537 39.791 44.298 48.044 54.059 63.058 71.279 80.327 94.596 104.357 108.848 117.864 122.371 130.624 139.64 153.892 159.908 169.669 178.668 187.683">https://example.com/page</tspan></text><text style="font-variant:normal;font-weight:normal;font-size:22.52px;font-family:'DejaVu Sans';-inkscape-font-specification:DejaVuSans;writing-mode:lr-tb;fill:#000000;fill-opacity:1;fill-rule:nonzero;stroke:none" transform="matrix(1,0,0,-1,523.231,366.434)"><tspan>☰</tspan></text><text style="font-variant:normal;font-weight:600;font-size:28.023px;font-family:'IBM Plex Sans SemiBold';-inkscape-font-specification:IBMPlexSans-SemiBold;writing-mode:lr-tb;fill:#000000;fill-opacity:1;fill-rule:nonzero;stroke:none" transform="matrix(1,0,0,-1,32.021,298.123)"><tspan x="0 14.264 30.04 41.277 57.054 81.826 88.58 96.09 112.623 126.13 142.607">Lorem ipsum</tspan></text><text style="font-variant:normal;font-weight:normal;font-size:18.016px;font-family:'IBM Plex Sans';-inkscape-font-specification:IBMPlexSans;writing-mode:lr-tb;fill:#000000;fill-opacity:1;fill-rule:nonzero;stroke:none" transform="matrix(1,0,0,-1,32.021,253.082)"><tspan x="0 9.026 18.773 25.529 35.276 51.058 61.561 66.065 76.569 85.577 96.098 111.826 122.366 132.869 142.634 147.895 157.66 164.416 174.919 183.927 188.431 194.431 204.952 214.699 230.427 240.228 246.245 251.488 262.009 271.017 280.764 291.285 300.294 310.04 319.048 325.066 334.831 340.83 351.333 358.089 368.611 378.358 388.879 393.383 403.887 408.391 417.399 426.407 430.911 441.432 451.179 461.7 471.447 476.708 481.212 487.211">Lorem ipsum dolor sit amet, consectetur adipiscing elit.</tspan><tspan y="24.022" x="0 12.737 23.277 28.52 33.78 43.545 48.049 53.31 63.057 72.065 76.569 87.09 91.594 101.341 105.845 111.862 121.609 137.391 147.895 158.398 167.406 171.91 181.675 190.683 195.944 200.448 209.456 213.96 219.959 224.463 234.228 249.956 259.757 265.757 270.261 280.764 291.285 296.528 305.554 310.058 320.562 330.327 337.083 341.587 351.333 360.341 366.359 371.602 376.106 388.843 399.382 404.643 409.904 419.651 424.155 434.676 440.676 445.18 451.179 461.7 468.456 478.96 483.464">Nulla lacinia tempus ex, sit amet pulvinar est. Nulla ut turpis</tspan><tspan y="48.043" x="0 10.503 21.025 30.772 37.528 47.292 53.31 60.066 69.813 75.073 82.694 91.702 100.71 110.457 115.718 125.483 132.239 136.743 145.751 156.254 166.776 176.522 184.143 194.647 204.411 209.672 219.419 226.175 233.796 238.3 248.803 254.064 261.685 272.188 281.953 292.457 296.961 307.482 317.985 326.994 334.614 339.857 344.361 354.883 364.629 371.385 381.15 386.411 394.014 405.274 415.039 425.56 435.307 445.072 455.575 463.196 472.204 481.969">pharetra, scelerisque dolor id, dapibus libero. Aenean sed</tspan><tspan y="72.065" x="0 5.261 15.007 24.016 34.537 43.545 55.436 59.94 75.668 86.207 95.972 102.728 113.232 117.736 127.5 133.5 138.761 150.651 161.155 167.911 177.675 183.675 188.179 198.682 214.464 226.337 230.841 241.363 250.371 256.37 266.135 278.026 287.034 291.538 297.537 307.302 317.049 322.309 334.2 343.208 352.973 363.476 373.98 378.484 394.212 404.013 414.516 420.533 431.037 446.765 458.692 469.195 473.699 482.707 487.211">lacus imperdiet, pretium justo vitae, condimentum nisi.</tspan><tspan y="96.086" x="0 14.269 24.016 33.78 42.788 52.553 63.057 72.821 81.829 90.946 96.945 106.71 111.971 117.213 127.735 136.743 145.859 156.362 166.884 171.388 176.631 185.747 195.511 204.52 213.528 224.031 239.759 248.803 258.568 269.072 278.188 287.196 296.961 307.482 316.598 325.606 335.353 345.874 354.883 364.629 369.89 375.151 379.655 388.663 397.779 402.283 412.787 418.047 427.163 437.667 447.432 457.935 462.439 472.961 483.464">Maecenas tellus dui, accumsan sed convallis in, dapibus</tspan><tspan y="120.108" x="0 9.765 19.512 29.276 35.276 44.014 53.778 64.282 68.786 78.551 83.793 92.531 104.53 114.295 124.816 134.563 143.571 152.309 158.308 168.812 175.568 186.089 190.593 199.601 208.321 213.582 223.346 232.355 242.858 251.866 257.127">eget odio. Donec turpis lacus, </tspan></text><text style="font-variant:normal;font-weight:normal;font-size:18.016px;font-family:'IBM Plex Sans';-inkscape-font-specification:IBMPlexSans;writing-mode:lr-tb;fill:#000000;fill-opacity:1;fill-rule:nonzero;stroke:none" transform="matrix(1,0,0,-1,297.868,132.974)"><tspan>ﬁ</tspan></text><text style="font-variant:normal;font-weight:normal;font-size:18.016px;font-family:'IBM Plex Sans';-inkscape-font-specification:IBMPlexSans;writing-mode:lr-tb;fill:#000000;fill-opacity:1;fill-rule:nonzero;stroke:none" transform="matrix(1,0,0,-1,308.389,132.974)"><tspan x="0 10.503 15.007 25.511 36.032 45.04 53.76 63.525 69.524 78.262 87.27 97.017 103.773 108.277 118.799 127.807 136.527 152.255 162.055 171.064 175.568 191.296 201.835 210.843">nibus at varius maximus,</tspan><tspan y="24.022" x="-276.368 -267.36 -262.856 -253.848 -244.083 -237.327 -230.571 -220.806 -215.275 -206.267 -201.763 -195.764 -190.215 -180.468 -164.74 -154.939 -148.94 -143.391 -132.887 -128.383 -119.375 -114.871 -109.61 -104.079 -93.558 -83.055 -74.046 -63.543 -53.778 -43.275 -32.753 -28.249 -19.241 -10.233 -0.468 5.063 15.566 21.583 27.114 37.618 42.122 51.887 67.615 73.182 79.938 84.442 93.45 103.971 112.979 118.24 123.771 134.275 144.039 153.047 159.047 163.551 174.072 184.576 189.836 200.34">viverra sit amet nisi. Suspendisse ut diam risus. Vestibulum</tspan><tspan y="48.043" x="-276.368 -267.36 -257.595 -247.092 -236.588 -232.084 -216.302 -206.555 -196.034 -190.035 -179.531 -163.803 -155.75 -145.246 -138.49 -127.969 -118.222 -110.205 -101.197 -96.693 -90.693 -80.929 -71.164 -63.165 -53.4 -46.644 -37.636 -27.132 -19.115 -12.359 -1.856 7.909 18.413 27.421 37.942 46.95 52.193 60.21 69.957 80.478 84.982 93.99 109.718 119.519 130.023 138.04 142.544 158.272 168.812 178.576 185.332 195.836 200.34 210.105">condimentum urna vitae arcu rhoncus, euismod imperdiet</tspan><tspan y="72.065" x="-276.368 -260.64 -250.839 -241.831 -232.823 -223.058 -205.492 -196.484 -186.738 -176.216 -167.208 -157.461 -146.94 -136.436 -126.672 -120.672 -115.412 -97.846 -86.586 -76.821 -71.578 -66.318 -56.553 -46.049 -40.05 -30.285 -21.277 -10.756 -0.252 9.513 27.078 37.582 48.085 53.346 62.354 66.858 77.379 87.126 93.882 111.448 121.213 131.716 140.724 146.742 156.488 163.245 180.81 190.575 197.331 207.096">massa consequat. Pellentesque pulvinar auctor eros</tspan><tspan y="96.086" x="-276.368 -267.36 -257.595 -252.353 -247.092 -242.588 -233.58 -229.076 -223.058 -212.555 -202.051 -197.547 -187.026 -182.522 -177.279 -167.514 -157.011 -147.246 -140.49 -134.473 -129.969 -120.961">sollicitudin lobortis.</tspan></text></g></g></g></g></g></g></svg>
