<?xml version="1.0" encoding="utf-8"?>
<svg xmlns:dc="http://purl.org/dc/elements/1.1/" xmlns:cc="http://creativecommons.org/ns#" xmlns:rdf="http://www.w3.org/1999/02/22-rdf-syntax-ns#" xmlns:svg="http://www.w3.org/2000/svg" xmlns="http://www.w3.org/2000/svg" viewBox="0 0 742.66656 440.39526" height="440.395" width="742.667" xml:space="preserve" version="1.1"><defs><clipPath id="clipPath22" clipPathUnits="userSpaceOnUse"><path d="M 0,0 H 557 V 331 H 0 Z"/></clipPath></defs><g transform="matrix(1.333,0,0,-1.333,0,440.395)"><g><g transform="translate(0,-0.704)"><g><g clip-path="url(#clipPath22)"><g><path style="fill:#d3d3d3;fill-opacity:1;fill-rule:nonzero;stroke:none" d="m 0,331 h 557 v -3.754 H 0 Z"/><path style="fill:#7f7f7f;fill-opacity:1;fill-rule:nonzero;stroke:none" d="M 0,4.457 H 557 V 0.703 H 0 Z"/><path style="fill:#7f7f7f;fill-opacity:1;fill-rule:nonzero;stroke:none" d="M 553.246,327.246 V 0.703 H 557 V 331"/><path style="fill:#d3d3d3;fill-opacity:1;fill-rule:nonzero;stroke:none" d="M 0,331 V 0.703 L 3.754,4.457 V 331"/><path style="fill:#00008b;fill-opacity:1;fill-rule:nonzero;stroke:none" d="M 3.754,327.246 H 553.246 V 288.961 H 3.754 Z"/><path style="fill:#d3d3d3;fill-opacity:1;fill-rule:nonzero;stroke:none" d="M 3.754,288.961 H 553.246 V 246.176 H 3.754 Z"/><path style="fill:#d3d3d3;fill-opacity:1;fill-rule:nonzero;stroke:none" d="m 518.715,322.742 h 30.027 v -30.027 h -30.027 z"/><path style="fill:#ffffff;fill-opacity:1;fill-rule:nonzero;stroke:none" d="m 518.715,322.742 h 30.027 v -3.754 h -30.027 z"/><path style="fill:#ababab;fill-opacity:1;fill-rule:nonzero;stroke:none" d="m 518.715,296.469 h 30.027 v -3.754 h -30.027 z"/><path style="fill:#ababab;fill-opacity:1;fill-rule:nonzero;stroke:none" d="m 544.988,318.988 v -26.273 h 3.754 v 30.027"/><path style="fill:#ffffff;fill-opacity:1;fill-rule:nonzero;stroke:none" d="m 518.715,322.742 v -30.027 l 3.754,3.754 v 26.273"/><text style="font-variant:normal;font-weight:normal;font-size:18.016px;font-family:'DejaVu Sans';-inkscape-font-specification:DejaVuSans;writing-mode:lr-tb;fill:#000000;fill-opacity:1;fill-rule:nonzero;stroke:none" transform="matrix(1,0,0,-1,526.48,301.724)"><tspan>✕</tspan></text><text style="font-variant:normal;font-weight:600;font-size:18.016px;font-family:'IBM Plex Sans SemiBold';-inkscape-font-specification:IBMPlexSans-SemiBold;writing-mode:lr-tb;fill:#ffffff;fill-opacity:1;fill-rule:nonzero;stroke:none" transform="matrix(1,0,0,-1,7.999,300.973)"><tspan x="0 9.765 20.268 27.024 36.789 52.553 57.057 62.318 72.821 81.811 92.333 108.097 112.601 119.375 123.879 136.635 149.39 162.164 174.919 179.423 190.683 198.196 208.699">Lorem ipsum | GOOD SITE</tspan></text><text style="font-variant:normal;font-weight:normal;font-size:22.52px;font-family:'IBM Plex Sans';-inkscape-font-specification:IBMPlexSans;writing-mode:lr-tb;fill:#000000;fill-opacity:1;fill-rule:nonzero;stroke:none" transform="matrix(1,0,0,-1,11.999,258.935)"><tspan>←</tspan></text><text style="font-variant:normal;font-weight:normal;font-size:22.52px;font-family:'IBM Plex Sans';-inkscape-font-specification:IBMPlexSans;writing-mode:lr-tb;fill:#000000;fill-opacity:1;fill-rule:nonzero;stroke:none" transform="matrix(1,0,0,-1,41.275,258.935)"><tspan>→</tspan></text><text style="font-variant:normal;font-weight:normal;font-size:22.52px;font-family:'DejaVu Sans';-inkscape-font-specification:DejaVuSans;writing-mode:lr-tb;fill:#000000;fill-opacity:1;fill-rule:nonzero;stroke:none" transform="matrix(1,0,0,-1,70.552,258.935)"><tspan>⟳</tspan></text><path style="fill:#ffffff;fill-opacity:1;fill-rule:nonzero;stroke:none" d="m 101.09,256.184 v 22.769 c 0,0.465 0.086,0.91 0.265,1.34 0.18,0.43 0.43,0.809 0.762,1.141 0.328,0.328 0.707,0.582 1.137,0.757 0.43,0.18 0.875,0.266 1.34,0.266 h 407.867 c 0.465,0 0.91,-0.086 1.34,-0.266 0.429,-0.175 0.808,-0.429 1.137,-0.757 0.328,-0.332 0.582,-0.711 0.761,-1.141 0.176,-0.43 0.266,-0.875 0.266,-1.34 v -22.769 c 0,-0.465 -0.09,-0.914 -0.266,-1.344 -0.179,-0.43 -0.433,-0.809 -0.761,-1.137 -0.329,-0.328 -0.708,-0.582 -1.137,-0.758 -0.43,-0.179 -0.875,-0.265 -1.34,-0.265 H 104.594 c -0.465,0 -0.91,0.086 -1.34,0.265 -0.43,0.176 -0.809,0.43 -1.137,0.758 -0.332,0.328 -0.582,0.707 -0.762,1.137 -0.179,0.43 -0.265,0.879 -0.265,1.344 z"/><g transform="matrix(1,0,0,-1,0,331)"><path style="fill:none;stroke:#808080;stroke-width:0.751;stroke-linecap:butt;stroke-linejoin:miter;stroke-miterlimit:10;stroke-dasharray:none;stroke-opacity:1" d="M 100.965,74.816 V 52.047 c 0,-0.481 0.094,-0.945 0.277,-1.387 0.184,-0.445 0.446,-0.84 0.785,-1.18 0.34,-0.339 0.735,-0.601 1.18,-0.785 0.441,-0.183 0.906,-0.277 1.387,-0.277 h 407.867 c 0.48,0 0.941,0.094 1.387,0.277 0.445,0.184 0.836,0.446 1.179,0.785 0.34,0.34 0.602,0.735 0.785,1.18 0.184,0.442 0.278,0.906 0.278,1.387 v 22.769 c 0,0.481 -0.094,0.946 -0.278,1.391 -0.183,0.441 -0.445,0.836 -0.785,1.176 -0.343,0.34 -0.734,0.601 -1.179,0.785 -0.446,0.184 -0.907,0.277 -1.387,0.277 H 104.594 c -0.481,0 -0.946,-0.093 -1.387,-0.277 -0.445,-0.184 -0.84,-0.445 -1.18,-0.785 -0.339,-0.34 -0.601,-0.735 -0.785,-1.176 -0.183,-0.445 -0.277,-0.91 -0.277,-1.391 z"/></g><text style="font-variant:normal;font-weight:normal;font-size:16.215px;font-family:'IBM Plex Sans';-inkscape-font-specification:IBMPlexSans;writing-mode:lr-tb;fill:#000000;fill-opacity:1;fill-rule:nonzero;stroke:none" transform="matrix(1,0,0,-1,109.575,261.187)"><tspan x="0 9.761 15.761 21.776 31.537 39.791 44.298 48.044 54.059 63.058 71.279 80.327 94.596 104.357 108.848 117.864 122.371 130.624 139.64 153.892">https://example.com/</tspan></text><text style="font-variant:normal;font-weight:normal;font-size:22.52px;font-family:'DejaVu Sans';-inkscape-font-specification:DejaVuSans;writing-mode:lr-tb;fill:#000000;fill-opacity:1;fill-rule:nonzero;stroke:none" transform="matrix(1,0,0,-1,524.733,258.935)"><tspan>☰</tspan></text><text style="font-variant:normal;font-weight:600;font-size:28.023px;font-family:'IBM Plex Sans SemiBold';-inkscape-font-specification:IBMPlexSans-SemiBold;writing-mode:lr-tb;fill:#000000;fill-opacity:1;fill-rule:nonzero;stroke:none" transform="matrix(1,0,0,-1,28.021,193.627)"><tspan x="0 14.264 30.04 41.277 57.054 81.826 88.58 96.09 112.623 126.13 142.607">Lorem ipsum</tspan></text><text style="font-variant:normal;font-weight:normal;font-size:18.016px;font-family:'IBM Plex Sans';-inkscape-font-specification:IBMPlexSans;writing-mode:lr-tb;fill:#000000;fill-opacity:1;fill-rule:nonzero;stroke:none" transform="matrix(1,0,0,-1,28.021,148.586)"><tspan x="0 10.503 20.268 30.772 41.293 48.049 57.814 68.317 72.821 77.325 87.829 92.333 102.098 111.106 117.105 126.87 137.391 144.147 153.894 158.398 168.92 179.423 189.926 200.448 204.952 214.717 219.221 229.724 240.228 250.749 261.253">Vendredi 2 octobre 2020 à 11h30</tspan><tspan y="42.038" x="0 9.026 18.773 25.529 35.276 51.058 55.562 60.066 70.569 79.577 90.081 105.809 110.349 120.87 130.635 135.878 145.643 152.399 156.903 165.911 170.415 176.414 180.918 190.683 206.411 216.212 222.211 227.472 231.976 240.984 250.749 261.253 270.261 280.025 289.033 295.033 304.798 310.797 321.318 328.074 332.579 342.325 352.847 357.351 367.854 372.358 381.366 390.374 394.878 405.4 415.147 419.651 429.415 434.676 439.18 445.18 450.44 454.944 467.682 478.221 483.464 488.725">Lorem ipsum dolor sit amet, consectetur adipiscing elit. Nulla</tspan><tspan y="66.059" x="0 5.261 15.007 24.016 28.52 39.041 43.545 53.31 57.814 63.813 73.578 89.306 99.846 110.349 119.357 123.861 133.626 142.634 147.895 152.399 161.407 165.911 171.91 176.414 186.179 201.907 211.708 217.707 222.211 232.733 243.236 248.497 257.505 262.009 272.513 282.277 289.033 293.537 303.302 312.31 318.31 323.57 328.074 340.812 351.333 356.594 361.855 371.602 376.106 386.627 392.626 397.13 403.148 413.651 420.407 430.911 435.415">lacinia tempus ex, sit amet pulvinar est. Nulla ut turpis</tspan><tspan y="90.081" x="0 10.503 21.025 30.772 37.528 47.292 53.31 60.066 69.813 75.073 79.577 88.586 97.594 107.358 112.601 122.366 129.122 133.626 142.634 153.155 163.659 173.424 177.928 188.431 198.196 203.439 213.203 219.959 224.463 228.968 239.489 244.732 249.236 259.757 269.504 280.025 284.529 295.033 305.536 314.562 319.066 324.309 328.813 339.335 349.081 355.837 365.602 370.863 375.367 386.627 396.374 406.895 416.66 426.407 436.928 441.432 450.44 460.187">pharetra, scelerisque dolor id, dapibus libero. Aenean sed</tspan><tspan y="114.102" x="0 5.261 15.007 24.016 34.537 43.545 48.049 52.553 68.281 78.821 88.586 95.342 105.845 110.349 120.114 126.113 131.374 135.878 146.399 153.155 162.902 168.92 173.424 183.927 199.655 204.195 208.699 219.221 228.229 234.228 243.993 248.497 257.505 262.009 268.009 277.773 287.52 292.781 297.285 306.293 316.058 326.561 337.083 341.587 357.315 367.098 377.619 383.618 394.14 409.868 414.408 424.911 429.415 438.424 442.928">lacus imperdiet, pretium justo vitae, condimentum nisi.</tspan></text></g></g></g></g></g></g></svg>
