<?xml version="1.0" encoding="utf-8"?>
<svg xmlns:dc="http://purl.org/dc/elements/1.1/" xmlns:cc="http://creativecommons.org/ns#" xmlns:rdf="http://www.w3.org/1999/02/22-rdf-syntax-ns#" xmlns:svg="http://www.w3.org/2000/svg" xmlns="http://www.w3.org/2000/svg" viewBox="0 0 742.66656 495.4447" height="495.445" width="742.667" xml:space="preserve" version="1.1"><defs><clipPath id="clipPath22" clipPathUnits="userSpaceOnUse"><path d="M 0,0 H 557 V 372 H 0 Z"/></clipPath></defs><g transform="matrix(1.333,0,0,-1.333,0,495.445)"><g><g transform="translate(0,-0.416)"><g><g clip-path="url(#clipPath22)"><g><path style="fill:#d3d3d3;fill-opacity:1;fill-rule:nonzero;stroke:none" d="M 0,372 H 557 V 0.418 H 0 Z"/><path style="fill:#eeeeee;fill-opacity:1;fill-rule:nonzero;stroke:none" d="m 0,372 h 557 v -2.254 H 0 Z"/><path style="fill:#9a9a9a;fill-opacity:1;fill-rule:nonzero;stroke:none" d="M 0,2.668 H 557 V 0.418 H 0 Z"/><path style="fill:#9a9a9a;fill-opacity:1;fill-rule:nonzero;stroke:none" d="M 554.746,369.746 V 0.418 H 557 V 372"/><path style="fill:#eeeeee;fill-opacity:1;fill-rule:nonzero;stroke:none" d="M 0,372 V 0.418 l 2.254,2.25 V 372"/><path style="fill:#00008b;fill-opacity:1;fill-rule:nonzero;stroke:none" d="M 5.254,366.746 H 551.746 V 328.461 H 5.254 Z"/><path style="fill:#d3d3d3;fill-opacity:1;fill-rule:nonzero;stroke:none" d="M 5.254,328.461 H 551.746 V 285.672 H 5.254 Z"/><path style="fill:#ffffff;fill-opacity:1;fill-rule:nonzero;stroke:none" d="m 5.254,285.672 h 546.492 v -280 H 5.254 Z"/><path style="fill:#9a9a9a;fill-opacity:1;fill-rule:nonzero;stroke:none" d="m 5.254,285.672 h 546.492 v -2.25 H 5.254 Z"/><path style="fill:#eeeeee;fill-opacity:1;fill-rule:nonzero;stroke:none" d="M 5.254,7.922 H 551.746 V 5.672 H 5.254 Z"/><path style="fill:#eeeeee;fill-opacity:1;fill-rule:nonzero;stroke:none" d="M 549.492,283.422 V 5.672 h 2.254 v 280"/><path style="fill:#9a9a9a;fill-opacity:1;fill-rule:nonzero;stroke:none" d="m 5.254,285.672 v -280 l 2.254,2.25 v 277.75"/><path style="fill:#d3d3d3;fill-opacity:1;fill-rule:nonzero;stroke:none" d="m 517.215,362.242 h 30.027 v -30.027 h -30.027 z"/><path style="fill:#ffffff;fill-opacity:1;fill-rule:nonzero;stroke:none" d="m 517.215,362.242 h 30.027 v -3.754 h -30.027 z"/><path style="fill:#ababab;fill-opacity:1;fill-rule:nonzero;stroke:none" d="m 517.215,335.969 h 30.027 v -3.754 h -30.027 z"/><path style="fill:#ababab;fill-opacity:1;fill-rule:nonzero;stroke:none" d="m 543.488,358.488 v -26.273 h 3.754 v 30.027"/><path style="fill:#ffffff;fill-opacity:1;fill-rule:nonzero;stroke:none" d="m 517.215,362.242 v -30.027 l 3.754,3.754 v 26.273"/><text style="font-variant:normal;font-weight:normal;font-size:18.016px;font-family:'DejaVu Sans';-inkscape-font-specification:DejaVuSans;writing-mode:lr-tb;fill:#000000;fill-opacity:1;fill-rule:nonzero;stroke:none" transform="matrix(1,0,0,-1,524.979,341.222)"><tspan>✕</tspan></text><text style="font-variant:normal;font-weight:600;font-size:18.016px;font-family:'IBM Plex Sans SemiBold';-inkscape-font-specification:IBMPlexSans-SemiBold;writing-mode:lr-tb;fill:#ffffff;fill-opacity:1;fill-rule:nonzero;stroke:none" transform="matrix(1,0,0,-1,9.501,340.472)"><tspan x="0 9.765 20.268 27.024 36.789 52.553 57.057 62.318 72.821 81.811 92.333 108.097 112.601 119.375 123.879 136.635 149.39 162.164 174.919 179.423 190.683 198.196 208.699">Lorem ipsum | GOOD SITE</tspan></text><text style="font-variant:normal;font-weight:normal;font-size:22.52px;font-family:'IBM Plex Sans';-inkscape-font-specification:IBMPlexSans;writing-mode:lr-tb;fill:#000000;fill-opacity:1;fill-rule:nonzero;stroke:none" transform="matrix(1,0,0,-1,13.5,298.434)"><tspan>←</tspan></text><text style="font-variant:normal;font-weight:normal;font-size:22.52px;font-family:'IBM Plex Sans';-inkscape-font-specification:IBMPlexSans;writing-mode:lr-tb;fill:#000000;fill-opacity:1;fill-rule:nonzero;stroke:none" transform="matrix(1,0,0,-1,42.777,298.434)"><tspan>→</tspan></text><text style="font-variant:normal;font-weight:normal;font-size:22.52px;font-family:'DejaVu Sans';-inkscape-font-specification:DejaVuSans;writing-mode:lr-tb;fill:#000000;fill-opacity:1;fill-rule:nonzero;stroke:none" transform="matrix(1,0,0,-1,72.053,298.434)"><tspan>⟳</tspan></text><path style="fill:#ffffff;fill-opacity:1;fill-rule:nonzero;stroke:none" d="m 102.59,295.68 v 22.773 c 0,0.465 0.09,0.91 0.265,1.34 0.18,0.43 0.434,0.809 0.762,1.137 0.328,0.328 0.707,0.582 1.137,0.761 0.43,0.176 0.875,0.266 1.34,0.266 h 404.863 c 0.465,0 0.914,-0.09 1.344,-0.266 0.429,-0.179 0.808,-0.433 1.137,-0.761 0.328,-0.328 0.582,-0.707 0.757,-1.137 0.18,-0.43 0.27,-0.875 0.27,-1.34 V 295.68 c 0,-0.465 -0.09,-0.91 -0.27,-1.34 -0.175,-0.43 -0.429,-0.809 -0.757,-1.137 -0.329,-0.328 -0.708,-0.582 -1.137,-0.762 -0.43,-0.175 -0.879,-0.265 -1.344,-0.265 H 106.094 c -0.465,0 -0.91,0.09 -1.34,0.265 -0.43,0.18 -0.809,0.434 -1.137,0.762 -0.328,0.328 -0.582,0.707 -0.762,1.137 -0.175,0.43 -0.265,0.875 -0.265,1.34 z"/><g transform="matrix(1,0,0,-1,0,372)"><path style="fill:none;stroke:#808080;stroke-width:0.751;stroke-linecap:butt;stroke-linejoin:miter;stroke-miterlimit:10;stroke-dasharray:none;stroke-opacity:1" d="M 102.469,76.32 V 53.547 c 0,-0.481 0.09,-0.942 0.273,-1.387 0.184,-0.445 0.446,-0.836 0.789,-1.176 0.34,-0.343 0.731,-0.605 1.176,-0.789 0.445,-0.183 0.906,-0.277 1.387,-0.277 h 404.863 c 0.484,0 0.945,0.094 1.391,0.277 0.445,0.184 0.836,0.446 1.175,0.789 0.34,0.34 0.602,0.731 0.789,1.176 0.184,0.445 0.274,0.906 0.274,1.387 V 76.32 c 0,0.481 -0.09,0.942 -0.274,1.387 -0.187,0.445 -0.449,0.836 -0.789,1.176 -0.339,0.34 -0.73,0.605 -1.175,0.789 -0.446,0.183 -0.907,0.273 -1.391,0.273 H 106.094 c -0.481,0 -0.942,-0.09 -1.387,-0.273 -0.445,-0.184 -0.836,-0.449 -1.176,-0.789 -0.343,-0.34 -0.605,-0.731 -0.789,-1.176 -0.183,-0.445 -0.273,-0.906 -0.273,-1.387 z"/></g><text style="font-variant:normal;font-weight:normal;font-size:16.215px;font-family:'IBM Plex Sans';-inkscape-font-specification:IBMPlexSans;writing-mode:lr-tb;fill:#000000;fill-opacity:1;fill-rule:nonzero;stroke:none" transform="matrix(1,0,0,-1,111.076,300.686)"><tspan x="0 9.761 15.761 21.776 31.537 39.791 44.298 48.044 54.059 63.058 71.279 80.327 94.596 104.357 108.848 117.864 122.371 130.624 139.64 153.892 159.908 164.416 173.415 179.43 188.429">https://example.com/lorem</tspan></text><text style="font-variant:normal;font-weight:normal;font-size:22.52px;font-family:'DejaVu Sans';-inkscape-font-specification:DejaVuSans;writing-mode:lr-tb;fill:#000000;fill-opacity:1;fill-rule:nonzero;stroke:none" transform="matrix(1,0,0,-1,523.231,298.434)"><tspan>☰</tspan></text><text style="font-variant:normal;font-weight:600;font-size:28.023px;font-family:'IBM Plex Sans SemiBold';-inkscape-font-specification:IBMPlexSans-SemiBold;writing-mode:lr-tb;fill:#000000;fill-opacity:1;fill-rule:nonzero;stroke:none" transform="matrix(1,0,0,-1,32.021,230.123)"><tspan x="0 14.264 30.04 41.277 57.054 81.826 88.58 96.09 112.623 126.13 142.607">Lorem ipsum</tspan></text><text style="font-variant:normal;font-weight:600;font-size:24.022px;font-family:'IBM Plex Sans SemiBold';-inkscape-font-specification:IBMPlexSans-SemiBold;writing-mode:lr-tb;fill:#000000;fill-opacity:1;fill-rule:nonzero;stroke:none" transform="matrix(1,0,0,-1,32.021,178.326)"><tspan x="0 16.551 30.075 36.777 50.301 60.054 66.059 78.046 84.844 93.828 99.858 113.358 134.377 147.901">Dolor sit amet</tspan></text><text style="font-variant:normal;font-weight:normal;font-size:18.016px;font-family:'IBM Plex Sans';-inkscape-font-specification:IBMPlexSans;writing-mode:lr-tb;fill:#000000;fill-opacity:1;fill-rule:nonzero;stroke:none" transform="matrix(1,0,0,-1,32.021,132.535)"><tspan x="0 11.26 21.025 31.528 40.536 50.301 59.309 65.309 75.073 81.073 91.594 98.35 102.854 112.601 123.123 127.627 138.13 142.634 151.642 160.65 165.154 175.676 185.422 189.926 199.691 204.952 209.456 215.455">Consectetur adipiscing elit.</tspan></text><text style="font-variant:normal;font-weight:600;font-size:24.022px;font-family:'IBM Plex Sans SemiBold';-inkscape-font-specification:IBMPlexSans-SemiBold;writing-mode:lr-tb;fill:#000000;fill-opacity:1;fill-rule:nonzero;stroke:none" transform="matrix(1,0,0,-1,32.021,82.991)"><tspan x="0 17.272 31.54 38.29 45.04 58.565 64.57 73.554 87.078 108.097 122.366 136.635 148.621 154.651 168.175">Nulla tempus ex</tspan></text><text style="font-variant:normal;font-weight:normal;font-size:18.016px;font-family:'IBM Plex Sans';-inkscape-font-specification:IBMPlexSans;writing-mode:lr-tb;fill:#000000;fill-opacity:1;fill-rule:nonzero;stroke:none" transform="matrix(1,0,0,-1,32.021,37.199)"><tspan x="0 10.467 14.971 21.025 25.529 35.276 51.058 60.805 66.822 71.326 81.829 92.333 97.594 106.602 111.106 121.609 131.374 138.13 142.634 152.399 161.407 167.406">Sit amet pulvinar est.</tspan></text></g></g></g></g></g></g></svg>
