<?xml version="1.0" encoding="utf-8"?>
<svg xmlns:dc="http://purl.org/dc/elements/1.1/" xmlns:cc="http://creativecommons.org/ns#" xmlns:rdf="http://www.w3.org/1999/02/22-rdf-syntax-ns#" xmlns:svg="http://www.w3.org/2000/svg" xmlns="http://www.w3.org/2000/svg" viewBox="0 0 742.66656 330.29648" height="330.296" width="742.667" xml:space="preserve" version="1.1"><defs><clipPath id="clipPath22" clipPathUnits="userSpaceOnUse"><path d="M 0,0 H 557 V 248 H 0 Z"/></clipPath><clipPath id="clipPath110" clipPathUnits="userSpaceOnUse"><path d="M 36.031,61.554 H 249.222 V 36.031 H 36.031 Z"/></clipPath><clipPath id="clipPath120" clipPathUnits="userSpaceOnUse"><path d="M 40,38 H 243 V 56 H 40 Z"/></clipPath><clipPath id="clipPath138" clipPathUnits="userSpaceOnUse"><path d="M 257,32 H 485 V 66 H 257 Z"/></clipPath><clipPath id="clipPath158" clipPathUnits="userSpaceOnUse"><path d="M 261.984,61.554 H 481.183 V 36.031 H 261.984 Z"/></clipPath><clipPath id="clipPath168" clipPathUnits="userSpaceOnUse"><path d="M 266,38 H 475 V 56 H 266 Z"/></clipPath><clipPath id="clipPath182" clipPathUnits="userSpaceOnUse"><path d="M 32.277,134.371 H 256.73 V 83.324 H 32.277 Z"/></clipPath><clipPath id="clipPath192" clipPathUnits="userSpaceOnUse"><path d="m 32,83 h 225 v 52 H 32 Z"/></clipPath><clipPath id="clipPath206" clipPathUnits="userSpaceOnUse"><path d="m 244.719,133.621 h 11.262 v -11.262 h -11.262 z"/></clipPath><clipPath id="clipPath216" clipPathUnits="userSpaceOnUse"><path d="m 244,122 h 12 v 12 h -12 z"/></clipPath><clipPath id="clipPath230" clipPathUnits="userSpaceOnUse"><path d="m 244.719,106.597 h 11.262 V 95.335 h -11.262 z"/></clipPath><clipPath id="clipPath240" clipPathUnits="userSpaceOnUse"><path d="m 244,95 h 12 v 12 h -12 z"/></clipPath><clipPath id="clipPath254" clipPathUnits="userSpaceOnUse"><path d="m 244.719,122.359 h 11.262 v -15.762 h -11.262 z"/></clipPath><clipPath id="clipPath264" clipPathUnits="userSpaceOnUse"><path d="m 244,106 h 12 v 17 h -12 z"/></clipPath><clipPath id="clipPath278" clipPathUnits="userSpaceOnUse"><path d="m 246,106 h 9 v 17 h -9 z"/></clipPath><clipPath id="clipPath290" clipPathUnits="userSpaceOnUse"><path d="m 244.719,95.336 h 11.262 V 84.074 h -11.262 z"/></clipPath><clipPath id="clipPath300" clipPathUnits="userSpaceOnUse"><path d="m 244,84 h 12 v 12 h -12 z"/></clipPath><clipPath id="clipPath316" clipPathUnits="userSpaceOnUse"><path d="m 249,84 h 7 v 7 h -7 z"/></clipPath><clipPath id="clipPath334" clipPathUnits="userSpaceOnUse"><path d="m 244.719,95.336 h 11.262 V 84.074 h -11.262 z"/></clipPath><clipPath id="clipPath344" clipPathUnits="userSpaceOnUse"><path d="m 244,83 h 13 v 13 h -13 z"/></clipPath><clipPath id="clipPath358" clipPathUnits="userSpaceOnUse"><path d="M 33.031,133.621 H 244.719 V 84.074 H 33.031 Z"/></clipPath><clipPath id="clipPath368" clipPathUnits="userSpaceOnUse"><path d="m 35,87 h 176 v 40 H 35 Z"/></clipPath></defs><g transform="matrix(1.333,0,0,-1.333,0,330.296)"><g><g transform="translate(0,-0.278)"><g><g clip-path="url(#clipPath22)"><g><path style="fill:#d3d3d3;fill-opacity:1;fill-rule:nonzero;stroke:none" d="M 0,248 H 557 V 0.277 H 0 Z"/><path style="fill:#eeeeee;fill-opacity:1;fill-rule:nonzero;stroke:none" d="m 0,248 h 557 v -2.254 H 0 Z"/><path style="fill:#9a9a9a;fill-opacity:1;fill-rule:nonzero;stroke:none" d="M 0,2.531 H 557 V 0.277 H 0 Z"/><path style="fill:#9a9a9a;fill-opacity:1;fill-rule:nonzero;stroke:none" d="M 554.746,245.746 V 0.277 H 557 V 248"/><path style="fill:#eeeeee;fill-opacity:1;fill-rule:nonzero;stroke:none" d="M 0,248 V 0.277 L 2.254,2.531 V 248"/><path style="fill:#00008b;fill-opacity:1;fill-rule:nonzero;stroke:none" d="M 5.254,242.746 H 551.746 V 204.461 H 5.254 Z"/><path style="fill:#d3d3d3;fill-opacity:1;fill-rule:nonzero;stroke:none" d="M 5.254,204.461 H 551.746 V 161.672 H 5.254 Z"/><path style="fill:#ffffff;fill-opacity:1;fill-rule:nonzero;stroke:none" d="M 5.254,161.672 H 551.746 V 5.531 H 5.254 Z"/><path style="fill:#9a9a9a;fill-opacity:1;fill-rule:nonzero;stroke:none" d="m 5.254,161.672 h 546.492 v -2.25 H 5.254 Z"/><path style="fill:#eeeeee;fill-opacity:1;fill-rule:nonzero;stroke:none" d="M 5.254,7.785 H 551.746 V 5.531 H 5.254 Z"/><path style="fill:#eeeeee;fill-opacity:1;fill-rule:nonzero;stroke:none" d="M 549.492,159.422 V 5.531 h 2.254 v 156.141"/><path style="fill:#9a9a9a;fill-opacity:1;fill-rule:nonzero;stroke:none" d="M 5.254,161.672 V 5.531 l 2.254,2.254 v 153.887"/><path style="fill:#d3d3d3;fill-opacity:1;fill-rule:nonzero;stroke:none" d="m 517.215,238.242 h 30.027 v -30.027 h -30.027 z"/><path style="fill:#ffffff;fill-opacity:1;fill-rule:nonzero;stroke:none" d="m 517.215,238.242 h 30.027 v -3.754 h -30.027 z"/><path style="fill:#ababab;fill-opacity:1;fill-rule:nonzero;stroke:none" d="m 517.215,211.969 h 30.027 v -3.754 h -30.027 z"/><path style="fill:#ababab;fill-opacity:1;fill-rule:nonzero;stroke:none" d="m 543.488,234.488 v -26.273 h 3.754 v 30.027"/><path style="fill:#ffffff;fill-opacity:1;fill-rule:nonzero;stroke:none" d="m 517.215,238.242 v -30.027 l 3.754,3.754 v 26.273"/><text style="font-variant:normal;font-weight:normal;font-size:18.016px;font-family:'DejaVu Sans';-inkscape-font-specification:DejaVuSans;writing-mode:lr-tb;fill:#000000;fill-opacity:1;fill-rule:nonzero;stroke:none" transform="matrix(1,0,0,-1,524.979,217.222)"><tspan>✕</tspan></text><text style="font-variant:normal;font-weight:600;font-size:18.016px;font-family:'IBM Plex Sans SemiBold';-inkscape-font-specification:IBMPlexSans-SemiBold;writing-mode:lr-tb;fill:#ffffff;fill-opacity:1;fill-rule:nonzero;stroke:none" transform="matrix(1,0,0,-1,9.501,216.472)"><tspan x="0 9.765 20.268 27.024 36.789 52.553 57.057 64.57 75.073 84.063 94.585 110.349 114.853 121.627 126.131 138.887 151.642 164.416 177.171 181.675 192.935 200.448 210.951">Lorem Ipsum | GOOD SITE</tspan></text><text style="font-variant:normal;font-weight:normal;font-size:22.52px;font-family:'IBM Plex Sans';-inkscape-font-specification:IBMPlexSans;writing-mode:lr-tb;fill:#000000;fill-opacity:1;fill-rule:nonzero;stroke:none" transform="matrix(1,0,0,-1,13.5,174.434)"><tspan>←</tspan></text><text style="font-variant:normal;font-weight:normal;font-size:22.52px;font-family:'IBM Plex Sans';-inkscape-font-specification:IBMPlexSans;writing-mode:lr-tb;fill:#000000;fill-opacity:1;fill-rule:nonzero;stroke:none" transform="matrix(1,0,0,-1,42.777,174.434)"><tspan>→</tspan></text><text style="font-variant:normal;font-weight:normal;font-size:22.52px;font-family:'DejaVu Sans';-inkscape-font-specification:DejaVuSans;writing-mode:lr-tb;fill:#000000;fill-opacity:1;fill-rule:nonzero;stroke:none" transform="matrix(1,0,0,-1,72.053,174.434)"><tspan>⟳</tspan></text><path style="fill:#ffffff;fill-opacity:1;fill-rule:nonzero;stroke:none" d="m 102.59,171.68 v 22.773 c 0,0.465 0.09,0.91 0.265,1.34 0.18,0.43 0.434,0.809 0.762,1.137 0.328,0.328 0.707,0.582 1.137,0.761 0.43,0.176 0.875,0.266 1.34,0.266 h 404.863 c 0.465,0 0.914,-0.09 1.344,-0.266 0.429,-0.179 0.808,-0.433 1.137,-0.761 0.328,-0.328 0.582,-0.707 0.757,-1.137 0.18,-0.43 0.27,-0.875 0.27,-1.34 V 171.68 c 0,-0.465 -0.09,-0.91 -0.27,-1.34 -0.175,-0.43 -0.429,-0.809 -0.757,-1.137 -0.329,-0.328 -0.708,-0.582 -1.137,-0.762 -0.43,-0.175 -0.879,-0.265 -1.344,-0.265 H 106.094 c -0.465,0 -0.91,0.09 -1.34,0.265 -0.43,0.18 -0.809,0.434 -1.137,0.762 -0.328,0.328 -0.582,0.707 -0.762,1.137 -0.175,0.43 -0.265,0.875 -0.265,1.34 z"/><g transform="matrix(1,0,0,-1,0,248)"><path style="fill:none;stroke:#808080;stroke-width:0.751;stroke-linecap:butt;stroke-linejoin:miter;stroke-miterlimit:10;stroke-dasharray:none;stroke-opacity:1" d="M 102.469,76.32 V 53.547 c 0,-0.481 0.09,-0.942 0.273,-1.387 0.184,-0.445 0.446,-0.836 0.789,-1.176 0.34,-0.343 0.731,-0.605 1.176,-0.789 0.445,-0.183 0.906,-0.277 1.387,-0.277 h 404.863 c 0.484,0 0.945,0.094 1.391,0.277 0.445,0.184 0.836,0.446 1.175,0.789 0.34,0.34 0.602,0.731 0.789,1.176 0.184,0.445 0.274,0.906 0.274,1.387 V 76.32 c 0,0.481 -0.09,0.942 -0.274,1.387 -0.187,0.445 -0.449,0.836 -0.789,1.176 -0.339,0.34 -0.73,0.605 -1.175,0.789 -0.446,0.183 -0.907,0.273 -1.391,0.273 H 106.094 c -0.481,0 -0.942,-0.09 -1.387,-0.273 -0.445,-0.184 -0.836,-0.449 -1.176,-0.789 -0.343,-0.34 -0.605,-0.731 -0.789,-1.176 -0.183,-0.445 -0.273,-0.906 -0.273,-1.387 z"/></g><text style="font-variant:normal;font-weight:normal;font-size:16.215px;font-family:'IBM Plex Sans';-inkscape-font-specification:IBMPlexSans;writing-mode:lr-tb;fill:#000000;fill-opacity:1;fill-rule:nonzero;stroke:none" transform="matrix(1,0,0,-1,111.076,176.686)"><tspan x="0 9.761 15.761 21.776 31.537 39.791 44.298 48.044 54.059 63.058 71.279 80.327 94.596 104.357 108.848 117.864 122.371 130.624 139.64 153.892">https://example.com/</tspan></text><text style="font-variant:normal;font-weight:normal;font-size:22.52px;font-family:'DejaVu Sans';-inkscape-font-specification:DejaVuSans;writing-mode:lr-tb;fill:#000000;fill-opacity:1;fill-rule:nonzero;stroke:none" transform="matrix(1,0,0,-1,523.231,174.434)"><tspan>☰</tspan></text><path style="fill:#d3d3d3;fill-opacity:1;fill-rule:nonzero;stroke:none" d="M 32.277,65.586 H 252.976 V 32.555 H 32.277 Z"/><path style="fill:#f0f0f0;fill-opacity:1;fill-rule:nonzero;stroke:none" d="M 32.277,65.586 H 252.976 V 61.832 H 32.277 Z"/><path style="fill:#9c9c9c;fill-opacity:1;fill-rule:nonzero;stroke:none" d="M 32.277,36.309 H 252.976 V 32.555 H 32.277 Z"/><path style="fill:#9c9c9c;fill-opacity:1;fill-rule:nonzero;stroke:none" d="M 249.223,61.832 V 32.555 h 3.754 v 33.031"/><path style="fill:#f0f0f0;fill-opacity:1;fill-rule:nonzero;stroke:none" d="M 32.277,65.586 V 32.555 l 3.754,3.754 v 29.277"/></g></g></g></g></g><g><g clip-path="url(#clipPath110)"><g transform="translate(0,-0.278)"><g><g clip-path="url(#clipPath120)"><g><text style="font-variant:normal;font-weight:normal;font-size:18.016px;font-family:'IBM Plex Sans';-inkscape-font-specification:IBMPlexSans;writing-mode:lr-tb;fill:#000000;fill-opacity:1;fill-rule:nonzero;stroke:none" transform="matrix(1,0,0,-1,40.525,42.315)"><tspan x="0 11.26 21.764 31.528 38.284 47.292 57.814 62.318 72.065 81.073 90.838 101.341 107.358 111.862 120.87 130.635 141.139 156.867 161.371 170.415 179.423 183.927 193.692">Aperçu avant soumission</tspan></text></g></g></g></g></g></g><g><g transform="translate(0,-0.278)"><g><g clip-path="url(#clipPath138)"><g><path style="fill:#d3d3d3;fill-opacity:1;fill-rule:nonzero;stroke:none" d="M 257.48,65.586 H 484.933 V 32.555 H 257.48 Z"/><path style="fill:#f0f0f0;fill-opacity:1;fill-rule:nonzero;stroke:none" d="M 257.48,65.586 H 484.933 V 61.832 H 257.48 Z"/><path style="fill:#9c9c9c;fill-opacity:1;fill-rule:nonzero;stroke:none" d="M 257.48,36.309 H 484.933 V 32.555 H 257.48 Z"/><path style="fill:#9c9c9c;fill-opacity:1;fill-rule:nonzero;stroke:none" d="M 481.184,61.832 V 32.555 h 3.75 v 33.031"/><path style="fill:#f0f0f0;fill-opacity:1;fill-rule:nonzero;stroke:none" d="M 257.48,65.586 V 32.555 l 3.754,3.754 v 29.277"/></g></g></g></g></g><g><g clip-path="url(#clipPath158)"><g transform="translate(0,-0.278)"><g><g clip-path="url(#clipPath168)"><g><text style="font-variant:normal;font-weight:normal;font-size:18.016px;font-family:'IBM Plex Sans';-inkscape-font-specification:IBMPlexSans;writing-mode:lr-tb;fill:#000000;fill-opacity:1;fill-rule:nonzero;stroke:none" transform="matrix(1,0,0,-1,266.219,42.315)"><tspan x="0 10.467 20.268 30.772 46.554 56.301 62.318 68.317 75.073 84.838 89.342 105.07 114.853 119.357 129.879 140.382 150.903 156.146 160.65 169.658 179.423 185.422 189.926 199.691">Soumettre ma publication</tspan></text></g></g></g></g></g></g><g><g clip-path="url(#clipPath182)"><g transform="translate(0,-0.278)"><g><g clip-path="url(#clipPath192)"><g><g transform="matrix(1,0,0,-1,0,248)"><path style="fill:#ffffff;fill-opacity:1;fill-rule:nonzero;stroke:#767676;stroke-width:0.751;stroke-linecap:butt;stroke-linejoin:miter;stroke-miterlimit:10;stroke-dasharray:none;stroke-opacity:1" d="m 32.656,162.52 v -47.293 c 0,-0.196 0.035,-0.391 0.114,-0.575 0.074,-0.183 0.183,-0.343 0.324,-0.484 0.14,-0.141 0.304,-0.25 0.488,-0.328 0.184,-0.074 0.375,-0.113 0.574,-0.113 h 220.699 c 0.2,0 0.391,0.039 0.575,0.113 0.183,0.078 0.343,0.187 0.484,0.328 0.141,0.141 0.25,0.301 0.328,0.484 0.074,0.184 0.113,0.379 0.113,0.575 v 47.293 c 0,0.199 -0.039,0.39 -0.113,0.574 -0.078,0.187 -0.187,0.347 -0.328,0.488 -0.141,0.141 -0.301,0.25 -0.484,0.324 -0.184,0.078 -0.375,0.117 -0.575,0.117 H 34.156 c -0.199,0 -0.39,-0.039 -0.574,-0.117 -0.184,-0.074 -0.348,-0.183 -0.488,-0.324 -0.141,-0.141 -0.25,-0.301 -0.324,-0.488 -0.079,-0.184 -0.114,-0.375 -0.114,-0.574 z"/></g></g></g></g></g></g></g><g><g clip-path="url(#clipPath206)"><g transform="translate(0,-0.278)"><g><g clip-path="url(#clipPath216)"><g><path style="fill:#f1f1f1;fill-opacity:1;fill-rule:nonzero;stroke:none" d="m 244.719,122.637 v 11.261 h 10.511 c 0.208,0 0.383,-0.074 0.532,-0.222 0.144,-0.145 0.218,-0.321 0.218,-0.528 v -10.511 z"/><path style="fill:#a3a3a3;fill-opacity:1;fill-rule:nonzero;stroke:none" d="m 247.723,126.391 h 5.254 l -2.625,3.004 z"/></g></g></g></g></g></g><g><g clip-path="url(#clipPath230)"><g transform="translate(0,-0.278)"><g><g clip-path="url(#clipPath240)"><g><path style="fill:#f1f1f1;fill-opacity:1;fill-rule:nonzero;stroke:none" d="m 244.719,95.613 v 11.262 H 255.98 V 96.363 c 0,-0.207 -0.074,-0.383 -0.218,-0.531 -0.149,-0.144 -0.324,-0.219 -0.532,-0.219 z"/><path style="fill:#505050;fill-opacity:1;fill-rule:nonzero;stroke:none" d="m 247.723,103.121 h 5.254 l -2.625,-3.004 z"/></g></g></g></g></g></g><g><g clip-path="url(#clipPath254)"><g transform="translate(0,-0.278)"><g><g clip-path="url(#clipPath264)"><g><path style="fill:#f1f1f1;fill-opacity:1;fill-rule:nonzero;stroke:none" d="m 244.719,122.637 h 11.262 v -15.762 h -11.262 z"/></g></g></g></g><g transform="translate(0,-0.278)"><g><g clip-path="url(#clipPath278)"><g><path style="fill:#000000;fill-opacity:0.2;fill-rule:nonzero;stroke:none" d="m 246.223,122.637 h 8.254 v -15.762 h -8.254 z"/></g></g></g></g></g></g><g><g clip-path="url(#clipPath290)"><g transform="translate(0,-0.278)"><g><g clip-path="url(#clipPath300)"><g><path style="fill:#dcdcdc;fill-opacity:1;fill-rule:nonzero;stroke:none" d="m 244.719,95.613 h 11.262 V 84.351 h -11.262 z"/></g></g></g></g></g></g><g><g transform="translate(0,-0.278)"><g><g clip-path="url(#clipPath316)"><g><g transform="matrix(1,0,0,-1,0,248)"><path style="fill:none;stroke:#000000;stroke-width:0.751;stroke-linecap:butt;stroke-linejoin:miter;stroke-miterlimit:10;stroke-dasharray:none;stroke-opacity:0.6" d="m 255.23,157.641 -5.257,5.254 m 5.257,-2.25 -2.253,2.25"/></g><g transform="matrix(1,0,0,-1,0,248)"><path style="fill:none;stroke:#ffffff;stroke-width:0.751;stroke-linecap:butt;stroke-linejoin:miter;stroke-miterlimit:10;stroke-dasharray:none;stroke-opacity:0.6" d="m 255.23,158.391 -4.503,4.504 m 4.503,-1.5 -1.503,1.5"/></g></g></g></g></g></g><g><g clip-path="url(#clipPath334)"><g transform="translate(0,-0.278)"><g><g clip-path="url(#clipPath344)"><g><g transform="matrix(1,0,0,-1,0,248)"><path style="fill:none;stroke:#d9d9d9;stroke-width:0.751;stroke-linecap:butt;stroke-linejoin:miter;stroke-miterlimit:10;stroke-dasharray:none;stroke-opacity:1" d="m 245.094,152.762 h 11.262 v 11.262 h -11.262 z"/></g></g></g></g></g></g></g><g><g clip-path="url(#clipPath358)"><g transform="translate(0,-0.278)"><g><g clip-path="url(#clipPath368)"><g><text style="font-variant:normal;font-weight:normal;font-size:18.016px;font-family:'IBM Plex Sans';-inkscape-font-specification:IBMPlexSans;writing-mode:lr-tb;fill:#000000;fill-opacity:1;fill-rule:nonzero;stroke:none" transform="matrix(1,0,0,-1,34.273,113.629)"><tspan x="0 9.026 18.773 25.529 35.276 51.058 55.562 60.066 70.569 79.577 90.081 105.809 110.349 120.87 130.635 135.878 145.643 152.399 156.903 165.911 170.415">Lorem ipsum dolor sit</tspan><tspan y="24.022" x="0 9.765 25.493 35.276 41.293 46.554 51.058 60.066 69.813 80.334 89.342 99.089 108.097 114.114 123.861 129.879 140.382">amet, consectetur</tspan></text></g></g></g></g></g></g></g></svg>
