<?xml version="1.0" encoding="utf-8"?>
<svg xmlns:dc="http://purl.org/dc/elements/1.1/" xmlns:cc="http://creativecommons.org/ns#" xmlns:rdf="http://www.w3.org/1999/02/22-rdf-syntax-ns#" xmlns:svg="http://www.w3.org/2000/svg" xmlns="http://www.w3.org/2000/svg" viewBox="0 0 742.66656 408.36655" height="408.367" width="742.667" xml:space="preserve" version="1.1"><defs><clipPath id="clipPath22" clipPathUnits="userSpaceOnUse"><path d="M 0,0 H 557 V 307 H 0 Z"/></clipPath></defs><g transform="matrix(1.333,0,0,-1.333,0,408.367)"><g><g transform="translate(0,-0.725)"><g><g clip-path="url(#clipPath22)"><g><path style="fill:#d3d3d3;fill-opacity:1;fill-rule:nonzero;stroke:none" d="m 0,307 h 557 v -3.754 H 0 Z"/><path style="fill:#7f7f7f;fill-opacity:1;fill-rule:nonzero;stroke:none" d="M 0,4.477 H 557 V 0.727 H 0 Z"/><path style="fill:#7f7f7f;fill-opacity:1;fill-rule:nonzero;stroke:none" d="M 553.246,303.246 V 0.727 H 557 V 307"/><path style="fill:#d3d3d3;fill-opacity:1;fill-rule:nonzero;stroke:none" d="M 0,307 V 0.727 l 3.754,3.75 V 307"/><path style="fill:#00008b;fill-opacity:1;fill-rule:nonzero;stroke:none" d="M 3.754,303.246 H 553.246 V 264.961 H 3.754 Z"/><path style="fill:#d3d3d3;fill-opacity:1;fill-rule:nonzero;stroke:none" d="M 3.754,264.961 H 553.246 V 222.176 H 3.754 Z"/><path style="fill:#d3d3d3;fill-opacity:1;fill-rule:nonzero;stroke:none" d="m 518.715,298.742 h 30.027 v -30.027 h -30.027 z"/><path style="fill:#ffffff;fill-opacity:1;fill-rule:nonzero;stroke:none" d="m 518.715,298.742 h 30.027 v -3.754 h -30.027 z"/><path style="fill:#ababab;fill-opacity:1;fill-rule:nonzero;stroke:none" d="m 518.715,272.469 h 30.027 v -3.754 h -30.027 z"/><path style="fill:#ababab;fill-opacity:1;fill-rule:nonzero;stroke:none" d="m 544.988,294.988 v -26.273 h 3.754 v 30.027"/><path style="fill:#ffffff;fill-opacity:1;fill-rule:nonzero;stroke:none" d="m 518.715,298.742 v -30.027 l 3.754,3.754 v 26.273"/><text style="font-variant:normal;font-weight:normal;font-size:18.016px;font-family:'DejaVu Sans';-inkscape-font-specification:DejaVuSans;writing-mode:lr-tb;fill:#000000;fill-opacity:1;fill-rule:nonzero;stroke:none" transform="matrix(1,0,0,-1,526.48,277.724)"><tspan>✕</tspan></text><text style="font-variant:normal;font-weight:600;font-size:18.016px;font-family:'IBM Plex Sans SemiBold';-inkscape-font-specification:IBMPlexSans-SemiBold;writing-mode:lr-tb;fill:#ffffff;fill-opacity:1;fill-rule:nonzero;stroke:none" transform="matrix(1,0,0,-1,7.999,276.973)"><tspan x="0 12.755 18.052 28.52 37.51 46.554 56.301 61.561 68.317 78.082 82.586 89.36 93.846 106.602 119.375 132.131 144.886 149.39 160.65 168.163 178.666">Glossaire | GOOD SITE</tspan></text><text style="font-variant:normal;font-weight:normal;font-size:22.52px;font-family:'IBM Plex Sans';-inkscape-font-specification:IBMPlexSans;writing-mode:lr-tb;fill:#000000;fill-opacity:1;fill-rule:nonzero;stroke:none" transform="matrix(1,0,0,-1,11.999,234.935)"><tspan>←</tspan></text><text style="font-variant:normal;font-weight:normal;font-size:22.52px;font-family:'IBM Plex Sans';-inkscape-font-specification:IBMPlexSans;writing-mode:lr-tb;fill:#000000;fill-opacity:1;fill-rule:nonzero;stroke:none" transform="matrix(1,0,0,-1,41.275,234.935)"><tspan>→</tspan></text><text style="font-variant:normal;font-weight:normal;font-size:22.52px;font-family:'DejaVu Sans';-inkscape-font-specification:DejaVuSans;writing-mode:lr-tb;fill:#000000;fill-opacity:1;fill-rule:nonzero;stroke:none" transform="matrix(1,0,0,-1,70.552,234.935)"><tspan>⟳</tspan></text><path style="fill:#ffffff;fill-opacity:1;fill-rule:nonzero;stroke:none" d="m 101.09,232.184 v 22.769 c 0,0.465 0.086,0.91 0.265,1.34 0.18,0.43 0.43,0.809 0.762,1.141 0.328,0.328 0.707,0.582 1.137,0.757 0.43,0.18 0.875,0.266 1.34,0.266 h 407.867 c 0.465,0 0.91,-0.086 1.34,-0.266 0.429,-0.175 0.808,-0.429 1.137,-0.757 0.328,-0.332 0.582,-0.711 0.761,-1.141 0.176,-0.43 0.266,-0.875 0.266,-1.34 v -22.769 c 0,-0.465 -0.09,-0.914 -0.266,-1.344 -0.179,-0.43 -0.433,-0.809 -0.761,-1.137 -0.329,-0.328 -0.708,-0.582 -1.137,-0.758 -0.43,-0.179 -0.875,-0.265 -1.34,-0.265 H 104.594 c -0.465,0 -0.91,0.086 -1.34,0.265 -0.43,0.176 -0.809,0.43 -1.137,0.758 -0.332,0.328 -0.582,0.707 -0.762,1.137 -0.179,0.43 -0.265,0.879 -0.265,1.344 z"/><g transform="matrix(1,0,0,-1,0,307)"><path style="fill:none;stroke:#808080;stroke-width:0.751;stroke-linecap:butt;stroke-linejoin:miter;stroke-miterlimit:10;stroke-dasharray:none;stroke-opacity:1" d="M 100.965,74.816 V 52.047 c 0,-0.481 0.094,-0.945 0.277,-1.387 0.184,-0.445 0.446,-0.84 0.785,-1.18 0.34,-0.339 0.735,-0.601 1.18,-0.785 0.441,-0.183 0.906,-0.277 1.387,-0.277 h 407.867 c 0.48,0 0.941,0.094 1.387,0.277 0.445,0.184 0.836,0.446 1.179,0.785 0.34,0.34 0.602,0.735 0.785,1.18 0.184,0.442 0.278,0.906 0.278,1.387 v 22.769 c 0,0.481 -0.094,0.946 -0.278,1.391 -0.183,0.441 -0.445,0.836 -0.785,1.176 -0.343,0.34 -0.734,0.601 -1.179,0.785 -0.446,0.184 -0.907,0.277 -1.387,0.277 H 104.594 c -0.481,0 -0.946,-0.093 -1.387,-0.277 -0.445,-0.184 -0.84,-0.445 -1.18,-0.785 -0.339,-0.34 -0.601,-0.735 -0.785,-1.176 -0.183,-0.445 -0.277,-0.91 -0.277,-1.391 z"/></g><text style="font-variant:normal;font-weight:normal;font-size:16.215px;font-family:'IBM Plex Sans';-inkscape-font-specification:IBMPlexSans;writing-mode:lr-tb;fill:#000000;fill-opacity:1;fill-rule:nonzero;stroke:none" transform="matrix(1,0,0,-1,109.575,237.187)"><tspan x="0 9.761 15.761 21.776 31.537 39.791 44.298 48.044 54.059 63.058 71.279 80.327 94.596 104.357 108.848 117.864 122.371 130.624 139.64 153.892 159.162 168.161 172.669 181.668 189.937 198.19 207.206 213.205">https://example.com/glossary</tspan></text><text style="font-variant:normal;font-weight:normal;font-size:22.52px;font-family:'DejaVu Sans';-inkscape-font-specification:DejaVuSans;writing-mode:lr-tb;fill:#000000;fill-opacity:1;fill-rule:nonzero;stroke:none" transform="matrix(1,0,0,-1,524.733,234.935)"><tspan>☰</tspan></text><text style="font-variant:normal;font-weight:600;font-size:28.023px;font-family:'IBM Plex Sans SemiBold';-inkscape-font-specification:IBMPlexSans-SemiBold;writing-mode:lr-tb;fill:#000000;fill-opacity:1;fill-rule:nonzero;stroke:none" transform="matrix(1,0,0,-1,28.021,169.627)"><tspan x="0 19.532 27.77 43.547 57.054 70.561 86.338 93.848 105.113">Glossaire</tspan></text><text style="font-variant:normal;font-weight:600;font-size:18.016px;font-family:'IBM Plex Sans SemiBold';-inkscape-font-specification:IBMPlexSans-SemiBold;writing-mode:lr-tb;fill:#000000;fill-opacity:1;fill-rule:nonzero;stroke:none" transform="matrix(1,0,0,-1,28.021,124.586)"><tspan x="0 12.755 23.277 38.284">HTML</tspan></text><text style="font-variant:normal;font-weight:normal;font-size:18.016px;font-family:'IBM Plex Sans';-inkscape-font-specification:IBMPlexSans;writing-mode:lr-tb;fill:#000000;fill-opacity:1;fill-rule:nonzero;stroke:none" transform="matrix(1,0,0,-1,58.048,100.565)"><tspan x="0 12.737 21.728 32.285 42.032 48.806 53.31 62.318 72.065 81.073 87.09 91.594 105.845 115.61 122.366 132.131 142.634 153.155 157.66 166.686 176.414 186.936 196.683 207.204 216.969 226.716">Hyper Text Markup Language</tspan></text><text style="font-variant:normal;font-weight:600;font-size:18.016px;font-family:'IBM Plex Sans SemiBold';-inkscape-font-specification:IBMPlexSans-SemiBold;writing-mode:lr-tb;fill:#000000;fill-opacity:1;fill-rule:nonzero;stroke:none" transform="matrix(1,0,0,-1,28.021,76.543)"><tspan x="0 12.755 23.277 33.78">HTTP</tspan></text><text style="font-variant:normal;font-weight:normal;font-size:18.016px;font-family:'IBM Plex Sans';-inkscape-font-specification:IBMPlexSans;writing-mode:lr-tb;fill:#000000;fill-opacity:1;fill-rule:nonzero;stroke:none" transform="matrix(1,0,0,-1,58.048,52.522)"><tspan x="0 12.737 21.728 32.285 42.032 48.806 53.31 62.318 72.065 81.073 87.09 91.594 101.341 108.097 117.862 128.383 137.391 147.895 157.66 164.416 170.415 174.919 186.179 192.935 202.7 208.699 218.464 227.472 237.237">Hyper Text Transport Protocol</tspan></text></g></g></g></g></g></g></svg>
