<?xml version="1.0" encoding="utf-8"?>
<svg xmlns:dc="http://purl.org/dc/elements/1.1/" xmlns:cc="http://creativecommons.org/ns#" xmlns:rdf="http://www.w3.org/1999/02/22-rdf-syntax-ns#" xmlns:svg="http://www.w3.org/2000/svg" xmlns="http://www.w3.org/2000/svg" viewBox="0 0 742.66656 394.35397" height="394.354" width="742.667" xml:space="preserve" version="1.1"><defs><clipPath id="clipPath22" clipPathUnits="userSpaceOnUse"><path d="M 0,0 H 557 V 296 H 0 Z"/></clipPath><clipPath id="clipPath112" clipPathUnits="userSpaceOnUse"><path d="M 0,0 H 557 V 296 H 0 Z"/></clipPath><clipPath id="clipPath124" clipPathUnits="userSpaceOnUse"><path d="M 0,0 H 557 V 296 H 0 Z"/></clipPath><clipPath id="clipPath136" clipPathUnits="userSpaceOnUse"><path d="M 0,0 H 557 V 296 H 0 Z"/></clipPath><clipPath id="clipPath148" clipPathUnits="userSpaceOnUse"><path d="M 0,0 H 557 V 296 H 0 Z"/></clipPath><clipPath id="clipPath160" clipPathUnits="userSpaceOnUse"><path d="M 0,0 H 557 V 296 H 0 Z"/></clipPath><clipPath id="clipPath172" clipPathUnits="userSpaceOnUse"><path d="M 0,0 H 557 V 296 H 0 Z"/></clipPath><clipPath id="clipPath184" clipPathUnits="userSpaceOnUse"><path d="M 0,0 H 557 V 296 H 0 Z"/></clipPath><clipPath id="clipPath196" clipPathUnits="userSpaceOnUse"><path d="m 145,82 h 363 v 2 H 145 Z"/></clipPath><clipPath id="clipPath210" clipPathUnits="userSpaceOnUse"><path d="m 32,33 h 481 v 67 H 32 Z"/></clipPath></defs><g transform="matrix(1.333,0,0,-1.333,0,394.354)"><g><g transform="translate(0,-0.235)"><g><g clip-path="url(#clipPath22)"><g><path style="fill:#d3d3d3;fill-opacity:1;fill-rule:nonzero;stroke:none" d="M 0,296 H 557 V 0.234 H 0 Z"/><path style="fill:#eeeeee;fill-opacity:1;fill-rule:nonzero;stroke:none" d="m 0,296 h 557 v -2.254 H 0 Z"/><path style="fill:#9a9a9a;fill-opacity:1;fill-rule:nonzero;stroke:none" d="M 0,2.488 H 557 V 0.234 H 0 Z"/><path style="fill:#9a9a9a;fill-opacity:1;fill-rule:nonzero;stroke:none" d="M 554.746,293.746 V 0.234 H 557 V 296"/><path style="fill:#eeeeee;fill-opacity:1;fill-rule:nonzero;stroke:none" d="M 0,296 V 0.234 L 2.254,2.488 V 296"/><path style="fill:#00008b;fill-opacity:1;fill-rule:nonzero;stroke:none" d="M 5.254,290.746 H 551.746 V 252.461 H 5.254 Z"/><path style="fill:#d3d3d3;fill-opacity:1;fill-rule:nonzero;stroke:none" d="M 5.254,252.461 H 551.746 V 209.672 H 5.254 Z"/><path style="fill:#ffffff;fill-opacity:1;fill-rule:nonzero;stroke:none" d="M 5.254,209.672 H 551.746 V 5.488 H 5.254 Z"/><path style="fill:#9a9a9a;fill-opacity:1;fill-rule:nonzero;stroke:none" d="m 5.254,209.672 h 546.492 v -2.25 H 5.254 Z"/><path style="fill:#eeeeee;fill-opacity:1;fill-rule:nonzero;stroke:none" d="M 5.254,7.742 H 551.746 V 5.488 H 5.254 Z"/><path style="fill:#eeeeee;fill-opacity:1;fill-rule:nonzero;stroke:none" d="M 549.492,207.422 V 5.488 h 2.254 v 204.184"/><path style="fill:#9a9a9a;fill-opacity:1;fill-rule:nonzero;stroke:none" d="M 5.254,209.672 V 5.488 l 2.254,2.254 v 201.93"/><path style="fill:#d3d3d3;fill-opacity:1;fill-rule:nonzero;stroke:none" d="m 517.215,286.242 h 30.027 v -30.027 h -30.027 z"/><path style="fill:#ffffff;fill-opacity:1;fill-rule:nonzero;stroke:none" d="m 517.215,286.242 h 30.027 v -3.754 h -30.027 z"/><path style="fill:#ababab;fill-opacity:1;fill-rule:nonzero;stroke:none" d="m 517.215,259.969 h 30.027 v -3.754 h -30.027 z"/><path style="fill:#ababab;fill-opacity:1;fill-rule:nonzero;stroke:none" d="m 543.488,282.488 v -26.273 h 3.754 v 30.027"/><path style="fill:#ffffff;fill-opacity:1;fill-rule:nonzero;stroke:none" d="m 517.215,286.242 v -30.027 l 3.754,3.754 v 26.273"/><text style="font-variant:normal;font-weight:normal;font-size:18.016px;font-family:'DejaVu Sans';-inkscape-font-specification:DejaVuSans;writing-mode:lr-tb;fill:#000000;fill-opacity:1;fill-rule:nonzero;stroke:none" transform="matrix(1,0,0,-1,524.979,265.222)"><tspan>✕</tspan></text><text style="font-variant:normal;font-weight:600;font-size:18.016px;font-family:'IBM Plex Sans SemiBold';-inkscape-font-specification:IBMPlexSans-SemiBold;writing-mode:lr-tb;fill:#ffffff;fill-opacity:1;fill-rule:nonzero;stroke:none" transform="matrix(1,0,0,-1,9.501,264.472)"><tspan x="0 9.765 19.512 28.502 33.024 43.545 50.301 55.562 65.309 70.569 81.073 90.838 99.828 104.35 114.853 125.375 129.879 135.878 145.643 152.399 156.903 163.677 168.163 180.918 193.692 206.447 219.221 223.725 234.985 242.48 253.001">Les origines du fer | GOOD SITE</tspan></text><text style="font-variant:normal;font-weight:normal;font-size:22.52px;font-family:'IBM Plex Sans';-inkscape-font-specification:IBMPlexSans;writing-mode:lr-tb;fill:#000000;fill-opacity:1;fill-rule:nonzero;stroke:none" transform="matrix(1,0,0,-1,13.5,222.434)"><tspan>←</tspan></text><text style="font-variant:normal;font-weight:normal;font-size:22.52px;font-family:'IBM Plex Sans';-inkscape-font-specification:IBMPlexSans;writing-mode:lr-tb;fill:#000000;fill-opacity:1;fill-rule:nonzero;stroke:none" transform="matrix(1,0,0,-1,42.777,222.434)"><tspan>→</tspan></text><text style="font-variant:normal;font-weight:normal;font-size:22.52px;font-family:'DejaVu Sans';-inkscape-font-specification:DejaVuSans;writing-mode:lr-tb;fill:#000000;fill-opacity:1;fill-rule:nonzero;stroke:none" transform="matrix(1,0,0,-1,72.053,222.434)"><tspan>⟳</tspan></text><path style="fill:#ffffff;fill-opacity:1;fill-rule:nonzero;stroke:none" d="m 102.59,219.68 v 22.773 c 0,0.465 0.09,0.91 0.265,1.34 0.18,0.43 0.434,0.809 0.762,1.137 0.328,0.328 0.707,0.582 1.137,0.761 0.43,0.176 0.875,0.266 1.34,0.266 h 404.863 c 0.465,0 0.914,-0.09 1.344,-0.266 0.429,-0.179 0.808,-0.433 1.137,-0.761 0.328,-0.328 0.582,-0.707 0.757,-1.137 0.18,-0.43 0.27,-0.875 0.27,-1.34 V 219.68 c 0,-0.465 -0.09,-0.91 -0.27,-1.34 -0.175,-0.43 -0.429,-0.809 -0.757,-1.137 -0.329,-0.328 -0.708,-0.582 -1.137,-0.762 -0.43,-0.175 -0.879,-0.265 -1.344,-0.265 H 106.094 c -0.465,0 -0.91,0.09 -1.34,0.265 -0.43,0.18 -0.809,0.434 -1.137,0.762 -0.328,0.328 -0.582,0.707 -0.762,1.137 -0.175,0.43 -0.265,0.875 -0.265,1.34 z"/><g transform="matrix(1,0,0,-1,0,296)"><path style="fill:none;stroke:#808080;stroke-width:0.751;stroke-linecap:butt;stroke-linejoin:miter;stroke-miterlimit:10;stroke-dasharray:none;stroke-opacity:1" d="M 102.469,76.32 V 53.547 c 0,-0.481 0.09,-0.942 0.273,-1.387 0.184,-0.445 0.446,-0.836 0.789,-1.176 0.34,-0.343 0.731,-0.605 1.176,-0.789 0.445,-0.183 0.906,-0.277 1.387,-0.277 h 404.863 c 0.484,0 0.945,0.094 1.391,0.277 0.445,0.184 0.836,0.446 1.175,0.789 0.34,0.34 0.602,0.731 0.789,1.176 0.184,0.445 0.274,0.906 0.274,1.387 V 76.32 c 0,0.481 -0.09,0.942 -0.274,1.387 -0.187,0.445 -0.449,0.836 -0.789,1.176 -0.339,0.34 -0.73,0.605 -1.175,0.789 -0.446,0.183 -0.907,0.273 -1.391,0.273 H 106.094 c -0.481,0 -0.942,-0.09 -1.387,-0.273 -0.445,-0.184 -0.836,-0.449 -1.176,-0.789 -0.343,-0.34 -0.605,-0.731 -0.789,-1.176 -0.183,-0.445 -0.273,-0.906 -0.273,-1.387 z"/></g><text style="font-variant:normal;font-weight:normal;font-size:16.215px;font-family:'IBM Plex Sans';-inkscape-font-specification:IBMPlexSans;writing-mode:lr-tb;fill:#000000;fill-opacity:1;fill-rule:nonzero;stroke:none" transform="matrix(1,0,0,-1,111.076,224.686)"><tspan x="0 9.761 15.761 21.776 31.537 39.791 44.298 48.044 54.059 63.058 71.279 80.327 94.596 104.357 108.848 117.864 122.371 130.624 139.64 153.892">https://example.com/</tspan></text><text style="font-variant:normal;font-weight:normal;font-size:22.52px;font-family:'DejaVu Sans';-inkscape-font-specification:DejaVuSans;writing-mode:lr-tb;fill:#000000;fill-opacity:1;fill-rule:nonzero;stroke:none" transform="matrix(1,0,0,-1,523.231,222.434)"><tspan>☰</tspan></text><text style="font-variant:normal;font-weight:600;font-size:28.023px;font-family:'IBM Plex Sans SemiBold';-inkscape-font-specification:IBMPlexSans-SemiBold;writing-mode:lr-tb;fill:#000000;fill-opacity:1;fill-rule:nonzero;stroke:none" transform="matrix(1,0,0,-1,32.021,154.123)"><tspan x="0 14.264 30.04 43.547 50.301 66.077 77.314 84.825 99.845 107.355 123.832 139.637 153.144 159.897 176.431 192.908 199.689 209.497 225.218">Les origines du fer</tspan></text><text style="font-variant:normal;font-weight:normal;font-size:18.016px;font-family:'IBM Plex Sans';-inkscape-font-specification:IBMPlexSans;writing-mode:lr-tb;fill:#000000;fill-opacity:1;fill-rule:nonzero;stroke:none" transform="matrix(1,0,0,-1,32.021,109.082)"><tspan x="0 9.026 18.773 23.277 33.78 39.041 49.544 60.066 69.813 76.569 82.586 87.09 97.594 107.358 116.366 120.87 131.374 141.139 156.867 172.667 182.432 191.44 195.944 206.447 216.212 220.716 229.724 233.472 243.236 249.236 259 269.504 280.025 289.772 300.294 306.293 310.797 321.318 331.065 335.569 346.091 352.09 356.594 366.359 375.367 384.375 394.14 402.391 407.652 412.156 422.659">La plupart des hommes ne s’étonnent point assez. En</tspan><tspan y="24.022" x="0 10.503 17.259 27.024 36.032 45.797 56.301 65.309 75.073 79.577 90.081 99.846 108.854">présence des </tspan></text></g></g></g></g><g transform="translate(0,-0.235)"><g><g clip-path="url(#clipPath112)"><g><g><g><g clip-path="url(#clipPath124)"><g><g><g><g clip-path="url(#clipPath136)"><g><g><g><g clip-path="url(#clipPath148)"><g><g><g><g clip-path="url(#clipPath160)"><g><g><g><g clip-path="url(#clipPath172)"><g><g><g><g clip-path="url(#clipPath184)"><g><g><g><g clip-path="url(#clipPath196)"><g><path style="fill:#0000ee;fill-opacity:1;fill-rule:nonzero;stroke:none" d="m 145.371,83.559 h 361.828 v -1.5 H 145.371 Z"/></g></g></g></g></g></g></g></g></g></g></g></g></g></g></g></g></g></g></g></g></g></g></g></g></g></g></g></g></g></g></g></g><g transform="translate(0,-0.235)"><g><g clip-path="url(#clipPath210)"><g><text style="font-variant:normal;font-weight:normal;font-size:18.016px;font-family:'IBM Plex Sans';-inkscape-font-specification:IBMPlexSans;writing-mode:lr-tb;fill:#0000ee;fill-opacity:1;fill-rule:nonzero;stroke:none" transform="matrix(1,0,0,-1,145.373,85.061)"><tspan x="0 10.503 15.764 26.268 35.276 39.78 49.544 56.301 66.065 76.569 87.09 96.098 100.602 111.106 121.609 131.374 141.895 151.642 167.37 177.171 187.674 197.439 206.447 210.951 216.987 226.716 233.472 239.489 243.993 253.001 258.244 268.009 272.513 282.277 292.781 297.285 307.05 317.553 327.318 332.579 342.325 346.829 355.837">plus grands phénomènes (article en anglais)</tspan></text><text style="font-variant:normal;font-weight:normal;font-size:18.016px;font-family:'IBM Plex Sans';-inkscape-font-specification:IBMPlexSans;writing-mode:lr-tb;fill:#000000;fill-opacity:1;fill-rule:nonzero;stroke:none" transform="matrix(1,0,0,-1,507.197,85.061)"><tspan>,</tspan><tspan y="24.022" x="-475.177 -464.673 -454.908 -445.9 -441.396 -436.892 -426.371 -417.363 -407.616 -397.094 -391.095 -386.591 -376.826 -366.323 -357.315 -352.811 -347.55 -337.785 -328.777 -324.273 -313.77 -308.509 -298.005 -288.997 -284.493 -274.729 -264.225 -248.497 -243.993 -237.201 -227.436 -216.933 -211.672 -201.907 -192.899 -187.656 -183.152 -173.388 -162.884 -158.362 -153.119 -143.355 -134.347 -129.843 -120.834 -111.07 -106.566 -100.566 -96.062 -90.063 -83.307 -73.542 -63.021 -58.517 -49.508 -39.762 -29.24 -20.232 -10.485 0.036">des inventions les plus admirables, on les voit trop souvent</tspan><tspan y="48.043" x="-475.177 -470.672 -460.169 -449.648 -445.144 -439.144 -433.145 -423.38 -416.624 -406.859 -396.356 -390.338 -381.33 -376.088 -371.584 -367.08 -351.351 -340.794 -331.029 -322.021 -313.013 -308.509 -298.005 -292.745 -282.998 -273.99">indifférents, impassibles.</tspan></text></g></g></g></g></g></g></svg>
