<?xml version="1.0" encoding="UTF-8" standalone="no"?>
<svg
   xmlns:dc="http://purl.org/dc/elements/1.1/"
   xmlns:cc="http://creativecommons.org/ns#"
   xmlns:rdf="http://www.w3.org/1999/02/22-rdf-syntax-ns#"
   xmlns:svg="http://www.w3.org/2000/svg"
   xmlns="http://www.w3.org/2000/svg"
   id="svg8"
   version="1.1"
   viewBox="0 0 89.820877 12.423258"
   height="12.423258mm"
   width="89.820877mm">
  <defs
     id="defs2" />
  <metadata
     id="metadata5">
    <rdf:RDF>
      <cc:Work
         rdf:about="">
        <dc:format>image/svg+xml</dc:format>
        <dc:type
           rdf:resource="http://purl.org/dc/dcmitype/StillImage" />
        <dc:title></dc:title>
      </cc:Work>
    </rdf:RDF>
  </metadata>
  <g
     transform="translate(-2.9817905,-2.8251522)"
     id="layer1">
    <path
       d="M 80.022717,5.5148138 Q 79.539841,5.1619433 79.35412,4.6233514 79.168398,4.0847596 79.224115,3.7133169 q 0.05572,-0.2971541 0.241438,-0.278582 0.185721,0 0.278582,0.1485771 0.631452,0.5943082 1.522915,0.8728902 0.891462,0.278582 1.950074,0.3342984 1.077183,0.037144 2.302944,-0.1114328 1.225761,-0.148577 2.544382,-0.427159 0.464304,-0.092861 0.947179,-0.1671492 0.408587,-0.055716 0.87289,-0.092861 0.482876,-0.055716 0.910035,-0.018572 0.78003,0.074289 1.337194,0.4085869 0.575736,0.3342984 0.668596,1.1514723 0.01857,0.4457312 -0.111432,0.8543181 -0.111433,0.3528705 -0.390015,0.7057411 -0.26001,0.3528708 -0.798602,0.5571638 -0.26001,0.09286 -0.352871,0.01857 -0.09286,-0.07429 -0.130004,-0.204293 -0.03715,-0.148577 0.01857,-0.3528707 0.05572,-0.278582 0.130005,-0.6871689 0.09286,-0.408587 0.05572,-0.7428854 -0.03714,-0.3528705 -0.278582,-0.557164 -0.222866,-0.2042934 -0.798602,-0.092861 -0.408587,0.092861 -1.021467,0.2414377 -0.594308,0.1300049 -1.300049,0.278582 l 0.111432,0.055716 q 0.148577,0.074288 0.130005,0.2228656 -0.01857,0.1300049 -0.130005,0.2228656 -0.390014,0.2971541 -0.798601,0.7243132 -0.352871,0.3714427 -0.798602,0.8914619 -0.427159,0.52002 -0.854318,1.207189 0.445731,-0.167149 0.947179,-0.334298 0.520019,-0.185722 0.984323,-0.278582 0.482875,-0.09286 0.835746,-0.07429 0.35287,0.01857 0.501447,0.222866 0.222866,0.334298 0.130005,0.650024 -0.09286,0.315727 -0.334298,0.538592 -0.222866,0.222866 -0.501448,0.334299 -0.278582,0.1114332 -0.390015,0.01857 -0.09286,-0.07429 -0.297154,-0.185721 -0.204293,-0.111433 -0.520019,-0.16715 -0.315727,-0.05572 -0.742886,-0.01857 -0.427159,0.01857 -0.965751,0.222866 -0.05572,0.01857 -0.241437,0.09286 -0.185722,0.07429 -0.390015,0.2042932 -0.278582,0.167149 -0.445731,0.371443 0.111432,-0.03715 0.222865,-0.111433 0.09286,-0.03714 0.222866,-0.09286 0.148577,-0.05572 0.297154,-0.09286 -0.297154,0.668596 -0.52002,1.430054 -0.222865,0.742885 -0.315726,1.615775 -0.371443,-0.111432 -0.631453,-0.297154 -0.130005,-0.09286 -0.241437,-0.204293 0.185721,0.278582 0.464303,0.464303 0.278582,0.167149 0.371443,0.222866 l 0.01857,0.01857 h 0.01857 q 0.668597,0.334298 1.374338,0.297154 0.724313,-0.01857 1.337193,-0.204293 0.612881,-0.185722 1.04004,-0.408587 0.427159,-0.241438 0.538592,-0.315727 0.241437,-0.130005 0.371442,-0.35287 0.130005,-0.222866 0.03715,-0.52002 -0.01857,-0.05572 0,-0.111433 0.03714,-0.111433 0.167149,-0.111433 0.222865,0.03715 0.408587,0.148578 0.185721,0.111432 0.278582,0.315726 v 0.01857 q 0.07429,0.130005 0.07429,0.26001 0.09286,0.482875 -0.09286,0.835746 -0.185722,0.35287 -0.52002,0.61288 -0.334299,0.26001 -0.761458,0.408587 -0.408587,0.167149 -0.780029,0.241438 -0.371443,0.07429 -0.761458,0.09286 -0.390014,0.01857 -0.817174,-0.01857 h -0.111432 q -0.09286,0 -0.16715,-0.01857 -0.07429,0 -0.148577,0 -0.910034,-0.111433 -1.467198,-0.35287 -0.538592,-0.241438 -0.835746,-0.52002 -0.278582,-0.278582 -0.390015,-0.538592 -0.09286,-0.26001 -0.111433,-0.390015 v -0.05572 q 0,-0.03714 0,-0.03714 0.01857,-0.01857 0.01857,-0.05572 0.07429,-1.39291 0.427159,-2.488666 0.352871,-1.0957562 0.798602,-1.9129292 0.445731,-0.835746 0.910035,-1.3929104 0.464303,-0.557164 0.780029,-0.8728902 -0.742885,0.1114328 -1.48577,0.1857213 -0.742886,0.055716 -1.411482,0.055716 -0.6686,-0.018565 -1.244336,-0.1114254 Q 80.83989,5.9976893 80.431304,5.7748237 80.319871,5.7191073 80.208438,5.6633909 80.115577,5.5891024 80.022717,5.5148138 Z M 65.419679,4.3778782 v 2.0744021 h 4.822135 v 7.2434047 h 2.543693 V 6.4522803 h 4.828936 V 4.3778782 Z M 57.373113,14.692078 V 3.3814851 h 4.597692 V 14.692078 Z M 50.795639,4.1738396 h 1.129018 q 0.326464,0 1.217436,0.4352844 0.761748,0.9385819 0.761748,1.475886 0.0204,0.1564304 0.0204,0.2720528 0,0.2108409 -0.278854,0.2312448 h -0.408079 q -0.176834,0 -0.442086,-0.319662 -0.183635,-0.2312448 -1.149423,-0.2312448 0,-0.027205 -0.367271,-0.027205 -0.428483,0.047609 -0.550907,0.047609 h -1.285445 q -0.707337,0 -0.965787,1.0814096 v 0.1156224 q 0,0.176834 0.231245,0.870569 0.272053,0.510099 0.734542,0.510099 0,0.02721 0.340066,0.115622 0.659728,-0.183636 0.924979,-0.646125 0,-0.0204 0.08842,-0.06801 h 0.142827 q 0.56451,0.503297 0.918178,0.686933 0.183636,0.278854 0.897774,0.278854 0.56451,0.15643 0.754947,0.503297 0.367271,0.340066 0.367271,1.3602642 0.04761,0.584913 0.04761,0.686933 v 0.0272 q -0.08162,0.843364 -0.278854,1.074609 -0.278854,0.557708 -0.591715,0.809357 -0.591714,0.387675 -0.829761,0.387675 -0.115622,0 -0.299258,0.04761 l -0.278854,-0.04761 q -0.142827,0 -0.340066,0.0272 -0.646125,-0.0272 -0.82976,-0.0272 l -0.782152,0.0272 q -0.510099,0 -1.08141,-0.299258 -0.734542,-0.931781 -0.734542,-1.149423 0,-0.170033 -0.115622,-0.530503 0.06121,-0.394476 0.299258,-0.394476 0.557708,0 0.802555,0.346867 0.401278,0.278854 1.149423,0.278854 0.346867,0.0204 0.482894,0.0204 0.197238,-0.0204 0.346867,-0.06801 0.326463,0.0204 0.550907,0.0204 0.299258,0 0.918178,-0.115622 h 0.25845 q 0.469291,0 0.666529,-1.006596 0.0204,-0.204039 0.0204,-0.231244 0,-0.66653 -0.61892,-1.1290192 -0.346867,-0.136027 -0.646125,-0.183636 -0.353669,0 -0.945384,0.6461252 -0.09522,0.06801 -0.183635,0.06801 -0.08842,0 -0.408079,-0.3468682 -0.87737,-0.714138 -1.265046,-0.714138 -0.924979,-0.149629 -0.924979,-0.387675 -0.435284,-0.646125 -0.435284,-1.149423 0.0272,-0.5169002 0.0272,-0.6461252 -0.04761,-0.2312449 -0.04761,-0.299258 0,-0.3468673 0.340066,-1.2650453 0.183635,-0.4012777 0.646125,-0.6393239 0.380874,-0.4148804 1.0338,-0.4148804 0.163232,-0.047609 0.965788,-0.1156224 z M 28.20253,3.8655488 27.394642,12.710527 q -0.04179,0.348228 -0.01393,0.571094 0.02786,0.222865 0.125362,0.376085 0.08358,0.15322 0.208937,0.278582 0.125362,0.111433 0.264653,0.236795 0.376085,0.278582 0.668596,0.473589 0.292511,0.181079 0.682526,0.376086 0.78003,0.376086 1.490414,0.125362 1.39291,-0.390015 2.493309,-1.044683 1.100399,-0.654667 1.894357,-1.476484 0.807888,-0.821817 1.309336,-1.755067 Q 37.019649,9.9386368 37.214657,9.0053868 37.423593,8.0582078 37.32609,7.1667455 37.228587,6.2752831 36.838572,5.5231117 36.378912,4.5759329 35.710315,4.0048398 35.041718,3.4337467 34.24776,3.1551647 33.46773,2.8626536 32.618055,2.8347954 31.782309,2.7930081 30.974421,2.9322991 30.166533,3.057661 29.44222,3.3223139 28.731836,3.5730377 28.20253,3.8655488 Z m 1.8665,9.0957022 q 0.348227,-1.810783 0.724313,-3.5797782 0.376085,-1.782925 0.863604,-3.6076373 0.905391,-0.2925111 1.532201,-0.055716 0.626809,0.2367947 0.877533,0.7103841 0.250724,0.4735894 0.195008,1.3232642 -0.04179,0.61288 -0.292511,1.323264 -0.250724,0.710384 -0.752172,1.4207692 -0.501447,0.710384 -1.281477,1.365051 -0.78003,0.640739 -1.866499,1.100399 z m -4.275272,1.013397 h -3.969794 l -0.640738,-1.573989 h -3.287268 l -0.571093,1.573989 h -3.691212 l 3.900148,-9.8757325 h 3.593708 z m -5.710931,-4.2344472 -0.654668,-1.560059 -0.571093,1.560059 z m -8.372134,-2.02932 q -0.300011,0.578593 -0.70717,0.985752 -0.407158,0.385729 -0.900034,0.621452 0.192865,0.02143 0.407159,0.08572 0.214293,0.06429 0.407158,0.214294 0.214294,0.150006 0.364299,0.4071582 0.171435,0.235724 0.257153,0.600023 0.04286,0.257153 0.02143,0.557164 -0.02143,0.257153 -0.08572,0.578594 -0.04286,0.32144 -0.214294,0.664311 -0.107147,0.235723 -0.34287,0.621452 -0.235723,0.385729 -0.68574,0.771458 -0.428588,0.364299 -1.114328,0.66431 Q 8.431995,14.782581 7.4462436,14.868298 5.9461886,14.975442 5.0675839,14.632572 4.2104085,14.311131 3.738962,13.839685 3.2889449,13.368238 3.1389392,12.875363 3.0103629,12.382487 2.9889335,12.146764 q -0.021429,-0.3643 0.021429,-0.750029 0.064288,-0.407158 0.2357233,-0.857175 0.064288,-0.08572 0.1500057,-0.171435 0.085717,-0.06429 0.1928644,-0.150006 0.1285763,-0.08572 0.3000114,-0.150006 0.278582,-0.1071472 0.6643109,-0.1071472 0.385729,0 0.7500285,0.2357242 0,0.02143 0.021429,0.02143 0,0.02143 0,0.02143 0.021429,0 0.021429,0.02143 0,0.02143 -0.021429,0.04286 h -0.021429 q -0.1928645,0.04286 -0.3000114,0.321441 -0.021429,0.04286 -0.085718,0.300012 -0.064288,0.257152 -0.085718,0.642881 -0.021429,0.3643 0.021429,0.814317 0.064288,0.428587 0.278582,0.814316 0.2142939,0.3643 0.6214522,0.642882 0.4285877,0.278582 1.1357574,0.34287 Q 7.746255,14.268279 8.367707,13.968265 8.989159,13.668254 9.353459,13.196807 9.717758,12.725361 9.824905,12.146768 9.932052,11.546745 9.782045,11.03244 9.63204,10.518134 9.203452,10.175264 8.774864,9.8323938 8.089124,9.8109648 H 7.831971 7.789111 q -0.06429,0 -0.08572,-0.02143 -0.2785815,1.1571872 -0.3428697,1.9929332 -0.064288,0.814317 -0.064288,1.114328 0,0.06429 -0.021429,0.107147 -0.042859,0.08572 -0.1285763,0.08572 Q 6.5462052,13.046803 6.203335,12.87537 5.8604649,12.682505 5.7104592,12.51107 5.6676002,12.44678 5.6890302,12.146771 5.7318892,11.846759 5.8176065,11.418171 5.9033245,10.989584 6.010471,10.453849 6.1390473,9.9181148 6.2676236,9.4038088 6.0104768,9.5109488 5.6033185,9.6180958 5.1961602,9.7038138 4.9175782,9.5323788 4.7247137,9.4038018 4.4889905,9.1895078 4.2746966,8.9752148 4.0604028,8.6966328 3.8675383,8.4180508 3.6961032,8.1180388 3.5246682,7.8180278 3.4175212,7.5608748 3.3103743,7.3037228 3.46038,6.9608522 3.6103857,6.5965527 3.8889677,6.2322531 4.1889791,5.8465242 4.5318492,5.5036541 4.8747194,5.1607839 5.1747308,4.9250607 5.410454,4.7321962 5.8390417,4.4536142 6.2890588,4.1536028 6.8247934,3.8964502 7.360528,3.6392976 7.960551,3.4464331 8.560574,3.2321393 9.139167,3.1892805 q 0.578593,-0.042859 1.071469,0.1071469 0.514305,0.1500057 0.878605,0.6000228 0.471446,0.5357346 0.70717,1.1357574 0.214293,0.5143052 0.257152,1.2214749 0.04286,0.6857403 -0.34287,1.4571983 z m -3.793001,1.264334 q 0.214294,-0.08572 0.514305,-0.214294 0.300012,-0.150006 0.621452,-0.321441 0.342871,-0.192865 0.664311,-0.428588 0.34287,-0.257152 0.642882,-0.600023 0.68574,-0.8357455 0.814316,-1.478627 Q 11.303535,5.2679308 11.1321,4.9250607 11.024953,4.7536256 10.7678,4.6250493 10.532077,4.4750436 10.103489,4.4750436 9.674902,4.4536142 9.03202,4.6250493 8.389138,4.7964844 7.5105337,5.2250721 6.6319289,5.6536598 6.0747649,6.167965 5.5390303,6.6822702 5.2604483,7.1751461 5.0032957,7.6680218 4.9818663,8.0966098 q 0,0.407158 0.1714351,0.600023 0.3000114,0.300011 0.6643109,0.32144 0.3642996,0 0.557164,-0.04286 0.1714351,-0.664311 0.3000114,-1.178617 0.1500057,-0.535734 0.2357232,-0.7714574 0.107147,-0.3642996 0.107147,-0.5785934 0,-0.2357232 -0.042859,-0.3428702 -0.021429,-0.021429 0,-0.064288 0.042859,-0.085718 0.1500057,-0.085718 0.4285877,0 0.7500284,0.1500057 0.321441,0.1500057 0.492876,0.2571526 0.04286,0.042859 0.08572,0.107147 0.08572,0.1071469 0.04286,0.3428701 -0.06429,0.2357233 -0.150005,0.6000226 -0.08572,0.342871 -0.171435,0.664311 -0.08572,0.385729 -0.214294,0.792888 -0.02143,0.04286 -0.02143,0.06429 0,0 -0.02143,0.04286 z"
       style="font-style:normal;font-variant:normal;font-weight:normal;font-stretch:normal;font-size:13.9291px;line-height:1.2;font-family:'Walking in the Street';-inkscape-font-specification:'Walking in the Street';text-align:start;letter-spacing:0px;word-spacing:0px;writing-mode:lr-tb;text-anchor:start;stroke-width:0.264583"
       id="path879" />
  </g>
</svg>
