<svg xmlns="http://www.w3.org/2000/svg" width="131.4" height="131.4" viewBox="0 0 34.8 34.8"><path fill="red" d="M34.8 17.4a17.4 17.4 0 01-17.4 17.4A17.4 17.4 0 010 17.4 17.4 17.4 0 0117.4 0a17.4 17.4 0 0117.4 17.4"/><g style="line-height:1.25;-inkscape-font-specification:Bracheos;text-align:center"><path fill="#fff" stroke-width="1.8" d="M26.2 23.2a20.1 20.1 0 01-3.7 3.6c-.7.4-1.5.2-2-.5-.8-.7-1.5-1.7-2.6-2.2-.9-.3-1.5.7-2.1 1.2-.8.8-1.7 1.6-3 1.5-.9-.3-1.4-1.2-2.2-1.8-.9-.8-1.9-1.6-2.2-2.9 0-1.5 1.2-2.6 2.3-3.5.8-.7.1-1.8-.4-2.4-.6-.8-1.4-1.4-2-2.1-.6-1 .5-1.8 1-2.5 1.1-1 2.1-2.3 3.5-3 1.1-.4 2.2.5 3 1.2.5.6 1.1 1.6 2 1.5 1-.4 1.6-1.2 2.3-2 .6-.5 1.5-1 2.4-.6 1 .5 1.8 1.4 2.6 2.2.7.7 1.5 1.5 1.8 2.5 0 1-1 1.6-1.6 2.3-.5.6-1.3 1.2-1.4 2 .5 1.3 1.9 2 2.5 3.2.5.7.5 1.7-.2 2.3z" aria-label="+" font-family="Bracheos" font-size="45.6" font-weight="400" letter-spacing="0" text-anchor="middle" word-spacing="0" style="-inkscape-font-specification:Bracheos"/></g></svg>