<?xml version="1.0" encoding="UTF-8" standalone="no"?>
<svg
   xmlns:dc="http://purl.org/dc/elements/1.1/"
   xmlns:cc="http://creativecommons.org/ns#"
   xmlns:rdf="http://www.w3.org/1999/02/22-rdf-syntax-ns#"
   xmlns:svg="http://www.w3.org/2000/svg"
   xmlns="http://www.w3.org/2000/svg"
   id="svg8"
   version="1.1"
   viewBox="0 0 89.820877 12.423258"
   height="12.423258mm"
   width="89.820877mm">
  <defs
     id="defs2" />
  <metadata
     id="metadata5">
    <rdf:RDF>
      <cc:Work
         rdf:about="">
        <dc:format>image/svg+xml</dc:format>
        <dc:type
           rdf:resource="http://purl.org/dc/dcmitype/StillImage" />
        <dc:title></dc:title>
      </cc:Work>
    </rdf:RDF>
  </metadata>
  <g
     transform="translate(-2.9817905,-2.8251522)"
     id="layer1">
    <path
       d="M 83.517666,14.956514 V 3.1170384 h 8.05695 v 2.28987 H 86.09589 v 2.425566 h 4.698474 V 10.105382 H 86.09589 v 2.561262 h 5.478726 v 2.28987 z M 78.548067,5.4069084 V 14.956514 H 75.969843 V 5.4069084 h -3.205818 v -2.28987 h 8.98986 v 2.28987 z M 65.898918,14.956514 v -2.052402 h 1.52658 V 5.1694404 h -1.52658 v -2.052402 h 5.631384 v 2.052402 h -1.52658 v 7.7346716 h 1.52658 v 2.052402 z m -6.276737,0.203544 q -1.560504,0 -2.646072,-0.525822 -1.085568,-0.542784 -1.848858,-1.390884 l 1.6962,-1.713162 q 1.204302,1.35696 2.96835,1.35696 0.949872,0 1.407846,-0.390126 0.457974,-0.390126 0.457974,-1.034682 0,-0.491898 -0.271392,-0.814176 -0.271392,-0.33924 -1.10253,-0.457974 l -1.170378,-0.152658 q -1.882782,-0.2374676 -2.764806,-1.1364536 -0.865062,-0.898986 -0.865062,-2.391642 0,-0.797214 0.305316,-1.458732 0.305316,-0.661518 0.865062,-1.136454 0.576708,-0.474936 1.390884,-0.729366 0.831138,-0.271392 1.882782,-0.271392 1.339998,0 2.357718,0.42405 1.01772,0.42405 1.747086,1.238226 l -1.713162,1.730124 q -0.42405,-0.491898 -1.034682,-0.797214 -0.59367,-0.322278 -1.509618,-0.322278 -0.865062,0 -1.289112,0.305316 -0.42405,0.305316 -0.42405,0.8481 0,0.610632 0.322278,0.882024 0.33924,0.271392 1.085568,0.390126 l 1.170378,0.186582 q 1.831896,0.288354 2.71392,1.136454 0.882024,0.831138 0.882024,2.3746796 0,0.8481 -0.305316,1.560504 -0.305316,0.712404 -0.898986,1.221264 -0.576708,0.50886 -1.44177,0.797214 -0.865062,0.271392 -1.967592,0.271392 z M 39.953152,3.1170384 h 4.461006 q 1.170378,0 2.137212,0.373164 0.966834,0.373164 1.645314,1.119492 0.67848,0.729366 1.051644,1.848858 0.373164,1.10253 0.373164,2.578224 0,1.4756936 -0.373164,2.5951856 -0.373164,1.10253 -1.051644,1.848858 -0.67848,0.729366 -1.645314,1.10253 -0.966834,0.373164 -2.137212,0.373164 h -4.461006 z m 4.461006,9.5496056 q 1.153416,0 1.814934,-0.644556 0.661518,-0.644556 0.661518,-2.0693636 v -1.831896 q 0,-1.424808 -0.661518,-2.069364 -0.661518,-0.644556 -1.814934,-0.644556 h -1.882782 v 7.2597356 z m -11.836826,2.493414 q -1.170378,0 -2.137212,-0.390126 -0.966834,-0.390126 -1.645314,-1.153416 -0.67848,-0.780252 -1.051643,-1.916706 -0.373164,-1.153416 -0.373164,-2.6630336 0,-1.509618 0.373164,-2.646072 0.373163,-1.153416 1.051643,-1.916706 0.67848,-0.780252 1.645314,-1.170378 0.966834,-0.390126 2.137212,-0.390126 1.170378,0 2.137212,0.390126 0.966834,0.390126 1.645314,1.170378 0.67848,0.76329 1.051644,1.916706 0.373164,1.136454 0.373164,2.646072 0,1.5096176 -0.373164,2.6630336 -0.373164,1.136454 -1.051644,1.916706 -0.67848,0.76329 -1.645314,1.153416 -0.966834,0.390126 -2.137212,0.390126 z m 0,-2.28987 q 1.170378,0 1.814934,-0.76329 0.661518,-0.76329 0.661518,-2.1880976 v -1.764048 q 0,-1.424808 -0.661518,-2.188098 -0.644556,-0.76329 -1.814934,-0.76329 -1.170378,0 -1.831896,0.76329 -0.644556,0.76329 -0.644556,2.188098 v 1.764048 q 0,1.4248076 0.644556,2.1880976 0.661518,0.76329 1.831896,0.76329 z m -12.125178,2.28987 q -1.170378,0 -2.137212,-0.390126 -0.966834,-0.390126 -1.645314,-1.153416 -0.67848,-0.780252 -1.051644,-1.916706 -0.373164,-1.153416 -0.373164,-2.6630336 0,-1.509618 0.373164,-2.646072 0.373164,-1.153416 1.051644,-1.916706 0.67848,-0.780252 1.645314,-1.170378 0.966834,-0.390126 2.137212,-0.390126 1.170378,0 2.137212,0.390126 0.966834,0.390126 1.645314,1.170378 0.67848,0.76329 1.051644,1.916706 0.373164,1.136454 0.373164,2.646072 0,1.5096176 -0.373164,2.6630336 -0.373164,1.136454 -1.051644,1.916706 -0.67848,0.76329 -1.645314,1.153416 -0.966834,0.390126 -2.137212,0.390126 z m 0,-2.28987 q 1.170378,0 1.814934,-0.76329 0.661518,-0.76329 0.661518,-2.1880976 v -1.764048 q 0,-1.424808 -0.661518,-2.188098 -0.644556,-0.76329 -1.814934,-0.76329 -1.170378,0 -1.831896,0.76329 -0.644556,0.76329 -0.644556,2.188098 v 1.764048 q 0,1.4248076 0.644556,2.1880976 0.661518,0.76329 1.831896,0.76329 z m -9.426632,0.203544 h -0.08481 q -0.135696,0.898986 -0.915948,1.492656 -0.7802516,0.59367 -2.1202496,0.59367 -1.01772,0 -1.899744,-0.390126 -0.882024,-0.390126 -1.543542,-1.153416 -0.661518,-0.76329 -1.034682,-1.899744 -0.373164,-1.136454 -0.373164,-2.6291096 0,-1.492656 0.390126,-2.646072 0.390126,-1.153416 1.085568,-1.933668 0.712404,-0.780252 1.6962,-1.18734 0.983796,-0.407088 2.188098,-0.407088 1.5944276,0 2.7478436,0.695442 1.153416,0.67848 1.814934,2.052402 l -2.103288,1.204302 q -0.271392,-0.695442 -0.8481,-1.170378 -0.5767076,-0.491898 -1.6113896,-0.491898 -1.204302,0 -1.916706,0.695442 -0.712404,0.695442 -0.712404,2.188098 v 1.899744 q 0,1.4756936 0.712404,2.1880976 0.712404,0.695442 1.916706,0.695442 0.474936,0 0.898986,-0.101772 0.42405,-0.118734 0.7463276,-0.33924 0.322278,-0.237468 0.491898,-0.559746 0.186582,-0.322278 0.186582,-0.76329 V 10.51247 H 8.5321084 V 8.3582964 h 4.6645496 v 6.5982176 h -2.171136 z"
       style="font-style:normal;font-variant:normal;font-weight:bold;font-stretch:normal;font-size:16.962px;line-height:1.2;font-family:'IBM Plex Sans';-inkscape-font-specification:'IBM Plex Sans Bold';text-align:start;letter-spacing:0px;word-spacing:0px;writing-mode:lr-tb;text-anchor:start;stroke-width:0.264583"
       id="path998" />
  </g>
</svg>
