<svg xmlns="http://www.w3.org/2000/svg" width="131.4" height="131.4" viewBox="0 0 34.8 34.8"><circle cx="17.4" cy="17.4" r="17.4" fill="#156c00"/><path fill="#fff" stroke-width=".3" style="fill:#ffffff;fill-opacity:1;stroke-width:0.74839" d="M25.9 6.8h-.3c-2 .4-3.8 1.6-5.1 3.3a42.3 42.3 0 00-4.6 6.6l-1 2.7c-1-.6-2-1.1-3.2-1.1a2 2 0 00-.8.2L8 19.7A2 2 0 007 21.5c0 1 .9 2 1.9 2h.4c.8 0 1.2.2 1.8.6.6.5 1.2 1.3 1.7 2.6a2 2 0 001.7 1.2l.8-.1.6-.2 1.6-.6a2.1 2.1 0 001.3-1.4l.2-1c.7-3.3 2.8-7.5 6.4-12.5l1.8-1.8c.4-.4.6-1 .6-1.5 0-1-1-2-2-2z" aria-label="☑" font-family="sans-serif" font-size="10.6" font-weight="400" letter-spacing="0" text-anchor="middle" word-spacing="0"/></svg>