<?xml version="1.0" encoding="utf-8"?>
<svg xmlns:dc="http://purl.org/dc/elements/1.1/" xmlns:cc="http://creativecommons.org/ns#" xmlns:rdf="http://www.w3.org/1999/02/22-rdf-syntax-ns#" xmlns:svg="http://www.w3.org/2000/svg" xmlns="http://www.w3.org/2000/svg" viewBox="0 0 742.66656 636.57135" height="636.571" width="742.667" xml:space="preserve" version="1.1"><defs><clipPath id="clipPath22" clipPathUnits="userSpaceOnUse"><path d="M 0,0 H 557 V 478 H 0 Z"/></clipPath><clipPath id="clipPath104" clipPathUnits="userSpaceOnUse"><path d="M 32.277,309.276 H 524.722 V 32.561 H 32.277 Z"/></clipPath><clipPath id="clipPath114" clipPathUnits="userSpaceOnUse"><path d="M 0,33 H 525 V 310 H 0 Z"/></clipPath></defs><g transform="matrix(1.333,0,0,-1.333,0,636.571)"><g><g transform="translate(0,-0.571)"><g><g clip-path="url(#clipPath22)"><g><path style="fill:#d3d3d3;fill-opacity:1;fill-rule:nonzero;stroke:none" d="M 0,478 H 557 V 0.57 H 0 Z"/><path style="fill:#eeeeee;fill-opacity:1;fill-rule:nonzero;stroke:none" d="m 0,478 h 557 v -2.254 H 0 Z"/><path style="fill:#9a9a9a;fill-opacity:1;fill-rule:nonzero;stroke:none" d="M 0,2.824 H 557 V 0.57 H 0 Z"/><path style="fill:#9a9a9a;fill-opacity:1;fill-rule:nonzero;stroke:none" d="M 554.746,475.746 V 0.57 H 557 V 478"/><path style="fill:#eeeeee;fill-opacity:1;fill-rule:nonzero;stroke:none" d="M 0,478 V 0.57 L 2.254,2.824 V 478"/><path style="fill:#00008b;fill-opacity:1;fill-rule:nonzero;stroke:none" d="M 5.254,472.746 H 551.746 V 434.461 H 5.254 Z"/><path style="fill:#d3d3d3;fill-opacity:1;fill-rule:nonzero;stroke:none" d="M 5.254,434.461 H 551.746 V 391.672 H 5.254 Z"/><path style="fill:#ffffff;fill-opacity:1;fill-rule:nonzero;stroke:none" d="M 5.254,391.672 H 551.746 V 6.578 H 5.254 Z"/><path style="fill:#9a9a9a;fill-opacity:1;fill-rule:nonzero;stroke:none" d="m 5.254,391.672 h 546.492 v -2.25 H 5.254 Z"/><path style="fill:#eeeeee;fill-opacity:1;fill-rule:nonzero;stroke:none" d="M 5.254,8.828 H 551.746 V 6.578 H 5.254 Z"/><path style="fill:#eeeeee;fill-opacity:1;fill-rule:nonzero;stroke:none" d="M 549.492,389.422 V 6.578 h 2.254 v 385.094"/><path style="fill:#9a9a9a;fill-opacity:1;fill-rule:nonzero;stroke:none" d="M 5.254,391.672 V 6.578 l 2.254,2.25 v 382.844"/><path style="fill:#d3d3d3;fill-opacity:1;fill-rule:nonzero;stroke:none" d="m 517.215,468.242 h 30.027 v -30.027 h -30.027 z"/><path style="fill:#ffffff;fill-opacity:1;fill-rule:nonzero;stroke:none" d="m 517.215,468.242 h 30.027 v -3.754 h -30.027 z"/><path style="fill:#ababab;fill-opacity:1;fill-rule:nonzero;stroke:none" d="m 517.215,441.969 h 30.027 v -3.754 h -30.027 z"/><path style="fill:#ababab;fill-opacity:1;fill-rule:nonzero;stroke:none" d="m 543.488,464.488 v -26.273 h 3.754 v 30.027"/><path style="fill:#ffffff;fill-opacity:1;fill-rule:nonzero;stroke:none" d="m 517.215,468.242 v -30.027 l 3.754,3.754 v 26.273"/><text style="font-variant:normal;font-weight:normal;font-size:18.016px;font-family:'DejaVu Sans';-inkscape-font-specification:DejaVuSans;writing-mode:lr-tb;fill:#000000;fill-opacity:1;fill-rule:nonzero;stroke:none" transform="matrix(1,0,0,-1,524.979,447.222)"><tspan>✕</tspan></text><text style="font-variant:normal;font-weight:600;font-size:18.016px;font-family:'IBM Plex Sans SemiBold';-inkscape-font-specification:IBMPlexSans-SemiBold;writing-mode:lr-tb;fill:#ffffff;fill-opacity:1;fill-rule:nonzero;stroke:none" transform="matrix(1,0,0,-1,9.501,446.472)"><tspan x="0 9.765 20.268 27.024 36.789 52.553 57.057 64.57 75.073 84.063 94.585 110.349 114.853 121.627 126.131 138.887 151.642 164.416 177.171 181.675 192.935 200.448 210.951">Lorem Ipsum | GOOD SITE</tspan></text><text style="font-variant:normal;font-weight:normal;font-size:22.52px;font-family:'IBM Plex Sans';-inkscape-font-specification:IBMPlexSans;writing-mode:lr-tb;fill:#000000;fill-opacity:1;fill-rule:nonzero;stroke:none" transform="matrix(1,0,0,-1,13.5,404.434)"><tspan>←</tspan></text><text style="font-variant:normal;font-weight:normal;font-size:22.52px;font-family:'IBM Plex Sans';-inkscape-font-specification:IBMPlexSans;writing-mode:lr-tb;fill:#000000;fill-opacity:1;fill-rule:nonzero;stroke:none" transform="matrix(1,0,0,-1,42.777,404.434)"><tspan>→</tspan></text><text style="font-variant:normal;font-weight:normal;font-size:22.52px;font-family:'DejaVu Sans';-inkscape-font-specification:DejaVuSans;writing-mode:lr-tb;fill:#000000;fill-opacity:1;fill-rule:nonzero;stroke:none" transform="matrix(1,0,0,-1,72.053,404.434)"><tspan>⟳</tspan></text><path style="fill:#ffffff;fill-opacity:1;fill-rule:nonzero;stroke:none" d="m 102.59,401.68 v 22.773 c 0,0.465 0.09,0.91 0.265,1.34 0.18,0.43 0.434,0.809 0.762,1.137 0.328,0.328 0.707,0.582 1.137,0.761 0.43,0.176 0.875,0.266 1.34,0.266 h 404.863 c 0.465,0 0.914,-0.09 1.344,-0.266 0.429,-0.179 0.808,-0.433 1.137,-0.761 0.328,-0.328 0.582,-0.707 0.757,-1.137 0.18,-0.43 0.27,-0.875 0.27,-1.34 V 401.68 c 0,-0.465 -0.09,-0.91 -0.27,-1.34 -0.175,-0.43 -0.429,-0.809 -0.757,-1.137 -0.329,-0.328 -0.708,-0.582 -1.137,-0.762 -0.43,-0.175 -0.879,-0.265 -1.344,-0.265 H 106.094 c -0.465,0 -0.91,0.09 -1.34,0.265 -0.43,0.18 -0.809,0.434 -1.137,0.762 -0.328,0.328 -0.582,0.707 -0.762,1.137 -0.175,0.43 -0.265,0.875 -0.265,1.34 z"/><g transform="matrix(1,0,0,-1,0,478)"><path style="fill:none;stroke:#808080;stroke-width:0.751;stroke-linecap:butt;stroke-linejoin:miter;stroke-miterlimit:10;stroke-dasharray:none;stroke-opacity:1" d="M 102.469,76.32 V 53.547 c 0,-0.481 0.09,-0.942 0.273,-1.387 0.184,-0.445 0.446,-0.836 0.789,-1.176 0.34,-0.343 0.731,-0.605 1.176,-0.789 0.445,-0.183 0.906,-0.277 1.387,-0.277 h 404.863 c 0.484,0 0.945,0.094 1.391,0.277 0.445,0.184 0.836,0.446 1.175,0.789 0.34,0.34 0.602,0.731 0.789,1.176 0.184,0.445 0.274,0.906 0.274,1.387 V 76.32 c 0,0.481 -0.09,0.942 -0.274,1.387 -0.187,0.445 -0.449,0.836 -0.789,1.176 -0.339,0.34 -0.73,0.605 -1.175,0.789 -0.446,0.183 -0.907,0.273 -1.391,0.273 H 106.094 c -0.481,0 -0.942,-0.09 -1.387,-0.273 -0.445,-0.184 -0.836,-0.449 -1.176,-0.789 -0.343,-0.34 -0.605,-0.731 -0.789,-1.176 -0.183,-0.445 -0.273,-0.906 -0.273,-1.387 z"/></g><text style="font-variant:normal;font-weight:normal;font-size:16.215px;font-family:'IBM Plex Sans';-inkscape-font-specification:IBMPlexSans;writing-mode:lr-tb;fill:#000000;fill-opacity:1;fill-rule:nonzero;stroke:none" transform="matrix(1,0,0,-1,111.076,406.686)"><tspan x="0 9.761 15.761 21.776 31.537 39.791 44.298 48.044 54.059 63.058 71.279 80.327 94.596 104.357 108.848 117.864 122.371 130.624 139.64 153.892 159.908 168.161 172.669 182.43 191.429">https://example.com/video</tspan></text><text style="font-variant:normal;font-weight:normal;font-size:22.52px;font-family:'DejaVu Sans';-inkscape-font-specification:DejaVuSans;writing-mode:lr-tb;fill:#000000;fill-opacity:1;fill-rule:nonzero;stroke:none" transform="matrix(1,0,0,-1,523.231,404.434)"><tspan>☰</tspan></text><text style="font-variant:normal;font-weight:600;font-size:28.023px;font-family:'IBM Plex Sans SemiBold';-inkscape-font-specification:IBMPlexSans-SemiBold;writing-mode:lr-tb;fill:#000000;fill-opacity:1;fill-rule:nonzero;stroke:none" transform="matrix(1,0,0,-1,32.021,336.123)"><tspan x="0 14.264 30.04 41.277 57.054 81.826 88.58 96.09 112.623 126.13 142.607">Lorem ipsum</tspan></text></g></g></g></g></g><g><g clip-path="url(#clipPath104)"><g transform="translate(0,-0.571)"><g><g clip-path="url(#clipPath114)"><g><path style="fill:#d6e7d8;fill-opacity:1;fill-rule:nonzero;stroke:none" d="M 32.285,309.848 H 524.949 V 33.133 H 32.285 Z"/><path style="fill:#f2f2f2;fill-opacity:0.345;fill-rule:evenodd;stroke:none" d="M 308.855,120.039 C 303.828,176.156 33.996,284.469 -16.098,231.316 -66.191,178.164 -18.031,78.406 86.945,52.863 191.922,27.32 313.887,63.922 308.855,120.039 Z"/><path style="fill:#f2f2f2;fill-opacity:1;fill-rule:nonzero;stroke:none" d="m 321.762,220.234 c 0,-1.882 -0.094,-3.761 -0.278,-5.632 -0.187,-1.875 -0.461,-3.735 -0.832,-5.582 -0.367,-1.848 -0.824,-3.672 -1.371,-5.473 -0.547,-1.801 -1.179,-3.57 -1.902,-5.313 -0.723,-1.738 -1.527,-3.437 -2.418,-5.097 -0.887,-1.66 -1.856,-3.274 -2.902,-4.84 -1.047,-1.567 -2.172,-3.074 -3.368,-4.531 -1.195,-1.457 -2.461,-2.848 -3.793,-4.18 -1.332,-1.332 -2.73,-2.594 -4.187,-3.789 -1.457,-1.195 -2.969,-2.313 -4.535,-3.359 -1.571,-1.047 -3.184,-2.016 -4.848,-2.903 -1.664,-0.887 -3.367,-1.691 -5.105,-2.41 -1.743,-0.723 -3.516,-1.355 -5.321,-1.902 -1.804,-0.547 -3.632,-1.004 -5.48,-1.371 -1.852,-0.368 -3.715,-0.641 -5.59,-0.829 -1.875,-0.183 -3.758,-0.273 -5.644,-0.273 -1.883,0 -3.766,0.09 -5.641,0.273 -1.879,0.188 -3.738,0.461 -5.59,0.829 -1.848,0.367 -3.676,0.824 -5.48,1.371 -1.805,0.547 -3.579,1.179 -5.321,1.902 -1.742,0.719 -3.441,1.523 -5.105,2.41 -1.664,0.887 -3.278,1.856 -4.848,2.903 -1.566,1.046 -3.078,2.164 -4.535,3.359 -1.461,1.195 -2.856,2.457 -4.188,3.789 -1.332,1.332 -2.597,2.723 -3.792,4.18 -1.2,1.457 -2.321,2.964 -3.368,4.531 -1.047,1.566 -2.015,3.18 -2.906,4.84 -0.887,1.66 -1.691,3.359 -2.414,5.097 -0.723,1.743 -1.355,3.512 -1.902,5.313 -0.547,1.801 -1.004,3.625 -1.375,5.473 -0.368,1.847 -0.641,3.707 -0.828,5.582 -0.184,1.871 -0.278,3.75 -0.278,5.632 0,1.883 0.094,3.762 0.278,5.637 0.187,1.871 0.46,3.734 0.828,5.578 0.371,1.848 0.828,3.672 1.375,5.473 0.547,1.801 1.179,3.574 1.902,5.312 0.723,1.739 1.527,3.442 2.418,5.102 0.887,1.66 1.855,3.273 2.902,4.836 1.047,1.566 2.168,3.078 3.368,4.531 1.195,1.457 2.46,2.852 3.792,4.184 1.332,1.328 2.731,2.593 4.188,3.785 1.457,1.195 2.969,2.316 4.535,3.363 1.57,1.047 3.184,2.012 4.848,2.899 1.664,0.886 3.363,1.691 5.105,2.414 1.742,0.718 3.516,1.351 5.321,1.898 1.804,0.547 3.632,1.004 5.48,1.371 1.852,0.367 3.711,0.645 5.59,0.828 1.875,0.184 3.758,0.278 5.641,0.278 1.886,0 3.769,-0.094 5.644,-0.278 1.875,-0.183 3.738,-0.461 5.59,-0.828 1.848,-0.367 3.676,-0.824 5.48,-1.371 1.805,-0.547 3.578,-1.18 5.321,-1.898 1.738,-0.723 3.441,-1.528 5.105,-2.414 1.664,-0.887 3.277,-1.852 4.848,-2.899 1.566,-1.047 3.078,-2.168 4.535,-3.363 1.457,-1.192 2.855,-2.457 4.187,-3.785 1.332,-1.332 2.598,-2.727 3.793,-4.184 1.196,-1.453 2.321,-2.965 3.368,-4.531 1.046,-1.563 2.015,-3.176 2.902,-4.836 0.891,-1.66 1.695,-3.363 2.418,-5.102 0.723,-1.738 1.355,-3.511 1.902,-5.312 0.547,-1.801 1.004,-3.625 1.371,-5.473 0.371,-1.844 0.645,-3.707 0.832,-5.578 0.184,-1.875 0.278,-3.754 0.278,-5.637 z"/><path style="fill:#000000;fill-opacity:0.102;fill-rule:nonzero;stroke:none" d="m 267.449,265.793 c 0,-0.434 -0.086,-0.848 -0.25,-1.246 -0.164,-0.399 -0.398,-0.75 -0.707,-1.055 -0.304,-0.308 -0.656,-0.543 -1.054,-0.707 -0.403,-0.164 -0.817,-0.246 -1.25,-0.246 -0.43,0 -0.848,0.082 -1.247,0.246 -0.398,0.164 -0.75,0.399 -1.054,0.707 -0.309,0.305 -0.543,0.656 -0.707,1.055 -0.168,0.398 -0.25,0.812 -0.25,1.246 0,0.43 0.082,0.844 0.25,1.242 0.164,0.399 0.398,0.75 0.707,1.059 0.304,0.304 0.656,0.539 1.054,0.703 0.399,0.164 0.817,0.25 1.247,0.25 0.433,0 0.847,-0.086 1.25,-0.25 0.398,-0.164 0.75,-0.399 1.054,-0.703 0.309,-0.309 0.543,-0.66 0.707,-1.059 0.168,-0.398 0.25,-0.812 0.25,-1.242 z"/><path style="fill:#000000;fill-opacity:0.102;fill-rule:nonzero;stroke:none" d="m 221.824,220.234 c 0,-0.429 -0.082,-0.843 -0.246,-1.246 -0.168,-0.398 -0.402,-0.75 -0.707,-1.054 -0.305,-0.305 -0.656,-0.539 -1.059,-0.704 -0.398,-0.168 -0.812,-0.25 -1.246,-0.25 -0.433,0 -0.847,0.082 -1.246,0.25 -0.398,0.165 -0.754,0.399 -1.058,0.704 -0.305,0.304 -0.539,0.656 -0.707,1.054 -0.164,0.403 -0.246,0.817 -0.246,1.246 0,0.434 0.082,0.848 0.246,1.246 0.168,0.399 0.402,0.75 0.707,1.055 0.304,0.305 0.66,0.543 1.058,0.707 0.399,0.164 0.813,0.246 1.246,0.246 0.434,0 0.848,-0.082 1.246,-0.246 0.403,-0.164 0.754,-0.402 1.059,-0.707 0.305,-0.305 0.539,-0.656 0.707,-1.055 0.164,-0.398 0.246,-0.812 0.246,-1.246 z"/><path style="fill:#000000;fill-opacity:0.102;fill-rule:nonzero;stroke:none" d="m 313.07,220.234 c 0,-0.429 -0.082,-0.843 -0.246,-1.246 -0.168,-0.398 -0.402,-0.75 -0.707,-1.054 -0.305,-0.305 -0.66,-0.539 -1.058,-0.704 -0.399,-0.168 -0.817,-0.25 -1.247,-0.25 -0.433,0 -0.847,0.082 -1.246,0.25 -0.402,0.165 -0.754,0.399 -1.058,0.704 -0.305,0.304 -0.543,0.656 -0.707,1.054 -0.164,0.403 -0.246,0.817 -0.246,1.246 0,0.434 0.082,0.848 0.246,1.246 0.164,0.399 0.402,0.75 0.707,1.055 0.304,0.305 0.656,0.543 1.058,0.707 0.399,0.164 0.813,0.246 1.246,0.246 0.43,0 0.848,-0.082 1.247,-0.246 0.398,-0.164 0.75,-0.402 1.058,-0.707 0.305,-0.305 0.539,-0.656 0.707,-1.055 0.164,-0.398 0.246,-0.812 0.246,-1.246 z"/><path style="fill:#000000;fill-opacity:0.102;fill-rule:nonzero;stroke:none" d="m 267.449,174.68 c 0,-0.434 -0.086,-0.848 -0.25,-1.246 -0.164,-0.399 -0.398,-0.75 -0.707,-1.055 -0.304,-0.305 -0.656,-0.539 -1.054,-0.707 -0.403,-0.164 -0.817,-0.246 -1.25,-0.246 -0.43,0 -0.848,0.082 -1.247,0.246 -0.398,0.168 -0.75,0.402 -1.054,0.707 -0.309,0.305 -0.543,0.656 -0.707,1.055 -0.168,0.398 -0.25,0.812 -0.25,1.246 0,0.429 0.082,0.847 0.25,1.246 0.164,0.398 0.398,0.75 0.707,1.054 0.304,0.305 0.656,0.54 1.054,0.708 0.399,0.164 0.817,0.246 1.247,0.246 0.433,0 0.847,-0.082 1.25,-0.246 0.398,-0.168 0.75,-0.403 1.054,-0.708 0.309,-0.304 0.543,-0.656 0.707,-1.054 0.168,-0.399 0.25,-0.817 0.25,-1.246 z"/><path style="fill:#afb9c5;fill-opacity:1;fill-rule:evenodd;stroke:none" d="m 266.363,221.32 h -4.347 l 2.172,37.961 z"/><path style="fill:#afb9c5;fill-opacity:1;fill-rule:evenodd;stroke:none" d="m 263.445,217.91 3.071,3.07 16.898,-19.941 z"/><path style="fill:#c5cfd6;fill-opacity:1;fill-rule:nonzero;stroke:none" d="m 268.535,220.234 c 0,-0.285 -0.027,-0.566 -0.086,-0.843 -0.054,-0.282 -0.137,-0.551 -0.246,-0.817 -0.109,-0.262 -0.242,-0.512 -0.402,-0.75 -0.156,-0.234 -0.336,-0.457 -0.539,-0.656 -0.203,-0.203 -0.422,-0.383 -0.66,-0.539 -0.235,-0.16 -0.485,-0.293 -0.75,-0.402 -0.262,-0.11 -0.536,-0.192 -0.817,-0.247 -0.277,-0.054 -0.562,-0.082 -0.847,-0.082 -0.286,0 -0.567,0.028 -0.848,0.082 -0.278,0.055 -0.551,0.137 -0.813,0.247 -0.265,0.109 -0.515,0.242 -0.754,0.402 -0.234,0.156 -0.453,0.336 -0.656,0.539 -0.203,0.199 -0.383,0.422 -0.539,0.656 -0.16,0.238 -0.293,0.488 -0.402,0.75 -0.11,0.266 -0.192,0.535 -0.25,0.817 -0.055,0.277 -0.082,0.558 -0.082,0.843 0,0.286 0.027,0.567 0.082,0.848 0.058,0.277 0.14,0.551 0.25,0.813 0.109,0.265 0.242,0.515 0.402,0.75 0.156,0.238 0.336,0.457 0.539,0.66 0.203,0.199 0.422,0.379 0.656,0.539 0.239,0.156 0.489,0.289 0.754,0.398 0.262,0.11 0.535,0.192 0.813,0.25 0.281,0.055 0.562,0.082 0.848,0.082 0.285,0 0.57,-0.027 0.847,-0.082 0.281,-0.058 0.555,-0.14 0.817,-0.25 0.265,-0.109 0.515,-0.242 0.75,-0.398 0.238,-0.16 0.457,-0.34 0.66,-0.539 0.203,-0.203 0.383,-0.422 0.539,-0.66 0.16,-0.235 0.293,-0.485 0.402,-0.75 0.109,-0.262 0.192,-0.536 0.246,-0.813 0.059,-0.281 0.086,-0.562 0.086,-0.848 z"/><g transform="matrix(1,0,0,-0.999,0,478)"><path style="fill:none;stroke:#cbcbcb;stroke-width:4.106;stroke-linecap:butt;stroke-linejoin:miter;stroke-miterlimit:10;stroke-dasharray:none;stroke-opacity:1" d="m 421.438,212.028 20.167,-20.182 c 3.395,-3.395 8.899,-3.395 12.293,-0.004 0,0 0,0.004 0,0.004 l 53.696,53.723 c 3.258,3.259 5.09,7.679 5.09,12.288 v 187.66"/></g><path style="fill:#c5cfd6;fill-opacity:1;fill-rule:evenodd;stroke:none" d="m 433.57,278.105 c 13.996,-13.976 13.996,-36.64 0,-50.621 l -21.508,-21.472 -50.695,50.617 21.508,21.476 c 14,13.977 36.695,13.977 50.695,0 z"/><path style="fill:#f2f2f2;fill-opacity:1;fill-rule:nonzero;stroke:none" d="m 412.922,206.594 c -0.164,-0.164 -0.367,-0.285 -0.613,-0.367 -0.243,-0.082 -0.528,-0.122 -0.848,-0.122 -0.324,0.004 -0.684,0.047 -1.082,0.129 -0.395,0.086 -0.828,0.211 -1.297,0.379 -0.469,0.164 -0.973,0.371 -1.508,0.617 -0.535,0.247 -1.101,0.536 -1.699,0.86 -0.598,0.324 -1.223,0.687 -1.875,1.086 -0.652,0.398 -1.332,0.836 -2.035,1.304 -0.699,0.473 -1.426,0.977 -2.172,1.512 -0.746,0.539 -1.508,1.106 -2.289,1.703 -0.781,0.598 -1.574,1.227 -2.387,1.879 -0.808,0.656 -1.625,1.332 -2.457,2.035 -0.828,0.707 -1.664,1.43 -2.508,2.176 -0.84,0.746 -1.683,1.508 -2.531,2.289 -0.844,0.781 -1.691,1.578 -2.531,2.387 -0.844,0.809 -1.68,1.629 -2.508,2.457 -0.832,0.828 -1.652,1.664 -2.461,2.504 -0.812,0.84 -1.605,1.683 -2.391,2.527 -0.781,0.848 -1.546,1.692 -2.292,2.531 -0.747,0.84 -1.473,1.676 -2.176,2.504 -0.703,0.828 -1.383,1.645 -2.039,2.454 -0.657,0.808 -1.282,1.601 -1.883,2.382 -0.598,0.778 -1.168,1.543 -1.707,2.285 -0.535,0.747 -1.043,1.469 -1.512,2.168 -0.473,0.704 -0.906,1.379 -1.309,2.032 -0.398,0.652 -0.761,1.277 -1.089,1.875 -0.325,0.593 -0.61,1.16 -0.856,1.695 -0.25,0.535 -0.457,1.035 -0.621,1.504 -0.168,0.469 -0.293,0.898 -0.379,1.297 -0.082,0.398 -0.125,0.758 -0.129,1.078 0,0.32 0.039,0.605 0.121,0.848 0.082,0.246 0.203,0.449 0.368,0.613 0.164,0.16 0.367,0.285 0.613,0.363 0.242,0.082 0.523,0.121 0.848,0.121 0.324,0 0.683,-0.043 1.078,-0.129 0.398,-0.086 0.832,-0.211 1.3,-0.375 0.469,-0.168 0.973,-0.375 1.508,-0.621 0.535,-0.246 1.102,-0.531 1.699,-0.855 0.598,-0.328 1.223,-0.688 1.875,-1.09 0.653,-0.399 1.329,-0.832 2.032,-1.305 0.703,-0.469 1.429,-0.972 2.172,-1.512 0.746,-0.535 1.511,-1.105 2.293,-1.703 0.777,-0.597 1.574,-1.226 2.382,-1.879 0.809,-0.652 1.629,-1.332 2.457,-2.035 0.832,-0.703 1.668,-1.429 2.508,-2.175 0.844,-0.747 1.688,-1.508 2.531,-2.29 0.848,-0.781 1.692,-1.578 2.536,-2.386 0.839,-0.809 1.675,-1.625 2.507,-2.457 0.829,-0.828 1.649,-1.664 2.461,-2.504 0.809,-0.84 1.606,-1.684 2.387,-2.528 0.785,-0.843 1.547,-1.687 2.297,-2.527 0.746,-0.844 1.473,-1.676 2.176,-2.504 0.703,-0.828 1.383,-1.648 2.039,-2.457 0.656,-0.808 1.281,-1.601 1.883,-2.379 0.597,-0.781 1.168,-1.543 1.703,-2.289 0.539,-0.742 1.043,-1.465 1.515,-2.168 0.473,-0.703 0.907,-1.379 1.309,-2.031 0.398,-0.652 0.762,-1.277 1.086,-1.871 0.324,-0.598 0.613,-1.164 0.859,-1.699 0.246,-0.532 0.453,-1.035 0.621,-1.504 0.168,-0.465 0.293,-0.899 0.375,-1.297 0.086,-0.395 0.129,-0.754 0.129,-1.078 0.004,-0.321 -0.035,-0.606 -0.117,-0.848 -0.082,-0.242 -0.203,-0.445 -0.367,-0.609 z"/><path style="fill:#b28b67;fill-opacity:1;fill-rule:evenodd;stroke:none" d="m 107.438,110.887 c -9.317,10.922 -15.626,24.304 -14.571,39.304 3.035,43.211 63.274,33.704 74.992,11.895 11.719,-21.809 10.325,-77.129 -4.82,-81.027 -6.039,-1.555 -18.902,2.253 -31.996,10.132 l 8.219,-58.058 H 90.73 Z"/><path style="fill:#191847;fill-opacity:1;fill-rule:evenodd;stroke:none" d="m 71.711,164.574 c -1.57,1.551 -2.426,3.766 -3.164,5.867 -0.77,2.184 -1.516,4.391 -2.024,6.664 -1.019,4.54 -1.031,9.762 2.215,13.29 2.602,2.828 6.508,4.097 10.11,4.371 2.402,0.183 4.867,-0.153 7.168,-0.907 2.285,-0.75 4.25,-2.242 6.464,-3.171 0.086,4.894 0.926,10.015 3.411,14.195 2.394,4.019 6.207,6.277 10.554,6.875 4.457,0.613 8.86,-0.43 12.852,-2.586 1,-0.539 1.992,-1.106 2.937,-1.746 0.793,-0.535 1.621,-1.18 2.551,-1.399 1.039,-0.242 1.551,0.356 2.227,1.11 0.789,0.886 1.679,1.668 2.625,2.359 4.168,3.063 9.636,4.32 14.468,2.484 2.227,-0.843 4.387,-2.277 5.899,-4.257 1.348,-1.762 2.305,-4.559 4.164,-5.785 0.789,-0.524 1.344,0.167 2.062,0.679 1.079,0.766 2.106,1.613 3.196,2.36 1.535,1.046 3.191,1.832 4.969,2.242 2.601,0.601 6.195,0.461 6.941,-2.942 0.277,-1.277 0.062,-2.644 -0.027,-3.933 -0.121,-1.766 -0.25,-3.535 -0.407,-5.297 -0.117,-1.344 -0.261,-2.637 -0.515,-3.953 -0.137,-0.703 -0.559,-2.008 -0.258,-2.711 0.375,-0.879 2.113,-0.379 2.855,-0.41 1.469,-0.063 2.942,-0.317 4.297,-0.942 1.051,-0.488 2.157,-1.199 2.598,-2.402 0.273,-0.738 0.203,-1.496 0.074,-2.258 -0.156,-0.914 0.02,-1.394 0.137,-2.316 1.969,0.968 8.793,3.121 9.652,-0.407 0.285,-1.171 -0.363,-2.496 -0.863,-3.488 -0.871,-1.734 -2.012,-3.32 -3.18,-4.836 -2.437,-3.156 -5.344,-5.879 -8.472,-8.207 3.668,-1.625 4.621,-6.426 1.449,-9.285 -1.403,-1.262 -3.285,-1.543 -5.055,-1.465 -0.644,0.031 -1.578,0.278 -2.086,0.168 -0.273,-0.062 -0.566,-0.293 -0.949,-0.32 -2.492,-0.172 -5.309,0.43 -7.746,0.984 -4.348,0.985 -8.461,3.039 -11.82,6.168 -0.86,0.805 -1.575,1.266 -2.731,1.254 -1.019,-0.008 -2.016,-0.289 -3.031,-0.312 -2.688,-0.071 -5.11,1.242 -7.606,2.117 -0.152,-3.367 -1.109,-7.074 -2.488,-10.102 -1.125,-2.469 -3.473,-2.828 -5.781,-3.043 -7.379,-0.695 -14.781,0.078 -22.168,0.071 7.152,-1.618 14.539,-2.282 21.629,-4.18 3.203,-0.86 0.754,-3.016 -0.614,-4.508 -2.257,-2.465 -3.933,-5.512 -5.097,-8.726 -3.496,4.554 -9.68,7.554 -15.156,6.156 -6.055,-1.547 -10.317,-9.719 -6.446,-15.594 2.246,-3.41 6.305,-4.727 9.68,-6.195 -2.633,-2.735 -3.27,-6.774 -4.856,-10.172 -0.781,-1.68 -1.878,-3.578 -3.628,-4.16 -0.645,-0.219 -1.407,-0.235 -1.915,-0.762 -0.632,-0.652 -0.785,-1.383 -1.589,-1.941 -3.223,-2.239 -8.254,-2.067 -11.11,0.855 -2.582,2.637 -1.91,6.816 0.246,9.492 -3.433,1.43 -9.687,3.266 -8.324,8.606 -7.441,0.496 -25.5,12.543 -15.515,21.343 -5.481,3.094 -10.516,10.653 -6.997,17.313 2.711,5.129 9.016,7.422 14.184,7.695"/><path style="fill:#b28b67;fill-opacity:1;fill-rule:evenodd;stroke:none" d="m 444.914,110.887 c 9.32,10.922 15.625,24.304 14.57,39.304 -3.035,43.211 -63.273,33.704 -74.992,11.895 -11.715,-21.809 -10.324,-77.129 4.82,-81.027 6.04,-1.555 18.907,2.253 32,10.132 l -8.218,-58.058 h 48.527 z"/><path style="fill:#191847;fill-opacity:1;fill-rule:evenodd;stroke:none" d="m 435.34,180.961 c -24.379,8.434 -56.02,-1.422 -51.785,-21.191 2.718,-12.692 17.441,-19.032 31.925,-25.817 2.133,3.695 6.2,6.192 10.864,6.192 6.875,0 12.449,-5.422 12.449,-12.114 0,-2.41 -0.723,-4.656 -1.969,-6.543 4.871,-4.23 8.309,-9.328 9.141,-15.933 7.851,0 20.547,23.023 16.355,44.867 1.098,-0.117 2.215,-0.18 3.348,-0.18 16.75,0 30.328,13.559 30.328,30.285 0,16.727 -13.578,30.289 -30.328,30.289 -16.609,0 -30.098,-13.328 -30.328,-29.855 z"/><path style="fill:#f2f2f2;fill-opacity:1;fill-rule:nonzero;stroke:none" d="m 166.383,255.191 c 0,-0.796 -0.074,-1.593 -0.223,-2.39 -0.148,-0.797 -0.367,-1.586 -0.664,-2.371 -0.293,-0.782 -0.66,-1.559 -1.101,-2.321 -0.438,-0.765 -0.946,-1.519 -1.524,-2.257 -0.582,-0.739 -1.226,-1.457 -1.937,-2.164 -0.715,-0.704 -1.493,-1.391 -2.332,-2.055 -0.84,-0.664 -1.739,-1.305 -2.696,-1.922 -0.961,-0.617 -1.976,-1.211 -3.043,-1.773 -1.07,-0.567 -2.187,-1.102 -3.359,-1.61 -1.168,-0.508 -2.379,-0.984 -3.637,-1.426 -1.258,-0.445 -2.555,-0.855 -3.887,-1.234 -1.332,-0.375 -2.699,-0.719 -4.097,-1.023 -1.395,-0.305 -2.817,-0.575 -4.266,-0.805 -1.445,-0.235 -2.91,-0.426 -4.394,-0.582 -1.481,-0.156 -2.977,-0.274 -4.481,-0.352 -1.504,-0.078 -3.012,-0.117 -4.523,-0.117 -1.512,0 -3.02,0.039 -4.528,0.117 -1.503,0.078 -2.996,0.196 -4.48,0.352 -1.481,0.156 -2.945,0.347 -4.395,0.582 -1.445,0.23 -2.867,0.5 -4.265,0.805 -1.399,0.304 -2.762,0.648 -4.094,1.023 -1.336,0.379 -2.629,0.789 -3.887,1.234 -1.258,0.442 -2.468,0.918 -3.64,1.426 -1.168,0.508 -2.285,1.043 -3.356,1.61 -1.07,0.562 -2.082,1.156 -3.043,1.773 -0.957,0.617 -1.859,1.258 -2.699,1.922 -0.84,0.664 -1.617,1.351 -2.328,2.055 -0.715,0.707 -1.359,1.425 -1.938,2.164 -0.578,0.738 -1.086,1.492 -1.527,2.257 -0.437,0.762 -0.805,1.539 -1.098,2.321 -0.296,0.785 -0.519,1.574 -0.668,2.371 -0.148,0.797 -0.222,1.594 -0.222,2.39 0,0.801 0.074,1.598 0.222,2.395 0.149,0.793 0.372,1.582 0.668,2.367 0.293,0.785 0.661,1.559 1.098,2.324 0.441,0.766 0.949,1.516 1.527,2.254 0.579,0.739 1.223,1.461 1.938,2.164 0.711,0.707 1.488,1.391 2.328,2.055 0.84,0.664 1.742,1.309 2.699,1.926 0.961,0.617 1.973,1.207 3.043,1.773 1.071,0.567 2.188,1.102 3.356,1.61 1.172,0.507 2.382,0.98 3.64,1.425 1.258,0.446 2.551,0.856 3.887,1.231 1.332,0.379 2.695,0.719 4.094,1.023 1.398,0.309 2.82,0.578 4.265,0.809 1.45,0.23 2.914,0.426 4.395,0.582 1.484,0.156 2.977,0.273 4.48,0.351 1.508,0.079 3.016,0.118 4.528,0.118 1.511,0 3.019,-0.039 4.523,-0.118 1.504,-0.078 3,-0.195 4.481,-0.351 1.484,-0.156 2.949,-0.352 4.394,-0.582 1.449,-0.231 2.871,-0.5 4.266,-0.809 1.398,-0.304 2.765,-0.644 4.097,-1.023 1.332,-0.375 2.629,-0.785 3.887,-1.231 1.258,-0.445 2.469,-0.918 3.637,-1.425 1.172,-0.508 2.289,-1.043 3.359,-1.61 1.067,-0.566 2.082,-1.156 3.043,-1.773 0.957,-0.617 1.856,-1.262 2.696,-1.926 0.839,-0.664 1.617,-1.348 2.332,-2.055 0.711,-0.703 1.355,-1.425 1.937,-2.164 0.578,-0.738 1.086,-1.488 1.524,-2.254 0.441,-0.765 0.808,-1.539 1.101,-2.324 0.297,-0.785 0.516,-1.574 0.664,-2.367 0.149,-0.797 0.223,-1.594 0.223,-2.395 z"/><path style="fill:#dde3e9;fill-opacity:1;fill-rule:evenodd;stroke:none" d="m 173.988,238.379 c 0,29.953 -24.074,54.234 -53.769,54.234 -29.696,0 -53.77,-24.281 -53.77,-54.234"/><path style="fill:#dde3e9;fill-opacity:1;fill-rule:nonzero;stroke:none" d="m 117.504,309.848 h 5.43 v -25.98 h -5.43 z"/><g transform="matrix(1,0,0,-0.999,0,478)"><path style="fill:#ffffff;fill-opacity:1;fill-rule:nonzero;stroke:#000000;stroke-width:4.106;stroke-linecap:butt;stroke-linejoin:miter;stroke-miterlimit:10;stroke-dasharray:none;stroke-opacity:1" d="m 262.961,216.484 c 0,1.142 -0.098,2.284 -0.293,3.423 -0.191,1.138 -0.48,2.269 -0.867,3.391 -0.387,1.123 -0.867,2.23 -1.442,3.326 -0.574,1.095 -1.238,2.171 -1.996,3.227 -0.754,1.056 -1.597,2.093 -2.531,3.098 -0.934,1.009 -1.949,1.991 -3.047,2.942 -1.097,0.951 -2.273,1.87 -3.527,2.754 -1.254,0.884 -2.582,1.729 -3.981,2.539 -1.394,0.81 -2.859,1.576 -4.386,2.304 -1.532,0.724 -3.118,1.404 -4.758,2.042 -1.645,0.634 -3.34,1.221 -5.082,1.76 -1.746,0.54 -3.531,1.029 -5.356,1.467 -1.828,0.439 -3.687,0.822 -5.578,1.154 -1.89,0.333 -3.808,0.611 -5.746,0.834 -1.941,0.223 -3.894,0.391 -5.859,0.504 -1.969,0.11 -3.942,0.169 -5.918,0.169 -1.977,0 -3.949,-0.059 -5.918,-0.169 -1.969,-0.113 -3.922,-0.281 -5.86,-0.504 -1.937,-0.223 -3.855,-0.501 -5.746,-0.834 -1.894,-0.332 -3.754,-0.715 -5.578,-1.154 -1.828,-0.438 -3.613,-0.927 -5.355,-1.467 -1.742,-0.539 -3.438,-1.126 -5.082,-1.76 -1.645,-0.638 -3.231,-1.318 -4.758,-2.042 -1.527,-0.728 -2.992,-1.494 -4.391,-2.304 -1.398,-0.81 -2.722,-1.655 -3.976,-2.539 -1.254,-0.884 -2.43,-1.803 -3.532,-2.754 -1.097,-0.951 -2.113,-1.933 -3.043,-2.942 -0.933,-1.005 -1.777,-2.042 -2.535,-3.098 -0.754,-1.056 -1.422,-2.132 -1.996,-3.227 -0.574,-1.096 -1.051,-2.203 -1.437,-3.326 -0.387,-1.122 -0.676,-2.253 -0.871,-3.391 -0.192,-1.139 -0.289,-2.281 -0.289,-3.423 0,-1.146 0.097,-2.285 0.289,-3.423 0.195,-1.139 0.484,-2.269 0.871,-3.392 0.386,-1.123 0.863,-2.23 1.437,-3.325 0.574,-1.095 1.242,-2.171 1.996,-3.227 0.758,-1.061 1.602,-2.093 2.535,-3.103 0.93,-1.005 1.946,-1.987 3.043,-2.937 1.102,-0.951 2.278,-1.87 3.532,-2.754 1.254,-0.885 2.578,-1.733 3.976,-2.539 1.399,-0.81 2.864,-1.577 4.391,-2.304 1.527,-0.724 3.113,-1.405 4.758,-2.042 1.644,-0.634 3.34,-1.225 5.082,-1.761 1.742,-0.54 3.527,-1.029 5.355,-1.467 1.824,-0.438 3.684,-0.821 5.578,-1.154 1.891,-0.332 3.809,-0.61 5.746,-0.833 1.938,-0.223 3.891,-0.391 5.86,-0.505 1.969,-0.113 3.941,-0.168 5.918,-0.168 1.976,0 3.949,0.055 5.918,0.168 1.965,0.114 3.918,0.282 5.859,0.505 1.938,0.223 3.856,0.501 5.746,0.833 1.891,0.333 3.75,0.716 5.578,1.154 1.825,0.438 3.61,0.927 5.356,1.467 1.742,0.536 3.437,1.127 5.082,1.761 1.64,0.637 3.226,1.318 4.758,2.042 1.527,0.727 2.992,1.494 4.386,2.304 1.399,0.806 2.727,1.654 3.981,2.539 1.254,0.884 2.43,1.803 3.527,2.754 1.098,0.95 2.113,1.932 3.047,2.937 0.934,1.01 1.777,2.042 2.531,3.103 0.758,1.056 1.422,2.132 1.996,3.227 0.575,1.095 1.055,2.202 1.442,3.325 0.387,1.123 0.676,2.253 0.867,3.392 0.195,1.138 0.293,2.277 0.293,3.423 z"/></g><g transform="matrix(1,0,0,-0.999,0,478)"><path style="fill:#ffffff;fill-opacity:1;fill-rule:nonzero;stroke:#000000;stroke-width:4.106;stroke-linecap:butt;stroke-linejoin:miter;stroke-miterlimit:10;stroke-dasharray:none;stroke-opacity:1" d="m 347.742,404.543 c 0,1.197 -0.117,2.394 -0.351,3.588 -0.235,1.193 -0.582,2.378 -1.051,3.552 -0.465,1.177 -1.047,2.339 -1.738,3.485 -0.696,1.146 -1.5,2.273 -2.414,3.38 -0.915,1.107 -1.934,2.191 -3.059,3.247 -1.129,1.06 -2.356,2.085 -3.684,3.083 -1.328,0.997 -2.75,1.96 -4.265,2.887 -1.516,0.923 -3.118,1.811 -4.809,2.66 -1.687,0.849 -3.457,1.651 -5.305,2.41 -1.847,0.762 -3.765,1.474 -5.75,2.139 -1.988,0.669 -4.035,1.284 -6.144,1.847 -2.106,0.567 -4.266,1.08 -6.473,1.537 -2.207,0.458 -4.453,0.861 -6.742,1.209 -2.285,0.348 -4.602,0.642 -6.945,0.872 -2.344,0.235 -4.703,0.411 -7.082,0.529 -2.379,0.117 -4.762,0.176 -7.153,0.176 -2.39,0 -4.773,-0.059 -7.152,-0.176 -2.379,-0.118 -4.738,-0.294 -7.082,-0.529 -2.344,-0.23 -4.66,-0.524 -6.945,-0.872 -2.289,-0.348 -4.536,-0.751 -6.743,-1.209 -2.21,-0.457 -4.367,-0.97 -6.472,-1.537 -2.11,-0.563 -4.156,-1.178 -6.145,-1.847 -1.984,-0.665 -3.902,-1.377 -5.75,-2.139 -1.847,-0.759 -3.617,-1.561 -5.304,-2.41 -1.692,-0.849 -3.293,-1.737 -4.809,-2.664 -1.52,-0.923 -2.941,-1.886 -4.266,-2.883 -1.328,-0.998 -2.554,-2.023 -3.683,-3.083 -1.125,-1.056 -2.145,-2.14 -3.063,-3.247 -0.914,-1.107 -1.718,-2.234 -2.41,-3.38 -0.695,-1.146 -1.273,-2.308 -1.742,-3.485 -0.465,-1.174 -0.816,-2.359 -1.051,-3.552 -0.23,-1.194 -0.348,-2.391 -0.348,-3.588 0,-1.201 0.118,-2.394 0.348,-3.587 0.235,-1.193 0.586,-2.378 1.051,-3.556 0.469,-1.174 1.047,-2.335 1.742,-3.482 0.692,-1.146 1.496,-2.276 2.41,-3.383 0.918,-1.108 1.938,-2.191 3.063,-3.247 1.129,-1.057 2.355,-2.085 3.683,-3.079 1.325,-0.998 2.746,-1.96 4.266,-2.887 1.516,-0.927 3.117,-1.815 4.809,-2.66 1.687,-0.849 3.457,-1.651 5.304,-2.414 1.848,-0.759 3.766,-1.475 5.75,-2.14 1.989,-0.665 4.035,-1.279 6.145,-1.846 2.105,-0.564 4.262,-1.076 6.472,-1.534 2.207,-0.461 4.454,-0.864 6.743,-1.212 2.285,-0.349 4.601,-0.638 6.945,-0.873 2.344,-0.234 4.703,-0.411 7.082,-0.528 2.379,-0.117 4.762,-0.176 7.152,-0.176 2.391,0 4.774,0.059 7.153,0.176 2.379,0.117 4.738,0.294 7.082,0.528 2.343,0.235 4.66,0.524 6.945,0.873 2.289,0.348 4.535,0.751 6.742,1.212 2.207,0.458 4.367,0.97 6.473,1.534 2.109,0.567 4.156,1.181 6.144,1.846 1.985,0.665 3.903,1.381 5.75,2.14 1.848,0.763 3.618,1.565 5.305,2.414 1.691,0.845 3.293,1.733 4.809,2.66 1.515,0.927 2.937,1.889 4.265,2.887 1.328,0.994 2.555,2.022 3.684,3.079 1.125,1.056 2.144,2.139 3.059,3.247 0.914,1.107 1.718,2.237 2.414,3.383 0.691,1.147 1.273,2.308 1.738,3.482 0.469,1.178 0.816,2.363 1.051,3.556 0.234,1.193 0.351,2.386 0.351,3.587 z"/></g><path style="fill:#000000;fill-opacity:1;fill-rule:nonzero;stroke:none" d="m 178.055,267.965 c 0.394,0.074 0.613,0.156 0.652,0.246 0.051,0.09 0.031,0.269 -0.059,0.539 -0.05,0.215 -0.128,0.438 -0.23,0.668 -0.09,0.242 -0.211,0.48 -0.363,0.711 -0.157,0.242 -0.328,0.394 -0.52,0.457 -0.18,0.078 -0.449,0.105 -0.805,0.078 -0.601,-0.039 -1.16,-0.082 -1.671,-0.133 -0.512,-0.051 -1.059,-0.129 -1.649,-0.23 0.203,0.883 0.422,1.801 0.652,2.758 0.243,0.972 0.493,1.941 0.75,2.914 0.266,0.968 0.528,1.914 0.786,2.836 0.269,0.918 0.531,1.761 0.785,2.527 0.117,0.332 0.129,0.586 0.039,0.766 -0.078,0.179 -0.281,0.39 -0.613,0.632 -0.348,0.231 -0.75,0.434 -1.211,0.614 -0.457,0.191 -0.887,0.34 -1.286,0.441 -0.394,0.113 -0.695,0.133 -0.902,0.055 -0.191,-0.063 -0.351,-0.278 -0.476,-0.649 -0.18,-0.652 -0.368,-1.367 -0.559,-2.148 -0.18,-0.777 -0.355,-1.59 -0.535,-2.43 -0.18,-0.844 -0.348,-1.695 -0.5,-2.551 -0.152,-0.843 -0.293,-1.66 -0.422,-2.453 -0.129,-0.789 -0.238,-1.531 -0.328,-2.222 -0.086,-0.676 -0.152,-1.262 -0.192,-1.762 -0.05,-0.32 -0.019,-0.594 0.098,-0.824 0.113,-0.215 0.281,-0.414 0.5,-0.594 0.293,-0.231 0.527,-0.422 0.707,-0.574 0.18,-0.141 0.379,-0.282 0.598,-0.422 0.09,-0.063 0.176,-0.121 0.265,-0.172 0.106,-0.051 0.227,-0.09 0.368,-0.113 0.14,-0.039 0.304,-0.051 0.496,-0.039 0.195,0.011 0.429,0.058 0.711,0.132 0.769,0.153 1.574,0.309 2.418,0.461 0.855,0.164 1.687,0.325 2.496,0.481 z"/><path style="fill:#000000;fill-opacity:1;fill-rule:nonzero;stroke:none" d="m 191.277,282.312 c -0.433,0.344 -0.984,0.641 -1.648,0.883 -0.652,0.243 -1.344,0.422 -2.074,0.535 -0.563,0.09 -1.157,0.047 -1.785,-0.132 -0.614,-0.18 -1.145,-0.442 -1.59,-0.786 -0.668,-0.578 -1.254,-1.226 -1.766,-1.957 -0.5,-0.714 -0.922,-1.472 -1.266,-2.277 -0.347,-0.805 -0.609,-1.637 -0.789,-2.492 -0.179,-0.844 -0.273,-1.672 -0.285,-2.492 -0.015,-0.817 0.055,-1.594 0.211,-2.336 0.153,-0.742 0.383,-1.406 0.688,-1.992 0.195,-0.36 0.457,-0.676 0.789,-0.957 0.332,-0.282 0.672,-0.512 1.015,-0.692 0.422,-0.215 0.891,-0.375 1.403,-0.476 0.511,-0.118 1.008,-0.2 1.496,-0.25 0.73,-0.079 1.375,-0.047 1.937,0.093 0.563,0.129 1.102,0.391 1.614,0.786 0.753,0.664 1.386,1.476 1.898,2.433 0.523,0.961 0.934,1.977 1.227,3.047 0.308,1.086 0.5,2.172 0.578,3.258 0.074,1.097 0.043,2.113 -0.098,3.047 -0.102,0.562 -0.27,1.058 -0.5,1.492 -0.215,0.449 -0.566,0.871 -1.055,1.265 z m -3.089,-1.914 c 0.257,-0.078 0.441,-0.347 0.558,-0.804 0.125,-0.449 0.192,-0.992 0.192,-1.629 0,-0.625 -0.051,-1.305 -0.153,-2.031 -0.105,-0.715 -0.238,-1.375 -0.406,-1.973 -0.191,-0.731 -0.422,-1.406 -0.688,-2.031 -0.257,-0.614 -0.531,-1.133 -0.828,-1.555 -0.293,-0.418 -0.586,-0.734 -0.883,-0.937 -0.292,-0.204 -0.574,-0.262 -0.843,-0.172 -0.293,0.089 -0.516,0.332 -0.672,0.726 -0.153,0.399 -0.242,0.871 -0.266,1.418 -0.027,0.563 0,1.164 0.074,1.801 0.079,0.652 0.207,1.277 0.387,1.879 0.176,0.613 0.406,1.246 0.688,1.898 0.297,0.664 0.609,1.262 0.941,1.801 0.332,0.535 0.664,0.957 0.996,1.262 0.336,0.32 0.637,0.437 0.903,0.347 z"/><path style="fill:#000000;fill-opacity:1;fill-rule:nonzero;stroke:none" d="m 197.676,271.66 c 0.332,-0.41 0.703,-0.816 1.109,-1.226 0.41,-0.395 0.82,-0.778 1.231,-1.149 0.41,-0.371 0.804,-0.711 1.187,-1.015 0.387,-0.305 0.723,-0.563 1.02,-0.766 0.445,-0.27 0.836,-0.414 1.168,-0.442 0.347,-0.039 0.66,-0.019 0.941,0.059 0.23,0.035 0.422,0.07 0.574,0.094 0.168,0.039 0.367,0.148 0.598,0.328 0.191,0.141 0.301,0.273 0.324,0.402 0.027,0.125 -0.09,0.297 -0.344,0.516 -0.32,0.254 -0.668,0.555 -1.039,0.902 -0.355,0.344 -0.722,0.699 -1.093,1.071 -0.372,0.371 -0.735,0.742 -1.094,1.113 -0.344,0.371 -0.664,0.719 -0.957,1.051 1.433,0.64 2.66,1.332 3.683,2.07 1.036,0.742 1.778,1.551 2.227,2.434 0.293,0.55 0.355,1.25 0.191,2.109 -0.207,0.805 -0.492,1.48 -0.863,2.027 -0.359,0.563 -0.762,1.086 -1.211,1.574 -0.562,0.547 -1.219,0.879 -1.976,0.997 -0.739,0.125 -1.536,0.113 -2.379,-0.039 -0.828,-0.141 -1.68,-0.383 -2.551,-0.731 -0.856,-0.344 -1.684,-0.695 -2.477,-1.051 -0.164,-0.09 -0.324,-0.32 -0.476,-0.691 -0.157,-0.356 -0.297,-0.817 -0.422,-1.379 -0.129,-0.551 -0.25,-1.176 -0.367,-1.879 -0.114,-0.687 -0.223,-1.402 -0.325,-2.144 -0.089,-0.743 -0.171,-1.481 -0.25,-2.223 -0.089,-0.742 -0.167,-1.438 -0.23,-2.09 -0.063,-0.637 -0.113,-1.211 -0.152,-1.723 -0.051,-0.511 -0.09,-0.898 -0.118,-1.168 -0.023,-0.332 0.008,-0.601 0.098,-0.804 0.09,-0.192 0.254,-0.36 0.496,-0.5 0.246,-0.125 0.5,-0.215 0.77,-0.266 0.269,-0.051 0.574,-0.121 0.922,-0.211 0.293,-0.066 0.492,-0.066 0.593,0 0.114,0.063 0.204,0.195 0.27,0.402 0.141,0.688 0.281,1.391 0.422,2.106 0.152,0.715 0.32,1.465 0.5,2.242 z m 2.051,7.778 c 0.5,0.246 0.972,0.41 1.421,0.5 0.446,0.089 0.856,0.132 1.227,0.132 0.754,0 1.207,-0.179 1.363,-0.535 0.074,-0.219 0.012,-0.523 -0.191,-0.918 -0.207,-0.398 -0.539,-0.82 -1,-1.265 -0.461,-0.434 -1.035,-0.872 -1.727,-1.305 -0.675,-0.422 -1.457,-0.777 -2.34,-1.07 0.243,0.839 0.461,1.632 0.653,2.375 0.191,0.738 0.39,1.437 0.594,2.086 z"/><path style="fill:#000000;fill-opacity:1;fill-rule:nonzero;stroke:none" d="m 208.93,282.465 -1.825,-12.738 c -0.027,-0.348 0.028,-0.641 0.153,-0.883 0.117,-0.242 0.281,-0.453 0.5,-0.633 0.269,-0.231 0.5,-0.422 0.691,-0.574 0.203,-0.141 0.414,-0.282 0.633,-0.422 0.191,-0.125 0.414,-0.223 0.672,-0.285 0.269,-0.078 0.656,-0.051 1.168,0.074 0.769,0.141 1.574,0.293 2.418,0.461 0.844,0.164 1.676,0.324 2.496,0.48 0.344,0.063 0.551,0.141 0.613,0.227 0.063,0.105 0.063,0.281 0,0.539 -0.101,0.23 -0.199,0.453 -0.289,0.668 -0.074,0.23 -0.191,0.473 -0.344,0.73 -0.14,0.231 -0.312,0.383 -0.519,0.461 -0.192,0.075 -0.465,0.102 -0.824,0.075 -0.641,-0.04 -1.235,-0.09 -1.785,-0.153 -0.536,-0.062 -1.106,-0.148 -1.708,-0.25 0.102,0.36 0.2,0.715 0.29,1.074 0.089,0.372 0.183,0.758 0.289,1.168 0.738,0.153 1.507,0.293 2.3,0.422 0.805,0.129 1.594,0.262 2.36,0.403 0.359,0.078 0.574,0.164 0.652,0.269 0.09,0.102 0.082,0.297 -0.019,0.594 -0.063,0.254 -0.141,0.504 -0.231,0.746 -0.074,0.254 -0.191,0.512 -0.344,0.766 -0.14,0.254 -0.312,0.421 -0.519,0.5 -0.203,0.074 -0.485,0.105 -0.844,0.093 -0.434,-0.011 -0.844,-0.031 -1.226,-0.058 -0.383,-0.024 -0.77,-0.063 -1.153,-0.114 0.203,0.676 0.391,1.321 0.555,1.934 0.168,0.629 0.348,1.227 0.539,1.801 0.91,0.129 1.773,0.238 2.59,0.328 0.82,0.09 1.613,0.18 2.379,0.266 0.371,0.054 0.609,0.136 0.711,0.25 0.101,0.117 0.129,0.339 0.078,0.671 -0.067,0.293 -0.129,0.563 -0.196,0.805 -0.062,0.254 -0.175,0.535 -0.343,0.844 -0.203,0.574 -0.672,0.855 -1.403,0.84 -0.765,-0.024 -1.539,-0.086 -2.32,-0.192 -0.766,-0.086 -1.523,-0.195 -2.262,-0.324 -0.73,-0.129 -1.433,-0.269 -2.113,-0.422 -0.664,-0.152 -1.273,-0.301 -1.82,-0.441 z"/><path style="fill:#000000;fill-opacity:1;fill-rule:nonzero;stroke:none" d="m 222.785,276.547 c 0.192,-1.277 0.403,-2.516 0.633,-3.719 0.242,-1.199 0.492,-2.258 0.746,-3.18 0.066,-0.214 0.125,-0.394 0.176,-0.535 0.062,-0.14 0.133,-0.261 0.211,-0.363 0.074,-0.09 0.164,-0.168 0.265,-0.23 0.106,-0.051 0.227,-0.102 0.368,-0.157 0.382,-0.125 0.832,-0.242 1.343,-0.343 0.164,-0.04 0.301,-0.055 0.403,-0.055 0.101,0.012 0.183,0.035 0.25,0.074 0.062,0.039 0.113,0.098 0.152,0.172 0.051,0.09 0.109,0.207 0.172,0.348 0.207,0.445 0.473,1 0.805,1.664 0.347,0.679 0.718,1.394 1.113,2.148 0.41,0.75 0.828,1.52 1.25,2.297 0.433,0.781 0.844,1.5 1.226,2.164 -0.218,-0.754 -0.421,-1.531 -0.613,-2.336 -0.18,-0.805 -0.347,-1.578 -0.5,-2.316 -0.152,-0.731 -0.289,-1.403 -0.402,-2.012 -0.117,-0.602 -0.199,-1.094 -0.25,-1.477 -0.063,-0.32 -0.051,-0.574 0.039,-0.765 0.101,-0.192 0.301,-0.36 0.594,-0.5 0.23,-0.129 0.5,-0.235 0.804,-0.324 0.309,-0.09 0.61,-0.168 0.903,-0.231 0.332,-0.078 0.558,-0.062 0.672,0.039 0.117,0.102 0.218,0.266 0.308,0.496 0.102,0.449 0.242,1.012 0.422,1.688 0.18,0.676 0.375,1.418 0.594,2.222 0.23,0.805 0.469,1.649 0.711,2.528 0.254,0.883 0.504,1.75 0.746,2.605 0.258,0.856 0.508,1.676 0.75,2.453 0.242,0.778 0.461,1.469 0.652,2.071 0.141,0.422 0.16,0.746 0.059,0.976 -0.09,0.242 -0.321,0.453 -0.692,0.633 -0.562,0.254 -1.14,0.477 -1.726,0.668 -0.574,0.191 -1.125,0.359 -1.653,0.5 -0.445,0.129 -0.816,0.18 -1.109,0.152 -0.281,-0.023 -0.539,-0.14 -0.769,-0.343 -0.231,-0.192 -0.454,-0.481 -0.672,-0.864 -0.219,-0.371 -0.473,-0.847 -0.766,-1.437 -0.297,-0.508 -0.602,-1.051 -0.922,-1.629 -0.308,-0.574 -0.609,-1.149 -0.902,-1.723 -0.293,-0.574 -0.582,-1.136 -0.864,-1.687 -0.269,-0.547 -0.503,-1.051 -0.71,-1.512 -0.204,1.316 -0.364,2.352 -0.481,3.105 -0.113,0.75 -0.203,1.333 -0.266,1.743 -0.05,0.406 -0.089,0.687 -0.117,0.843 -0.011,0.164 -0.019,0.305 -0.019,0.422 -0.051,0.242 -0.102,0.457 -0.153,0.649 -0.039,0.191 -0.109,0.363 -0.211,0.519 -0.101,0.164 -0.242,0.313 -0.421,0.442 -0.18,0.14 -0.422,0.265 -0.731,0.382 -0.484,0.176 -0.973,0.333 -1.457,0.458 -0.473,0.128 -1.055,0.242 -1.746,0.347 -0.449,0.063 -0.781,0.035 -0.996,-0.078 -0.207,-0.101 -0.367,-0.371 -0.481,-0.805 -0.117,-0.601 -0.23,-1.296 -0.347,-2.089 -0.125,-0.778 -0.246,-1.61 -0.364,-2.489 -0.128,-0.883 -0.242,-1.777 -0.343,-2.683 -0.106,-0.907 -0.192,-1.782 -0.27,-2.625 -0.09,-0.844 -0.152,-1.629 -0.191,-2.356 -0.051,-0.715 -0.078,-1.32 -0.078,-1.82 -0.024,-0.332 0.019,-0.586 0.132,-0.766 0.118,-0.179 0.336,-0.344 0.653,-0.5 0.258,-0.125 0.531,-0.234 0.828,-0.324 0.305,-0.102 0.605,-0.187 0.902,-0.25 0.305,-0.062 0.516,-0.059 0.633,0.02 0.113,0.062 0.195,0.21 0.25,0.441 0.051,0.547 0.121,1.176 0.211,1.879 0.102,0.699 0.215,1.453 0.344,2.258 0.129,0.804 0.269,1.64 0.422,2.511 0.152,0.868 0.312,1.735 0.48,2.606 z"/><path style="fill:#000000;fill-opacity:1;fill-rule:nonzero;stroke:none" d="m 167.879,259.398 c -0.344,0.231 -0.746,0.45 -1.207,0.653 -0.461,0.203 -0.891,0.355 -1.285,0.461 -0.399,0.113 -0.699,0.125 -0.903,0.035 -0.191,-0.074 -0.347,-0.297 -0.461,-0.668 -0.14,-0.602 -0.293,-1.305 -0.461,-2.109 -0.167,-0.793 -0.332,-1.633 -0.5,-2.528 -0.152,-0.894 -0.304,-1.808 -0.46,-2.742 -0.153,-0.93 -0.286,-1.82 -0.403,-2.66 -0.129,-0.844 -0.23,-1.625 -0.304,-2.34 -0.09,-0.703 -0.149,-1.277 -0.176,-1.723 -0.035,-0.332 -0.004,-0.593 0.097,-0.785 0.09,-0.18 0.282,-0.34 0.575,-0.48 0.269,-0.141 0.55,-0.254 0.843,-0.344 0.309,-0.09 0.629,-0.18 0.961,-0.27 0.332,-0.074 0.551,-0.082 0.653,-0.019 0.117,0.066 0.203,0.207 0.269,0.422 0.113,0.574 0.25,1.226 0.403,1.953 0.168,0.742 0.343,1.523 0.535,2.34 0.195,0.828 0.39,1.672 0.597,2.527 0.203,0.871 0.41,1.711 0.614,2.531 0.218,0.828 0.429,1.614 0.632,2.356 0.219,0.742 0.414,1.398 0.594,1.972 0.09,0.344 0.098,0.606 0.02,0.786 -0.063,0.179 -0.274,0.39 -0.633,0.632 z"/><path style="fill:#000000;fill-opacity:1;fill-rule:nonzero;stroke:none" d="m 172.457,248.305 c 0.766,0.207 1.539,0.449 2.32,0.73 0.793,0.293 1.547,0.617 2.266,0.977 0.715,0.355 1.375,0.738 1.973,1.148 0.617,0.41 1.14,0.832 1.574,1.266 0.269,0.265 0.512,0.543 0.73,0.824 0.231,0.281 0.414,0.574 0.555,0.879 0.156,0.309 0.25,0.633 0.289,0.976 0.051,0.348 0.031,0.719 -0.059,1.114 -0.203,0.804 -0.492,1.48 -0.863,2.031 -0.355,0.562 -0.754,1.086 -1.187,1.57 -0.371,0.36 -0.813,0.606 -1.325,0.746 -0.5,0.157 -1.042,0.227 -1.632,0.211 -0.586,-0.011 -1.203,-0.093 -1.84,-0.25 -0.629,-0.136 -1.254,-0.324 -1.883,-0.554 -0.625,-0.215 -1.234,-0.465 -1.82,-0.746 -0.59,-0.27 -1.125,-0.532 -1.614,-0.786 -0.129,-0.062 -0.242,-0.382 -0.343,-0.957 -0.09,-0.562 -0.172,-1.265 -0.25,-2.109 -0.078,-0.844 -0.153,-1.762 -0.231,-2.758 -0.078,-0.996 -0.152,-1.961 -0.23,-2.894 -0.078,-0.918 -0.16,-1.743 -0.25,-2.469 -0.102,-0.731 -0.211,-1.246 -0.325,-1.555 -0.078,-0.332 -0.05,-0.597 0.075,-0.804 0.117,-0.204 0.297,-0.375 0.539,-0.516 0.242,-0.129 0.515,-0.231 0.824,-0.309 0.32,-0.09 0.645,-0.175 0.98,-0.265 0.332,-0.067 0.555,-0.067 0.668,0 0.118,0.062 0.207,0.195 0.27,0.402 0.102,0.648 0.219,1.313 0.348,1.992 0.14,0.676 0.285,1.379 0.441,2.106 z m 0.824,3.601 c 0.192,0.805 0.375,1.578 0.555,2.321 0.191,0.738 0.391,1.457 0.598,2.144 0.472,0.203 0.933,0.359 1.378,0.461 0.461,0.102 0.872,0.16 1.231,0.172 0.367,0.012 0.668,-0.024 0.898,-0.113 0.247,-0.079 0.387,-0.192 0.422,-0.348 0.106,-0.281 0.067,-0.625 -0.113,-1.035 -0.18,-0.406 -0.484,-0.836 -0.922,-1.281 -0.433,-0.434 -0.992,-0.864 -1.668,-1.286 -0.68,-0.406 -1.472,-0.753 -2.379,-1.035 z"/><path style="fill:#000000;fill-opacity:1;fill-rule:nonzero;stroke:none" d="m 180.918,248.059 c -0.27,-0.129 -0.391,-0.317 -0.367,-0.559 0.027,-0.254 0.32,-0.617 0.883,-1.09 1.039,-0.972 2.043,-1.656 3.011,-2.051 0.989,-0.394 1.996,-0.582 3.035,-0.554 0.766,0.011 1.426,0.109 1.973,0.285 0.551,0.18 1.02,0.402 1.402,0.672 0.383,0.269 0.692,0.554 0.922,0.863 0.231,0.316 0.411,0.613 0.535,0.879 0.208,0.383 0.27,0.742 0.192,1.074 -0.063,0.332 -0.231,0.645 -0.496,0.938 -0.258,0.308 -0.59,0.601 -1,0.882 -0.395,0.293 -0.824,0.586 -1.285,0.879 -0.446,0.297 -0.903,0.598 -1.364,0.903 -0.457,0.32 -0.875,0.656 -1.246,1.015 -0.293,0.27 -0.48,0.567 -0.554,0.899 -0.079,0.347 -0.086,0.691 -0.02,1.035 0.063,0.359 0.184,0.711 0.363,1.055 0.18,0.343 0.383,0.664 0.614,0.957 0.246,0.308 0.492,0.574 0.75,0.804 0.269,0.243 0.511,0.422 0.73,0.539 0.242,0.176 0.414,0.246 0.516,0.211 0.117,-0.027 0.179,-0.121 0.191,-0.289 0.027,-0.152 0.012,-0.363 -0.039,-0.633 -0.051,-0.265 -0.113,-0.554 -0.191,-0.863 -0.063,-0.293 -0.133,-0.586 -0.211,-0.879 -0.063,-0.293 -0.11,-0.554 -0.133,-0.785 -0.141,-1.098 0.664,-1.941 2.418,-2.531 0.32,-0.141 0.555,-0.176 0.711,-0.113 0.164,0.078 0.324,0.242 0.476,0.496 0.141,0.269 0.278,0.601 0.407,0.996 0.14,0.398 0.265,0.812 0.382,1.246 0.125,0.433 0.235,0.863 0.325,1.285 0.09,0.422 0.16,0.797 0.211,1.129 0,0.191 -0.004,0.398 -0.02,0.613 0,0.231 -0.031,0.461 -0.094,0.692 -0.05,0.23 -0.148,0.464 -0.289,0.707 -0.14,0.242 -0.34,0.488 -0.594,0.73 -0.398,0.356 -0.89,0.688 -1.476,0.996 -0.578,0.305 -1.152,0.563 -1.727,0.766 -0.386,0.113 -0.757,0.18 -1.113,0.191 -0.359,0.024 -0.691,0.012 -1,-0.039 -0.305,-0.051 -0.582,-0.133 -0.824,-0.25 -0.242,-0.101 -0.442,-0.211 -0.594,-0.324 -0.473,-0.293 -0.941,-0.652 -1.402,-1.074 -0.446,-0.407 -0.864,-0.856 -1.246,-1.34 -0.371,-0.473 -0.7,-0.965 -0.981,-1.477 -0.265,-0.507 -0.457,-0.996 -0.574,-1.453 -0.164,-0.523 -0.242,-1.023 -0.23,-1.496 0.011,-0.473 0.097,-0.918 0.25,-1.34 0.152,-0.422 0.363,-0.82 0.632,-1.187 0.282,-0.36 0.602,-0.68 0.961,-0.961 0.321,-0.266 0.676,-0.535 1.074,-0.805 0.395,-0.254 0.793,-0.504 1.188,-0.746 0.398,-0.242 0.77,-0.48 1.113,-0.707 0.36,-0.23 0.653,-0.441 0.883,-0.633 0.242,-0.191 0.402,-0.363 0.481,-0.519 0.089,-0.141 0.058,-0.262 -0.098,-0.364 -0.356,-0.293 -0.938,-0.343 -1.746,-0.152 -0.805,0.191 -1.75,0.625 -2.84,1.301 -0.191,0.129 -0.406,0.226 -0.652,0.289 -0.231,0.078 -0.473,0.121 -0.727,0.133 -0.258,0.015 -0.512,0 -0.769,-0.035 -0.254,-0.04 -0.497,-0.11 -0.727,-0.211 z"/><path style="fill:#000000;fill-opacity:1;fill-rule:nonzero;stroke:none" d="m 193.957,246.141 c 0.203,-0.356 0.445,-0.657 0.727,-0.899 0.281,-0.246 0.582,-0.457 0.902,-0.633 0.742,-0.41 1.687,-0.652 2.84,-0.73 0.574,-0.035 1.086,-0.012 1.535,0.078 0.449,0.078 0.894,0.223 1.344,0.441 0.625,0.356 1.195,0.93 1.707,1.723 0.511,0.793 0.984,1.777 1.418,2.949 0.437,1.176 0.847,2.524 1.23,4.043 0.395,1.535 0.785,3.215 1.168,5.039 0.039,0.168 0.067,0.309 0.078,0.422 0.012,0.129 0,0.242 -0.039,0.344 -0.035,0.105 -0.109,0.199 -0.211,0.289 -0.09,0.102 -0.222,0.211 -0.402,0.324 -0.344,0.207 -0.731,0.41 -1.152,0.614 -0.407,0.218 -0.797,0.371 -1.168,0.46 -0.36,0.102 -0.668,0.118 -0.922,0.04 -0.254,-0.079 -0.399,-0.309 -0.422,-0.692 -0.152,-0.789 -0.328,-1.691 -0.52,-2.699 -0.191,-1.012 -0.406,-2.039 -0.652,-3.086 -0.23,-1.035 -0.484,-2.043 -0.766,-3.027 -0.269,-0.985 -0.558,-1.852 -0.863,-2.606 -0.297,-0.742 -0.609,-1.32 -0.941,-1.742 -0.332,-0.422 -0.672,-0.59 -1.016,-0.5 -0.281,0.078 -0.473,0.312 -0.578,0.711 -0.086,0.394 -0.121,0.894 -0.094,1.492 0.039,0.602 0.121,1.277 0.25,2.031 0.141,0.754 0.305,1.528 0.496,2.321 0.196,0.789 0.399,1.57 0.617,2.336 0.231,0.777 0.446,1.5 0.653,2.164 0.215,0.781 -0.02,1.418 -0.711,1.918 -0.332,0.242 -0.68,0.453 -1.035,0.632 -0.348,0.176 -0.711,0.325 -1.094,0.438 -0.41,0.141 -0.719,0.176 -0.922,0.098 -0.191,-0.079 -0.34,-0.301 -0.441,-0.672 -0.231,-0.817 -0.453,-1.66 -0.672,-2.528 -0.203,-0.855 -0.391,-1.711 -0.555,-2.566 -0.168,-0.856 -0.301,-1.699 -0.406,-2.531 -0.102,-0.828 -0.152,-1.614 -0.152,-2.356 0,-0.742 0.066,-1.426 0.191,-2.051 0.117,-0.613 0.309,-1.144 0.578,-1.589 z"/><path style="fill:#000000;fill-opacity:1;fill-rule:nonzero;stroke:none" d="m 210.605,253.555 c 0.192,-1.278 0.403,-2.516 0.633,-3.715 0.242,-1.203 0.492,-2.262 0.75,-3.184 0.063,-0.215 0.121,-0.394 0.172,-0.535 0.063,-0.141 0.133,-0.262 0.211,-0.363 0.078,-0.09 0.164,-0.168 0.27,-0.231 0.101,-0.05 0.222,-0.101 0.363,-0.152 0.383,-0.129 0.832,-0.242 1.344,-0.344 0.164,-0.039 0.3,-0.058 0.402,-0.058 0.102,0.011 0.184,0.039 0.25,0.074 0.062,0.039 0.113,0.098 0.152,0.176 0.051,0.089 0.11,0.203 0.172,0.343 0.207,0.446 0.473,1.004 0.809,1.668 0.344,0.676 0.715,1.391 1.109,2.145 0.41,0.754 0.828,1.519 1.25,2.301 0.434,0.777 0.844,1.5 1.227,2.164 -0.219,-0.754 -0.422,-1.535 -0.614,-2.34 -0.179,-0.805 -0.343,-1.574 -0.5,-2.316 -0.152,-0.727 -0.285,-1.399 -0.402,-2.012 -0.113,-0.602 -0.199,-1.094 -0.25,-1.477 -0.062,-0.316 -0.051,-0.574 0.039,-0.765 0.102,-0.192 0.301,-0.356 0.594,-0.496 0.23,-0.129 0.5,-0.239 0.809,-0.329 0.304,-0.089 0.605,-0.164 0.898,-0.23 0.336,-0.074 0.559,-0.063 0.672,0.039 0.117,0.102 0.219,0.27 0.308,0.5 0.102,0.445 0.243,1.008 0.422,1.684 0.18,0.679 0.379,1.418 0.594,2.222 0.231,0.805 0.469,1.649 0.711,2.531 0.254,0.879 0.504,1.75 0.75,2.606 0.254,0.855 0.504,1.672 0.746,2.449 0.242,0.781 0.461,1.469 0.652,2.07 0.141,0.422 0.161,0.747 0.059,0.977 -0.09,0.242 -0.32,0.453 -0.691,0.633 -0.563,0.254 -1.137,0.48 -1.727,0.672 -0.574,0.191 -1.125,0.355 -1.648,0.496 -0.45,0.129 -0.821,0.18 -1.114,0.156 -0.281,-0.027 -0.539,-0.141 -0.769,-0.348 -0.231,-0.191 -0.453,-0.476 -0.672,-0.859 -0.215,-0.371 -0.473,-0.852 -0.766,-1.437 -0.297,-0.512 -0.601,-1.055 -0.922,-1.629 -0.308,-0.575 -0.609,-1.149 -0.902,-1.727 -0.293,-0.574 -0.582,-1.137 -0.863,-1.684 -0.27,-0.55 -0.504,-1.054 -0.711,-1.515 -0.203,1.316 -0.363,2.351 -0.477,3.105 -0.117,0.754 -0.207,1.336 -0.269,1.742 -0.051,0.411 -0.09,0.692 -0.117,0.844 -0.012,0.164 -0.02,0.305 -0.02,0.422 -0.051,0.242 -0.101,0.461 -0.152,0.652 -0.039,0.192 -0.11,0.364 -0.211,0.516 -0.102,0.168 -0.242,0.313 -0.422,0.442 -0.18,0.14 -0.422,0.269 -0.731,0.382 -0.484,0.18 -0.968,0.332 -1.457,0.461 -0.472,0.125 -1.054,0.242 -1.746,0.344 -0.449,0.063 -0.781,0.039 -0.996,-0.078 -0.207,-0.102 -0.367,-0.367 -0.48,-0.805 -0.117,-0.597 -0.231,-1.297 -0.348,-2.086 -0.125,-0.781 -0.246,-1.609 -0.363,-2.492 -0.129,-0.879 -0.242,-1.773 -0.344,-2.684 -0.101,-0.906 -0.191,-1.781 -0.269,-2.621 -0.09,-0.843 -0.153,-1.629 -0.192,-2.359 -0.051,-0.715 -0.078,-1.32 -0.078,-1.82 -0.023,-0.332 0.02,-0.586 0.137,-0.766 0.113,-0.18 0.332,-0.344 0.652,-0.496 0.254,-0.129 0.527,-0.238 0.824,-0.328 0.305,-0.102 0.606,-0.184 0.903,-0.25 0.304,-0.063 0.515,-0.055 0.632,0.019 0.114,0.067 0.196,0.211 0.25,0.442 0.051,0.551 0.122,1.176 0.211,1.879 0.102,0.703 0.215,1.457 0.344,2.261 0.129,0.805 0.27,1.641 0.422,2.508 0.152,0.867 0.313,1.739 0.48,2.606 z"/><path style="fill:#000000;fill-opacity:1;fill-rule:nonzero;stroke:none" d="m 234.133,248.059 c 0.265,-0.118 0.562,-0.239 0.883,-0.368 0.316,-0.125 0.613,-0.214 0.882,-0.265 0.266,-0.051 0.485,-0.051 0.653,0 0.176,0.062 0.261,0.215 0.246,0.457 0.078,0.539 0.226,0.996 0.441,1.383 0.231,0.394 0.5,0.738 0.809,1.031 0.32,0.297 0.664,0.558 1.035,0.785 0.371,0.23 0.742,0.457 1.113,0.672 0.383,0.23 0.746,0.461 1.094,0.691 0.356,0.243 0.676,0.516 0.957,0.825 0.281,0.304 0.539,0.668 0.77,1.089 0.242,0.422 0.39,0.883 0.441,1.379 0.063,0.512 0.008,1.055 -0.172,1.629 -0.168,0.574 -0.508,1.176 -1.019,1.801 -0.243,0.32 -0.551,0.621 -0.918,0.902 -0.36,0.293 -0.778,0.535 -1.25,0.727 -0.461,0.191 -0.965,0.32 -1.516,0.383 -0.551,0.066 -1.125,0.039 -1.727,-0.075 -0.996,-0.179 -1.925,-0.582 -2.781,-1.207 -0.844,-0.628 -1.586,-1.425 -2.226,-2.394 -0.203,-0.309 -0.344,-0.57 -0.422,-0.789 -0.078,-0.203 -0.094,-0.375 -0.059,-0.516 0.028,-0.14 0.098,-0.261 0.211,-0.363 0.106,-0.09 0.238,-0.168 0.406,-0.231 0.637,-0.269 1.289,-0.382 1.957,-0.343 0.676,0.05 1.239,0.261 1.688,0.633 0.305,0.242 0.605,0.484 0.902,0.726 0.305,0.254 0.602,0.481 0.883,0.672 0.293,0.203 0.582,0.367 0.863,0.496 0.293,0.129 0.586,0.191 0.883,0.191 0.203,0 0.395,-0.058 0.574,-0.171 0.18,-0.102 0.289,-0.282 0.325,-0.536 0.054,-0.371 -0.094,-0.812 -0.442,-1.324 -0.344,-0.511 -0.996,-1.051 -1.957,-1.629 -0.371,-0.242 -0.793,-0.515 -1.265,-0.824 -0.461,-0.305 -0.895,-0.656 -1.305,-1.051 -0.41,-0.398 -0.762,-0.851 -1.055,-1.363 -0.293,-0.508 -0.461,-1.098 -0.5,-1.762 -0.035,-0.332 -0.019,-0.586 0.059,-0.765 0.078,-0.18 0.258,-0.344 0.539,-0.496 z m -1.574,-2.625 c -0.028,-0.297 0.007,-0.551 0.093,-0.77 0.106,-0.215 0.246,-0.402 0.426,-0.555 0.192,-0.164 0.406,-0.293 0.652,-0.382 0.254,-0.09 0.524,-0.153 0.805,-0.192 0.641,-0.09 1.156,-0.019 1.555,0.211 0.394,0.231 0.644,0.524 0.746,0.883 0.027,0.035 0.039,0.113 0.039,0.226 v 0.29 c 0,0.152 -0.027,0.3 -0.078,0.441 -0.035,0.152 -0.113,0.301 -0.231,0.441 -0.113,0.141 -0.273,0.266 -0.476,0.383 -0.192,0.125 -0.442,0.235 -0.75,0.324 -0.41,0.118 -0.785,0.161 -1.133,0.133 -0.332,-0.023 -0.621,-0.105 -0.863,-0.246 -0.242,-0.129 -0.434,-0.301 -0.574,-0.519 -0.129,-0.204 -0.2,-0.426 -0.211,-0.668 z"/><path style="fill:#000000;fill-opacity:1;fill-rule:nonzero;stroke:none" d="m 243.988,95.812 -1.113,-12.164 c -0.039,-0.32 -0.047,-0.582 -0.02,-0.785 0.024,-0.207 0.083,-0.379 0.172,-0.519 0.078,-0.141 0.172,-0.27 0.289,-0.383 0.114,-0.102 0.235,-0.211 0.364,-0.324 0.343,-0.258 0.652,-0.473 0.922,-0.653 0.269,-0.168 0.582,-0.339 0.941,-0.519 0.715,-0.344 1.398,-0.403 2.051,-0.172 1.281,0.359 2.426,0.836 3.433,1.437 1.012,0.602 1.883,1.278 2.61,2.032 0.742,0.754 1.343,1.558 1.804,2.414 0.461,0.855 0.782,1.711 0.961,2.566 0.192,0.871 0.243,1.711 0.153,2.531 -0.09,0.817 -0.313,1.571 -0.672,2.258 -0.422,0.871 -0.942,1.567 -1.555,2.09 -0.613,0.524 -1.285,0.914 -2.016,1.168 -0.714,0.27 -1.464,0.418 -2.242,0.441 -0.769,0.04 -1.523,-0.007 -2.265,-0.132 -0.743,-0.118 -1.446,-0.293 -2.11,-0.539 -0.652,-0.227 -1.222,-0.477 -1.707,-0.747 z m 2.571,-12.511 c 0.32,1.66 0.652,3.304 0.996,4.926 0.347,1.632 0.742,3.289 1.191,4.961 0.832,0.269 1.535,0.292 2.109,0.078 0.579,-0.219 0.981,-0.543 1.211,-0.977 0.231,-0.437 0.317,-1.043 0.266,-1.82 -0.035,-0.563 -0.172,-1.168 -0.402,-1.821 -0.231,-0.652 -0.575,-1.304 -1.035,-1.957 -0.461,-0.648 -1.051,-1.277 -1.766,-1.875 -0.715,-0.589 -1.574,-1.093 -2.57,-1.515 z"/><path style="fill:#000000;fill-opacity:1;fill-rule:nonzero;stroke:none" d="m 268.113,95.773 c -0.433,0.348 -0.984,0.641 -1.648,0.883 -0.653,0.242 -1.344,0.422 -2.074,0.535 -0.563,0.09 -1.157,0.047 -1.786,-0.132 -0.613,-0.18 -1.144,-0.442 -1.589,-0.786 -0.668,-0.574 -1.254,-1.226 -1.766,-1.953 -0.5,-0.718 -0.922,-1.476 -1.266,-2.281 -0.347,-0.805 -0.609,-1.637 -0.789,-2.492 -0.179,-0.844 -0.273,-1.672 -0.289,-2.488 -0.011,-0.821 0.059,-1.598 0.211,-2.34 0.156,-0.739 0.387,-1.403 0.692,-1.992 0.191,-0.356 0.457,-0.676 0.789,-0.957 0.332,-0.282 0.672,-0.512 1.015,-0.692 0.422,-0.215 0.891,-0.375 1.403,-0.476 0.511,-0.118 1.007,-0.2 1.496,-0.25 0.726,-0.079 1.375,-0.043 1.937,0.097 0.563,0.125 1.098,0.387 1.61,0.785 0.757,0.664 1.39,1.473 1.902,2.434 0.523,0.957 0.934,1.973 1.227,3.043 0.308,1.086 0.5,2.172 0.574,3.258 0.078,1.097 0.047,2.113 -0.094,3.047 -0.102,0.562 -0.27,1.058 -0.5,1.496 -0.219,0.445 -0.57,0.867 -1.055,1.261 z m -3.09,-1.914 c 0.258,-0.078 0.442,-0.343 0.559,-0.804 0.125,-0.45 0.191,-0.993 0.191,-1.629 0,-0.625 -0.05,-1.305 -0.156,-2.031 -0.101,-0.715 -0.234,-1.372 -0.402,-1.973 -0.192,-0.731 -0.422,-1.406 -0.692,-2.031 -0.253,-0.614 -0.527,-1.129 -0.824,-1.551 -0.293,-0.422 -0.586,-0.735 -0.883,-0.942 -0.293,-0.203 -0.574,-0.261 -0.843,-0.171 -0.293,0.089 -0.516,0.332 -0.672,0.73 -0.153,0.395 -0.242,0.867 -0.27,1.418 -0.023,0.559 0.004,1.16 0.078,1.801 0.079,0.648 0.207,1.277 0.383,1.875 0.18,0.613 0.41,1.246 0.692,1.898 0.296,0.664 0.609,1.266 0.941,1.801 0.332,0.535 0.664,0.957 0.996,1.266 0.332,0.316 0.633,0.433 0.902,0.343 z"/><path style="fill:#000000;fill-opacity:1;fill-rule:nonzero;stroke:none" d="m 278.387,81.426 c 0.394,0.074 0.613,0.16 0.652,0.246 0.051,0.09 0.031,0.269 -0.059,0.539 -0.05,0.215 -0.128,0.441 -0.23,0.668 -0.09,0.246 -0.211,0.48 -0.363,0.711 -0.157,0.242 -0.328,0.394 -0.52,0.461 -0.179,0.074 -0.449,0.101 -0.805,0.074 -0.601,-0.039 -1.16,-0.082 -1.671,-0.133 -0.512,-0.051 -1.059,-0.129 -1.649,-0.23 0.203,0.883 0.422,1.8 0.653,2.758 0.242,0.972 0.492,1.941 0.746,2.914 0.269,0.968 0.531,1.914 0.789,2.836 0.269,0.918 0.531,1.761 0.785,2.527 0.117,0.332 0.129,0.59 0.039,0.765 -0.078,0.18 -0.281,0.391 -0.613,0.633 -0.348,0.231 -0.75,0.434 -1.211,0.614 -0.457,0.191 -0.887,0.339 -1.285,0.441 -0.395,0.113 -0.696,0.133 -0.903,0.059 -0.191,-0.067 -0.351,-0.282 -0.476,-0.653 -0.18,-0.652 -0.368,-1.367 -0.559,-2.144 -0.18,-0.782 -0.355,-1.59 -0.535,-2.434 -0.18,-0.844 -0.348,-1.695 -0.5,-2.551 -0.152,-0.839 -0.293,-1.66 -0.422,-2.449 -0.129,-0.793 -0.238,-1.535 -0.328,-2.223 -0.09,-0.679 -0.152,-1.265 -0.192,-1.765 -0.05,-0.317 -0.019,-0.594 0.098,-0.82 0.113,-0.219 0.281,-0.418 0.5,-0.598 0.293,-0.227 0.527,-0.418 0.707,-0.574 0.18,-0.141 0.379,-0.282 0.598,-0.422 0.086,-0.063 0.176,-0.121 0.265,-0.172 0.106,-0.051 0.227,-0.09 0.368,-0.113 0.14,-0.039 0.304,-0.051 0.496,-0.039 0.191,0.011 0.429,0.058 0.711,0.132 0.769,0.157 1.574,0.309 2.418,0.461 0.855,0.168 1.687,0.328 2.496,0.481 z"/><path style="fill:#000000;fill-opacity:1;fill-rule:nonzero;stroke:none" d="m 291.609,95.773 c -0.433,0.348 -0.984,0.641 -1.648,0.883 -0.652,0.242 -1.344,0.422 -2.074,0.535 -0.563,0.09 -1.157,0.047 -1.785,-0.132 -0.614,-0.18 -1.145,-0.442 -1.59,-0.786 -0.668,-0.574 -1.254,-1.226 -1.766,-1.953 -0.5,-0.718 -0.922,-1.476 -1.266,-2.281 -0.347,-0.805 -0.609,-1.637 -0.789,-2.492 -0.179,-0.844 -0.273,-1.672 -0.285,-2.488 -0.015,-0.821 0.055,-1.598 0.211,-2.34 0.153,-0.739 0.383,-1.403 0.688,-1.992 0.195,-0.356 0.457,-0.676 0.789,-0.957 0.332,-0.282 0.672,-0.512 1.015,-0.692 0.422,-0.215 0.891,-0.375 1.403,-0.476 0.511,-0.118 1.008,-0.2 1.496,-0.25 0.726,-0.079 1.375,-0.043 1.937,0.097 0.563,0.125 1.102,0.387 1.614,0.785 0.753,0.664 1.386,1.473 1.898,2.434 0.523,0.957 0.934,1.973 1.227,3.043 0.308,1.086 0.5,2.172 0.578,3.258 0.074,1.097 0.043,2.113 -0.098,3.047 -0.102,0.562 -0.269,1.058 -0.5,1.496 -0.215,0.445 -0.566,0.867 -1.055,1.261 z m -3.089,-1.914 c 0.257,-0.078 0.441,-0.343 0.558,-0.804 0.125,-0.45 0.192,-0.993 0.192,-1.629 0,-0.625 -0.051,-1.305 -0.153,-2.031 -0.105,-0.715 -0.238,-1.372 -0.406,-1.973 -0.191,-0.731 -0.422,-1.406 -0.688,-2.031 -0.257,-0.614 -0.531,-1.129 -0.828,-1.551 -0.293,-0.422 -0.586,-0.735 -0.883,-0.942 -0.292,-0.203 -0.574,-0.261 -0.843,-0.171 -0.293,0.089 -0.516,0.332 -0.672,0.73 -0.152,0.395 -0.242,0.867 -0.266,1.418 -0.027,0.559 0,1.16 0.074,1.801 0.079,0.648 0.207,1.277 0.383,1.875 0.18,0.613 0.41,1.246 0.692,1.898 0.297,0.664 0.609,1.266 0.941,1.801 0.332,0.535 0.664,0.957 0.996,1.266 0.336,0.316 0.633,0.433 0.903,0.343 z"/><path style="fill:#000000;fill-opacity:1;fill-rule:nonzero;stroke:none" d="m 298.004,85.121 c 0.336,-0.406 0.707,-0.816 1.113,-1.226 0.41,-0.395 0.821,-0.778 1.231,-1.149 0.41,-0.371 0.804,-0.707 1.187,-1.016 0.387,-0.304 0.723,-0.562 1.02,-0.765 0.445,-0.27 0.836,-0.414 1.168,-0.442 0.347,-0.039 0.66,-0.019 0.941,0.059 0.231,0.039 0.422,0.07 0.574,0.094 0.168,0.039 0.367,0.148 0.598,0.328 0.191,0.141 0.297,0.273 0.324,0.402 0.028,0.125 -0.09,0.301 -0.344,0.516 -0.32,0.258 -0.668,0.555 -1.039,0.902 -0.355,0.344 -0.722,0.703 -1.093,1.071 -0.372,0.371 -0.735,0.742 -1.094,1.113 -0.344,0.371 -0.664,0.722 -0.957,1.054 1.433,0.637 2.66,1.329 3.683,2.067 1.036,0.742 1.778,1.555 2.227,2.433 0.293,0.551 0.355,1.254 0.191,2.11 -0.207,0.805 -0.492,1.48 -0.863,2.031 -0.359,0.563 -0.762,1.086 -1.211,1.57 -0.562,0.547 -1.219,0.879 -1.976,0.997 -0.743,0.128 -1.536,0.113 -2.379,-0.04 -0.832,-0.14 -1.68,-0.382 -2.551,-0.726 -0.856,-0.348 -1.684,-0.695 -2.477,-1.055 -0.164,-0.09 -0.324,-0.32 -0.476,-0.691 -0.156,-0.356 -0.297,-0.817 -0.422,-1.379 -0.129,-0.547 -0.25,-1.176 -0.367,-1.875 -0.114,-0.692 -0.223,-1.406 -0.324,-2.149 -0.09,-0.738 -0.172,-1.48 -0.25,-2.222 -0.09,-0.738 -0.168,-1.438 -0.231,-2.086 -0.062,-0.641 -0.117,-1.215 -0.152,-1.727 -0.051,-0.508 -0.09,-0.898 -0.117,-1.168 -0.024,-0.332 0.007,-0.601 0.097,-0.804 0.09,-0.192 0.254,-0.356 0.496,-0.496 0.246,-0.129 0.5,-0.219 0.77,-0.27 0.269,-0.051 0.574,-0.121 0.922,-0.211 0.293,-0.062 0.492,-0.062 0.593,0 0.114,0.063 0.204,0.199 0.27,0.402 0.141,0.692 0.281,1.391 0.422,2.106 0.152,0.719 0.32,1.465 0.496,2.242 z m 2.055,7.781 c 0.5,0.243 0.972,0.407 1.421,0.496 0.446,0.09 0.856,0.133 1.227,0.133 0.754,0 1.207,-0.176 1.363,-0.535 0.075,-0.215 0.012,-0.523 -0.191,-0.918 -0.207,-0.398 -0.539,-0.82 -1,-1.266 -0.461,-0.433 -1.035,-0.867 -1.727,-1.304 -0.679,-0.418 -1.457,-0.778 -2.34,-1.07 0.243,0.843 0.461,1.632 0.653,2.374 0.191,0.743 0.39,1.438 0.594,2.09 z"/><path style="fill:#000000;fill-opacity:1;fill-rule:nonzero;stroke:none" d="m 220.914,61.52 c -0.269,-0.129 -0.391,-0.313 -0.363,-0.559 0.023,-0.254 0.32,-0.617 0.883,-1.09 1.035,-0.973 2.039,-1.656 3.011,-2.051 0.985,-0.394 1.996,-0.582 3.032,-0.554 0.765,0.011 1.425,0.109 1.976,0.285 0.551,0.179 1.016,0.402 1.399,0.672 0.386,0.269 0.691,0.554 0.921,0.863 0.231,0.32 0.411,0.613 0.539,0.879 0.204,0.387 0.27,0.742 0.192,1.074 -0.063,0.332 -0.231,0.645 -0.5,0.938 -0.254,0.308 -0.586,0.601 -0.996,0.882 -0.399,0.293 -0.824,0.586 -1.285,0.883 -0.45,0.293 -0.903,0.594 -1.364,0.899 -0.461,0.32 -0.875,0.66 -1.246,1.015 -0.297,0.27 -0.48,0.571 -0.558,0.903 -0.075,0.343 -0.082,0.687 -0.02,1.031 0.067,0.359 0.188,0.711 0.367,1.055 0.176,0.347 0.383,0.664 0.614,0.957 0.242,0.308 0.492,0.578 0.746,0.804 0.269,0.246 0.511,0.422 0.73,0.539 0.242,0.18 0.414,0.25 0.52,0.211 0.113,-0.027 0.176,-0.121 0.191,-0.289 0.024,-0.152 0.012,-0.363 -0.039,-0.633 -0.051,-0.265 -0.117,-0.554 -0.191,-0.859 -0.067,-0.297 -0.137,-0.59 -0.211,-0.883 -0.067,-0.293 -0.11,-0.554 -0.137,-0.785 -0.141,-1.098 0.668,-1.941 2.418,-2.527 0.32,-0.141 0.559,-0.18 0.711,-0.118 0.168,0.079 0.328,0.243 0.48,0.5 0.141,0.266 0.274,0.598 0.403,0.997 0.14,0.394 0.269,0.808 0.383,1.242 0.128,0.437 0.238,0.863 0.328,1.285 0.09,0.422 0.16,0.797 0.211,1.129 0,0.191 -0.008,0.398 -0.02,0.613 0,0.231 -0.031,0.461 -0.098,0.692 -0.05,0.23 -0.144,0.464 -0.285,0.707 -0.14,0.246 -0.34,0.488 -0.597,0.73 -0.395,0.355 -0.887,0.688 -1.477,0.996 -0.574,0.305 -1.152,0.563 -1.727,0.766 -0.382,0.113 -0.753,0.179 -1.113,0.191 -0.359,0.028 -0.691,0.012 -0.996,-0.039 -0.308,-0.051 -0.582,-0.133 -0.824,-0.246 -0.246,-0.105 -0.442,-0.211 -0.598,-0.328 -0.472,-0.293 -0.937,-0.652 -1.398,-1.07 -0.449,-0.411 -0.864,-0.86 -1.25,-1.344 -0.371,-0.473 -0.696,-0.965 -0.977,-1.473 -0.269,-0.512 -0.461,-0.996 -0.574,-1.457 -0.168,-0.523 -0.246,-1.023 -0.23,-1.496 0.011,-0.473 0.093,-0.918 0.25,-1.34 0.152,-0.422 0.363,-0.816 0.632,-1.187 0.282,-0.36 0.598,-0.676 0.957,-0.957 0.321,-0.27 0.68,-0.539 1.075,-0.805 0.398,-0.258 0.793,-0.508 1.191,-0.75 0.395,-0.242 0.766,-0.477 1.113,-0.707 0.356,-0.231 0.653,-0.441 0.883,-0.633 0.242,-0.191 0.402,-0.363 0.477,-0.516 0.089,-0.14 0.058,-0.261 -0.094,-0.367 -0.359,-0.293 -0.941,-0.343 -1.746,-0.152 -0.805,0.191 -1.754,0.625 -2.84,1.305 -0.191,0.125 -0.41,0.222 -0.652,0.285 -0.231,0.078 -0.473,0.121 -0.731,0.137 -0.254,0.011 -0.512,0 -0.765,-0.04 -0.258,-0.039 -0.5,-0.109 -0.731,-0.21 z"/><path style="fill:#000000;fill-opacity:1;fill-rule:nonzero;stroke:none" d="m 239.02,72.859 c -0.348,0.231 -0.75,0.45 -1.211,0.653 -0.461,0.203 -0.887,0.359 -1.286,0.461 -0.394,0.113 -0.695,0.125 -0.902,0.039 -0.191,-0.078 -0.344,-0.301 -0.461,-0.672 -0.14,-0.602 -0.293,-1.305 -0.457,-2.11 -0.168,-0.789 -0.336,-1.632 -0.5,-2.527 -0.152,-0.894 -0.308,-1.808 -0.461,-2.738 -0.152,-0.934 -0.289,-1.82 -0.402,-2.664 -0.129,-0.844 -0.231,-1.621 -0.309,-2.34 -0.09,-0.699 -0.144,-1.277 -0.172,-1.723 -0.039,-0.332 -0.007,-0.593 0.098,-0.785 0.09,-0.18 0.281,-0.34 0.574,-0.48 0.27,-0.141 0.551,-0.254 0.844,-0.344 0.309,-0.09 0.629,-0.18 0.961,-0.27 0.332,-0.074 0.551,-0.082 0.652,-0.019 0.114,0.066 0.203,0.207 0.266,0.422 0.117,0.574 0.25,1.226 0.406,1.957 0.164,0.738 0.344,1.519 0.535,2.336 0.192,0.832 0.391,1.672 0.594,2.527 0.207,0.871 0.41,1.715 0.617,2.531 0.215,0.828 0.426,1.614 0.633,2.356 0.215,0.742 0.414,1.398 0.594,1.972 0.09,0.348 0.097,0.61 0.019,0.786 -0.062,0.179 -0.277,0.39 -0.632,0.632 z"/><path style="fill:#000000;fill-opacity:1;fill-rule:nonzero;stroke:none" d="m 252.363,71.098 c 0.395,0.027 0.625,0.09 0.692,0.191 0.074,0.117 0.074,0.32 0,0.613 -0.09,0.332 -0.219,0.672 -0.383,1.016 -0.168,0.344 -0.379,0.664 -0.637,0.957 -0.125,0.168 -0.281,0.281 -0.457,0.348 -0.168,0.074 -0.449,0.113 -0.848,0.113 -0.753,-0.027 -1.609,-0.078 -2.57,-0.152 -0.945,-0.067 -1.918,-0.149 -2.914,-0.25 -0.984,-0.102 -1.957,-0.219 -2.918,-0.344 -0.945,-0.129 -1.797,-0.27 -2.551,-0.422 -0.242,-0.066 -0.402,-0.148 -0.48,-0.25 -0.078,-0.09 -0.039,-0.281 0.113,-0.574 0.141,-0.282 0.328,-0.625 0.559,-1.035 0.219,-0.411 0.461,-0.747 0.73,-1.016 0.254,-0.27 0.485,-0.434 0.688,-0.496 0.207,-0.055 0.468,-0.039 0.789,0.035 0.23,0.066 0.515,0.117 0.863,0.156 0.344,0.051 0.703,0.106 1.074,0.172 -0.191,-0.871 -0.383,-1.816 -0.578,-2.836 -0.191,-1.012 -0.367,-2.012 -0.535,-3.008 -0.152,-0.996 -0.289,-1.941 -0.402,-2.836 -0.118,-0.894 -0.192,-1.648 -0.231,-2.261 -0.051,-0.242 -0.047,-0.453 0.02,-0.633 0.062,-0.164 0.164,-0.313 0.304,-0.441 0.157,-0.125 0.34,-0.235 0.559,-0.325 0.219,-0.09 0.461,-0.172 0.727,-0.25 0.269,-0.074 0.511,-0.144 0.73,-0.211 0.219,-0.062 0.41,-0.093 0.574,-0.093 0.168,-0.012 0.297,0.011 0.387,0.074 0.102,0.055 0.164,0.168 0.191,0.348 0.18,0.929 0.383,1.933 0.614,3.007 0.242,1.071 0.5,2.172 0.765,3.293 0.27,1.137 0.547,2.282 0.828,3.43 0.293,1.152 0.575,2.262 0.844,3.336 0.625,0.062 1.235,0.121 1.82,0.172 0.59,0.062 1.133,0.121 1.633,0.172 z"/><path style="fill:#000000;fill-opacity:1;fill-rule:nonzero;stroke:none" d="m 267.738,61.27 c 0.039,-0.524 0.078,-1.008 0.117,-1.458 0.04,-0.433 0.083,-0.835 0.133,-1.207 0.051,-0.355 0.137,-0.605 0.25,-0.746 0.129,-0.14 0.344,-0.254 0.653,-0.343 0.293,-0.106 0.582,-0.161 0.863,-0.172 0.281,-0.028 0.59,-0.039 0.922,-0.039 0.332,0 0.543,0.043 0.633,0.133 0.101,0.089 0.152,0.25 0.152,0.48 -0.012,1.098 -0.02,2.285 -0.02,3.562 0.016,1.29 0.032,2.575 0.059,3.852 0.023,1.277 0.062,2.504 0.113,3.68 0.055,1.172 0.117,2.215 0.196,3.121 0.035,0.371 0,0.672 -0.118,0.898 -0.101,0.231 -0.351,0.418 -0.746,0.559 -0.297,0.074 -0.59,0.16 -0.883,0.246 -0.281,0.09 -0.597,0.176 -0.941,0.25 -0.332,0.078 -0.703,0.141 -1.113,0.191 -0.41,0.067 -0.875,0.11 -1.403,0.137 -0.597,0.051 -1.054,-0.035 -1.359,-0.25 -0.308,-0.219 -0.558,-0.5 -0.75,-0.844 -0.535,-0.957 -1.105,-2.054 -1.707,-3.297 -0.59,-1.222 -1.172,-2.468 -1.746,-3.734 -0.563,-1.266 -1.086,-2.492 -1.574,-3.68 -0.496,-1.187 -0.903,-2.222 -1.207,-3.101 -0.078,-0.27 -0.11,-0.485 -0.098,-0.653 0,-0.152 0.031,-0.281 0.098,-0.382 0.062,-0.102 0.152,-0.192 0.269,-0.27 0.114,-0.062 0.246,-0.144 0.403,-0.25 0.203,-0.101 0.41,-0.195 0.613,-0.285 0.191,-0.078 0.371,-0.148 0.535,-0.211 0.297,-0.102 0.512,-0.133 0.652,-0.098 0.157,0.039 0.282,0.168 0.387,0.387 0.18,0.406 0.363,0.82 0.555,1.242 0.191,0.438 0.418,0.903 0.672,1.399 0.73,0.191 1.566,0.351 2.511,0.48 0.961,0.141 1.922,0.274 2.879,0.403 z m -3.664,2.683 c 0.602,1.211 1.196,2.379 1.785,3.504 0.602,1.137 1.157,2.172 1.668,3.105 -0.023,-1.023 -0.031,-2.058 -0.019,-3.105 0.015,-1.035 0.035,-2.074 0.058,-3.121 -0.589,-0.039 -1.175,-0.09 -1.765,-0.156 -0.574,-0.063 -1.153,-0.137 -1.727,-0.227 z"/><path style="fill:#000000;fill-opacity:1;fill-rule:nonzero;stroke:none" d="m 277.098,67.016 c 0.191,-1.278 0.402,-2.516 0.632,-3.715 0.243,-1.203 0.493,-2.262 0.75,-3.18 0.063,-0.219 0.122,-0.398 0.172,-0.539 0.063,-0.141 0.133,-0.262 0.211,-0.363 0.078,-0.09 0.164,-0.164 0.27,-0.231 0.101,-0.05 0.222,-0.101 0.363,-0.152 0.383,-0.129 0.832,-0.242 1.344,-0.344 0.164,-0.039 0.301,-0.058 0.402,-0.058 0.102,0.011 0.184,0.039 0.25,0.078 0.063,0.035 0.113,0.093 0.153,0.172 0.05,0.089 0.109,0.203 0.171,0.343 0.207,0.45 0.477,1.004 0.809,1.668 0.344,0.676 0.715,1.391 1.113,2.145 0.407,0.754 0.824,1.519 1.246,2.301 0.434,0.777 0.844,1.5 1.227,2.164 -0.219,-0.754 -0.422,-1.532 -0.613,-2.336 -0.18,-0.805 -0.344,-1.578 -0.5,-2.321 -0.153,-0.726 -0.286,-1.398 -0.403,-2.011 -0.113,-0.602 -0.199,-1.09 -0.25,-1.477 -0.062,-0.316 -0.05,-0.574 0.039,-0.765 0.102,-0.192 0.301,-0.356 0.594,-0.497 0.231,-0.128 0.5,-0.238 0.809,-0.328 0.304,-0.09 0.605,-0.164 0.898,-0.23 0.336,-0.074 0.559,-0.063 0.672,0.039 0.117,0.101 0.219,0.269 0.309,0.5 0.101,0.445 0.242,1.008 0.422,1.683 0.179,0.68 0.378,1.418 0.593,2.223 0.231,0.805 0.469,1.649 0.711,2.531 0.258,0.879 0.504,1.75 0.75,2.606 0.254,0.855 0.504,1.672 0.746,2.453 0.242,0.777 0.461,1.469 0.653,2.066 0.14,0.422 0.16,0.75 0.058,0.977 -0.09,0.246 -0.32,0.457 -0.691,0.633 -0.563,0.258 -1.137,0.48 -1.727,0.672 -0.574,0.191 -1.125,0.359 -1.648,0.496 -0.449,0.129 -0.821,0.179 -1.113,0.156 -0.282,-0.027 -0.54,-0.141 -0.77,-0.348 -0.23,-0.191 -0.453,-0.476 -0.672,-0.859 -0.215,-0.371 -0.473,-0.852 -0.766,-1.438 -0.292,-0.511 -0.601,-1.054 -0.921,-1.628 -0.309,-0.575 -0.606,-1.149 -0.903,-1.723 -0.293,-0.578 -0.582,-1.137 -0.863,-1.688 -0.27,-0.55 -0.504,-1.054 -0.711,-1.515 -0.203,1.316 -0.363,2.351 -0.476,3.105 -0.118,0.754 -0.208,1.336 -0.27,1.742 -0.051,0.411 -0.09,0.692 -0.117,0.844 -0.012,0.168 -0.02,0.309 -0.02,0.422 -0.051,0.242 -0.101,0.461 -0.152,0.652 -0.039,0.192 -0.109,0.364 -0.211,0.516 -0.102,0.168 -0.242,0.313 -0.422,0.441 -0.18,0.141 -0.422,0.27 -0.73,0.383 -0.485,0.18 -0.969,0.332 -1.457,0.461 -0.473,0.129 -1.055,0.242 -1.747,0.344 -0.445,0.062 -0.781,0.039 -0.996,-0.074 -0.207,-0.106 -0.367,-0.371 -0.48,-0.805 -0.117,-0.602 -0.231,-1.297 -0.344,-2.09 -0.129,-0.781 -0.25,-1.609 -0.367,-2.492 -0.129,-0.879 -0.242,-1.773 -0.344,-2.68 -0.101,-0.91 -0.191,-1.781 -0.269,-2.625 -0.09,-0.843 -0.153,-1.629 -0.192,-2.359 -0.05,-0.715 -0.078,-1.32 -0.078,-1.82 -0.023,-0.332 0.02,-0.586 0.137,-0.766 0.113,-0.176 0.332,-0.344 0.652,-0.496 0.254,-0.129 0.531,-0.238 0.824,-0.328 0.305,-0.102 0.606,-0.184 0.903,-0.246 0.304,-0.067 0.515,-0.059 0.633,0.019 0.113,0.063 0.199,0.211 0.25,0.438 0.05,0.55 0.121,1.176 0.211,1.879 0.101,0.703 0.214,1.457 0.343,2.261 0.129,0.805 0.27,1.641 0.422,2.508 0.153,0.871 0.313,1.738 0.481,2.606 z"/><path style="fill:#000000;fill-opacity:1;fill-rule:nonzero;stroke:none" d="m 292.023,72.938 -1.824,-12.743 c -0.027,-0.343 0.028,-0.636 0.153,-0.879 0.117,-0.242 0.281,-0.453 0.5,-0.632 0.269,-0.231 0.5,-0.422 0.691,-0.575 0.203,-0.14 0.414,-0.281 0.633,-0.421 0.191,-0.129 0.414,-0.223 0.672,-0.29 0.269,-0.074 0.656,-0.05 1.168,0.079 0.769,0.14 1.574,0.293 2.418,0.461 0.843,0.164 1.675,0.324 2.496,0.476 0.343,0.066 0.55,0.141 0.613,0.231 0.062,0.101 0.062,0.281 0,0.535 -0.102,0.23 -0.199,0.453 -0.289,0.672 -0.074,0.23 -0.192,0.472 -0.344,0.726 -0.14,0.231 -0.312,0.383 -0.519,0.461 -0.192,0.078 -0.465,0.102 -0.825,0.078 -0.64,-0.039 -1.234,-0.09 -1.785,-0.156 -0.535,-0.063 -1.105,-0.145 -1.707,-0.246 0.102,0.355 0.199,0.715 0.289,1.07 0.09,0.371 0.184,0.762 0.289,1.172 0.739,0.152 1.508,0.293 2.301,0.418 0.805,0.129 1.594,0.262 2.359,0.402 0.36,0.078 0.575,0.168 0.653,0.27 0.09,0.101 0.082,0.301 -0.02,0.594 -0.062,0.257 -0.14,0.504 -0.23,0.746 -0.074,0.258 -0.192,0.511 -0.344,0.769 -0.141,0.254 -0.312,0.422 -0.519,0.496 -0.204,0.078 -0.485,0.11 -0.844,0.098 -0.434,-0.016 -0.844,-0.035 -1.227,-0.059 -0.383,-0.027 -0.769,-0.062 -1.152,-0.113 0.203,0.676 0.391,1.32 0.555,1.934 0.168,0.625 0.347,1.226 0.539,1.8 0.906,0.129 1.773,0.235 2.589,0.325 0.821,0.09 1.614,0.179 2.379,0.269 0.371,0.051 0.61,0.133 0.711,0.25 0.102,0.114 0.129,0.336 0.078,0.668 -0.066,0.297 -0.128,0.563 -0.195,0.805 -0.062,0.258 -0.176,0.539 -0.344,0.844 -0.203,0.574 -0.671,0.855 -1.402,0.843 -0.766,-0.023 -1.539,-0.089 -2.32,-0.191 -0.766,-0.09 -1.524,-0.199 -2.262,-0.324 -0.73,-0.129 -1.434,-0.27 -2.113,-0.422 -0.664,-0.156 -1.274,-0.301 -1.821,-0.441 z"/><path style="fill:#000000;fill-opacity:1;fill-rule:nonzero;stroke:none" d="m 314.609,71.098 c 0.395,0.027 0.625,0.09 0.692,0.191 0.074,0.117 0.074,0.32 0,0.613 -0.09,0.332 -0.219,0.672 -0.387,1.016 -0.164,0.344 -0.375,0.664 -0.633,0.957 -0.129,0.168 -0.281,0.281 -0.461,0.348 -0.164,0.074 -0.445,0.113 -0.843,0.113 -0.754,-0.027 -1.61,-0.078 -2.571,-0.152 -0.945,-0.067 -1.918,-0.149 -2.918,-0.25 -0.984,-0.102 -1.957,-0.219 -2.914,-0.344 -0.949,-0.129 -1.797,-0.27 -2.551,-0.422 -0.246,-0.066 -0.406,-0.148 -0.48,-0.25 -0.078,-0.09 -0.039,-0.281 0.113,-0.574 0.141,-0.282 0.328,-0.625 0.559,-1.035 0.215,-0.411 0.461,-0.747 0.726,-1.016 0.258,-0.27 0.489,-0.434 0.692,-0.496 0.207,-0.055 0.469,-0.039 0.789,0.035 0.226,0.066 0.516,0.117 0.863,0.156 0.344,0.051 0.703,0.106 1.074,0.172 -0.195,-0.871 -0.386,-1.816 -0.578,-2.836 -0.191,-1.012 -0.371,-2.012 -0.535,-3.008 -0.156,-0.996 -0.289,-1.941 -0.402,-2.836 -0.117,-0.894 -0.196,-1.648 -0.231,-2.261 -0.051,-0.242 -0.047,-0.453 0.02,-0.633 0.062,-0.164 0.164,-0.313 0.305,-0.441 0.152,-0.125 0.339,-0.235 0.558,-0.325 0.215,-0.09 0.457,-0.172 0.727,-0.25 0.269,-0.074 0.511,-0.144 0.73,-0.211 0.219,-0.062 0.41,-0.093 0.574,-0.093 0.168,-0.012 0.297,0.011 0.383,0.074 0.106,0.055 0.168,0.168 0.195,0.348 0.176,0.929 0.383,1.933 0.614,3.007 0.242,1.071 0.496,2.172 0.765,3.293 0.27,1.137 0.543,2.282 0.825,3.43 0.296,1.152 0.578,2.262 0.847,3.336 0.625,0.062 1.235,0.121 1.821,0.172 0.589,0.062 1.132,0.121 1.632,0.172 z"/><path style="fill:#000000;fill-opacity:1;fill-rule:nonzero;stroke:none" d="m 328.316,74.203 c -0.332,0.227 -0.73,0.438 -1.191,0.629 -0.445,0.195 -0.863,0.34 -1.246,0.441 -0.41,0.141 -0.719,0.168 -0.922,0.079 -0.191,-0.09 -0.34,-0.332 -0.441,-0.727 -0.219,-0.82 -0.446,-1.746 -0.692,-2.781 -0.242,-1.035 -0.476,-2.082 -0.707,-3.141 -0.23,-1.058 -0.441,-2.094 -0.637,-3.105 -0.175,-0.996 -0.316,-1.864 -0.421,-2.606 -0.063,-0.367 -0.051,-0.648 0.039,-0.84 0.101,-0.179 0.3,-0.347 0.593,-0.5 0.282,-0.14 0.571,-0.261 0.864,-0.363 0.308,-0.09 0.64,-0.168 1,-0.23 0.293,-0.079 0.504,-0.082 0.633,-0.02 0.14,0.063 0.242,0.231 0.308,0.5 0.192,0.766 0.406,1.59 0.652,2.469 0.254,0.894 0.528,1.82 0.825,2.777 0.304,0.961 0.621,1.93 0.937,2.914 0.336,0.985 0.668,1.953 1,2.914 0.113,0.344 0.129,0.629 0.039,0.86 -0.078,0.242 -0.289,0.484 -0.633,0.73 z m -7.195,-15.328 c -0.027,-0.613 0.172,-1.086 0.594,-1.418 0.422,-0.332 0.933,-0.492 1.535,-0.48 0.281,0 0.531,0.05 0.75,0.156 0.227,0.086 0.422,0.203 0.574,0.344 0.164,0.128 0.301,0.265 0.403,0.421 0.113,0.164 0.191,0.305 0.23,0.422 0.051,0.153 0.07,0.332 0.059,0.535 0,0.204 -0.051,0.411 -0.157,0.614 -0.101,0.203 -0.261,0.39 -0.476,0.554 -0.219,0.18 -0.5,0.313 -0.848,0.403 -0.406,0.117 -0.777,0.148 -1.109,0.097 -0.321,-0.039 -0.598,-0.14 -0.828,-0.308 -0.231,-0.153 -0.403,-0.352 -0.516,-0.594 -0.129,-0.23 -0.199,-0.476 -0.211,-0.746 z"/><g transform="matrix(1,0,0,-0.999,0,478)"><path style="fill:#ffffff;fill-opacity:1;fill-rule:nonzero;stroke:#000000;stroke-width:4.106;stroke-linecap:butt;stroke-linejoin:miter;stroke-miterlimit:10;stroke-dasharray:none;stroke-opacity:1" d="M 185.148,241.078 177.34,279.537 206,244.364"/></g><g transform="matrix(1,0,0,-0.999,0,478)"><path style="fill:#ffffff;fill-opacity:1;fill-rule:nonzero;stroke:#000000;stroke-width:4.106;stroke-linecap:butt;stroke-linejoin:miter;stroke-miterlimit:10;stroke-dasharray:none;stroke-opacity:1" d="m 337.852,408.506 31.16,-23.859 -44.723,7.679"/></g><path style="fill:#e71e1e;fill-opacity:1;fill-rule:nonzero;stroke:none" d="M 320.859,165.762 243,120.875 c -0.25,-0.145 -0.508,-0.27 -0.777,-0.383 -0.266,-0.109 -0.539,-0.203 -0.821,-0.277 -0.277,-0.074 -0.562,-0.129 -0.847,-0.168 -0.289,-0.039 -0.578,-0.059 -0.867,-0.059 -0.29,0 -0.579,0.02 -0.864,0.059 -0.289,0.039 -0.57,0.094 -0.851,0.168 -0.278,0.074 -0.551,0.168 -0.821,0.277 -0.265,0.113 -0.527,0.238 -0.777,0.383 -0.25,0.145 -0.488,0.305 -0.719,0.48 -0.23,0.176 -0.449,0.368 -0.652,0.571 -0.203,0.207 -0.395,0.422 -0.57,0.652 -0.176,0.231 -0.336,0.469 -0.485,0.719 -0.144,0.25 -0.269,0.508 -0.383,0.777 -0.109,0.266 -0.203,0.539 -0.277,0.821 -0.074,0.277 -0.133,0.558 -0.168,0.847 -0.039,0.285 -0.059,0.574 -0.059,0.863 v 89.77 c 0,0.582 0.079,1.152 0.227,1.711 0.152,0.562 0.371,1.094 0.66,1.598 0.293,0.504 0.645,0.961 1.055,1.371 0.41,0.41 0.867,0.757 1.371,1.05 0.504,0.29 1.039,0.512 1.598,0.661 0.562,0.148 1.132,0.226 1.715,0.226 0.582,0 1.152,-0.078 1.714,-0.226 0.563,-0.149 1.094,-0.371 1.598,-0.661 l 77.859,-44.886 c 0.504,-0.289 0.961,-0.641 1.371,-1.051 0.411,-0.41 0.762,-0.867 1.051,-1.371 0.293,-0.5 0.512,-1.035 0.664,-1.594 0.149,-0.562 0.227,-1.133 0.227,-1.711 0,-0.582 -0.078,-1.152 -0.227,-1.715 -0.152,-0.558 -0.371,-1.093 -0.664,-1.593 -0.289,-0.504 -0.64,-0.961 -1.051,-1.372 -0.41,-0.41 -0.867,-0.761 -1.371,-1.05 z"/><path style="fill:#000000;fill-opacity:1;fill-rule:nonzero;stroke:none" d="M 46.488,68.789 H 512.797 V 39.992 H 46.488 Z"/><text style="font-variant:normal;font-weight:600;font-size:20.077px;font-family:'IBM Plex Mono SemiBold';-inkscape-font-specification:IBMPlexMono-SemiBold;writing-mode:lr-tb;fill:#ffffff;fill-opacity:1;fill-rule:nonzero;stroke:none" transform="matrix(1,0,0,-0.999,51.374,47.775)"><tspan x="0 12.046 24.012 36.057 48.023 60.069 72.035 84.081 96.046 108.092 120.038 132.084 144.049 156.095 168.061 180.107 192.072 204.118 216.084 228.13 240.095 252.141 264.107 276.153 288.119 300.165 312.13 324.176 336.142 348.127 360.173 372.139 384.185 396.151 408.196 420.162 432.208 444.174">A: Lorem ipsum ? / B: Dolor sit amet !</tspan></text></g></g></g></g></g></g></g></svg>
