<?xml version="1.0" encoding="utf-8"?>
<svg xmlns:dc="http://purl.org/dc/elements/1.1/" xmlns:cc="http://creativecommons.org/ns#" xmlns:rdf="http://www.w3.org/1999/02/22-rdf-syntax-ns#" xmlns:svg="http://www.w3.org/2000/svg" xmlns="http://www.w3.org/2000/svg" viewBox="0 0 742.66656 349.31351" height="349.314" width="742.667" xml:space="preserve" version="1.1"><defs><clipPath id="clipPath22" clipPathUnits="userSpaceOnUse"><path d="M 0,0 H 557 V 262 H 0 Z"/></clipPath><clipPath id="clipPath104" clipPathUnits="userSpaceOnUse"><path d="M 87.828,148.634 H 320.539 V 120.107 H 87.828 Z"/></clipPath><clipPath id="clipPath114" clipPathUnits="userSpaceOnUse"><path d="m 87,120 h 234 v 29 H 87 Z"/></clipPath><clipPath id="clipPath128" clipPathUnits="userSpaceOnUse"><path d="M 89.332,147.134 H 319.035 V 121.611 H 89.332 Z"/></clipPath><clipPath id="clipPath138" clipPathUnits="userSpaceOnUse"><path d="m 91,124 h 49 v 17 H 91 Z"/></clipPath><clipPath id="clipPath156" clipPathUnits="userSpaceOnUse"><path d="M 33,38 H 363 V 98 H 33 Z"/></clipPath><clipPath id="clipPath180" clipPathUnits="userSpaceOnUse"><path d="M 80.32,60.055 H 313.031 V 31.528 H 80.32 Z"/></clipPath><clipPath id="clipPath190" clipPathUnits="userSpaceOnUse"><path d="M 80,31 H 314 V 61 H 80 Z"/></clipPath><clipPath id="clipPath204" clipPathUnits="userSpaceOnUse"><path d="M 81.824,58.552 H 311.531 V 33.029 H 81.824 Z"/></clipPath><clipPath id="clipPath214" clipPathUnits="userSpaceOnUse"><path d="m 83,38 h 65 V 53 H 83 Z"/></clipPath></defs><g transform="matrix(1.333,0,0,-1.333,0,349.314)"><g><g transform="translate(0,-0.015)"><g><g clip-path="url(#clipPath22)"><g><path style="fill:#d3d3d3;fill-opacity:1;fill-rule:nonzero;stroke:none" d="M 0,262 H 557 V 0.016 H 0 Z"/><path style="fill:#eeeeee;fill-opacity:1;fill-rule:nonzero;stroke:none" d="m 0,262 h 557 v -2.254 H 0 Z"/><path style="fill:#9a9a9a;fill-opacity:1;fill-rule:nonzero;stroke:none" d="M 0,2.266 H 557 V 0.016 H 0 Z"/><path style="fill:#9a9a9a;fill-opacity:1;fill-rule:nonzero;stroke:none" d="M 554.746,259.746 V 0.016 H 557 V 262"/><path style="fill:#eeeeee;fill-opacity:1;fill-rule:nonzero;stroke:none" d="M 0,262 V 0.016 l 2.254,2.25 V 262"/><path style="fill:#00008b;fill-opacity:1;fill-rule:nonzero;stroke:none" d="M 5.254,256.746 H 551.746 V 218.461 H 5.254 Z"/><path style="fill:#d3d3d3;fill-opacity:1;fill-rule:nonzero;stroke:none" d="M 5.254,218.461 H 551.746 V 175.672 H 5.254 Z"/><path style="fill:#ffffff;fill-opacity:1;fill-rule:nonzero;stroke:none" d="M 5.254,175.672 H 551.746 V 5.27 H 5.254 Z"/><path style="fill:#9a9a9a;fill-opacity:1;fill-rule:nonzero;stroke:none" d="m 5.254,175.672 h 546.492 v -2.25 H 5.254 Z"/><path style="fill:#eeeeee;fill-opacity:1;fill-rule:nonzero;stroke:none" d="M 5.254,7.523 H 551.746 V 5.269 H 5.254 Z"/><path style="fill:#eeeeee;fill-opacity:1;fill-rule:nonzero;stroke:none" d="M 549.492,173.422 V 5.27 h 2.254 v 170.402"/><path style="fill:#9a9a9a;fill-opacity:1;fill-rule:nonzero;stroke:none" d="M 5.254,175.672 V 5.27 l 2.254,2.253 v 168.149"/><path style="fill:#d3d3d3;fill-opacity:1;fill-rule:nonzero;stroke:none" d="m 517.215,252.242 h 30.027 v -30.027 h -30.027 z"/><path style="fill:#ffffff;fill-opacity:1;fill-rule:nonzero;stroke:none" d="m 517.215,252.242 h 30.027 v -3.754 h -30.027 z"/><path style="fill:#ababab;fill-opacity:1;fill-rule:nonzero;stroke:none" d="m 517.215,225.969 h 30.027 v -3.754 h -30.027 z"/><path style="fill:#ababab;fill-opacity:1;fill-rule:nonzero;stroke:none" d="m 543.488,248.488 v -26.273 h 3.754 v 30.027"/><path style="fill:#ffffff;fill-opacity:1;fill-rule:nonzero;stroke:none" d="m 517.215,252.242 v -30.027 l 3.754,3.754 v 26.273"/><text style="font-variant:normal;font-weight:normal;font-size:18.016px;font-family:'DejaVu Sans';-inkscape-font-specification:DejaVuSans;writing-mode:lr-tb;fill:#000000;fill-opacity:1;fill-rule:nonzero;stroke:none" transform="matrix(1,0,0,-1,524.979,231.222)"><tspan>✕</tspan></text><text style="font-variant:normal;font-weight:600;font-size:18.016px;font-family:'IBM Plex Sans SemiBold';-inkscape-font-specification:IBMPlexSans-SemiBold;writing-mode:lr-tb;fill:#ffffff;fill-opacity:1;fill-rule:nonzero;stroke:none" transform="matrix(1,0,0,-1,9.501,230.472)"><tspan x="0 9.765 20.268 27.024 42.788 53.31 58.553 68.317 73.578 80.334 90.081 94.585 101.359 105.845 117.862 129.879 142.634 147.138 158.398 165.911 176.414">Formulaire | BAD SITE</tspan></text><text style="font-variant:normal;font-weight:normal;font-size:22.52px;font-family:'IBM Plex Sans';-inkscape-font-specification:IBMPlexSans;writing-mode:lr-tb;fill:#000000;fill-opacity:1;fill-rule:nonzero;stroke:none" transform="matrix(1,0,0,-1,13.5,188.434)"><tspan>←</tspan></text><text style="font-variant:normal;font-weight:normal;font-size:22.52px;font-family:'IBM Plex Sans';-inkscape-font-specification:IBMPlexSans;writing-mode:lr-tb;fill:#000000;fill-opacity:1;fill-rule:nonzero;stroke:none" transform="matrix(1,0,0,-1,42.777,188.434)"><tspan>→</tspan></text><text style="font-variant:normal;font-weight:normal;font-size:22.52px;font-family:'DejaVu Sans';-inkscape-font-specification:DejaVuSans;writing-mode:lr-tb;fill:#000000;fill-opacity:1;fill-rule:nonzero;stroke:none" transform="matrix(1,0,0,-1,72.053,188.434)"><tspan>⟳</tspan></text><path style="fill:#ffffff;fill-opacity:1;fill-rule:nonzero;stroke:none" d="m 102.59,185.68 v 22.773 c 0,0.465 0.09,0.91 0.265,1.34 0.18,0.43 0.434,0.809 0.762,1.137 0.328,0.328 0.707,0.582 1.137,0.761 0.43,0.176 0.875,0.266 1.34,0.266 h 404.863 c 0.465,0 0.914,-0.09 1.344,-0.266 0.429,-0.179 0.808,-0.433 1.137,-0.761 0.328,-0.328 0.582,-0.707 0.757,-1.137 0.18,-0.43 0.27,-0.875 0.27,-1.34 V 185.68 c 0,-0.465 -0.09,-0.91 -0.27,-1.34 -0.175,-0.43 -0.429,-0.809 -0.757,-1.137 -0.329,-0.328 -0.708,-0.582 -1.137,-0.762 -0.43,-0.175 -0.879,-0.265 -1.344,-0.265 H 106.094 c -0.465,0 -0.91,0.09 -1.34,0.265 -0.43,0.18 -0.809,0.434 -1.137,0.762 -0.328,0.328 -0.582,0.707 -0.762,1.137 -0.175,0.43 -0.265,0.875 -0.265,1.34 z"/><g transform="matrix(1,0,0,-1,0,262)"><path style="fill:none;stroke:#808080;stroke-width:0.751;stroke-linecap:butt;stroke-linejoin:miter;stroke-miterlimit:10;stroke-dasharray:none;stroke-opacity:1" d="M 102.469,76.32 V 53.547 c 0,-0.481 0.09,-0.942 0.273,-1.387 0.184,-0.445 0.446,-0.836 0.789,-1.176 0.34,-0.343 0.731,-0.605 1.176,-0.789 0.445,-0.183 0.906,-0.277 1.387,-0.277 h 404.863 c 0.484,0 0.945,0.094 1.391,0.277 0.445,0.184 0.836,0.446 1.175,0.789 0.34,0.34 0.602,0.731 0.789,1.176 0.184,0.445 0.274,0.906 0.274,1.387 V 76.32 c 0,0.481 -0.09,0.942 -0.274,1.387 -0.187,0.445 -0.449,0.836 -0.789,1.176 -0.339,0.34 -0.73,0.605 -1.175,0.789 -0.446,0.183 -0.907,0.273 -1.391,0.273 H 106.094 c -0.481,0 -0.942,-0.09 -1.387,-0.273 -0.445,-0.184 -0.836,-0.449 -1.176,-0.789 -0.343,-0.34 -0.605,-0.731 -0.789,-1.176 -0.183,-0.445 -0.273,-0.906 -0.273,-1.387 z"/></g><text style="font-variant:normal;font-weight:normal;font-size:16.215px;font-family:'IBM Plex Sans';-inkscape-font-specification:IBMPlexSans;writing-mode:lr-tb;fill:#000000;fill-opacity:1;fill-rule:nonzero;stroke:none" transform="matrix(1,0,0,-1,111.076,190.686)"><tspan x="0 9.761 15.761 21.776 31.537 39.791 44.298 48.044 54.059 63.058 71.279 80.327 94.596 104.357 108.848 117.864 122.371 130.624 139.64 153.892 159.908 165.161 174.177 180.176">https://example.com/form</tspan></text><text style="font-variant:normal;font-weight:normal;font-size:22.52px;font-family:'DejaVu Sans';-inkscape-font-specification:DejaVuSans;writing-mode:lr-tb;fill:#000000;fill-opacity:1;fill-rule:nonzero;stroke:none" transform="matrix(1,0,0,-1,523.231,188.434)"><tspan>☰</tspan></text><text style="font-variant:normal;font-weight:normal;font-size:18.016px;font-family:'IBM Plex Sans';-inkscape-font-specification:IBMPlexSans;writing-mode:lr-tb;fill:#000000;fill-opacity:1;fill-rule:nonzero;stroke:none" transform="matrix(1,0,0,-1,32.021,127.629)"><tspan x="0 9.026 18.773 25.529 35.276">Lorem</tspan></text></g></g></g></g></g><g><g clip-path="url(#clipPath104)"><g transform="translate(0,-0.015)"><g><g clip-path="url(#clipPath114)"><g><g transform="matrix(1,0,0,-1,0,262)"><path style="fill:#ffffff;fill-opacity:1;fill-rule:nonzero;stroke:#767676;stroke-width:0.751;stroke-linecap:butt;stroke-linejoin:miter;stroke-miterlimit:10;stroke-dasharray:none;stroke-opacity:1" d="m 88.203,140 v -24.773 c 0,-0.196 0.039,-0.391 0.117,-0.575 0.075,-0.183 0.184,-0.343 0.325,-0.484 0.14,-0.141 0.3,-0.25 0.488,-0.328 0.183,-0.074 0.375,-0.113 0.574,-0.113 H 318.66 c 0.199,0 0.391,0.039 0.574,0.113 0.184,0.078 0.348,0.187 0.489,0.328 0.14,0.141 0.25,0.301 0.324,0.484 0.078,0.184 0.117,0.379 0.117,0.575 V 140 c 0,0.199 -0.039,0.391 -0.117,0.574 -0.074,0.184 -0.184,0.348 -0.324,0.488 -0.141,0.141 -0.305,0.25 -0.489,0.325 -0.183,0.078 -0.375,0.117 -0.574,0.117 H 89.707 c -0.199,0 -0.391,-0.039 -0.574,-0.117 -0.188,-0.075 -0.348,-0.184 -0.488,-0.325 -0.141,-0.14 -0.25,-0.304 -0.325,-0.488 -0.078,-0.183 -0.117,-0.375 -0.117,-0.574 z"/></g></g></g></g></g></g></g><g><g clip-path="url(#clipPath128)"><g transform="translate(0,-0.015)"><g><g clip-path="url(#clipPath138)"><g><text style="font-variant:normal;font-weight:normal;font-size:18.016px;font-family:'IBM Plex Sans';-inkscape-font-specification:IBMPlexSans;writing-mode:lr-tb;fill:#000000;fill-opacity:1;fill-rule:nonzero;stroke:none" transform="matrix(1,0,0,-1,90.573,127.629)"><tspan x="0 4.504 15.007 24.016 34.537">ipsum</tspan></text></g></g></g></g></g></g><g><g transform="translate(0,-0.015)"><g><g clip-path="url(#clipPath156)"><g><text style="font-variant:normal;font-weight:normal;font-size:18.016px;font-family:'IBM Plex Sans';-inkscape-font-specification:IBMPlexSans;writing-mode:lr-tb;fill:#000000;fill-opacity:1;fill-rule:nonzero;stroke:none" transform="matrix(1,0,0,-1,32.021,83.34)"><tspan x="0 11.26 21.025 25.529 34.537 45.04 54.805 70.533 81.073 85.577 94.585 104.35 111.106 120.87 125.375 135.878 141.895 146.399 151.642 156.146 165.154 174.919 179.423 188.431 198.196 213.924 229.724 239.489 243.993 248.497 259 268.765 279.269 285.268">Ce champ sera utilisé comme identi</tspan></text><text style="font-variant:normal;font-weight:normal;font-size:18.016px;font-family:'IBM Plex Sans';-inkscape-font-specification:IBMPlexSans;writing-mode:lr-tb;fill:#000000;fill-opacity:1;fill-rule:nonzero;stroke:none" transform="matrix(1,0,0,-1,321.793,83.34)"><tspan>ﬁ</tspan></text><text style="font-variant:normal;font-weight:normal;font-size:18.016px;font-family:'IBM Plex Sans';-inkscape-font-specification:IBMPlexSans;writing-mode:lr-tb;fill:#000000;fill-opacity:1;fill-rule:nonzero;stroke:none" transform="matrix(1,0,0,-1,332.314,83.34)"><tspan x="0 9.765 20.268 26.268">ant.</tspan><tspan y="44.29" x="-300.294 -288.277 -278.53 -273.269 -263.505">Dolor</tspan></text></g></g></g></g></g><g><g clip-path="url(#clipPath180)"><g transform="translate(0,-0.015)"><g><g clip-path="url(#clipPath190)"><g><g transform="matrix(1,0,0,-1,0,262)"><path style="fill:#ffffff;fill-opacity:1;fill-rule:nonzero;stroke:#767676;stroke-width:0.751;stroke-linecap:butt;stroke-linejoin:miter;stroke-miterlimit:10;stroke-dasharray:none;stroke-opacity:1" d="m 80.699,228.582 v -24.773 c 0,-0.2 0.035,-0.391 0.113,-0.575 0.075,-0.183 0.184,-0.347 0.325,-0.488 0.14,-0.141 0.304,-0.25 0.488,-0.324 0.184,-0.078 0.375,-0.117 0.574,-0.117 h 228.953 c 0.2,0 0.391,0.039 0.578,0.117 0.184,0.074 0.344,0.183 0.485,0.324 0.14,0.141 0.25,0.305 0.328,0.488 0.074,0.184 0.113,0.375 0.113,0.575 v 24.773 c 0,0.195 -0.039,0.391 -0.113,0.574 -0.078,0.184 -0.188,0.344 -0.328,0.485 -0.141,0.14 -0.301,0.25 -0.485,0.328 -0.187,0.074 -0.378,0.113 -0.578,0.113 H 82.199 c -0.199,0 -0.39,-0.039 -0.574,-0.113 -0.184,-0.078 -0.348,-0.188 -0.488,-0.328 -0.141,-0.141 -0.25,-0.301 -0.325,-0.485 -0.078,-0.183 -0.113,-0.379 -0.113,-0.574 z"/></g></g></g></g></g></g></g><g><g clip-path="url(#clipPath204)"><g transform="translate(0,-0.015)"><g><g clip-path="url(#clipPath214)"><g><text style="font-variant:normal;font-weight:normal;font-size:18.016px;font-family:'IBM Plex Sans';-inkscape-font-specification:IBMPlexSans;writing-mode:lr-tb;fill:#000000;fill-opacity:1;fill-rule:nonzero;stroke:none" transform="matrix(1,0,0,-1,83.067,39.05)"><tspan x="0 9.008 13.512 19.512 24.016 33.78 49.508 59.309">sit amet</tspan></text></g></g></g></g></g></g></g></svg>
